<svg width="30" height="30" viewBox="0 0 30 30" fill="none" xmlns="http://www.w3.org/2000/svg">
<path d="M21.25 8.25L16.25 13.2375H20V22H22.5V13.2375H26.25L21.25 8.25Z" fill="#485AFD"/>
<path d="M11.9189 0C11.9277 0.023442 11.9306 0.0498142 11.9394 0.0732562C11.9482 0.0966982 11.9541 0.12307 11.9599 0.146512C11.9687 0.184606 11.9775 0.225629 11.9892 0.263722C12.0009 0.307676 12.0097 0.35163 12.0244 0.395583C12.0332 0.421956 12.039 0.451258 12.0478 0.480561C12.0566 0.509863 12.0625 0.542096 12.0713 0.571398C12.0771 0.59191 12.083 0.615352 12.0888 0.635864C12.0976 0.665166 12.1064 0.697399 12.1123 0.726701C12.1211 0.764795 12.1328 0.805818 12.1416 0.843911C12.1504 0.870284 12.1592 0.899586 12.1621 0.925958C12.165 0.94647 12.1767 0.966982 12.1797 0.990424C12.1855 1.01094 12.1885 1.03145 12.1943 1.05196C12.2031 1.07833 12.209 1.10763 12.2178 1.13401C12.2266 1.16331 12.2354 1.19554 12.2412 1.22484C12.2471 1.25415 12.2588 1.28052 12.2647 1.30982C12.2764 1.34791 12.2852 1.38894 12.294 1.42703C12.3027 1.45633 12.3115 1.48271 12.3174 1.51201C12.3262 1.55303 12.3408 1.59405 12.3496 1.63508C12.3555 1.66145 12.3643 1.69075 12.3731 1.71712C12.3848 1.75229 12.3965 1.79038 12.4024 1.82554C12.4082 1.85485 12.4229 1.88415 12.4229 1.91638C12.4405 1.95741 12.4434 2.00429 12.4639 2.04531C12.4668 2.09513 12.4874 2.14201 12.4991 2.18889C12.5079 2.22699 12.5196 2.26215 12.5313 2.30024C12.5401 2.33834 12.5548 2.37643 12.5606 2.41745C12.5665 2.44676 12.5782 2.47313 12.5841 2.50243C12.5958 2.54052 12.6016 2.58155 12.6134 2.61964C12.6221 2.64894 12.6309 2.67532 12.6368 2.70462C12.6427 2.73685 12.6514 2.76908 12.6632 2.79839C12.6778 2.84234 12.6837 2.88629 12.6983 2.93025C12.7071 2.95076 12.7101 2.9742 12.7159 2.99471C12.7247 3.02402 12.7335 3.05625 12.7394 3.08555C12.7481 3.12364 12.7599 3.16174 12.7716 3.1969C12.7774 3.22034 12.7833 3.24085 12.7921 3.2643C12.8009 3.29653 12.8097 3.32876 12.8185 3.36099C12.8214 3.36978 12.8243 3.38151 12.8302 3.39616C12.8273 3.39323 12.8273 3.39323 12.8302 3.39616H12.8331C13.5422 3.39616 14.2514 3.39616 14.9634 3.39616C14.9605 3.40202 14.9576 3.40788 14.9576 3.41081C14.9458 3.43132 14.9341 3.45183 14.9224 3.46941C14.8902 3.52216 14.8638 3.57783 14.8286 3.62765C14.814 3.64816 14.8052 3.6716 14.7935 3.69504C14.7729 3.73021 14.7524 3.76537 14.729 3.80053C14.7173 3.81811 14.7085 3.83862 14.6968 3.85914C14.6704 3.90016 14.6469 3.94118 14.6235 3.98221C14.603 4.01737 14.5825 4.05253 14.562 4.0877C14.5444 4.12286 14.5239 4.15509 14.5034 4.18732C14.4916 4.20491 14.4829 4.22249 14.4741 4.243C14.4477 4.29574 14.4155 4.34849 14.3862 4.3983C14.3569 4.44519 14.3305 4.495 14.3012 4.54188C14.2807 4.57705 14.2602 4.61514 14.2396 4.6503C14.2133 4.70012 14.1869 4.74993 14.1517 4.79682C14.1371 4.81733 14.1283 4.8437 14.1166 4.86714C14.0961 4.9023 14.0756 4.93454 14.055 4.9697C14.0433 4.98728 14.0345 5.01072 14.0228 5.0283C13.9906 5.07812 13.9642 5.13379 13.929 5.18361C13.9144 5.20412 13.9056 5.23049 13.8909 5.25393C13.8704 5.2891 13.847 5.32426 13.8265 5.35942C13.8148 5.377 13.806 5.39752 13.7972 5.4151C13.7737 5.45612 13.7474 5.49714 13.7239 5.53817C13.7034 5.57333 13.6829 5.60849 13.6624 5.64366C13.6331 5.69347 13.6067 5.74622 13.5745 5.7931C13.5598 5.81361 13.551 5.83998 13.5393 5.86343C13.5305 5.87808 13.5188 5.89273 13.51 5.91031C13.5042 5.92203 13.5012 5.93668 13.5042 5.94547C13.5188 5.97771 13.5217 6.01287 13.5335 6.0451C13.5422 6.07147 13.5481 6.10078 13.5569 6.13008C13.5686 6.16524 13.5774 6.20333 13.5862 6.2385C13.595 6.2678 13.6038 6.29417 13.6096 6.32347C13.6155 6.35571 13.6272 6.38501 13.636 6.41724C13.6419 6.44948 13.6536 6.47878 13.6595 6.50808C13.6682 6.54031 13.677 6.57255 13.6858 6.60478C13.6946 6.63701 13.7034 6.66924 13.7122 6.70148C13.721 6.73371 13.7298 6.76887 13.7386 6.8011C13.7474 6.82455 13.7503 6.84506 13.7562 6.8685C13.7679 6.90659 13.7767 6.94469 13.7884 6.98278C13.7942 7.00329 13.8001 7.0238 13.803 7.04432C13.8089 7.06776 13.8177 7.0912 13.8235 7.11464C13.8294 7.13808 13.8353 7.16152 13.8411 7.18497C13.8499 7.21427 13.8558 7.24064 13.8646 7.26994C13.8734 7.29925 13.8792 7.33148 13.888 7.36078C13.8939 7.38129 13.8997 7.4018 13.9027 7.42232C13.9144 7.46041 13.9202 7.50143 13.9349 7.5366C13.9408 7.55711 13.9466 7.57762 13.9495 7.59813C13.9583 7.63623 13.9671 7.67432 13.9818 7.71241C13.9876 7.73292 13.9906 7.75637 13.9964 7.77688C14.0082 7.82083 14.0199 7.86771 14.0316 7.91167C14.0404 7.94097 14.0492 7.97027 14.058 7.99958C14.0668 8.02888 14.0726 8.06111 14.0814 8.09041C14.0902 8.11972 14.0961 8.14609 14.1049 8.17539C14.1136 8.20469 14.1195 8.23693 14.1283 8.26623C14.1371 8.28674 14.14 8.30725 14.1429 8.32776C14.1517 8.36586 14.1605 8.40395 14.1752 8.44204C14.181 8.46255 14.184 8.486 14.1898 8.50651C14.2016 8.55046 14.2133 8.59735 14.225 8.6413C14.2338 8.6706 14.2426 8.69991 14.2514 8.72921C14.2602 8.75851 14.266 8.79074 14.2748 8.82005C14.2836 8.84935 14.2895 8.87572 14.2982 8.90502C14.307 8.93433 14.3129 8.96656 14.3217 8.99586C14.3276 9.01637 14.3334 9.03688 14.3363 9.05739C14.3451 9.09549 14.3539 9.13651 14.3686 9.17167C14.3744 9.19219 14.3803 9.2127 14.3832 9.23321C14.392 9.26837 14.3979 9.30647 14.4096 9.34163C14.4184 9.36507 14.4213 9.38851 14.4272 9.41195C14.436 9.44126 14.4448 9.47056 14.4506 9.49986C14.4565 9.5321 14.4682 9.56433 14.477 9.59656C14.4829 9.62293 14.4916 9.64931 14.4975 9.67568C14.5092 9.71377 14.518 9.75186 14.5297 9.78703C14.5415 9.82512 14.5503 9.86321 14.562 9.90131C14.5678 9.92182 14.5737 9.94233 14.5766 9.96284C14.5854 9.998 14.5942 10.0361 14.603 10.0713C14.6118 10.0976 14.6147 10.1211 14.6235 10.1474C14.6323 10.1768 14.6382 10.2031 14.6469 10.2324C14.6557 10.2734 14.6675 10.3115 14.6792 10.3526C14.688 10.3848 14.6938 10.42 14.7056 10.4522C14.7143 10.4756 14.7173 10.4961 14.7231 10.5196C14.7378 10.5665 14.7466 10.6163 14.7642 10.6632C14.77 10.6837 14.7759 10.7042 14.7788 10.7247C14.7847 10.7481 14.7935 10.7716 14.7993 10.795C14.8052 10.8185 14.811 10.8419 14.8169 10.8654C14.8257 10.8947 14.8316 10.921 14.8403 10.9503C14.8491 10.9796 14.855 11.0119 14.8638 11.0412C14.8696 11.0617 14.8755 11.0822 14.8784 11.1027C14.8843 11.132 14.8989 11.1613 14.8989 11.1935C14.9107 11.2082 14.9077 11.2287 14.9136 11.2434C14.9224 11.2609 14.9224 11.2785 14.9283 11.299C14.9341 11.3166 14.9312 11.3342 14.9458 11.3488C14.9517 11.3987 14.9693 11.4455 14.981 11.4924C14.9927 11.5364 15.0015 11.5803 15.0162 11.6243C15.0249 11.6448 15.0279 11.6682 15.0337 11.6888C15.0425 11.7181 15.0484 11.7474 15.0572 11.7767C15.066 11.8089 15.0718 11.8411 15.0836 11.8704C15.0982 11.9144 15.1041 11.9613 15.1216 12.0052C15.1275 12.0257 15.1304 12.0462 15.1363 12.0668C15.1451 12.0961 15.1539 12.1283 15.1597 12.1576C15.1685 12.1986 15.1803 12.2367 15.192 12.2777C15.2008 12.31 15.2066 12.3451 15.2183 12.3774C15.2271 12.4008 15.2301 12.4213 15.2359 12.4448C15.2418 12.4682 15.2535 12.4916 15.2564 12.518C15.2623 12.5415 15.2682 12.5649 15.277 12.5883C15.2828 12.6089 15.2887 12.6294 15.2916 12.6499C15.2975 12.6733 15.3063 12.6968 15.3121 12.7202C15.318 12.7436 15.3238 12.7671 15.3297 12.7905C15.3385 12.8198 15.3443 12.8462 15.3531 12.8755C15.3619 12.9048 15.3678 12.937 15.3766 12.9663C15.3854 12.9869 15.3883 13.0103 15.3942 13.0308C15.403 13.0601 15.4088 13.0894 15.4176 13.1187C15.4293 13.1597 15.4381 13.2008 15.4498 13.2418C15.4586 13.2711 15.4645 13.3033 15.4762 13.3326C15.485 13.3561 15.4909 13.3824 15.4967 13.4059C15.5055 13.4381 15.5172 13.4674 15.5202 13.4997C15.5231 13.5231 15.5377 13.5465 15.5377 13.5729C15.5377 13.5758 15.5436 13.5817 15.5465 13.5876C14.8403 13.5876 14.1342 13.5876 13.4309 13.5876C13.425 13.5641 13.4192 13.5407 13.4133 13.5172C13.4016 13.4762 13.3899 13.4352 13.3811 13.3942C13.3723 13.3561 13.3576 13.3209 13.3488 13.2828C13.343 13.2506 13.3342 13.2213 13.3254 13.192C13.3137 13.148 13.3049 13.1041 13.2902 13.0601C13.2844 13.0396 13.2815 13.0191 13.2727 12.9986C13.2639 12.9693 13.258 12.937 13.2492 12.9048C13.2375 12.8638 13.2258 12.8228 13.217 12.7817C13.2082 12.7495 13.2023 12.7173 13.1906 12.685C13.1818 12.6587 13.1789 12.6352 13.1701 12.6089C13.1613 12.5796 13.1555 12.5532 13.1467 12.5239C13.1379 12.4829 13.1261 12.4448 13.1144 12.4037C13.1056 12.3715 13.0998 12.3363 13.0881 12.3041C13.0793 12.2807 13.0763 12.2602 13.0705 12.2367C13.0558 12.1898 13.047 12.14 13.0295 12.0931C13.0236 12.0726 13.0177 12.0521 13.0148 12.0316C13.0089 12.0082 13.0001 11.9847 12.9943 11.9613C12.9884 11.9378 12.9826 11.9144 12.9767 11.8909C12.9679 11.8616 12.9621 11.8353 12.9533 11.806C12.9445 11.7767 12.9386 11.7444 12.9298 11.7151C12.924 11.6946 12.9181 11.6741 12.9152 11.6536C12.9093 11.6243 12.8947 11.595 12.8947 11.5628C12.8829 11.5481 12.8859 11.5276 12.88 11.5129C12.8712 11.4954 12.8712 11.4778 12.8654 11.4573C12.8595 11.4397 12.8624 11.4221 12.8478 11.4075C12.8419 11.3576 12.8243 11.3108 12.8126 11.2639C12.8009 11.2199 12.7921 11.176 12.7774 11.132C12.7687 11.1115 12.7657 11.0881 12.7599 11.0675C12.7511 11.0382 12.7452 11.0089 12.7364 10.9796C12.7276 10.9474 12.7218 10.9152 12.7101 10.8859C12.6954 10.8419 12.6895 10.795 12.672 10.7511C12.6661 10.7306 12.6632 10.7101 12.6573 10.6895C12.6485 10.6602 12.6397 10.628 12.6339 10.5987C12.6251 10.5577 12.6134 10.5196 12.6016 10.4786C12.5928 10.4463 12.587 10.4112 12.5753 10.3789C12.5665 10.3555 12.5635 10.335 12.5577 10.3115C12.5518 10.2881 12.5401 10.2647 12.5372 10.2383C12.5313 10.2148 12.5225 10.1914 12.5196 10.168C12.5108 10.1299 12.4991 10.0918 12.4903 10.0507C12.4815 10.0156 12.4727 9.98042 12.461 9.94819C12.4522 9.91889 12.4434 9.88959 12.4346 9.86028C12.4258 9.83098 12.42 9.80168 12.4112 9.77238C12.3994 9.73135 12.3907 9.69033 12.3789 9.64931C12.3701 9.61707 12.3614 9.58191 12.3526 9.54968C12.3438 9.52037 12.335 9.49107 12.3262 9.46177C12.3174 9.43247 12.3086 9.40023 12.3028 9.37093C12.2969 9.34456 12.2881 9.31526 12.2793 9.28889C12.2705 9.25079 12.2588 9.2127 12.2471 9.17461C12.2354 9.13651 12.2295 9.09549 12.2178 9.05739C12.209 9.02223 12.2002 8.98707 12.1885 8.95484C12.1797 8.92553 12.1709 8.89623 12.1621 8.86693C12.1562 8.8347 12.1445 8.80539 12.1357 8.77609C12.124 8.738 12.1181 8.69697 12.1064 8.65888C12.0976 8.62372 12.0888 8.58856 12.0771 8.55632C12.0683 8.52409 12.0595 8.49479 12.0507 8.46255C12.0478 8.45083 12.0449 8.43911 12.039 8.42446C12.0361 8.42739 12.0302 8.42739 12.0302 8.43032C12.0097 8.47428 11.9863 8.51237 11.9599 8.55339C11.9482 8.57097 11.9394 8.58856 11.9277 8.60907C11.9042 8.65302 11.8779 8.69111 11.8544 8.73507C11.8339 8.77023 11.8134 8.80539 11.7929 8.84056C11.7753 8.87572 11.7548 8.91088 11.7343 8.94019C11.7226 8.95777 11.7138 8.97828 11.705 8.99586C11.6786 9.0486 11.6434 9.09842 11.6171 9.15116C11.5936 9.19512 11.5673 9.23614 11.5438 9.27716C11.5233 9.3094 11.5087 9.34456 11.4852 9.37386C11.4706 9.39437 11.4618 9.42075 11.4471 9.44419C11.4266 9.47935 11.4032 9.51451 11.3827 9.54968C11.3709 9.56726 11.3621 9.58777 11.3533 9.60535C11.3299 9.64638 11.3035 9.6874 11.2801 9.72842C11.2596 9.76359 11.2391 9.79875 11.2186 9.83391C11.201 9.86907 11.1775 9.90131 11.16 9.93354C11.1482 9.95112 11.1394 9.97163 11.1307 9.98921C11.1072 10.0302 11.0808 10.0742 11.0574 10.1152C11.0369 10.1504 11.0164 10.1885 10.9959 10.2236C10.9724 10.2617 10.9519 10.2969 10.9314 10.335C10.9109 10.3701 10.8904 10.4024 10.8728 10.4405C10.8552 10.4756 10.8318 10.5079 10.8113 10.543C10.7995 10.5606 10.7907 10.5811 10.779 10.5987C10.7556 10.6397 10.7292 10.6837 10.7058 10.7247C10.6823 10.7628 10.6618 10.8038 10.6384 10.8419C10.6208 10.8771 10.5973 10.9093 10.5798 10.9415C10.568 10.9591 10.5593 10.9796 10.5475 10.9972C10.5212 11.0382 10.4977 11.0822 10.4743 11.1232C10.4538 11.1584 10.4333 11.1965 10.4127 11.2316C10.3864 11.2815 10.36 11.3313 10.3248 11.3782C10.3131 11.3957 10.3073 11.4162 10.2955 11.4338C10.2721 11.4748 10.2486 11.5129 10.2252 11.554C10.2135 11.5745 10.2018 11.595 10.19 11.6155C10.1695 11.6536 10.1461 11.6917 10.1256 11.7269C10.1168 11.7444 10.108 11.7591 10.0963 11.7767C10.0728 11.8118 10.0553 11.847 10.0347 11.8822C10.0142 11.9173 9.99371 11.9495 9.97613 11.9818C9.96441 11.9994 9.95562 12.0199 9.94683 12.0375C9.92339 12.0785 9.89702 12.1224 9.87358 12.1635C9.85306 12.1986 9.83255 12.2367 9.81204 12.2719C9.7886 12.31 9.76809 12.3451 9.74757 12.3832C9.72706 12.4184 9.70655 12.4536 9.68604 12.4887C9.65674 12.5385 9.63036 12.5913 9.59813 12.6382C9.58641 12.6587 9.57469 12.6792 9.56297 12.6997C9.54246 12.7378 9.51902 12.7759 9.4985 12.811C9.48678 12.8286 9.47799 12.8491 9.46627 12.8696C9.44283 12.9107 9.41939 12.9488 9.39594 12.9898C9.38129 13.0103 9.3725 13.0367 9.36078 13.0601C9.34027 13.0953 9.31683 13.1304 9.29632 13.1656C9.27873 13.1978 9.25822 13.2301 9.24064 13.2652C9.21134 13.318 9.18204 13.3736 9.1498 13.4235C9.13808 13.4381 9.13222 13.4557 9.1205 13.4733C9.09999 13.5055 9.08241 13.5436 9.0619 13.5788C8.27659 13.5788 7.49421 13.5788 6.70891 13.5788C6.7177 13.5583 6.72649 13.5407 6.73821 13.5231C6.76751 13.4762 6.79096 13.4264 6.82026 13.3824C6.84956 13.3356 6.87593 13.2857 6.90523 13.2389C6.92868 13.2008 6.94919 13.1597 6.97263 13.1216C7.00193 13.0718 7.02831 13.0191 7.06054 12.9722C7.07226 12.9546 7.08105 12.9341 7.08984 12.9165C7.11328 12.8755 7.13379 12.8345 7.15724 12.7964C7.18947 12.7436 7.21877 12.6909 7.251 12.6382C7.27152 12.603 7.29203 12.5678 7.31254 12.5327C7.33598 12.4946 7.35649 12.4536 7.37993 12.4155C7.40338 12.3774 7.42389 12.3363 7.44733 12.2982C7.46784 12.2631 7.48542 12.2279 7.50886 12.1957C7.52059 12.1781 7.52938 12.1576 7.53817 12.14C7.56161 12.099 7.58505 12.0609 7.60556 12.0199C7.63194 11.973 7.65831 11.9232 7.68761 11.8763C7.71691 11.8294 7.74036 11.7767 7.77259 11.7327C7.78724 11.7122 7.79603 11.6888 7.80775 11.6653C7.83119 11.6243 7.85463 11.5862 7.87808 11.5452C7.8898 11.5247 7.90152 11.5042 7.91031 11.4836C7.93375 11.4426 7.95426 11.4045 7.98064 11.3664C7.99236 11.3488 8.00115 11.3283 8.00994 11.3108C8.03338 11.2697 8.05389 11.2287 8.07733 11.1906C8.10664 11.1437 8.13008 11.091 8.16231 11.047C8.17696 11.0265 8.18575 11.0031 8.19747 10.9796C8.22092 10.9386 8.24436 10.9005 8.2678 10.8595C8.27952 10.8419 8.28831 10.8214 8.2971 10.8038C8.32054 10.7628 8.34692 10.7188 8.37036 10.6778C8.3938 10.6368 8.41724 10.5987 8.43775 10.5577C8.4612 10.5196 8.47878 10.4786 8.50515 10.4434C8.5198 10.4229 8.52859 10.3994 8.54031 10.376C8.56082 10.3408 8.58134 10.3057 8.60185 10.2705C8.61357 10.2529 8.62236 10.2324 8.63408 10.2119C8.66338 10.1592 8.69562 10.1094 8.72199 10.0566C8.74543 10.0156 8.7718 9.97163 8.79524 9.93061C8.81576 9.89838 8.83041 9.86321 8.85385 9.83391C8.8685 9.8134 8.87729 9.78996 8.88901 9.76652C8.90952 9.73135 8.93004 9.69619 8.95055 9.66103C8.96227 9.64345 8.97106 9.62586 8.98278 9.60535C9.00329 9.56726 9.0238 9.52917 9.05018 9.494C9.06483 9.47349 9.07362 9.44712 9.08827 9.42368C9.10878 9.38851 9.13222 9.35335 9.15273 9.31819C9.17325 9.28595 9.19083 9.25079 9.20841 9.21563C9.22892 9.18047 9.24943 9.1453 9.26994 9.11014C9.28166 9.08963 9.29046 9.06912 9.30511 9.0486C9.33441 8.99879 9.36371 8.94605 9.39594 8.89623C9.40767 8.87865 9.41353 8.85814 9.42525 8.84056C9.45162 8.79953 9.47506 8.75851 9.4985 8.71749C9.51902 8.68232 9.53953 8.64716 9.56004 8.612C9.57762 8.57683 9.59813 8.5446 9.61864 8.51237C9.63036 8.49479 9.64209 8.47135 9.65381 8.45083C9.68311 8.40102 9.70948 8.34828 9.74171 8.30139C9.75343 8.28381 9.76223 8.2633 9.77102 8.24572C9.79446 8.20469 9.82083 8.16367 9.84427 8.12265C9.86478 8.08748 9.8853 8.05232 9.90581 8.01716C9.92339 7.98199 9.94683 7.94976 9.96441 7.91753C9.97613 7.89702 9.98785 7.87651 9.99958 7.85306C10.0289 7.80325 10.0553 7.75344 10.0846 7.70655C10.0963 7.68897 10.1051 7.66846 10.1168 7.64795C10.1402 7.60692 10.1637 7.56883 10.1871 7.52781C10.2076 7.49264 10.2252 7.45748 10.2457 7.42232C10.2662 7.38715 10.2867 7.35492 10.3073 7.31976C10.319 7.30218 10.3278 7.2846 10.3395 7.26408C10.3688 7.21134 10.3981 7.15859 10.4333 7.10585C10.4479 7.08534 10.4567 7.05897 10.4684 7.03552C10.4889 7.00036 10.5124 6.9652 10.5329 6.93004C10.5505 6.8978 10.571 6.86557 10.5886 6.83334C10.6091 6.79524 10.6296 6.75422 10.656 6.71906C10.6677 6.70148 10.6765 6.68096 10.6853 6.66338C10.7146 6.61064 10.7439 6.56082 10.7732 6.50808C10.7966 6.46706 10.82 6.4231 10.8464 6.38208C10.8786 6.3352 10.8992 6.28245 10.9343 6.23557C10.946 6.22092 10.9519 6.2004 10.9607 6.18282C10.99 6.13008 11.0222 6.08026 11.0486 6.02752C11.072 5.9865 11.0955 5.94254 11.1219 5.90152C11.1629 5.83705 11.1951 5.76966 11.2361 5.70812C11.2537 5.68468 11.2625 5.65245 11.2772 5.62901C11.286 5.61728 11.286 5.60263 11.283 5.59384C11.2625 5.55282 11.2654 5.50594 11.242 5.46491C11.2391 5.4151 11.2156 5.36821 11.2068 5.3184C11.201 5.28324 11.1863 5.24807 11.1775 5.21291C11.1629 5.15724 11.1453 5.09863 11.1307 5.04296C11.1219 5.00486 11.1072 4.9697 11.0984 4.93161C11.0896 4.89351 11.0779 4.85542 11.0691 4.8144C11.0633 4.78802 11.0545 4.75872 11.0486 4.73235C11.0398 4.69133 11.0281 4.6503 11.0164 4.60928C11.0076 4.57705 11.0017 4.54481 10.99 4.51258C10.9812 4.48914 10.9783 4.4657 10.9695 4.44226C10.9607 4.41295 10.9519 4.38072 10.946 4.35142C10.9373 4.31332 10.9255 4.27523 10.9167 4.23714C10.908 4.20784 10.8992 4.1756 10.8933 4.1463C10.8845 4.10821 10.8757 4.06718 10.864 4.02909C10.8552 3.99979 10.8464 3.97342 10.8406 3.94411C10.8347 3.91188 10.8259 3.87965 10.8142 3.85035C10.7995 3.80639 10.7937 3.76244 10.779 3.71848C10.7702 3.69797 10.7673 3.67453 10.7614 3.65402C10.7526 3.62472 10.7439 3.59248 10.738 3.56318C10.7292 3.52509 10.7204 3.48406 10.7087 3.44597C10.694 3.40202 10.6853 3.35806 10.6735 3.31411C10.6677 3.29067 10.6589 3.27016 10.656 3.24671C10.6501 3.21448 10.6384 3.18518 10.6325 3.15588C10.6237 3.11778 10.6091 3.08262 10.6032 3.04746C10.5973 3.01815 10.5886 2.99178 10.5798 2.96248C10.5739 2.92732 10.5593 2.89215 10.5534 2.85406C10.5534 2.8482 10.5475 2.84527 10.5446 2.83941C10.5358 2.85406 10.5241 2.86871 10.5153 2.88336C10.4889 2.93611 10.4567 2.98885 10.4245 3.03867C10.3864 3.1002 10.3483 3.16174 10.3131 3.22327C10.2809 3.27309 10.2516 3.32583 10.2223 3.37858C10.1959 3.42546 10.1695 3.47234 10.1402 3.51923C10.1197 3.55146 10.1051 3.58662 10.0816 3.61593C10.067 3.63644 10.0553 3.66574 10.0435 3.68625C10.0201 3.72434 9.99958 3.76537 9.97613 3.80346C9.96148 3.82397 9.95269 3.85035 9.94097 3.87379C9.92046 3.90895 9.89702 3.94411 9.8765 3.97928C9.86478 3.99686 9.85599 4.01737 9.8472 4.03495C9.82376 4.07597 9.80032 4.11407 9.77981 4.15509C9.75343 4.20197 9.72706 4.25179 9.69776 4.29867C9.66846 4.34556 9.64502 4.39537 9.61278 4.44226C9.59813 4.4657 9.58934 4.49207 9.57469 4.51258C9.55125 4.55067 9.53074 4.5917 9.50729 4.62979C9.49264 4.6503 9.48385 4.67668 9.47213 4.70012C9.45162 4.73528 9.42818 4.77044 9.40767 4.80561C9.39595 4.82319 9.38715 4.8437 9.37836 4.86128C9.35492 4.9023 9.33441 4.94333 9.31097 4.98142C9.28167 5.0283 9.25822 5.08105 9.22599 5.125C9.21134 5.14845 9.20255 5.17482 9.1879 5.19533C9.16446 5.23342 9.14394 5.27445 9.11757 5.31254C9.10585 5.33012 9.09706 5.3477 9.08827 5.36528C9.06483 5.40631 9.04138 5.45026 9.01501 5.49128C9.00036 5.5118 8.99157 5.53524 8.97985 5.55868C8.95641 5.5997 8.93297 5.6378 8.90952 5.67882C8.8978 5.6964 8.88901 5.71691 8.88022 5.73449C8.84799 5.7931 8.81576 5.8517 8.78059 5.90738C8.76594 5.92789 8.75715 5.95133 8.74543 5.97477C8.72199 6.0158 8.69855 6.05389 8.6751 6.09491C8.66338 6.1125 8.65459 6.13301 8.6458 6.15059C8.62236 6.19161 8.59599 6.23557 8.57255 6.27659C8.5491 6.31761 8.52566 6.35571 8.50515 6.39673C8.48464 6.43482 8.46413 6.47585 8.43775 6.51101C8.4231 6.53152 8.41431 6.55496 8.40259 6.57841C8.38208 6.61357 8.36157 6.64873 8.33813 6.6839C8.3264 6.70148 8.31761 6.72199 8.30589 6.7425C8.27659 6.79524 8.24436 6.84506 8.21799 6.8978C8.19454 6.93883 8.16817 6.98278 8.14473 7.0238C8.12422 7.05604 8.10957 7.0912 8.08612 7.1205C8.07147 7.14101 8.06268 7.16446 8.05096 7.1879C8.03045 7.22306 8.00994 7.25822 7.98943 7.29339C7.97771 7.31097 7.96891 7.32855 7.95719 7.34906C7.93668 7.38715 7.91617 7.42525 7.8898 7.46041C7.87515 7.48092 7.86636 7.50436 7.85463 7.52781C7.83412 7.56297 7.81361 7.59813 7.7931 7.6333C7.78138 7.65381 7.77259 7.67432 7.75794 7.69483C7.7257 7.74464 7.70226 7.79739 7.6671 7.8472C7.65538 7.86478 7.64659 7.8853 7.63487 7.90581C7.60556 7.95562 7.57626 8.00837 7.54403 8.05818C7.53231 8.07869 7.52059 8.0992 7.50886 8.11972C7.48835 8.15781 7.46491 8.1959 7.4444 8.23106C7.43561 8.24865 7.42682 8.2633 7.4151 8.28088C7.39166 8.31604 7.37407 8.35121 7.35356 8.38637C7.33305 8.42153 7.31254 8.45376 7.29496 8.486C7.27738 8.52116 7.25686 8.55339 7.23635 8.58856C7.21584 8.62372 7.19533 8.65888 7.17482 8.69404C7.1631 8.71456 7.1543 8.73214 7.14258 8.75265C7.11035 8.80539 7.08398 8.86107 7.04882 8.91088C7.03416 8.93139 7.02537 8.95777 7.01365 8.98121C6.99314 9.01637 6.97263 9.0486 6.95212 9.08377C6.9404 9.10135 6.93161 9.12186 6.91989 9.13944C6.89644 9.17754 6.87886 9.21563 6.85249 9.25079C6.83784 9.2713 6.82905 9.29768 6.8144 9.32112C6.79388 9.35628 6.77337 9.38851 6.75286 9.42368C6.74114 9.44126 6.73235 9.4647 6.72063 9.48228C6.6884 9.53209 6.66202 9.58777 6.62686 9.63758C6.61221 9.6581 6.60342 9.68447 6.58877 9.70791C6.56826 9.74307 6.54481 9.77824 6.5243 9.8134C6.50672 9.84563 6.48621 9.87786 6.46863 9.9101C6.44812 9.94819 6.42467 9.98628 6.40123 10.0244C6.38072 10.0566 6.36314 10.0918 6.34556 10.1269C6.32505 10.1621 6.30453 10.1973 6.28109 10.2324C6.26937 10.25 6.26058 10.2705 6.24886 10.291C6.21956 10.3438 6.18732 10.3936 6.16095 10.4463C6.13751 10.4874 6.11114 10.5313 6.0877 10.5723C6.05839 10.6192 6.03495 10.672 6.00272 10.7159C5.991 10.7335 5.98221 10.754 5.97342 10.7716C5.94411 10.8243 5.91188 10.8741 5.88551 10.9269C5.86207 10.9679 5.83569 11.0119 5.81225 11.0529C5.78295 11.0998 5.75951 11.1525 5.72727 11.1965C5.71555 11.2141 5.70676 11.2346 5.69797 11.2522C5.66867 11.3049 5.63644 11.3547 5.61006 11.4075C5.58662 11.4485 5.56025 11.4924 5.53681 11.5335C5.50751 11.5803 5.48406 11.6331 5.45183 11.677C5.44011 11.6946 5.43425 11.7151 5.42253 11.7327C5.39616 11.7737 5.37565 11.8148 5.34927 11.8558C5.33462 11.8763 5.32583 11.9027 5.31118 11.9261C5.29067 11.9613 5.27016 11.9935 5.24964 12.0287C5.23792 12.0462 5.22913 12.0638 5.21741 12.0843C5.19397 12.1283 5.1676 12.1693 5.14416 12.2103C5.12657 12.2426 5.10899 12.2777 5.08848 12.31C5.05625 12.3627 5.02988 12.4184 4.99471 12.4682C4.98006 12.4887 4.97127 12.5151 4.95955 12.5385C4.93904 12.5737 4.91853 12.6059 4.89801 12.6411C4.88629 12.6587 4.8775 12.6763 4.86578 12.6968C4.84234 12.7407 4.8189 12.7817 4.79253 12.8228C4.77787 12.8433 4.76908 12.8696 4.75736 12.8931C4.73685 12.9283 4.71634 12.9605 4.69583 12.9956C4.68411 13.0162 4.67239 13.0367 4.66066 13.0601C4.64015 13.0982 4.61671 13.1363 4.59327 13.1744C4.57569 13.2066 4.55518 13.2389 4.53759 13.274C4.52294 13.3004 4.50829 13.3238 4.49364 13.3502C4.47606 13.3854 4.45555 13.4176 4.43504 13.4528C4.40866 13.4997 4.37936 13.5465 4.35299 13.5934C3.56768 13.5934 2.78531 13.5934 2 13.5934C2.02344 13.5553 2.04395 13.5202 2.0674 13.485C2.07912 13.4674 2.08791 13.4469 2.0967 13.4293C2.126 13.3766 2.15823 13.3268 2.18461 13.274C2.20805 13.2301 2.23149 13.1861 2.25786 13.1451C2.28716 13.0982 2.31354 13.0484 2.34284 13.0015C2.36628 12.9634 2.38679 12.9224 2.41023 12.8843C2.43075 12.8491 2.44833 12.814 2.47177 12.7817C2.48349 12.7642 2.48935 12.7436 2.50107 12.7261C2.52744 12.685 2.55089 12.644 2.57433 12.603C2.59484 12.5678 2.61535 12.5327 2.63586 12.4975C2.66517 12.4477 2.69154 12.3949 2.72377 12.3481C2.73842 12.3276 2.74721 12.3041 2.75893 12.2807C2.77945 12.2455 2.79996 12.2103 2.82047 12.1752C2.83219 12.1576 2.84098 12.1371 2.8527 12.1166C2.87614 12.0756 2.89959 12.0345 2.92596 11.9935C2.94061 11.973 2.9494 11.9466 2.96112 11.9232C2.98163 11.888 3.00214 11.8558 3.02266 11.8206C3.03438 11.803 3.04317 11.7796 3.05489 11.762C3.08126 11.7239 3.1047 11.68 3.12815 11.6389C3.14866 11.6038 3.16917 11.5715 3.18675 11.5364C3.21312 11.4866 3.24536 11.4368 3.27466 11.3869C3.28638 11.3664 3.2981 11.3459 3.30689 11.3254C3.33033 11.2844 3.35084 11.2463 3.37722 11.2082C3.38894 11.1906 3.3948 11.1701 3.40652 11.1525C3.43289 11.1115 3.4534 11.0705 3.47978 11.0295C3.49443 11.0089 3.50322 10.9826 3.51494 10.9591C3.53545 10.924 3.55596 10.8917 3.57647 10.8566C3.58819 10.839 3.59698 10.8185 3.60871 10.8009C3.63508 10.7599 3.65852 10.7159 3.68196 10.6749C3.70247 10.6397 3.72299 10.6016 3.7435 10.5665C3.7728 10.5167 3.79917 10.4668 3.82847 10.42C3.8402 10.4024 3.84899 10.3819 3.86071 10.3614C3.88122 10.3203 3.90759 10.2822 3.9281 10.2441C3.93982 10.2236 3.95154 10.2031 3.96327 10.1826C3.98378 10.1445 4.00722 10.1064 4.02773 10.0713C4.03945 10.0537 4.04824 10.0332 4.05703 10.0156C4.08341 9.96284 4.11564 9.91303 4.14494 9.86028C4.17131 9.8134 4.19769 9.76652 4.22699 9.71963C4.2475 9.6874 4.26508 9.65224 4.28559 9.62293C4.30024 9.60242 4.30904 9.57605 4.32369 9.55261C4.3442 9.51744 4.36764 9.48228 4.38815 9.44712C4.39987 9.42954 4.40866 9.40902 4.41745 9.39144C4.44676 9.3387 4.47606 9.28889 4.50536 9.23614C4.53173 9.18926 4.55811 9.14237 4.58741 9.09549C4.60792 9.06326 4.6255 9.02809 4.64601 8.99879C4.66066 8.97828 4.66946 8.95191 4.68411 8.92846C4.70462 8.8933 4.72806 8.85814 4.74857 8.82298C4.76029 8.80539 4.76908 8.78488 4.77787 8.7673C4.80132 8.72628 4.82183 8.68525 4.84527 8.64716C4.87457 8.60028 4.90094 8.55046 4.93025 8.50358C4.95076 8.46842 4.97127 8.43325 4.99178 8.39809C5.01522 8.36 5.03574 8.31897 5.05918 8.28088C5.07969 8.24572 5.1002 8.21055 5.12071 8.17539C5.14123 8.1373 5.16174 8.09627 5.18811 8.06111C5.20862 8.02888 5.2262 7.99372 5.24378 7.95855C5.26723 7.91753 5.29067 7.87944 5.31411 7.83841C5.32583 7.82083 5.33462 7.80032 5.34634 7.78274C5.37271 7.74171 5.39616 7.69776 5.4196 7.65674C5.44011 7.62157 5.46062 7.58641 5.48113 7.55125C5.50165 7.51315 5.52509 7.47506 5.54853 7.43697C5.56904 7.40474 5.58662 7.36664 5.60713 7.33148C5.63058 7.29339 5.65402 7.25236 5.67746 7.21427C5.69797 7.17911 5.71555 7.14394 5.73607 7.10878C5.75951 7.06776 5.78588 7.02966 5.80639 6.98864C5.82397 6.95348 5.84742 6.92125 5.865 6.88315C5.88551 6.84213 5.91188 6.80403 5.93532 6.76301C5.9529 6.73078 5.97342 6.69855 5.991 6.66631C6.01151 6.62822 6.03202 6.5872 6.05839 6.55203C6.07011 6.53445 6.07597 6.51394 6.0877 6.49636C6.11114 6.45534 6.13458 6.41431 6.16095 6.37329C6.1756 6.35278 6.18439 6.3264 6.19611 6.30296C6.21663 6.2678 6.23714 6.23557 6.25765 6.2004C6.26937 6.18282 6.27816 6.16231 6.28988 6.1418C6.31625 6.10078 6.3397 6.05975 6.36314 6.01873C6.38365 5.98357 6.40416 5.95133 6.42174 5.91617C6.44812 5.86636 6.48035 5.81654 6.50965 5.76673C6.52137 5.74915 6.53016 5.72863 6.53895 5.71105C6.5624 5.67003 6.58877 5.62608 6.61221 5.58505C6.63272 5.54989 6.65323 5.5118 6.67375 5.47663C6.69719 5.43854 6.7177 5.40338 6.73821 5.36528C6.75872 5.33012 6.77923 5.29496 6.79975 5.25979C6.82905 5.20998 6.85542 5.15724 6.88765 5.11035C6.89937 5.09277 6.90523 5.07226 6.91696 5.05468C6.94333 5.01365 6.96384 4.97263 6.99021 4.93161C7.00486 4.91109 7.01365 4.88472 7.02537 4.86128C7.04589 4.82612 7.0664 4.79389 7.08691 4.75872C7.09863 4.74114 7.10742 4.72356 7.11914 4.70305C7.14258 4.65909 7.16896 4.621 7.1924 4.57705C7.21291 4.53895 7.23342 4.50379 7.25393 4.46863C7.28324 4.41881 7.30668 4.369 7.33891 4.32211C7.35063 4.30746 7.35649 4.28988 7.36528 4.2723C7.38872 4.22835 7.4151 4.18732 7.43854 4.14337C7.45905 4.10821 7.47956 4.07011 7.50007 4.03495C7.52352 3.99686 7.54403 3.96169 7.56454 3.9236C7.58505 3.88844 7.60556 3.85328 7.62608 3.81811C7.64366 3.78295 7.6671 3.75072 7.68468 3.71848C7.6964 3.7009 7.70519 3.68039 7.71398 3.66281C7.73742 3.62179 7.7638 3.57783 7.78724 3.53681C7.81068 3.49579 7.83412 3.45769 7.85463 3.41667C7.87222 3.38444 7.89273 3.34927 7.91324 3.31704C7.92496 3.29946 7.93375 3.27895 7.94547 3.26137C7.97184 3.22034 7.99529 3.17639 8.01873 3.13536C8.03924 3.1002 8.05975 3.06211 8.08026 3.02695C8.10957 2.97713 8.13301 2.92732 8.16817 2.88043C8.18282 2.85992 8.19161 2.83355 8.20626 2.81011C8.22678 2.77494 8.24729 2.74271 8.2678 2.70755C8.27952 2.68997 8.28831 2.67239 8.30003 2.65187C8.32347 2.60792 8.34985 2.56983 8.37329 2.52587C8.3938 2.48778 8.41431 2.45262 8.43482 2.41745C8.4612 2.36764 8.48757 2.31783 8.52273 2.27094C8.53445 2.25336 8.54031 2.23285 8.55203 2.21527C8.57548 2.17424 8.59892 2.13615 8.62236 2.09513C8.63408 2.07462 8.6458 2.0541 8.65752 2.03359C8.67803 1.9955 8.70148 1.95741 8.72199 1.92224C8.73371 1.90466 8.7425 1.88415 8.75129 1.86657C8.77473 1.82554 8.8011 1.78452 8.82455 1.7435C8.84506 1.70833 8.86557 1.67317 8.88608 1.63801C8.91538 1.58819 8.94176 1.53545 8.97399 1.48857C8.98571 1.47098 8.99157 1.45047 9.00329 1.43289C9.02966 1.39187 9.05018 1.35084 9.07655 1.30982C9.0912 1.28931 9.09999 1.26294 9.11171 1.23949C9.13222 1.20433 9.15273 1.1721 9.17325 1.13694C9.18497 1.11935 9.19376 1.09884 9.20548 1.08126C9.23185 1.04024 9.25529 0.996284 9.27873 0.955261C9.29925 0.917167 9.31976 0.882004 9.34027 0.846842C9.36957 0.797027 9.39301 0.747213 9.42818 0.700329C9.4399 0.682748 9.44576 0.662236 9.45748 0.644654C9.48092 0.603631 9.50436 0.565538 9.52781 0.524514C9.53953 0.504003 9.55125 0.483491 9.56297 0.462979C9.58348 0.424886 9.60692 0.386793 9.62743 0.35163C9.63623 0.334048 9.64502 0.319397 9.65674 0.301815C9.68018 0.266653 9.69776 0.23149 9.71827 0.196327C9.7505 0.137722 9.78274 0.0820469 9.8179 0.0293025C9.82376 0.0205117 9.82962 0.011721 9.83548 0.00293024C10.5505 -2.72901e-09 11.2361 0 11.9189 0Z" fill="#485AFD"/>
</svg>
