<svg width="30" height="30" viewBox="0 0 30 30" fill="none" xmlns="http://www.w3.org/2000/svg">
<path d="M25.0833 16.5208V23.1667C25.0833 24.175 24.2583 25 23.25 25H19.9042C19.4092 25 18.9417 24.8029 18.5979 24.4546L15 20.7971C15 20.7971 15.5775 20.2333 15.5958 20.2242C15.6967 20.1371 15.8204 20.0912 15.9579 20.0912C16.0587 20.0912 16.1504 20.1188 16.2329 20.1646C16.2513 20.1692 18.2083 21.2921 18.2083 21.2921V15.8333C18.2083 15.4529 18.5154 15.1458 18.8958 15.1458C19.2762 15.1458 19.5833 15.4529 19.5833 15.8333V19.0417H20.0417V14.6875C20.0417 14.3071 20.3487 14 20.7292 14C21.1096 14 21.4167 14.3071 21.4167 14.6875V19.0417H21.875V15.1458C21.875 14.7654 22.1821 14.4583 22.5625 14.4583C22.9429 14.4583 23.25 14.7654 23.25 15.1458V19.0417H23.7083V16.5208C23.7083 16.1404 24.0154 15.8333 24.3958 15.8333C24.7762 15.8333 25.0833 16.1404 25.0833 16.5208Z" fill="#485AFD"/>
<g clip-path="url(#clip0_87_4531)">
<path d="M14.2524 1.33337C14.2612 1.35682 14.2641 1.38319 14.2729 1.40663C14.2817 1.43007 14.2875 1.45644 14.2934 1.47989C14.3022 1.51798 14.311 1.559 14.3227 1.5971C14.3344 1.64105 14.3432 1.685 14.3579 1.72896C14.3667 1.75533 14.3725 1.78463 14.3813 1.81393C14.3901 1.84324 14.396 1.87547 14.4048 1.90477C14.4106 1.92528 14.4165 1.94873 14.4223 1.96924C14.4311 1.99854 14.4399 2.03077 14.4458 2.06008C14.4546 2.09817 14.4663 2.13919 14.4751 2.17729C14.4839 2.20366 14.4927 2.23296 14.4956 2.25933C14.4985 2.27984 14.5102 2.30036 14.5132 2.3238C14.519 2.34431 14.522 2.36482 14.5278 2.38533C14.5366 2.41171 14.5425 2.44101 14.5513 2.46738C14.5601 2.49668 14.5688 2.52891 14.5747 2.55822C14.5806 2.58752 14.5923 2.61389 14.5982 2.64319C14.6099 2.68129 14.6187 2.72231 14.6275 2.7604C14.6362 2.78971 14.645 2.81608 14.6509 2.84538C14.6597 2.88641 14.6743 2.92743 14.6831 2.96845C14.689 2.99482 14.6978 3.02413 14.7066 3.0505C14.7183 3.08566 14.73 3.12376 14.7359 3.15892C14.7417 3.18822 14.7564 3.21752 14.7564 3.24976C14.774 3.29078 14.7769 3.33766 14.7974 3.37869C14.8003 3.4285 14.8209 3.47538 14.8326 3.52227C14.8414 3.56036 14.8531 3.59553 14.8648 3.63362C14.8736 3.67171 14.8882 3.7098 14.8941 3.75083C14.9 3.78013 14.9117 3.8065 14.9176 3.83581C14.9293 3.8739 14.9351 3.91492 14.9469 3.95302C14.9556 3.98232 14.9644 4.00869 14.9703 4.03799C14.9762 4.07023 14.9849 4.10246 14.9967 4.13176C15.0113 4.17571 15.0172 4.21967 15.0318 4.26362C15.0406 4.28413 15.0436 4.30758 15.0494 4.32809C15.0582 4.35739 15.067 4.38962 15.0729 4.41892C15.0816 4.45702 15.0934 4.49511 15.1051 4.53027C15.1109 4.55372 15.1168 4.57423 15.1256 4.59767C15.1344 4.6299 15.1432 4.66214 15.152 4.69437C15.1549 4.70316 15.1578 4.71488 15.1637 4.72953C15.1608 4.7266 15.1608 4.7266 15.1637 4.72953H15.1666C15.8757 4.72953 16.5849 4.72953 17.2969 4.72953C17.294 4.73539 17.291 4.74125 17.291 4.74418C17.2793 4.76469 17.2676 4.78521 17.2559 4.80279C17.2237 4.85553 17.1973 4.91121 17.1621 4.96102C17.1475 4.98153 17.1387 5.00497 17.127 5.02842C17.1064 5.06358 17.0859 5.09874 17.0625 5.13391C17.0508 5.15149 17.042 5.172 17.0303 5.19251C17.0039 5.23353 16.9804 5.27456 16.957 5.31558C16.9365 5.35074 16.916 5.38591 16.8955 5.42107C16.8779 5.45623 16.8574 5.48846 16.8369 5.5207C16.8251 5.53828 16.8163 5.55586 16.8076 5.57637C16.7812 5.62912 16.749 5.68186 16.7197 5.73168C16.6903 5.77856 16.664 5.82837 16.6347 5.87526C16.6142 5.91042 16.5937 5.94851 16.5731 5.98368C16.5468 6.03349 16.5204 6.08331 16.4852 6.13019C16.4706 6.1507 16.4618 6.17707 16.4501 6.20052C16.4296 6.23568 16.409 6.26791 16.3885 6.30307C16.3768 6.32066 16.368 6.3441 16.3563 6.36168C16.3241 6.41149 16.2977 6.46717 16.2625 6.51698C16.2479 6.53749 16.2391 6.56387 16.2244 6.58731C16.2039 6.62247 16.1805 6.65763 16.16 6.6928C16.1483 6.71038 16.1395 6.73089 16.1307 6.74847C16.1072 6.7895 16.0809 6.83052 16.0574 6.87154C16.0369 6.90671 16.0164 6.94187 15.9959 6.97703C15.9666 7.02684 15.9402 7.07959 15.908 7.12647C15.8933 7.14699 15.8845 7.17336 15.8728 7.1968C15.864 7.21145 15.8523 7.2261 15.8435 7.24368C15.8376 7.2554 15.8347 7.27006 15.8376 7.27885C15.8523 7.31108 15.8552 7.34624 15.8669 7.37847C15.8757 7.40485 15.8816 7.43415 15.8904 7.46345C15.9021 7.49861 15.9109 7.53671 15.9197 7.57187C15.9285 7.60117 15.9373 7.62755 15.9431 7.65685C15.949 7.68908 15.9607 7.71838 15.9695 7.75062C15.9754 7.78285 15.9871 7.81215 15.993 7.84145C16.0017 7.87369 16.0105 7.90592 16.0193 7.93815C16.0281 7.97039 16.0369 8.00262 16.0457 8.03485C16.0545 8.06708 16.0633 8.10225 16.0721 8.13448C16.0809 8.15792 16.0838 8.17843 16.0896 8.20187C16.1014 8.23997 16.1102 8.27806 16.1219 8.31615C16.1277 8.33667 16.1336 8.35718 16.1365 8.37769C16.1424 8.40113 16.1512 8.42457 16.157 8.44802C16.1629 8.47146 16.1688 8.4949 16.1746 8.51834C16.1834 8.54764 16.1893 8.57402 16.1981 8.60332C16.2069 8.63262 16.2127 8.66485 16.2215 8.69416C16.2274 8.71467 16.2332 8.73518 16.2362 8.75569C16.2479 8.79378 16.2537 8.83481 16.2684 8.86997C16.2743 8.89048 16.2801 8.91099 16.283 8.93151C16.2918 8.9696 16.3006 9.00769 16.3153 9.04579C16.3211 9.0663 16.3241 9.08974 16.3299 9.11025C16.3417 9.1542 16.3534 9.20109 16.3651 9.24504C16.3739 9.27434 16.3827 9.30365 16.3915 9.33295C16.4003 9.36225 16.4061 9.39449 16.4149 9.42379C16.4237 9.45309 16.4296 9.47946 16.4383 9.50877C16.4471 9.53807 16.453 9.5703 16.4618 9.5996C16.4706 9.62011 16.4735 9.64063 16.4764 9.66114C16.4852 9.69923 16.494 9.73732 16.5087 9.77542C16.5145 9.79593 16.5175 9.81937 16.5233 9.83988C16.535 9.88384 16.5468 9.93072 16.5585 9.97467C16.5673 10.004 16.5761 10.0333 16.5849 10.0626C16.5937 10.0919 16.5995 10.1241 16.6083 10.1534C16.6171 10.1827 16.623 10.2091 16.6317 10.2384C16.6405 10.2677 16.6464 10.2999 16.6552 10.3292C16.661 10.3497 16.6669 10.3703 16.6698 10.3908C16.6786 10.4289 16.6874 10.4699 16.7021 10.505C16.7079 10.5256 16.7138 10.5461 16.7167 10.5666C16.7255 10.6017 16.7314 10.6398 16.7431 10.675C16.7519 10.6984 16.7548 10.7219 16.7607 10.7453C16.7695 10.7746 16.7783 10.8039 16.7841 10.8332C16.79 10.8655 16.8017 10.8977 16.8105 10.9299C16.8163 10.9563 16.8251 10.9827 16.831 11.0091C16.8427 11.0471 16.8515 11.0852 16.8632 11.1204C16.875 11.1585 16.8837 11.1966 16.8955 11.2347C16.9013 11.2552 16.9072 11.2757 16.9101 11.2962C16.9189 11.3314 16.9277 11.3695 16.9365 11.4046C16.9453 11.431 16.9482 11.4544 16.957 11.4808C16.9658 11.5101 16.9717 11.5365 16.9804 11.5658C16.9892 11.6068 17.001 11.6449 17.0127 11.6859C17.0215 11.7182 17.0273 11.7533 17.039 11.7856C17.0478 11.809 17.0508 11.8295 17.0566 11.853C17.0713 11.8998 17.0801 11.9497 17.0977 11.9965C17.1035 12.0171 17.1094 12.0376 17.1123 12.0581C17.1182 12.0815 17.127 12.105 17.1328 12.1284C17.1387 12.1518 17.1445 12.1753 17.1504 12.1987C17.1592 12.228 17.165 12.2544 17.1738 12.2837C17.1826 12.313 17.1885 12.3452 17.1973 12.3745C17.2031 12.3951 17.209 12.4156 17.2119 12.4361C17.2178 12.4654 17.2324 12.4947 17.2324 12.5269C17.2442 12.5416 17.2412 12.5621 17.2471 12.5767C17.2559 12.5943 17.2559 12.6119 17.2617 12.6324C17.2676 12.65 17.2647 12.6676 17.2793 12.6822C17.2852 12.732 17.3028 12.7789 17.3145 12.8258C17.3262 12.8698 17.335 12.9137 17.3497 12.9577C17.3584 12.9782 17.3614 13.0016 17.3672 13.0221C17.376 13.0514 17.3819 13.0807 17.3907 13.11C17.3995 13.1423 17.4053 13.1745 17.4171 13.2038C17.4317 13.2478 17.4376 13.2946 17.4551 13.3386C17.461 13.3591 17.4639 13.3796 17.4698 13.4001C17.4786 13.4294 17.4874 13.4617 17.4932 13.491C17.502 13.532 17.5137 13.5701 17.5255 13.6111C17.5343 13.6433 17.5401 13.6785 17.5518 13.7107C17.5606 13.7342 17.5636 13.7547 17.5694 13.7781C17.5753 13.8016 17.587 13.825 17.5899 13.8514C17.5958 13.8748 17.6017 13.8983 17.6104 13.9217C17.6163 13.9422 17.6222 13.9627 17.6251 13.9833C17.631 14.0067 17.6397 14.0301 17.6456 14.0536C17.6515 14.077 17.6573 14.1005 17.6632 14.1239C17.672 14.1532 17.6778 14.1796 17.6866 14.2089C17.6954 14.2382 17.7013 14.2704 17.7101 14.2997C17.7189 14.3202 17.7218 14.3437 17.7277 14.3642C17.7364 14.3935 17.7423 14.4228 17.7511 14.4521C17.7628 14.4931 17.7716 14.5341 17.7833 14.5752C17.7921 14.6045 17.798 14.6367 17.8097 14.666C17.8185 14.6894 17.8244 14.7158 17.8302 14.7393C17.839 14.7715 17.8507 14.8008 17.8537 14.833C17.8566 14.8565 17.8712 14.8799 17.8712 14.9063C17.8712 14.9092 17.8771 14.9151 17.88 14.9209C17.1738 14.9209 16.4677 14.9209 15.7644 14.9209C15.7585 14.8975 15.7527 14.874 15.7468 14.8506C15.7351 14.8096 15.7234 14.7686 15.7146 14.7275C15.7058 14.6894 15.6911 14.6543 15.6823 14.6162C15.6765 14.584 15.6677 14.5547 15.6589 14.5253C15.6472 14.4814 15.6384 14.4374 15.6237 14.3935C15.6179 14.373 15.6149 14.3525 15.6062 14.332C15.5974 14.3026 15.5915 14.2704 15.5827 14.2382C15.571 14.1972 15.5593 14.1561 15.5505 14.1151C15.5417 14.0829 15.5358 14.0506 15.5241 14.0184C15.5153 13.992 15.5124 13.9686 15.5036 13.9422C15.4948 13.9129 15.4889 13.8866 15.4802 13.8573C15.4714 13.8162 15.4596 13.7781 15.4479 13.7371C15.4391 13.7049 15.4333 13.6697 15.4216 13.6375C15.4128 13.614 15.4098 13.5935 15.404 13.5701C15.3893 13.5232 15.3805 13.4734 15.3629 13.4265C15.3571 13.406 15.3512 13.3855 15.3483 13.365C15.3424 13.3415 15.3336 13.3181 15.3278 13.2946C15.3219 13.2712 15.3161 13.2478 15.3102 13.2243C15.3014 13.195 15.2956 13.1686 15.2868 13.1393C15.278 13.11 15.2721 13.0778 15.2633 13.0485C15.2575 13.028 15.2516 13.0075 15.2487 12.987C15.2428 12.9577 15.2282 12.9284 15.2282 12.8961C15.2164 12.8815 15.2194 12.861 15.2135 12.8463C15.2047 12.8287 15.2047 12.8112 15.1989 12.7906C15.193 12.7731 15.1959 12.7555 15.1813 12.7408C15.1754 12.691 15.1578 12.6441 15.1461 12.5972C15.1344 12.5533 15.1256 12.5093 15.1109 12.4654C15.1022 12.4449 15.0992 12.4214 15.0934 12.4009C15.0846 12.3716 15.0787 12.3423 15.0699 12.313C15.0611 12.2808 15.0553 12.2485 15.0436 12.2192C15.0289 12.1753 15.023 12.1284 15.0055 12.0845C14.9996 12.0639 14.9967 12.0434 14.9908 12.0229C14.982 11.9936 14.9732 11.9614 14.9674 11.9321C14.9586 11.8911 14.9469 11.853 14.9351 11.8119C14.9263 11.7797 14.9205 11.7445 14.9088 11.7123C14.9 11.6889 14.897 11.6684 14.8912 11.6449C14.8853 11.6215 14.8736 11.598 14.8707 11.5717C14.8648 11.5482 14.856 11.5248 14.8531 11.5013C14.8443 11.4632 14.8326 11.4251 14.8238 11.3841C14.815 11.349 14.8062 11.3138 14.7945 11.2816C14.7857 11.2523 14.7769 11.223 14.7681 11.1937C14.7593 11.1644 14.7535 11.1351 14.7447 11.1058C14.7329 11.0647 14.7242 11.0237 14.7124 10.9827C14.7036 10.9504 14.6949 10.9153 14.6861 10.8831C14.6773 10.8537 14.6685 10.8244 14.6597 10.7951C14.6509 10.7658 14.6421 10.7336 14.6362 10.7043C14.6304 10.6779 14.6216 10.6486 14.6128 10.6223C14.604 10.5842 14.5923 10.5461 14.5806 10.508C14.5688 10.4699 14.563 10.4289 14.5513 10.3908C14.5425 10.3556 14.5337 10.3204 14.522 10.2882C14.5132 10.2589 14.5044 10.2296 14.4956 10.2003C14.4897 10.1681 14.478 10.1388 14.4692 10.1095C14.4575 10.0714 14.4516 10.0303 14.4399 9.99226C14.4311 9.95709 14.4223 9.92193 14.4106 9.8897C14.4018 9.85746 14.393 9.82816 14.3842 9.79593C14.3813 9.78421 14.3784 9.77249 14.3725 9.75784C14.3696 9.76077 14.3637 9.76077 14.3637 9.7637C14.3432 9.80765 14.3198 9.84574 14.2934 9.88677C14.2817 9.90435 14.2729 9.92193 14.2612 9.94244C14.2377 9.98639 14.2114 10.0245 14.1879 10.0684C14.1674 10.1036 14.1469 10.1388 14.1264 10.1739C14.1088 10.2091 14.0883 10.2443 14.0678 10.2736C14.0561 10.2911 14.0473 10.3117 14.0385 10.3292C14.0121 10.382 13.9769 10.4318 13.9506 10.4845C13.9271 10.5285 13.9008 10.5695 13.8773 10.6105C13.8568 10.6428 13.8421 10.6779 13.8187 10.7072C13.8041 10.7277 13.7953 10.7541 13.7806 10.7776C13.7601 10.8127 13.7367 10.8479 13.7161 10.8831C13.7044 10.9006 13.6956 10.9211 13.6868 10.9387C13.6634 10.9797 13.637 11.0208 13.6136 11.0618C13.5931 11.097 13.5726 11.1321 13.5521 11.1673C13.5345 11.2024 13.511 11.2347 13.4935 11.2669C13.4817 11.2845 13.4729 11.305 13.4641 11.3226C13.4407 11.3636 13.4143 11.4076 13.3909 11.4486C13.3704 11.4838 13.3499 11.5218 13.3294 11.557C13.3059 11.5951 13.2854 11.6303 13.2649 11.6684C13.2444 11.7035 13.2239 11.7358 13.2063 11.7738C13.1887 11.809 13.1653 11.8412 13.1448 11.8764C13.133 11.894 13.1242 11.9145 13.1125 11.9321C13.0891 11.9731 13.0627 12.0171 13.0393 12.0581C13.0158 12.0962 12.9953 12.1372 12.9719 12.1753C12.9543 12.2105 12.9308 12.2427 12.9133 12.2749C12.9015 12.2925 12.8927 12.313 12.881 12.3306C12.8547 12.3716 12.8312 12.4156 12.8078 12.4566C12.7873 12.4918 12.7667 12.5299 12.7462 12.565C12.7199 12.6148 12.6935 12.6646 12.6583 12.7115C12.6466 12.7291 12.6407 12.7496 12.629 12.7672C12.6056 12.8082 12.5821 12.8463 12.5587 12.8873C12.547 12.9079 12.5353 12.9284 12.5235 12.9489C12.503 12.987 12.4796 13.0251 12.4591 13.0602C12.4503 13.0778 12.4415 13.0925 12.4298 13.11C12.4063 13.1452 12.3887 13.1804 12.3682 13.2155C12.3477 13.2507 12.3272 13.2829 12.3096 13.3152C12.2979 13.3327 12.2891 13.3532 12.2803 13.3708C12.2569 13.4119 12.2305 13.4558 12.2071 13.4968C12.1866 13.532 12.166 13.5701 12.1455 13.6053C12.1221 13.6433 12.1016 13.6785 12.0811 13.7166C12.0606 13.7518 12.04 13.7869 12.0195 13.8221C11.9902 13.8719 11.9639 13.9246 11.9316 13.9715C11.9199 13.992 11.9082 14.0126 11.8965 14.0331C11.876 14.0712 11.8525 14.1093 11.832 14.1444C11.8203 14.162 11.8115 14.1825 11.7998 14.203C11.7763 14.244 11.7529 14.2821 11.7294 14.3232C11.7148 14.3437 11.706 14.37 11.6943 14.3935C11.6738 14.4286 11.6503 14.4638 11.6298 14.499C11.6122 14.5312 11.5917 14.5634 11.5741 14.5986C11.5448 14.6513 11.5155 14.707 11.4833 14.7568C11.4716 14.7715 11.4657 14.7891 11.454 14.8067C11.4335 14.8389 11.4159 14.877 11.3954 14.9121C10.6101 14.9121 9.82771 14.9121 9.0424 14.9121C9.05119 14.8916 9.05999 14.874 9.07171 14.8565C9.10101 14.8096 9.12445 14.7598 9.15375 14.7158C9.18306 14.6689 9.20943 14.6191 9.23873 14.5722C9.26217 14.5341 9.28268 14.4931 9.30613 14.455C9.33543 14.4052 9.3618 14.3525 9.39403 14.3056C9.40575 14.288 9.41455 14.2675 9.42334 14.2499C9.44678 14.2089 9.46729 14.1679 9.49073 14.1298C9.52296 14.077 9.55227 14.0243 9.5845 13.9715C9.60501 13.9364 9.62552 13.9012 9.64603 13.866C9.66948 13.8279 9.68999 13.7869 9.71343 13.7488C9.73687 13.7107 9.75738 13.6697 9.78083 13.6316C9.80134 13.5965 9.81892 13.5613 9.84236 13.5291C9.85408 13.5115 9.86287 13.491 9.87166 13.4734C9.89511 13.4324 9.91855 13.3943 9.93906 13.3532C9.96543 13.3064 9.9918 13.2566 10.0211 13.2097C10.0504 13.1628 10.0739 13.11 10.1061 13.0661C10.1207 13.0456 10.1295 13.0221 10.1412 12.9987C10.1647 12.9577 10.1881 12.9196 10.2116 12.8785C10.2233 12.858 10.235 12.8375 10.2438 12.817C10.2672 12.776 10.2878 12.7379 10.3141 12.6998C10.3259 12.6822 10.3346 12.6617 10.3434 12.6441C10.3669 12.6031 10.3874 12.5621 10.4108 12.524C10.4401 12.4771 10.4636 12.4244 10.4958 12.3804C10.5105 12.3599 10.5192 12.3365 10.531 12.313C10.5544 12.272 10.5779 12.2339 10.6013 12.1929C10.613 12.1753 10.6218 12.1548 10.6306 12.1372C10.654 12.0962 10.6804 12.0522 10.7039 12.0112C10.7273 11.9702 10.7507 11.9321 10.7712 11.8911C10.7947 11.853 10.8123 11.8119 10.8386 11.7768C10.8533 11.7563 10.8621 11.7328 10.8738 11.7094C10.8943 11.6742 10.9148 11.6391 10.9353 11.6039C10.9471 11.5863 10.9559 11.5658 10.9676 11.5453C10.9969 11.4925 11.0291 11.4427 11.0555 11.39C11.0789 11.349 11.1053 11.305 11.1287 11.264C11.1493 11.2317 11.1639 11.1966 11.1873 11.1673C11.202 11.1468 11.2108 11.1233 11.2225 11.0999C11.243 11.0647 11.2635 11.0296 11.284 10.9944C11.2958 10.9768 11.3046 10.9592 11.3163 10.9387C11.3368 10.9006 11.3573 10.8625 11.3837 10.8274C11.3983 10.8069 11.4071 10.7805 11.4218 10.757C11.4423 10.7219 11.4657 10.6867 11.4862 10.6516C11.5067 10.6193 11.5243 10.5842 11.5419 10.549C11.5624 10.5138 11.5829 10.4787 11.6034 10.4435C11.6152 10.423 11.624 10.4025 11.6386 10.382C11.6679 10.3322 11.6972 10.2794 11.7294 10.2296C11.7412 10.212 11.747 10.1915 11.7587 10.1739C11.7851 10.1329 11.8086 10.0919 11.832 10.0509C11.8525 10.0157 11.873 9.98053 11.8935 9.94537C11.9111 9.91021 11.9316 9.87798 11.9521 9.84574C11.9639 9.82816 11.9756 9.80472 11.9873 9.78421C12.0166 9.73439 12.043 9.68165 12.0752 9.63476C12.0869 9.61718 12.0957 9.59667 12.1045 9.57909C12.128 9.53807 12.1543 9.49704 12.1778 9.45602C12.1983 9.42086 12.2188 9.38569 12.2393 9.35053C12.2569 9.31537 12.2803 9.28314 12.2979 9.2509C12.3096 9.23039 12.3214 9.20988 12.3331 9.18644C12.3624 9.13662 12.3887 9.08681 12.418 9.03993C12.4298 9.02234 12.4386 9.00183 12.4503 8.98132C12.4737 8.9403 12.4972 8.9022 12.5206 8.86118C12.5411 8.82602 12.5587 8.79085 12.5792 8.75569C12.5997 8.72053 12.6202 8.6883 12.6407 8.65313C12.6525 8.63555 12.6613 8.61797 12.673 8.59746C12.7023 8.54471 12.7316 8.49197 12.7667 8.43922C12.7814 8.41871 12.7902 8.39234 12.8019 8.3689C12.8224 8.33374 12.8459 8.29857 12.8664 8.26341C12.884 8.23118 12.9045 8.19894 12.9221 8.16671C12.9426 8.12862 12.9631 8.08759 12.9894 8.05243C13.0012 8.03485 13.01 8.01434 13.0187 7.99676C13.0481 7.94401 13.0774 7.8942 13.1067 7.84145C13.1301 7.80043 13.1535 7.75648 13.1799 7.71545C13.2121 7.66857 13.2327 7.61582 13.2678 7.56894C13.2795 7.55429 13.2854 7.53378 13.2942 7.5162C13.3235 7.46345 13.3557 7.41364 13.3821 7.36089C13.4055 7.31987 13.429 7.27592 13.4554 7.23489C13.4964 7.17043 13.5286 7.10303 13.5696 7.0415C13.5872 7.01805 13.596 6.98582 13.6107 6.96238C13.6195 6.95066 13.6194 6.93601 13.6165 6.92722C13.596 6.88619 13.5989 6.83931 13.5755 6.79829C13.5726 6.74847 13.5491 6.70159 13.5403 6.65177C13.5345 6.61661 13.5198 6.58145 13.511 6.54628C13.4964 6.49061 13.4788 6.432 13.4641 6.37633C13.4554 6.33824 13.4407 6.30307 13.4319 6.26498C13.4231 6.22689 13.4114 6.18879 13.4026 6.14777C13.3968 6.1214 13.388 6.0921 13.3821 6.06572C13.3733 6.0247 13.3616 5.98368 13.3499 5.94265C13.3411 5.91042 13.3352 5.87819 13.3235 5.84596C13.3147 5.82251 13.3118 5.79907 13.303 5.77563C13.2942 5.74633 13.2854 5.71409 13.2795 5.68479C13.2708 5.6467 13.259 5.6086 13.2502 5.57051C13.2414 5.54121 13.2327 5.50898 13.2268 5.47967C13.218 5.44158 13.2092 5.40056 13.1975 5.36246C13.1887 5.33316 13.1799 5.30679 13.1741 5.27749C13.1682 5.24525 13.1594 5.21302 13.1477 5.18372C13.133 5.13977 13.1272 5.09581 13.1125 5.05186C13.1037 5.03135 13.1008 5.0079 13.0949 4.98739C13.0861 4.95809 13.0774 4.92586 13.0715 4.89655C13.0627 4.85846 13.0539 4.81744 13.0422 4.77935C13.0275 4.73539 13.0188 4.69144 13.007 4.64748C13.0012 4.62404 12.9924 4.60353 12.9894 4.58009C12.9836 4.54786 12.9719 4.51855 12.966 4.48925C12.9572 4.45116 12.9426 4.41599 12.9367 4.38083C12.9308 4.35153 12.9221 4.32516 12.9133 4.29585C12.9074 4.26069 12.8927 4.22553 12.8869 4.18743C12.8869 4.18157 12.881 4.17864 12.8781 4.17278C12.8693 4.18743 12.8576 4.20209 12.8488 4.21674C12.8224 4.26948 12.7902 4.32223 12.758 4.37204C12.7199 4.43358 12.6818 4.49511 12.6466 4.55665C12.6144 4.60646 12.5851 4.6592 12.5558 4.71195C12.5294 4.75883 12.503 4.80572 12.4737 4.8526C12.4532 4.88483 12.4386 4.92 12.4151 4.9493C12.4005 4.96981 12.3887 4.99911 12.377 5.01963C12.3536 5.05772 12.3331 5.09874 12.3096 5.13684C12.295 5.15735 12.2862 5.18372 12.2745 5.20716C12.254 5.24232 12.2305 5.27749 12.21 5.31265C12.1983 5.33023 12.1895 5.35074 12.1807 5.36832C12.1573 5.40935 12.1338 5.44744 12.1133 5.48846C12.0869 5.53535 12.0606 5.58516 12.0313 5.63205C12.002 5.67893 11.9785 5.72874 11.9463 5.77563C11.9316 5.79907 11.9228 5.82544 11.9082 5.84596C11.8847 5.88405 11.8642 5.92507 11.8408 5.96317C11.8261 5.98368 11.8173 6.01005 11.8056 6.03349C11.7851 6.06865 11.7617 6.10382 11.7412 6.13898C11.7294 6.15656 11.7207 6.17707 11.7119 6.19465C11.6884 6.23568 11.6679 6.2767 11.6445 6.31479C11.6152 6.36168 11.5917 6.41442 11.5595 6.45838C11.5448 6.48182 11.536 6.50819 11.5214 6.5287C11.498 6.5668 11.4774 6.60782 11.4511 6.64591C11.4393 6.66349 11.4306 6.68108 11.4218 6.69866C11.3983 6.73968 11.3749 6.78363 11.3485 6.82466C11.3339 6.84517 11.3251 6.86861 11.3133 6.89205C11.2899 6.93308 11.2665 6.97117 11.243 7.01219C11.2313 7.02978 11.2225 7.05029 11.2137 7.06787C11.1815 7.12647 11.1493 7.18508 11.1141 7.24075C11.0994 7.26126 11.0906 7.28471 11.0789 7.30815C11.0555 7.34917 11.032 7.38727 11.0086 7.42829C10.9969 7.44587 10.9881 7.46638 10.9793 7.48396C10.9559 7.52499 10.9295 7.56894 10.906 7.60996C10.8826 7.65099 10.8592 7.68908 10.8386 7.7301C10.8181 7.7682 10.7976 7.80922 10.7712 7.84438C10.7566 7.8649 10.7478 7.88834 10.7361 7.91178C10.7156 7.94694 10.6951 7.98211 10.6716 8.01727C10.6599 8.03485 10.6511 8.05536 10.6394 8.07587C10.6101 8.12862 10.5779 8.17843 10.5515 8.23118C10.528 8.2722 10.5017 8.31615 10.4782 8.35718C10.4577 8.38941 10.4431 8.42457 10.4196 8.45388C10.405 8.47439 10.3962 8.49783 10.3845 8.52127C10.3639 8.55643 10.3434 8.5916 10.3229 8.62676C10.3112 8.64434 10.3024 8.66192 10.2907 8.68243C10.2702 8.72053 10.2497 8.75862 10.2233 8.79378C10.2086 8.8143 10.1999 8.83774 10.1881 8.86118C10.1676 8.89634 10.1471 8.93151 10.1266 8.96667C10.1149 8.98718 10.1061 9.00769 10.0914 9.0282C10.0592 9.07802 10.0358 9.13076 10.0006 9.18058C9.98887 9.19816 9.98008 9.21867 9.96836 9.23918C9.93906 9.289 9.90976 9.34174 9.87752 9.39155C9.8658 9.41207 9.85408 9.43258 9.84236 9.45309C9.82185 9.49118 9.79841 9.52928 9.7779 9.56444C9.7691 9.58202 9.76031 9.59667 9.74859 9.61425C9.72515 9.64942 9.70757 9.68458 9.68706 9.71974C9.66655 9.75491 9.64603 9.78714 9.62845 9.81937C9.61087 9.85453 9.59036 9.88677 9.56985 9.92193C9.54934 9.95709 9.52882 9.99226 9.50831 10.0274C9.49659 10.0479 9.4878 10.0655 9.47608 10.086C9.44385 10.1388 9.41748 10.1944 9.38231 10.2443C9.36766 10.2648 9.35887 10.2911 9.34715 10.3146C9.32664 10.3497 9.30613 10.382 9.28561 10.4171C9.27389 10.4347 9.2651 10.4552 9.25338 10.4728C9.22994 10.5109 9.21236 10.549 9.18599 10.5842C9.17133 10.6047 9.16254 10.6311 9.14789 10.6545C9.12738 10.6897 9.10687 10.7219 9.08636 10.757C9.07464 10.7746 9.06585 10.7981 9.05412 10.8157C9.02189 10.8655 8.99552 10.9211 8.96036 10.971C8.94571 10.9915 8.93691 11.0178 8.92226 11.0413C8.90175 11.0764 8.87831 11.1116 8.8578 11.1468C8.84022 11.179 8.81971 11.2112 8.80212 11.2435C8.78161 11.2816 8.75817 11.3197 8.73473 11.3577C8.71422 11.39 8.69663 11.4251 8.67905 11.4603C8.65854 11.4955 8.63803 11.5306 8.61459 11.5658C8.60287 11.5834 8.59408 11.6039 8.58236 11.6244C8.55305 11.6771 8.52082 11.727 8.49445 11.7797C8.47101 11.8207 8.44463 11.8647 8.42119 11.9057C8.39189 11.9526 8.36845 12.0053 8.33621 12.0493C8.32449 12.0669 8.3157 12.0874 8.30691 12.105C8.27761 12.1577 8.24538 12.2075 8.219 12.2603C8.19556 12.3013 8.16919 12.3452 8.14575 12.3863C8.11645 12.4332 8.093 12.4859 8.06077 12.5298C8.04905 12.5474 8.04026 12.5679 8.03147 12.5855C8.00217 12.6383 7.96993 12.6881 7.94356 12.7408C7.92012 12.7819 7.89375 12.8258 7.8703 12.8668C7.841 12.9137 7.81756 12.9665 7.78533 13.0104C7.77361 13.028 7.76775 13.0485 7.75603 13.0661C7.72965 13.1071 7.70914 13.1481 7.68277 13.1892C7.66812 13.2097 7.65933 13.236 7.64468 13.2595C7.62416 13.2946 7.60365 13.3269 7.58314 13.362C7.57142 13.3796 7.56263 13.3972 7.55091 13.4177C7.52747 13.4617 7.50109 13.5027 7.47765 13.5437C7.46007 13.5759 7.44249 13.6111 7.42198 13.6433C7.38974 13.6961 7.36337 13.7518 7.32821 13.8016C7.31356 13.8221 7.30477 13.8485 7.29305 13.8719C7.27253 13.9071 7.25202 13.9393 7.23151 13.9745C7.21979 13.992 7.211 14.0096 7.19928 14.0301C7.17584 14.0741 7.15239 14.1151 7.12602 14.1561C7.11137 14.1766 7.10258 14.203 7.09086 14.2265C7.07035 14.2616 7.04984 14.2939 7.02932 14.329C7.0176 14.3495 7.00588 14.37 6.99416 14.3935C6.97365 14.4316 6.95021 14.4697 6.92677 14.5078C6.90918 14.54 6.88867 14.5722 6.87109 14.6074C6.85644 14.6338 6.84179 14.6572 6.82714 14.6836C6.80956 14.7187 6.78904 14.751 6.76853 14.7861C6.74216 14.833 6.71286 14.8799 6.68648 14.9268C5.90118 14.9268 5.1188 14.9268 4.3335 14.9268C4.35694 14.8887 4.37745 14.8535 4.40089 14.8184C4.41261 14.8008 4.4214 14.7803 4.43019 14.7627C4.4595 14.71 4.49173 14.6601 4.5181 14.6074C4.54154 14.5634 4.56499 14.5195 4.59136 14.4785C4.62066 14.4316 4.64703 14.3818 4.67634 14.3349C4.69978 14.2968 4.72029 14.2558 4.74373 14.2177C4.76424 14.1825 4.78182 14.1473 4.80527 14.1151C4.81699 14.0975 4.82285 14.077 4.83457 14.0594C4.86094 14.0184 4.88438 13.9774 4.90782 13.9364C4.92834 13.9012 4.94885 13.866 4.96936 13.8309C4.99866 13.7811 5.02503 13.7283 5.05727 13.6814C5.07192 13.6609 5.08071 13.6375 5.09243 13.614C5.11294 13.5789 5.13345 13.5437 5.15397 13.5086C5.16569 13.491 5.17448 13.4705 5.1862 13.4499C5.20964 13.4089 5.23308 13.3679 5.25945 13.3269C5.27411 13.3064 5.2829 13.28 5.29462 13.2566C5.31513 13.2214 5.33564 13.1892 5.35615 13.154C5.36787 13.1364 5.37666 13.113 5.38839 13.0954C5.41476 13.0573 5.4382 13.0133 5.46164 12.9723C5.48215 12.9372 5.50266 12.9049 5.52025 12.8698C5.54662 12.8199 5.57885 12.7701 5.60815 12.7203C5.61987 12.6998 5.6316 12.6793 5.64039 12.6588C5.66383 12.6178 5.68434 12.5797 5.71071 12.5416C5.72243 12.524 5.72829 12.5035 5.74001 12.4859C5.76639 12.4449 5.7869 12.4038 5.81327 12.3628C5.82792 12.3423 5.83671 12.3159 5.84843 12.2925C5.86895 12.2573 5.88946 12.2251 5.90997 12.1899C5.92169 12.1724 5.93048 12.1518 5.9422 12.1343C5.96857 12.0932 5.99202 12.0493 6.01546 12.0083C6.03597 11.9731 6.05648 11.935 6.07699 11.8998C6.1063 11.85 6.13267 11.8002 6.16197 11.7533C6.17369 11.7358 6.18248 11.7152 6.1942 11.6947C6.21472 11.6537 6.24109 11.6156 6.2616 11.5775C6.27332 11.557 6.28504 11.5365 6.29676 11.516C6.31727 11.4779 6.34072 11.4398 6.36123 11.4046C6.37295 11.3871 6.38174 11.3665 6.39053 11.349C6.4169 11.2962 6.44913 11.2464 6.47844 11.1937C6.50481 11.1468 6.53118 11.0999 6.56048 11.053C6.581 11.0208 6.59858 10.9856 6.61909 10.9563C6.63374 10.9358 6.64253 10.9094 6.65718 10.886C6.67769 10.8508 6.70114 10.8157 6.72165 10.7805C6.73337 10.7629 6.74216 10.7424 6.75095 10.7248C6.78025 10.6721 6.80956 10.6223 6.83886 10.5695C6.86523 10.5226 6.8916 10.4757 6.9209 10.4289C6.94142 10.3966 6.959 10.3615 6.97951 10.3322C6.99416 10.3117 7.00295 10.2853 7.0176 10.2618C7.03811 10.2267 7.06156 10.1915 7.08207 10.1563C7.09379 10.1388 7.10258 10.1183 7.11137 10.1007C7.13481 10.0597 7.15532 10.0186 7.17877 9.98053C7.20807 9.93365 7.23444 9.88384 7.26374 9.83695C7.28426 9.80179 7.30477 9.76663 7.32528 9.73146C7.34872 9.69337 7.36923 9.65235 7.39267 9.61425C7.41319 9.57909 7.4337 9.54393 7.45421 9.50877C7.47472 9.47067 7.49523 9.42965 7.52161 9.39448C7.54212 9.36225 7.5597 9.32709 7.57728 9.29193C7.60072 9.2509 7.62416 9.21281 7.64761 9.17179C7.65933 9.1542 7.66812 9.13369 7.67984 9.11611C7.70621 9.07509 7.72965 9.03113 7.75309 8.99011C7.77361 8.95495 7.79412 8.91979 7.81463 8.88462C7.83514 8.84653 7.85858 8.80844 7.88203 8.77034C7.90254 8.73811 7.92012 8.70002 7.94063 8.66485C7.96407 8.62676 7.98751 8.58574 8.01096 8.54764C8.03147 8.51248 8.04905 8.47732 8.06956 8.44215C8.093 8.40113 8.11938 8.36304 8.13989 8.32201C8.15747 8.28685 8.18091 8.25462 8.19849 8.21653C8.219 8.1755 8.24538 8.13741 8.26882 8.09639C8.2864 8.06415 8.30691 8.03192 8.32449 7.99969C8.34501 7.96159 8.36552 7.92057 8.39189 7.88541C8.40361 7.86783 8.40947 7.84731 8.42119 7.82973C8.44463 7.78871 8.46808 7.74769 8.49445 7.70666C8.5091 7.68615 8.51789 7.65978 8.52961 7.63634C8.55012 7.60117 8.57063 7.56894 8.59115 7.53378C8.60287 7.5162 8.61166 7.49568 8.62338 7.47517C8.64975 7.43415 8.67319 7.39313 8.69663 7.3521C8.71715 7.31694 8.73766 7.28471 8.75524 7.24954C8.78161 7.19973 8.81384 7.14992 8.84315 7.1001C8.85487 7.08252 8.86366 7.06201 8.87245 7.04443C8.89589 7.0034 8.92226 6.95945 8.94571 6.91843C8.96622 6.88326 8.98673 6.84517 9.00724 6.81001C9.03068 6.77191 9.05119 6.73675 9.07171 6.69866C9.09222 6.66349 9.11273 6.62833 9.13324 6.59317C9.16254 6.54335 9.18892 6.49061 9.22115 6.44373C9.23287 6.42614 9.23873 6.40563 9.25045 6.38805C9.27682 6.34703 9.29734 6.306 9.32371 6.26498C9.33836 6.24447 9.34715 6.2181 9.35887 6.19465C9.37938 6.15949 9.39989 6.12726 9.42041 6.0921C9.43213 6.07451 9.44092 6.05693 9.45264 6.03642C9.47608 5.99247 9.50245 5.95437 9.52589 5.91042C9.54641 5.87233 9.56692 5.83716 9.58743 5.802C9.61673 5.75219 9.64017 5.70237 9.67241 5.65549C9.68413 5.64084 9.68999 5.62326 9.69878 5.60567C9.72222 5.56172 9.74859 5.5207 9.77204 5.47674C9.79255 5.44158 9.81306 5.40349 9.83357 5.36832C9.85701 5.33023 9.87752 5.29507 9.89804 5.25698C9.91855 5.22181 9.93906 5.18665 9.95957 5.15149C9.97715 5.11632 10.0006 5.08409 10.0182 5.05186C10.0299 5.03428 10.0387 5.01376 10.0475 4.99618C10.0709 4.95516 10.0973 4.91121 10.1207 4.87018C10.1442 4.82916 10.1676 4.79107 10.1881 4.75004C10.2057 4.71781 10.2262 4.68265 10.2467 4.65041C10.2585 4.63283 10.2672 4.61232 10.279 4.59474C10.3053 4.55372 10.3288 4.50976 10.3522 4.46874C10.3727 4.43358 10.3932 4.39548 10.4138 4.36032C10.4431 4.31051 10.4665 4.26069 10.5017 4.21381C10.5163 4.1933 10.5251 4.16692 10.5398 4.14348C10.5603 4.10832 10.5808 4.07609 10.6013 4.04092C10.613 4.02334 10.6218 4.00576 10.6335 3.98525C10.657 3.94129 10.6833 3.9032 10.7068 3.85925C10.7273 3.82115 10.7478 3.78599 10.7683 3.75083C10.7947 3.70101 10.8211 3.6512 10.8562 3.60432C10.8679 3.58673 10.8738 3.56622 10.8855 3.54864C10.909 3.50762 10.9324 3.46952 10.9559 3.4285C10.9676 3.40799 10.9793 3.38748 10.991 3.36697C11.0115 3.32887 11.035 3.29078 11.0555 3.25562C11.0672 3.23803 11.076 3.21752 11.0848 3.19994C11.1082 3.15892 11.1346 3.11789 11.158 3.07687C11.1786 3.04171 11.1991 3.00655 11.2196 2.97138C11.2489 2.92157 11.2753 2.86882 11.3075 2.82194C11.3192 2.80436 11.3251 2.78385 11.3368 2.76627C11.3632 2.72524 11.3837 2.68422 11.41 2.64319C11.4247 2.62268 11.4335 2.59631 11.4452 2.57287C11.4657 2.53771 11.4862 2.50547 11.5067 2.47031C11.5185 2.45273 11.5273 2.43222 11.539 2.41464C11.5653 2.37361 11.5888 2.32966 11.6122 2.28863C11.6327 2.25054 11.6533 2.21538 11.6738 2.18022C11.7031 2.1304 11.7265 2.08059 11.7617 2.0337C11.7734 2.01612 11.7793 1.99561 11.791 1.97803C11.8144 1.93701 11.8379 1.89891 11.8613 1.85789C11.873 1.83738 11.8847 1.81686 11.8965 1.79635C11.917 1.75826 11.9404 1.72017 11.9609 1.685C11.9697 1.66742 11.9785 1.65277 11.9902 1.63519C12.0137 1.60003 12.0313 1.56486 12.0518 1.5297C12.084 1.4711 12.1162 1.41542 12.1514 1.36268C12.1573 1.35389 12.1631 1.3451 12.169 1.3363C12.884 1.33337 13.5696 1.33337 14.2524 1.33337Z" fill="#485AFD"/>
</g>
<defs>
<clipPath id="clip0_87_4531">
<rect width="16" height="16" fill="white" transform="translate(3)"/>
</clipPath>
</defs>
</svg>
