<svg width="30" height="30" viewBox="0 0 30 30" fill="none" xmlns="http://www.w3.org/2000/svg">
<path d="M21 21.657V22.657H15V21.657H21ZM21.293 12L25.182 15.889L24.475 16.597L23.945 16.42L22.7065 17.657L25.535 20.4855L24.828 21.1925L22 18.364L20.798 19.566L20.9395 20.132L20.232 20.839L16.343 16.95L17.0505 16.243L17.6155 16.384L20.7625 13.2375L20.586 12.7075L21.293 12Z" fill="#485AFD"/>
<path d="M9.91889 2C9.92768 2.02344 9.93061 2.04981 9.9394 2.07326C9.94819 2.0967 9.95405 2.12307 9.95991 2.14651C9.9687 2.18461 9.97749 2.22563 9.98921 2.26372C10.0009 2.30768 10.0097 2.35163 10.0244 2.39558C10.0332 2.42196 10.039 2.45126 10.0478 2.48056C10.0566 2.50986 10.0625 2.5421 10.0713 2.5714C10.0771 2.59191 10.083 2.61535 10.0888 2.63586C10.0976 2.66517 10.1064 2.6974 10.1123 2.7267C10.1211 2.76479 10.1328 2.80582 10.1416 2.84391C10.1504 2.87028 10.1592 2.89959 10.1621 2.92596C10.165 2.94647 10.1767 2.96698 10.1797 2.99042C10.1855 3.01094 10.1885 3.03145 10.1943 3.05196C10.2031 3.07833 10.209 3.10763 10.2178 3.13401C10.2266 3.16331 10.2354 3.19554 10.2412 3.22484C10.2471 3.25415 10.2588 3.28052 10.2647 3.30982C10.2764 3.34791 10.2852 3.38894 10.294 3.42703C10.3027 3.45633 10.3115 3.48271 10.3174 3.51201C10.3262 3.55303 10.3408 3.59405 10.3496 3.63508C10.3555 3.66145 10.3643 3.69075 10.3731 3.71712C10.3848 3.75229 10.3965 3.79038 10.4024 3.82554C10.4082 3.85485 10.4229 3.88415 10.4229 3.91638C10.4405 3.95741 10.4434 4.00429 10.4639 4.04531C10.4668 4.09513 10.4874 4.14201 10.4991 4.18889C10.5079 4.22699 10.5196 4.26215 10.5313 4.30024C10.5401 4.33834 10.5548 4.37643 10.5606 4.41745C10.5665 4.44676 10.5782 4.47313 10.5841 4.50243C10.5958 4.54052 10.6016 4.58155 10.6134 4.61964C10.6221 4.64894 10.6309 4.67532 10.6368 4.70462C10.6427 4.73685 10.6514 4.76908 10.6632 4.79839C10.6778 4.84234 10.6837 4.88629 10.6983 4.93025C10.7071 4.95076 10.7101 4.9742 10.7159 4.99471C10.7247 5.02402 10.7335 5.05625 10.7394 5.08555C10.7481 5.12364 10.7599 5.16174 10.7716 5.1969C10.7774 5.22034 10.7833 5.24085 10.7921 5.2643C10.8009 5.29653 10.8097 5.32876 10.8185 5.36099C10.8214 5.36978 10.8243 5.38151 10.8302 5.39616C10.8273 5.39323 10.8273 5.39323 10.8302 5.39616H10.8331C11.5422 5.39616 12.2514 5.39616 12.9634 5.39616C12.9605 5.40202 12.9576 5.40788 12.9576 5.41081C12.9458 5.43132 12.9341 5.45183 12.9224 5.46941C12.8902 5.52216 12.8638 5.57783 12.8286 5.62765C12.814 5.64816 12.8052 5.6716 12.7935 5.69504C12.7729 5.73021 12.7524 5.76537 12.729 5.80053C12.7173 5.81811 12.7085 5.83862 12.6968 5.85914C12.6704 5.90016 12.6469 5.94118 12.6235 5.98221C12.603 6.01737 12.5825 6.05253 12.562 6.0877C12.5444 6.12286 12.5239 6.15509 12.5034 6.18732C12.4916 6.20491 12.4829 6.22249 12.4741 6.243C12.4477 6.29574 12.4155 6.34849 12.3862 6.3983C12.3569 6.44519 12.3305 6.495 12.3012 6.54188C12.2807 6.57705 12.2602 6.61514 12.2396 6.6503C12.2133 6.70012 12.1869 6.74993 12.1517 6.79682C12.1371 6.81733 12.1283 6.8437 12.1166 6.86714C12.0961 6.9023 12.0756 6.93454 12.055 6.9697C12.0433 6.98728 12.0345 7.01072 12.0228 7.0283C11.9906 7.07812 11.9642 7.13379 11.929 7.18361C11.9144 7.20412 11.9056 7.23049 11.8909 7.25393C11.8704 7.2891 11.847 7.32426 11.8265 7.35942C11.8148 7.377 11.806 7.39752 11.7972 7.4151C11.7737 7.45612 11.7474 7.49714 11.7239 7.53817C11.7034 7.57333 11.6829 7.60849 11.6624 7.64366C11.6331 7.69347 11.6067 7.74622 11.5745 7.7931C11.5598 7.81361 11.551 7.83998 11.5393 7.86343C11.5305 7.87808 11.5188 7.89273 11.51 7.91031C11.5042 7.92203 11.5012 7.93668 11.5042 7.94547C11.5188 7.97771 11.5217 8.01287 11.5335 8.0451C11.5422 8.07147 11.5481 8.10078 11.5569 8.13008C11.5686 8.16524 11.5774 8.20333 11.5862 8.2385C11.595 8.2678 11.6038 8.29417 11.6096 8.32347C11.6155 8.35571 11.6272 8.38501 11.636 8.41724C11.6419 8.44948 11.6536 8.47878 11.6595 8.50808C11.6682 8.54031 11.677 8.57255 11.6858 8.60478C11.6946 8.63701 11.7034 8.66924 11.7122 8.70148C11.721 8.73371 11.7298 8.76887 11.7386 8.8011C11.7474 8.82455 11.7503 8.84506 11.7562 8.8685C11.7679 8.90659 11.7767 8.94469 11.7884 8.98278C11.7942 9.00329 11.8001 9.0238 11.803 9.04432C11.8089 9.06776 11.8177 9.0912 11.8235 9.11464C11.8294 9.13808 11.8353 9.16152 11.8411 9.18497C11.8499 9.21427 11.8558 9.24064 11.8646 9.26994C11.8734 9.29925 11.8792 9.33148 11.888 9.36078C11.8939 9.38129 11.8997 9.4018 11.9027 9.42232C11.9144 9.46041 11.9202 9.50143 11.9349 9.5366C11.9408 9.55711 11.9466 9.57762 11.9495 9.59813C11.9583 9.63623 11.9671 9.67432 11.9818 9.71241C11.9876 9.73292 11.9906 9.75637 11.9964 9.77688C12.0082 9.82083 12.0199 9.86771 12.0316 9.91167C12.0404 9.94097 12.0492 9.97027 12.058 9.99958C12.0668 10.0289 12.0726 10.0611 12.0814 10.0904C12.0902 10.1197 12.0961 10.1461 12.1049 10.1754C12.1136 10.2047 12.1195 10.2369 12.1283 10.2662C12.1371 10.2867 12.14 10.3073 12.1429 10.3278C12.1517 10.3659 12.1605 10.4039 12.1752 10.442C12.181 10.4626 12.184 10.486 12.1898 10.5065C12.2016 10.5505 12.2133 10.5973 12.225 10.6413C12.2338 10.6706 12.2426 10.6999 12.2514 10.7292C12.2602 10.7585 12.266 10.7907 12.2748 10.82C12.2836 10.8493 12.2895 10.8757 12.2982 10.905C12.307 10.9343 12.3129 10.9666 12.3217 10.9959C12.3276 11.0164 12.3334 11.0369 12.3363 11.0574C12.3451 11.0955 12.3539 11.1365 12.3686 11.1717C12.3744 11.1922 12.3803 11.2127 12.3832 11.2332C12.392 11.2684 12.3979 11.3065 12.4096 11.3416C12.4184 11.3651 12.4213 11.3885 12.4272 11.412C12.436 11.4413 12.4448 11.4706 12.4506 11.4999C12.4565 11.5321 12.4682 11.5643 12.477 11.5966C12.4829 11.6229 12.4916 11.6493 12.4975 11.6757C12.5092 11.7138 12.518 11.7519 12.5297 11.787C12.5415 11.8251 12.5503 11.8632 12.562 11.9013C12.5678 11.9218 12.5737 11.9423 12.5766 11.9628C12.5854 11.998 12.5942 12.0361 12.603 12.0713C12.6118 12.0976 12.6147 12.1211 12.6235 12.1474C12.6323 12.1768 12.6382 12.2031 12.6469 12.2324C12.6557 12.2734 12.6675 12.3115 12.6792 12.3526C12.688 12.3848 12.6938 12.42 12.7056 12.4522C12.7143 12.4756 12.7173 12.4961 12.7231 12.5196C12.7378 12.5665 12.7466 12.6163 12.7642 12.6632C12.77 12.6837 12.7759 12.7042 12.7788 12.7247C12.7847 12.7481 12.7935 12.7716 12.7993 12.795C12.8052 12.8185 12.811 12.8419 12.8169 12.8654C12.8257 12.8947 12.8316 12.921 12.8403 12.9503C12.8491 12.9796 12.855 13.0119 12.8638 13.0412C12.8696 13.0617 12.8755 13.0822 12.8784 13.1027C12.8843 13.132 12.8989 13.1613 12.8989 13.1935C12.9107 13.2082 12.9077 13.2287 12.9136 13.2434C12.9224 13.2609 12.9224 13.2785 12.9283 13.299C12.9341 13.3166 12.9312 13.3342 12.9458 13.3488C12.9517 13.3987 12.9693 13.4455 12.981 13.4924C12.9927 13.5364 13.0015 13.5803 13.0162 13.6243C13.0249 13.6448 13.0279 13.6682 13.0337 13.6888C13.0425 13.7181 13.0484 13.7474 13.0572 13.7767C13.066 13.8089 13.0718 13.8411 13.0836 13.8704C13.0982 13.9144 13.1041 13.9613 13.1216 14.0052C13.1275 14.0257 13.1304 14.0462 13.1363 14.0668C13.1451 14.0961 13.1539 14.1283 13.1597 14.1576C13.1685 14.1986 13.1803 14.2367 13.192 14.2777C13.2008 14.31 13.2066 14.3451 13.2183 14.3774C13.2271 14.4008 13.2301 14.4213 13.2359 14.4448C13.2418 14.4682 13.2535 14.4916 13.2564 14.518C13.2623 14.5415 13.2682 14.5649 13.277 14.5883C13.2828 14.6089 13.2887 14.6294 13.2916 14.6499C13.2975 14.6733 13.3063 14.6968 13.3121 14.7202C13.318 14.7436 13.3238 14.7671 13.3297 14.7905C13.3385 14.8198 13.3443 14.8462 13.3531 14.8755C13.3619 14.9048 13.3678 14.937 13.3766 14.9663C13.3854 14.9869 13.3883 15.0103 13.3942 15.0308C13.403 15.0601 13.4088 15.0894 13.4176 15.1187C13.4293 15.1597 13.4381 15.2008 13.4498 15.2418C13.4586 15.2711 13.4645 15.3033 13.4762 15.3326C13.485 15.3561 13.4909 15.3824 13.4967 15.4059C13.5055 15.4381 13.5172 15.4674 13.5202 15.4997C13.5231 15.5231 13.5377 15.5465 13.5377 15.5729C13.5377 15.5758 13.5436 15.5817 13.5465 15.5876C12.8403 15.5876 12.1342 15.5876 11.4309 15.5876C11.425 15.5641 11.4192 15.5407 11.4133 15.5172C11.4016 15.4762 11.3899 15.4352 11.3811 15.3942C11.3723 15.3561 11.3576 15.3209 11.3488 15.2828C11.343 15.2506 11.3342 15.2213 11.3254 15.192C11.3137 15.148 11.3049 15.1041 11.2902 15.0601C11.2844 15.0396 11.2815 15.0191 11.2727 14.9986C11.2639 14.9693 11.258 14.937 11.2492 14.9048C11.2375 14.8638 11.2258 14.8228 11.217 14.7817C11.2082 14.7495 11.2023 14.7173 11.1906 14.685C11.1818 14.6587 11.1789 14.6352 11.1701 14.6089C11.1613 14.5796 11.1555 14.5532 11.1467 14.5239C11.1379 14.4829 11.1261 14.4448 11.1144 14.4037C11.1056 14.3715 11.0998 14.3363 11.0881 14.3041C11.0793 14.2807 11.0763 14.2602 11.0705 14.2367C11.0558 14.1898 11.047 14.14 11.0295 14.0931C11.0236 14.0726 11.0177 14.0521 11.0148 14.0316C11.0089 14.0082 11.0001 13.9847 10.9943 13.9613C10.9884 13.9378 10.9826 13.9144 10.9767 13.8909C10.9679 13.8616 10.9621 13.8353 10.9533 13.806C10.9445 13.7767 10.9386 13.7444 10.9298 13.7151C10.924 13.6946 10.9181 13.6741 10.9152 13.6536C10.9093 13.6243 10.8947 13.595 10.8947 13.5628C10.8829 13.5481 10.8859 13.5276 10.88 13.5129C10.8712 13.4954 10.8712 13.4778 10.8654 13.4573C10.8595 13.4397 10.8624 13.4221 10.8478 13.4075C10.8419 13.3576 10.8243 13.3108 10.8126 13.2639C10.8009 13.2199 10.7921 13.176 10.7774 13.132C10.7687 13.1115 10.7657 13.0881 10.7599 13.0675C10.7511 13.0382 10.7452 13.0089 10.7364 12.9796C10.7276 12.9474 10.7218 12.9152 10.7101 12.8859C10.6954 12.8419 10.6895 12.795 10.672 12.7511C10.6661 12.7306 10.6632 12.7101 10.6573 12.6895C10.6485 12.6602 10.6397 12.628 10.6339 12.5987C10.6251 12.5577 10.6134 12.5196 10.6016 12.4786C10.5928 12.4463 10.587 12.4112 10.5753 12.3789C10.5665 12.3555 10.5635 12.335 10.5577 12.3115C10.5518 12.2881 10.5401 12.2647 10.5372 12.2383C10.5313 12.2148 10.5225 12.1914 10.5196 12.168C10.5108 12.1299 10.4991 12.0918 10.4903 12.0507C10.4815 12.0156 10.4727 11.9804 10.461 11.9482C10.4522 11.9189 10.4434 11.8896 10.4346 11.8603C10.4258 11.831 10.42 11.8017 10.4112 11.7724C10.3994 11.7314 10.3907 11.6903 10.3789 11.6493C10.3701 11.6171 10.3614 11.5819 10.3526 11.5497C10.3438 11.5204 10.335 11.4911 10.3262 11.4618C10.3174 11.4325 10.3086 11.4002 10.3028 11.3709C10.2969 11.3446 10.2881 11.3153 10.2793 11.2889C10.2705 11.2508 10.2588 11.2127 10.2471 11.1746C10.2354 11.1365 10.2295 11.0955 10.2178 11.0574C10.209 11.0222 10.2002 10.9871 10.1885 10.9548C10.1797 10.9255 10.1709 10.8962 10.1621 10.8669C10.1562 10.8347 10.1445 10.8054 10.1357 10.7761C10.124 10.738 10.1181 10.697 10.1064 10.6589C10.0976 10.6237 10.0888 10.5886 10.0771 10.5563C10.0683 10.5241 10.0595 10.4948 10.0507 10.4626C10.0478 10.4508 10.0449 10.4391 10.039 10.4245C10.0361 10.4274 10.0302 10.4274 10.0302 10.4303C10.0097 10.4743 9.98628 10.5124 9.95991 10.5534C9.94819 10.571 9.9394 10.5886 9.92768 10.6091C9.90424 10.653 9.87786 10.6911 9.85442 10.7351C9.83391 10.7702 9.8134 10.8054 9.79289 10.8406C9.7753 10.8757 9.75479 10.9109 9.73428 10.9402C9.72256 10.9578 9.71377 10.9783 9.70498 10.9959C9.67861 11.0486 9.64344 11.0984 9.61707 11.1512C9.59363 11.1951 9.56726 11.2361 9.54382 11.2772C9.5233 11.3094 9.50865 11.3446 9.48521 11.3739C9.47056 11.3944 9.46177 11.4207 9.44712 11.4442C9.42661 11.4794 9.40316 11.5145 9.38265 11.5497C9.37093 11.5673 9.36214 11.5878 9.35335 11.6054C9.32991 11.6464 9.30354 11.6874 9.28009 11.7284C9.25958 11.7636 9.23907 11.7987 9.21856 11.8339C9.20098 11.8691 9.17754 11.9013 9.15995 11.9335C9.14823 11.9511 9.13944 11.9716 9.13065 11.9892C9.10721 12.0302 9.08084 12.0742 9.05739 12.1152C9.03688 12.1504 9.01637 12.1885 8.99586 12.2236C8.97242 12.2617 8.95191 12.2969 8.93139 12.335C8.91088 12.3701 8.89037 12.4024 8.87279 12.4405C8.85521 12.4756 8.83177 12.5079 8.81125 12.543C8.79953 12.5606 8.79074 12.5811 8.77902 12.5987C8.75558 12.6397 8.72921 12.6837 8.70577 12.7247C8.68232 12.7628 8.66181 12.8038 8.63837 12.8419C8.62079 12.8771 8.59735 12.9093 8.57976 12.9415C8.56804 12.9591 8.55925 12.9796 8.54753 12.9972C8.52116 13.0382 8.49772 13.0822 8.47428 13.1232C8.45376 13.1584 8.43325 13.1965 8.41274 13.2316C8.38637 13.2815 8.36 13.3313 8.32483 13.3782C8.31311 13.3957 8.30725 13.4162 8.29553 13.4338C8.27209 13.4748 8.24865 13.5129 8.2252 13.554C8.21348 13.5745 8.20176 13.595 8.19004 13.6155C8.16953 13.6536 8.14609 13.6917 8.12558 13.7269C8.11679 13.7444 8.10799 13.7591 8.09627 13.7767C8.07283 13.8118 8.05525 13.847 8.03474 13.8822C8.01423 13.9173 7.99371 13.9495 7.97613 13.9818C7.96441 13.9994 7.95562 14.0199 7.94683 14.0375C7.92339 14.0785 7.89702 14.1224 7.87358 14.1635C7.85306 14.1986 7.83255 14.2367 7.81204 14.2719C7.7886 14.31 7.76809 14.3451 7.74757 14.3832C7.72706 14.4184 7.70655 14.4536 7.68604 14.4887C7.65674 14.5385 7.63036 14.5913 7.59813 14.6382C7.58641 14.6587 7.57469 14.6792 7.56297 14.6997C7.54246 14.7378 7.51902 14.7759 7.4985 14.811C7.48678 14.8286 7.47799 14.8491 7.46627 14.8696C7.44283 14.9107 7.41939 14.9488 7.39594 14.9898C7.38129 15.0103 7.3725 15.0367 7.36078 15.0601C7.34027 15.0953 7.31683 15.1304 7.29632 15.1656C7.27873 15.1978 7.25822 15.2301 7.24064 15.2652C7.21134 15.318 7.18204 15.3736 7.1498 15.4235C7.13808 15.4381 7.13222 15.4557 7.1205 15.4733C7.09999 15.5055 7.08241 15.5436 7.0619 15.5788C6.27659 15.5788 5.49421 15.5788 4.70891 15.5788C4.7177 15.5583 4.72649 15.5407 4.73821 15.5231C4.76751 15.4762 4.79096 15.4264 4.82026 15.3824C4.84956 15.3356 4.87593 15.2857 4.90523 15.2389C4.92868 15.2008 4.94919 15.1597 4.97263 15.1216C5.00193 15.0718 5.02831 15.0191 5.06054 14.9722C5.07226 14.9546 5.08105 14.9341 5.08984 14.9165C5.11328 14.8755 5.13379 14.8345 5.15724 14.7964C5.18947 14.7436 5.21877 14.6909 5.251 14.6382C5.27152 14.603 5.29203 14.5678 5.31254 14.5327C5.33598 14.4946 5.35649 14.4536 5.37993 14.4155C5.40338 14.3774 5.42389 14.3363 5.44733 14.2982C5.46784 14.2631 5.48542 14.2279 5.50886 14.1957C5.52059 14.1781 5.52938 14.1576 5.53817 14.14C5.56161 14.099 5.58505 14.0609 5.60556 14.0199C5.63194 13.973 5.65831 13.9232 5.68761 13.8763C5.71691 13.8294 5.74036 13.7767 5.77259 13.7327C5.78724 13.7122 5.79603 13.6888 5.80775 13.6653C5.83119 13.6243 5.85463 13.5862 5.87808 13.5452C5.8898 13.5247 5.90152 13.5042 5.91031 13.4836C5.93375 13.4426 5.95426 13.4045 5.98064 13.3664C5.99236 13.3488 6.00115 13.3283 6.00994 13.3108C6.03338 13.2697 6.05389 13.2287 6.07733 13.1906C6.10664 13.1437 6.13008 13.091 6.16231 13.047C6.17696 13.0265 6.18575 13.0031 6.19747 12.9796C6.22092 12.9386 6.24436 12.9005 6.2678 12.8595C6.27952 12.8419 6.28831 12.8214 6.2971 12.8038C6.32054 12.7628 6.34692 12.7188 6.37036 12.6778C6.3938 12.6368 6.41724 12.5987 6.43775 12.5577C6.4612 12.5196 6.47878 12.4786 6.50515 12.4434C6.5198 12.4229 6.52859 12.3994 6.54031 12.376C6.56082 12.3408 6.58134 12.3057 6.60185 12.2705C6.61357 12.2529 6.62236 12.2324 6.63408 12.2119C6.66338 12.1592 6.69562 12.1094 6.72199 12.0566C6.74543 12.0156 6.7718 11.9716 6.79524 11.9306C6.81576 11.8984 6.83041 11.8632 6.85385 11.8339C6.8685 11.8134 6.87729 11.79 6.88901 11.7665C6.90952 11.7314 6.93004 11.6962 6.95055 11.661C6.96227 11.6434 6.97106 11.6259 6.98278 11.6054C7.00329 11.5673 7.0238 11.5292 7.05018 11.494C7.06483 11.4735 7.07362 11.4471 7.08827 11.4237C7.10878 11.3885 7.13222 11.3533 7.15273 11.3182C7.17325 11.286 7.19083 11.2508 7.20841 11.2156C7.22892 11.1805 7.24943 11.1453 7.26994 11.1101C7.28166 11.0896 7.29046 11.0691 7.30511 11.0486C7.33441 10.9988 7.36371 10.946 7.39594 10.8962C7.40767 10.8786 7.41353 10.8581 7.42525 10.8406C7.45162 10.7995 7.47506 10.7585 7.4985 10.7175C7.51902 10.6823 7.53953 10.6472 7.56004 10.612C7.57762 10.5768 7.59813 10.5446 7.61864 10.5124C7.63036 10.4948 7.64209 10.4713 7.65381 10.4508C7.68311 10.401 7.70948 10.3483 7.74171 10.3014C7.75343 10.2838 7.76223 10.2633 7.77102 10.2457C7.79446 10.2047 7.82083 10.1637 7.84427 10.1226C7.86478 10.0875 7.8853 10.0523 7.90581 10.0172C7.92339 9.98199 7.94683 9.94976 7.96441 9.91753C7.97613 9.89702 7.98785 9.87651 7.99958 9.85306C8.02888 9.80325 8.05525 9.75344 8.08455 9.70655C8.09627 9.68897 8.10506 9.66846 8.11679 9.64795C8.14023 9.60692 8.16367 9.56883 8.18711 9.52781C8.20762 9.49264 8.2252 9.45748 8.24572 9.42232C8.26623 9.38715 8.28674 9.35492 8.30725 9.31976C8.31897 9.30218 8.32776 9.2846 8.33948 9.26408C8.36879 9.21134 8.39809 9.15859 8.43325 9.10585C8.4479 9.08534 8.45669 9.05897 8.46842 9.03552C8.48893 9.00036 8.51237 8.9652 8.53288 8.93004C8.55046 8.8978 8.57097 8.86557 8.58856 8.83334C8.60907 8.79524 8.62958 8.75422 8.65595 8.71906C8.66767 8.70148 8.67646 8.68096 8.68525 8.66338C8.71456 8.61064 8.74386 8.56082 8.77316 8.50808C8.7966 8.46706 8.82005 8.4231 8.84642 8.38208C8.87865 8.3352 8.89916 8.28245 8.93432 8.23557C8.94605 8.22092 8.95191 8.2004 8.9607 8.18282C8.99 8.13008 9.02223 8.08026 9.0486 8.02752C9.07205 7.9865 9.09549 7.94254 9.12186 7.90152C9.16288 7.83705 9.19512 7.76966 9.23614 7.70812C9.25372 7.68468 9.26251 7.65245 9.27716 7.62901C9.28595 7.61728 9.28595 7.60263 9.28302 7.59384C9.26251 7.55282 9.26544 7.50594 9.242 7.46491C9.23907 7.4151 9.21563 7.36821 9.20684 7.3184C9.20098 7.28324 9.18633 7.24807 9.17754 7.21291C9.16288 7.15724 9.1453 7.09863 9.13065 7.04296C9.12186 7.00486 9.10721 6.9697 9.09842 6.93161C9.08963 6.89351 9.07791 6.85542 9.06912 6.8144C9.06326 6.78802 9.05446 6.75872 9.0486 6.73235C9.03981 6.69133 9.02809 6.6503 9.01637 6.60928C9.00758 6.57705 9.00172 6.54481 8.99 6.51258C8.98121 6.48914 8.97828 6.4657 8.96949 6.44226C8.9607 6.41295 8.95191 6.38072 8.94605 6.35142C8.93725 6.31332 8.92553 6.27523 8.91674 6.23714C8.90795 6.20784 8.89916 6.1756 8.8933 6.1463C8.88451 6.10821 8.87572 6.06718 8.864 6.02909C8.85521 5.99979 8.84642 5.97342 8.84056 5.94411C8.8347 5.91188 8.82591 5.87965 8.81418 5.85035C8.79953 5.80639 8.79367 5.76244 8.77902 5.71848C8.77023 5.69797 8.7673 5.67453 8.76144 5.65402C8.75265 5.62472 8.74386 5.59248 8.738 5.56318C8.72921 5.52509 8.72042 5.48406 8.7087 5.44597C8.69404 5.40202 8.68525 5.35806 8.67353 5.31411C8.66767 5.29067 8.65888 5.27016 8.65595 5.24671C8.65009 5.21448 8.63837 5.18518 8.63251 5.15588C8.62372 5.11778 8.60907 5.08262 8.60321 5.04746C8.59735 5.01815 8.58856 4.99178 8.57976 4.96248C8.5739 4.92732 8.55925 4.89215 8.55339 4.85406C8.55339 4.8482 8.54753 4.84527 8.5446 4.83941C8.53581 4.85406 8.52409 4.86871 8.5153 4.88336C8.48893 4.93611 8.45669 4.98885 8.42446 5.03867C8.38637 5.1002 8.34828 5.16174 8.31311 5.22327C8.28088 5.27309 8.25158 5.32583 8.22227 5.37858C8.1959 5.42546 8.16953 5.47234 8.14023 5.51923C8.11972 5.55146 8.10506 5.58662 8.08162 5.61593C8.06697 5.63644 8.05525 5.66574 8.04353 5.68625C8.02009 5.72434 7.99958 5.76537 7.97613 5.80346C7.96148 5.82397 7.95269 5.85035 7.94097 5.87379C7.92046 5.90895 7.89702 5.94411 7.8765 5.97928C7.86478 5.99686 7.85599 6.01737 7.8472 6.03495C7.82376 6.07597 7.80032 6.11407 7.77981 6.15509C7.75343 6.20197 7.72706 6.25179 7.69776 6.29867C7.66846 6.34556 7.64502 6.39537 7.61278 6.44226C7.59813 6.4657 7.58934 6.49207 7.57469 6.51258C7.55125 6.55067 7.53074 6.5917 7.50729 6.62979C7.49264 6.6503 7.48385 6.67668 7.47213 6.70012C7.45162 6.73528 7.42818 6.77044 7.40767 6.80561C7.39595 6.82319 7.38715 6.8437 7.37836 6.86128C7.35492 6.9023 7.33441 6.94333 7.31097 6.98142C7.28167 7.0283 7.25822 7.08105 7.22599 7.125C7.21134 7.14845 7.20255 7.17482 7.1879 7.19533C7.16446 7.23342 7.14394 7.27445 7.11757 7.31254C7.10585 7.33012 7.09706 7.3477 7.08827 7.36528C7.06483 7.40631 7.04138 7.45026 7.01501 7.49128C7.00036 7.5118 6.99157 7.53524 6.97985 7.55868C6.95641 7.5997 6.93297 7.6378 6.90952 7.67882C6.8978 7.6964 6.88901 7.71691 6.88022 7.73449C6.84799 7.7931 6.81576 7.8517 6.78059 7.90738C6.76594 7.92789 6.75715 7.95133 6.74543 7.97477C6.72199 8.0158 6.69855 8.05389 6.6751 8.09491C6.66338 8.1125 6.65459 8.13301 6.6458 8.15059C6.62236 8.19161 6.59599 8.23557 6.57255 8.27659C6.5491 8.31761 6.52566 8.35571 6.50515 8.39673C6.48464 8.43482 6.46413 8.47585 6.43775 8.51101C6.4231 8.53152 6.41431 8.55496 6.40259 8.57841C6.38208 8.61357 6.36157 8.64873 6.33813 8.6839C6.3264 8.70148 6.31761 8.72199 6.30589 8.7425C6.27659 8.79524 6.24436 8.84506 6.21799 8.8978C6.19454 8.93883 6.16817 8.98278 6.14473 9.0238C6.12422 9.05604 6.10957 9.0912 6.08612 9.1205C6.07147 9.14101 6.06268 9.16446 6.05096 9.1879C6.03045 9.22306 6.00994 9.25822 5.98943 9.29339C5.97771 9.31097 5.96891 9.32855 5.95719 9.34906C5.93668 9.38715 5.91617 9.42525 5.8898 9.46041C5.87515 9.48092 5.86636 9.50436 5.85463 9.52781C5.83412 9.56297 5.81361 9.59813 5.7931 9.6333C5.78138 9.65381 5.77259 9.67432 5.75794 9.69483C5.7257 9.74464 5.70226 9.79739 5.6671 9.8472C5.65538 9.86478 5.64659 9.8853 5.63487 9.90581C5.60556 9.95562 5.57626 10.0084 5.54403 10.0582C5.53231 10.0787 5.52059 10.0992 5.50886 10.1197C5.48835 10.1578 5.46491 10.1959 5.4444 10.2311C5.43561 10.2486 5.42682 10.2633 5.4151 10.2809C5.39166 10.316 5.37407 10.3512 5.35356 10.3864C5.33305 10.4215 5.31254 10.4538 5.29496 10.486C5.27738 10.5212 5.25686 10.5534 5.23635 10.5886C5.21584 10.6237 5.19533 10.6589 5.17482 10.694C5.1631 10.7146 5.1543 10.7321 5.14258 10.7526C5.11035 10.8054 5.08398 10.8611 5.04882 10.9109C5.03416 10.9314 5.02537 10.9578 5.01365 10.9812C4.99314 11.0164 4.97263 11.0486 4.95212 11.0838C4.9404 11.1013 4.93161 11.1219 4.91989 11.1394C4.89644 11.1775 4.87886 11.2156 4.85249 11.2508C4.83784 11.2713 4.82905 11.2977 4.8144 11.3211C4.79388 11.3563 4.77337 11.3885 4.75286 11.4237C4.74114 11.4413 4.73235 11.4647 4.72063 11.4823C4.6884 11.5321 4.66202 11.5878 4.62686 11.6376C4.61221 11.6581 4.60342 11.6845 4.58877 11.7079C4.56826 11.7431 4.54481 11.7782 4.5243 11.8134C4.50672 11.8456 4.48621 11.8779 4.46863 11.9101C4.44812 11.9482 4.42467 11.9863 4.40123 12.0244C4.38072 12.0566 4.36314 12.0918 4.34556 12.1269C4.32505 12.1621 4.30453 12.1973 4.28109 12.2324C4.26937 12.25 4.26058 12.2705 4.24886 12.291C4.21956 12.3438 4.18732 12.3936 4.16095 12.4463C4.13751 12.4874 4.11114 12.5313 4.0877 12.5723C4.05839 12.6192 4.03495 12.672 4.00272 12.7159C3.991 12.7335 3.98221 12.754 3.97342 12.7716C3.94411 12.8243 3.91188 12.8741 3.88551 12.9269C3.86207 12.9679 3.83569 13.0119 3.81225 13.0529C3.78295 13.0998 3.75951 13.1525 3.72727 13.1965C3.71555 13.2141 3.70676 13.2346 3.69797 13.2522C3.66867 13.3049 3.63644 13.3547 3.61006 13.4075C3.58662 13.4485 3.56025 13.4924 3.53681 13.5335C3.50751 13.5803 3.48406 13.6331 3.45183 13.677C3.44011 13.6946 3.43425 13.7151 3.42253 13.7327C3.39616 13.7737 3.37565 13.8148 3.34927 13.8558C3.33462 13.8763 3.32583 13.9027 3.31118 13.9261C3.29067 13.9613 3.27016 13.9935 3.24964 14.0287C3.23792 14.0462 3.22913 14.0638 3.21741 14.0843C3.19397 14.1283 3.1676 14.1693 3.14416 14.2103C3.12657 14.2426 3.10899 14.2777 3.08848 14.31C3.05625 14.3627 3.02988 14.4184 2.99471 14.4682C2.98006 14.4887 2.97127 14.5151 2.95955 14.5385C2.93904 14.5737 2.91853 14.6059 2.89801 14.6411C2.88629 14.6587 2.8775 14.6763 2.86578 14.6968C2.84234 14.7407 2.8189 14.7817 2.79253 14.8228C2.77787 14.8433 2.76908 14.8696 2.75736 14.8931C2.73685 14.9283 2.71634 14.9605 2.69583 14.9956C2.68411 15.0162 2.67239 15.0367 2.66066 15.0601C2.64015 15.0982 2.61671 15.1363 2.59327 15.1744C2.57569 15.2066 2.55518 15.2389 2.53759 15.274C2.52294 15.3004 2.50829 15.3238 2.49364 15.3502C2.47606 15.3854 2.45555 15.4176 2.43504 15.4528C2.40866 15.4997 2.37936 15.5465 2.35299 15.5934C1.56768 15.5934 0.785306 15.5934 0 15.5934C0.023442 15.5553 0.0439537 15.5202 0.0673957 15.485C0.0791167 15.4674 0.0879074 15.4469 0.0966982 15.4293C0.126001 15.3766 0.158233 15.3268 0.184606 15.274C0.208048 15.2301 0.23149 15.1861 0.257862 15.1451C0.287164 15.0982 0.313536 15.0484 0.342839 15.0015C0.366281 14.9634 0.386793 14.9224 0.410235 14.8843C0.430746 14.8491 0.448328 14.814 0.47177 14.7817C0.483491 14.7642 0.489351 14.7436 0.501072 14.7261C0.527445 14.685 0.550887 14.644 0.574329 14.603C0.59484 14.5678 0.615352 14.5327 0.635864 14.4975C0.665166 14.4477 0.691538 14.3949 0.723771 14.3481C0.738422 14.3276 0.747213 14.3041 0.758934 14.2807C0.779446 14.2455 0.799958 14.2103 0.820469 14.1752C0.83219 14.1576 0.840981 14.1371 0.852702 14.1166C0.876144 14.0756 0.899586 14.0345 0.925958 13.9935C0.940609 13.973 0.9494 13.9466 0.961121 13.9232C0.981633 13.888 1.00214 13.8558 1.02266 13.8206C1.03438 13.803 1.04317 13.7796 1.05489 13.762C1.08126 13.7239 1.1047 13.68 1.12815 13.6389C1.14866 13.6038 1.16917 13.5715 1.18675 13.5364C1.21312 13.4866 1.24536 13.4368 1.27466 13.3869C1.28638 13.3664 1.2981 13.3459 1.30689 13.3254C1.33033 13.2844 1.35084 13.2463 1.37722 13.2082C1.38894 13.1906 1.3948 13.1701 1.40652 13.1525C1.43289 13.1115 1.4534 13.0705 1.47978 13.0295C1.49443 13.0089 1.50322 12.9826 1.51494 12.9591C1.53545 12.924 1.55596 12.8917 1.57647 12.8566C1.58819 12.839 1.59698 12.8185 1.60871 12.8009C1.63508 12.7599 1.65852 12.7159 1.68196 12.6749C1.70247 12.6397 1.72299 12.6016 1.7435 12.5665C1.7728 12.5167 1.79917 12.4668 1.82847 12.42C1.8402 12.4024 1.84899 12.3819 1.86071 12.3614C1.88122 12.3203 1.90759 12.2822 1.9281 12.2441C1.93982 12.2236 1.95154 12.2031 1.96327 12.1826C1.98378 12.1445 2.00722 12.1064 2.02773 12.0713C2.03945 12.0537 2.04824 12.0332 2.05703 12.0156C2.08341 11.9628 2.11564 11.913 2.14494 11.8603C2.17131 11.8134 2.19769 11.7665 2.22699 11.7196C2.2475 11.6874 2.26508 11.6522 2.28559 11.6229C2.30024 11.6024 2.30904 11.576 2.32369 11.5526C2.3442 11.5174 2.36764 11.4823 2.38815 11.4471C2.39987 11.4295 2.40866 11.409 2.41745 11.3914C2.44676 11.3387 2.47606 11.2889 2.50536 11.2361C2.53173 11.1893 2.55811 11.1424 2.58741 11.0955C2.60792 11.0633 2.6255 11.0281 2.64601 10.9988C2.66066 10.9783 2.66946 10.9519 2.68411 10.9285C2.70462 10.8933 2.72806 10.8581 2.74857 10.823C2.76029 10.8054 2.76908 10.7849 2.77787 10.7673C2.80132 10.7263 2.82183 10.6853 2.84527 10.6472C2.87457 10.6003 2.90094 10.5505 2.93025 10.5036C2.95076 10.4684 2.97127 10.4333 2.99178 10.3981C3.01522 10.36 3.03574 10.319 3.05918 10.2809C3.07969 10.2457 3.1002 10.2106 3.12071 10.1754C3.14123 10.1373 3.16174 10.0963 3.18811 10.0611C3.20862 10.0289 3.2262 9.99372 3.24378 9.95855C3.26723 9.91753 3.29067 9.87944 3.31411 9.83841C3.32583 9.82083 3.33462 9.80032 3.34634 9.78274C3.37271 9.74171 3.39616 9.69776 3.4196 9.65674C3.44011 9.62157 3.46062 9.58641 3.48113 9.55125C3.50165 9.51315 3.52509 9.47506 3.54853 9.43697C3.56904 9.40474 3.58662 9.36664 3.60713 9.33148C3.63058 9.29339 3.65402 9.25236 3.67746 9.21427C3.69797 9.17911 3.71555 9.14394 3.73607 9.10878C3.75951 9.06776 3.78588 9.02966 3.80639 8.98864C3.82397 8.95348 3.84742 8.92125 3.865 8.88315C3.88551 8.84213 3.91188 8.80403 3.93532 8.76301C3.9529 8.73078 3.97342 8.69855 3.991 8.66631C4.01151 8.62822 4.03202 8.5872 4.05839 8.55203C4.07011 8.53445 4.07597 8.51394 4.0877 8.49636C4.11114 8.45534 4.13458 8.41431 4.16095 8.37329C4.1756 8.35278 4.18439 8.3264 4.19611 8.30296C4.21663 8.2678 4.23714 8.23557 4.25765 8.2004C4.26937 8.18282 4.27816 8.16231 4.28988 8.1418C4.31625 8.10078 4.3397 8.05975 4.36314 8.01873C4.38365 7.98357 4.40416 7.95133 4.42174 7.91617C4.44812 7.86636 4.48035 7.81654 4.50965 7.76673C4.52137 7.74915 4.53016 7.72863 4.53895 7.71105C4.5624 7.67003 4.58877 7.62608 4.61221 7.58505C4.63272 7.54989 4.65323 7.5118 4.67375 7.47663C4.69719 7.43854 4.7177 7.40338 4.73821 7.36528C4.75872 7.33012 4.77923 7.29496 4.79975 7.25979C4.82905 7.20998 4.85542 7.15724 4.88765 7.11035C4.89937 7.09277 4.90523 7.07226 4.91696 7.05468C4.94333 7.01365 4.96384 6.97263 4.99021 6.93161C5.00486 6.91109 5.01365 6.88472 5.02537 6.86128C5.04589 6.82612 5.0664 6.79389 5.08691 6.75872C5.09863 6.74114 5.10742 6.72356 5.11914 6.70305C5.14258 6.65909 5.16896 6.621 5.1924 6.57705C5.21291 6.53895 5.23342 6.50379 5.25393 6.46863C5.28324 6.41881 5.30668 6.369 5.33891 6.32211C5.35063 6.30746 5.35649 6.28988 5.36528 6.2723C5.38872 6.22835 5.4151 6.18732 5.43854 6.14337C5.45905 6.10821 5.47956 6.07011 5.50007 6.03495C5.52352 5.99686 5.54403 5.96169 5.56454 5.9236C5.58505 5.88844 5.60556 5.85328 5.62608 5.81811C5.64366 5.78295 5.6671 5.75072 5.68468 5.71848C5.6964 5.7009 5.70519 5.68039 5.71398 5.66281C5.73742 5.62179 5.7638 5.57783 5.78724 5.53681C5.81068 5.49579 5.83412 5.45769 5.85463 5.41667C5.87222 5.38444 5.89273 5.34927 5.91324 5.31704C5.92496 5.29946 5.93375 5.27895 5.94547 5.26137C5.97184 5.22034 5.99529 5.17639 6.01873 5.13536C6.03924 5.1002 6.05975 5.06211 6.08026 5.02695C6.10957 4.97713 6.13301 4.92732 6.16817 4.88043C6.18282 4.85992 6.19161 4.83355 6.20626 4.81011C6.22678 4.77494 6.24729 4.74271 6.2678 4.70755C6.27952 4.68997 6.28831 4.67239 6.30003 4.65187C6.32347 4.60792 6.34985 4.56983 6.37329 4.52587C6.3938 4.48778 6.41431 4.45262 6.43482 4.41745C6.4612 4.36764 6.48757 4.31783 6.52273 4.27094C6.53445 4.25336 6.54031 4.23285 6.55203 4.21527C6.57548 4.17424 6.59892 4.13615 6.62236 4.09513C6.63408 4.07462 6.6458 4.0541 6.65752 4.03359C6.67803 3.9955 6.70148 3.95741 6.72199 3.92224C6.73371 3.90466 6.7425 3.88415 6.75129 3.86657C6.77473 3.82554 6.8011 3.78452 6.82455 3.7435C6.84506 3.70833 6.86557 3.67317 6.88608 3.63801C6.91538 3.58819 6.94176 3.53545 6.97399 3.48857C6.98571 3.47098 6.99157 3.45047 7.00329 3.43289C7.02966 3.39187 7.05018 3.35084 7.07655 3.30982C7.0912 3.28931 7.09999 3.26294 7.11171 3.23949C7.13222 3.20433 7.15273 3.1721 7.17325 3.13694C7.18497 3.11935 7.19376 3.09884 7.20548 3.08126C7.23185 3.04024 7.25529 2.99628 7.27873 2.95526C7.29925 2.91717 7.31976 2.882 7.34027 2.84684C7.36957 2.79703 7.39301 2.74721 7.42818 2.70033C7.4399 2.68275 7.44576 2.66224 7.45748 2.64465C7.48092 2.60363 7.50436 2.56554 7.52781 2.52451C7.53953 2.504 7.55125 2.48349 7.56297 2.46298C7.58348 2.42489 7.60692 2.38679 7.62743 2.35163C7.63623 2.33405 7.64502 2.3194 7.65674 2.30182C7.68018 2.26665 7.69776 2.23149 7.71827 2.19633C7.7505 2.13772 7.78274 2.08205 7.8179 2.0293C7.82376 2.02051 7.82962 2.01172 7.83548 2.00293C8.55046 2 9.23614 2 9.91889 2Z" fill="#485AFD"/>
</svg>
