<svg width="10" height="10" viewBox="0 0 10 10" fill="none" xmlns="http://www.w3.org/2000/svg">
<path d="M7.0328 0.833496C7.03829 0.848147 7.04013 0.86463 7.04562 0.879281C7.05111 0.893932 7.05478 0.910415 7.05844 0.925066C7.06393 0.948875 7.06943 0.974514 7.07675 0.998323C7.08408 1.02579 7.08957 1.05326 7.09873 1.08074C7.10423 1.09722 7.10789 1.11553 7.11338 1.13385C7.11888 1.15216 7.12254 1.17231 7.12803 1.19062C7.1317 1.20344 7.13536 1.21809 7.13902 1.23091C7.14452 1.24923 7.15001 1.26937 7.15367 1.28768C7.15917 1.31149 7.16649 1.33713 7.17199 1.36094C7.17748 1.37742 7.18298 1.39574 7.18481 1.41222C7.18664 1.42504 7.19396 1.43786 7.1958 1.45251C7.19946 1.46533 7.20129 1.47815 7.20495 1.49097C7.21045 1.50745 7.21411 1.52577 7.2196 1.54225C7.2251 1.56056 7.23059 1.58071 7.23425 1.59902C7.23792 1.61734 7.24524 1.63382 7.24891 1.65213C7.25623 1.67594 7.26173 1.70158 7.26722 1.72539C7.27271 1.7437 7.27821 1.76019 7.28187 1.7785C7.28737 1.80414 7.29652 1.82978 7.30202 1.85542C7.30568 1.8719 7.31117 1.89022 7.31667 1.9067C7.32399 1.92868 7.33132 1.95248 7.33498 1.97446C7.33865 1.99278 7.3478 2.01109 7.3478 2.03123C7.35879 2.05687 7.36062 2.08618 7.37344 2.11182C7.37527 2.14295 7.38809 2.17225 7.39542 2.20156C7.40091 2.22536 7.40824 2.24734 7.41556 2.27115C7.42106 2.29496 7.43022 2.31877 7.43388 2.34441C7.43754 2.36272 7.44487 2.3792 7.44853 2.39752C7.45586 2.42132 7.45952 2.44696 7.46684 2.47077C7.47234 2.48909 7.47783 2.50557 7.48149 2.52388C7.48516 2.54403 7.49065 2.56417 7.49798 2.58249C7.50713 2.60996 7.5108 2.63743 7.51995 2.6649C7.52545 2.67772 7.52728 2.69237 7.53094 2.70519C7.53644 2.72351 7.54193 2.74365 7.54559 2.76197C7.55109 2.78577 7.55841 2.80958 7.56574 2.83156C7.5694 2.84621 7.57307 2.85903 7.57856 2.87368C7.58405 2.89383 7.58955 2.91397 7.59504 2.93412C7.59687 2.93961 7.5987 2.94694 7.60237 2.95609C7.60054 2.95426 7.60054 2.95426 7.60237 2.95609H7.6042C8.0474 2.95609 8.4906 2.95609 8.93563 2.95609C8.9338 2.95976 8.93197 2.96342 8.93197 2.96525C8.92464 2.97807 8.91732 2.99089 8.90999 3.00188C8.88984 3.03484 8.87336 3.06964 8.85139 3.10078C8.84223 3.1136 8.83673 3.12825 8.82941 3.1429C8.81659 3.16487 8.80377 3.18685 8.78912 3.20883C8.78179 3.21982 8.7763 3.23264 8.76897 3.24546C8.75249 3.2711 8.73784 3.29674 8.72319 3.32238C8.71037 3.34435 8.69755 3.36633 8.68473 3.38831C8.67374 3.41028 8.66092 3.43043 8.6481 3.45057C8.64077 3.46156 8.63528 3.47255 8.62979 3.48537C8.6133 3.51834 8.59316 3.5513 8.57484 3.58243C8.55653 3.61174 8.54005 3.64287 8.52173 3.67217C8.50891 3.69415 8.49609 3.71796 8.48327 3.73994C8.46679 3.77107 8.45031 3.8022 8.42833 3.83151C8.41917 3.84433 8.41368 3.86081 8.40635 3.87546C8.39353 3.89744 8.38071 3.91758 8.3679 3.93956C8.36057 3.95055 8.35507 3.9652 8.34775 3.97619C8.3276 4.00732 8.31112 4.04212 8.28914 4.07325C8.27999 4.08607 8.27449 4.10255 8.26534 4.11721C8.25252 4.13918 8.23786 4.16116 8.22504 4.18314C8.21772 4.19412 8.21223 4.20694 8.20673 4.21793C8.19208 4.24357 8.1756 4.26921 8.16095 4.29485C8.14813 4.31683 8.13531 4.3388 8.12249 4.36078C8.10417 4.39192 8.08769 4.42488 8.06754 4.45418C8.05839 4.467 8.05289 4.48349 8.04557 4.49814C8.04007 4.50729 8.03275 4.51645 8.02725 4.52744C8.02359 4.53477 8.02176 4.54392 8.02359 4.54942C8.03275 4.56956 8.03458 4.59154 8.0419 4.61168C8.0474 4.62817 8.05106 4.64648 8.05656 4.6648C8.06388 4.68677 8.06938 4.71058 8.07487 4.73256C8.08036 4.75087 8.08586 4.76735 8.08952 4.78567C8.09318 4.80581 8.10051 4.82413 8.106 4.84427C8.10967 4.86442 8.11699 4.88273 8.12066 4.90105C8.12615 4.92119 8.13164 4.94134 8.13714 4.96148C8.14263 4.98163 8.14813 5.00177 8.15362 5.02192C8.15911 5.04206 8.16461 5.06404 8.1701 5.08419C8.1756 5.09884 8.17743 5.11166 8.18109 5.12631C8.18842 5.15012 8.19391 5.17393 8.20124 5.19773C8.2049 5.21055 8.20856 5.22337 8.21039 5.23619C8.21406 5.25084 8.21955 5.2655 8.22321 5.28015C8.22688 5.2948 8.23054 5.30945 8.2342 5.3241C8.2397 5.34241 8.24336 5.3589 8.24885 5.37721C8.25435 5.39553 8.25801 5.41567 8.2635 5.43399C8.26717 5.44681 8.27083 5.45962 8.27266 5.47244C8.27999 5.49625 8.28365 5.52189 8.29281 5.54387C8.29647 5.55669 8.30013 5.56951 8.30196 5.58233C8.30746 5.60614 8.31295 5.62995 8.32211 5.65375C8.32577 5.66657 8.3276 5.68122 8.33127 5.69404C8.33859 5.72152 8.34592 5.75082 8.35324 5.77829C8.35874 5.7966 8.36423 5.81492 8.36973 5.83323C8.37522 5.85155 8.37888 5.87169 8.38438 5.89001C8.38987 5.90832 8.39353 5.9248 8.39903 5.94312C8.40452 5.96143 8.40819 5.98158 8.41368 5.99989C8.41917 6.01271 8.42101 6.02553 8.42284 6.03835C8.42833 6.06216 8.43383 6.08597 8.44298 6.10977C8.44665 6.12259 8.44848 6.13724 8.45214 6.15006C8.45947 6.17754 8.46679 6.20684 8.47412 6.23431C8.47961 6.25262 8.4851 6.27094 8.4906 6.28925C8.49609 6.30757 8.49976 6.32771 8.50525 6.34602C8.51074 6.36434 8.51441 6.38082 8.5199 6.39914C8.5254 6.41745 8.52906 6.43759 8.53455 6.45591C8.53822 6.46873 8.54188 6.48155 8.54371 6.49437C8.5492 6.51818 8.5547 6.54382 8.56386 6.56579C8.56752 6.57861 8.57118 6.59143 8.57301 6.60425C8.57851 6.62623 8.58217 6.65004 8.58949 6.67202C8.59499 6.68667 8.59682 6.70132 8.60048 6.71597C8.60598 6.73428 8.61147 6.7526 8.61513 6.77091C8.6188 6.79106 8.62612 6.8112 8.63162 6.83135C8.63528 6.84783 8.64077 6.86431 8.64444 6.8808C8.65176 6.9046 8.65726 6.92841 8.66458 6.95039C8.67191 6.9742 8.6774 6.998 8.68473 7.02181C8.68839 7.03463 8.69205 7.04745 8.69388 7.06027C8.69938 7.08225 8.70487 7.10606 8.71037 7.12803C8.71586 7.14452 8.71769 7.15917 8.72319 7.17565C8.72868 7.19397 8.73234 7.21045 8.73784 7.22876C8.74333 7.2544 8.75066 7.27821 8.75798 7.30385C8.76348 7.324 8.76714 7.34597 8.77447 7.36612C8.77996 7.38077 8.78179 7.39359 8.78546 7.40824C8.79461 7.43754 8.80011 7.46868 8.81109 7.49798C8.81476 7.5108 8.81842 7.52362 8.82025 7.53644C8.82391 7.55109 8.82941 7.56574 8.83307 7.58039C8.83673 7.59504 8.8404 7.60969 8.84406 7.62435C8.84955 7.64266 8.85322 7.65914 8.85871 7.67746C8.86421 7.69577 8.86787 7.71592 8.87336 7.73423C8.87703 7.74705 8.88069 7.75987 8.88252 7.77269C8.88618 7.791 8.89534 7.80932 8.89534 7.82946C8.90266 7.83862 8.90083 7.85144 8.9045 7.8606C8.90999 7.87158 8.90999 7.88257 8.91365 7.89539C8.91732 7.90638 8.91548 7.91737 8.92464 7.92653C8.9283 7.95766 8.93929 7.98696 8.94662 8.01627C8.95394 8.04374 8.95944 8.07121 8.9686 8.09868C8.97409 8.1115 8.97592 8.12615 8.97958 8.13897C8.98508 8.15728 8.98874 8.1756 8.99424 8.19391C8.99973 8.21406 9.00339 8.2342 9.01072 8.25252C9.01987 8.27999 9.02354 8.30929 9.03453 8.33676C9.03819 8.34958 9.04002 8.3624 9.04368 8.37522C9.04918 8.39354 9.05467 8.41368 9.05833 8.432C9.06383 8.45763 9.07115 8.48144 9.07848 8.50708C9.08397 8.52723 9.08764 8.54921 9.09496 8.56935C9.10046 8.584 9.10229 8.59682 9.10595 8.61147C9.10961 8.62612 9.11694 8.64078 9.11877 8.65726C9.12243 8.67191 9.1261 8.68656 9.13159 8.70121C9.13525 8.71403 9.13892 8.72685 9.14075 8.73967C9.14441 8.75432 9.1499 8.76897 9.15357 8.78362C9.15723 8.79828 9.16089 8.81293 9.16456 8.82758C9.17005 8.84589 9.17371 8.86238 9.17921 8.88069C9.1847 8.899 9.18836 8.91915 9.19386 8.93746C9.19935 8.95028 9.20118 8.96493 9.20485 8.97775C9.21034 8.99607 9.214 9.01438 9.2195 9.0327C9.22682 9.05834 9.23232 9.08398 9.23964 9.10962C9.24514 9.12793 9.2488 9.14807 9.25613 9.16639C9.26162 9.18104 9.26528 9.19752 9.26895 9.21217C9.27444 9.23232 9.28177 9.25063 9.2836 9.27078C9.28543 9.28543 9.29459 9.30008 9.29459 9.31656C9.29459 9.31839 9.29825 9.32206 9.30008 9.32572C8.85871 9.32572 8.41734 9.32572 7.97781 9.32572C7.97414 9.31107 7.97048 9.29642 7.96682 9.28177C7.95949 9.25613 7.95217 9.23049 7.94667 9.20485C7.94118 9.18104 7.93202 9.15906 7.92653 9.13525C7.92286 9.11511 7.91737 9.0968 7.91187 9.07848C7.90455 9.05101 7.89906 9.02354 7.8899 8.99607C7.88624 8.98325 7.8844 8.97043 7.87891 8.95761C7.87342 8.93929 7.86975 8.91915 7.86426 8.899C7.85693 8.87336 7.84961 8.84772 7.84411 8.82208C7.83862 8.80194 7.83496 8.78179 7.82763 8.76165C7.82214 8.74517 7.8203 8.73051 7.81481 8.71403C7.80932 8.69572 7.80565 8.67923 7.80016 8.66092C7.79466 8.63528 7.78734 8.61147 7.78001 8.58583C7.77452 8.56569 7.77086 8.54371 7.76353 8.52357C7.75804 8.50891 7.75621 8.49609 7.75254 8.48144C7.74339 8.45214 7.73789 8.42101 7.7269 8.3917C7.72324 8.37888 7.71958 8.36606 7.71775 8.35324C7.71408 8.33859 7.70859 8.32394 7.70493 8.30929C7.70126 8.29464 7.6976 8.27999 7.69394 8.26534C7.68844 8.24702 7.68478 8.23054 7.67929 8.21223C7.67379 8.19391 7.67013 8.17377 7.66464 8.15545C7.66097 8.14263 7.65731 8.12981 7.65548 8.11699C7.65182 8.09868 7.64266 8.08037 7.64266 8.06022C7.63533 8.05106 7.63716 8.03824 7.6335 8.02909C7.62801 8.0181 7.62801 8.00711 7.62434 7.99429C7.62068 7.9833 7.62251 7.97231 7.61336 7.96316C7.60969 7.93202 7.5987 7.90272 7.59138 7.87342C7.58405 7.84595 7.57856 7.81847 7.5694 7.791C7.56391 7.77818 7.56208 7.76353 7.55841 7.75071C7.55292 7.7324 7.54926 7.71408 7.54376 7.69577C7.53827 7.67562 7.53461 7.65548 7.52728 7.63717C7.51812 7.60969 7.51446 7.58039 7.50347 7.55292C7.49981 7.5401 7.49798 7.52728 7.49431 7.51446C7.48882 7.49615 7.48333 7.476 7.47966 7.45769C7.47417 7.43205 7.46684 7.40824 7.45952 7.3826C7.45402 7.36245 7.45036 7.34048 7.44304 7.32033C7.43754 7.30568 7.43571 7.29286 7.43205 7.27821C7.42838 7.26356 7.42106 7.24891 7.41923 7.23243C7.41556 7.21777 7.41007 7.20312 7.40824 7.18847C7.40274 7.16466 7.39542 7.14085 7.38993 7.11521C7.38443 7.09324 7.37894 7.07126 7.37161 7.05112C7.36612 7.0328 7.36062 7.01449 7.35513 6.99617C7.34963 6.97786 7.34597 6.95955 7.34048 6.94123C7.33315 6.91559 7.32766 6.88995 7.32033 6.86431C7.31484 6.84417 7.30934 6.82219 7.30385 6.80204C7.29835 6.78373 7.29286 6.76542 7.28737 6.7471C7.28187 6.72879 7.27638 6.70864 7.27272 6.69033C7.26905 6.67385 7.26356 6.65553 7.25806 6.63905C7.25257 6.61524 7.24524 6.59143 7.23792 6.56763C7.23059 6.54382 7.22693 6.51818 7.2196 6.49437C7.21411 6.47239 7.20862 6.45042 7.20129 6.43027C7.1958 6.41196 7.1903 6.39364 7.18481 6.37533C7.18114 6.35518 7.17382 6.33687 7.16832 6.31855C7.161 6.29475 7.15734 6.26911 7.15001 6.2453C7.14452 6.22332 7.13902 6.20134 7.1317 6.1812C7.1262 6.16105 7.12071 6.14274 7.11521 6.12259C7.11338 6.11527 7.11155 6.10794 7.10789 6.09878C7.10606 6.10062 7.10239 6.10062 7.10239 6.10245C7.08957 6.12992 7.07492 6.15373 7.05844 6.17937C7.05111 6.19036 7.04562 6.20134 7.03829 6.21416C7.02364 6.24163 7.00716 6.26544 6.99251 6.29291C6.97969 6.31489 6.96687 6.33687 6.95405 6.35884C6.94306 6.38082 6.93024 6.4028 6.91742 6.42111C6.9101 6.4321 6.9046 6.44492 6.89911 6.45591C6.88263 6.48887 6.86065 6.52001 6.84417 6.55297C6.82951 6.58044 6.81303 6.60608 6.79838 6.63172C6.78556 6.65187 6.7764 6.67385 6.76175 6.69216C6.7526 6.70498 6.7471 6.72146 6.73794 6.73611C6.72512 6.75809 6.71047 6.78007 6.69765 6.80204C6.69033 6.81303 6.68483 6.82585 6.67934 6.83684C6.66469 6.86248 6.64821 6.88812 6.63355 6.91376C6.62074 6.93574 6.60792 6.95771 6.5951 6.97969C6.58411 7.00167 6.56946 7.02181 6.55847 7.04196C6.55114 7.05295 6.54565 7.06577 6.54015 7.07676C6.5255 7.1024 6.50902 7.12987 6.49437 7.15551C6.48155 7.17748 6.46873 7.20129 6.45591 7.22327C6.44126 7.24708 6.42844 7.26905 6.41562 7.29286C6.4028 7.31484 6.38998 7.33498 6.37899 7.35879C6.368 7.38077 6.35335 7.40091 6.34053 7.42289C6.3332 7.43388 6.32771 7.4467 6.32038 7.45769C6.30573 7.48333 6.28925 7.5108 6.2746 7.53644C6.25995 7.56025 6.24713 7.58589 6.23248 7.60969C6.22149 7.63167 6.20684 7.65182 6.19585 7.67196C6.18852 7.68295 6.18303 7.69577 6.1757 7.70676C6.15922 7.7324 6.14457 7.75987 6.12992 7.78551C6.1171 7.80749 6.10428 7.83129 6.09146 7.85327C6.07498 7.88441 6.05849 7.91554 6.03652 7.94484C6.02919 7.95583 6.02553 7.96865 6.0182 7.97964C6.00355 8.00528 5.9889 8.02909 5.97425 8.05473C5.96692 8.06755 5.9596 8.08037 5.95227 8.09318C5.93945 8.11699 5.9248 8.1408 5.91198 8.16278C5.90649 8.17377 5.90099 8.18292 5.89367 8.19391C5.87902 8.21589 5.86803 8.23787 5.85521 8.25984C5.84239 8.28182 5.82957 8.30197 5.81858 8.32211C5.81125 8.3331 5.80576 8.34592 5.80027 8.35691C5.78561 8.38255 5.76913 8.41002 5.75448 8.43566C5.74166 8.45763 5.72884 8.48144 5.71602 8.50342C5.70137 8.52723 5.68855 8.54921 5.67573 8.57301C5.66291 8.59499 5.65009 8.61697 5.63727 8.63894C5.61896 8.67008 5.60247 8.70304 5.58233 8.73235C5.575 8.74517 5.56768 8.75799 5.56035 8.7708C5.54753 8.79461 5.53288 8.81842 5.52006 8.8404C5.51274 8.85139 5.50724 8.86421 5.49992 8.87703C5.48526 8.90267 5.47061 8.92647 5.45596 8.95211C5.4468 8.96493 5.44131 8.98142 5.43398 8.99607C5.42116 9.01804 5.40651 9.04002 5.39369 9.062C5.38271 9.08214 5.36989 9.10229 5.3589 9.12427C5.34058 9.15723 5.32227 9.19203 5.30212 9.22316C5.2948 9.23232 5.29113 9.24331 5.28381 9.2543C5.27099 9.27444 5.26 9.29825 5.24718 9.32023C4.75637 9.32023 4.26738 9.32023 3.77656 9.32023C3.78206 9.30741 3.78755 9.29642 3.79488 9.28543C3.81319 9.25613 3.82784 9.22499 3.84616 9.19752C3.86447 9.16822 3.88095 9.13709 3.89927 9.10778C3.91392 9.08397 3.92674 9.05834 3.94139 9.03453C3.9597 9.00339 3.97619 8.97043 3.99633 8.94113C4.00366 8.93014 4.00915 8.91732 4.01465 8.90633C4.0293 8.88069 4.04212 8.85505 4.05677 8.83124C4.07691 8.79828 4.09523 8.76531 4.11537 8.73235C4.12819 8.71037 4.14101 8.68839 4.15383 8.66641C4.16848 8.64261 4.1813 8.61697 4.19596 8.59316C4.21061 8.56935 4.22343 8.54371 4.23808 8.5199C4.2509 8.49793 4.26189 8.47595 4.27654 8.4558C4.28386 8.44481 4.28936 8.43199 4.29485 8.42101C4.3095 8.39537 4.32415 8.37156 4.33697 8.34592C4.35346 8.31662 4.36994 8.28548 4.38825 8.25618C4.40657 8.22688 4.42122 8.19391 4.44136 8.16644C4.45052 8.15362 4.45601 8.13897 4.46334 8.12432C4.47799 8.09868 4.49264 8.07487 4.50729 8.04923C4.51462 8.03641 4.52195 8.02359 4.52744 8.01077C4.54209 7.98513 4.55491 7.96132 4.57139 7.93752C4.57872 7.92653 4.58421 7.91371 4.58971 7.90272C4.60436 7.87708 4.61718 7.85144 4.63183 7.82763C4.65014 7.79833 4.66479 7.76536 4.68494 7.73789C4.6941 7.72507 4.69959 7.71042 4.70692 7.69577C4.72157 7.67013 4.73622 7.64632 4.75087 7.62068C4.7582 7.60969 4.76369 7.59687 4.76918 7.58589C4.78384 7.56025 4.80032 7.53278 4.81497 7.50714C4.82962 7.4815 4.84427 7.45769 4.85709 7.43205C4.87174 7.40824 4.88273 7.3826 4.89921 7.36062C4.90837 7.3478 4.91387 7.33315 4.92119 7.3185C4.93401 7.29652 4.94683 7.27455 4.95965 7.25257C4.96698 7.24158 4.97247 7.22876 4.9798 7.21594C4.99811 7.18298 5.01826 7.15184 5.03474 7.11888C5.04939 7.09324 5.06587 7.06577 5.08052 7.04013C5.09334 7.01998 5.1025 6.998 5.11715 6.97969C5.12631 6.96687 5.1318 6.95222 5.13913 6.93757C5.15195 6.91559 5.16477 6.89362 5.17759 6.87164C5.18491 6.86065 5.19041 6.84966 5.19773 6.83684C5.21055 6.81303 5.22337 6.78923 5.23986 6.76725C5.24901 6.75443 5.25451 6.73795 5.26366 6.72329C5.27648 6.70132 5.29114 6.67934 5.30396 6.65736C5.31677 6.63722 5.32776 6.61524 5.33875 6.59326C5.35157 6.57129 5.36439 6.54931 5.37721 6.52733C5.38454 6.51451 5.39003 6.50169 5.39919 6.48887C5.4175 6.45774 5.43582 6.42478 5.45596 6.39364C5.46329 6.38265 5.46695 6.36983 5.47428 6.35884C5.49076 6.3332 5.50541 6.30757 5.52006 6.28193C5.53288 6.25995 5.5457 6.23797 5.55852 6.216C5.56951 6.19402 5.58233 6.17387 5.59515 6.15373C5.60247 6.14274 5.6098 6.12809 5.61713 6.11527C5.63544 6.08413 5.65192 6.05117 5.67207 6.02187C5.67939 6.01088 5.68489 5.99806 5.69038 5.98707C5.70503 5.96143 5.72152 5.93579 5.73617 5.91015C5.74899 5.88817 5.76181 5.8662 5.77463 5.84422C5.78561 5.82224 5.80027 5.8021 5.81125 5.78195C5.81858 5.76913 5.82591 5.75631 5.83323 5.74166C5.85154 5.71053 5.86803 5.67939 5.88634 5.65009C5.89367 5.6391 5.89916 5.62628 5.90649 5.61346C5.92114 5.58782 5.93579 5.56401 5.95044 5.53838C5.96326 5.5164 5.97425 5.49442 5.98707 5.47244C5.99989 5.45047 6.01271 5.43032 6.02553 5.40835C6.03285 5.39736 6.03835 5.38637 6.04567 5.37355C6.06399 5.34058 6.0823 5.30762 6.10428 5.27465C6.11344 5.26183 6.11893 5.24535 6.12626 5.2307C6.13908 5.20872 6.15373 5.18675 6.16655 5.16477C6.17754 5.14462 6.19035 5.12448 6.20134 5.10433C6.21416 5.08052 6.22698 5.05488 6.24347 5.03291C6.25079 5.02192 6.25629 5.0091 6.26178 4.99811C6.28009 4.96515 6.29841 4.93401 6.31672 4.90105C6.33137 4.87541 6.34602 4.84794 6.36251 4.8223C6.38265 4.79299 6.39547 4.76003 6.41745 4.73073C6.42477 4.72157 6.42844 4.70875 6.43393 4.69776C6.45225 4.6648 6.47239 4.63366 6.48887 4.6007C6.50352 4.57506 6.51818 4.54759 6.53466 4.52195C6.5603 4.48165 6.58044 4.43953 6.60608 4.40107C6.61707 4.38642 6.62257 4.36628 6.63172 4.35162C6.63722 4.3443 6.63722 4.33514 6.63539 4.32965C6.62257 4.30401 6.6244 4.27471 6.60975 4.24907C6.60791 4.21793 6.59326 4.18863 6.58777 4.1575C6.58411 4.13552 6.57495 4.11354 6.56946 4.09157C6.5603 4.05677 6.54931 4.02014 6.54015 3.98534C6.53466 3.96154 6.5255 3.93956 6.52001 3.91575C6.51451 3.89194 6.50719 3.86813 6.50169 3.84249C6.49803 3.82601 6.49254 3.8077 6.48887 3.79122C6.48338 3.76558 6.47605 3.73994 6.46873 3.7143C6.46323 3.69415 6.45957 3.67401 6.45225 3.65386C6.44675 3.63921 6.44492 3.62456 6.43943 3.60991C6.43393 3.59159 6.42844 3.57145 6.42477 3.55313C6.41928 3.52932 6.41195 3.50552 6.40646 3.48171C6.40097 3.46339 6.39547 3.44325 6.39181 3.42493C6.38632 3.40113 6.38082 3.37549 6.3735 3.35168C6.368 3.33336 6.36251 3.31688 6.35884 3.29857C6.35518 3.27842 6.34969 3.25828 6.34236 3.23996C6.3332 3.21249 6.32954 3.18502 6.32038 3.15755C6.31489 3.14473 6.31306 3.13008 6.3094 3.11726C6.3039 3.09894 6.29841 3.0788 6.29474 3.06048C6.28925 3.03668 6.28376 3.01104 6.27643 2.98723C6.26727 2.95976 6.26178 2.93229 6.25445 2.90481C6.25079 2.89016 6.2453 2.87734 6.24347 2.86269C6.2398 2.84255 6.23248 2.82423 6.22881 2.80592C6.22332 2.78211 6.21416 2.76013 6.2105 2.73816C6.20684 2.71984 6.20134 2.70336 6.19585 2.68505C6.19219 2.66307 6.18303 2.64109 6.17937 2.61728C6.17937 2.61362 6.1757 2.61179 6.17387 2.60813C6.16838 2.61728 6.16105 2.62644 6.15556 2.6356C6.13908 2.66856 6.11893 2.70153 6.09878 2.73266C6.07498 2.77112 6.05117 2.80958 6.02919 2.84804C6.00905 2.87918 5.99073 2.91214 5.97242 2.94511C5.95594 2.97441 5.93945 3.00371 5.92114 3.03301C5.90832 3.05316 5.89916 3.07514 5.88451 3.09345C5.87535 3.10627 5.86803 3.12458 5.8607 3.1374C5.84605 3.16121 5.83323 3.18685 5.81858 3.21066C5.80942 3.22348 5.80393 3.23996 5.7966 3.25461C5.78378 3.27659 5.76913 3.29857 5.75631 3.32054C5.74899 3.33153 5.74349 3.34435 5.738 3.35534C5.72335 3.38098 5.7087 3.40479 5.69588 3.43043C5.67939 3.45973 5.66291 3.49086 5.6446 3.52017C5.62628 3.54947 5.61163 3.5806 5.59149 3.60991C5.58233 3.62456 5.57683 3.64104 5.56768 3.65386C5.55303 3.67767 5.54021 3.70331 5.52556 3.72712C5.5164 3.73994 5.5109 3.75642 5.50358 3.77107C5.49076 3.79305 5.47611 3.81502 5.46329 3.837C5.45596 3.84799 5.45047 3.86081 5.44497 3.8718C5.43032 3.89744 5.4175 3.92308 5.40285 3.94688C5.38454 3.97619 5.36989 4.00915 5.34974 4.03662C5.34058 4.05127 5.33509 4.06776 5.32593 4.08058C5.31128 4.10439 5.29846 4.13003 5.28198 4.15383C5.27465 4.16482 5.26916 4.17581 5.26366 4.1868C5.24901 4.21244 5.23436 4.23991 5.21788 4.26555C5.20872 4.27837 5.20323 4.29302 5.1959 4.30767C5.18125 4.33331 5.1666 4.35712 5.15195 4.38276C5.14462 4.39375 5.13913 4.40657 5.13363 4.41756C5.11349 4.45418 5.09334 4.49081 5.07137 4.52561C5.06221 4.53843 5.05672 4.55308 5.04939 4.56773C5.03474 4.59337 5.02009 4.61718 5.00544 4.64282C4.99811 4.65381 4.99262 4.66663 4.98712 4.67762C4.97247 4.70325 4.95599 4.73073 4.94134 4.75637C4.92669 4.78201 4.91203 4.80581 4.89921 4.83145C4.88639 4.85526 4.87357 4.8809 4.85709 4.90288C4.84794 4.9157 4.84244 4.93035 4.83512 4.945C4.8223 4.96698 4.80948 4.98895 4.79482 5.01093C4.7875 5.02192 4.782 5.03474 4.77468 5.04756C4.75637 5.08052 4.73622 5.11166 4.71974 5.14462C4.70509 5.17026 4.6886 5.19773 4.67395 5.22337C4.66113 5.24352 4.65197 5.2655 4.63732 5.28381C4.62817 5.29663 4.62267 5.31128 4.61535 5.32593C4.60253 5.34791 4.58971 5.36989 4.57689 5.39186C4.56956 5.40285 4.56407 5.41384 4.55674 5.42666C4.54392 5.45047 4.5311 5.47428 4.51462 5.49625C4.50546 5.50907 4.49997 5.52372 4.49264 5.53838C4.47982 5.56035 4.467 5.58233 4.45418 5.60431C4.44686 5.61713 4.44136 5.62995 4.43221 5.64277C4.41206 5.6739 4.39741 5.70686 4.37543 5.738C4.36811 5.74899 4.36261 5.76181 4.35529 5.77463C4.33697 5.80576 4.31866 5.83873 4.29851 5.86986C4.29119 5.88268 4.28386 5.8955 4.27654 5.90832C4.26372 5.93213 4.24907 5.95594 4.23625 5.97791C4.23075 5.9889 4.22526 5.99806 4.21793 6.00905C4.20328 6.03102 4.19229 6.053 4.17947 6.07498C4.16665 6.09695 4.15383 6.1171 4.14284 6.13724C4.13186 6.15922 4.11904 6.17937 4.10622 6.20134C4.0934 6.22332 4.08058 6.2453 4.06776 6.26727C4.06043 6.28009 4.05494 6.29108 4.04761 6.3039C4.02747 6.33687 4.01098 6.37166 3.98901 6.4028C3.97985 6.41562 3.97436 6.4321 3.96703 6.44675C3.95421 6.46873 3.94139 6.48887 3.92857 6.51085C3.92124 6.52184 3.91575 6.53466 3.90842 6.54565C3.89377 6.56946 3.88278 6.59326 3.8663 6.61524C3.85715 6.62806 3.85165 6.64454 3.84249 6.6592C3.82967 6.68117 3.81685 6.70132 3.80403 6.72329C3.79671 6.73428 3.79121 6.74893 3.78389 6.75992C3.76374 6.79106 3.74726 6.82585 3.72528 6.85699C3.71613 6.86981 3.71063 6.88629 3.70148 6.90094C3.68866 6.92292 3.674 6.94489 3.66119 6.96687C3.6502 6.98702 3.63738 7.00716 3.62639 7.02731C3.61357 7.05112 3.59892 7.07492 3.58427 7.09873C3.57145 7.11888 3.56046 7.14085 3.54947 7.16283C3.53665 7.18481 3.52383 7.20679 3.50918 7.22876C3.50185 7.23975 3.49636 7.25257 3.48903 7.26539C3.47072 7.29836 3.45057 7.32949 3.43409 7.36245C3.41944 7.38809 3.40296 7.41557 3.38831 7.44121C3.36999 7.47051 3.35534 7.50347 3.33519 7.53094C3.32787 7.54193 3.32238 7.55475 3.31688 7.56574C3.29857 7.59871 3.27842 7.62984 3.26194 7.66281C3.24729 7.68844 3.2308 7.71592 3.21615 7.74156C3.19784 7.77086 3.18319 7.80382 3.16304 7.83129C3.15572 7.84228 3.15022 7.8551 3.14473 7.86609C3.12641 7.89906 3.10627 7.93019 3.08979 7.96316C3.07514 7.98879 3.05865 8.01627 3.044 8.04191C3.02569 8.07121 3.01104 8.10417 2.99089 8.13164C2.98357 8.14263 2.9799 8.15545 2.97258 8.16644C2.95609 8.19208 2.94327 8.21772 2.92679 8.24336C2.91763 8.25618 2.91214 8.27266 2.90298 8.28731C2.89016 8.30929 2.87734 8.32944 2.86452 8.35141C2.8572 8.3624 2.8517 8.37339 2.84438 8.38621C2.82973 8.41368 2.81324 8.43932 2.79859 8.46496C2.78761 8.48511 2.77662 8.50708 2.7638 8.52723C2.74365 8.56019 2.72717 8.59499 2.70519 8.62612C2.69603 8.63894 2.69054 8.65543 2.68321 8.67008C2.6704 8.69205 2.65758 8.7122 2.64476 8.73418C2.63743 8.74516 2.63194 8.75615 2.62461 8.76897C2.60996 8.79644 2.59531 8.82208 2.57882 8.84772C2.56967 8.86054 2.56417 8.87703 2.55685 8.89168C2.54403 8.91365 2.53121 8.9338 2.51839 8.95578C2.51106 8.9686 2.50374 8.98142 2.49641 8.99607C2.48359 9.01988 2.46894 9.04368 2.45429 9.06749C2.4433 9.08764 2.43048 9.10778 2.41949 9.12976C2.41034 9.14624 2.40118 9.16089 2.39202 9.17738C2.38103 9.19935 2.36821 9.2195 2.35539 9.24148C2.33891 9.27078 2.3206 9.30008 2.30411 9.32938C1.8133 9.32938 1.32431 9.32938 0.833496 9.32938C0.848147 9.30557 0.860967 9.2836 0.875618 9.26162C0.882944 9.25063 0.888438 9.23781 0.893932 9.22682C0.912246 9.19386 0.932392 9.16273 0.948875 9.12976C0.963526 9.10229 0.978177 9.07482 0.99466 9.04918C1.01297 9.01988 1.02946 8.98874 1.04777 8.95944C1.06242 8.93563 1.07524 8.90999 1.08989 8.88618C1.10271 8.86421 1.1137 8.84223 1.12835 8.82208C1.13568 8.8111 1.13934 8.79828 1.14667 8.78729C1.16315 8.76165 1.1778 8.73601 1.19245 8.71037C1.20527 8.68839 1.21809 8.66642 1.23091 8.64444C1.24922 8.6133 1.26571 8.58034 1.28585 8.55104C1.29501 8.53822 1.3005 8.52357 1.30783 8.50891C1.32065 8.48694 1.33347 8.46496 1.34629 8.44298C1.35362 8.43199 1.35911 8.41918 1.36643 8.40636C1.38109 8.38072 1.39574 8.35508 1.41222 8.32944C1.42138 8.31662 1.42687 8.30013 1.4342 8.28548C1.44702 8.26351 1.45984 8.24336 1.47266 8.22138C1.47998 8.21039 1.48548 8.19574 1.4928 8.18476C1.50928 8.16095 1.52394 8.13348 1.53859 8.10784C1.55141 8.08586 1.56423 8.06571 1.57522 8.04374C1.5917 8.0126 1.61184 7.98147 1.63016 7.95034C1.63748 7.93752 1.64481 7.9247 1.6503 7.91188C1.66495 7.88624 1.67777 7.86243 1.69426 7.83862C1.70158 7.82763 1.70524 7.81481 1.71257 7.80382C1.72905 7.77818 1.74187 7.75254 1.75836 7.7269C1.76751 7.71408 1.77301 7.6976 1.78033 7.68295C1.79315 7.66097 1.80597 7.64083 1.81879 7.61885C1.82612 7.60786 1.83161 7.59504 1.83894 7.58405C1.85542 7.55841 1.87007 7.53094 1.88472 7.5053C1.89754 7.48333 1.91036 7.45952 1.92318 7.43754C1.9415 7.40641 1.95798 7.37527 1.97629 7.34597C1.98362 7.33498 1.98911 7.32216 1.99644 7.30934C2.00926 7.2837 2.02574 7.2599 2.03856 7.23609C2.04589 7.22327 2.05321 7.21045 2.06054 7.19763C2.07336 7.17382 2.08801 7.15001 2.10083 7.12803C2.10815 7.11705 2.11365 7.10423 2.11914 7.09324C2.13562 7.06027 2.15577 7.02914 2.17408 6.99617C2.19057 6.96687 2.20705 6.93757 2.22536 6.90827C2.23818 6.88812 2.24917 6.86614 2.26199 6.84783C2.27115 6.83501 2.27664 6.81853 2.2858 6.80388C2.29862 6.7819 2.31327 6.75992 2.32609 6.73795C2.33342 6.72696 2.33891 6.71414 2.3444 6.70315C2.36272 6.67018 2.38103 6.63905 2.39935 6.60608C2.41583 6.57678 2.43231 6.54748 2.45063 6.51818C2.46345 6.49803 2.47443 6.47605 2.48725 6.45774C2.49641 6.44492 2.50191 6.42844 2.51106 6.41379C2.52388 6.39181 2.53853 6.36983 2.55135 6.34786C2.55868 6.33687 2.56417 6.32405 2.56967 6.31306C2.58432 6.28742 2.59714 6.26178 2.61179 6.23797C2.6301 6.20867 2.64659 6.17754 2.6649 6.14823C2.67772 6.12626 2.69054 6.10428 2.70336 6.0823C2.71801 6.05849 2.73083 6.03285 2.74548 6.00905C2.7583 5.98707 2.77112 5.96509 2.78394 5.94312C2.79676 5.91931 2.80958 5.89367 2.82606 5.87169C2.83888 5.85155 2.84987 5.82957 2.86086 5.80759C2.87551 5.78195 2.89016 5.75814 2.90481 5.7325C2.91214 5.72152 2.91763 5.7087 2.92496 5.69771C2.94144 5.67207 2.95609 5.6446 2.97075 5.61896C2.98357 5.59698 2.99639 5.575 3.0092 5.55303C3.02202 5.52922 3.03668 5.50541 3.05133 5.4816C3.06415 5.46146 3.07514 5.43765 3.08796 5.41567C3.10261 5.39186 3.11726 5.36622 3.13191 5.34241C3.14473 5.32044 3.15572 5.29846 3.16854 5.27648C3.18319 5.25084 3.19967 5.22704 3.21249 5.2014C3.22348 5.17942 3.23813 5.15927 3.24912 5.13547C3.26194 5.10983 3.27842 5.08602 3.29307 5.06038C3.30406 5.04023 3.31688 5.02009 3.32787 4.99994C3.34069 4.97613 3.35351 4.95049 3.36999 4.92852C3.37732 4.91753 3.38098 4.90471 3.38831 4.89372C3.40296 4.86808 3.41761 4.84244 3.43409 4.8168C3.44325 4.80398 3.44874 4.7875 3.45607 4.77285C3.46889 4.75087 3.48171 4.73073 3.49453 4.70875C3.50185 4.69776 3.50735 4.68494 3.51467 4.67212C3.53116 4.64648 3.54581 4.62084 3.56046 4.5952C3.57328 4.57323 3.5861 4.55308 3.59709 4.5311C3.61357 4.49997 3.63371 4.46883 3.65203 4.4377C3.65935 4.42671 3.66485 4.41389 3.67034 4.4029C3.68499 4.37726 3.70148 4.34979 3.71613 4.32415C3.72895 4.30218 3.74177 4.27837 3.75459 4.25639C3.76924 4.23258 3.78206 4.21061 3.79488 4.1868C3.8077 4.16482 3.82052 4.14284 3.83334 4.12087C3.85165 4.08973 3.86813 4.05677 3.88828 4.02747C3.8956 4.01648 3.89927 4.00366 3.90659 3.99267C3.92308 3.96703 3.9359 3.94139 3.95238 3.91575C3.96154 3.90293 3.96703 3.88645 3.97436 3.8718C3.98717 3.84982 3.99999 3.82967 4.01281 3.8077C4.02014 3.79671 4.02563 3.78572 4.03296 3.7729C4.04761 3.74543 4.06409 3.72162 4.07875 3.69415C4.09156 3.67034 4.10438 3.64837 4.1172 3.62639C4.13552 3.59525 4.15017 3.56412 4.17032 3.53482C4.17764 3.52566 4.1813 3.51467 4.1868 3.50368C4.20145 3.47621 4.21793 3.45057 4.23258 3.4231C4.2454 3.40113 4.25822 3.37732 4.27104 3.35534C4.28569 3.33153 4.29851 3.30956 4.31133 3.28575C4.32415 3.26377 4.33697 3.24179 4.34979 3.21982C4.36078 3.19784 4.37543 3.17769 4.38642 3.15755C4.39375 3.14656 4.39924 3.13374 4.40474 3.12275C4.41939 3.09711 4.43587 3.06964 4.45052 3.044C4.46517 3.01836 4.47982 2.99455 4.49264 2.96891C4.50363 2.94877 4.51645 2.92679 4.52927 2.90665C4.5366 2.89566 4.54209 2.88284 4.54942 2.87185C4.5659 2.84621 4.58055 2.81874 4.5952 2.7931C4.60802 2.77112 4.62084 2.74731 4.63366 2.72534C4.65197 2.6942 4.66663 2.66307 4.6886 2.63377C4.69776 2.62095 4.70325 2.60446 4.71241 2.58981C4.72523 2.56784 4.73805 2.54769 4.75087 2.52571C4.7582 2.51473 4.76369 2.50374 4.77102 2.49092C4.78567 2.46345 4.80215 2.43964 4.8168 2.41217C4.82962 2.38836 4.84244 2.36638 4.85526 2.34441C4.87174 2.31327 4.88823 2.28214 4.9102 2.25283C4.91753 2.24185 4.92119 2.22903 4.92852 2.21804C4.94317 2.1924 4.95782 2.16859 4.97247 2.14295C4.9798 2.13013 4.98712 2.11731 4.99445 2.10449C5.00727 2.08068 5.02192 2.05687 5.03474 2.0349C5.04206 2.02391 5.04756 2.01109 5.05305 2.0001C5.0677 1.97446 5.08419 1.94882 5.09884 1.92318C5.11166 1.90121 5.12448 1.87923 5.1373 1.85725C5.15561 1.82612 5.17209 1.79315 5.19224 1.76385C5.19956 1.75286 5.20323 1.74004 5.21055 1.72905C5.22704 1.70341 5.23986 1.67777 5.25634 1.65213C5.2655 1.63931 5.27099 1.62283 5.27832 1.60818C5.29114 1.5862 5.30396 1.56606 5.31677 1.54408C5.3241 1.53309 5.32959 1.52027 5.33692 1.50928C5.3534 1.48364 5.36805 1.45617 5.38271 1.43053C5.39553 1.40673 5.40834 1.38475 5.42116 1.36277C5.43948 1.33164 5.45413 1.3005 5.47611 1.2712C5.48343 1.26021 5.4871 1.24739 5.49442 1.23641C5.50907 1.21077 5.52372 1.18696 5.53837 1.16132C5.5457 1.1485 5.55303 1.13568 5.56035 1.12286C5.57317 1.09905 5.58782 1.07524 5.60064 1.05326C5.60614 1.04228 5.61163 1.03312 5.61896 1.02213C5.63361 1.00015 5.6446 0.978177 5.65742 0.9562C5.67756 0.919572 5.69771 0.884775 5.71968 0.85181C5.72335 0.846316 5.72701 0.840822 5.73067 0.835327C6.17754 0.833496 6.60608 0.833496 7.0328 0.833496Z" fill="white"/>
</svg>
