<svg width="143" height="29" viewBox="0 0 143 29" fill="none" xmlns="http://www.w3.org/2000/svg">
<g clip-path="url(#clip0)">
<mask id="mask0" mask-type="alpha" maskUnits="userSpaceOnUse" x="24" y="-1" width="24" height="25">
<path fill-rule="evenodd" clip-rule="evenodd" d="M37.0702 -0.00292969H47.3412L34.3131 23.1031H24L37.0702 -0.00292969Z" fill="white"/>
</mask>
<g mask="url(#mask0)">
<path fill-rule="evenodd" clip-rule="evenodd" d="M37.0702 -0.00292969H47.3412L34.3131 23.1031H24L37.0702 -0.00292969Z" fill="url(#paint0_linear)"/>
</g>
<path fill-rule="evenodd" clip-rule="evenodd" d="M62.053 23.106H65.5468V5.80853H62.053V23.106Z" fill="black"/>
<path fill-rule="evenodd" clip-rule="evenodd" d="M76.2386 18.3225V15.4823C75.523 14.4359 74.5548 14.0942 73.5656 14.0942C71.8608 14.0942 70.6821 15.2474 70.6821 17.0198C70.6821 18.3225 71.8608 19.7319 73.5656 19.7319C74.5548 19.7106 75.544 19.3689 76.2386 18.3225ZM79.7113 11.4462V23.1487C79.7113 26.779 76.9331 28.9999 73.5235 28.9999C70.2401 28.9999 67.7776 26.9285 67.5461 24.0029L71.0189 24.0242C71.1662 25.2628 72.2396 25.7967 73.6498 25.7967C74.9968 25.7967 76.2386 25.0706 76.2386 23.17V21.6752C75.3546 22.2518 74.218 22.5935 72.9552 22.5935C69.7771 22.5935 67.2515 19.9882 67.2515 16.9985C67.2515 13.5176 69.7982 11.1686 72.9552 11.1686C74.218 11.1686 75.3546 11.5103 76.2386 12.0868V11.4462H79.7113Z" fill="black"/>
<path fill-rule="evenodd" clip-rule="evenodd" d="M90.214 17.1266C90.214 15.4396 89.1196 14.0515 87.4148 14.0515C85.6889 14.0515 84.5945 15.4183 84.5945 17.1266C84.5945 18.8777 85.6889 20.159 87.4148 20.159C89.1196 20.1804 90.214 18.8777 90.214 17.1266ZM93.5815 17.1266C93.5815 20.7356 90.9507 23.2982 87.4358 23.2982C83.8789 23.2982 81.269 20.7356 81.269 17.1266C81.269 13.5604 83.8999 10.9337 87.4358 10.9337C90.9507 10.9337 93.5815 13.5604 93.5815 17.1266Z" fill="black"/>
<path fill-rule="evenodd" clip-rule="evenodd" d="M111.745 19.0699V15.5036C111.029 14.4572 110.019 14.1796 109.03 14.1796C107.283 14.1796 106.083 15.5891 106.083 17.2975C106.083 18.9631 107.283 20.3939 109.03 20.3939C110.019 20.3939 111.008 20.1163 111.745 19.0699ZM115.155 11.4676V23.0846L111.745 23.106V22.444C110.861 23.0206 109.724 23.3836 108.462 23.3836C105.283 23.3836 102.758 20.6502 102.758 17.2975C102.758 13.902 105.305 11.1899 108.462 11.1899C109.724 11.1899 110.861 11.553 111.745 12.1296V11.4676H115.155Z" fill="black"/>
<path fill-rule="evenodd" clip-rule="evenodd" d="M129.172 16.7849V23.0846H125.826V17.1907C125.826 15.2901 124.9 14.2864 123.237 14.2864C122.374 14.2864 121.406 14.7989 120.606 15.7813V23.106H117.175V11.4889H120.606V12.3645C121.532 11.617 122.626 11.1899 123.91 11.1899C126.941 11.1899 129.172 13.3895 129.172 16.7849Z" fill="black"/>
<path fill-rule="evenodd" clip-rule="evenodd" d="M60.4746 23.0847H56.9387L54.6236 14.3932L49.6775 23.0847H45.7207L53.3818 9.63105L52.14 4.97568L41.827 23.106H37.8701L50.9403 0.10675H54.4131L55.9285 5.82987H59.5065L57.065 10.1222L60.4746 23.0847Z" fill="black"/>
<path fill-rule="evenodd" clip-rule="evenodd" d="M139.527 19.0913V15.5037C138.791 14.4573 137.802 14.1797 136.791 14.1797C135.044 14.1797 133.824 15.6104 133.824 17.2975C133.824 19.0059 135.044 20.4367 136.791 20.4367C137.78 20.4153 138.791 20.1377 139.527 19.0913ZM143 5.80853V23.106H139.527V22.444C138.643 23.0206 137.507 23.3836 136.244 23.3836C133.066 23.3836 130.54 20.6502 130.54 17.2761C130.54 13.9234 133.087 11.19 136.244 11.19C137.507 11.19 138.643 11.553 139.527 12.1296V5.80853H143Z" fill="black"/>
<path fill-rule="evenodd" clip-rule="evenodd" d="M102.105 14.4146C101.348 14.5 99.5797 14.6068 98.5274 16.0589V23.106H95.0967V11.4889H98.5274V12.3645C99.3061 11.6811 100.485 11.2754 102.105 11.4462" fill="black"/>
</g>
<path d="M9 5.5C4.86 5.5 1.5 8.86 1.5 13C1.5 17.14 4.86 20.5 9 20.5C13.14 20.5 16.5 17.14 16.5 13C16.5 8.86 13.14 5.5 9 5.5ZM7.5 16.75L3.75 13L4.8075 11.9425L7.5 14.6275L13.1925 8.935L14.25 10L7.5 16.75Z" fill="#3EB595"/>
<defs>
<linearGradient id="paint0_linear" x1="23.9994" y1="11.5497" x2="47.3448" y2="11.5497" gradientUnits="userSpaceOnUse">
<stop stop-color="#E8672B"/>
<stop offset="1" stop-color="#9E2484"/>
</linearGradient>
<clipPath id="clip0">
<rect width="119" height="29" fill="white" transform="translate(24)"/>
</clipPath>
</defs>
</svg>
