<svg width="30" height="30" viewBox="0 0 30 30" fill="none" xmlns="http://www.w3.org/2000/svg">
<path d="M23.3088 16.484L24.0353 15.7575L24.7423 16.4645L24.0158 17.191C24.7337 18.0896 25.0802 19.2289 24.9843 20.3751C24.8884 21.5212 24.3573 22.5871 23.5 23.3539C22.6428 24.1206 21.5245 24.53 20.3748 24.498C19.2251 24.466 18.1313 23.995 17.318 23.1818C16.5048 22.3685 16.0337 21.2747 16.0017 20.125C15.9697 18.9753 16.3792 17.857 17.1459 16.9998C17.9127 16.1425 18.9786 15.6114 20.1247 15.5155C21.2708 15.4195 22.4102 15.7661 23.3088 16.484ZM19.9998 17.5V20.5H20.9998V17.5H19.9998ZM18.4998 14H22.4998V15H18.4998V14Z" fill="#485AFD"/>
<g clip-path="url(#clip0_87_4559)">
<path d="M11.2524 4.33331C11.2612 4.35675 11.2641 4.38313 11.2729 4.40657C11.2817 4.43001 11.2875 4.45638 11.2934 4.47983C11.3022 4.51792 11.311 4.55894 11.3227 4.59704C11.3344 4.64099 11.3432 4.68494 11.3579 4.7289C11.3667 4.75527 11.3725 4.78457 11.3813 4.81387C11.3901 4.84318 11.396 4.87541 11.4048 4.90471C11.4106 4.92522 11.4165 4.94866 11.4223 4.96918C11.4311 4.99848 11.4399 5.03071 11.4458 5.06001C11.4546 5.09811 11.4663 5.13913 11.4751 5.17722C11.4839 5.2036 11.4927 5.2329 11.4956 5.25927C11.4985 5.27978 11.5102 5.30029 11.5132 5.32374C11.519 5.34425 11.522 5.36476 11.5278 5.38527C11.5366 5.41164 11.5425 5.44095 11.5513 5.46732C11.5601 5.49662 11.5688 5.52885 11.5747 5.55816C11.5806 5.58746 11.5923 5.61383 11.5982 5.64313C11.6099 5.68123 11.6187 5.72225 11.6275 5.76034C11.6362 5.78965 11.645 5.81602 11.6509 5.84532C11.6597 5.88634 11.6743 5.92737 11.6831 5.96839C11.689 5.99476 11.6978 6.02407 11.7066 6.05044C11.7183 6.0856 11.73 6.12369 11.7359 6.15886C11.7417 6.18816 11.7564 6.21746 11.7564 6.24969C11.774 6.29072 11.7769 6.3376 11.7974 6.37863C11.8003 6.42844 11.8209 6.47532 11.8326 6.52221C11.8414 6.5603 11.8531 6.59546 11.8648 6.63356C11.8736 6.67165 11.8882 6.70974 11.8941 6.75077C11.9 6.78007 11.9117 6.80644 11.9176 6.83574C11.9293 6.87384 11.9351 6.91486 11.9469 6.95295C11.9556 6.98226 11.9644 7.00863 11.9703 7.03793C11.9762 7.07016 11.9849 7.1024 11.9967 7.1317C12.0113 7.17565 12.0172 7.21961 12.0318 7.26356C12.0406 7.28407 12.0436 7.30751 12.0494 7.32803C12.0582 7.35733 12.067 7.38956 12.0729 7.41886C12.0816 7.45696 12.0934 7.49505 12.1051 7.53021C12.1109 7.55365 12.1168 7.57417 12.1256 7.59761C12.1344 7.62984 12.1432 7.66207 12.152 7.69431C12.1549 7.7031 12.1578 7.71482 12.1637 7.72947C12.1608 7.72654 12.1608 7.72654 12.1637 7.72947H12.1666C12.8757 7.72947 13.5849 7.72947 14.2969 7.72947C14.294 7.73533 14.291 7.74119 14.291 7.74412C14.2793 7.76463 14.2676 7.78514 14.2559 7.80273C14.2237 7.85547 14.1973 7.91115 14.1621 7.96096C14.1475 7.98147 14.1387 8.00491 14.127 8.02835C14.1064 8.06352 14.0859 8.09868 14.0625 8.13384C14.0508 8.15143 14.042 8.17194 14.0303 8.19245C14.0039 8.23347 13.9804 8.2745 13.957 8.31552C13.9365 8.35068 13.916 8.38585 13.8955 8.42101C13.8779 8.45617 13.8574 8.4884 13.8369 8.52064C13.8251 8.53822 13.8163 8.5558 13.8076 8.57631C13.7812 8.62906 13.749 8.6818 13.7197 8.73161C13.6903 8.7785 13.664 8.82831 13.6347 8.8752C13.6142 8.91036 13.5937 8.94845 13.5731 8.98362C13.5468 9.03343 13.5204 9.08324 13.4852 9.13013C13.4706 9.15064 13.4618 9.17701 13.4501 9.20045C13.4296 9.23562 13.409 9.26785 13.3885 9.30301C13.3768 9.32059 13.368 9.34404 13.3563 9.36162C13.3241 9.41143 13.2977 9.46711 13.2625 9.51692C13.2479 9.53743 13.2391 9.5638 13.2244 9.58725C13.2039 9.62241 13.1805 9.65757 13.16 9.69274C13.1483 9.71032 13.1395 9.73083 13.1307 9.74841C13.1072 9.78943 13.0809 9.83046 13.0574 9.87148C13.0369 9.90664 13.0164 9.94181 12.9959 9.97697C12.9666 10.0268 12.9402 10.0795 12.908 10.1264C12.8933 10.1469 12.8845 10.1733 12.8728 10.1967C12.864 10.2114 12.8523 10.226 12.8435 10.2436C12.8376 10.2553 12.8347 10.27 12.8376 10.2788C12.8523 10.311 12.8552 10.3462 12.8669 10.3784C12.8757 10.4048 12.8816 10.4341 12.8904 10.4634C12.9021 10.4986 12.9109 10.5366 12.9197 10.5718C12.9285 10.6011 12.9373 10.6275 12.9431 10.6568C12.949 10.689 12.9607 10.7183 12.9695 10.7506C12.9754 10.7828 12.9871 10.8121 12.993 10.8414C13.0017 10.8736 13.0105 10.9059 13.0193 10.9381C13.0281 10.9703 13.0369 11.0026 13.0457 11.0348C13.0545 11.067 13.0633 11.1022 13.0721 11.1344C13.0809 11.1579 13.0838 11.1784 13.0896 11.2018C13.1014 11.2399 13.1102 11.278 13.1219 11.3161C13.1277 11.3366 13.1336 11.3571 13.1365 11.3776C13.1424 11.4011 13.1512 11.4245 13.157 11.448C13.1629 11.4714 13.1688 11.4948 13.1746 11.5183C13.1834 11.5476 13.1893 11.574 13.1981 11.6033C13.2069 11.6326 13.2127 11.6648 13.2215 11.6941C13.2274 11.7146 13.2332 11.7351 13.2362 11.7556C13.2479 11.7937 13.2537 11.8347 13.2684 11.8699C13.2743 11.8904 13.2801 11.9109 13.283 11.9314C13.2918 11.9695 13.3006 12.0076 13.3153 12.0457C13.3211 12.0662 13.3241 12.0897 13.3299 12.1102C13.3417 12.1541 13.3534 12.201 13.3651 12.245C13.3739 12.2743 13.3827 12.3036 13.3915 12.3329C13.4003 12.3622 13.4061 12.3944 13.4149 12.4237C13.4237 12.453 13.4296 12.4794 13.4383 12.5087C13.4471 12.538 13.453 12.5702 13.4618 12.5995C13.4706 12.6201 13.4735 12.6406 13.4764 12.6611C13.4852 12.6992 13.494 12.7373 13.5087 12.7754C13.5145 12.7959 13.5175 12.8193 13.5233 12.8398C13.535 12.8838 13.5468 12.9307 13.5585 12.9746C13.5673 13.0039 13.5761 13.0332 13.5849 13.0625C13.5937 13.0918 13.5995 13.1241 13.6083 13.1534C13.6171 13.1827 13.623 13.209 13.6317 13.2383C13.6405 13.2676 13.6464 13.2999 13.6552 13.3292C13.661 13.3497 13.6669 13.3702 13.6698 13.3907C13.6786 13.4288 13.6874 13.4698 13.7021 13.505C13.7079 13.5255 13.7138 13.546 13.7167 13.5665C13.7255 13.6017 13.7314 13.6398 13.7431 13.6749C13.7519 13.6984 13.7548 13.7218 13.7607 13.7453C13.7695 13.7746 13.7783 13.8039 13.7841 13.8332C13.79 13.8654 13.8017 13.8976 13.8105 13.9299C13.8163 13.9562 13.8251 13.9826 13.831 14.009C13.8427 14.0471 13.8515 14.0852 13.8632 14.1203C13.875 14.1584 13.8837 14.1965 13.8955 14.2346C13.9013 14.2551 13.9072 14.2756 13.9101 14.2962C13.9189 14.3313 13.9277 14.3694 13.9365 14.4046C13.9453 14.4309 13.9482 14.4544 13.957 14.4808C13.9658 14.5101 13.9717 14.5364 13.9804 14.5657C13.9892 14.6068 14.001 14.6449 14.0127 14.6859C14.0215 14.7181 14.0273 14.7533 14.039 14.7855C14.0478 14.8089 14.0508 14.8295 14.0566 14.8529C14.0713 14.8998 14.0801 14.9496 14.0977 14.9965C14.1035 15.017 14.1094 15.0375 14.1123 15.058C14.1182 15.0815 14.127 15.1049 14.1328 15.1283C14.1387 15.1518 14.1445 15.1752 14.1504 15.1987C14.1592 15.228 14.165 15.2543 14.1738 15.2836C14.1826 15.313 14.1885 15.3452 14.1973 15.3745C14.2031 15.395 14.209 15.4155 14.2119 15.436C14.2178 15.4653 14.2324 15.4946 14.2324 15.5269C14.2442 15.5415 14.2412 15.562 14.2471 15.5767C14.2559 15.5943 14.2559 15.6118 14.2617 15.6323C14.2676 15.6499 14.2647 15.6675 14.2793 15.6822C14.2852 15.732 14.3028 15.7789 14.3145 15.8257C14.3262 15.8697 14.335 15.9137 14.3497 15.9576C14.3584 15.9781 14.3614 16.0016 14.3672 16.0221C14.376 16.0514 14.3819 16.0807 14.3907 16.11C14.3995 16.1422 14.4053 16.1744 14.4171 16.2037C14.4317 16.2477 14.4376 16.2946 14.4551 16.3385C14.461 16.359 14.4639 16.3796 14.4698 16.4001C14.4786 16.4294 14.4874 16.4616 14.4932 16.4909C14.502 16.5319 14.5137 16.57 14.5255 16.6111C14.5343 16.6433 14.5401 16.6784 14.5518 16.7107C14.5606 16.7341 14.5636 16.7546 14.5694 16.7781C14.5753 16.8015 14.587 16.825 14.5899 16.8513C14.5958 16.8748 14.6017 16.8982 14.6104 16.9217C14.6163 16.9422 14.6222 16.9627 14.6251 16.9832C14.631 17.0066 14.6397 17.0301 14.6456 17.0535C14.6515 17.077 14.6573 17.1004 14.6632 17.1238C14.672 17.1531 14.6778 17.1795 14.6866 17.2088C14.6954 17.2381 14.7013 17.2704 14.7101 17.2997C14.7189 17.3202 14.7218 17.3436 14.7277 17.3641C14.7364 17.3934 14.7423 17.4227 14.7511 17.452C14.7628 17.4931 14.7716 17.5341 14.7833 17.5751C14.7921 17.6044 14.798 17.6366 14.8097 17.6659C14.8185 17.6894 14.8244 17.7158 14.8302 17.7392C14.839 17.7714 14.8507 17.8007 14.8537 17.833C14.8566 17.8564 14.8712 17.8798 14.8712 17.9062C14.8712 17.9091 14.8771 17.915 14.88 17.9209C14.1738 17.9209 13.4677 17.9209 12.7644 17.9209C12.7585 17.8974 12.7527 17.874 12.7468 17.8505C12.7351 17.8095 12.7234 17.7685 12.7146 17.7275C12.7058 17.6894 12.6911 17.6542 12.6823 17.6161C12.6765 17.5839 12.6677 17.5546 12.6589 17.5253C12.6472 17.4813 12.6384 17.4374 12.6237 17.3934C12.6179 17.3729 12.6149 17.3524 12.6062 17.3319C12.5974 17.3026 12.5915 17.2704 12.5827 17.2381C12.571 17.1971 12.5593 17.1561 12.5505 17.1151C12.5417 17.0828 12.5358 17.0506 12.5241 17.0184C12.5153 16.992 12.5124 16.9685 12.5036 16.9422C12.4948 16.9129 12.4889 16.8865 12.4802 16.8572C12.4714 16.8162 12.4596 16.7781 12.4479 16.7371C12.4391 16.7048 12.4333 16.6697 12.4216 16.6374C12.4128 16.614 12.4098 16.5935 12.404 16.57C12.3893 16.5231 12.3805 16.4733 12.3629 16.4264C12.3571 16.4059 12.3512 16.3854 12.3483 16.3649C12.3424 16.3415 12.3336 16.318 12.3278 16.2946C12.3219 16.2711 12.3161 16.2477 12.3102 16.2243C12.3014 16.195 12.2956 16.1686 12.2868 16.1393C12.278 16.11 12.2721 16.0777 12.2633 16.0484C12.2575 16.0279 12.2516 16.0074 12.2487 15.9869C12.2428 15.9576 12.2282 15.9283 12.2282 15.8961C12.2164 15.8814 12.2194 15.8609 12.2135 15.8463C12.2047 15.8287 12.2047 15.8111 12.1989 15.7906C12.193 15.773 12.1959 15.7554 12.1813 15.7408C12.1754 15.691 12.1578 15.6441 12.1461 15.5972C12.1344 15.5532 12.1256 15.5093 12.1109 15.4653C12.1022 15.4448 12.0992 15.4214 12.0934 15.4009C12.0846 15.3716 12.0787 15.3423 12.0699 15.313C12.0611 15.2807 12.0553 15.2485 12.0436 15.2192C12.0289 15.1752 12.023 15.1283 12.0055 15.0844C11.9996 15.0639 11.9967 15.0434 11.9908 15.0229C11.982 14.9936 11.9732 14.9613 11.9674 14.932C11.9586 14.891 11.9469 14.8529 11.9351 14.8119C11.9263 14.7796 11.9205 14.7445 11.9088 14.7122C11.9 14.6888 11.897 14.6683 11.8912 14.6449C11.8853 14.6214 11.8736 14.598 11.8707 14.5716C11.8648 14.5482 11.856 14.5247 11.8531 14.5013C11.8443 14.4632 11.8326 14.4251 11.8238 14.3841C11.815 14.3489 11.8062 14.3137 11.7945 14.2815C11.7857 14.2522 11.7769 14.2229 11.7681 14.1936C11.7593 14.1643 11.7535 14.135 11.7447 14.1057C11.7329 14.0647 11.7242 14.0236 11.7124 13.9826C11.7036 13.9504 11.6949 13.9152 11.6861 13.883C11.6773 13.8537 11.6685 13.8244 11.6597 13.7951C11.6509 13.7658 11.6421 13.7335 11.6362 13.7042C11.6304 13.6779 11.6216 13.6486 11.6128 13.6222C11.604 13.5841 11.5923 13.546 11.5806 13.5079C11.5688 13.4698 11.563 13.4288 11.5513 13.3907C11.5425 13.3555 11.5337 13.3204 11.522 13.2881C11.5132 13.2588 11.5044 13.2295 11.4956 13.2002C11.4897 13.168 11.478 13.1387 11.4692 13.1094C11.4575 13.0713 11.4516 13.0303 11.4399 12.9922C11.4311 12.957 11.4223 12.9219 11.4106 12.8896C11.4018 12.8574 11.393 12.8281 11.3842 12.7959C11.3813 12.7841 11.3784 12.7724 11.3725 12.7578C11.3696 12.7607 11.3637 12.7607 11.3637 12.7636C11.3432 12.8076 11.3198 12.8457 11.2934 12.8867C11.2817 12.9043 11.2729 12.9219 11.2612 12.9424C11.2377 12.9863 11.2114 13.0244 11.1879 13.0684C11.1674 13.1035 11.1469 13.1387 11.1264 13.1739C11.1088 13.209 11.0883 13.2442 11.0678 13.2735C11.0561 13.2911 11.0473 13.3116 11.0385 13.3292C11.0121 13.3819 10.9769 13.4317 10.9506 13.4845C10.9271 13.5284 10.9008 13.5695 10.8773 13.6105C10.8568 13.6427 10.8421 13.6779 10.8187 13.7072C10.8041 13.7277 10.7953 13.7541 10.7806 13.7775C10.7601 13.8127 10.7367 13.8478 10.7161 13.883C10.7044 13.9006 10.6956 13.9211 10.6868 13.9387C10.6634 13.9797 10.637 14.0207 10.6136 14.0617C10.5931 14.0969 10.5726 14.1321 10.5521 14.1672C10.5345 14.2024 10.511 14.2346 10.4935 14.2669C10.4817 14.2844 10.4729 14.3049 10.4641 14.3225C10.4407 14.3636 10.4143 14.4075 10.3909 14.4485C10.3704 14.4837 10.3499 14.5218 10.3294 14.5569C10.3059 14.595 10.2854 14.6302 10.2649 14.6683C10.2444 14.7035 10.2239 14.7357 10.2063 14.7738C10.1887 14.8089 10.1653 14.8412 10.1448 14.8763C10.133 14.8939 10.1242 14.9144 10.1125 14.932C10.0891 14.973 10.0627 15.017 10.0393 15.058C10.0158 15.0961 9.99531 15.1371 9.97187 15.1752C9.95428 15.2104 9.93084 15.2426 9.91326 15.2749C9.90154 15.2924 9.89275 15.313 9.88103 15.3305C9.85466 15.3716 9.83121 15.4155 9.80777 15.4565C9.78726 15.4917 9.76675 15.5298 9.74624 15.565C9.71986 15.6148 9.69349 15.6646 9.65833 15.7115C9.64661 15.729 9.64075 15.7496 9.62903 15.7671C9.60558 15.8082 9.58214 15.8463 9.5587 15.8873C9.54698 15.9078 9.53526 15.9283 9.52354 15.9488C9.50303 15.9869 9.47958 16.025 9.45907 16.0602C9.45028 16.0777 9.44149 16.0924 9.42977 16.11C9.40633 16.1451 9.38875 16.1803 9.36823 16.2155C9.34772 16.2506 9.32721 16.2829 9.30963 16.3151C9.29791 16.3327 9.28912 16.3532 9.28033 16.3708C9.25689 16.4118 9.23051 16.4557 9.20707 16.4968C9.18656 16.5319 9.16605 16.57 9.14554 16.6052C9.12209 16.6433 9.10158 16.6784 9.08107 16.7165C9.06056 16.7517 9.04005 16.7869 9.01954 16.822C8.99023 16.8718 8.96386 16.9246 8.93163 16.9715C8.91991 16.992 8.90819 17.0125 8.89646 17.033C8.87595 17.0711 8.85251 17.1092 8.832 17.1444C8.82028 17.1619 8.81149 17.1824 8.79977 17.203C8.77632 17.244 8.75288 17.2821 8.72944 17.3231C8.71479 17.3436 8.706 17.37 8.69428 17.3934C8.67377 17.4286 8.65032 17.4638 8.62981 17.4989C8.61223 17.5311 8.59172 17.5634 8.57414 17.5985C8.54484 17.6513 8.51553 17.707 8.4833 17.7568C8.47158 17.7714 8.46572 17.789 8.454 17.8066C8.43349 17.8388 8.4159 17.8769 8.39539 17.9121C7.61009 17.9121 6.82771 17.9121 6.0424 17.9121C6.05119 17.8916 6.05999 17.874 6.07171 17.8564C6.10101 17.8095 6.12445 17.7597 6.15375 17.7158C6.18306 17.6689 6.20943 17.6191 6.23873 17.5722C6.26217 17.5341 6.28268 17.4931 6.30613 17.455C6.33543 17.4051 6.3618 17.3524 6.39403 17.3055C6.40575 17.2879 6.41455 17.2674 6.42334 17.2498C6.44678 17.2088 6.46729 17.1678 6.49073 17.1297C6.52296 17.077 6.55227 17.0242 6.5845 16.9715C6.60501 16.9363 6.62552 16.9011 6.64603 16.866C6.66948 16.8279 6.68999 16.7869 6.71343 16.7488C6.73687 16.7107 6.75738 16.6697 6.78083 16.6316C6.80134 16.5964 6.81892 16.5612 6.84236 16.529C6.85408 16.5114 6.86287 16.4909 6.87166 16.4733C6.89511 16.4323 6.91855 16.3942 6.93906 16.3532C6.96543 16.3063 6.9918 16.2565 7.02111 16.2096C7.05041 16.1627 7.07385 16.11 7.10608 16.066C7.12074 16.0455 7.12953 16.0221 7.14125 15.9986C7.16469 15.9576 7.18813 15.9195 7.21157 15.8785C7.22329 15.858 7.23501 15.8375 7.24381 15.817C7.26725 15.7759 7.28776 15.7378 7.31413 15.6997C7.32585 15.6822 7.33464 15.6617 7.34343 15.6441C7.36688 15.603 7.38739 15.562 7.41083 15.5239C7.44013 15.477 7.46357 15.4243 7.49581 15.3803C7.51046 15.3598 7.51925 15.3364 7.53097 15.313C7.55441 15.2719 7.57785 15.2338 7.6013 15.1928C7.61302 15.1752 7.62181 15.1547 7.6306 15.1371C7.65404 15.0961 7.68041 15.0522 7.70385 15.0111C7.7273 14.9701 7.75074 14.932 7.77125 14.891C7.79469 14.8529 7.81227 14.8119 7.83865 14.7767C7.8533 14.7562 7.86209 14.7328 7.87381 14.7093C7.89432 14.6742 7.91483 14.639 7.93534 14.6038C7.94706 14.5862 7.95586 14.5657 7.96758 14.5452C7.99688 14.4925 8.02911 14.4427 8.05548 14.3899C8.07893 14.3489 8.1053 14.3049 8.12874 14.2639C8.14925 14.2317 8.1639 14.1965 8.18734 14.1672C8.202 14.1467 8.21079 14.1233 8.22251 14.0998C8.24302 14.0647 8.26353 14.0295 8.28404 13.9943C8.29576 13.9768 8.30455 13.9592 8.31628 13.9387C8.33679 13.9006 8.3573 13.8625 8.38367 13.8273C8.39832 13.8068 8.40711 13.7804 8.42176 13.757C8.44228 13.7218 8.46572 13.6867 8.48623 13.6515C8.50674 13.6193 8.52432 13.5841 8.5419 13.5489C8.56242 13.5138 8.58293 13.4786 8.60344 13.4435C8.61516 13.4229 8.62395 13.4024 8.6386 13.3819C8.66791 13.3321 8.69721 13.2794 8.72944 13.2295C8.74116 13.212 8.74702 13.1915 8.75874 13.1739C8.78512 13.1328 8.80856 13.0918 8.832 13.0508C8.85251 13.0156 8.87302 12.9805 8.89353 12.9453C8.91112 12.9101 8.93163 12.8779 8.95214 12.8457C8.96386 12.8281 8.97558 12.8047 8.9873 12.7841C9.01661 12.7343 9.04298 12.6816 9.07521 12.6347C9.08693 12.6171 9.09572 12.5966 9.10451 12.579C9.12795 12.538 9.15433 12.497 9.17777 12.456C9.19828 12.4208 9.21879 12.3856 9.2393 12.3505C9.25689 12.3153 9.28033 12.2831 9.29791 12.2508C9.30963 12.2303 9.32135 12.2098 9.33307 12.1864C9.36237 12.1366 9.38875 12.0867 9.41805 12.0399C9.42977 12.0223 9.43856 12.0018 9.45028 11.9813C9.47372 11.9402 9.49717 11.9021 9.52061 11.8611C9.54112 11.826 9.5587 11.7908 9.57921 11.7556C9.59972 11.7205 9.62024 11.6882 9.64075 11.6531C9.65247 11.6355 9.66126 11.6179 9.67298 11.5974C9.70228 11.5447 9.73159 11.4919 9.76675 11.4392C9.7814 11.4187 9.79019 11.3923 9.80191 11.3688C9.82242 11.3337 9.84587 11.2985 9.86638 11.2633C9.88396 11.2311 9.90447 11.1989 9.92205 11.1667C9.94256 11.1286 9.96308 11.0875 9.98945 11.0524C10.0012 11.0348 10.01 11.0143 10.0187 10.9967C10.0481 10.944 10.0774 10.8941 10.1067 10.8414C10.1301 10.8004 10.1535 10.7564 10.1799 10.7154C10.2121 10.6685 10.2327 10.6158 10.2678 10.5689C10.2795 10.5542 10.2854 10.5337 10.2942 10.5161C10.3235 10.4634 10.3557 10.4136 10.3821 10.3608C10.4055 10.3198 10.429 10.2759 10.4554 10.2348C10.4964 10.1704 10.5286 10.103 10.5696 10.0414C10.5872 10.018 10.596 9.98576 10.6107 9.96232C10.6195 9.9506 10.6194 9.93595 10.6165 9.92716C10.596 9.88613 10.5989 9.83925 10.5755 9.79822C10.5726 9.74841 10.5491 9.70153 10.5403 9.65171C10.5345 9.61655 10.5198 9.58139 10.511 9.54622C10.4964 9.49055 10.4788 9.43194 10.4641 9.37627C10.4554 9.33818 10.4407 9.30301 10.4319 9.26492C10.4231 9.22683 10.4114 9.18873 10.4026 9.14771C10.3968 9.12134 10.388 9.09204 10.3821 9.06566C10.3733 9.02464 10.3616 8.98362 10.3499 8.94259C10.3411 8.91036 10.3352 8.87813 10.3235 8.84589C10.3147 8.82245 10.3118 8.79901 10.303 8.77557C10.2942 8.74627 10.2854 8.71403 10.2795 8.68473C10.2708 8.64664 10.259 8.60854 10.2502 8.57045C10.2414 8.54115 10.2327 8.50892 10.2268 8.47961C10.218 8.44152 10.2092 8.4005 10.1975 8.3624C10.1887 8.3331 10.1799 8.30673 10.1741 8.27743C10.1682 8.24519 10.1594 8.21296 10.1477 8.18366C10.133 8.1397 10.1272 8.09575 10.1125 8.0518C10.1037 8.03129 10.1008 8.00784 10.0949 7.98733C10.0861 7.95803 10.0774 7.9258 10.0715 7.89649C10.0627 7.8584 10.0539 7.81738 10.0422 7.77928C10.0275 7.73533 10.0188 7.69138 10.007 7.64742C10.0012 7.62398 9.99238 7.60347 9.98945 7.58003C9.98359 7.54779 9.97187 7.51849 9.96601 7.48919C9.95721 7.4511 9.94256 7.41593 9.9367 7.38077C9.93084 7.35147 9.92205 7.3251 9.91326 7.29579C9.9074 7.26063 9.89275 7.22547 9.88689 7.18737C9.88689 7.18151 9.88103 7.17858 9.8781 7.17272C9.86931 7.18737 9.85759 7.20203 9.84879 7.21668C9.82242 7.26942 9.79019 7.32217 9.75796 7.37198C9.71986 7.43351 9.68177 7.49505 9.64661 7.55659C9.61438 7.6064 9.58507 7.65914 9.55577 7.71189C9.5294 7.75877 9.50303 7.80566 9.47372 7.85254C9.45321 7.88477 9.43856 7.91994 9.41512 7.94924C9.40047 7.96975 9.38875 7.99905 9.37703 8.01956C9.35358 8.05766 9.33307 8.09868 9.30963 8.13677C9.29498 8.15729 9.28619 8.18366 9.27447 8.2071C9.25396 8.24226 9.23051 8.27743 9.21 8.31259C9.19828 8.33017 9.18949 8.35068 9.1807 8.36826C9.15726 8.40929 9.13381 8.44738 9.1133 8.4884C9.08693 8.53529 9.06056 8.5851 9.03126 8.63199C9.00195 8.67887 8.97851 8.72868 8.94628 8.77557C8.93163 8.79901 8.92284 8.82538 8.90819 8.84589C8.88474 8.88399 8.86423 8.92501 8.84079 8.9631C8.82614 8.98362 8.81735 9.00999 8.80563 9.03343C8.78512 9.06859 8.76167 9.10376 8.74116 9.13892C8.72944 9.1565 8.72065 9.17701 8.71186 9.19459C8.68842 9.23562 8.66791 9.27664 8.64446 9.31473C8.61516 9.36162 8.59172 9.41436 8.55949 9.45832C8.54484 9.48176 8.53604 9.50813 8.52139 9.52864C8.49795 9.56674 8.47744 9.60776 8.45107 9.64585C8.43935 9.66343 8.43056 9.68102 8.42176 9.6986C8.39832 9.73962 8.37488 9.78357 8.34851 9.8246C8.33386 9.84511 8.32507 9.86855 8.31335 9.89199C8.2899 9.93302 8.26646 9.97111 8.24302 10.0121C8.2313 10.0297 8.22251 10.0502 8.21372 10.0678C8.18148 10.1264 8.14925 10.185 8.11409 10.2407C8.09944 10.2612 8.09065 10.2846 8.07893 10.3081C8.05548 10.3491 8.03204 10.3872 8.0086 10.4282C7.99688 10.4458 7.98809 10.4663 7.9793 10.4839C7.95586 10.5249 7.92948 10.5689 7.90604 10.6099C7.8826 10.6509 7.85916 10.689 7.83865 10.73C7.81813 10.7681 7.79762 10.8092 7.77125 10.8443C7.7566 10.8648 7.74781 10.8883 7.73609 10.9117C7.71558 10.9469 7.69506 10.982 7.67162 11.0172C7.6599 11.0348 7.65111 11.0553 7.63939 11.0758C7.61009 11.1286 7.57785 11.1784 7.55148 11.2311C7.52804 11.2721 7.50167 11.3161 7.47822 11.3571C7.45771 11.3893 7.44306 11.4245 7.41962 11.4538C7.40497 11.4743 7.39618 11.4978 7.38446 11.5212C7.36395 11.5564 7.34343 11.5915 7.32292 11.6267C7.3112 11.6443 7.30241 11.6619 7.29069 11.6824C7.27018 11.7205 7.24967 11.7586 7.22329 11.7937C7.20864 11.8142 7.19985 11.8377 7.18813 11.8611C7.16762 11.8963 7.14711 11.9314 7.1266 11.9666C7.11487 11.9871 7.10608 12.0076 7.09143 12.0281C7.0592 12.078 7.03576 12.1307 7.00059 12.1805C6.98887 12.1981 6.98008 12.2186 6.96836 12.2391C6.93906 12.2889 6.90976 12.3417 6.87752 12.3915C6.8658 12.412 6.85408 12.4325 6.84236 12.453C6.82185 12.4911 6.79841 12.5292 6.7779 12.5644C6.7691 12.582 6.76031 12.5966 6.74859 12.6142C6.72515 12.6494 6.70757 12.6845 6.68706 12.7197C6.66655 12.7548 6.64603 12.7871 6.62845 12.8193C6.61087 12.8545 6.59036 12.8867 6.56985 12.9219C6.54934 12.957 6.52882 12.9922 6.50831 13.0274C6.49659 13.0479 6.4878 13.0655 6.47608 13.086C6.44385 13.1387 6.41748 13.1944 6.38231 13.2442C6.36766 13.2647 6.35887 13.2911 6.34715 13.3145C6.32664 13.3497 6.30613 13.3819 6.28561 13.4171C6.27389 13.4347 6.2651 13.4552 6.25338 13.4728C6.22994 13.5108 6.21236 13.5489 6.18599 13.5841C6.17133 13.6046 6.16254 13.631 6.14789 13.6544C6.12738 13.6896 6.10687 13.7218 6.08636 13.757C6.07464 13.7746 6.06585 13.798 6.05412 13.8156C6.02189 13.8654 5.99552 13.9211 5.96036 13.9709C5.94571 13.9914 5.93691 14.0178 5.92226 14.0412C5.90175 14.0764 5.87831 14.1115 5.8578 14.1467C5.84022 14.1789 5.81971 14.2112 5.80212 14.2434C5.78161 14.2815 5.75817 14.3196 5.73473 14.3577C5.71422 14.3899 5.69663 14.4251 5.67905 14.4602C5.65854 14.4954 5.63803 14.5306 5.61459 14.5657C5.60287 14.5833 5.59408 14.6038 5.58236 14.6243C5.55305 14.6771 5.52082 14.7269 5.49445 14.7796C5.47101 14.8207 5.44463 14.8646 5.42119 14.9056C5.39189 14.9525 5.36845 15.0053 5.33621 15.0492C5.32449 15.0668 5.3157 15.0873 5.30691 15.1049C5.27761 15.1576 5.24538 15.2075 5.219 15.2602C5.19556 15.3012 5.16919 15.3452 5.14575 15.3862C5.11645 15.4331 5.093 15.4858 5.06077 15.5298C5.04905 15.5474 5.04026 15.5679 5.03147 15.5855C5.00217 15.6382 4.96993 15.688 4.94356 15.7408C4.92012 15.7818 4.89375 15.8257 4.8703 15.8668C4.841 15.9137 4.81756 15.9664 4.78533 16.0104C4.77361 16.0279 4.76775 16.0484 4.75603 16.066C4.72965 16.107 4.70914 16.1481 4.68277 16.1891C4.66812 16.2096 4.65933 16.236 4.64468 16.2594C4.62416 16.2946 4.60365 16.3268 4.58314 16.362C4.57142 16.3796 4.56263 16.3971 4.55091 16.4177C4.52747 16.4616 4.50109 16.5026 4.47765 16.5437C4.46007 16.5759 4.44249 16.6111 4.42198 16.6433C4.38974 16.696 4.36337 16.7517 4.32821 16.8015C4.31356 16.822 4.30477 16.8484 4.29305 16.8718C4.27253 16.907 4.25202 16.9392 4.23151 16.9744C4.21979 16.992 4.211 17.0096 4.19928 17.0301C4.17584 17.074 4.15239 17.1151 4.12602 17.1561C4.11137 17.1766 4.10258 17.203 4.09086 17.2264C4.07035 17.2616 4.04984 17.2938 4.02932 17.329C4.0176 17.3495 4.00588 17.37 3.99416 17.3934C3.97365 17.4315 3.95021 17.4696 3.92677 17.5077C3.90918 17.5399 3.88867 17.5722 3.87109 17.6073C3.85644 17.6337 3.84179 17.6571 3.82714 17.6835C3.80956 17.7187 3.78904 17.7509 3.76853 17.7861C3.74216 17.833 3.71286 17.8798 3.68648 17.9267C2.90118 17.9267 2.1188 17.9267 1.3335 17.9267C1.35694 17.8886 1.37745 17.8535 1.40089 17.8183C1.41261 17.8007 1.4214 17.7802 1.43019 17.7626C1.4595 17.7099 1.49173 17.6601 1.5181 17.6073C1.54154 17.5634 1.56499 17.5194 1.59136 17.4784C1.62066 17.4315 1.64703 17.3817 1.67634 17.3348C1.69978 17.2967 1.72029 17.2557 1.74373 17.2176C1.76424 17.1824 1.78182 17.1473 1.80527 17.1151C1.81699 17.0975 1.82285 17.077 1.83457 17.0594C1.86094 17.0184 1.88438 16.9773 1.90782 16.9363C1.92834 16.9011 1.94885 16.866 1.96936 16.8308C1.99866 16.781 2.02503 16.7283 2.05727 16.6814C2.07192 16.6609 2.08071 16.6374 2.09243 16.614C2.11294 16.5788 2.13345 16.5437 2.15397 16.5085C2.16569 16.4909 2.17448 16.4704 2.1862 16.4499C2.20964 16.4089 2.23308 16.3678 2.25945 16.3268C2.27411 16.3063 2.2829 16.2799 2.29462 16.2565C2.31513 16.2213 2.33564 16.1891 2.35615 16.1539C2.36787 16.1363 2.37666 16.1129 2.38839 16.0953C2.41476 16.0572 2.4382 16.0133 2.46164 15.9723C2.48215 15.9371 2.50266 15.9049 2.52025 15.8697C2.54662 15.8199 2.57885 15.7701 2.60815 15.7203C2.61987 15.6997 2.6316 15.6792 2.64039 15.6587C2.66383 15.6177 2.68434 15.5796 2.71071 15.5415C2.72243 15.5239 2.72829 15.5034 2.74001 15.4858C2.76639 15.4448 2.7869 15.4038 2.81327 15.3628C2.82792 15.3423 2.83671 15.3159 2.84843 15.2924C2.86895 15.2573 2.88946 15.225 2.90997 15.1899C2.92169 15.1723 2.93048 15.1518 2.9422 15.1342C2.96857 15.0932 2.99202 15.0492 3.01546 15.0082C3.03597 14.973 3.05648 14.9349 3.07699 14.8998C3.1063 14.85 3.13267 14.8002 3.16197 14.7533C3.17369 14.7357 3.18248 14.7152 3.1942 14.6947C3.21472 14.6536 3.24109 14.6156 3.2616 14.5775C3.27332 14.5569 3.28504 14.5364 3.29676 14.5159C3.31727 14.4778 3.34072 14.4397 3.36123 14.4046C3.37295 14.387 3.38174 14.3665 3.39053 14.3489C3.4169 14.2962 3.44913 14.2463 3.47844 14.1936C3.50481 14.1467 3.53118 14.0998 3.56048 14.0529C3.581 14.0207 3.59858 13.9855 3.61909 13.9562C3.63374 13.9357 3.64253 13.9094 3.65718 13.8859C3.67769 13.8508 3.70114 13.8156 3.72165 13.7804C3.73337 13.7628 3.74216 13.7423 3.75095 13.7248C3.78025 13.672 3.80956 13.6222 3.83886 13.5695C3.86523 13.5226 3.8916 13.4757 3.9209 13.4288C3.94142 13.3966 3.959 13.3614 3.97951 13.3321C3.99416 13.3116 4.00295 13.2852 4.0176 13.2618C4.03811 13.2266 4.06156 13.1915 4.08207 13.1563C4.09379 13.1387 4.10258 13.1182 4.11137 13.1006C4.13481 13.0596 4.15532 13.0186 4.17877 12.9805C4.20807 12.9336 4.23444 12.8838 4.26374 12.8369C4.28426 12.8017 4.30477 12.7666 4.32528 12.7314C4.34872 12.6933 4.36923 12.6523 4.39267 12.6142C4.41319 12.579 4.4337 12.5439 4.45421 12.5087C4.47472 12.4706 4.49523 12.4296 4.52161 12.3944C4.54212 12.3622 4.5597 12.327 4.57728 12.2919C4.60072 12.2508 4.62416 12.2127 4.64761 12.1717C4.65933 12.1541 4.66812 12.1336 4.67984 12.1161C4.70621 12.075 4.72965 12.0311 4.75309 11.99C4.77361 11.9549 4.79412 11.9197 4.81463 11.8846C4.83514 11.8465 4.85858 11.8084 4.88203 11.7703C4.90254 11.738 4.92012 11.7 4.94063 11.6648C4.96407 11.6267 4.98751 11.5857 5.01096 11.5476C5.03147 11.5124 5.04905 11.4773 5.06956 11.4421C5.093 11.4011 5.11938 11.363 5.13989 11.322C5.15747 11.2868 5.18091 11.2546 5.19849 11.2165C5.219 11.1754 5.24538 11.1373 5.26882 11.0963C5.2864 11.0641 5.30691 11.0319 5.32449 10.9996C5.34501 10.9615 5.36552 10.9205 5.39189 10.8853C5.40361 10.8678 5.40947 10.8473 5.42119 10.8297C5.44463 10.7886 5.46808 10.7476 5.49445 10.7066C5.5091 10.6861 5.51789 10.6597 5.52961 10.6363C5.55012 10.6011 5.57063 10.5689 5.59115 10.5337C5.60287 10.5161 5.61166 10.4956 5.62338 10.4751C5.64975 10.4341 5.67319 10.3931 5.69663 10.352C5.71715 10.3169 5.73766 10.2846 5.75524 10.2495C5.78161 10.1997 5.81384 10.1499 5.84315 10.1C5.85487 10.0825 5.86366 10.0619 5.87245 10.0444C5.89589 10.0033 5.92226 9.95939 5.94571 9.91837C5.96622 9.8832 5.98673 9.84511 6.00724 9.80995C6.03068 9.77185 6.05119 9.73669 6.07171 9.6986C6.09222 9.66343 6.11273 9.62827 6.13324 9.59311C6.16254 9.54329 6.18892 9.49055 6.22115 9.44366C6.23287 9.42608 6.23873 9.40557 6.25045 9.38799C6.27682 9.34697 6.29734 9.30594 6.32371 9.26492C6.33836 9.24441 6.34715 9.21804 6.35887 9.19459C6.37938 9.15943 6.39989 9.1272 6.42041 9.09204C6.43213 9.07445 6.44092 9.05687 6.45264 9.03636C6.47608 8.99241 6.50245 8.95431 6.52589 8.91036C6.54641 8.87227 6.56692 8.8371 6.58743 8.80194C6.61673 8.75213 6.64017 8.70231 6.67241 8.65543C6.68413 8.64078 6.68999 8.6232 6.69878 8.60561C6.72222 8.56166 6.74859 8.52064 6.77204 8.47668C6.79255 8.44152 6.81306 8.40343 6.83357 8.36826C6.85701 8.33017 6.87752 8.29501 6.89804 8.25691C6.91855 8.22175 6.93906 8.18659 6.95957 8.15143C6.97715 8.11626 7.00059 8.08403 7.01818 8.0518C7.0299 8.03422 7.03869 8.0137 7.04748 7.99612C7.07092 7.9551 7.09729 7.91114 7.12073 7.87012C7.14418 7.8291 7.16762 7.791 7.18813 7.74998C7.20571 7.71775 7.22622 7.68259 7.24674 7.65035C7.25846 7.63277 7.26725 7.61226 7.27897 7.59468C7.30534 7.55365 7.32878 7.5097 7.35222 7.46868C7.37274 7.43351 7.39325 7.39542 7.41376 7.36026C7.44306 7.31044 7.4665 7.26063 7.50167 7.21375C7.51632 7.19323 7.52511 7.16686 7.53976 7.14342C7.56027 7.10826 7.58078 7.07602 7.6013 7.04086C7.61302 7.02328 7.62181 7.0057 7.63353 6.98519C7.65697 6.94123 7.68334 6.90314 7.70678 6.85919C7.7273 6.82109 7.74781 6.78593 7.76832 6.75077C7.79469 6.70095 7.82106 6.65114 7.85623 6.60425C7.86795 6.58667 7.87381 6.56616 7.88553 6.54858C7.90897 6.50756 7.93241 6.46946 7.95586 6.42844C7.96758 6.40793 7.9793 6.38742 7.99102 6.3669C8.01153 6.32881 8.03497 6.29072 8.05548 6.25556C8.0672 6.23797 8.076 6.21746 8.08479 6.19988C8.10823 6.15886 8.1346 6.11783 8.15804 6.07681C8.17855 6.04165 8.19907 6.00648 8.21958 5.97132C8.24888 5.92151 8.27525 5.86876 8.30749 5.82188C8.31921 5.8043 8.32507 5.78379 8.33679 5.7662C8.36316 5.72518 8.38367 5.68416 8.41004 5.64313C8.4247 5.62262 8.43349 5.59625 8.44521 5.57281C8.46572 5.53764 8.48623 5.50541 8.50674 5.47025C8.51846 5.45267 8.52725 5.43216 8.53897 5.41457C8.56535 5.37355 8.58879 5.3296 8.61223 5.28857C8.63274 5.25048 8.65325 5.21532 8.67377 5.18015C8.70307 5.13034 8.72651 5.08053 8.76167 5.03364C8.77339 5.01606 8.77926 4.99555 8.79098 4.97797C8.81442 4.93694 8.83786 4.89885 8.8613 4.85783C8.87302 4.83732 8.88474 4.8168 8.89646 4.79629C8.91698 4.7582 8.94042 4.72011 8.96093 4.68494C8.96972 4.66736 8.97851 4.65271 8.99023 4.63513C9.01367 4.59997 9.03126 4.5648 9.05177 4.52964C9.084 4.47103 9.11623 4.41536 9.1514 4.36262C9.15726 4.35382 9.16312 4.34503 9.16898 4.33624C9.88396 4.33331 10.5696 4.33331 11.2524 4.33331Z" fill="#485AFD"/>
</g>
<defs>
<clipPath id="clip0_87_4559">
<rect width="16" height="16" fill="white" transform="translate(0 3)"/>
</clipPath>
</defs>
</svg>
