<svg width="179" height="128" viewBox="0 0 179 128" fill="none" xmlns="http://www.w3.org/2000/svg">
<rect width="179" height="128" rx="10" fill="#F6F6F6"/>
<rect x="0.5" y="0.5" width="178" height="127" rx="9.5" stroke="black" stroke-opacity="0.1"/>
<mask id="mask0" mask-type="alpha" maskUnits="userSpaceOnUse" x="0" y="0" width="179" height="128">
<rect width="179" height="128" rx="10" fill="#C4C4C4"/>
</mask>
<g mask="url(#mask0)">
<path d="M-19.2066 135.767C-11.5576 137.74 -3.17625 136.686 3.74041 132.875C10.6571 129.091 16.0276 122.578 18.4688 115.092C19.1741 112.876 19.4724 110.038 17.628 108.605C15.5937 107.011 12.6914 108.362 10.3045 109.308C6.99531 110.605 3.36067 111.011 -0.165474 110.524C-2.74227 110.146 -5.31906 109.281 -7.92298 109.551C-11.8289 109.957 -15.0295 112.849 -17.2266 116.092C-20.2102 120.524 -21.8377 126.091 -20.5628 131.281C-19.288 136.47 -14.6498 140.956 -9.27918 141.064" fill="#F4D45D"/>
<path d="M44.4824 5.30154C36.6592 3.05866 28.2424 2.05882 20.4192 4.32872C12.6229 6.59863 5.58196 12.6787 3.82848 20.6234C3.18103 23.5959 3.26196 26.6765 3.12707 29.703C2.99219 32.7566 2.6415 35.8642 1.18476 38.5394C-0.271984 41.2147 -3.02362 43.3495 -6.07199 43.2954C-8.58083 43.2414 -10.8738 41.7281 -12.5734 39.8906C-18.1576 33.8915 -18.6701 24.2444 -15.0822 16.8673C-11.4943 9.49006 -4.42641 4.27468 3.23499 1.32921C16.3727 -3.69701 31.8303 -2.48099 43.9429 4.73406L44.4824 5.30154Z" fill="#F4D45D"/>
<path d="M117.162 1.07456C117.704 -0.787345 118.274 -2.70401 117.976 -4.62067C117.677 -6.53733 116.239 -8.42661 114.312 -8.53614C112.195 -8.67304 110.512 -6.729 109.481 -4.83972C107.771 -1.7183 106.74 1.78646 104.677 4.68883C101.203 9.59001 95.1777 12.1364 89.2067 12.7388C83.2629 13.3138 77.292 12.1638 71.4296 10.9864C70.4797 10.7948 69.1227 10.9043 69.0413 11.8626C68.987 12.4376 69.5027 12.9031 69.9641 13.2317C77.9434 19.009 88.3111 21.309 97.9731 19.5019C103.998 18.3519 109.888 15.5317 113.823 10.7674C117.759 6.00312 119.387 -0.869487 117.107 -6.61947" fill="#F4D45D"/>
<path d="M173.734 20.7442C171.925 22.1642 169.494 23.5296 167.469 22.4373C166.064 21.7 165.389 19.9249 165.443 18.3138C165.497 16.7026 166.172 15.1733 166.793 13.6987C168.981 8.70134 171.169 3.67666 174.058 -0.911094C176.948 -5.52615 180.594 -9.73159 185.185 -12.6262C186.563 -13.5001 188.264 -14.3466 189.939 -13.8551C191.1 -13.5001 192.018 -12.7082 191.775 -11.4247C191.532 -10.0866 191.181 -8.7485 190.911 -7.43772C190.587 -5.90846 190.209 -4.40652 189.75 -2.90458C188.831 0.0446873 187.643 2.91203 186.185 5.64283C184.726 8.37364 183.025 10.9679 181.08 13.3983C179.136 15.8014 176.975 18.0407 174.598 20.0069C174.328 20.2799 174.031 20.4984 173.734 20.7442Z" fill="#1B6578"/>
<path d="M66.6456 93.1C65.0678 94.6146 63.4356 96.7513 64.2517 98.7798C65.1494 101.025 68.1961 101.268 70.59 100.916C80.9814 99.3477 90.4752 92.7214 95.4805 83.5527C96.079 82.4438 96.7046 81.0644 96.0246 79.8473C95.5621 79.0359 94.9093 78.6573 93.9844 78.7925C91.5633 79.1712 89.1151 79.9555 86.8028 80.7669C84.409 81.6053 82.0695 82.606 79.8117 83.769C77.5539 84.932 75.3777 86.2302 73.283 87.6637C71.1884 89.1242 69.2026 90.7199 67.3256 92.4239C67.108 92.6673 66.8632 92.8837 66.6456 93.1Z" fill="#1B6578"/>
<path d="M57.8745 101.166C56.7171 102.054 56.421 103.607 57.1746 104.688C57.9283 105.742 59.4895 105.909 60.6469 105.021C61.8043 104.134 62.1004 102.581 61.3467 101.499C60.5662 100.445 59.005 100.279 57.8745 101.166Z" fill="#1B6578"/>
<path d="M22.8271 55.9551C17.7344 65.9247 16.0548 78.1158 7.71136 85.593C1.23705 91.3905 -7.86489 93.016 -16.4522 94.3706C-14.6372 100.547 -8.48795 104.882 -2.0949 105.505C4.29814 106.128 10.7183 103.446 15.5672 99.1928C20.3891 94.9395 23.7752 89.2774 26.2674 83.3444C28.7596 77.4114 30.4663 71.2075 32.4709 65.1119C34.4754 59.0164 36.8322 52.9479 40.4892 47.6651C42.7105 44.4413 45.4195 41.5696 48.4535 39.1314C51.5145 36.6661 54.9278 34.6342 58.5577 33.1171C59.56 32.7107 60.5894 32.3314 61.6188 31.9793C62.1335 31.8167 62.6482 31.6542 63.19 31.5187C63.5963 31.4103 64.1652 31.3562 64.4902 31.0852C63.7588 30.9498 62.8649 31.0582 62.1335 31.0852C61.2937 31.1123 60.454 31.1665 59.6142 31.2478C57.9617 31.4103 56.3093 31.6542 54.6569 32.0063C51.4062 32.6836 48.2367 33.7131 45.2028 35.0677C42.1417 36.4222 39.2431 38.1019 36.5342 40.0796C33.8524 42.0301 31.3602 44.2516 29.1389 46.744C26.9176 49.2364 24.9672 51.9727 23.3689 54.8985C23.2064 55.2507 23.0167 55.6029 22.8271 55.9551Z" fill="#F7AE75"/>
<path d="M24.7849 43.711C23.568 43.4166 23.4057 41.7577 23.6761 40.5536C24.5415 36.6737 27.1105 33.329 30.0581 30.6265L24.7849 43.711ZM24.7849 43.711C25.542 43.8983 26.2992 43.3899 26.9212 42.9082M24.7849 43.711L26.9212 42.9082M26.9212 42.9082C27.0174 42.8343 27.1136 42.7604 27.2099 42.6864C33.5269 37.8328 39.9909 32.8664 47.6355 30.5998M26.9212 42.9082L47.6355 30.5998M47.6355 30.5998C52.8547 29.0746 58.3983 28.8873 63.8338 28.9408L47.6355 30.5998ZM30.3972 30.994L30.396 30.9951C27.4843 33.6647 24.9978 36.9245 24.1641 40.6624L24.164 40.6631C24.0415 41.2083 24.0227 41.8401 24.1562 42.3458C24.2884 42.8468 24.5381 43.1369 24.9024 43.225L24.9049 43.2256C25.1361 43.2828 25.3951 43.242 25.6974 43.105C26.0027 42.9667 26.3089 42.7499 26.6151 42.5129L26.6166 42.5117C26.7236 42.4295 26.8306 42.3473 26.9377 42.265C33.2309 37.4295 39.7589 32.4137 47.4934 30.1204L47.4953 30.1198C52.7887 28.5729 58.3941 28.3873 63.8363 28.4408C64.609 28.4408 65.4086 28.4331 66.1673 28.3101C66.9238 28.1874 67.6038 27.9551 68.1493 27.5307C68.2846 27.4236 68.3992 27.3251 68.4743 27.2253C68.545 27.1314 68.5376 27.0948 68.5359 27.0869L68.5359 27.0866C68.5322 27.0684 68.5057 27.0026 68.3536 26.8862C68.284 26.8329 68.2036 26.7806 68.1122 26.7238C68.0887 26.7093 68.0631 26.6936 68.0365 26.6773C67.969 26.636 67.8948 26.5906 67.8312 26.5486L67.8312 26.5486L67.8278 26.5464C67.0816 26.0454 66.3128 25.5734 65.5205 25.1553C63.9268 24.3143 62.2547 23.6316 60.531 23.1331C58.8037 22.6335 56.9945 22.2911 55.1837 22.1067C53.3803 21.923 51.55 21.9228 49.7465 22.1061C49.6223 22.1213 49.5009 22.1286 49.3928 22.1351L49.3868 22.1354C49.276 22.1421 49.1759 22.1481 49.0712 22.1595C42.1293 22.9758 35.5465 26.242 30.3972 30.994Z" stroke="#3EB595"/>
<path d="M18.0695 49.4072C17.3258 49.7082 16.9688 50.5859 17.3555 51.2128C17.7423 51.8397 18.7538 52.1156 19.4976 51.8147C20.2414 51.4887 20.5984 50.6611 20.2414 50.0091C19.8844 49.3571 18.9026 49.0311 18.1291 49.3069" fill="#3EB595"/>
<path d="M140.71 4.08413C142.189 2.18346 143.56 0.0655737 143.963 -2.32384C144.555 -5.8808 142.592 -9.7093 139.393 -11.3384C136.193 -12.9404 131.999 -12.2073 129.526 -9.57353C127.321 -7.23843 126.622 -3.87153 126.004 -0.694694C125.654 1.17882 125.305 3.02518 124.928 4.8987C124.498 7.15235 124.122 9.67753 125.332 11.6053C126.031 12.7458 127.24 13.3974 128.531 13.6146C129.499 13.7775 130.467 13.859 131.354 13.3431C132.295 12.8001 133.075 11.9312 133.881 11.2524C135.064 10.2477 136.193 9.16163 137.296 8.04838C138.506 6.79937 139.635 5.4689 140.71 4.08413Z" fill="#3EB595"/>
<path d="M0.361009 51.2891C1.05718 50.6479 1.67302 49.8673 1.99433 48.9474C2.31564 48.0275 2.2621 46.9403 1.6998 46.1597C0.869752 45.0168 -0.790358 44.9052 -2.10238 45.3792C-3.4144 45.8531 -4.53898 46.7451 -5.79745 47.3027C-7.2969 47.9717 -8.95701 48.1947 -10.3494 49.1147C-11.3668 49.7837 -12.3843 50.9824 -11.6614 52.2647C-10.2155 54.7737 -6.17232 54.3834 -3.89637 53.6865C-2.34336 53.2404 -0.870682 52.432 0.361009 51.2891Z" fill="#F4D45D"/>
<mask id="path-15-inside-1" fill="white">
<path d="M162.038 6.54366C160.846 16.5963 154.695 25.7006 146.431 31.5263C138.166 37.352 127.978 40.0887 117.871 40.3597C111.477 40.5222 104.784 39.6552 99.5273 35.9972C128.195 31.5805 154.56 13.8325 169.408 -11.0688C164.775 2.7231 160.006 16.8131 150.956 28.2206"/>
</mask>
<path d="M117.871 40.3597L117.898 41.3593L117.897 41.3593L117.871 40.3597ZM99.5273 35.9972L98.9561 36.818L96.9035 35.3896L99.375 35.0089L99.5273 35.9972ZM169.408 -11.0688L168.549 -11.581L170.356 -10.7504L169.408 -11.0688ZM163.031 6.66143C161.8 17.0388 155.465 26.3812 147.007 32.3437L145.855 30.709C153.925 25.0201 159.891 16.1538 161.045 6.42588L163.031 6.66143ZM147.007 32.3437C138.549 38.306 128.158 41.0842 117.898 41.3593L117.845 39.36C127.799 39.0932 137.784 36.398 145.855 30.709L147.007 32.3437ZM117.897 41.3593C111.424 41.5239 104.473 40.657 98.9561 36.818L100.098 35.1764C105.095 38.6533 111.529 39.5206 117.846 39.36L117.897 41.3593ZM99.375 35.0089C127.748 30.6375 153.854 13.0638 168.549 -11.581L170.267 -10.5567C155.265 14.6012 128.642 32.5235 99.6796 36.9855L99.375 35.0089ZM170.356 -10.7504C165.733 3.01202 160.916 17.2746 151.739 28.8421L150.172 27.5991C159.096 16.3516 163.817 2.43418 168.46 -11.3873L170.356 -10.7504Z" fill="#F7AE75" mask="url(#path-15-inside-1)"/>
<path d="M141.743 23.9391C140.687 24.3726 139.576 24.8333 138.844 25.7274C138.112 26.6216 137.95 28.0577 138.79 28.8435C139.467 29.4667 140.524 29.4396 141.418 29.2228C142.638 28.9248 143.776 28.3286 144.724 27.4887C145.699 26.6216 146.512 25.1855 145.862 24.0475C145.401 23.1804 144.263 22.8552 143.288 23.0449C142.312 23.2075 141.472 23.7765 140.66 24.3455" fill="#F4D45D"/>
<path d="M97.2305 -5.85434C92.5258 1.20918 82.8718 4.55077 74.7951 1.9427C71.8309 0.99184 68.8123 -1.15438 68.5948 -4.25146C68.3772 -7.29421 71.0423 -9.84794 73.8705 -11.0705C79.6901 -13.6242 86.4071 -12.5375 92.6618 -11.4236" fill="#3EB595"/>
<path d="M42.626 80.3532C41.8944 81.4371 41.2712 82.6293 40.6209 83.7674C39.9435 84.9325 39.2661 86.0976 38.5616 87.2357C37.8842 88.3737 37.2068 89.5118 36.5565 90.6769C36.2313 91.2459 35.9062 91.842 35.581 92.4111C35.2829 92.953 34.9307 93.5491 34.4159 93.9284C34.3075 94.0097 34.1178 93.9014 34.1449 93.7659C34.172 93.1427 34.4972 92.4924 34.7952 91.9504C35.0933 91.3814 35.4184 90.8124 35.7436 90.2705C36.421 89.1053 37.0984 87.9402 37.8029 86.8021C38.5074 85.6641 39.239 84.5532 40.0248 83.4964C40.4041 82.9816 40.7835 82.4667 41.1899 81.9519C41.6234 81.3829 42.1112 80.8681 42.5176 80.272C42.5447 80.1907 42.6802 80.2719 42.626 80.3532Z" fill="#F7AE75"/>
<path d="M33.1699 95.3105C33.1969 95.3647 33.1969 95.446 33.1969 95.5002C33.1969 95.5815 33.224 95.6357 33.1969 95.717C33.1698 95.8796 33.1427 96.015 33.0886 96.1776C32.9802 96.4757 32.8718 96.7738 32.7092 97.0447C32.5737 97.3157 32.4383 97.5596 32.2486 97.8034C32.1402 97.9389 32.0318 98.0744 31.8963 98.1828C31.7879 98.2641 31.6525 98.3996 31.4899 98.3725C31.4086 98.3725 31.3544 98.3183 31.3273 98.237C31.3002 98.1015 31.3544 97.966 31.3815 97.8305C31.4357 97.695 31.4899 97.5325 31.5983 97.397C31.7608 97.1531 31.9234 96.9092 32.0589 96.6383C32.1944 96.3944 32.3299 96.1505 32.4924 95.8796C32.5737 95.7441 32.6279 95.6086 32.7363 95.5002C32.7905 95.446 32.8176 95.3918 32.8718 95.3376C32.8989 95.3376 32.8989 95.3105 32.926 95.3105V95.2834C32.9531 95.2563 32.9802 95.2292 33.0344 95.2021C33.1157 95.2563 33.1699 95.2834 33.1699 95.3105Z" fill="#F7AE75"/>
<path d="M30.2978 100.27C30.3249 100.541 30.2707 100.812 30.1623 101.056C30.1081 101.164 29.9997 101.272 29.9184 101.381C29.8643 101.435 29.8101 101.462 29.7559 101.489C29.7559 101.489 29.783 101.489 29.783 101.462C29.783 101.462 29.7559 101.462 29.7559 101.489C29.7559 101.489 29.7288 101.489 29.7288 101.516C29.6204 101.57 29.512 101.57 29.4307 101.516C29.3765 101.489 29.3494 101.435 29.3494 101.381C29.3494 101.299 29.3765 101.218 29.4307 101.164L29.4578 101.137C29.4849 101.11 29.4578 101.137 29.4578 101.164C29.4578 101.137 29.512 101.083 29.5391 101.056C29.5662 101.029 29.6204 100.974 29.6475 100.947C29.6746 100.92 29.6475 100.92 29.6475 100.947C29.6204 100.974 29.6204 100.974 29.6746 100.92L29.7017 100.893C29.7288 100.839 29.6746 100.947 29.7017 100.893L29.7288 100.866C29.783 100.785 29.8371 100.676 29.8913 100.595C29.8913 100.595 29.9184 100.541 29.8913 100.595C29.8913 100.595 29.8914 100.568 29.9184 100.568C29.9184 100.541 29.9455 100.514 29.9455 100.487C29.9455 100.459 29.9455 100.432 29.9726 100.405C29.9726 100.378 29.9726 100.378 29.9726 100.405C29.9726 100.378 29.9726 100.378 29.9726 100.351C29.9726 100.243 30.0539 100.161 30.1623 100.161C30.2165 100.107 30.2978 100.161 30.2978 100.27Z" fill="#F7AE75"/>
<path d="M72.2419 69.163C69.5865 70.5178 67.4459 72.9294 65.1427 74.7719C64.0318 75.6931 62.9479 76.7499 61.7557 77.5628C61.1596 77.9692 59.9944 78.4027 59.4254 77.644C58.0435 75.8015 62.4331 73.1732 63.5982 72.3874C66.1995 70.5991 69.18 69.9759 71.9709 68.7024C72.2961 68.5669 72.567 69.0276 72.2419 69.163Z" fill="#F4D45D"/>
<path d="M58.3959 80.001C58.3146 80.3803 58.0436 80.7868 57.6914 80.9494C57.014 81.3287 56.0385 80.8681 56.0656 80.0281C56.0927 79.6487 56.2553 79.1881 56.5804 78.9442C56.7701 78.7816 56.9598 78.6733 57.2037 78.6462C57.4475 78.6191 57.6914 78.6462 57.8811 78.7816C58.3146 79.0526 58.5043 79.5132 58.3959 80.001Z" fill="#F4D45D"/>
<path d="M56.1476 81.9247C56.1205 82.1415 56.0121 82.3582 55.8224 82.4937C55.6057 82.6833 55.3618 82.7646 55.0637 82.6833C54.9283 82.6563 54.8199 82.6021 54.7115 82.4937C54.4405 82.2227 54.4134 81.8163 54.6031 81.4912C54.6844 81.3557 54.7928 81.2202 54.9283 81.1389C55.0095 81.0848 55.1179 81.0577 55.2263 81.0306C55.4702 80.9493 55.7682 81.0577 55.9308 81.2202C56.1476 81.4099 56.1747 81.6538 56.1476 81.9247Z" fill="#F4D45D"/>
<path d="M54.5203 82.9553C54.5474 82.9824 54.5474 82.9824 54.5203 82.9553C54.7642 83.1179 54.8725 83.3617 54.8184 83.6327C54.7913 83.714 54.7642 83.7682 54.7371 83.8495C54.6287 84.0662 54.3306 84.2017 54.0868 84.1204C53.8429 84.0391 53.6803 83.8224 53.6532 83.5785C53.6532 83.4972 53.6532 83.4159 53.6803 83.3617C53.7074 83.2263 53.7887 83.145 53.8971 83.0637C54.0055 82.9824 54.1139 82.9553 54.2493 82.9282C54.3306 82.9011 54.4661 82.9282 54.5203 82.9553Z" fill="#F4D45D"/>
<path d="M43.7908 98.5349C43.7366 98.7787 43.6824 98.9955 43.6554 99.2394C43.6283 99.4833 43.6554 99.7271 43.5741 99.9439C43.5741 99.8084 43.5741 99.6729 43.5741 99.5375C43.845 100.323 42.8425 101.136 42.1651 100.594C41.4877 100.079 42.0296 98.9142 42.8696 98.9955C42.7341 99.0226 42.6257 99.0768 42.4902 99.1039C42.6528 98.9955 42.8425 98.9684 43.0051 98.86C43.1947 98.7246 43.3031 98.562 43.4115 98.3723C43.5199 98.1555 43.845 98.291 43.7908 98.5349Z" fill="#F4D45D"/>
<path d="M41.8393 102.004C41.8393 102.031 41.8393 102.058 41.8122 102.085C41.7851 102.004 41.7851 101.949 41.758 101.868C41.7851 101.895 41.8122 101.922 41.8393 101.922C42.056 102.112 41.9747 102.438 41.758 102.573C41.758 102.573 41.758 102.573 41.7309 102.573C41.6225 102.627 41.487 102.655 41.3786 102.6C41.2703 102.546 41.189 102.465 41.1619 102.356V102.329C41.0535 102.058 41.3245 101.814 41.5683 101.814C41.5954 101.814 41.6225 101.814 41.6496 101.814C41.5954 101.841 41.5412 101.895 41.4599 101.922C41.4599 101.895 41.487 101.868 41.487 101.841C41.5412 101.76 41.6496 101.733 41.7309 101.76C41.8122 101.814 41.8664 101.922 41.8393 102.004Z" fill="#F4D45D"/>
<path d="M147.488 37.352C145.239 39.6823 143.153 41.6332 140.199 43.0422C137.3 44.4241 134.265 45.3454 131.122 45.9686C127.546 46.6731 123.942 47.0525 120.311 47.3505C116.572 47.6486 112.778 48.2989 109.039 48.1092C108.605 48.0821 108.334 47.4318 108.795 47.215C111.911 45.7789 115.407 45.508 118.766 45.0744C122.37 44.6138 125.974 44.2615 129.551 43.6112C132.504 43.0693 135.458 42.3377 138.303 41.3352C141.256 40.3055 144.67 38.9507 147.109 36.9727C147.38 36.7559 147.732 37.0811 147.488 37.352Z" fill="#1B6578"/>
<path d="M157.189 29.765C157.081 29.9276 156.918 30.0631 156.837 30.2528C156.755 30.4154 156.512 30.4696 156.349 30.3341C156.186 30.2257 156.186 29.9818 156.322 29.8463C156.43 29.7379 156.539 29.5483 156.62 29.4399C156.728 29.3044 156.918 29.2231 157.053 29.3315C157.216 29.4128 157.297 29.6295 157.189 29.765Z" fill="#1B6578"/>
<path d="M154.479 32.0683C154.398 32.3664 154.235 32.6644 153.991 32.8812C153.91 32.9625 153.829 33.0438 153.72 33.098C153.476 33.2876 153.26 33.3689 152.935 33.396C152.609 33.4231 152.257 33.1522 152.149 32.8541C152.013 32.529 152.095 32.1767 152.338 31.9058C152.501 31.7432 152.636 31.6619 152.853 31.5806C152.664 31.6619 152.962 31.5264 152.989 31.4993C153.205 31.391 153.422 31.3097 153.639 31.2284C154.127 31.0387 154.614 31.6077 154.479 32.0683Z" fill="#1B6578"/>
<path d="M150.848 34.4257V34.4528C150.821 34.3444 150.794 34.236 150.767 34.1547C150.848 34.2631 150.875 34.4257 150.875 34.5611C150.848 34.4257 150.821 34.3173 150.767 34.1818C150.848 34.3444 150.902 34.4799 150.902 34.6424C150.902 34.7779 150.875 34.8863 150.821 35.0218C150.713 35.2385 150.577 35.4553 150.36 35.5637C150.008 35.7533 149.548 35.7262 149.249 35.4282C148.979 35.1301 148.897 34.6966 149.114 34.3173C149.222 34.1005 149.439 33.938 149.656 33.8567C149.764 33.8025 149.9 33.7754 150.035 33.7754C150.198 33.7754 150.36 33.8296 150.496 33.9109C150.36 33.8838 150.252 33.8567 150.117 33.8025C150.252 33.8025 150.415 33.8296 150.523 33.9109C150.415 33.8838 150.306 33.8567 150.225 33.8296H150.252C150.604 33.8567 150.875 34.1276 150.848 34.4257Z" fill="#1B6578"/>
<path d="M16.3691 55.9132C16.3691 55.9403 16.3691 55.9674 16.3691 55.9945C16.3149 55.8319 16.2879 55.6964 16.2337 55.5338C16.2608 55.6151 16.2878 55.6693 16.3149 55.7506C16.342 55.859 16.3691 55.9945 16.342 56.1029C16.342 56.1842 16.3149 56.2654 16.2878 56.3196C16.2607 56.4009 16.2337 56.4551 16.1795 56.5093C16.1253 56.6177 16.0169 56.699 15.9356 56.7532C15.8543 56.7803 15.8001 56.8074 15.7188 56.8345C15.6375 56.8345 15.5562 56.8616 15.475 56.8616C15.3395 56.8616 15.2311 56.8345 15.1227 56.7803C15.0414 56.7532 14.9872 56.7261 14.933 56.6719C14.8517 56.6448 14.7976 56.5635 14.7705 56.5093C14.6892 56.428 14.635 56.3196 14.6079 56.2112C14.6079 56.13 14.5808 56.0487 14.5808 55.9674C14.5808 55.8861 14.6079 55.8048 14.6079 55.7235C14.635 55.6422 14.6621 55.588 14.6892 55.5068C14.7434 55.3984 14.8246 55.3171 14.933 55.2629C15.0143 55.1816 15.1227 55.1274 15.2311 55.1003C15.0414 55.2358 14.8789 55.3713 14.6892 55.5068C14.7163 55.4797 14.7163 55.4797 14.7434 55.4526C14.7976 55.3984 14.8247 55.3442 14.8789 55.29C14.9601 55.2087 15.0414 55.1545 15.1498 55.1003C15.2311 55.0732 15.2853 55.0461 15.3666 55.0461C15.475 55.019 15.6104 55.019 15.7188 55.0732C15.8001 55.1003 15.8543 55.1274 15.9356 55.1545C15.9898 55.2087 16.044 55.2358 16.0982 55.29C16.1795 55.3713 16.2336 55.4526 16.2878 55.5609C16.342 55.6964 16.3691 55.8048 16.3691 55.9132Z" fill="#3EB595"/>
<path d="M14.4465 58.7586C14.4465 58.7857 14.4465 58.7857 14.4194 58.8128C14.3923 58.867 14.3923 58.8941 14.3652 58.9483C14.2839 59.0837 14.1755 59.165 14.04 59.1921C13.9858 59.1921 13.9587 59.1921 13.9046 59.2192C13.8233 59.2192 13.7691 59.2192 13.7149 59.165C13.6607 59.165 13.6336 59.1379 13.6065 59.1108C13.5523 59.0837 13.4981 59.0296 13.471 58.9754C13.4439 58.9483 13.4168 58.8941 13.4168 58.8399C13.3897 58.7586 13.3897 58.6502 13.4168 58.5689V58.5418C13.4168 58.5147 13.4168 58.5147 13.4439 58.4876C13.471 58.4063 13.4981 58.3521 13.5252 58.2979C13.5523 58.2437 13.6065 58.1895 13.6607 58.1624C13.7149 58.1353 13.7962 58.1082 13.8504 58.1082C13.9316 58.0811 13.9859 58.1082 14.0671 58.1082C14.1213 58.1353 14.1484 58.1353 14.2026 58.1624C14.2839 58.2166 14.3381 58.2708 14.3923 58.3521C14.4194 58.4063 14.4194 58.4334 14.4465 58.4876C14.4736 58.5689 14.4736 58.6773 14.4465 58.7586Z" fill="#3EB595"/>
<path d="M12.7668 61.6303C12.7397 61.6303 12.7397 61.6032 12.7668 61.6303C12.8481 61.6032 12.9294 61.6032 13.0107 61.5761C13.0107 61.5761 12.9836 61.5761 12.9836 61.6032C12.9565 61.6303 12.9294 61.6303 12.9023 61.6574C12.8481 61.6845 12.7939 61.6845 12.7127 61.6574C12.6856 61.6574 12.6856 61.6574 12.6585 61.6303C12.6043 61.6303 12.5772 61.6032 12.5501 61.549C12.523 61.5219 12.523 61.4948 12.4959 61.4677C12.4688 61.4135 12.4417 61.3593 12.4417 61.278V61.2509C12.4688 61.3322 12.523 61.4135 12.5501 61.4948C12.523 61.4677 12.4959 61.4406 12.4688 61.4135C12.4146 61.3593 12.3875 61.3051 12.3875 61.2509C12.3604 61.1967 12.3604 61.1154 12.3875 61.0612C12.3875 61.007 12.4146 60.9257 12.4417 60.8716C12.4688 60.8445 12.4959 60.8174 12.523 60.7632C12.5772 60.709 12.6314 60.6819 12.6856 60.6548C12.7397 60.6277 12.7939 60.6006 12.8752 60.6006C12.9294 60.6006 13.0107 60.6006 13.0649 60.6548C13.1191 60.6819 13.1733 60.709 13.2275 60.7632C13.2546 60.7903 13.2817 60.8174 13.3088 60.8716C13.3359 60.9257 13.363 60.9799 13.363 61.0612C13.3901 61.1154 13.363 61.1967 13.363 61.2509C13.3359 61.278 13.3359 61.3322 13.3088 61.3593C13.2546 61.4406 13.2004 61.4948 13.1191 61.549C13.092 61.5761 13.0378 61.5761 13.0107 61.6032C12.9294 61.6574 12.8481 61.6574 12.7668 61.6303Z" fill="#3EB595"/>
<path d="M11.5192 64.042H11.4921C11.4921 64.042 11.4921 64.042 11.465 64.042H11.4379C11.3837 64.042 11.4108 64.042 11.3837 64.042H11.3566H11.3295C11.3024 64.042 11.2753 64.0148 11.2482 63.9877C11.2211 63.9606 11.2211 63.9335 11.194 63.9064V63.8793C11.194 63.8522 11.194 63.825 11.194 63.825V63.7979C11.194 63.7708 11.194 63.7708 11.194 63.7708C11.194 63.7708 11.194 63.7708 11.194 63.7437V63.7166C11.194 63.6623 11.2211 63.6352 11.2753 63.6081C11.3024 63.581 11.3566 63.5539 11.3837 63.5268C11.465 63.4997 11.5734 63.5268 11.6546 63.6081C11.7359 63.6895 11.763 63.7708 11.7359 63.8793C11.7359 63.9335 11.7088 63.9606 11.6546 63.9877C11.6005 64.0148 11.5463 64.042 11.5192 64.042Z" fill="#3EB595"/>
<path d="M10.3545 65.9391C9.921 65.9391 9.921 65.2612 10.3545 65.2612C10.7881 65.2612 10.7881 65.9391 10.3545 65.9391Z" fill="#3EB595"/>
<path d="M124.972 17.3821C124.945 17.3821 124.945 17.4092 124.972 17.3821C124.89 17.4634 124.809 17.5176 124.728 17.5718C124.646 17.5989 124.565 17.6531 124.484 17.6802C124.403 17.6802 124.294 17.7073 124.213 17.7073C124.077 17.7073 123.942 17.6802 123.806 17.626C123.725 17.5989 123.644 17.5447 123.59 17.4905C123.508 17.4363 123.454 17.3821 123.4 17.3008C123.346 17.2466 123.292 17.1653 123.265 17.084C123.21 16.9486 123.183 16.8402 123.183 16.6776V16.6505C123.183 16.4608 123.237 16.2712 123.319 16.1086C123.4 15.946 123.535 15.8376 123.698 15.7292C123.861 15.6208 124.05 15.5938 124.24 15.5938C124.375 15.5938 124.511 15.6208 124.646 15.675C124.782 15.7292 124.89 15.7834 124.972 15.8918C125.107 16.0273 125.188 16.1899 125.243 16.3524C125.297 16.5421 125.297 16.7318 125.243 16.9215C125.188 17.1111 125.08 17.2466 124.972 17.3821Z" fill="#3EB595"/>
<path d="M120.717 20.2817C120.608 20.2817 120.5 20.2546 120.392 20.2004C120.283 20.1733 120.202 20.1191 120.121 20.0108C120.039 19.9295 119.985 19.8482 119.931 19.7398C119.877 19.6314 119.85 19.523 119.85 19.4147C119.85 19.3334 119.877 19.2521 119.877 19.1979C119.904 19.0624 119.985 18.9269 120.093 18.8186C120.148 18.7644 120.202 18.7373 120.256 18.6831C120.392 18.6018 120.527 18.5747 120.69 18.5747C120.798 18.5747 120.906 18.6018 121.015 18.656C121.123 18.6831 121.204 18.7373 121.286 18.8457C121.367 18.9269 121.421 19.0082 121.475 19.1166C121.53 19.225 121.557 19.3334 121.557 19.4418C121.557 19.523 121.53 19.6043 121.53 19.6585C121.502 19.794 121.421 19.9295 121.313 20.0378C121.259 20.092 121.204 20.1191 121.15 20.1733C121.015 20.2546 120.879 20.2817 120.717 20.2817Z" fill="#3EB595"/>
<path d="M118.143 21.6363C118.089 21.6363 118.008 21.6363 117.954 21.5822C117.9 21.5551 117.845 21.528 117.791 21.4738C117.737 21.4196 117.71 21.3925 117.683 21.3112C117.656 21.257 117.629 21.2028 117.629 21.1215C117.629 21.0673 117.629 21.0402 117.656 20.986C117.683 20.9048 117.71 20.8235 117.791 20.7693C117.818 20.7422 117.845 20.7151 117.9 20.688C117.981 20.6338 118.062 20.6338 118.143 20.6338C118.198 20.6338 118.279 20.6338 118.333 20.688C118.387 20.7151 118.441 20.7422 118.496 20.7964C118.55 20.8506 118.577 20.8777 118.604 20.9589C118.631 21.0131 118.658 21.0673 118.658 21.1486C118.658 21.2028 118.658 21.2299 118.631 21.2841C118.604 21.3654 118.577 21.4467 118.496 21.5009C118.469 21.528 118.441 21.5551 118.387 21.5822C118.306 21.6092 118.225 21.6363 118.143 21.6363Z" fill="#3EB595"/>
<path d="M140.605 60.1401C140.605 60.2214 140.551 60.5195 140.578 60.3298C140.605 60.113 140.551 60.4924 140.551 60.5465C140.551 60.384 140.551 60.1943 140.551 60.0317C140.633 60.4382 140.497 61.0072 140.064 61.1969C139.413 61.4949 138.709 61.7117 138.004 61.9556C137.218 62.2266 135.918 62.8498 135.457 61.7659C135.295 61.3866 135.403 60.953 135.701 60.682C135.945 60.4653 136.162 60.3569 136.46 60.2485C136.758 60.1401 137.056 60.0317 137.354 59.9233C137.977 59.7065 138.6 59.4627 139.251 59.3001C139.684 59.1917 140.226 59.3543 140.416 59.7878C140.362 59.6794 140.28 59.5982 140.199 59.544C140.28 59.5982 140.362 59.6523 140.416 59.7336C140.524 59.842 140.578 59.9775 140.605 60.1401Z" fill="#3EB595"/>
<path d="M146.539 57.0783C146.62 57.1867 146.648 57.3222 146.648 57.4306C146.62 57.3222 146.593 57.2409 146.566 57.1325C146.729 57.4035 146.648 57.6745 146.539 57.9454C146.458 58.0809 146.322 58.1893 146.214 58.2977C146.079 58.379 146.106 58.379 145.916 58.4602C145.889 58.4602 145.889 58.4873 145.862 58.4873C145.808 58.5144 145.726 58.5144 145.672 58.5415C145.455 58.5686 145.211 58.5415 145.022 58.4332C144.805 58.2977 144.67 58.0538 144.67 57.8099C144.67 57.6745 144.697 57.5661 144.778 57.4306C144.832 57.3222 144.941 57.2409 145.049 57.1596C145.13 57.0783 145.266 57.0783 145.374 57.0242C145.32 57.0512 145.239 57.0783 145.184 57.1054C145.32 57.0513 145.455 56.9971 145.591 56.97C145.618 56.97 145.672 56.9429 145.699 56.9429C145.808 56.9158 145.889 56.9158 145.997 56.8887C145.943 56.8887 145.862 56.9158 145.808 56.9158C145.835 56.9158 145.835 56.9158 145.862 56.9158C145.889 56.9158 145.916 56.9158 145.943 56.9158C145.997 56.8887 146.051 56.8887 146.106 56.9158C146.16 56.9158 146.214 56.9429 146.268 56.97C146.295 56.97 146.322 56.9971 146.377 57.0242C146.241 56.9971 146.079 56.9971 145.943 56.97C145.97 56.97 145.997 56.97 146.024 56.97C146.133 56.9429 146.241 56.9429 146.322 56.97C146.35 56.9971 146.377 56.9971 146.431 57.0242C146.458 56.97 146.512 57.0242 146.539 57.0783Z" fill="#3EB595"/>
<path d="M153.531 54.0436C153.504 54.0707 153.449 54.0978 153.422 54.1249C153.395 54.152 153.395 54.152 153.368 54.1791L153.341 54.2062C153.314 54.2333 153.287 54.2333 153.26 54.2604C153.233 54.2875 153.206 54.2875 153.179 54.3146C153.151 54.3417 153.097 54.3688 153.07 54.3688C153.043 54.3688 153.016 54.3959 153.016 54.3959C152.908 54.45 152.799 54.4771 152.691 54.4771C152.637 54.4771 152.582 54.45 152.528 54.45C152.474 54.4229 152.42 54.3959 152.366 54.3688C152.501 54.3959 152.637 54.3959 152.772 54.423C152.745 54.423 152.745 54.423 152.718 54.423C152.691 54.423 152.664 54.423 152.637 54.423C152.555 54.423 152.582 54.423 152.501 54.423C152.447 54.423 152.366 54.3959 152.311 54.3688C152.284 54.3417 152.257 54.3146 152.203 54.2875C152.176 54.2604 152.176 54.2604 152.176 54.2333C152.149 54.2062 152.149 54.2062 152.149 54.1791C152.122 54.152 152.122 54.0978 152.095 54.0707C152.095 54.0165 152.095 53.9894 152.068 53.9352C152.068 53.881 152.068 53.8539 152.095 53.7997C152.095 53.7455 152.122 53.7185 152.149 53.6643C152.149 53.6372 152.176 53.6372 152.176 53.6101C152.149 53.7456 152.149 53.881 152.122 54.0165C152.095 53.9894 152.095 53.9352 152.095 53.9081C152.068 53.8268 152.068 53.7455 152.095 53.6643C152.095 53.6372 152.122 53.6101 152.122 53.583C152.149 53.5017 152.176 53.4475 152.257 53.3933C152.284 53.3662 152.284 53.3662 152.311 53.3391C152.339 53.312 152.366 53.2578 152.393 53.2307C152.447 53.1765 152.555 53.1223 152.61 53.0682C152.637 53.0411 152.691 53.014 152.718 52.9869C152.799 52.9327 152.88 52.9056 152.962 52.9056C153.043 52.8785 153.124 52.8785 153.206 52.9056C153.26 52.9327 153.314 52.9598 153.368 52.9598C153.449 52.9869 153.504 53.0681 153.558 53.1223C153.585 53.1494 153.612 53.2036 153.639 53.2578C153.666 53.3391 153.693 53.4204 153.693 53.5017C153.693 53.5559 153.666 53.6101 153.666 53.6643C153.666 53.8539 153.612 53.9623 153.531 54.0436Z" fill="#3EB595"/>
<path d="M69.5957 125.304L69.5932 125.305C68.0128 125.898 66.6857 127.07 65.5028 128.376L65.5019 128.377C64.2453 129.756 63.1773 131.296 62.6342 133.022C62.0898 134.754 62.1045 136.679 62.9257 138.215L62.9258 138.215C63.9182 140.072 65.9209 141.104 67.9892 141.181C69.4954 141.236 71.0077 141.089 72.1448 140.234C73.1487 139.465 73.7624 138.279 74.2753 136.995C74.3042 136.922 74.3332 136.849 74.3623 136.775C75.0501 135.037 75.7761 133.203 76.1594 131.425C76.5219 129.285 75.9995 126.855 74.2906 125.662C72.9871 124.758 71.1504 124.711 69.5957 125.304Z" stroke="#F4D45D"/>
<path d="M176.923 2.89104C175.99 3.70624 176.265 5.42097 177.307 6.09562C178.35 6.77027 179.777 6.46106 180.71 5.61775C181.615 4.77443 182.054 3.50947 182.219 2.27261C182.328 1.4293 182.274 0.50165 181.752 -0.144889C180.874 -1.21309 179.091 -0.90387 178.158 0.108105C177.225 1.12008 176.923 2.55371 176.649 3.90301" fill="#3EB595"/>
<path d="M52.3026 47.1478C52.77 46.0119 52.9075 44.5514 51.9727 43.767C50.5704 42.604 48.4257 43.8482 47.2984 44.7677C46.171 45.6873 44.7412 46.661 43.9713 47.9052C43.2565 49.0682 43.5589 50.718 44.4113 51.7187C45.4836 52.9629 47.4633 52.2326 48.6182 51.5024C50.2679 50.5016 51.5877 48.9329 52.3026 47.1478Z" fill="#3EB595"/>
<path d="M92.3779 49.1695C91.5642 49.4549 90.642 50.1684 90.9133 50.9962C91.076 51.51 91.6185 51.7383 92.1067 51.9096C94.3037 52.6231 96.6364 52.9371 98.9419 52.8229C100.081 52.7658 101.22 52.6231 102.332 52.3663C103.309 52.1379 104.557 51.9096 105.289 51.1389C106.292 50.0543 105.967 48.2846 104.557 47.9707C103.092 47.6567 101.464 48.0277 99.9726 47.9992C97.3687 47.9421 94.8462 48.2561 92.3779 49.1695Z" fill="#3EB595"/>
<path d="M19.5132 81.0041C19.73 83.3614 18.2668 85.6104 16.6952 87.2633C14.9068 89.1871 12.6308 90.5419 10.5444 92.1135C10.0296 92.4929 9.54182 92.8722 9.05409 93.3058C8.67475 93.6309 8.2683 94.0644 8.13282 94.4438C8.13282 94.4709 8.02444 94.796 8.05153 94.6877C8.05153 94.7418 8.05153 94.8231 8.05153 94.8773C8.05153 94.7418 8.05153 94.8773 8.05153 94.9315C8.13282 95.1212 8.07862 95.0128 8.07862 94.9857C8.13282 95.1212 8.13283 95.0941 8.10573 95.0399C8.15992 95.1212 8.18701 95.1212 8.13282 95.0941C8.21411 95.1483 8.2954 95.2025 8.37669 95.2296C8.2954 95.2025 8.53926 95.2838 8.59346 95.2838C8.75603 95.3109 8.70183 95.3109 8.83731 95.3109C9.08118 95.338 9.43343 95.3109 9.62311 95.2838C11.9263 94.9586 13.7959 93.0348 15.3946 91.409C16.9932 89.7562 18.5106 87.8865 19.4048 85.773C19.8112 84.7975 20.1906 83.6595 20.1635 82.6298C20.1635 82.5756 20.1635 82.5215 20.1635 82.4673C20.1635 82.6028 20.1635 82.4673 20.1635 82.4402C20.1364 82.3318 20.1093 82.2234 20.0822 82.115C20.1364 82.2505 20.028 82.0066 20.0009 81.9795C20.1093 82.115 20.0009 81.9795 20.0009 81.9795C20.0551 82.0337 20.0822 82.0337 20.028 82.0066C19.9738 81.9795 19.9738 81.9795 20.0551 82.0066C20.0551 82.0066 19.9738 82.0066 20.0009 81.9795C20.0009 81.9795 20.1093 81.9524 20.0009 82.0066C19.9467 82.0337 19.8925 82.0608 19.8383 82.115C19.6487 82.2776 19.5674 82.5215 19.5132 82.7653C19.3506 83.3614 19.2693 83.9847 19.0526 84.5808C18.8358 85.1769 18.5648 85.773 18.2397 86.3149C17.6165 87.3988 16.7765 88.4013 15.8823 89.2684C14.8797 90.2439 13.7959 91.0839 12.7121 91.9509C12.1972 92.3574 11.6824 92.7367 11.1947 93.1432C10.9779 93.3328 10.7611 93.5225 10.5715 93.7393C10.5715 93.7393 10.436 93.929 10.4089 93.9832C10.3818 94.0644 10.3547 94.1457 10.3276 94.1999C10.3276 94.0915 10.3818 94.3354 10.3276 94.227C10.3005 94.1186 10.3818 94.3625 10.3547 94.2541C10.3005 94.1186 10.3547 94.2541 10.436 94.3083C10.3005 94.1999 10.436 94.3083 10.4631 94.3083C10.3547 94.3083 10.436 94.3083 10.4902 94.3083C10.5444 94.3083 10.5986 94.3354 10.6528 94.3625C10.4631 94.3354 10.7341 94.3625 10.7611 94.3625C10.8153 94.3625 10.9237 94.3354 10.7882 94.3625C10.8424 94.3354 10.9237 94.3354 10.9779 94.3083C10.9508 94.3083 10.8424 94.3896 11.0592 94.2812C11.1134 94.2541 11.1947 94.1999 11.2489 94.1728C11.4656 94.0373 11.6282 93.8748 11.8179 93.6851C12.7392 92.7909 13.5791 91.8426 14.392 90.8671C15.9636 88.9433 17.2913 86.7756 18.5106 84.5808C18.8087 84.0388 19.188 83.5511 19.5403 83.0363C19.8925 82.5215 20.6512 82.8195 20.5428 83.4698C20.4074 84.2014 20.2177 84.8517 19.9196 85.5291C19.6216 86.1794 19.3235 86.8298 18.9713 87.453C18.2939 88.6994 17.5081 89.8645 16.6681 91.0026C15.801 92.1406 14.8798 93.2516 13.9043 94.2812C12.9017 95.3109 11.7637 96.5031 10.1921 96.205C9.46052 96.0696 8.83732 95.5547 8.59346 94.8231C8.34959 94.0373 8.64765 93.2516 9.13538 92.6283C9.56892 92.0593 10.165 91.6258 10.734 91.1922C11.3573 90.7045 12.0076 90.2168 12.6579 89.7291C14.7443 88.1575 16.9391 86.2878 17.7249 83.6866C17.9416 83.0092 17.9958 82.2776 18.2939 81.6273C18.619 80.9499 19.2964 80.3809 20.0822 80.3809C21.5725 80.3809 22.0873 81.9524 21.9518 83.1989C21.6538 85.9356 20.299 88.4013 18.619 90.5419C17.779 91.5987 16.8578 92.5742 15.8823 93.5225C14.8797 94.498 13.823 95.4193 12.6308 96.1238C11.4656 96.8012 10.0566 97.2889 8.70183 97.1263C7.94314 97.045 7.21156 96.747 6.75092 96.0967C6.31739 95.5005 6.26319 94.7148 6.50705 94.0373C7.02188 92.6283 8.34959 91.6529 9.54182 90.7858C10.7341 89.9458 11.9534 89.16 13.1727 88.3471C15.2862 86.9381 17.4268 85.204 18.4293 82.7924C18.6732 82.2234 18.8629 81.6273 19.0255 81.0041C19.0255 80.5976 19.4861 80.706 19.5132 81.0041Z" fill="#F4D45D"/>
<path d="M20.2176 83.7135C19.8654 84.6618 19.5673 85.6373 19.1067 86.5586C18.6461 87.4527 18.1313 88.2656 17.5351 89.0785C16.2887 90.7313 14.7442 92.1945 13.0101 93.3325C12.4953 93.6848 11.9804 93.9828 11.4114 94.2267C11.1675 94.3351 10.8966 94.4435 10.6256 94.4706C10.4631 94.4977 10.3276 94.5248 10.165 94.5248C10.1108 94.5248 10.0295 94.5248 9.97532 94.4977C9.92112 94.4706 9.86694 94.4706 9.81275 94.4164C9.78565 94.3893 9.78564 94.3893 9.83983 94.4164C9.51468 94.4164 9.40631 94.0641 9.59598 93.8203C9.56888 93.8474 9.54178 94.037 9.56887 93.8474C9.59597 93.739 9.62307 93.6577 9.67726 93.5764C9.73146 93.4951 9.81274 93.4138 9.89403 93.3325C10.0566 93.1429 10.2734 93.0074 10.463 92.8448C10.8695 92.5468 11.2759 92.2487 11.7095 91.9777C12.5224 91.4358 13.1998 90.921 13.9314 90.2978C15.3404 89.0785 16.6139 87.6424 17.6706 86.0979C18.2938 85.2038 18.9441 84.3096 19.3777 83.3071C19.5944 82.9006 20.4073 83.2529 20.2176 83.7135Z" fill="#F4D45D"/>
<path d="M10.9507 93.3872C10.8152 93.8478 10.5442 94.2001 10.1649 94.4981C9.75845 94.8233 9.32491 95.04 8.83718 95.1213C8.99976 94.8233 9.18943 94.4981 9.35201 94.2001C9.4062 94.4981 9.43331 94.7962 9.4604 95.1213C9.18944 94.8504 8.91847 94.5794 8.62041 94.2814C8.81009 94.2814 8.99976 94.2814 9.16234 94.2814C9.18943 94.2814 9.35201 94.2543 9.21653 94.2814C9.08105 94.3084 9.24363 94.2814 9.27073 94.2814C9.35201 94.2543 9.4604 94.2543 9.54169 94.2272C9.70426 94.173 9.86683 94.1188 10.0565 94.0646C10.1107 94.0375 10.1378 94.0375 10.192 94.0104C10.2191 94.0104 10.3817 93.9291 10.2462 93.9833C10.1107 94.0375 10.2733 93.9562 10.3004 93.9562C10.3546 93.9291 10.3817 93.9291 10.4359 93.902C10.5984 93.8207 10.7339 93.7394 10.8965 93.6582C10.9778 93.604 11.0591 93.5769 11.1403 93.5227C11.1674 93.4956 11.2216 93.4685 11.2487 93.4414C11.33 93.3872 11.1133 93.5498 11.2487 93.4414C11.3571 93.3601 11.4655 93.2788 11.601 93.2517C11.5468 93.2788 11.5468 93.2788 11.601 93.2517C11.6552 93.2246 11.6823 93.1704 11.7365 93.1433C11.899 93.0079 12.0345 92.8724 12.2242 92.7911C12.4952 92.6556 12.8203 92.8182 12.8203 93.1433C12.8203 93.3872 12.739 93.6311 12.6306 93.8478C12.6035 93.902 12.5764 93.9562 12.5494 93.9833C12.5494 94.0104 12.441 94.1188 12.4952 94.0375C12.5493 93.9833 12.4681 94.0646 12.4681 94.0917C12.3868 94.2543 12.3868 94.3085 12.2513 94.4439C11.9803 94.7962 11.6281 95.0942 11.2487 95.3381C10.8694 95.582 10.4359 95.7445 10.0023 95.8529C9.56879 95.9613 9.08105 96.0155 8.62041 95.9613C8.40364 95.9342 8.18687 95.88 8.02429 95.7174C7.88881 95.5549 7.75334 95.3381 7.78044 95.1213C7.80754 94.8233 7.83462 94.5252 7.88881 94.2001C7.94301 93.902 8.29526 93.6311 8.62041 93.6582C8.7017 93.6582 8.8101 93.6582 8.91848 93.6582C8.94558 93.6582 8.99976 93.6582 9.02685 93.6582C9.16234 93.6582 8.94558 93.6852 9.05396 93.6582C9.24363 93.6311 9.4062 93.5769 9.56878 93.5227C9.59587 93.5227 9.65008 93.4956 9.59588 93.5227C9.65008 93.4956 9.67717 93.4956 9.73136 93.4685C9.81265 93.4414 9.86684 93.3872 9.94813 93.333C10.0836 93.2517 10.2462 93.1433 10.3546 93.0349C10.5984 92.8182 11.0591 93.0349 10.9507 93.3872Z" fill="#F4D45D"/>
<path d="M19.8928 81.9255C19.8928 82.2235 19.9199 82.5216 19.9199 82.8197C19.9199 82.9551 19.9199 83.0906 19.8928 83.2532C19.8928 83.3616 19.8657 83.47 19.8386 83.5784C19.8115 83.6868 19.7844 83.7951 19.7302 83.9035C19.649 84.0661 19.4322 84.1745 19.2425 84.1474C19.0528 84.1203 18.8903 83.9848 18.8361 83.7952C18.7277 83.4429 18.8361 83.0635 18.8903 82.7113C18.9445 82.4132 19.0258 82.1422 19.0799 81.8442C19.1341 81.6274 19.3509 81.519 19.5406 81.5461C19.7302 81.5461 19.8928 81.7087 19.8928 81.9255Z" fill="#F4D45D"/>
<path d="M20.0543 81.9797C20.0814 82.1152 20.1085 82.2507 20.1356 82.3861C20.1085 82.3319 20.1085 82.3049 20.0814 82.2507C20.1085 82.3319 20.1356 82.3861 20.1627 82.4674C20.1627 82.4945 20.1898 82.5487 20.1898 82.5758C20.2168 82.6571 20.2168 82.7113 20.2439 82.7926C20.2981 83.1178 20.3252 83.5242 20.0543 83.7681C19.9459 83.8765 19.7562 83.9578 19.5936 83.9578C19.4311 83.9578 19.2685 83.8765 19.133 83.7681C18.862 83.5242 18.8891 83.0907 18.9433 82.7926C18.9704 82.7113 18.9704 82.6571 18.9975 82.5758C18.9975 82.5487 19.0246 82.4945 19.0246 82.4674C19.0517 82.3861 19.0788 82.3319 19.1059 82.2507C19.0788 82.3049 19.0788 82.3319 19.0517 82.3861C19.0788 82.2507 19.1059 82.1152 19.133 81.9797C19.1601 81.79 19.3769 81.6274 19.5665 81.6274C19.8104 81.6545 20.0272 81.7629 20.0543 81.9797Z" fill="#F4D45D"/>
<path d="M21.8705 77.0486C21.8976 77.0486 21.8976 77.0486 21.9247 77.0757C21.8434 77.0757 21.7621 77.0486 21.6537 77.0486C21.6808 77.0486 21.6808 77.0486 21.7079 77.0486C21.4098 77.2111 21.1389 77.3737 20.8408 77.5363C20.8408 77.5363 20.8408 77.5363 20.8408 77.5092C20.895 77.4279 20.9492 77.3737 21.0034 77.2924C21.1118 77.184 21.2202 77.1298 21.3286 77.0757C21.4099 77.0215 21.4911 76.9944 21.5995 76.9944C21.735 76.9673 21.8705 76.9673 22.006 77.0215C22.006 77.0215 22.0331 77.0215 22.0602 77.0215C21.9789 77.0215 21.8705 76.9944 21.7892 76.9944C21.7892 76.9944 21.7892 76.9944 21.8163 76.9944C21.8976 76.9944 22.006 77.0215 22.0873 77.0215C22.2498 77.0757 22.4124 77.1569 22.5479 77.2924C22.3311 77.2111 22.0873 77.1298 21.8705 77.0486C21.8434 77.0215 21.8434 77.0215 21.8705 77.0486C21.7892 77.0486 21.6808 77.0486 21.5995 77.0486C21.5995 77.0486 21.5995 77.0486 21.6266 77.0486C21.5453 77.0757 21.464 77.1028 21.3828 77.1569C21.3828 77.1569 21.4099 77.1569 21.4099 77.1298C21.3557 77.184 21.2744 77.2382 21.2202 77.2924C21.2473 77.2653 21.2744 77.2382 21.3286 77.2111C21.3828 77.1569 21.464 77.1027 21.5453 77.0757C21.6266 77.0215 21.7079 77.0215 21.7892 77.0215C21.8434 76.9944 21.8976 76.9944 21.9518 76.9944C21.6808 77.2111 21.4099 77.4008 21.1389 77.6176C21.1389 77.5905 21.166 77.5634 21.166 77.5634C21.166 77.6447 21.1389 77.6988 21.1389 77.7801C21.1389 77.753 21.1389 77.753 21.1389 77.7259C21.1389 77.4279 21.3015 77.184 21.5453 77.0215C21.6808 76.9402 21.8163 76.9131 21.9518 76.9131C22.0873 76.9131 22.2227 76.9402 22.3582 77.0215C22.3853 77.0486 22.4937 77.1298 22.5208 77.1569C22.575 77.2111 22.6021 77.2653 22.6563 77.3466C22.6563 77.3466 22.6563 77.3737 22.6834 77.3737C22.7105 77.455 22.7376 77.5092 22.7647 77.5905C22.575 77.4008 22.3582 77.184 22.1685 76.9944C22.2498 77.0215 22.3311 77.0486 22.3853 77.1027C22.4937 77.1569 22.575 77.2382 22.6563 77.3466C22.7105 77.4008 22.7646 77.4821 22.7917 77.5634C22.8459 77.6717 22.873 77.8072 22.873 77.9427C22.873 77.9969 22.873 78.024 22.8459 78.0782C22.8459 78.1324 22.8459 78.1595 22.8189 78.2137C22.8189 78.2137 22.8189 78.2137 22.8189 78.2407C22.7918 78.322 22.7647 78.4033 22.7105 78.4846V78.5117C22.7376 78.4304 22.7647 78.3491 22.8189 78.2678C22.8189 78.1053 22.8189 77.9156 22.8189 77.753C22.9272 78.1053 22.8189 78.5117 22.5479 78.7556C22.3582 78.9452 22.2769 78.9452 22.0331 79.0536C21.9518 79.0536 21.8434 79.0807 21.7621 79.0807C21.6266 79.0807 21.4911 79.0536 21.3557 78.9994C21.2744 78.9723 21.1931 78.9181 21.1118 78.8639C21.0034 78.7826 20.895 78.7014 20.8408 78.5659C20.8137 78.5117 20.8137 78.4846 20.7866 78.4304C20.7595 78.3762 20.7324 78.3491 20.7324 78.2949C20.895 78.4846 21.0305 78.7014 21.1931 78.891C21.1118 78.8368 21.0305 78.7826 20.9492 78.7014L20.9221 78.6743C20.8679 78.6201 20.8137 78.5388 20.7595 78.4575C20.7595 78.4575 20.7595 78.4575 20.7595 78.4304C20.7324 78.3491 20.7054 78.2678 20.6512 78.1866C20.6512 78.1053 20.6241 78.024 20.6241 77.9156C20.6241 77.8343 20.6512 77.753 20.6512 77.6447C20.6783 77.5092 20.7324 77.4008 20.8137 77.3195C20.8679 77.2382 20.9221 77.184 20.9763 77.1569C21.0305 77.1028 21.1118 77.0486 21.1931 77.0215C21.2744 76.9673 21.3557 76.9673 21.4369 76.9673C21.5995 76.9944 21.735 77.0215 21.8705 77.0486Z" fill="#F4D45D"/>
<path d="M23.9575 73.9051C23.9304 73.9051 23.9304 73.9051 23.9033 73.9051H23.8762C23.822 73.9051 23.7678 73.9322 23.7136 73.9322C23.6594 73.9322 23.6052 73.9322 23.5239 73.9051C23.4968 73.9051 23.4697 73.878 23.4426 73.878C23.4155 73.878 23.3884 73.8509 23.3342 73.8238C23.5239 73.8238 23.7136 73.8238 23.9033 73.8238C23.8491 73.8509 23.822 73.878 23.7678 73.878C23.7136 73.9051 23.6323 73.9322 23.5781 73.9322C23.551 73.9322 23.5239 73.9322 23.4968 73.9322H23.4697C23.4155 73.9322 23.3613 73.9322 23.3071 73.9051C23.1717 73.878 23.0362 73.7425 23.0091 73.607C23.0091 73.5799 23.0091 73.5257 22.982 73.4715V73.4444V73.4173C22.982 73.336 23.0091 73.2818 23.0362 73.2005C23.0362 73.1734 23.0633 73.1463 23.0633 73.1192C23.0904 73.0651 23.1175 73.038 23.1175 72.9838C23.1175 73.1734 23.1175 73.3631 23.1175 73.5528C23.1175 73.5528 23.1175 73.5528 23.1175 73.5257C23.0904 73.4715 23.0633 73.4173 23.0633 73.3631C23.0633 73.336 23.0362 73.3089 23.0633 73.2818C23.0362 73.2276 23.0362 73.1734 23.0633 73.1192C23.0633 73.0651 23.0633 73.0379 23.0904 73.0108C23.0904 72.9838 23.0904 72.9838 23.0904 72.9567C23.1175 72.8483 23.1717 72.7399 23.2801 72.6315C23.3613 72.5502 23.4697 72.496 23.6052 72.4418C23.8491 72.3876 24.12 72.4418 24.2826 72.6315C24.4723 72.8212 24.5265 73.065 24.4723 73.3089C24.4452 73.4173 24.391 73.5257 24.2826 73.6341C24.1742 73.8238 24.0658 73.878 23.9575 73.9051Z" fill="#F4D45D"/>
</g>
</svg>
