<svg width="570" height="429" viewBox="0 0 570 429" fill="none" xmlns="http://www.w3.org/2000/svg">
<mask id="mask0" mask-type="alpha" maskUnits="userSpaceOnUse" x="0" y="0" width="570" height="429">
<rect width="570" height="429" fill="#C4C4C4"/>
</mask>
<g mask="url(#mask0)">
<path d="M424 366.122C445.028 372.15 467.65 374.838 488.677 368.737C509.632 362.636 528.556 346.294 533.269 324.94C535.01 316.951 534.792 308.671 535.155 300.536C535.517 292.329 536.46 283.976 540.375 276.786C544.291 269.595 551.686 263.858 559.88 264.003C566.623 264.148 572.786 268.215 577.354 273.154C592.363 289.278 593.741 315.208 584.097 335.036C574.454 354.864 555.457 368.882 534.865 376.799C499.553 390.308 458.006 387.04 425.451 367.647L424 366.122Z" fill="#F4D45D"/>
<path d="M76.5958 324.615C81.4594 320.799 87.9925 317.129 93.4367 320.065C97.2114 322.046 99.0262 326.817 98.881 331.148C98.7358 335.478 96.921 339.589 95.2515 343.552C89.3717 356.984 83.4919 370.489 75.7248 382.82C67.9576 395.224 58.158 406.528 45.8177 414.308C42.1156 416.657 37.5424 418.932 33.0418 417.611C29.9204 416.657 27.4524 414.528 28.1057 411.078C28.759 407.482 29.7027 403.885 30.4286 400.362C31.2997 396.252 32.3159 392.215 33.5499 388.178C36.018 380.251 39.212 372.544 43.1318 365.205C47.0517 357.865 51.6249 350.892 56.8513 344.359C62.0778 337.9 67.885 331.882 74.273 326.597C74.9989 325.863 75.7973 325.276 76.5958 324.615Z" fill="#1B6578"/>
<path d="M551.407 33.2288L551.407 33.2287L551.414 33.2226C553.518 31.203 555.629 28.7942 556.945 26.2394C558.259 23.6885 558.754 21.0478 557.73 18.504L557.73 18.5031C556.604 15.6868 554.123 14.0901 551.061 13.3136C547.995 12.536 544.411 12.6022 541.232 13.0691C513.456 17.2625 488.075 34.9785 474.697 59.4831C473.896 60.9681 473.102 62.5895 472.725 64.2273C472.351 65.8551 472.396 67.4631 473.231 68.9581C473.819 69.9898 474.507 70.7088 475.306 71.1341C476.101 71.5571 477.049 71.713 478.204 71.5445C484.663 70.5341 491.206 68.4394 497.416 66.2604L497.416 66.2603C503.829 64.0142 510.096 61.3335 516.143 58.2186C522.193 55.1025 528.024 51.6242 533.636 47.7836C539.239 43.8762 544.553 39.607 549.577 35.0478C549.978 34.6015 550.423 34.1765 550.839 33.7791C551.037 33.5891 551.23 33.4055 551.407 33.2288Z" stroke="#1B6578"/>
<path d="M575.338 11.9028C578.449 9.5175 579.244 5.34323 577.219 2.43616C575.193 -0.396379 570.997 -0.84363 567.886 1.54166C564.775 3.92695 563.979 8.10122 566.005 11.0083C568.103 13.8408 572.299 14.2881 575.338 11.9028Z" fill="#1B6578"/>
<path d="M482.204 229.976C495.892 203.18 500.407 170.413 522.832 150.316C540.234 134.733 564.698 130.365 587.778 126.724C582.9 110.122 566.372 98.4713 549.189 96.7966C532.006 95.1218 514.75 102.331 501.717 113.763C488.757 125.195 479.656 140.413 472.957 156.36C466.259 172.306 461.672 188.981 456.284 205.365C450.896 221.748 444.561 238.059 434.732 252.258C428.762 260.923 421.481 268.641 413.326 275.195C405.099 281.821 395.925 287.282 386.168 291.36C383.474 292.452 380.707 293.471 377.941 294.418C376.557 294.855 375.174 295.292 373.718 295.656C372.625 295.947 371.096 296.093 370.223 296.821C372.189 297.185 374.591 296.894 376.557 296.821C378.814 296.748 381.071 296.603 383.328 296.384C387.77 295.947 392.211 295.292 396.653 294.345C405.39 292.525 413.909 289.758 422.063 286.117C430.291 282.476 438.081 277.962 445.362 272.646C452.571 267.403 459.269 261.433 465.239 254.734C471.21 248.035 476.452 240.68 480.748 232.816C481.185 231.869 481.694 230.923 482.204 229.976Z" fill="#EB7A7D"/>
<path d="M462.429 297.685L462.43 297.684C470.316 290.453 477.139 281.549 479.433 271.262L479.433 271.262C479.784 269.7 479.848 267.861 479.447 266.339C479.046 264.822 478.215 263.707 476.823 263.371L476.821 263.37C475.951 263.155 475.053 263.331 474.14 263.745C473.224 264.16 472.336 264.794 471.505 265.438L471.504 265.439C471.234 265.646 470.965 265.853 470.695 266.06C453.74 279.087 436.302 292.485 415.665 298.604L415.664 298.605C401.561 302.726 386.599 303.228 371.983 303.084C369.91 303.084 367.695 303.103 365.579 303.446C363.464 303.789 361.484 304.45 359.866 305.71C359.502 305.998 359.114 306.322 358.839 306.687C358.567 307.048 358.451 307.389 358.521 307.735C358.593 308.092 358.87 308.428 359.325 308.776C359.622 309.004 359.928 309.19 360.237 309.379C360.416 309.489 360.597 309.599 360.777 309.718L360.777 309.718L360.78 309.72C362.805 311.079 364.897 312.364 367.059 313.505C371.391 315.791 375.938 317.648 380.629 319.004C385.323 320.362 390.236 321.291 395.15 321.792C400.057 322.292 405.036 322.292 409.943 321.792C410.25 321.755 410.554 321.736 410.851 321.718L410.875 321.717C411.168 321.699 411.456 321.682 411.76 321.649C430.614 319.432 448.47 310.566 462.429 297.685Z" stroke="#3EB595"/>
<path d="M494.991 247.577C496.99 246.768 497.949 244.409 496.91 242.724C495.87 241.039 493.151 240.297 491.152 241.106C489.153 241.982 488.194 244.207 489.153 245.959C490.113 247.712 492.752 248.588 494.831 247.847" fill="#3EB595"/>
<path d="M165.359 369.394C161.385 374.502 157.699 380.195 156.615 386.617C155.026 396.177 160.301 406.468 168.9 410.846C177.5 415.152 188.773 413.182 195.421 406.103C201.347 399.826 203.225 390.777 204.887 382.238C205.827 377.203 206.766 372.24 207.778 367.204C208.934 361.147 209.946 354.36 206.694 349.178C204.815 346.113 201.563 344.362 198.095 343.778C195.493 343.34 192.892 343.121 190.507 344.508C187.978 345.967 185.882 348.303 183.714 350.127C180.535 352.827 177.5 355.746 174.537 358.739C171.285 362.096 168.25 365.672 165.359 369.394Z" fill="#3EB595"/>
<path d="M542.927 242.885L542.926 242.887C541.091 244.576 539.497 246.608 538.669 248.978C537.845 251.336 538.001 254.078 539.394 256.012C541.434 258.82 545.605 259.173 549.038 257.933C550.754 257.313 552.357 256.416 553.976 255.471C554.172 255.356 554.369 255.24 554.567 255.124C555.983 254.293 557.424 253.446 558.936 252.776C560.531 252.065 562.198 251.536 563.831 251.018C564.294 250.871 564.754 250.725 565.209 250.576C567.288 249.895 569.286 249.144 571.098 247.946L571.099 247.945C572.426 247.073 573.721 245.874 574.451 244.512C575.168 243.173 575.337 241.69 574.466 240.144C572.641 236.978 569.152 235.593 565.258 235.253C561.372 234.913 557.192 235.63 554.176 236.553L554.176 236.553L554.168 236.556C550.067 237.734 546.178 239.868 542.927 242.885Z" stroke="#F4D45D"/>
<path d="M108.033 362.783C111.237 335.764 127.77 311.293 149.982 295.635C172.195 279.977 199.578 272.621 226.744 271.893C243.931 271.456 261.92 273.786 276.048 283.618C198.996 295.489 128.134 343.192 88.2236 410.121C100.677 373.052 113.495 335.181 137.82 304.52" fill="#EB7A7D"/>
<path d="M162.582 316.027C165.422 314.862 168.408 313.624 170.374 311.22C172.341 308.817 172.778 304.957 170.52 302.845C168.699 301.17 165.859 301.243 163.456 301.825C160.178 302.627 157.119 304.229 154.57 306.486C151.949 308.817 149.764 312.677 151.512 315.736C152.75 318.066 155.809 318.94 158.43 318.43C161.052 317.993 163.31 316.464 165.495 314.935" fill="#F4D45D"/>
<path d="M17.0001 267.667C17.0001 264.986 14.5557 262.778 11.5001 262.778C8.44456 262.778 6.00012 264.986 6.00012 267.667C6.00012 270.348 8.44456 272.556 11.5001 272.556C14.5557 272.556 17.0001 270.348 17.0001 267.667Z" fill="#1B6578"/>
<path d="M17.0001 253.287C17.0001 250.764 14.5557 239.556 11.5001 239.556C8.44456 239.556 6.00012 250.764 6.00012 253.287C6.00012 255.811 8.44456 257.889 11.5001 257.889C14.5557 257.889 17.0001 255.811 17.0001 253.287Z" fill="#1B6578"/>
<path d="M428.989 164.398C430.955 161.485 432.63 158.28 434.378 155.222C436.199 152.09 438.019 148.958 439.913 145.899C441.734 142.841 443.554 139.782 445.302 136.65C446.176 135.121 447.05 133.519 447.924 131.989C448.725 130.533 449.672 128.93 451.056 127.911C451.347 127.692 451.857 127.984 451.784 128.348C451.711 130.023 450.837 131.771 450.036 133.227C449.235 134.757 448.361 136.286 447.487 137.743C445.666 140.874 443.846 144.006 441.952 147.065C440.059 150.124 438.092 153.11 435.98 155.95C434.961 157.334 433.941 158.717 432.849 160.101C431.683 161.63 430.372 163.014 429.28 164.616C429.207 164.835 428.843 164.616 428.989 164.398Z" fill="#EB7A7D"/>
<path d="M454.406 124.196C454.333 124.051 454.333 123.832 454.333 123.687C454.333 123.468 454.26 123.323 454.333 123.104C454.406 122.667 454.479 122.303 454.624 121.866C454.916 121.065 455.207 120.264 455.644 119.535C456.008 118.807 456.372 118.152 456.882 117.496C457.173 117.132 457.465 116.768 457.829 116.477C458.12 116.258 458.484 115.894 458.921 115.967C459.14 115.967 459.285 116.113 459.358 116.331C459.431 116.695 459.285 117.059 459.212 117.423C459.067 117.788 458.921 118.225 458.63 118.589C458.193 119.244 457.756 119.9 457.392 120.628C457.028 121.283 456.663 121.939 456.226 122.667C456.008 123.031 455.862 123.395 455.571 123.687C455.425 123.832 455.353 123.978 455.207 124.124C455.134 124.124 455.134 124.196 455.061 124.196V124.269C454.988 124.342 454.916 124.415 454.77 124.488C454.551 124.342 454.406 124.269 454.406 124.196Z" fill="#EB7A7D"/>
<path d="M462.125 110.869C462.052 110.141 462.198 109.412 462.489 108.757C462.635 108.466 462.926 108.174 463.145 107.883C463.291 107.737 463.436 107.664 463.582 107.592C463.582 107.592 463.509 107.592 463.509 107.664C463.509 107.664 463.582 107.664 463.582 107.592C463.582 107.592 463.655 107.592 463.655 107.519C463.946 107.373 464.237 107.373 464.456 107.519C464.601 107.592 464.674 107.737 464.674 107.883C464.674 108.101 464.601 108.32 464.456 108.466L464.383 108.538C464.31 108.611 464.383 108.538 464.383 108.466C464.383 108.538 464.237 108.684 464.164 108.757C464.092 108.83 463.946 108.975 463.873 109.048C463.8 109.121 463.873 109.121 463.873 109.048C463.946 108.975 463.946 108.975 463.8 109.121L463.728 109.194C463.655 109.339 463.8 109.048 463.728 109.194L463.655 109.267C463.509 109.485 463.363 109.776 463.218 109.995C463.218 109.995 463.145 110.141 463.218 109.995C463.218 109.995 463.218 110.068 463.145 110.068C463.145 110.141 463.072 110.213 463.072 110.286C463.072 110.359 463.072 110.432 462.999 110.505C462.999 110.578 462.999 110.578 462.999 110.505C462.999 110.578 462.999 110.578 462.999 110.65C462.999 110.942 462.781 111.16 462.489 111.16C462.344 111.306 462.125 111.16 462.125 110.869Z" fill="#EB7A7D"/>
<path d="M349.387 194.476C356.524 190.835 362.278 184.353 368.468 179.401C371.454 176.924 374.367 174.084 377.572 171.899C379.174 170.807 382.306 169.642 383.835 171.681C387.549 176.633 375.751 183.698 372.619 185.81C365.628 190.616 357.617 192.291 350.115 195.714C349.241 196.078 348.513 194.84 349.387 194.476Z" fill="#F4D45D"/>
<path d="M386.602 165.345C386.821 164.325 387.549 163.233 388.496 162.796C390.317 161.776 392.939 163.014 392.866 165.272C392.793 166.291 392.356 167.53 391.482 168.185C390.972 168.622 390.462 168.913 389.807 168.986C389.151 169.059 388.496 168.986 387.986 168.622C386.821 167.894 386.311 166.656 386.602 165.345Z" fill="#F4D45D"/>
<path d="M392.647 160.174C392.72 159.591 393.011 159.009 393.521 158.644C394.104 158.135 394.759 157.916 395.56 158.135C395.924 158.207 396.216 158.353 396.507 158.644C397.235 159.373 397.308 160.465 396.798 161.339C396.58 161.703 396.288 162.067 395.924 162.286C395.706 162.432 395.415 162.504 395.123 162.577C394.468 162.796 393.667 162.504 393.23 162.067C392.647 161.558 392.574 160.902 392.647 160.174Z" fill="#F4D45D"/>
<path d="M397.017 157.406C396.944 157.334 396.944 157.334 397.017 157.406C396.361 156.969 396.07 156.314 396.215 155.586C396.288 155.367 396.361 155.222 396.434 155.003C396.725 154.42 397.526 154.056 398.182 154.275C398.837 154.493 399.274 155.076 399.347 155.731C399.347 155.95 399.347 156.168 399.274 156.314C399.201 156.678 398.983 156.897 398.692 157.115C398.4 157.334 398.109 157.406 397.745 157.479C397.526 157.552 397.162 157.479 397.017 157.406Z" fill="#F4D45D"/>
<path d="M425.857 115.53C426.003 114.875 426.148 114.292 426.221 113.636C426.294 112.981 426.221 112.326 426.44 111.743C426.44 112.107 426.44 112.471 426.44 112.835C425.711 110.723 428.406 108.538 430.227 109.995C432.048 111.379 430.591 114.51 428.333 114.292C428.697 114.219 428.989 114.073 429.353 114.001C428.916 114.292 428.406 114.365 427.969 114.656C427.459 115.02 427.168 115.457 426.877 115.967C426.585 116.55 425.711 116.185 425.857 115.53Z" fill="#F4D45D"/>
<path d="M431.101 106.208C431.101 106.135 431.101 106.062 431.174 105.989C431.246 106.208 431.246 106.354 431.319 106.572C431.246 106.499 431.173 106.426 431.101 106.426C430.518 105.917 430.737 105.043 431.319 104.679C431.319 104.679 431.319 104.679 431.392 104.679C431.683 104.533 432.047 104.46 432.339 104.606C432.63 104.751 432.849 104.97 432.921 105.261V105.334C433.213 106.062 432.484 106.718 431.829 106.718C431.756 106.718 431.683 106.718 431.61 106.718C431.756 106.645 431.902 106.499 432.12 106.426C432.12 106.499 432.047 106.572 432.047 106.645C431.902 106.863 431.61 106.936 431.392 106.863C431.174 106.718 431.028 106.426 431.101 106.208Z" fill="#F4D45D"/>
<path d="M147.142 279.977C153.187 273.714 158.794 268.47 166.733 264.683C174.525 260.969 182.682 258.492 191.13 256.817C200.744 254.924 210.43 253.904 220.189 253.103C230.239 252.302 240.435 250.554 250.486 251.064C251.651 251.137 252.379 252.885 251.141 253.467C242.766 257.327 233.371 258.055 224.34 259.221C214.654 260.459 204.968 261.406 195.354 263.153C187.416 264.61 179.478 266.576 171.831 269.271C163.892 272.038 154.716 275.68 148.162 280.996C147.433 281.579 146.486 280.705 147.142 279.977Z" fill="#1B6578"/>
<path d="M121.069 300.369C121.36 299.932 121.797 299.568 122.016 299.058C122.234 298.621 122.89 298.475 123.327 298.839C123.764 299.131 123.764 299.786 123.4 300.15C123.108 300.442 122.817 300.951 122.599 301.243C122.307 301.607 121.797 301.825 121.433 301.534C120.996 301.315 120.778 300.733 121.069 300.369Z" fill="#1B6578"/>
<path d="M128.352 294.178C128.571 293.377 129.008 292.576 129.663 291.993C129.882 291.775 130.1 291.557 130.392 291.411C131.047 290.901 131.63 290.683 132.504 290.61C133.378 290.537 134.324 291.265 134.616 292.066C134.98 292.94 134.761 293.887 134.106 294.615C133.669 295.052 133.305 295.271 132.722 295.489C133.232 295.271 132.431 295.635 132.358 295.708C131.775 295.999 131.193 296.218 130.61 296.436C129.299 296.946 127.988 295.416 128.352 294.178Z" fill="#1B6578"/>
<path d="M138.111 287.842V287.769C138.184 288.061 138.257 288.352 138.33 288.57C138.111 288.279 138.039 287.842 138.039 287.478C138.111 287.842 138.184 288.134 138.33 288.498C138.111 288.061 137.966 287.697 137.966 287.26C137.966 286.895 138.039 286.604 138.184 286.24C138.475 285.657 138.84 285.075 139.422 284.783C140.369 284.274 141.607 284.346 142.408 285.148C143.137 285.949 143.355 287.114 142.772 288.134C142.481 288.716 141.898 289.153 141.316 289.372C141.025 289.517 140.66 289.59 140.296 289.59C139.859 289.59 139.422 289.444 139.058 289.226C139.422 289.299 139.714 289.372 140.078 289.517C139.714 289.517 139.277 289.444 138.985 289.226C139.277 289.299 139.568 289.372 139.786 289.444H139.714C138.767 289.372 138.039 288.643 138.111 287.842Z" fill="#1B6578"/>
<path d="M499.559 230.089C499.559 230.016 499.559 229.944 499.559 229.871C499.705 230.308 499.778 230.672 499.923 231.109C499.851 230.89 499.778 230.745 499.705 230.526C499.632 230.235 499.559 229.871 499.632 229.579C499.632 229.361 499.705 229.142 499.778 228.997C499.851 228.778 499.923 228.633 500.069 228.487C500.215 228.196 500.506 227.977 500.725 227.832C500.943 227.759 501.089 227.686 501.307 227.613C501.526 227.613 501.744 227.54 501.963 227.54C502.327 227.54 502.618 227.613 502.91 227.759C503.128 227.832 503.274 227.904 503.419 228.05C503.638 228.123 503.783 228.341 503.856 228.487C504.075 228.705 504.22 228.997 504.293 229.288C504.293 229.507 504.366 229.725 504.366 229.944C504.366 230.162 504.293 230.381 504.293 230.599C504.22 230.817 504.148 230.963 504.075 231.182C503.929 231.473 503.711 231.691 503.419 231.837C503.201 232.056 502.909 232.201 502.618 232.274C503.128 231.91 503.565 231.546 504.075 231.182C504.002 231.254 504.002 231.254 503.929 231.327C503.783 231.473 503.711 231.619 503.565 231.764C503.346 231.983 503.128 232.128 502.837 232.274C502.618 232.347 502.473 232.42 502.254 232.42C501.963 232.493 501.599 232.493 501.307 232.347C501.089 232.274 500.943 232.201 500.725 232.128C500.579 231.983 500.433 231.91 500.288 231.764C500.069 231.546 499.924 231.327 499.778 231.036C499.632 230.672 499.559 230.38 499.559 230.089Z" fill="#3EB595"/>
<path d="M504.73 222.442C504.73 222.369 504.73 222.369 504.803 222.296C504.876 222.151 504.876 222.078 504.949 221.932C505.167 221.568 505.458 221.35 505.822 221.277C505.968 221.277 506.041 221.277 506.187 221.204C506.405 221.204 506.551 221.204 506.696 221.35C506.842 221.35 506.915 221.423 506.988 221.495C507.133 221.568 507.279 221.714 507.352 221.86C507.425 221.932 507.498 222.078 507.498 222.224C507.57 222.442 507.57 222.733 507.498 222.952V223.025C507.498 223.098 507.498 223.098 507.425 223.17C507.352 223.389 507.279 223.535 507.206 223.68C507.133 223.826 506.988 223.972 506.842 224.044C506.696 224.117 506.478 224.19 506.332 224.19C506.114 224.263 505.968 224.19 505.75 224.19C505.604 224.117 505.531 224.117 505.385 224.044C505.167 223.899 505.021 223.753 504.876 223.535C504.803 223.389 504.803 223.316 504.73 223.17C504.657 222.952 504.657 222.661 504.73 222.442Z" fill="#3EB595"/>
<path d="M509.246 214.722C509.319 214.722 509.319 214.795 509.246 214.722C509.027 214.795 508.809 214.795 508.59 214.868C508.59 214.868 508.663 214.868 508.663 214.795C508.736 214.722 508.809 214.722 508.882 214.65C509.027 214.577 509.173 214.577 509.391 214.65C509.464 214.65 509.464 214.65 509.537 214.722C509.683 214.722 509.756 214.795 509.828 214.941C509.901 215.014 509.901 215.087 509.974 215.159C510.047 215.305 510.12 215.451 510.12 215.669V215.742C510.047 215.524 509.901 215.305 509.828 215.087C509.901 215.159 509.974 215.232 510.047 215.305C510.193 215.451 510.265 215.596 510.265 215.742C510.338 215.888 510.338 216.106 510.265 216.252C510.265 216.397 510.192 216.616 510.12 216.762C510.047 216.834 509.974 216.907 509.901 217.053C509.756 217.199 509.61 217.271 509.464 217.344C509.319 217.417 509.173 217.49 508.954 217.49C508.809 217.49 508.59 217.49 508.445 217.344C508.299 217.271 508.153 217.199 508.008 217.053C507.935 216.98 507.862 216.907 507.789 216.762C507.716 216.616 507.644 216.47 507.644 216.252C507.571 216.106 507.644 215.888 507.644 215.742C507.716 215.669 507.716 215.524 507.789 215.451C507.935 215.232 508.081 215.087 508.299 214.941C508.372 214.868 508.517 214.868 508.59 214.795C508.809 214.65 509.027 214.65 509.246 214.722Z" fill="#3EB595"/>
<path d="M512.596 208.24H512.669C512.669 208.24 512.669 208.24 512.741 208.24H512.814C512.96 208.24 512.887 208.24 512.96 208.24H513.033H513.106C513.178 208.24 513.251 208.313 513.324 208.385C513.397 208.458 513.397 208.531 513.47 208.604V208.677C513.47 208.75 513.47 208.823 513.47 208.823V208.896C513.47 208.968 513.47 208.968 513.47 208.968C513.47 208.968 513.47 208.968 513.47 209.041V209.114C513.47 209.26 513.397 209.333 513.251 209.406C513.178 209.479 513.033 209.552 512.96 209.624C512.741 209.697 512.45 209.624 512.232 209.406C512.013 209.187 511.94 208.968 512.013 208.677C512.013 208.531 512.086 208.458 512.232 208.385C512.377 208.313 512.523 208.24 512.596 208.24Z" fill="#3EB595"/>
<path d="M515.727 203.143C516.892 203.143 516.892 204.963 515.727 204.963C514.562 204.963 514.562 203.143 515.727 203.143Z" fill="#3EB595"/>
<path d="M207.662 333.651C207.735 333.651 207.735 333.579 207.662 333.651C207.881 333.433 208.099 333.287 208.318 333.142C208.536 333.069 208.755 332.923 208.973 332.85C209.192 332.85 209.483 332.777 209.702 332.777C210.066 332.777 210.43 332.85 210.794 332.996C211.013 333.069 211.231 333.214 211.377 333.36C211.595 333.506 211.741 333.651 211.887 333.87C212.032 334.016 212.178 334.234 212.251 334.453C212.396 334.817 212.469 335.108 212.469 335.545V335.618C212.469 336.128 212.324 336.637 212.105 337.074C211.887 337.511 211.522 337.803 211.085 338.094C210.649 338.385 210.139 338.458 209.629 338.458C209.265 338.458 208.901 338.385 208.536 338.24C208.172 338.094 207.881 337.948 207.662 337.657C207.298 337.293 207.08 336.856 206.934 336.419C206.789 335.909 206.789 335.399 206.934 334.89C207.08 334.38 207.371 334.016 207.662 333.651Z" fill="#3EB595"/>
<path d="M219.097 325.859C219.388 325.859 219.679 325.932 219.97 326.077C220.262 326.15 220.48 326.296 220.699 326.587C220.917 326.806 221.063 327.024 221.209 327.315C221.354 327.607 221.427 327.898 221.427 328.189C221.427 328.408 221.354 328.626 221.354 328.772C221.281 329.136 221.063 329.5 220.772 329.792C220.626 329.937 220.48 330.01 220.335 330.156C219.97 330.374 219.606 330.447 219.169 330.447C218.878 330.447 218.587 330.374 218.295 330.229C218.004 330.156 217.786 330.01 217.567 329.719C217.349 329.5 217.203 329.282 217.057 328.99C216.912 328.699 216.839 328.408 216.839 328.117C216.839 327.898 216.912 327.68 216.912 327.534C216.985 327.17 217.203 326.806 217.494 326.514C217.64 326.369 217.786 326.296 217.931 326.15C218.295 325.932 218.66 325.859 219.097 325.859Z" fill="#3EB595"/>
<path d="M226.015 322.217C226.161 322.217 226.379 322.217 226.525 322.363C226.671 322.436 226.816 322.509 226.962 322.654C227.108 322.8 227.181 322.873 227.253 323.091C227.326 323.237 227.399 323.383 227.399 323.601C227.399 323.747 227.399 323.82 227.326 323.965C227.253 324.184 227.181 324.402 226.962 324.548C226.889 324.621 226.816 324.694 226.671 324.766C226.452 324.912 226.234 324.912 226.015 324.912C225.87 324.912 225.651 324.912 225.506 324.766C225.36 324.694 225.214 324.621 225.069 324.475C224.923 324.329 224.85 324.257 224.777 324.038C224.704 323.892 224.632 323.747 224.632 323.528C224.632 323.383 224.632 323.31 224.704 323.164C224.777 322.946 224.85 322.727 225.069 322.582C225.141 322.509 225.214 322.436 225.36 322.363C225.578 322.29 225.797 322.217 226.015 322.217Z" fill="#3EB595"/>
<path d="M165.641 218.728C165.641 218.509 165.786 217.708 165.713 218.218C165.641 218.801 165.786 217.781 165.786 217.636C165.786 218.072 165.786 218.582 165.786 219.019C165.568 217.927 165.932 216.397 167.097 215.888C168.845 215.087 170.739 214.504 172.632 213.848C174.744 213.12 178.24 211.445 179.478 214.358C179.915 215.378 179.624 216.543 178.822 217.271C178.167 217.854 177.584 218.145 176.783 218.437C175.982 218.728 175.181 219.019 174.38 219.311C172.705 219.893 171.03 220.549 169.282 220.986C168.117 221.277 166.66 220.84 166.15 219.675C166.296 219.966 166.515 220.184 166.733 220.33C166.515 220.184 166.296 220.039 166.15 219.82C165.859 219.529 165.713 219.165 165.641 218.728Z" fill="#3EB595"/>
<path d="M149.691 226.958C149.472 226.666 149.4 226.302 149.4 226.011C149.472 226.302 149.545 226.521 149.618 226.812C149.181 226.084 149.4 225.355 149.691 224.627C149.909 224.263 150.274 223.972 150.565 223.68C150.929 223.462 150.856 223.462 151.366 223.243C151.439 223.243 151.439 223.171 151.512 223.171C151.657 223.098 151.876 223.098 152.021 223.025C152.604 222.952 153.259 223.025 153.769 223.316C154.352 223.68 154.716 224.336 154.716 224.991C154.716 225.355 154.643 225.647 154.425 226.011C154.279 226.302 153.988 226.521 153.696 226.739C153.478 226.958 153.114 226.958 152.823 227.103C152.968 227.031 153.187 226.958 153.332 226.885C152.968 227.031 152.604 227.176 152.24 227.249C152.167 227.249 152.021 227.322 151.949 227.322C151.657 227.395 151.439 227.395 151.147 227.468C151.293 227.468 151.512 227.395 151.657 227.395C151.584 227.395 151.584 227.395 151.512 227.395C151.439 227.395 151.366 227.395 151.293 227.395C151.147 227.468 151.002 227.468 150.856 227.395C150.71 227.395 150.565 227.322 150.419 227.249C150.346 227.249 150.274 227.176 150.128 227.103C150.492 227.176 150.929 227.176 151.293 227.249C151.22 227.249 151.147 227.249 151.075 227.249C150.783 227.322 150.492 227.322 150.274 227.249C150.201 227.176 150.128 227.176 149.982 227.103C149.909 227.249 149.764 227.103 149.691 226.958Z" fill="#3EB595"/>
<path d="M130.901 235.114C130.974 235.042 131.119 234.969 131.192 234.896C131.265 234.823 131.265 234.823 131.338 234.75L131.411 234.677C131.484 234.605 131.556 234.605 131.629 234.532C131.702 234.459 131.775 234.459 131.848 234.386C131.921 234.313 132.066 234.24 132.139 234.24C132.212 234.24 132.285 234.168 132.285 234.168C132.576 234.022 132.867 233.949 133.159 233.949C133.304 233.949 133.45 234.022 133.596 234.022C133.741 234.095 133.887 234.168 134.033 234.24C133.668 234.168 133.304 234.168 132.94 234.095C133.013 234.095 133.013 234.095 133.086 234.095C133.159 234.095 133.232 234.095 133.304 234.095C133.523 234.095 133.45 234.095 133.668 234.095C133.814 234.095 134.033 234.168 134.178 234.24C134.251 234.313 134.324 234.386 134.47 234.459C134.542 234.532 134.542 234.532 134.542 234.605C134.615 234.677 134.615 234.677 134.615 234.75C134.688 234.823 134.688 234.969 134.761 235.042C134.761 235.187 134.761 235.26 134.834 235.406C134.834 235.551 134.834 235.624 134.761 235.77C134.761 235.915 134.688 235.988 134.615 236.134C134.615 236.207 134.542 236.207 134.542 236.28C134.615 235.915 134.615 235.551 134.688 235.187C134.761 235.26 134.761 235.406 134.761 235.479C134.834 235.697 134.834 235.915 134.761 236.134C134.761 236.207 134.688 236.28 134.688 236.352C134.615 236.571 134.542 236.717 134.324 236.862C134.251 236.935 134.251 236.935 134.178 237.008C134.105 237.081 134.033 237.226 133.96 237.299C133.814 237.445 133.523 237.591 133.377 237.736C133.304 237.809 133.159 237.882 133.086 237.955C132.867 238.1 132.649 238.173 132.43 238.173C132.212 238.246 131.993 238.246 131.775 238.173C131.629 238.1 131.484 238.028 131.338 238.028C131.119 237.955 130.974 237.736 130.828 237.591C130.755 237.518 130.682 237.372 130.61 237.226C130.537 237.008 130.464 236.789 130.464 236.571C130.464 236.425 130.537 236.28 130.537 236.134C130.537 235.624 130.682 235.333 130.901 235.114Z" fill="#3EB595"/>
<path d="M343.113 44.188C347.074 46.934 352.503 47.0082 356.978 45.3012C361.526 43.5942 365.268 40.2544 368.496 36.6919C371.944 32.9067 374.952 28.6021 376.492 23.7037C378.033 18.8053 378.033 13.2389 375.612 8.71154C372.677 3.21939 366.808 0.25069 360.866 0.0280342C356.758 -0.120399 352.283 0.250683 348.835 2.84832C345.827 5.14909 344.066 8.63736 342.673 12.1256C340.765 16.9498 338.638 22.2193 337.537 27.3404C336.51 33.3521 337.904 40.5513 343.113 44.188Z" fill="#F4D45D"/>
<path d="M68.0262 372.602C70.5336 370.41 69.7961 365.802 66.9938 363.988C64.1914 362.175 60.3565 363.006 57.8492 365.273C55.4155 367.539 54.2356 370.939 53.7931 374.264C53.4981 376.53 53.6456 379.024 55.0468 380.761C57.4067 383.632 62.2002 382.801 64.7076 380.081C67.215 377.361 68.0262 373.508 68.7637 369.882" fill="#3EB595"/>
<path d="M402.977 253.647C401.721 256.7 401.351 260.626 403.864 262.734C407.633 265.86 413.397 262.516 416.427 260.044C419.458 257.573 423.3 254.955 425.37 251.612C427.291 248.486 426.478 244.051 424.187 241.362C421.305 238.018 415.984 239.98 412.88 241.943C408.446 244.633 404.899 248.849 402.977 253.647Z" fill="#3EB595"/>
<path d="M295.267 248.215C297.454 247.448 299.933 245.53 299.204 243.305C298.766 241.924 297.308 241.31 295.996 240.85C290.091 238.932 283.821 238.088 277.625 238.395C274.563 238.548 271.501 238.932 268.512 239.622C265.887 240.236 262.534 240.85 260.565 242.921C257.868 245.837 258.743 250.593 262.534 251.437C266.471 252.281 270.845 251.283 274.854 251.36C281.853 251.514 288.633 250.67 295.267 248.215Z" fill="#3EB595"/>
<path d="M491.111 162.65C490.529 156.314 494.461 150.269 498.685 145.827C503.492 140.656 509.61 137.014 515.218 132.79C516.601 131.771 517.912 130.751 519.223 129.586C520.243 128.712 521.335 127.547 521.699 126.527C521.699 126.454 521.991 125.58 521.918 125.872C521.918 125.726 521.918 125.507 521.918 125.362C521.918 125.726 521.918 125.362 521.918 125.216C521.699 124.706 521.845 124.998 521.845 125.07C521.699 124.706 521.699 124.779 521.772 124.925C521.626 124.706 521.554 124.706 521.699 124.779C521.481 124.634 521.262 124.488 521.044 124.415C521.262 124.488 520.607 124.269 520.461 124.269C520.024 124.197 520.17 124.197 519.806 124.197C519.15 124.124 518.204 124.197 517.694 124.269C511.503 125.143 506.478 130.314 502.181 134.684C497.884 139.126 493.806 144.152 491.403 149.832C490.31 152.454 489.291 155.513 489.363 158.28C489.363 158.426 489.363 158.572 489.363 158.717C489.363 158.353 489.363 158.717 489.363 158.79C489.436 159.081 489.509 159.373 489.582 159.664C489.436 159.3 489.728 159.955 489.8 160.028C489.509 159.664 489.8 160.028 489.8 160.028C489.655 159.883 489.582 159.883 489.727 159.955C489.873 160.028 489.873 160.028 489.655 159.955C489.655 159.955 489.873 159.955 489.8 160.028C489.8 160.028 489.509 160.101 489.8 159.955C489.946 159.883 490.092 159.81 490.237 159.664C490.747 159.227 490.966 158.572 491.111 157.916C491.548 156.314 491.767 154.639 492.349 153.037C492.932 151.434 493.66 149.832 494.534 148.376C496.209 145.462 498.467 142.768 500.87 140.437C503.565 137.815 506.478 135.558 509.391 133.227C510.775 132.135 512.159 131.115 513.47 130.023C514.052 129.513 514.635 129.003 515.145 128.421C515.145 128.421 515.509 127.911 515.582 127.765C515.655 127.547 515.727 127.328 515.8 127.183C515.8 127.474 515.655 126.818 515.8 127.11C515.873 127.401 515.655 126.746 515.727 127.037C515.873 127.401 515.727 127.037 515.509 126.891C515.873 127.183 515.509 126.891 515.436 126.891C515.727 126.891 515.509 126.891 515.363 126.891C515.218 126.891 515.072 126.818 514.926 126.746C515.436 126.818 514.708 126.746 514.635 126.746C514.489 126.746 514.198 126.818 514.562 126.746C514.416 126.818 514.198 126.818 514.052 126.891C514.125 126.891 514.416 126.673 513.834 126.964C513.688 127.037 513.47 127.183 513.324 127.255C512.741 127.619 512.304 128.056 511.795 128.566C509.318 130.97 507.061 133.519 504.876 136.14C500.652 141.311 497.083 147.138 493.806 153.037C493.005 154.493 491.985 155.804 491.038 157.188C490.092 158.572 488.052 157.771 488.344 156.023C488.708 154.056 489.218 152.308 490.019 150.488C490.82 148.74 491.621 146.992 492.568 145.317C494.389 141.967 496.501 138.835 498.758 135.776C501.089 132.717 503.565 129.732 506.187 126.964C508.881 124.197 511.94 120.992 516.164 121.793C518.131 122.157 519.806 123.541 520.461 125.507C521.117 127.619 520.316 129.731 519.005 131.407C517.839 132.936 516.237 134.101 514.708 135.266C513.033 136.577 511.285 137.888 509.537 139.199C503.929 143.423 498.03 148.448 495.918 155.44C495.335 157.261 495.19 159.227 494.389 160.975C493.515 162.796 491.694 164.325 489.582 164.325C485.576 164.325 484.193 160.101 484.557 156.751C485.358 149.395 488.999 142.768 493.515 137.014C495.772 134.174 498.248 131.552 500.87 129.003C503.565 126.381 506.405 123.905 509.61 122.012C512.741 120.191 516.528 118.88 520.17 119.317C522.209 119.536 524.175 120.337 525.414 122.084C526.579 123.687 526.724 125.799 526.069 127.619C524.685 131.407 521.117 134.028 517.912 136.359C514.708 138.617 511.43 140.729 508.153 142.913C502.473 146.701 496.719 151.362 494.024 157.843C493.369 159.373 492.859 160.975 492.422 162.65C492.422 163.742 491.184 163.451 491.111 162.65Z" fill="#F4D45D"/>
<path d="M489.218 155.367C490.164 152.818 490.965 150.196 492.204 147.72C493.442 145.317 494.825 143.132 496.428 140.947C499.778 136.505 503.929 132.572 508.59 129.513C509.974 128.566 511.357 127.765 512.887 127.11C513.542 126.818 514.271 126.527 514.999 126.454C515.436 126.381 515.8 126.309 516.237 126.309C516.383 126.309 516.601 126.309 516.747 126.381C516.892 126.454 517.038 126.454 517.184 126.6C517.257 126.673 517.257 126.673 517.111 126.6C517.985 126.6 518.276 127.547 517.766 128.202C517.839 128.129 517.912 127.619 517.839 128.129C517.766 128.421 517.694 128.639 517.548 128.858C517.402 129.076 517.184 129.295 516.965 129.513C516.528 130.023 515.946 130.387 515.436 130.824C514.343 131.625 513.251 132.426 512.086 133.154C509.901 134.611 508.08 135.995 506.114 137.67C502.327 140.947 498.904 144.807 496.063 148.958C494.388 151.362 492.641 153.765 491.475 156.46C490.893 157.552 488.708 156.605 489.218 155.367Z" fill="#F4D45D"/>
<path d="M514.125 129.367C514.489 128.129 515.218 127.182 516.237 126.381C517.33 125.507 518.495 124.925 519.806 124.706C519.369 125.507 518.859 126.381 518.422 127.182C518.276 126.381 518.204 125.58 518.131 124.706C518.859 125.435 519.587 126.163 520.388 126.964C519.879 126.964 519.369 126.964 518.932 126.964C518.859 126.964 518.422 127.037 518.786 126.964C519.15 126.891 518.713 126.964 518.641 126.964C518.422 127.037 518.131 127.037 517.912 127.11C517.475 127.255 517.038 127.401 516.529 127.547C516.383 127.619 516.31 127.619 516.164 127.692C516.092 127.692 515.655 127.911 516.019 127.765C516.383 127.619 515.946 127.838 515.873 127.838C515.727 127.911 515.655 127.911 515.509 127.984C515.072 128.202 514.708 128.421 514.271 128.639C514.052 128.785 513.834 128.858 513.615 129.003C513.543 129.076 513.397 129.149 513.324 129.222C513.106 129.367 513.688 128.93 513.324 129.222C513.033 129.44 512.741 129.659 512.377 129.732C512.523 129.659 512.523 129.659 512.377 129.732C512.232 129.804 512.159 129.95 512.013 130.023C511.576 130.387 511.212 130.751 510.702 130.97C509.974 131.334 509.1 130.897 509.1 130.023C509.1 129.367 509.318 128.712 509.61 128.129C509.683 127.984 509.755 127.838 509.828 127.765C509.828 127.692 510.12 127.401 509.974 127.619C509.828 127.765 510.047 127.547 510.047 127.474C510.265 127.037 510.265 126.891 510.629 126.527C511.358 125.58 512.304 124.779 513.324 124.124C514.344 123.468 515.509 123.031 516.674 122.74C517.839 122.449 519.15 122.303 520.388 122.449C520.971 122.521 521.554 122.667 521.991 123.104C522.355 123.541 522.719 124.124 522.646 124.706C522.573 125.507 522.501 126.309 522.355 127.182C522.209 127.984 521.262 128.712 520.388 128.639C520.17 128.639 519.879 128.639 519.587 128.639C519.514 128.639 519.369 128.639 519.296 128.639C518.932 128.639 519.514 128.566 519.223 128.639C518.713 128.712 518.276 128.858 517.839 129.003C517.767 129.003 517.621 129.076 517.767 129.003C517.621 129.076 517.548 129.076 517.402 129.149C517.184 129.222 517.038 129.367 516.82 129.513C516.456 129.732 516.019 130.023 515.727 130.314C515.072 130.897 513.834 130.314 514.125 129.367Z" fill="white"/>
<path d="M490.092 160.174C490.092 159.373 490.019 158.572 490.019 157.77C490.019 157.406 490.019 157.042 490.092 156.605C490.092 156.314 490.164 156.023 490.237 155.731C490.31 155.44 490.383 155.149 490.529 154.857C490.747 154.42 491.33 154.129 491.839 154.202C492.349 154.275 492.786 154.639 492.932 155.149C493.223 156.095 492.932 157.115 492.786 158.062C492.641 158.863 492.422 159.591 492.276 160.392C492.131 160.975 491.548 161.266 491.038 161.193C490.529 161.193 490.092 160.756 490.092 160.174Z" fill="#F4D45D"/>
<path d="M489.655 160.028C489.582 159.664 489.509 159.3 489.436 158.936C489.509 159.081 489.509 159.154 489.582 159.3C489.509 159.081 489.436 158.936 489.363 158.717C489.363 158.644 489.29 158.499 489.29 158.426C489.218 158.207 489.218 158.062 489.145 157.843C488.999 156.969 488.926 155.877 489.655 155.221C489.946 154.93 490.456 154.712 490.893 154.712C491.33 154.712 491.767 154.93 492.131 155.221C492.859 155.877 492.786 157.042 492.641 157.843C492.568 158.062 492.568 158.207 492.495 158.426C492.495 158.499 492.422 158.644 492.422 158.717C492.349 158.936 492.276 159.081 492.204 159.3C492.276 159.154 492.276 159.081 492.349 158.936C492.276 159.3 492.204 159.664 492.131 160.028C492.058 160.538 491.475 160.975 490.966 160.975C490.31 160.902 489.727 160.611 489.655 160.028Z" fill="#F4D45D"/>
<path d="M484.775 173.283C484.702 173.283 484.702 173.283 484.629 173.21C484.848 173.21 485.066 173.283 485.358 173.283C485.285 173.283 485.285 173.283 485.212 173.283C486.013 172.846 486.741 172.409 487.543 171.972C487.543 171.972 487.543 171.972 487.543 172.045C487.397 172.263 487.251 172.409 487.106 172.628C486.814 172.919 486.523 173.064 486.232 173.21C486.013 173.356 485.795 173.429 485.503 173.429C485.139 173.501 484.775 173.501 484.411 173.356C484.411 173.356 484.338 173.356 484.265 173.356C484.484 173.356 484.775 173.429 484.994 173.429C484.994 173.429 484.994 173.429 484.921 173.429C484.702 173.429 484.411 173.356 484.192 173.356C483.756 173.21 483.319 172.992 482.954 172.628C483.537 172.846 484.192 173.064 484.775 173.283C484.848 173.356 484.848 173.356 484.775 173.283C484.994 173.283 485.285 173.283 485.503 173.283C485.503 173.283 485.503 173.283 485.431 173.283C485.649 173.21 485.868 173.137 486.086 172.992C486.086 172.992 486.013 172.992 486.013 173.064C486.159 172.919 486.377 172.773 486.523 172.628C486.45 172.7 486.377 172.773 486.232 172.846C486.086 172.992 485.868 173.137 485.649 173.21C485.431 173.356 485.212 173.356 484.994 173.356C484.848 173.429 484.702 173.429 484.557 173.429C485.285 172.846 486.013 172.336 486.741 171.754C486.741 171.826 486.669 171.899 486.669 171.899C486.669 171.681 486.741 171.535 486.741 171.317C486.741 171.389 486.741 171.389 486.741 171.462C486.741 172.263 486.305 172.919 485.649 173.356C485.285 173.574 484.921 173.647 484.557 173.647C484.192 173.647 483.828 173.574 483.464 173.356C483.391 173.283 483.1 173.064 483.027 172.992C482.882 172.846 482.809 172.7 482.663 172.482C482.663 172.482 482.663 172.409 482.59 172.409C482.517 172.191 482.445 172.045 482.372 171.826C482.882 172.336 483.464 172.919 483.974 173.429C483.756 173.356 483.537 173.283 483.391 173.137C483.1 172.992 482.882 172.773 482.663 172.482C482.517 172.336 482.372 172.118 482.299 171.899C482.153 171.608 482.08 171.244 482.08 170.88C482.08 170.734 482.08 170.661 482.153 170.515C482.153 170.37 482.153 170.297 482.226 170.151C482.226 170.151 482.226 170.151 482.226 170.079C482.299 169.86 482.372 169.642 482.517 169.423V169.35C482.445 169.569 482.372 169.787 482.226 170.006C482.226 170.443 482.226 170.952 482.226 171.389C481.935 170.443 482.226 169.35 482.954 168.695C483.464 168.185 483.683 168.185 484.338 167.894C484.557 167.894 484.848 167.821 485.066 167.821C485.431 167.821 485.795 167.894 486.159 168.039C486.377 168.112 486.596 168.258 486.814 168.403C487.106 168.622 487.397 168.84 487.543 169.205C487.615 169.35 487.615 169.423 487.688 169.569C487.761 169.714 487.834 169.787 487.834 169.933C487.397 169.423 487.033 168.84 486.596 168.331C486.814 168.476 487.033 168.622 487.251 168.84L487.324 168.913C487.47 169.059 487.615 169.277 487.761 169.496C487.761 169.496 487.761 169.496 487.761 169.569C487.834 169.787 487.907 170.006 488.052 170.224C488.052 170.443 488.125 170.661 488.125 170.952C488.125 171.171 488.052 171.389 488.052 171.681C487.98 172.045 487.834 172.336 487.615 172.555C487.47 172.773 487.324 172.919 487.178 172.992C487.033 173.137 486.814 173.283 486.596 173.356C486.377 173.501 486.159 173.501 485.94 173.501C485.503 173.429 485.139 173.356 484.775 173.283Z" fill="#F4D45D"/>
<path d="M479.167 181.731C479.24 181.731 479.24 181.731 479.313 181.731H479.386C479.531 181.731 479.677 181.658 479.823 181.658C479.968 181.658 480.114 181.658 480.332 181.731C480.405 181.731 480.478 181.804 480.551 181.804C480.624 181.804 480.697 181.877 480.842 181.95C480.333 181.95 479.823 181.95 479.313 181.95C479.459 181.877 479.531 181.804 479.677 181.804C479.823 181.731 480.041 181.658 480.187 181.658C480.26 181.658 480.332 181.658 480.405 181.658H480.478C480.624 181.658 480.769 181.658 480.915 181.731C481.279 181.804 481.643 182.168 481.716 182.532C481.716 182.605 481.716 182.751 481.789 182.896V182.969V183.042C481.789 183.261 481.716 183.406 481.643 183.625C481.643 183.698 481.571 183.77 481.571 183.843C481.498 183.989 481.425 184.062 481.425 184.207C481.425 183.697 481.425 183.188 481.425 182.678C481.425 182.678 481.425 182.678 481.425 182.751C481.498 182.896 481.571 183.042 481.571 183.188C481.571 183.261 481.643 183.333 481.571 183.406C481.643 183.552 481.643 183.697 481.571 183.843C481.571 183.989 481.571 184.062 481.498 184.134C481.498 184.207 481.498 184.207 481.498 184.28C481.425 184.571 481.279 184.863 480.988 185.154C480.769 185.373 480.478 185.518 480.114 185.664C479.459 185.81 478.73 185.664 478.293 185.154C477.784 184.644 477.638 183.989 477.784 183.333C477.856 183.042 478.002 182.751 478.293 182.459C478.585 181.95 478.876 181.804 479.167 181.731Z" fill="#F4D45D"/>
</g>
</svg>
