<svg width="421" height="210" viewBox="0 0 421 210" fill="none" xmlns="http://www.w3.org/2000/svg">
<mask id="mask0" style="mask-type:alpha" maskUnits="userSpaceOnUse" x="0" y="0" width="421" height="317">
<rect x="420.965" y="316.832" width="420.965" height="316.832" transform="rotate(180 420.965 316.832)" fill="#C4C4C4"/>
</mask>
<g mask="url(#mask0)">
<path d="M107.826 46.4373C92.2968 41.9851 75.5894 40.0004 60.0601 44.5063C44.5843 49.0121 30.6079 61.0812 27.1272 76.8515C25.842 82.752 26.0026 88.867 25.7349 94.8747C25.4671 100.936 24.771 107.105 21.8793 112.415C18.9877 117.726 13.5256 121.963 7.47451 121.856C2.49442 121.749 -2.05727 118.745 -5.43089 115.097C-16.5156 103.189 -17.5331 84.0393 -10.411 69.3955C-3.28894 54.7516 10.741 44.399 25.9491 38.5522C52.0276 28.575 82.7115 30.9888 106.755 45.3109L107.826 46.4373Z" fill="#F4D45D"/>
<path d="M364.396 77.0916C360.804 79.9103 355.979 82.6207 351.958 80.4524C349.17 78.9888 347.83 75.4654 347.937 72.2672C348.044 69.0689 349.385 66.0333 350.618 63.1061C354.96 53.1862 359.303 43.2121 365.039 34.1053C370.775 24.9443 378.013 16.5964 387.126 10.8505C389.86 9.11585 393.238 7.43543 396.562 8.41116C398.867 9.11585 400.69 10.6879 400.207 13.2356C399.725 15.8917 399.028 18.5479 398.492 21.1498C397.848 24.1854 397.098 27.1668 396.186 30.1482C394.364 36.0026 392.005 41.6943 389.11 47.115C386.215 52.5357 382.837 57.6854 378.978 62.5099C375.118 67.2801 370.829 71.7251 366.111 75.628C365.575 76.1701 364.985 76.6037 364.396 77.0916Z" fill="#1B6578"/>
<path d="M64.8407 146.986C54.7315 166.776 51.3976 190.975 34.8356 205.818C21.984 217.326 3.9164 220.553 -13.1295 223.242C-9.52674 235.503 2.67963 244.107 15.37 245.344C28.0603 246.581 40.8044 241.257 50.4297 232.814C60.0012 224.371 66.7228 213.131 71.6698 201.354C76.6169 189.577 80.0046 177.262 83.9838 165.162C87.9629 153.063 92.6411 141.017 99.9004 130.53C104.31 124.131 109.687 118.43 115.71 113.59C121.786 108.697 128.561 104.663 135.767 101.652C137.756 100.845 139.8 100.092 141.843 99.3933C142.865 99.0707 143.886 98.748 144.962 98.4791C145.768 98.264 146.898 98.1565 147.543 97.6187C146.091 97.3498 144.317 97.5649 142.865 97.6187C141.198 97.6725 139.531 97.78 137.864 97.9414C134.584 98.264 131.304 98.748 128.024 99.4471C121.571 100.792 115.279 102.835 109.257 105.524C103.181 108.213 97.4269 111.547 92.0497 115.473C86.7262 119.345 81.7791 123.754 77.3697 128.702C72.9604 133.649 69.0888 139.081 65.9162 144.889C65.5936 145.588 65.2171 146.287 64.8407 146.986Z" fill="#EB7A7D"/>
<path d="M79.5332 97.0765L79.532 97.0776C73.7168 102.409 68.6999 108.964 67.0138 116.523L67.0136 116.524C66.758 117.662 66.7125 118.999 67.0025 120.098C67.2912 121.192 67.8806 121.963 68.8442 122.196L68.8467 122.196C69.4508 122.346 70.0827 122.226 70.7413 121.928C71.4028 121.628 72.0487 121.167 72.6612 120.693L72.6627 120.692C72.8645 120.537 73.0664 120.382 73.2685 120.227C85.7839 110.61 98.679 100.702 113.944 96.1766L113.946 96.176C124.38 93.1268 135.446 92.7567 146.242 92.8629C147.774 92.8629 149.399 92.8486 150.951 92.5971C152.5 92.346 153.939 91.8632 155.11 90.9513C155.379 90.7385 155.653 90.5084 155.845 90.2538C156.033 90.0036 156.098 89.7894 156.056 89.5846C156.012 89.3687 155.839 89.1448 155.511 88.8933C155.296 88.7287 155.081 88.5975 154.857 88.461C154.724 88.3797 154.587 88.2965 154.446 88.2033L154.446 88.2033L154.442 88.201C152.95 87.1992 151.409 86.2529 149.818 85.413C146.626 83.7286 143.275 82.3607 139.82 81.3614C136.362 80.361 132.741 79.676 129.119 79.307C125.504 78.9389 121.836 78.9387 118.221 79.3065C117.99 79.3348 117.762 79.3488 117.544 79.3618L117.528 79.3628C117.311 79.3758 117.101 79.3884 116.88 79.4126C102.986 81.046 89.8235 87.5804 79.5332 97.0765Z" stroke="#3EB595"/>
<path d="M55.3963 133.987C53.9199 134.585 53.2112 136.327 53.9789 137.572C54.7467 138.816 56.7546 139.364 58.2311 138.766C59.7075 138.119 60.4162 136.476 59.7075 135.182C58.9988 133.888 57.0499 133.241 55.5144 133.788" fill="#3EB595"/>
<path d="M298.842 44.0209C301.777 40.248 304.499 36.0439 305.3 31.3009C306.474 24.2402 302.578 16.6406 296.227 13.4067C289.876 10.2267 281.55 11.682 276.64 16.9101C272.264 21.5453 270.877 28.2287 269.649 34.5348C268.955 38.2538 268.261 41.9188 267.514 45.6378C266.66 50.1114 265.913 55.1239 268.315 58.9507C269.702 61.2144 272.104 62.508 274.666 62.9391C276.587 63.2625 278.508 63.4242 280.27 62.4002C282.137 61.3222 283.685 59.5975 285.286 58.25C287.634 56.2558 289.876 54.0998 292.064 51.89C294.466 49.4107 296.707 46.7697 298.842 44.0209Z" fill="#3EB595"/>
<path d="M19.9054 137.356L19.9068 137.355C21.2519 136.116 22.4139 134.633 23.0157 132.91C23.6138 131.197 23.4955 129.22 22.4979 127.834C21.0414 125.829 18.0363 125.555 15.5255 126.462C14.2703 126.915 13.0958 127.572 11.9006 128.27C11.7557 128.355 11.6105 128.44 11.4647 128.526C10.4194 129.14 9.34803 129.769 8.2238 130.267C7.03901 130.795 5.79847 131.189 4.59131 131.572C4.25053 131.68 3.91241 131.787 3.57895 131.897C2.04627 132.399 0.584446 132.949 -0.739168 133.824L-0.740087 133.824C-1.70945 134.462 -2.64682 135.333 -3.1718 136.313C-3.68456 137.27 -3.80173 138.316 -3.18476 139.412C-1.86733 141.696 0.657273 142.71 3.5133 142.959C6.36259 143.208 9.43235 142.682 11.6481 142.004L11.6481 142.004L11.6565 142.001C14.6664 141.137 17.5198 139.57 19.9054 137.356Z" stroke="#F4D45D"/>
<path d="M341.179 48.9036C338.812 68.8583 326.603 86.9306 310.198 98.4947C293.793 110.059 273.569 115.491 253.507 116.029C240.813 116.352 227.528 114.631 217.093 107.369C273.999 98.6023 326.334 63.3721 355.809 13.9424C346.611 41.3197 337.145 69.2886 319.18 91.9327" fill="#EB7A7D"/>
<path d="M300.892 83.4348C298.794 84.2954 296.589 85.2098 295.137 86.9847C293.684 88.7597 293.362 91.6103 295.029 93.1701C296.374 94.4072 298.471 94.3534 300.246 93.9231C302.667 93.3315 304.926 92.1482 306.808 90.4808C308.745 88.7597 310.358 85.909 309.067 83.65C308.153 81.9288 305.894 81.2833 303.958 81.6599C302.021 81.9826 300.354 83.1121 298.74 84.2416" fill="#F4D45D"/>
<path d="M408.409 119.15C408.409 121.13 410.215 122.76 412.471 122.76C414.728 122.76 416.533 121.13 416.533 119.15C416.533 117.17 414.728 115.539 412.471 115.539C410.215 115.539 408.409 117.17 408.409 119.15Z" fill="#1B6578"/>
<path d="M408.409 129.77C408.409 131.634 410.215 139.911 412.471 139.911C414.728 139.911 416.533 131.634 416.533 129.77C416.533 127.906 414.728 126.371 412.471 126.371C410.215 126.371 408.409 127.906 408.409 129.77Z" fill="#1B6578"/>
<path d="M104.141 195.418C102.689 197.569 101.452 199.936 100.161 202.195C98.816 204.508 97.4713 206.82 96.0729 209.079C94.7282 211.338 93.3836 213.597 92.0927 215.91C91.4473 217.04 90.8018 218.223 90.1564 219.353C89.5647 220.428 88.8655 221.612 87.8436 222.365C87.6284 222.526 87.2519 222.311 87.3057 222.042C87.3595 220.805 88.0049 219.514 88.5966 218.438C89.1882 217.309 89.8337 216.179 90.4791 215.103C91.8238 212.791 93.1684 210.478 94.5669 208.219C95.9653 205.96 97.4176 203.755 98.9774 201.657C99.7304 200.635 100.483 199.613 101.29 198.591C102.151 197.462 103.119 196.44 103.926 195.256C103.98 195.095 104.248 195.256 104.141 195.418Z" fill="#EB7A7D"/>
<path d="M162.929 173.204C157.658 175.893 153.409 180.68 148.837 184.338C146.632 186.167 144.481 188.264 142.114 189.878C140.931 190.685 138.618 191.545 137.488 190.039C134.745 186.382 143.459 181.164 145.771 179.605C150.935 176.055 156.851 174.818 162.391 172.29C163.037 172.021 163.575 172.935 162.929 173.204Z" fill="#F4D45D"/>
<path d="M135.443 194.718C135.281 195.471 134.743 196.278 134.044 196.601C132.7 197.354 130.763 196.439 130.817 194.772C130.871 194.019 131.193 193.105 131.839 192.621C132.215 192.298 132.592 192.083 133.076 192.029C133.56 191.975 134.044 192.029 134.421 192.298C135.281 192.836 135.658 193.75 135.443 194.718Z" fill="#F4D45D"/>
<path d="M130.979 198.537C130.925 198.968 130.71 199.398 130.333 199.667C129.903 200.043 129.419 200.205 128.827 200.043C128.559 199.99 128.343 199.882 128.128 199.667C127.59 199.129 127.537 198.322 127.913 197.677C128.074 197.408 128.29 197.139 128.559 196.978C128.72 196.87 128.935 196.816 129.15 196.762C129.634 196.601 130.226 196.816 130.549 197.139C130.979 197.515 131.033 197.999 130.979 198.537Z" fill="#F4D45D"/>
<path d="M127.75 200.581C127.804 200.635 127.804 200.635 127.75 200.581C128.234 200.904 128.45 201.388 128.342 201.926C128.288 202.087 128.234 202.195 128.181 202.356C127.965 202.787 127.374 203.056 126.89 202.894C126.406 202.733 126.083 202.303 126.029 201.819C126.029 201.657 126.029 201.496 126.083 201.388C126.137 201.119 126.298 200.958 126.513 200.797C126.728 200.635 126.944 200.581 127.213 200.528C127.374 200.474 127.643 200.528 127.75 200.581Z" fill="#F4D45D"/>
<path d="M312.292 110.059C307.828 114.685 303.687 118.557 297.824 121.354C292.069 124.097 286.045 125.926 279.805 127.163C272.706 128.562 265.552 129.315 258.345 129.906C250.922 130.498 243.392 131.789 235.97 131.412C235.109 131.359 234.571 130.068 235.485 129.637C241.671 126.787 248.609 126.249 255.279 125.388C262.432 124.474 269.586 123.775 276.686 122.484C282.549 121.408 288.411 119.956 294.059 117.966C299.922 115.922 306.699 113.233 311.539 109.306C312.077 108.876 312.776 109.521 312.292 110.059Z" fill="#1B6578"/>
<path d="M331.549 94.9988C331.333 95.3215 331.011 95.5905 330.849 95.967C330.688 96.2897 330.204 96.3973 329.881 96.1283C329.558 95.9132 329.558 95.4291 329.827 95.1602C330.042 94.9451 330.258 94.5686 330.419 94.3534C330.634 94.0845 331.011 93.9231 331.28 94.1383C331.602 94.2996 331.764 94.7299 331.549 94.9988Z" fill="#1B6578"/>
<path d="M326.169 99.5704C326.008 100.162 325.685 100.754 325.201 101.184C325.04 101.345 324.878 101.507 324.663 101.614C324.179 101.991 323.749 102.152 323.103 102.206C322.458 102.26 321.759 101.722 321.544 101.13C321.275 100.485 321.436 99.7855 321.92 99.2477C322.243 98.9249 322.512 98.7636 322.942 98.6022C322.566 98.7636 323.157 98.4946 323.211 98.4409C323.641 98.2257 324.072 98.0644 324.502 97.903C325.47 97.5265 326.438 98.656 326.169 99.5704Z" fill="#1B6578"/>
<path d="M318.963 104.249L318.963 104.303C318.909 104.088 318.855 103.873 318.801 103.712C318.963 103.927 319.017 104.249 319.017 104.518C318.963 104.249 318.909 104.034 318.801 103.765C318.963 104.088 319.07 104.357 319.07 104.68C319.07 104.949 319.017 105.164 318.909 105.433C318.694 105.863 318.425 106.293 317.995 106.508C317.295 106.885 316.381 106.831 315.789 106.239C315.251 105.648 315.09 104.787 315.52 104.034C315.736 103.604 316.166 103.281 316.596 103.12C316.811 103.012 317.08 102.958 317.349 102.958C317.672 102.958 317.995 103.066 318.264 103.227C317.995 103.174 317.779 103.12 317.51 103.012C317.779 103.012 318.102 103.066 318.317 103.227C318.102 103.174 317.887 103.12 317.726 103.066L317.779 103.066C318.479 103.12 319.017 103.658 318.963 104.249Z" fill="#1B6578"/>
<path d="M52.0215 146.902C52.0215 146.956 52.0215 147.01 52.0215 147.064C51.9139 146.741 51.8601 146.472 51.7525 146.149C51.8063 146.311 51.8601 146.418 51.9139 146.58C51.9677 146.795 52.0215 147.064 51.9677 147.279C51.9677 147.44 51.9139 147.602 51.8601 147.709C51.8063 147.871 51.7525 147.978 51.645 148.086C51.5374 148.301 51.3222 148.462 51.1609 148.57C50.9995 148.624 50.8919 148.677 50.7306 148.731C50.5692 148.731 50.4078 148.785 50.2465 148.785C49.9776 148.785 49.7624 148.731 49.5473 148.624C49.3859 148.57 49.2783 148.516 49.1707 148.408C49.0094 148.355 48.9018 148.193 48.848 148.086C48.6867 147.924 48.5791 147.709 48.5253 147.494C48.5253 147.333 48.4715 147.171 48.4715 147.01C48.4715 146.849 48.5253 146.687 48.5253 146.526C48.5791 146.365 48.6329 146.257 48.6867 146.096C48.7943 145.881 48.9556 145.719 49.1707 145.612C49.3321 145.45 49.5473 145.343 49.7624 145.289C49.3859 145.558 49.0632 145.827 48.6867 146.096C48.7405 146.042 48.7405 146.042 48.7943 145.988C48.9018 145.881 48.9556 145.773 49.0632 145.665C49.2246 145.504 49.3859 145.396 49.6011 145.289C49.7624 145.235 49.87 145.181 50.0314 145.181C50.2465 145.128 50.5154 145.128 50.7306 145.235C50.8919 145.289 50.9995 145.343 51.1609 145.396C51.2684 145.504 51.376 145.558 51.4836 145.665C51.645 145.827 51.7525 145.988 51.8601 146.203C51.9677 146.472 52.0215 146.687 52.0215 146.902Z" fill="#3EB595"/>
<path d="M48.2018 152.55C48.2018 152.604 48.2019 152.604 48.1481 152.658C48.0943 152.765 48.0943 152.819 48.0405 152.927C47.8791 153.196 47.664 153.357 47.3951 153.411C47.2875 153.411 47.2337 153.411 47.1261 153.465C46.9648 153.465 46.8572 153.465 46.7496 153.357C46.642 153.357 46.5883 153.303 46.5345 153.249C46.4269 153.196 46.3193 153.088 46.2656 152.98C46.2118 152.927 46.158 152.819 46.158 152.711C46.1042 152.55 46.1042 152.335 46.158 152.174L46.158 152.12C46.158 152.066 46.158 152.066 46.2118 152.012C46.2655 151.851 46.3193 151.743 46.3731 151.636C46.4269 151.528 46.5345 151.421 46.6421 151.367C46.7496 151.313 46.911 151.259 47.0185 151.259C47.1799 151.205 47.2875 151.259 47.4489 151.259C47.5564 151.313 47.6102 151.313 47.7178 151.367C47.8792 151.474 47.9867 151.582 48.0943 151.743C48.1481 151.851 48.1481 151.905 48.2018 152.012C48.2556 152.174 48.2556 152.389 48.2018 152.55Z" fill="#3EB595"/>
<path d="M44.867 158.251C44.8132 158.251 44.8132 158.197 44.867 158.251C45.0284 158.197 45.1898 158.197 45.3511 158.143C45.3511 158.143 45.2973 158.143 45.2973 158.197C45.2436 158.251 45.1897 158.251 45.136 158.305C45.0284 158.358 44.9208 158.358 44.7595 158.305C44.7057 158.305 44.7057 158.305 44.6519 158.251C44.5443 158.251 44.4905 158.197 44.4368 158.09C44.383 158.036 44.383 157.982 44.3292 157.928C44.2754 157.821 44.2216 157.713 44.2216 157.552L44.2216 157.498C44.2754 157.659 44.383 157.821 44.4368 157.982C44.383 157.928 44.3292 157.874 44.2754 157.821C44.1678 157.713 44.1141 157.605 44.1141 157.498C44.0603 157.39 44.0603 157.229 44.1141 157.121C44.1141 157.014 44.1678 156.852 44.2216 156.745C44.2754 156.691 44.3292 156.637 44.383 156.53C44.4906 156.422 44.5981 156.368 44.7057 156.315C44.8133 156.261 44.9208 156.207 45.0822 156.207C45.1898 156.207 45.3511 156.207 45.4587 156.315C45.5663 156.368 45.6738 156.422 45.7814 156.53C45.8352 156.584 45.889 156.637 45.9427 156.745C45.9965 156.852 46.0503 156.96 46.0503 157.121C46.1041 157.229 46.0503 157.39 46.0503 157.498C45.9965 157.552 45.9965 157.659 45.9427 157.713C45.8352 157.874 45.7276 157.982 45.5663 158.09C45.5125 158.143 45.4049 158.143 45.3511 158.197C45.1898 158.305 45.0284 158.305 44.867 158.251Z" fill="#3EB595"/>
<path d="M42.3933 163.039L42.3395 163.039C42.3395 163.039 42.3395 163.039 42.2857 163.039L42.2319 163.039C42.1244 163.039 42.1781 163.039 42.1244 163.039L42.0706 163.039L42.0168 163.039C41.963 163.039 41.9092 162.985 41.8554 162.931C41.8016 162.877 41.8016 162.824 41.7478 162.77L41.7478 162.716C41.7478 162.662 41.7478 162.608 41.7478 162.608L41.7478 162.555C41.7478 162.501 41.7478 162.501 41.7478 162.501C41.7478 162.501 41.7478 162.501 41.7478 162.447L41.7478 162.393C41.7478 162.285 41.8016 162.232 41.9092 162.178C41.963 162.124 42.0706 162.07 42.1244 162.016C42.2857 161.962 42.5009 162.016 42.6622 162.178C42.8236 162.339 42.8774 162.501 42.8236 162.716C42.8236 162.824 42.7698 162.877 42.6622 162.931C42.5547 162.985 42.4471 163.039 42.3933 163.039Z" fill="#3EB595"/>
<path d="M40.0812 166.803C39.2206 166.803 39.2206 165.458 40.0812 165.458C40.9417 165.458 40.9417 166.803 40.0812 166.803Z" fill="#3EB595"/>
<path d="M267.598 70.4181C267.544 70.4181 267.544 70.4719 267.598 70.4181C267.437 70.5795 267.276 70.687 267.114 70.7946C266.953 70.8484 266.791 70.956 266.63 71.0098C266.469 71.0098 266.254 71.0635 266.092 71.0635C265.823 71.0635 265.554 71.0097 265.285 70.9022C265.124 70.8484 264.963 70.7408 264.855 70.6332C264.694 70.5257 264.586 70.4181 264.479 70.2567C264.371 70.1492 264.263 69.9878 264.21 69.8264C264.102 69.5575 264.048 69.3424 264.048 69.0196L264.048 68.9659C264.048 68.5893 264.156 68.2128 264.317 67.8901C264.479 67.5674 264.748 67.3522 265.07 67.1371C265.393 66.922 265.769 66.8682 266.146 66.8682C266.415 66.8682 266.684 66.922 266.953 67.0295C267.222 67.1371 267.437 67.2447 267.598 67.4598C267.867 67.7288 268.029 68.0515 268.136 68.3742C268.244 68.7507 268.244 69.1272 268.136 69.5037C268.029 69.8802 267.813 70.1492 267.598 70.4181Z" fill="#3EB595"/>
<path d="M259.155 76.1732C258.94 76.1732 258.725 76.1194 258.509 76.0119C258.294 75.9581 258.133 75.8505 257.972 75.6353C257.81 75.474 257.703 75.3126 257.595 75.0975C257.488 74.8823 257.434 74.6672 257.434 74.4521C257.434 74.2907 257.488 74.1293 257.488 74.0218C257.541 73.7528 257.703 73.4839 257.918 73.2688C258.025 73.1612 258.133 73.1074 258.241 72.9998C258.509 72.8385 258.778 72.7847 259.101 72.7847C259.316 72.7847 259.531 72.8385 259.747 72.946C259.962 72.9998 260.123 73.1074 260.284 73.3225C260.446 73.4839 260.553 73.6453 260.661 73.8604C260.768 74.0755 260.822 74.2907 260.822 74.5058C260.822 74.6672 260.768 74.8286 260.768 74.9361C260.715 75.2051 260.553 75.474 260.338 75.6891C260.231 75.7967 260.123 75.8505 260.015 75.9581C259.747 76.1194 259.478 76.1732 259.155 76.1732Z" fill="#3EB595"/>
<path d="M254.044 78.8626C253.937 78.8626 253.776 78.8626 253.668 78.7551C253.56 78.7013 253.453 78.6475 253.345 78.5399C253.238 78.4323 253.184 78.3786 253.13 78.2172C253.076 78.1096 253.023 78.0021 253.023 77.8407C253.023 77.7331 253.023 77.6793 253.076 77.5718C253.13 77.4104 253.184 77.2491 253.345 77.1415C253.399 77.0877 253.453 77.0339 253.56 76.9801C253.722 76.8726 253.883 76.8726 254.044 76.8726C254.152 76.8726 254.313 76.8726 254.421 76.9801C254.529 77.0339 254.636 77.0877 254.744 77.1953C254.851 77.3028 254.905 77.3566 254.959 77.518C255.013 77.6256 255.066 77.7331 255.066 77.8945C255.066 78.0021 255.066 78.0558 255.013 78.1634C254.959 78.3248 254.905 78.4861 254.744 78.5937C254.69 78.6475 254.636 78.7013 254.529 78.7551C254.367 78.8088 254.206 78.8626 254.044 78.8626Z" fill="#3EB595"/>
<path d="M298.631 155.293C298.631 155.454 298.523 156.046 298.577 155.669C298.631 155.239 298.523 155.992 298.523 156.1C298.523 155.777 298.523 155.401 298.523 155.078C298.685 155.885 298.416 157.014 297.555 157.391C296.264 157.982 294.866 158.413 293.467 158.897C291.908 159.434 289.326 160.672 288.412 158.52C288.089 157.767 288.304 156.907 288.896 156.369C289.38 155.938 289.81 155.723 290.402 155.508C290.993 155.293 291.585 155.078 292.177 154.863C293.414 154.432 294.651 153.948 295.942 153.626C296.802 153.41 297.878 153.733 298.254 154.594C298.147 154.379 297.985 154.217 297.824 154.11C297.985 154.217 298.147 154.325 298.254 154.486C298.47 154.701 298.577 154.97 298.631 155.293Z" fill="#3EB595"/>
<path d="M310.41 149.215C310.572 149.43 310.625 149.699 310.625 149.914C310.572 149.699 310.518 149.538 310.464 149.322C310.787 149.86 310.625 150.398 310.41 150.936C310.249 151.205 309.98 151.42 309.765 151.635C309.496 151.797 309.55 151.797 309.173 151.958C309.119 151.958 309.119 152.012 309.066 152.012C308.958 152.066 308.797 152.066 308.689 152.119C308.259 152.173 307.775 152.119 307.398 151.904C306.968 151.635 306.699 151.151 306.699 150.667C306.699 150.398 306.753 150.183 306.914 149.914C307.022 149.699 307.237 149.538 307.452 149.376C307.613 149.215 307.882 149.215 308.097 149.107C307.99 149.161 307.828 149.215 307.721 149.269C307.99 149.161 308.259 149.054 308.528 149C308.581 149 308.689 148.946 308.743 148.946C308.958 148.892 309.119 148.892 309.334 148.838C309.227 148.838 309.066 148.892 308.958 148.892C309.012 148.892 309.012 148.892 309.066 148.892C309.119 148.892 309.173 148.892 309.227 148.892C309.334 148.838 309.442 148.838 309.55 148.892C309.657 148.892 309.765 148.946 309.872 149C309.926 149 309.98 149.054 310.088 149.107C309.819 149.054 309.496 149.054 309.227 149C309.281 149 309.334 149 309.388 149C309.603 148.946 309.819 148.946 309.98 149C310.034 149.054 310.087 149.054 310.195 149.107C310.249 149 310.356 149.107 310.41 149.215Z" fill="#3EB595"/>
<path d="M324.287 143.191C324.233 143.245 324.125 143.299 324.072 143.353C324.018 143.407 324.018 143.407 323.964 143.46L323.91 143.514C323.856 143.568 323.803 143.568 323.749 143.622C323.695 143.676 323.641 143.676 323.587 143.729C323.534 143.783 323.426 143.837 323.372 143.837C323.318 143.837 323.265 143.891 323.265 143.891C323.05 143.998 322.834 144.052 322.619 144.052C322.512 144.052 322.404 143.998 322.297 143.998C322.189 143.944 322.081 143.891 321.974 143.837C322.243 143.891 322.512 143.891 322.781 143.944C322.727 143.944 322.727 143.944 322.673 143.944C322.619 143.944 322.565 143.944 322.512 143.944C322.35 143.944 322.404 143.944 322.243 143.944C322.135 143.944 321.974 143.891 321.866 143.837C321.812 143.783 321.759 143.729 321.651 143.676C321.597 143.622 321.597 143.622 321.597 143.568C321.544 143.514 321.544 143.514 321.544 143.46C321.49 143.407 321.49 143.299 321.436 143.245C321.436 143.138 321.436 143.084 321.382 142.976C321.382 142.869 321.382 142.815 321.436 142.707C321.436 142.6 321.49 142.546 321.544 142.438C321.544 142.385 321.597 142.385 321.597 142.331C321.544 142.6 321.544 142.869 321.49 143.138C321.436 143.084 321.436 142.976 321.436 142.923C321.382 142.761 321.382 142.6 321.436 142.438C321.436 142.385 321.49 142.331 321.49 142.277C321.544 142.116 321.597 142.008 321.759 141.901C321.812 141.847 321.812 141.847 321.866 141.793C321.92 141.739 321.974 141.632 322.028 141.578C322.135 141.47 322.35 141.363 322.458 141.255C322.512 141.201 322.619 141.148 322.673 141.094C322.834 140.986 322.996 140.932 323.157 140.932C323.318 140.879 323.48 140.879 323.641 140.932C323.749 140.986 323.856 141.04 323.964 141.04C324.125 141.094 324.233 141.255 324.34 141.363C324.394 141.417 324.448 141.524 324.502 141.632C324.556 141.793 324.609 141.954 324.609 142.116C324.609 142.223 324.556 142.331 324.556 142.438C324.556 142.815 324.448 143.03 324.287 143.191Z" fill="#3EB595"/>
<path d="M370.725 41.6519C368.873 43.2701 369.418 46.6738 371.488 48.013C373.557 49.3522 376.39 48.7384 378.241 47.0644C380.039 45.3904 380.91 42.8795 381.237 40.4243C381.455 38.7503 381.346 36.9089 380.311 35.6255C378.568 33.5051 375.028 34.1189 373.176 36.1277C371.324 38.1365 370.725 40.9823 370.181 43.6607" fill="#3EB595"/>
<path d="M123.351 129.504C124.279 127.249 124.552 124.35 122.696 122.793C119.912 120.484 115.655 122.954 113.417 124.779C111.18 126.604 108.341 128.537 106.813 131.007C105.394 133.315 105.995 136.59 107.687 138.577C109.815 141.046 113.745 139.597 116.037 138.147C119.312 136.161 121.932 133.047 123.351 129.504Z" fill="#3EB595"/>
<path d="M202.899 133.516C201.284 134.082 199.454 135.499 199.992 137.142C200.315 138.162 201.392 138.615 202.361 138.955C206.722 140.371 211.353 140.995 215.929 140.768C218.19 140.655 220.452 140.371 222.659 139.862C224.597 139.408 227.074 138.955 228.528 137.425C230.52 135.272 229.874 131.759 227.074 131.136C224.167 130.513 220.936 131.25 217.975 131.193C212.806 131.08 207.799 131.703 202.899 133.516Z" fill="#3EB595"/>
<path d="M58.2605 196.709C58.6908 201.388 55.7863 205.852 52.6667 209.133C49.1168 212.952 44.5987 215.642 40.4571 218.761C39.4352 219.514 38.467 220.267 37.4989 221.128C36.7459 221.773 35.9391 222.634 35.6701 223.387C35.6701 223.441 35.455 224.086 35.5088 223.871C35.5088 223.979 35.5088 224.14 35.5088 224.247C35.5088 223.979 35.5088 224.247 35.5088 224.355C35.6701 224.732 35.5626 224.516 35.5626 224.463C35.6701 224.732 35.6701 224.678 35.6164 224.57C35.7239 224.732 35.7777 224.732 35.6701 224.678C35.8315 224.785 35.9929 224.893 36.1542 224.947C35.9929 224.893 36.4769 225.054 36.5845 225.054C36.9072 225.108 36.7996 225.108 37.0686 225.108C37.5526 225.162 38.2519 225.108 38.6284 225.054C43.2002 224.409 46.9115 220.59 50.0849 217.363C53.2583 214.082 56.2704 210.371 58.0453 206.175C58.8521 204.239 59.6051 201.98 59.5514 199.936C59.5514 199.828 59.5514 199.721 59.5514 199.613C59.5514 199.882 59.5514 199.613 59.5514 199.559C59.4976 199.344 59.4438 199.129 59.39 198.914C59.4975 199.183 59.2824 198.699 59.2286 198.645C59.4438 198.914 59.2286 198.645 59.2286 198.645C59.3362 198.753 59.39 198.753 59.2824 198.699C59.1749 198.645 59.1748 198.645 59.3362 198.699C59.3362 198.699 59.1748 198.699 59.2286 198.645C59.2286 198.645 59.4438 198.591 59.2286 198.699C59.1211 198.753 59.0135 198.806 58.9059 198.914C58.5294 199.237 58.368 199.721 58.2605 200.205C57.9378 201.388 57.7764 202.625 57.3461 203.809C56.9158 204.992 56.3779 206.175 55.7325 207.251C54.4954 209.402 52.828 211.392 51.0531 213.114C49.063 215.05 46.9115 216.717 44.7601 218.439C43.7381 219.245 42.7162 219.998 41.748 220.805C41.3177 221.182 40.8874 221.558 40.5109 221.988C40.5109 221.988 40.242 222.365 40.1882 222.472C40.1344 222.634 40.0806 222.795 40.0268 222.903C40.0268 222.688 40.1344 223.172 40.0268 222.957C39.973 222.741 40.1344 223.226 40.0806 223.01C39.9731 222.741 40.0806 223.01 40.242 223.118C39.9731 222.903 40.242 223.118 40.2958 223.118C40.0806 223.118 40.242 223.118 40.3496 223.118C40.4571 223.118 40.5647 223.172 40.6723 223.226C40.2958 223.172 40.8336 223.226 40.8874 223.226C40.995 223.226 41.2101 223.172 40.9412 223.226C41.0488 223.172 41.2101 223.172 41.3177 223.118C41.2639 223.118 41.0488 223.279 41.4791 223.064C41.5866 223.01 41.748 222.903 41.8556 222.849C42.2859 222.58 42.6086 222.257 42.9851 221.881C44.8138 220.106 46.4812 218.223 48.0948 216.287C51.2144 212.468 53.85 208.165 56.2704 203.809C56.862 202.733 57.615 201.765 58.3142 200.743C59.0135 199.721 60.5195 200.312 60.3044 201.603C60.0354 203.056 59.6589 204.346 59.0673 205.691C58.4756 206.982 57.884 208.273 57.1847 209.51C55.8401 211.984 54.2803 214.297 52.6129 216.556C50.8917 218.815 49.063 221.02 47.1267 223.064C45.1366 225.108 42.8775 227.475 39.7579 226.883C38.3057 226.614 37.0686 225.592 36.5845 224.14C36.1004 222.58 36.6921 221.02 37.6602 219.783C38.5208 218.654 39.7041 217.793 40.8336 216.932C42.0707 215.964 43.3616 214.996 44.6525 214.028C48.7941 210.908 53.1508 207.197 54.7106 202.034C55.1409 200.689 55.2484 199.237 55.8401 197.946C56.4855 196.601 57.8302 195.472 59.39 195.472C62.3482 195.472 63.3702 198.591 63.1013 201.065C62.5096 206.498 59.8203 211.392 56.4855 215.642C54.8181 217.739 52.9894 219.676 51.0531 221.558C49.063 223.494 46.9653 225.323 44.5987 226.722C42.2859 228.066 39.489 229.034 36.7996 228.712C35.2936 228.55 33.8414 227.959 32.927 226.668C32.0664 225.485 31.9589 223.925 32.4429 222.58C33.4649 219.783 36.1004 217.847 38.467 216.126C40.8336 214.458 43.254 212.898 45.6744 211.285C49.8698 208.488 54.1189 205.046 56.109 200.259C56.5931 199.129 56.9696 197.946 57.2923 196.709C57.2923 195.902 58.2067 196.117 58.2605 196.709Z" fill="#F4D45D"/>
<path d="M59.6603 202.087C58.9611 203.97 58.3695 205.906 57.4551 207.735C56.5407 209.51 55.5188 211.123 54.3355 212.737C51.8613 216.018 48.7955 218.922 45.3531 221.181C44.3312 221.881 43.3092 222.472 42.1797 222.956C41.6956 223.171 41.1578 223.387 40.6199 223.44C40.2972 223.494 40.0283 223.548 39.7056 223.548C39.598 223.548 39.4366 223.548 39.329 223.494C39.2215 223.44 39.1139 223.44 39.0063 223.333C38.9526 223.279 38.9525 223.279 39.0601 223.333C38.4147 223.333 38.1995 222.634 38.5761 222.15C38.5223 222.203 38.4685 222.58 38.5222 222.203C38.576 221.988 38.6298 221.827 38.7374 221.665C38.845 221.504 39.0063 221.343 39.1677 221.181C39.4904 220.805 39.9207 220.536 40.2972 220.213C41.104 219.622 41.9108 219.03 42.7714 218.492C44.385 217.416 45.7297 216.394 47.1819 215.157C49.9788 212.737 52.5067 209.886 54.6044 206.82C55.8415 205.045 57.1324 203.27 57.993 201.28C58.4233 200.474 60.0368 201.173 59.6603 202.087Z" fill="#F4D45D"/>
<path d="M59.0126 198.537C59.0126 199.129 59.0664 199.72 59.0664 200.312C59.0664 200.581 59.0664 200.85 59.0126 201.173C59.0126 201.388 58.9588 201.603 58.9051 201.818C58.8513 202.033 58.7975 202.248 58.6899 202.463C58.5285 202.786 58.0983 203.001 57.7218 202.948C57.3453 202.894 57.0226 202.625 56.915 202.248C56.6999 201.549 56.915 200.796 57.0226 200.097C57.1301 199.505 57.2915 198.967 57.3991 198.376C57.5066 197.945 57.9369 197.73 58.3134 197.784C58.6899 197.784 59.0126 198.107 59.0126 198.537Z" fill="#F4D45D"/>
<path d="M59.3365 198.645C59.3903 198.913 59.4441 199.182 59.4979 199.451C59.4441 199.344 59.4441 199.29 59.3903 199.182C59.4441 199.344 59.4979 199.451 59.5517 199.613C59.5517 199.666 59.6055 199.774 59.6055 199.828C59.6592 199.989 59.6592 200.097 59.713 200.258C59.8206 200.904 59.8744 201.71 59.3365 202.194C59.1214 202.41 58.7449 202.571 58.4221 202.571C58.0994 202.571 57.7767 202.41 57.5078 202.194C56.9699 201.71 57.0237 200.85 57.1313 200.258C57.1851 200.097 57.1851 199.989 57.2388 199.828C57.2388 199.774 57.2927 199.666 57.2927 199.613C57.3464 199.451 57.4002 199.344 57.454 199.182C57.4002 199.29 57.4002 199.344 57.3464 199.451C57.4002 199.182 57.454 198.913 57.5078 198.645C57.5616 198.268 57.9919 197.945 58.3684 197.945C58.8525 197.999 59.2827 198.214 59.3365 198.645Z" fill="#F4D45D"/>
<path d="M62.9396 188.856C62.9934 188.856 62.9934 188.856 63.0472 188.91C62.8858 188.91 62.7244 188.856 62.5093 188.856C62.5631 188.856 62.5631 188.856 62.6168 188.856C62.0252 189.179 61.4874 189.501 60.8957 189.824C60.8957 189.824 60.8957 189.824 60.8957 189.77C61.0033 189.609 61.1108 189.501 61.2184 189.34C61.4336 189.125 61.6487 189.017 61.8639 188.91C62.0252 188.802 62.1866 188.748 62.4017 188.748C62.6707 188.694 62.9396 188.694 63.2085 188.802C63.2085 188.802 63.2623 188.802 63.3161 188.802C63.1547 188.802 62.9396 188.748 62.7782 188.748C62.7782 188.748 62.7782 188.748 62.832 188.748C62.9934 188.748 63.2085 188.802 63.3699 188.802C63.6926 188.91 64.0153 189.071 64.2842 189.34C63.854 189.179 63.3699 189.017 62.9396 188.856C62.8858 188.802 62.8858 188.802 62.9396 188.856C62.7782 188.856 62.5631 188.856 62.4017 188.856C62.4017 188.856 62.4017 188.856 62.4555 188.856C62.2941 188.91 62.1328 188.963 61.9714 189.071C61.9714 189.071 62.0252 189.071 62.0252 189.017C61.9176 189.125 61.7563 189.232 61.6487 189.34C61.7025 189.286 61.7563 189.232 61.8639 189.179C61.9714 189.071 62.1328 188.963 62.2941 188.91C62.4555 188.802 62.6169 188.802 62.7782 188.802C62.8858 188.748 62.9934 188.748 63.1009 188.748C62.5631 189.179 62.0252 189.555 61.4873 189.985C61.4873 189.932 61.5411 189.878 61.5411 189.878C61.5411 190.039 61.4873 190.147 61.4873 190.308C61.4873 190.254 61.4873 190.254 61.4873 190.201C61.4873 189.609 61.8101 189.125 62.2941 188.802C62.5631 188.641 62.832 188.587 63.1009 188.587C63.3699 188.587 63.6388 188.641 63.9077 188.802C63.9615 188.856 64.1767 189.017 64.2304 189.071C64.338 189.179 64.3918 189.286 64.4994 189.447C64.4994 189.447 64.4994 189.501 64.5532 189.501C64.607 189.663 64.6607 189.77 64.7145 189.932C64.338 189.555 63.9077 189.125 63.5312 188.748C63.6926 188.802 63.8539 188.856 63.9615 188.963C64.1767 189.071 64.338 189.232 64.4994 189.447C64.6069 189.555 64.7145 189.716 64.7683 189.878C64.8759 190.093 64.9297 190.362 64.9297 190.631C64.9297 190.738 64.9297 190.792 64.8759 190.9C64.8759 191.007 64.8759 191.061 64.8221 191.169C64.8221 191.169 64.8221 191.169 64.8221 191.222C64.7683 191.384 64.7145 191.545 64.6069 191.707L64.6069 191.76C64.6607 191.599 64.7145 191.438 64.8221 191.276C64.8221 190.954 64.8221 190.577 64.8221 190.254C65.0373 190.954 64.8221 191.76 64.2842 192.244C63.9077 192.621 63.7464 192.621 63.2623 192.836C63.1009 192.836 62.8858 192.89 62.7244 192.89C62.4555 192.89 62.1866 192.836 61.9176 192.728C61.7563 192.675 61.5949 192.567 61.4336 192.46C61.2184 192.298 61.0033 192.137 60.8957 191.868C60.8419 191.76 60.8419 191.707 60.7881 191.599C60.7343 191.491 60.6805 191.438 60.6805 191.33C61.0033 191.707 61.2722 192.137 61.5949 192.513C61.4336 192.406 61.2722 192.298 61.1108 192.137L61.0571 192.083C60.9495 191.975 60.8419 191.814 60.7343 191.653C60.7343 191.653 60.7343 191.653 60.7343 191.599C60.6805 191.438 60.6268 191.276 60.5192 191.115C60.5192 190.954 60.4654 190.792 60.4654 190.577C60.4654 190.416 60.5192 190.254 60.5192 190.039C60.573 189.77 60.6805 189.555 60.8419 189.394C60.9495 189.232 61.0571 189.125 61.1646 189.071C61.2722 188.963 61.4336 188.856 61.5949 188.802C61.7563 188.694 61.9176 188.694 62.079 188.694C62.4017 188.748 62.6707 188.802 62.9396 188.856Z" fill="#F4D45D"/>
<path d="M67.0811 182.616C67.0273 182.616 67.0273 182.616 66.9735 182.616L66.9197 182.616C66.8122 182.616 66.7046 182.67 66.597 182.67C66.4895 182.67 66.3819 182.67 66.2205 182.616C66.1667 182.616 66.113 182.563 66.0592 182.563C66.0054 182.563 65.9516 182.509 65.844 182.455C66.2205 182.455 66.597 182.455 66.9735 182.455C66.866 182.509 66.8122 182.563 66.7046 182.563C66.597 182.616 66.4357 182.67 66.3281 182.67C66.2743 182.67 66.2205 182.67 66.1668 182.67L66.1129 182.67C66.0054 182.67 65.8978 182.67 65.7902 182.616C65.5213 182.563 65.2524 182.294 65.1986 182.025C65.1986 181.971 65.1986 181.863 65.1448 181.756L65.1448 181.702L65.1448 181.648C65.1448 181.487 65.1986 181.379 65.2524 181.218C65.2524 181.164 65.3062 181.11 65.3062 181.057C65.3599 180.949 65.4137 180.895 65.4137 180.788C65.4137 181.164 65.4137 181.541 65.4137 181.917C65.4137 181.917 65.4137 181.917 65.4137 181.863C65.3599 181.756 65.3062 181.648 65.3062 181.541C65.3062 181.487 65.2524 181.433 65.3062 181.379C65.2524 181.272 65.2524 181.164 65.3062 181.057C65.3062 180.949 65.3062 180.895 65.36 180.841C65.36 180.788 65.36 180.788 65.36 180.734C65.4137 180.519 65.5213 180.304 65.7365 180.088C65.8978 179.927 66.1129 179.819 66.3819 179.712C66.866 179.604 67.4038 179.712 67.7265 180.088C68.103 180.465 68.2106 180.949 68.103 181.433C68.0493 181.648 67.9417 181.863 67.7265 182.079C67.5114 182.455 67.2963 182.563 67.0811 182.616Z" fill="#F4D45D"/>
</g>
</svg>
