<svg width="422" height="222" viewBox="0 0 422 222" fill="none" xmlns="http://www.w3.org/2000/svg">
<mask id="mask0" style="mask-type:alpha" maskUnits="userSpaceOnUse" x="0" y="-95" width="422" height="317">
<rect x="0.974609" y="-95" width="420.96" height="316.828" fill="#C4C4C4"/>
</mask>
<g mask="url(#mask0)">
<path d="M314.109 175.39C329.639 179.843 346.346 181.827 361.875 177.322C377.351 172.816 391.327 160.747 394.807 144.977C396.093 139.076 395.932 132.961 396.2 126.954C396.467 120.892 397.164 114.724 400.055 109.413C402.947 104.103 408.409 99.8655 414.46 99.9728C419.44 100.08 423.992 103.084 427.365 106.731C438.45 118.639 439.467 137.789 432.345 152.433C425.223 167.076 411.193 177.429 395.986 183.276C369.907 193.253 339.224 190.839 315.18 176.517L314.109 175.39Z" fill="#F4D45D"/>
<path d="M57.5416 144.737C61.1334 141.918 65.9583 139.208 69.979 141.376C72.7667 142.84 74.1069 146.363 73.9997 149.561C73.8925 152.759 72.5523 155.795 71.3192 158.722C66.9769 168.642 62.6345 178.616 56.8982 187.723C51.162 196.884 43.9247 205.231 34.8111 210.977C32.077 212.712 28.6996 214.392 25.3758 213.416C23.0706 212.712 21.2478 211.14 21.7303 208.592C22.2128 205.936 22.9097 203.28 23.4458 200.678C24.0891 197.642 24.8397 194.661 25.751 191.68C27.5738 185.825 29.9326 180.134 32.8275 174.713C35.7224 169.292 39.0998 164.143 42.9597 159.318C46.8196 154.548 51.1084 150.103 55.826 146.2C56.3621 145.658 56.9519 145.225 57.5416 144.737Z" fill="#1B6578"/>
<path d="M357.096 74.8433C367.205 55.0537 370.539 30.8544 387.101 16.0121C399.952 4.50401 418.019 1.27744 435.065 -1.41137C431.462 -13.6723 419.256 -22.2765 406.566 -23.5134C393.876 -24.7503 381.132 -19.4264 371.507 -10.9835C361.935 -2.54067 355.214 8.69857 350.267 20.4756C345.32 32.2526 341.932 44.5673 337.953 56.667C333.974 68.7666 329.296 80.8125 322.036 91.2989C317.627 97.6982 312.25 103.399 306.228 108.238C300.151 113.132 293.376 117.165 286.171 120.177C284.181 120.983 282.138 121.736 280.094 122.435C279.073 122.758 278.051 123.081 276.976 123.349C276.169 123.565 275.04 123.672 274.395 124.21C275.846 124.479 277.621 124.264 279.073 124.21C280.74 124.156 282.407 124.049 284.073 123.887C287.354 123.565 290.634 123.081 293.914 122.382C300.366 121.037 306.658 118.994 312.68 116.305C318.756 113.616 324.51 110.282 329.887 106.356C335.211 102.484 340.158 98.0747 344.567 93.1273C348.976 88.1798 352.848 82.7484 356.02 76.9406C356.343 76.2415 356.719 75.5424 357.096 74.8433Z" fill="#EB7A7D"/>
<path d="M342.401 124.752L342.403 124.751C348.218 119.42 353.235 112.865 354.921 105.306L354.921 105.305C355.176 104.167 355.222 102.83 354.932 101.731C354.643 100.637 354.054 99.8663 353.09 99.6333L353.088 99.6327C352.484 99.4832 351.852 99.6031 351.193 99.9015C350.532 100.201 349.886 100.662 349.273 101.136L349.272 101.137C349.07 101.292 348.868 101.447 348.666 101.603C336.151 111.219 323.256 121.126 307.991 125.652L307.99 125.653C297.555 128.702 286.489 129.072 275.693 128.966C274.161 128.966 272.536 128.98 270.985 129.232C269.436 129.483 267.997 129.966 266.825 130.878C266.557 131.09 266.282 131.32 266.091 131.575C265.902 131.825 265.838 132.039 265.879 132.244C265.923 132.46 266.096 132.684 266.425 132.935C266.64 133.1 266.855 133.231 267.079 133.368C267.212 133.449 267.348 133.532 267.49 133.625L267.49 133.625L267.493 133.628C268.985 134.629 270.526 135.576 272.118 136.416C275.31 138.1 278.66 139.468 282.115 140.467C285.574 141.468 289.194 142.153 292.816 142.522C296.431 142.89 300.099 142.89 303.714 142.522C303.945 142.494 304.173 142.48 304.391 142.467L304.407 142.466C304.624 142.453 304.834 142.44 305.055 142.416C318.949 140.783 332.111 134.248 342.401 124.752Z" stroke="#3EB595"/>
<path d="M366.537 87.8418C368.014 87.2444 368.722 85.5021 367.955 84.2576C367.187 83.0131 365.179 82.4655 363.703 83.0628C362.226 83.71 361.517 85.3528 362.226 86.6471C362.935 87.9414 364.884 88.5885 366.419 88.0409" fill="#3EB595"/>
<path d="M123.097 177.807C120.162 181.58 117.44 185.784 116.64 190.527C115.466 197.588 119.362 205.187 125.712 208.421C132.063 211.601 140.389 210.146 145.299 204.918C149.675 200.282 151.062 193.599 152.29 187.293C152.984 183.574 153.678 179.909 154.425 176.19C155.279 171.717 156.026 166.704 153.624 162.878C152.237 160.614 149.835 159.32 147.273 158.889C145.352 158.566 143.431 158.404 141.67 159.428C139.802 160.506 138.254 162.231 136.653 163.578C134.305 165.572 132.063 167.728 129.875 169.938C127.474 172.417 125.232 175.058 123.097 177.807Z" fill="#3EB595"/>
<path d="M402.03 84.4728L402.029 84.4741C400.684 85.7129 399.522 87.1964 398.92 88.9194C398.322 90.6318 398.44 92.6096 399.438 93.995C400.894 95.9996 403.899 96.2741 406.41 95.3672C407.665 94.9138 408.84 94.2571 410.035 93.5589C410.18 93.4743 410.325 93.389 410.471 93.3034C411.516 92.6896 412.587 92.0604 413.712 91.5623C414.896 91.0338 416.137 90.6402 417.344 90.2571C417.685 90.149 418.023 90.0417 418.356 89.9325C419.889 89.4304 421.351 88.8798 422.674 88.0053L422.675 88.0047C423.645 87.3673 424.582 86.4965 425.107 85.5164C425.62 84.5592 425.737 83.5129 425.12 82.4171C423.803 80.1332 421.278 79.1197 418.422 78.8703C415.573 78.6214 412.503 79.147 410.287 79.8255L410.287 79.8256L410.279 79.828C407.269 80.6925 404.416 82.2592 402.03 84.4728Z" stroke="#F4D45D"/>
<path d="M80.7586 172.924C83.1252 152.97 95.3346 134.898 111.739 123.334C128.144 111.77 148.367 106.338 168.429 105.8C181.123 105.477 194.408 107.198 204.842 114.459C147.937 123.226 95.6035 158.456 66.1289 207.885C75.3263 180.508 84.7926 152.54 102.757 129.896" fill="#EB7A7D"/>
<path d="M121.046 138.394C123.143 137.533 125.348 136.619 126.801 134.844C128.253 133.069 128.576 130.218 126.908 128.659C125.564 127.422 123.466 127.475 121.691 127.906C119.271 128.497 117.012 129.681 115.129 131.348C113.193 133.069 111.579 135.92 112.87 138.179C113.785 139.9 116.044 140.545 117.98 140.169C119.916 139.846 121.583 138.717 123.197 137.587" fill="#F4D45D"/>
<path d="M13.53 102.679C13.53 100.699 11.7248 99.0684 9.46814 99.0684C7.21153 99.0684 5.40625 100.699 5.40625 102.679C5.40625 104.659 7.21153 106.29 9.46814 106.29C11.7248 106.29 13.53 104.659 13.53 102.679Z" fill="#1B6578"/>
<path d="M13.53 92.0589C13.53 90.1951 11.7248 81.9178 9.46814 81.9178C7.21153 81.9178 5.40625 90.1951 5.40625 92.0589C5.40625 93.9227 7.21153 95.4575 9.46814 95.4575C11.7248 95.4575 13.53 93.9227 13.53 92.0589Z" fill="#1B6578"/>
<path d="M317.795 26.4119C319.247 24.2605 320.484 21.8939 321.775 19.6349C323.119 17.3221 324.464 15.0094 325.863 12.7504C327.207 10.4914 328.552 8.23235 329.843 5.91956C330.488 4.79006 331.134 3.60677 331.779 2.47727C332.371 1.40156 333.07 0.218267 334.092 -0.534735C334.307 -0.696091 334.683 -0.480946 334.63 -0.212015C334.576 1.02506 333.93 2.31591 333.339 3.39162C332.747 4.52112 332.102 5.65063 331.456 6.72635C330.112 9.03914 328.767 11.3519 327.369 13.6109C325.97 15.8699 324.518 18.0751 322.958 20.1728C322.205 21.1947 321.452 22.2167 320.645 23.2386C319.785 24.3681 318.817 25.39 318.01 26.5733C317.956 26.7347 317.687 26.5733 317.795 26.4119Z" fill="#EB7A7D"/>
<path d="M259.004 48.6255C264.275 45.9363 268.524 41.1493 273.096 37.4919C275.301 35.6632 277.453 33.5655 279.819 31.952C281.003 31.1452 283.315 30.2846 284.445 31.7906C287.188 35.448 278.475 40.6653 276.162 42.225C270.998 45.7749 265.082 47.012 259.542 49.5399C258.897 49.8088 258.359 48.8945 259.004 48.6255Z" fill="#F4D45D"/>
<path d="M286.491 27.1113C286.652 26.3583 287.19 25.5515 287.889 25.2288C289.234 24.4758 291.17 25.3902 291.117 27.0575C291.063 27.8105 290.74 28.7249 290.095 29.2089C289.718 29.5317 289.342 29.7468 288.858 29.8006C288.374 29.8544 287.889 29.8006 287.513 29.5317C286.652 28.9938 286.276 28.0795 286.491 27.1113Z" fill="#F4D45D"/>
<path d="M290.955 23.2923C291.008 22.862 291.224 22.4317 291.6 22.1628C292.03 21.7863 292.514 21.6249 293.106 21.7863C293.375 21.84 293.59 21.9476 293.805 22.1628C294.343 22.7006 294.397 23.5074 294.02 24.1528C293.859 24.4218 293.644 24.6907 293.375 24.8521C293.214 24.9596 292.999 25.0134 292.783 25.0672C292.299 25.2286 291.708 25.0134 291.385 24.6907C290.955 24.3142 290.901 23.8301 290.955 23.2923Z" fill="#F4D45D"/>
<path d="M294.181 21.2486C294.127 21.1949 294.127 21.1949 294.181 21.2486C293.697 20.9259 293.482 20.4419 293.59 19.904C293.643 19.7426 293.697 19.6351 293.751 19.4737C293.966 19.0434 294.558 18.7745 295.042 18.9359C295.526 19.0972 295.849 19.5275 295.902 20.0116C295.902 20.1729 295.902 20.3343 295.849 20.4419C295.795 20.7108 295.633 20.8721 295.418 21.0335C295.203 21.1949 294.988 21.2486 294.719 21.3024C294.558 21.3562 294.289 21.3024 294.181 21.2486Z" fill="#F4D45D"/>
<path d="M109.643 111.77C114.107 107.144 118.249 103.272 124.112 100.475C129.867 97.7319 135.891 95.9032 142.13 94.6661C149.229 93.2677 156.383 92.5147 163.59 91.923C171.013 91.3314 178.543 90.0405 185.965 90.417C186.826 90.4708 187.364 91.7617 186.449 92.192C180.264 95.0426 173.325 95.5805 166.656 96.441C159.503 97.3554 152.349 98.0546 145.249 99.3455C139.387 100.421 133.524 101.873 127.877 103.863C122.014 105.907 115.237 108.597 110.396 112.523C109.858 112.953 109.159 112.308 109.643 111.77Z" fill="#1B6578"/>
<path d="M90.387 126.83C90.6022 126.508 90.9249 126.239 91.0863 125.862C91.2476 125.539 91.7317 125.432 92.0545 125.701C92.3772 125.916 92.3772 126.4 92.1083 126.669C91.8931 126.884 91.6779 127.261 91.5166 127.476C91.3014 127.745 90.9249 127.906 90.656 127.691C90.3332 127.529 90.1719 127.099 90.387 126.83Z" fill="#1B6578"/>
<path d="M95.7663 122.258C95.9276 121.667 96.2504 121.075 96.7344 120.645C96.8958 120.483 97.0571 120.322 97.2723 120.214C97.7564 119.838 98.1866 119.677 98.8321 119.623C99.4775 119.569 100.177 120.107 100.392 120.698C100.661 121.344 100.499 122.043 100.015 122.581C99.6926 122.904 99.4237 123.065 98.9934 123.226C99.3699 123.065 98.7783 123.334 98.7245 123.388C98.2942 123.603 97.8639 123.764 97.4336 123.926C96.4655 124.302 95.4974 123.173 95.7663 122.258Z" fill="#1B6578"/>
<path d="M102.973 117.579L102.973 117.525C103.027 117.74 103.08 117.955 103.134 118.117C102.973 117.901 102.919 117.579 102.919 117.31C102.973 117.579 103.027 117.794 103.134 118.063C102.973 117.74 102.865 117.471 102.865 117.148C102.865 116.88 102.919 116.664 103.027 116.395C103.242 115.965 103.511 115.535 103.941 115.32C104.64 114.943 105.555 114.997 106.146 115.589C106.684 116.18 106.845 117.041 106.415 117.794C106.2 118.224 105.77 118.547 105.339 118.708C105.124 118.816 104.855 118.87 104.586 118.87C104.264 118.87 103.941 118.762 103.672 118.601C103.941 118.654 104.156 118.708 104.425 118.816C104.156 118.816 103.833 118.762 103.618 118.601C103.833 118.654 104.049 118.708 104.21 118.762L104.156 118.762C103.457 118.708 102.919 118.17 102.973 117.579Z" fill="#1B6578"/>
<path d="M369.912 74.9266C369.912 74.8728 369.912 74.8191 369.912 74.7653C370.02 75.088 370.073 75.3569 370.181 75.6796C370.127 75.5183 370.073 75.4107 370.02 75.2493C369.966 75.0342 369.912 74.7653 369.966 74.5501C369.966 74.3888 370.02 74.2274 370.073 74.1198C370.127 73.9585 370.181 73.8509 370.289 73.7434C370.396 73.5282 370.611 73.3669 370.773 73.2593C370.934 73.2055 371.042 73.1517 371.203 73.0979C371.364 73.0979 371.526 73.0441 371.687 73.0441C371.956 73.0441 372.171 73.0979 372.386 73.2055C372.548 73.2593 372.655 73.3131 372.763 73.4206C372.924 73.4744 373.032 73.6358 373.086 73.7434C373.247 73.9047 373.354 74.1199 373.408 74.335C373.408 74.4964 373.462 74.6577 373.462 74.8191C373.462 74.9804 373.408 75.1418 373.408 75.3031C373.354 75.4645 373.301 75.5721 373.247 75.7334C373.139 75.9486 372.978 76.1099 372.763 76.2175C372.601 76.3789 372.386 76.4864 372.171 76.5402C372.548 76.2713 372.87 76.0023 373.247 75.7334C373.193 75.7872 373.193 75.7872 373.139 75.841C373.032 75.9486 372.978 76.0561 372.87 76.1637C372.709 76.3251 372.548 76.4326 372.332 76.5402C372.171 76.594 372.064 76.6478 371.902 76.6478C371.687 76.7016 371.418 76.7016 371.203 76.594C371.042 76.5402 370.934 76.4864 370.773 76.4326C370.665 76.3251 370.558 76.2713 370.45 76.1637C370.289 76.0024 370.181 75.841 370.073 75.6259C369.966 75.3569 369.912 75.1418 369.912 74.9266Z" fill="#3EB595"/>
<path d="M373.732 69.2795C373.732 69.2257 373.732 69.2257 373.786 69.1719C373.839 69.0643 373.839 69.0105 373.893 68.903C374.054 68.634 374.27 68.4727 374.539 68.4189C374.646 68.4189 374.7 68.4189 374.807 68.3651C374.969 68.3651 375.076 68.3651 375.184 68.4727C375.292 68.4727 375.345 68.5265 375.399 68.5803C375.507 68.634 375.614 68.7416 375.668 68.8492C375.722 68.903 375.776 69.0105 375.776 69.1181C375.829 69.2795 375.829 69.4946 375.776 69.656L375.776 69.7098C375.776 69.7635 375.776 69.7635 375.722 69.8173C375.668 69.9787 375.614 70.0863 375.56 70.1938C375.507 70.3014 375.399 70.409 375.292 70.4628C375.184 70.5165 375.023 70.5703 374.915 70.5703C374.754 70.6241 374.646 70.5703 374.485 70.5703C374.377 70.5165 374.323 70.5165 374.216 70.4628C374.054 70.3552 373.947 70.2476 373.839 70.0862C373.786 69.9787 373.786 69.9249 373.732 69.8173C373.678 69.656 373.678 69.4408 373.732 69.2795Z" fill="#3EB595"/>
<path d="M377.067 63.5782C377.12 63.5782 377.12 63.632 377.067 63.5782C376.905 63.632 376.744 63.632 376.582 63.6858C376.582 63.6858 376.636 63.6858 376.636 63.632C376.69 63.5782 376.744 63.5782 376.798 63.5244C376.905 63.4706 377.013 63.4706 377.174 63.5244C377.228 63.5244 377.228 63.5244 377.282 63.5782C377.389 63.5782 377.443 63.632 377.497 63.7396C377.551 63.7934 377.551 63.8471 377.604 63.9009C377.658 64.0085 377.712 64.1161 377.712 64.2774L377.712 64.3312C377.658 64.1699 377.551 64.0085 377.497 63.8471C377.551 63.9009 377.604 63.9547 377.658 64.0085C377.766 64.1161 377.82 64.2236 377.82 64.3312C377.873 64.4388 377.873 64.6001 377.82 64.7077C377.82 64.8153 377.766 64.9766 377.712 65.0842C377.658 65.138 377.604 65.1918 377.551 65.2994C377.443 65.4069 377.335 65.4607 377.228 65.5145C377.12 65.5683 377.013 65.6221 376.851 65.6221C376.744 65.6221 376.582 65.6221 376.475 65.5145C376.367 65.4607 376.26 65.4069 376.152 65.2994C376.098 65.2456 376.045 65.1918 375.991 65.0842C375.937 64.9766 375.883 64.8691 375.883 64.7077C375.829 64.6001 375.883 64.4388 375.883 64.3312C375.937 64.2774 375.937 64.1699 375.991 64.1161C376.098 63.9547 376.206 63.8471 376.367 63.7396C376.421 63.6858 376.529 63.6858 376.582 63.632C376.744 63.5244 376.905 63.5244 377.067 63.5782Z" fill="#3EB595"/>
<path d="M379.54 58.7902L379.594 58.7902C379.594 58.7902 379.594 58.7902 379.648 58.7902L379.702 58.7902C379.809 58.7902 379.755 58.7902 379.809 58.7902L379.863 58.7902L379.917 58.7902C379.971 58.7902 380.024 58.844 380.078 58.8978C380.132 58.9516 380.132 59.0055 380.186 59.0593L380.186 59.1131C380.186 59.1669 380.186 59.2208 380.186 59.2208L380.186 59.2746C380.186 59.3284 380.186 59.3284 380.186 59.3284C380.186 59.3284 380.186 59.3284 380.186 59.3822L380.186 59.4361C380.186 59.5437 380.132 59.5975 380.024 59.6513C379.971 59.7052 379.863 59.759 379.809 59.8128C379.648 59.8666 379.433 59.8128 379.271 59.6513C379.11 59.4899 379.056 59.3284 379.11 59.1131C379.11 59.0055 379.164 58.9516 379.271 58.8978C379.379 58.844 379.487 58.7902 379.54 58.7902Z" fill="#3EB595"/>
<path d="M381.852 55.026C382.713 55.026 382.713 56.3706 381.852 56.3706C380.992 56.3706 380.992 55.026 381.852 55.026Z" fill="#3EB595"/>
<path d="M154.337 151.411C154.391 151.411 154.391 151.357 154.337 151.411C154.499 151.249 154.66 151.142 154.821 151.034C154.983 150.98 155.144 150.873 155.305 150.819C155.467 150.819 155.682 150.765 155.843 150.765C156.112 150.765 156.381 150.819 156.65 150.926C156.811 150.98 156.973 151.088 157.08 151.195C157.242 151.303 157.349 151.411 157.457 151.572C157.564 151.679 157.672 151.841 157.726 152.002C157.833 152.271 157.887 152.486 157.887 152.809L157.887 152.863C157.887 153.239 157.78 153.616 157.618 153.939C157.457 154.261 157.188 154.476 156.865 154.692C156.543 154.907 156.166 154.96 155.79 154.96C155.521 154.96 155.252 154.907 154.983 154.799C154.714 154.692 154.499 154.584 154.337 154.369C154.068 154.1 153.907 153.777 153.799 153.454C153.692 153.078 153.692 152.701 153.799 152.325C153.907 151.948 154.122 151.679 154.337 151.411Z" fill="#3EB595"/>
<path d="M162.785 145.655C163 145.655 163.215 145.709 163.43 145.817C163.645 145.871 163.806 145.978 163.968 146.193C164.129 146.355 164.237 146.516 164.344 146.731C164.452 146.946 164.506 147.161 164.506 147.377C164.506 147.538 164.452 147.699 164.452 147.807C164.398 148.076 164.237 148.345 164.022 148.56C163.914 148.667 163.806 148.721 163.699 148.829C163.43 148.99 163.161 149.044 162.838 149.044C162.623 149.044 162.408 148.99 162.193 148.883C161.978 148.829 161.816 148.721 161.655 148.506C161.494 148.345 161.386 148.183 161.279 147.968C161.171 147.753 161.117 147.538 161.117 147.323C161.117 147.161 161.171 147 161.171 146.893C161.225 146.624 161.386 146.355 161.601 146.14C161.709 146.032 161.816 145.978 161.924 145.871C162.193 145.709 162.462 145.655 162.785 145.655Z" fill="#3EB595"/>
<path d="M167.893 142.966C168.001 142.966 168.162 142.966 168.27 143.074C168.377 143.127 168.485 143.181 168.592 143.289C168.7 143.396 168.754 143.45 168.807 143.611C168.861 143.719 168.915 143.827 168.915 143.988C168.915 144.095 168.915 144.149 168.861 144.257C168.807 144.418 168.754 144.58 168.592 144.687C168.538 144.741 168.485 144.795 168.377 144.848C168.216 144.956 168.054 144.956 167.893 144.956C167.785 144.956 167.624 144.956 167.517 144.848C167.409 144.795 167.301 144.741 167.194 144.633C167.086 144.526 167.032 144.472 166.979 144.311C166.925 144.203 166.871 144.095 166.871 143.934C166.871 143.827 166.871 143.773 166.925 143.665C166.979 143.504 167.032 143.343 167.194 143.235C167.248 143.181 167.301 143.127 167.409 143.074C167.57 143.02 167.732 142.966 167.893 142.966Z" fill="#3EB595"/>
<path d="M123.305 66.5362C123.305 66.3748 123.412 65.7832 123.358 66.1597C123.305 66.59 123.412 65.837 123.412 65.7294C123.412 66.0521 123.412 66.4286 123.412 66.7513C123.251 65.9445 123.52 64.815 124.38 64.4385C125.671 63.8469 127.07 63.4166 128.468 62.9325C130.028 62.3947 132.61 61.1576 133.524 63.309C133.847 64.062 133.631 64.9226 133.04 65.4605C132.556 65.8908 132.125 66.1059 131.534 66.321C130.942 66.5362 130.351 66.7513 129.759 66.9665C128.522 67.3967 127.285 67.8808 125.994 68.2035C125.133 68.4187 124.058 68.096 123.681 67.2354C123.789 67.4505 123.95 67.6119 124.111 67.7195C123.95 67.6119 123.789 67.5043 123.681 67.343C123.466 67.1278 123.358 66.8589 123.305 66.5362Z" fill="#3EB595"/>
<path d="M111.525 72.6142C111.364 72.3991 111.31 72.1302 111.31 71.915C111.364 72.1302 111.418 72.2915 111.472 72.5066C111.149 71.9688 111.31 71.4309 111.525 70.8931C111.687 70.6241 111.956 70.409 112.171 70.1939C112.44 70.0325 112.386 70.0325 112.762 69.8711C112.816 69.8711 112.816 69.8173 112.87 69.8173C112.978 69.7636 113.139 69.7636 113.246 69.7098C113.677 69.656 114.161 69.7098 114.537 69.9249C114.968 70.1939 115.237 70.6779 115.237 71.162C115.237 71.4309 115.183 71.6461 115.021 71.915C114.914 72.1302 114.699 72.2915 114.484 72.4529C114.322 72.6142 114.053 72.6142 113.838 72.7218C113.946 72.668 114.107 72.6142 114.215 72.5604C113.946 72.668 113.677 72.7756 113.408 72.8294C113.354 72.8294 113.246 72.8831 113.193 72.8831C112.978 72.9369 112.816 72.9369 112.601 72.9907C112.709 72.9907 112.87 72.9369 112.978 72.9369C112.924 72.9369 112.924 72.9369 112.87 72.9369C112.816 72.9369 112.762 72.9369 112.709 72.9369C112.601 72.9907 112.493 72.9907 112.386 72.9369C112.278 72.9369 112.171 72.8831 112.063 72.8294C112.009 72.8294 111.956 72.7756 111.848 72.7218C112.117 72.7756 112.44 72.7756 112.709 72.8294C112.655 72.8294 112.601 72.8294 112.547 72.8294C112.332 72.8831 112.117 72.8831 111.956 72.8294C111.902 72.7756 111.848 72.7756 111.74 72.7218C111.687 72.8294 111.579 72.7218 111.525 72.6142Z" fill="#3EB595"/>
<path d="M97.6489 78.6382C97.7027 78.5844 97.8102 78.5306 97.864 78.4768C97.9178 78.423 97.9178 78.423 97.9716 78.3692L98.0254 78.3154C98.0792 78.2617 98.133 78.2616 98.1868 78.2079C98.2405 78.1541 98.2943 78.1541 98.3481 78.1003C98.4019 78.0465 98.5095 77.9927 98.5633 77.9927C98.6171 77.9927 98.6708 77.9389 98.6708 77.9389C98.886 77.8314 99.1011 77.7776 99.3163 77.7776C99.4238 77.7776 99.5314 77.8314 99.639 77.8314C99.7466 77.8852 99.8541 77.9389 99.9617 77.9927C99.6928 77.9389 99.4238 77.9389 99.1549 77.8851C99.2087 77.8851 99.2087 77.8851 99.2625 77.8851C99.3163 77.8851 99.3701 77.8851 99.4238 77.8851C99.5852 77.8851 99.5314 77.8851 99.6928 77.8851C99.8004 77.8851 99.9617 77.9389 100.069 77.9927C100.123 78.0465 100.177 78.1003 100.284 78.1541C100.338 78.2079 100.338 78.2079 100.338 78.2616C100.392 78.3154 100.392 78.3154 100.392 78.3692C100.446 78.423 100.446 78.5306 100.5 78.5844C100.5 78.6919 100.5 78.7457 100.553 78.8533C100.553 78.9609 100.553 79.0147 100.5 79.1222C100.5 79.2298 100.446 79.2836 100.392 79.3912C100.392 79.4449 100.338 79.4449 100.338 79.4987C100.392 79.2298 100.392 78.9609 100.446 78.6919C100.5 78.7457 100.5 78.8533 100.5 78.9071C100.553 79.0684 100.553 79.2298 100.5 79.3912C100.5 79.4449 100.446 79.4987 100.446 79.5525C100.392 79.7139 100.338 79.8214 100.177 79.929C100.123 79.9828 100.123 79.9828 100.069 80.0366C100.015 80.0904 99.9617 80.198 99.9079 80.2517C99.8004 80.3593 99.5852 80.4669 99.4776 80.5744C99.4238 80.6282 99.3163 80.682 99.2625 80.7358C99.1011 80.8434 98.9398 80.8972 98.7784 80.8972C98.617 80.9509 98.4557 80.9509 98.2943 80.8972C98.1868 80.8434 98.0792 80.7896 97.9716 80.7896C97.8103 80.7358 97.7027 80.5745 97.5951 80.4669C97.5413 80.4131 97.4875 80.3055 97.4338 80.1979C97.38 80.0366 97.3262 79.8752 97.3262 79.7139C97.3262 79.6063 97.38 79.4987 97.38 79.3912C97.38 79.0147 97.4875 78.7995 97.6489 78.6382Z" fill="#3EB595"/>
<path d="M51.2122 180.176C53.0639 178.558 52.5193 175.154 50.4497 173.815C48.38 172.476 45.5479 173.089 43.6961 174.763C41.8988 176.437 41.0274 178.948 40.7006 181.403C40.4828 183.077 40.5917 184.919 41.6265 186.202C43.3694 188.323 46.9095 187.709 48.7613 185.7C50.6131 183.691 51.2122 180.845 51.7568 178.167" fill="#3EB595"/>
<path d="M298.583 92.3251C297.655 94.58 297.382 97.4791 299.238 99.036C302.021 101.345 306.278 98.875 308.516 97.0496C310.754 95.2242 313.592 93.2915 315.12 90.8219C316.539 88.5133 315.939 85.2384 314.247 83.252C312.118 80.7824 308.189 82.2319 305.896 83.6815C302.622 85.6679 300.002 88.7818 298.583 92.3251Z" fill="#3EB595"/>
<path d="M219.036 88.3133C220.651 87.7467 222.482 86.3303 221.943 84.6872C221.62 83.6674 220.543 83.2141 219.574 82.8742C215.213 81.4577 210.583 80.8345 206.006 81.0612C203.745 81.1745 201.484 81.4577 199.276 81.9677C197.338 82.4209 194.861 82.8742 193.408 84.4039C191.416 86.5569 192.062 90.0697 194.861 90.6929C197.769 91.3162 200.999 90.5796 203.96 90.6363C209.129 90.7496 214.136 90.1263 219.036 88.3133Z" fill="#3EB595"/>
<path d="M363.673 25.1213C363.243 20.442 366.147 15.9777 369.267 12.6968C372.817 8.87801 377.335 6.18873 381.476 3.06915C382.498 2.31615 383.466 1.56313 384.434 0.702561C385.187 0.0571317 385.994 -0.803432 386.263 -1.55643C386.263 -1.61022 386.478 -2.25564 386.424 -2.0405C386.424 -2.14807 386.424 -2.30944 386.424 -2.41701C386.424 -2.14808 386.424 -2.41702 386.424 -2.52459C386.263 -2.90109 386.371 -2.68594 386.371 -2.63215C386.263 -2.90108 386.263 -2.8473 386.317 -2.73973C386.209 -2.90108 386.156 -2.90107 386.263 -2.84729C386.102 -2.95486 385.94 -3.06243 385.779 -3.11622C385.94 -3.06243 385.456 -3.2238 385.349 -3.2238C385.026 -3.27758 385.134 -3.27759 384.865 -3.27759C384.381 -3.33137 383.681 -3.27758 383.305 -3.2238C378.733 -2.57837 375.022 1.24042 371.849 4.46757C368.675 7.7485 365.663 11.4597 363.888 15.655C363.081 17.5913 362.328 19.8503 362.382 21.8942C362.382 22.0018 362.382 22.1093 362.382 22.2169C362.382 21.948 362.382 22.2169 362.382 22.2707C362.436 22.4858 362.49 22.701 362.544 22.9161C362.436 22.6472 362.651 23.1313 362.705 23.185C362.49 22.9161 362.705 23.185 362.705 23.185C362.597 23.0775 362.544 23.0775 362.651 23.1313C362.759 23.185 362.759 23.185 362.597 23.1313C362.597 23.1313 362.759 23.1313 362.705 23.185C362.705 23.185 362.49 23.2388 362.705 23.1313C362.812 23.0775 362.92 23.0237 363.028 22.9161C363.404 22.5934 363.565 22.1093 363.673 21.6253C363.996 20.442 364.157 19.2049 364.587 18.0216C365.018 16.8383 365.556 15.655 366.201 14.5793C367.438 12.4279 369.105 10.4378 370.88 8.71666C372.87 6.78037 375.022 5.113 377.173 3.39185C378.195 2.58506 379.217 1.83207 380.185 1.02528C380.616 0.648779 381.046 0.272288 381.422 -0.157999C381.422 -0.157999 381.691 -0.534513 381.745 -0.642084C381.799 -0.803442 381.853 -0.964792 381.906 -1.07236C381.906 -0.857221 381.799 -1.3413 381.906 -1.12615C381.96 -0.91101 381.799 -1.39509 381.853 -1.17994C381.96 -0.911012 381.853 -1.17993 381.691 -1.2875C381.96 -1.07236 381.691 -1.2875 381.638 -1.2875C381.853 -1.2875 381.691 -1.2875 381.584 -1.2875C381.476 -1.2875 381.369 -1.3413 381.261 -1.39508C381.638 -1.3413 381.1 -1.39508 381.046 -1.39508C380.938 -1.39508 380.723 -1.3413 380.992 -1.39508C380.885 -1.3413 380.723 -1.34129 380.616 -1.2875C380.669 -1.2875 380.885 -1.44886 380.454 -1.23371C380.347 -1.17993 380.185 -1.07236 380.078 -1.01858C379.647 -0.749645 379.325 -0.426937 378.948 -0.0504377C377.12 1.72449 375.452 3.60699 373.839 5.54328C370.719 9.36208 368.084 13.6649 365.663 18.0216C365.072 19.0973 364.319 20.0655 363.619 21.0874C362.92 22.1093 361.414 21.5177 361.629 20.2268C361.898 18.7746 362.275 17.4837 362.866 16.1391C363.458 14.8482 364.05 13.5574 364.749 12.3203C366.093 9.84615 367.653 7.53336 369.321 5.27435C371.042 3.01535 372.87 0.810146 374.807 -1.23372C376.797 -3.27758 379.056 -5.64416 382.175 -5.05251C383.628 -4.78358 384.865 -3.76165 385.349 -2.30943C385.833 -0.749642 385.241 0.810134 384.273 2.04721C383.412 3.17671 382.229 4.03729 381.1 4.89786C379.863 5.86601 378.572 6.83415 377.281 7.8023C373.139 10.9219 368.783 14.6331 367.223 19.7965C366.793 21.1412 366.685 22.5934 366.093 23.8842C365.448 25.2289 364.103 26.3584 362.544 26.3584C359.585 26.3584 358.563 23.2388 358.832 20.7647C359.424 15.3323 362.113 10.4378 365.448 6.18872C367.115 4.09107 368.944 2.15478 370.88 0.272281C372.87 -1.66401 374.968 -3.49273 377.335 -4.89116C379.647 -6.23581 382.444 -7.20394 385.134 -6.88122C386.64 -6.71987 388.092 -6.12823 389.006 -4.83737C389.867 -3.65408 389.974 -2.09429 389.49 -0.749644C388.468 2.04722 385.833 3.98351 383.466 5.70465C381.1 7.37201 378.679 8.9318 376.259 10.5454C372.064 13.3422 367.815 16.7845 365.824 21.5715C365.34 22.701 364.964 23.8843 364.641 25.1213C364.641 25.9281 363.727 25.713 363.673 25.1213Z" fill="#F4D45D"/>
<path d="M362.273 19.7424C362.972 17.8599 363.564 15.9236 364.478 14.0949C365.393 12.32 366.415 10.7064 367.598 9.09283C370.072 5.8119 373.138 2.90748 376.58 0.648475C377.602 -0.0507396 378.624 -0.642393 379.754 -1.12646C380.238 -1.34161 380.776 -1.55675 381.313 -1.61053C381.636 -1.66432 381.905 -1.71811 382.228 -1.71811C382.335 -1.71811 382.497 -1.71811 382.604 -1.66432C382.712 -1.61054 382.819 -1.61053 382.927 -1.50295C382.981 -1.44917 382.981 -1.44917 382.873 -1.50295C383.519 -1.50295 383.734 -0.803749 383.357 -0.319677C383.411 -0.373462 383.465 -0.749967 383.411 -0.373466C383.357 -0.158323 383.304 0.00303488 383.196 0.164391C383.088 0.325749 382.927 0.48712 382.766 0.648476C382.443 1.02498 382.013 1.2939 381.636 1.61661C380.829 2.20826 380.023 2.79991 379.162 3.33777C377.548 4.41348 376.204 5.4354 374.752 6.67247C371.955 9.09283 369.427 11.9435 367.329 15.0093C366.092 16.7842 364.801 18.5591 363.941 20.5492C363.51 21.356 361.897 20.6568 362.273 19.7424Z" fill="#F4D45D"/>
<path d="M380.668 0.540928C380.937 -0.373435 381.475 -1.07266 382.228 -1.6643C383.035 -2.30973 383.895 -2.74002 384.864 -2.90137C384.541 -2.30973 384.164 -1.6643 383.842 -1.07265C383.734 -1.6643 383.68 -2.25594 383.626 -2.90137C384.164 -2.36351 384.702 -1.82565 385.294 -1.234C384.917 -1.234 384.541 -1.234 384.218 -1.234C384.164 -1.234 383.842 -1.18022 384.111 -1.234C384.38 -1.28779 384.057 -1.234 384.003 -1.234C383.842 -1.18022 383.626 -1.18023 383.465 -1.12644C383.142 -1.01887 382.82 -0.911295 382.443 -0.803723C382.336 -0.749936 382.282 -0.74993 382.174 -0.696144C382.121 -0.696144 381.798 -0.534799 382.067 -0.642371C382.336 -0.749943 382.013 -0.588582 381.959 -0.588582C381.852 -0.534796 381.798 -0.534789 381.69 -0.481003C381.367 -0.319645 381.099 -0.15829 380.776 0.00306753C380.614 0.11064 380.453 0.164426 380.292 0.271998C380.238 0.325784 380.13 0.379563 380.077 0.433349C379.915 0.540921 380.346 0.218205 380.077 0.433349C379.861 0.594707 379.646 0.756072 379.377 0.809858C379.485 0.756072 379.485 0.756072 379.377 0.809858C379.27 0.863644 379.216 0.971212 379.108 1.025C378.786 1.29393 378.517 1.56287 378.14 1.72423C377.602 1.99316 376.957 1.67043 376.957 1.025C376.957 0.540924 377.118 0.0568466 377.334 -0.373441C377.387 -0.481013 377.441 -0.588586 377.495 -0.642372C377.495 -0.696158 377.71 -0.911292 377.602 -0.749934C377.495 -0.642362 377.656 -0.803726 377.656 -0.857512C377.818 -1.18023 377.818 -1.28779 378.087 -1.55672C378.624 -2.25594 379.324 -2.8476 380.077 -3.33167C380.83 -3.81575 381.69 -4.13846 382.551 -4.3536C383.411 -4.56875 384.38 -4.67632 385.294 -4.56874C385.724 -4.51496 386.154 -4.40739 386.477 -4.08467C386.746 -3.76196 387.015 -3.33166 386.961 -2.90137C386.907 -2.30973 386.854 -1.71808 386.746 -1.07265C386.639 -0.481006 385.939 0.0568541 385.294 0.00306801C385.133 0.00306799 384.917 0.00306797 384.702 0.00306794C384.648 0.00306794 384.541 0.00306793 384.487 0.00306792C384.218 0.00306789 384.648 -0.0507181 384.433 0.00306792C384.057 0.0568539 383.734 0.164426 383.411 0.271998C383.358 0.271998 383.25 0.325784 383.358 0.271998C383.25 0.325784 383.196 0.32579 383.089 0.379576C382.927 0.433363 382.82 0.540934 382.658 0.648507C382.389 0.809864 382.067 1.025 381.852 1.24014C381.367 1.67043 380.453 1.24015 380.668 0.540928Z" fill="white"/>
<path d="M362.921 23.2926C362.921 22.7009 362.867 22.1093 362.867 21.5176C362.867 21.2487 362.867 20.9798 362.921 20.6571C362.921 20.4419 362.975 20.2268 363.029 20.0116C363.082 19.7965 363.136 19.5813 363.244 19.3662C363.405 19.0435 363.835 18.8283 364.212 18.8821C364.588 18.9359 364.911 19.2048 365.019 19.5813C365.234 20.2806 365.019 21.0336 364.911 21.7328C364.803 22.3244 364.642 22.8623 364.534 23.4539C364.427 23.8842 363.997 24.0994 363.62 24.0456C363.244 24.0456 362.921 23.7229 362.921 23.2926Z" fill="#F4D45D"/>
<path d="M362.597 23.1851C362.543 22.9161 362.49 22.6472 362.436 22.3783C362.49 22.4859 362.49 22.5396 362.543 22.6472C362.49 22.4859 362.436 22.3783 362.382 22.2169C362.382 22.1631 362.328 22.0556 362.328 22.0018C362.274 21.8404 362.274 21.7329 362.221 21.5715C362.113 20.9261 362.059 20.1193 362.597 19.6352C362.812 19.4201 363.189 19.2587 363.511 19.2587C363.834 19.2587 364.157 19.4201 364.426 19.6352C364.964 20.1193 364.91 20.9799 364.802 21.5715C364.748 21.7329 364.749 21.8404 364.695 22.0018C364.695 22.0556 364.641 22.1631 364.641 22.2169C364.587 22.3783 364.533 22.4859 364.48 22.6472C364.533 22.5396 364.533 22.4859 364.587 22.3783C364.533 22.6472 364.48 22.9161 364.426 23.1851C364.372 23.5616 363.942 23.8843 363.565 23.8843C363.081 23.8305 362.651 23.6154 362.597 23.1851Z" fill="#F4D45D"/>
<path d="M358.994 32.9742C358.94 32.9742 358.94 32.9742 358.886 32.9205C359.048 32.9205 359.209 32.9742 359.424 32.9742C359.37 32.9742 359.371 32.9742 359.317 32.9742C359.908 32.6515 360.446 32.3288 361.038 32.0061C361.038 32.0061 361.038 32.0061 361.038 32.0599C360.93 32.2212 360.823 32.3288 360.715 32.4902C360.5 32.7053 360.285 32.8129 360.07 32.9205C359.908 33.028 359.747 33.0818 359.532 33.0818C359.263 33.1356 358.994 33.1356 358.725 33.028C358.725 33.028 358.671 33.028 358.617 33.028C358.779 33.028 358.994 33.0818 359.155 33.0818C359.155 33.0818 359.155 33.0818 359.102 33.0818C358.94 33.0818 358.725 33.028 358.564 33.028C358.241 32.9205 357.918 32.7591 357.649 32.4902C358.08 32.6515 358.564 32.8129 358.994 32.9742C359.048 33.028 359.048 33.028 358.994 32.9742C359.155 32.9742 359.37 32.9742 359.532 32.9742C359.532 32.9742 359.532 32.9742 359.478 32.9742C359.639 32.9204 359.801 32.8667 359.962 32.7591C359.962 32.7591 359.908 32.7591 359.908 32.8129C360.016 32.7053 360.177 32.5977 360.285 32.4902C360.231 32.544 360.177 32.5977 360.07 32.6515C359.962 32.7591 359.801 32.8667 359.639 32.9205C359.478 33.028 359.317 33.028 359.155 33.028C359.048 33.0818 358.94 33.0818 358.833 33.0818C359.37 32.6515 359.908 32.275 360.446 31.8447C360.446 31.8985 360.392 31.9523 360.392 31.9523C360.392 31.791 360.446 31.6834 360.446 31.522C360.446 31.5758 360.446 31.5758 360.446 31.6296C360.446 32.2212 360.123 32.7053 359.639 33.028C359.37 33.1894 359.102 33.2432 358.833 33.2432C358.564 33.2432 358.295 33.1894 358.026 33.028C357.972 32.9742 357.757 32.8129 357.703 32.7591C357.596 32.6515 357.542 32.544 357.434 32.3826C357.434 32.3826 357.434 32.3288 357.38 32.3288C357.327 32.1675 357.273 32.0599 357.219 31.8985C357.596 32.275 358.026 32.7053 358.402 33.0818C358.241 33.028 358.08 32.9742 357.972 32.8667C357.757 32.7591 357.596 32.5977 357.434 32.3826C357.327 32.275 357.219 32.1137 357.165 31.9523C357.058 31.7372 357.004 31.4682 357.004 31.1993C357.004 31.0917 357.004 31.038 357.058 30.9304C357.058 30.8228 357.058 30.769 357.111 30.6615C357.111 30.6615 357.111 30.6615 357.111 30.6077C357.165 30.4463 357.219 30.285 357.327 30.1236L357.327 30.0698C357.273 30.2312 357.219 30.3925 357.111 30.5539C357.111 30.8766 357.111 31.2531 357.111 31.5758C356.896 30.8766 357.111 30.0698 357.649 29.5857C358.026 29.2092 358.187 29.2092 358.671 28.9941C358.833 28.9941 359.048 28.9403 359.209 28.9403C359.478 28.9403 359.747 28.9941 360.016 29.1017C360.177 29.1555 360.339 29.263 360.5 29.3706C360.715 29.532 360.93 29.6933 361.038 29.9622C361.092 30.0698 361.092 30.1236 361.145 30.2312C361.199 30.3387 361.253 30.3925 361.253 30.5001C360.93 30.1236 360.661 29.6933 360.339 29.3168C360.5 29.4244 360.661 29.532 360.823 29.6933L360.876 29.7471C360.984 29.8547 361.092 30.016 361.199 30.1774C361.199 30.1774 361.199 30.1774 361.199 30.2312C361.253 30.3925 361.307 30.5539 361.414 30.7152C361.414 30.8766 361.468 31.038 361.468 31.2531C361.468 31.4145 361.414 31.5758 361.414 31.791C361.361 32.0599 361.253 32.275 361.092 32.4364C360.984 32.5977 360.876 32.7053 360.769 32.7591C360.661 32.8667 360.5 32.9742 360.339 33.028C360.177 33.1356 360.016 33.1356 359.855 33.1356C359.532 33.0818 359.263 33.028 358.994 32.9742Z" fill="#F4D45D"/>
<path d="M354.852 39.2133C354.906 39.2133 354.906 39.2133 354.96 39.2133L355.014 39.2133C355.121 39.2133 355.229 39.1595 355.337 39.1595C355.444 39.1595 355.552 39.1595 355.713 39.2133C355.767 39.2133 355.821 39.267 355.874 39.267C355.928 39.267 355.982 39.3208 356.09 39.3746C355.713 39.3746 355.337 39.3746 354.96 39.3746C355.068 39.3208 355.121 39.267 355.229 39.267C355.337 39.2133 355.498 39.1595 355.605 39.1595C355.659 39.1595 355.713 39.1595 355.767 39.1595L355.821 39.1595C355.928 39.1595 356.036 39.1595 356.143 39.2133C356.412 39.267 356.681 39.536 356.735 39.8049C356.735 39.8587 356.735 39.9663 356.789 40.0738L356.789 40.1276L356.789 40.1814C356.789 40.3428 356.735 40.4503 356.681 40.6117C356.681 40.6655 356.627 40.7193 356.627 40.773C356.574 40.8806 356.52 40.9344 356.52 41.042C356.52 40.6655 356.52 40.289 356.52 39.9125C356.52 39.9125 356.52 39.9125 356.52 39.9663C356.574 40.0738 356.627 40.1814 356.627 40.289C356.627 40.3428 356.681 40.3966 356.627 40.4503C356.681 40.5579 356.681 40.6655 356.627 40.773C356.627 40.8806 356.627 40.9344 356.574 40.9882C356.574 41.042 356.574 41.042 356.574 41.0958C356.52 41.3109 356.412 41.5261 356.197 41.7412C356.036 41.9026 355.821 42.0101 355.552 42.1177C355.068 42.2253 354.53 42.1177 354.207 41.7412C353.831 41.3647 353.723 40.8806 353.831 40.3966C353.884 40.1814 353.992 39.9663 354.207 39.7511C354.422 39.3746 354.637 39.267 354.852 39.2133Z" fill="#F4D45D"/>
</g>
</svg>
