<svg width="24" height="24" viewBox="0 0 24 24" fill="none" xmlns="http://www.w3.org/2000/svg">
<path d="M9.5912 3.7191C10.8162 3.9986 11.0726 4.79991 11.0669 5.78606C11.0578 6.86462 11.0669 6.86462 12.0731 7.27147C16.5025 9.06344 18.744 13.9446 17.0142 18.3557C15.6604 21.8067 13.0178 23.7249 9.24592 23.9807C5.3521 24.2444 1.67593 21.7785 0.471433 18.1563C-1.08746 13.4509 1.33179 8.65095 6.07457 7.07424C6.44606 6.9514 6.58737 6.79474 6.54976 6.41043C6.52458 6.03523 6.5223 5.65887 6.54292 5.2834C6.56002 4.45955 7.09446 3.84194 7.91835 3.76981C8.32973 3.73375 8.53712 3.59963 8.68412 3.19841C9.52853 0.904922 11.8919 -0.113907 14.2804 0.0100656C16.9299 0.148689 18.6483 1.68482 19.8722 3.87575C20.0568 4.2071 20.0796 4.55197 19.6819 4.74018C19.3149 4.91825 19.0665 4.70862 18.899 4.39531C18.2255 3.13868 17.3173 2.11985 15.9909 1.50337C14.195 0.668247 11.7016 1.07397 10.4174 2.46134C10.1017 2.80846 9.89318 3.25476 9.5912 3.7191Z" fill="black"/>
<path d="M22.6948 7.52462C22.5607 7.57421 22.2744 7.7647 22.1921 7.6982C21.772 7.3596 21.3865 6.98015 21.0413 6.56543C20.9996 6.51697 21.225 6.11458 21.393 6.04808C21.65 5.95115 22.7174 7.08617 22.6948 7.52462Z" fill="black"/>
<path d="M21.3703 2.51577C21.2992 2.51953 21.2285 2.50207 21.1673 2.46559C21.1061 2.42911 21.0571 2.37527 21.0266 2.3109C20.996 2.24653 20.9853 2.17453 20.9957 2.10405C21.0061 2.03356 21.0373 1.96776 21.0852 1.91501C21.3912 1.53782 21.7328 1.19094 22.1052 0.879178C22.159 0.832857 22.2252 0.803376 22.2956 0.794406C22.366 0.785435 22.4375 0.797371 22.5012 0.828727C22.5649 0.860084 22.6179 0.909475 22.6537 0.970754C22.6896 1.03203 22.7066 1.10249 22.7026 1.17336C22.7037 1.48895 21.6803 2.51915 21.3703 2.51577Z" fill="black"/>
<path d="M17.5089 6.39088C17.4717 6.5052 17.4186 6.61372 17.3511 6.71324C17.073 7.03815 16.7688 7.33973 16.4415 7.61495C16.313 7.71301 16.047 7.63298 15.8441 7.63411C15.8644 7.43912 15.8148 7.18325 15.9174 7.05814C16.1897 6.72756 16.4948 6.42544 16.8281 6.15643C16.9295 6.0719 17.1426 6.06514 17.279 6.10233C17.3781 6.12713 17.4367 6.29169 17.5089 6.39088Z" fill="black"/>
<path d="M22.9033 4.68546C22.6959 4.68546 22.4704 4.73618 22.289 4.66968C22.1312 4.61107 21.9305 4.42396 21.9215 4.28307C21.9125 4.16021 22.1334 3.92352 22.2732 3.90661C22.7017 3.85307 23.1352 3.85307 23.5638 3.90661C23.7238 3.9269 23.8557 4.16585 24 4.30561C23.8591 4.43298 23.7385 4.62121 23.5739 4.67306C23.3688 4.73054 23.1276 4.68546 22.9033 4.68546Z" fill="black"/>
<path d="M18.8445 7.97774C18.8445 7.75231 18.7949 7.51449 18.8603 7.31273C18.8928 7.22718 18.9441 7.15004 19.0104 7.08701C19.0768 7.02399 19.1564 6.97671 19.2435 6.94866C19.3495 6.92838 19.602 7.13351 19.6132 7.25524C19.6578 7.73738 19.6578 8.2226 19.6132 8.70474C19.602 8.82872 19.345 9.04288 19.2379 9.01921C19.1506 8.98862 19.0712 8.93911 19.0054 8.87422C18.9395 8.80933 18.8888 8.73066 18.8569 8.64387C18.7938 8.44211 18.8434 8.20204 18.8445 7.97774Z" fill="black"/>
</svg>
