<svg width="95" height="95" viewBox="0 0 95 95" fill="none" xmlns="http://www.w3.org/2000/svg">
<path d="M47.5 95C73.7335 95 95 73.7335 95 47.5C95 21.2665 73.7335 0 47.5 0C21.2665 0 0 21.2665 0 47.5C0 73.7335 21.2665 95 47.5 95Z" fill="#3EB595"/>
<path d="M35.3621 68.9276L59.7864 93.3519C80.0151 87.9576 94.9993 69.527 94.9993 47.5002C94.9993 47.0507 94.9993 46.6011 94.9993 46.1516L75.8195 28.4702L35.3621 68.9276Z" fill="black" fill-opacity="0.1"/>
<path d="M48.6994 58.1394C50.7972 60.2372 50.7972 63.8334 48.6994 65.9312L44.354 70.2766C42.2562 72.3744 38.66 72.3744 36.5622 70.2766L17.5322 51.0968C15.4344 48.999 15.4344 45.4028 17.5322 43.305L21.8776 38.9596C23.9754 36.8618 27.5716 36.8618 29.6694 38.9596L48.6994 58.1394Z" fill="white"/>
<path d="M65.3325 25.0245C67.4303 22.9267 71.0265 22.9267 73.1243 25.0245L77.4697 29.3699C79.5675 31.4677 79.5675 35.0639 77.4697 37.1617L44.5045 69.9772C42.4067 72.075 38.8104 72.075 36.7127 69.9772L32.3672 65.6318C30.2694 63.534 30.2694 59.9378 32.3672 57.84L65.3325 25.0245Z" fill="white"/>
</svg>
