<svg width="126" height="124" viewBox="0 0 126 124" fill="none" xmlns="http://www.w3.org/2000/svg">
<path d="M0 47.4523L62.8133 0L125.686 47.4523H0Z" fill="#38A386"/>
<path d="M125.686 47.4519H0L44.7136 81.2103H80.9726L125.686 47.4519Z" fill="#38A386"/>
<path d="M98.1801 12.2168H12.5039V55.9182L44.7143 80.21H80.9734L113.124 55.9182V27.161H98.1801V12.2168Z" fill="white"/>
<path d="M97.6801 27.161V27.661H98.1801H112.624V55.6693L80.8057 79.71H44.8817L13.0039 55.669V12.7168H97.6801V27.161Z" stroke="black" stroke-opacity="0.05"/>
<path d="M98.1794 27.1617H113.124L98.1794 12.2175V27.1617Z" fill="#F3F3F3"/>
<path d="M38.377 47.1484C38.3405 47.9401 38.127 48.6406 37.7363 49.25C37.3457 49.8542 36.7962 50.3229 36.0879 50.6562C35.3848 50.9896 34.5801 51.1562 33.6738 51.1562C32.179 51.1562 31.002 50.6693 30.1426 49.6953C29.2832 48.7214 28.8535 47.3464 28.8535 45.5703V45.0078C28.8535 43.8932 29.0462 42.9193 29.4316 42.0859C29.8223 41.2474 30.3822 40.6016 31.1113 40.1484C31.8405 39.6901 32.6842 39.4609 33.6426 39.4609C35.0228 39.4609 36.1322 39.8255 36.9707 40.5547C37.8092 41.2786 38.2858 42.2786 38.4004 43.5547H35.666C35.6452 42.862 35.4707 42.3646 35.1426 42.0625C34.8145 41.7604 34.3145 41.6094 33.6426 41.6094C32.9603 41.6094 32.4603 41.8646 32.1426 42.375C31.8249 42.8854 31.6582 43.7005 31.6426 44.8203V45.625C31.6426 46.8385 31.7936 47.7057 32.0957 48.2266C32.403 48.7474 32.929 49.0078 33.6738 49.0078C34.304 49.0078 34.7858 48.8594 35.1191 48.5625C35.4525 48.2656 35.6296 47.7943 35.6504 47.1484H38.377Z" fill="#20322D" fill-opacity="0.6"/>
<path d="M49.9466 45.5469C49.9466 46.6562 49.7409 47.638 49.3295 48.4922C48.918 49.3464 48.3321 50.0052 47.5716 50.4688C46.8164 50.9271 45.9545 51.1562 44.9857 51.1562C44.017 51.1562 43.1576 50.9349 42.4076 50.4922C41.6576 50.0443 41.0716 49.4062 40.6498 48.5781C40.2331 47.75 40.0143 46.7995 39.9935 45.7266V45.0859C39.9935 43.9714 40.1966 42.9896 40.6029 42.1406C41.0143 41.2865 41.6003 40.6276 42.3607 40.1641C43.1263 39.7005 43.9961 39.4688 44.9701 39.4688C45.9336 39.4688 46.793 39.6979 47.5482 40.1562C48.3034 40.6146 48.8893 41.2682 49.306 42.1172C49.7279 42.9609 49.9414 43.9297 49.9466 45.0234V45.5469ZM47.1576 45.0703C47.1576 43.9401 46.9675 43.0833 46.5873 42.5C46.2123 41.9115 45.6732 41.6172 44.9701 41.6172C43.5951 41.6172 42.8685 42.6484 42.7904 44.7109L42.7826 45.5469C42.7826 46.6615 42.9675 47.5182 43.3373 48.1172C43.7071 48.7161 44.2565 49.0156 44.9857 49.0156C45.6784 49.0156 46.2123 48.7214 46.5873 48.1328C46.9623 47.5443 47.1524 46.6979 47.1576 45.5938V45.0703Z" fill="#20322D" fill-opacity="0.6"/>
<path d="M55.6023 39.625L58.1413 47.5391L60.6726 39.625H64.282V51H61.532V48.3438L61.7976 42.9062L59.0476 51H57.2351L54.4773 42.8984L54.7429 48.3438V51H52.0007V39.625H55.6023Z" fill="#20322D" fill-opacity="0.6"/>
<path d="M69.5938 51H66.8595V39.625H69.5938V51Z" fill="#20322D" fill-opacity="0.6"/>
<path d="M81.6401 51H78.9135L74.8823 43.9219V51H72.1401V39.625H74.8823L78.9057 46.7031V39.625H81.6401V51Z" fill="#20322D" fill-opacity="0.6"/>
<path d="M93.327 49.5938C92.9051 50.0625 92.2879 50.4401 91.4754 50.7266C90.6629 51.013 89.7723 51.1562 88.8035 51.1562C87.3139 51.1562 86.1238 50.7005 85.2332 49.7891C84.3426 48.8776 83.866 47.6094 83.8035 45.9844L83.7957 45C83.7957 43.8802 83.9936 42.9036 84.3895 42.0703C84.7853 41.2318 85.3504 40.5885 86.0848 40.1406C86.8243 39.6875 87.6785 39.4609 88.6473 39.4609C90.0639 39.4609 91.1629 39.7865 91.9441 40.4375C92.7306 41.0833 93.1889 42.0495 93.3191 43.3359H90.6785C90.5848 42.7005 90.3816 42.2474 90.0691 41.9766C89.7566 41.7057 89.3139 41.5703 88.741 41.5703C88.0535 41.5703 87.5223 41.862 87.1473 42.4453C86.7723 43.0286 86.5822 43.862 86.577 44.9453V45.6328C86.577 46.7682 86.7697 47.6224 87.1551 48.1953C87.5457 48.763 88.1577 49.0469 88.991 49.0469C89.7046 49.0469 90.2358 48.888 90.5848 48.5703V46.8047H88.6785V44.9219H93.327V49.5938Z" fill="#20322D" fill-opacity="0.6"/>
<path d="M47.5948 64.9766C47.5948 64.5755 47.4515 64.263 47.1651 64.0391C46.8838 63.8151 46.3864 63.5833 45.6729 63.3438C44.9593 63.1042 44.376 62.8724 43.9229 62.6484C42.4489 61.9245 41.712 60.9297 41.712 59.6641C41.712 59.0339 41.8942 58.4792 42.2588 58C42.6286 57.5156 43.1495 57.1406 43.8213 56.875C44.4932 56.6042 45.2484 56.4688 46.087 56.4688C46.9047 56.4688 47.6364 56.6146 48.2823 56.9062C48.9333 57.1979 49.4385 57.6146 49.7979 58.1562C50.1573 58.6927 50.337 59.3073 50.337 60H47.6026C47.6026 59.5365 47.4593 59.1771 47.1729 58.9219C46.8916 58.6667 46.5088 58.5391 46.0245 58.5391C45.5349 58.5391 45.1468 58.6484 44.8604 58.8672C44.5791 59.0807 44.4385 59.3542 44.4385 59.6875C44.4385 59.9792 44.5948 60.2448 44.9073 60.4844C45.2198 60.7188 45.7692 60.9635 46.5557 61.2188C47.3422 61.4688 47.988 61.7396 48.4932 62.0312C49.7224 62.7396 50.337 63.7161 50.337 64.9609C50.337 65.9557 49.962 66.737 49.212 67.3047C48.462 67.8724 47.4333 68.1562 46.126 68.1562C45.2041 68.1562 44.3682 67.9922 43.6182 67.6641C42.8734 67.3307 42.3109 66.8776 41.9307 66.3047C41.5557 65.7266 41.3682 65.0625 41.3682 64.3125H44.1182C44.1182 64.9219 44.2745 65.3724 44.587 65.6641C44.9047 65.9505 45.4177 66.0938 46.126 66.0938C46.5791 66.0938 46.9359 65.9974 47.1963 65.8047C47.462 65.6068 47.5948 65.3307 47.5948 64.9766Z" fill="#20322D" fill-opacity="0.6"/>
<path d="M62.016 62.5469C62.016 63.6562 61.8103 64.638 61.3988 65.4922C60.9874 66.3464 60.4014 67.0052 59.641 67.4688C58.8858 67.9271 58.0238 68.1562 57.0551 68.1562C56.0863 68.1562 55.227 67.9349 54.477 67.4922C53.727 67.0443 53.141 66.4062 52.7191 65.5781C52.3025 64.75 52.0837 63.7995 52.0629 62.7266V62.0859C52.0629 60.9714 52.266 59.9896 52.6723 59.1406C53.0837 58.2865 53.6697 57.6276 54.4301 57.1641C55.1957 56.7005 56.0655 56.4688 57.0395 56.4688C58.003 56.4688 58.8624 56.6979 59.6176 57.1562C60.3728 57.6146 60.9587 58.2682 61.3754 59.1172C61.7973 59.9609 62.0108 60.9297 62.016 62.0234V62.5469ZM59.227 62.0703C59.227 60.9401 59.0368 60.0833 58.6566 59.5C58.2816 58.9115 57.7426 58.6172 57.0395 58.6172C55.6645 58.6172 54.9379 59.6484 54.8598 61.7109L54.852 62.5469C54.852 63.6615 55.0368 64.5182 55.4066 65.1172C55.7764 65.7161 56.3259 66.0156 57.0551 66.0156C57.7478 66.0156 58.2816 65.7214 58.6566 65.1328C59.0316 64.5443 59.2217 63.6979 59.227 62.5938V62.0703Z" fill="#20322D" fill-opacity="0.6"/>
<path d="M73.7029 62.5469C73.7029 63.6562 73.4972 64.638 73.0857 65.4922C72.6742 66.3464 72.0883 67.0052 71.3279 67.4688C70.5727 67.9271 69.7107 68.1562 68.742 68.1562C67.7732 68.1562 66.9138 67.9349 66.1638 67.4922C65.4138 67.0443 64.8279 66.4062 64.406 65.5781C63.9893 64.75 63.7706 63.7995 63.7498 62.7266V62.0859C63.7498 60.9714 63.9529 59.9896 64.3591 59.1406C64.7706 58.2865 65.3565 57.6276 66.117 57.1641C66.8826 56.7005 67.7524 56.4688 68.7263 56.4688C69.6899 56.4688 70.5492 56.6979 71.3045 57.1562C72.0597 57.6146 72.6456 58.2682 73.0623 59.1172C73.4841 59.9609 73.6977 60.9297 73.7029 62.0234V62.5469ZM70.9138 62.0703C70.9138 60.9401 70.7237 60.0833 70.3435 59.5C69.9685 58.9115 69.4295 58.6172 68.7263 58.6172C67.3513 58.6172 66.6248 59.6484 66.5466 61.7109L66.5388 62.5469C66.5388 63.6615 66.7237 64.5182 67.0935 65.1172C67.4633 65.7161 68.0128 66.0156 68.742 66.0156C69.4347 66.0156 69.9685 65.7214 70.3435 65.1328C70.7185 64.5443 70.9086 63.6979 70.9138 62.5938V62.0703Z" fill="#20322D" fill-opacity="0.6"/>
<path d="M85.257 68H82.5304L78.4991 60.9219V68H75.757V56.625H78.4991L82.5226 63.7031V56.625H85.257V68Z" fill="#20322D" fill-opacity="0.6"/>
<path d="M98.1788 12.2175H63.825V80.2107H80.9721L113.123 55.9189V27.1617H98.1788V12.2175Z" fill="black" fill-opacity="0.1"/>
<path d="M0 118.804C0 121.364 2.08385 123.448 4.64402 123.448H121.042C123.602 123.448 125.686 121.364 125.686 118.804V47L80.793 80.5H44.293L0 47V118.804Z" fill="#3EB595"/>
<path d="M4.64402 123.449H121.042C123.602 123.449 125.686 121.365 125.686 118.805L80.9726 80.7598H44.654L0 118.805C0 121.365 2.08385 123.449 4.64402 123.449Z" fill="black" fill-opacity="0.1"/>
</svg>
