<svg width="20" height="23" viewBox="0 0 20 23" fill="none" xmlns="http://www.w3.org/2000/svg">
<g clip-path="url(#clip0_138_5271)">
<path d="M9.15792 5.02443C7.77589 5.1456 6.45514 5.6536 5.3451 6.49095C3.10945 8.18246 2.00279 10.461 2.09324 13.2723C2.23144 17.6432 6.12454 21.1265 10.4607 20.8105C14.7623 20.5037 18.0355 16.9417 17.8892 12.7211C17.8069 10.3536 16.8811 8.3829 15.0743 6.84684C14.3741 6.25165 14.239 5.54702 14.7328 5.05614C15.1688 4.6215 15.7612 4.599 16.2866 5.04284C18.189 6.65458 19.4196 8.66721 19.8434 11.1533C20.2915 13.8041 19.7783 16.2667 18.3089 18.4982C17.2092 20.1904 15.613 21.4959 13.742 22.233C10.9658 23.3447 8.20573 23.2557 5.55038 21.918C2.57391 20.4178 0.686804 17.9736 0.159392 14.657C-0.53976 10.2595 1.07398 6.7998 4.74758 4.33719C5.98532 3.50678 7.3826 3.05066 8.86728 2.88806L9.40181 2.83284L8.4984 1.91243C7.9842 1.38473 7.93949 0.723054 8.38865 0.285349C8.81241 -0.123722 9.48717 -0.0766808 9.97292 0.411136C10.8137 1.25246 11.6517 2.09583 12.487 2.94124C13.1526 3.61518 13.1638 4.16845 12.5134 4.83012C11.6564 5.70281 10.7944 6.57004 9.92719 7.43181C9.62233 7.73862 9.25243 7.88895 8.81851 7.73862C8.41914 7.60362 8.09294 7.3183 8.11631 6.90104C8.13562 6.54515 8.31244 6.16881 8.50856 5.85996C8.68335 5.58281 8.98008 5.38441 9.21991 5.15124L9.15792 5.02443Z" fill="black"/>
<path d="M9.97915 11.457C10.2637 11.4547 10.5425 11.5375 10.7803 11.6947C11.0181 11.8519 11.2043 12.0766 11.3153 12.3403C11.4263 12.604 11.4571 12.8948 11.4038 13.1761C11.3505 13.4574 11.2156 13.7165 11.016 13.9206C10.8164 14.1248 10.5612 14.2648 10.2826 14.3229C10.004 14.3811 9.71447 14.3549 9.45068 14.2475C9.18689 14.1401 8.96067 13.9564 8.8006 13.7197C8.64052 13.4829 8.5538 13.2037 8.55138 12.9173C8.5453 12.7259 8.5779 12.5352 8.64721 12.3568C8.71651 12.1784 8.82107 12.016 8.95455 11.8795C9.08804 11.743 9.24768 11.6351 9.42379 11.5625C9.59991 11.4899 9.78884 11.454 9.97915 11.457Z" fill="black"/>
<path d="M5.87366 14.3542C5.58959 14.3504 5.31298 14.262 5.07867 14.1004C4.84436 13.9387 4.66281 13.7109 4.55687 13.4456C4.45093 13.1803 4.42533 12.8894 4.4833 12.6095C4.54127 12.3296 4.68022 12.0732 4.88265 11.8726C5.08508 11.672 5.34196 11.5362 5.62094 11.4821C5.89993 11.4281 6.18855 11.4584 6.4505 11.5691C6.71244 11.6798 6.93599 11.866 7.09301 12.1043C7.25003 12.3425 7.33351 12.6222 7.33293 12.9081C7.32944 13.2945 7.17387 13.6636 6.90032 13.9347C6.62676 14.2058 6.25756 14.3566 5.87366 14.3542Z" fill="black"/>
<path d="M14.0927 14.3542C13.8086 14.3482 13.5326 14.2576 13.2995 14.094C13.0664 13.9303 12.8866 13.7009 12.7828 13.4346C12.679 13.1684 12.6558 12.8771 12.7162 12.5976C12.7766 12.3181 12.9178 12.0629 13.1221 11.864C13.3263 11.6651 13.5845 11.5315 13.8641 11.48C14.1436 11.4285 14.4321 11.4614 14.6931 11.5746C14.9541 11.6878 15.176 11.8762 15.3309 12.116C15.4857 12.3559 15.5665 12.6365 15.5632 12.9225C15.5562 13.3084 15.3976 13.6758 15.1219 13.9442C14.8463 14.2125 14.4762 14.36 14.0927 14.3542Z" fill="black"/>
</g>
<defs>
<clipPath id="clip0_138_5271">
<rect width="20" height="23" fill="white"/>
</clipPath>
</defs>
</svg>
