<svg width="30" height="30" viewBox="0 0 30 30" fill="none" xmlns="http://www.w3.org/2000/svg">
<path fill-rule="evenodd" clip-rule="evenodd" d="M7 15.75V13.25H9.5V15.75H7ZM12 13.25H14.5V15.75H12V13.25ZM17 15.75V13.25H19.5V15.6241C19.408 15.6643 19.3169 15.7063 19.2269 15.75H17ZM15.2696 24.5H4.5V10.75H22V15.0164C22.1653 15.0055 22.332 15 22.5 15C23.1926 15 23.8633 15.0939 24.5 15.2696V7C24.5 5.625 23.375 4.5 22 4.5H20.75V2H18.25V4.5H8.25V2H5.75V4.5H4.5C3.1125 4.5 2.0125 5.625 2.0125 7L2 24.5C2 25.875 3.1125 27 4.5 27H16.4995C15.9441 26.2607 15.5223 25.4155 15.2696 24.5Z" fill="#485AFD"/>
<path fill-rule="evenodd" clip-rule="evenodd" d="M22.5 28C25.5376 28 28 25.5376 28 22.5C28 19.4624 25.5376 17 22.5 17C19.4624 17 17 19.4624 17 22.5C17 25.5376 19.4624 28 22.5 28ZM21.25 24.6651L25 22.5L21.25 20.3349V24.6651Z" fill="#485AFD"/>
</svg>
