<svg width="116" height="106" viewBox="0 0 116 106" fill="none" xmlns="http://www.w3.org/2000/svg">
<g clip-path="url(#clip0_140_3823)">
<path d="M46.7089 44.3364C50.1835 43.6424 53.2769 43.1716 56.2823 42.3611C57.8901 41.9291 58.7258 40.8371 58.6231 38.7549C58.3006 30.8535 58.3544 22.9326 58.1736 15.0263C58.0905 11.3862 59.8498 8.80896 62.7526 7.02288C66.4617 4.74175 70.3321 2.70328 74.1634 0.616284C74.81 0.291427 75.5255 0.125008 76.2501 0.130936C88.8681 0.101815 101.489 0.101815 114.114 0.130936C114.747 0.185324 115.376 0.272812 116 0.393028C115.164 1.44623 114.71 2.31016 114.006 2.87316C104.863 10.2068 94.4049 15.1039 83.3948 18.8896C81.3667 19.5885 80.5164 20.4525 80.751 22.6317C81.8603 32.8774 80.9122 43.3026 83.8981 53.3979C85.3642 58.2902 83.6831 60.1928 78.5226 60.1928C76.4798 60.1928 74.4371 59.4987 72.3797 59.222C70.6302 59.0036 68.7439 58.4989 67.1166 58.9066C60.1674 60.6538 53.4333 59.2609 46.5916 58.1397C46.1958 58.0718 45.8097 57.9359 45.4139 57.8728C45.161 57.897 44.9127 57.9558 44.676 58.0475C44.4903 60.9208 44.2655 63.8717 44.1189 66.8372C44.0211 68.8708 45.3455 69.9434 47.051 70.487C51.5176 71.8945 56.0135 73.2049 60.7343 74.6221C61.1642 73.7017 61.6539 72.81 62.2003 71.9527C63.2755 70.453 64.2577 68.7931 65.6212 67.6234C68.9003 64.8472 72.6339 66.245 73.3473 70.4627C73.6259 72.0838 74.3589 72.8895 75.9081 73.1661C77.8237 73.4864 79.7443 73.8116 81.655 74.1368C86.581 75.025 86.581 75.0298 87.4362 80.257C90.559 78.8447 93.6035 77.6265 96.4965 76.1219C100.455 74.0689 101.383 74.229 103.138 78.2817C104.54 81.4597 106.678 84.2636 109.378 86.4646C111.415 88.2761 113.262 90.2876 114.891 92.4684C116.166 94.0846 115.252 94.9437 113.425 95.1378C112.213 95.2689 110.981 95.4145 109.799 95.594C106.207 96.1231 103.26 97.6131 101.002 100.627C99.7707 102.272 98.0359 103.622 96.3304 104.825C95.4161 105.516 94.3147 105.919 93.1677 105.983C92.0208 106.047 90.8807 105.769 89.8943 105.184C87.3189 103.811 84.6409 102.627 82.0753 101.258C77.1298 98.6372 71.9204 98.346 66.6865 99.836C62.4154 101.054 58.2908 102.782 54.1028 104.291C50.1004 105.748 48.5415 105.345 46.2838 101.865C44.6173 99.3312 42.3205 98.6517 39.5496 99.1322C37.5441 99.4481 35.5657 99.9154 33.6316 100.53C29.2334 102.02 25.2702 101.37 21.8738 98.2246C17.2117 93.9099 11.753 92.6965 5.61509 93.7109C4.56357 93.8579 3.49234 93.6638 2.56079 93.1576C3.13744 92.6237 3.63591 91.9296 4.3103 91.5802C9.3047 88.9884 12.9357 85.0959 15.4866 80.16C16.2343 78.7039 17.1726 77.607 19.0394 77.7332C19.4548 77.7623 20.1438 77.5633 20.2758 77.2479C21.2531 75.1415 22.5335 73.0593 22.8951 70.8364C24.498 61.0567 25.4852 51.1701 27.3569 41.4486C28.7545 34.1975 27.9042 27.6696 24.5909 21.1028C21.7663 15.5019 19.5085 9.60979 17.2606 3.75164C15.9069 0.242577 16.2001 0.0484351 19.8506 0.0484351C26.2035 0.0484351 32.5565 0.00960545 38.9094 0.0921146C39.7256 0.0921146 41.0206 0.528926 41.2649 1.10649C43.9136 7.3335 46.9484 13.4829 48.7077 19.9623C49.685 23.6558 48.6735 27.9365 48.3216 31.9309C47.9746 35.8283 47.3295 39.6577 46.7089 44.3364ZM9.42198 91.5511C15.0859 91.1677 19.7871 93.7934 24.0826 97.5257C25.056 98.4076 26.2438 99.0226 27.529 99.3102C28.8143 99.5978 30.1529 99.5482 31.413 99.1662C33.7636 98.5207 36.1093 97.8024 38.5038 97.3801C42.0224 96.7589 45.2819 97.0501 47.5348 100.467C49.5286 103.481 50.5696 103.714 54.0295 102.355C56.815 101.258 59.5223 99.9282 62.3665 98.9963C69.5258 96.6715 76.6802 96.0842 83.644 99.7874C85.936 101.006 88.2523 102.185 90.5492 103.394C92.1716 104.243 93.7794 104.539 95.2748 103.185C97.2295 101.408 99.0719 99.4331 101.173 97.846C102.989 96.4302 104.985 95.26 107.111 94.3661C108.875 93.6429 110.903 93.5556 113.503 93.0556C111.753 91.2841 110.385 89.6243 108.743 88.3041C105.381 85.6201 102.551 82.611 101.237 78.4176C100.748 76.8256 99.8978 76.5684 98.3047 77.3644C95.3584 78.888 92.3212 80.2316 89.2102 81.3879C86.5126 82.3586 85.1394 81.2714 85.2273 78.4273C85.2713 76.9712 84.7826 76.4228 83.3606 76.2723C81.0197 76.02 78.6887 75.6753 76.3772 75.224C73.7627 74.7144 71.7395 73.6951 71.4219 70.4918C71.1776 68.0651 68.7879 67.274 66.9015 68.9387C65.6554 70.0356 64.7562 71.5402 63.8081 72.9331C62.9187 74.2387 62.6597 75.3599 63.7348 77.0343C66.3395 81.0967 63.4416 86.2559 58.5743 86.5908C56.7069 86.7315 54.8315 86.7315 52.9641 86.5908C51.1169 86.4404 50.7162 87.4839 50.6429 88.8914C50.5696 90.2989 51.4541 90.5852 52.71 90.493C53.1449 90.4639 53.6141 90.9056 54.0686 91.1288C53.6434 91.5268 53.2818 92.1529 52.7882 92.284C50.5305 92.8664 48.7272 91.4006 48.737 89.0758C48.737 88.3187 48.8592 87.5567 48.9813 86.0715C47.3296 86.7122 46.0101 86.9597 45.0083 87.6634C42.516 89.4107 40.224 91.4394 37.7268 93.1818C37.0866 93.6235 35.9822 93.4002 35.0928 93.4828C35.6499 92.8421 36.1093 92.0607 36.7836 91.5851C38.9534 90.0562 41.1818 88.6439 43.6546 87.0374C42.213 86.2026 41.2894 85.8143 40.5514 85.2124C38.7189 83.7079 37.1062 83.7855 35.4007 85.4551C34.7701 86.0854 33.9323 86.4696 33.0403 86.5374C29.5488 86.5243 26.0607 86.3186 22.5921 85.9211C20.1487 85.5959 19.2886 83.9797 19.5232 81.519C19.5721 80.9802 19.5965 80.4415 19.6747 79.2378C18.6533 79.9319 17.9447 80.2085 17.5489 80.6938C14.822 84.266 12.1684 87.8673 9.42198 91.5511ZM41.5435 67.9146C38.4794 68.7543 38.2693 69.2348 39.1 72.506C39.3151 73.37 39.0707 74.9959 38.5478 75.2434C37.7268 75.6268 36.3976 75.355 35.4495 74.9619C34.5015 74.5688 33.744 73.3166 32.7373 73.0205C26.1742 71.1519 22.7143 73.4282 21.6343 80.1405C21.561 80.6259 21.473 81.1112 21.3949 81.5966C21.1652 83.0526 21.7174 84.0233 23.2323 84.1398C26.3795 84.397 29.5364 84.6252 32.6933 84.698C33.3189 84.698 34.047 84.2126 34.5797 83.7758C37.0231 81.781 38.367 81.7034 41.1477 83.3633C42.0957 83.9311 43.1562 84.6543 44.1873 84.6834C48.8983 84.8242 53.619 84.8533 58.3348 84.6834C58.9902 84.6844 59.6376 84.541 60.2304 84.2634C60.8232 83.9857 61.3465 83.5809 61.7626 83.078C62.1787 82.5751 62.4772 81.9868 62.6366 81.3554C62.7959 80.7241 62.8122 80.0655 62.6841 79.4271C62.2981 76.9373 60.2749 75.6948 56.5511 75.6753C56.4093 76.5356 56.1968 77.383 55.9158 78.2089C55.7546 78.6069 55.1779 78.835 54.7918 79.1359C54.5768 78.7427 54.1712 78.3399 54.1859 77.9565C54.2791 76.9501 54.4325 75.9502 54.6452 74.9619L52.6612 74.3795L50.8188 79.4756L49.6459 79.1893C49.9001 77.4177 50.1346 75.6511 50.5402 72.9428C49.6858 73.434 48.8691 73.9872 48.0968 74.5979C47.7792 74.8939 47.8231 75.5686 47.525 75.8938C47.0162 76.3922 46.467 76.8483 45.883 77.2576C45.7567 76.6186 45.7172 75.9656 45.7657 75.3162C45.962 74.5771 46.222 73.8561 46.5428 73.1612L41.5435 67.9146ZM53.272 45.1712L52.3679 45.5255C52.6274 46.3898 52.8105 47.2749 52.9153 48.1707C52.9446 48.7531 52.5585 49.3549 52.363 49.9471C51.9095 49.5809 51.4967 49.1676 51.1316 48.7143C50.4718 47.6853 51.0876 45.71 49.0058 45.7439C47.5641 45.7731 46.0247 45.71 44.7248 46.205C44.2369 46.4463 43.8057 46.7871 43.4596 47.2053C43.1135 47.6235 42.8602 48.1096 42.7163 48.6318C42.5746 49.1996 43.5666 50.2383 44.2801 50.7624C45.1475 51.3509 46.1117 51.7846 47.1292 52.0438C54.4302 54.1793 61.9169 53.8978 69.389 53.6308C73.4939 53.4852 77.5891 53.0678 81.9043 52.7572C81.2836 50.4615 80.7803 48.6172 80.2183 46.5448C76.3088 49.1705 72.067 49.5685 67.6834 49.1026C65.4403 48.8599 63.7739 48.2289 64.1502 45.3848C64.3603 43.7055 63.6615 41.8854 61.7947 41.6622C60.7783 41.536 59.6005 42.7154 58.6476 43.225C59.0923 45.2877 61.4331 46.3458 59.625 48.8647L56.7661 44.3316L55.9451 44.5014L57.162 49.9568L56.1846 50.2674L53.272 45.1712ZM82.0704 54.7035C68.7194 55.349 55.4662 57.6592 42.4231 52.6359C43.5129 53.9463 44.6857 55.2422 46.1469 55.9217C47.7209 56.5601 49.3903 56.9356 51.0876 57.0331C56.3019 57.5573 61.482 58.5426 66.7794 57.1011C68.6804 56.5818 70.9186 57.1933 72.9906 57.4117C75.2092 57.6495 77.3888 58.2465 79.6172 58.2902C82.1877 58.363 82.6617 57.4602 82.0509 54.7035H82.0704ZM80.2818 42.696H65.7873C65.9242 43.8705 65.9046 44.7878 66.1685 45.608C66.3444 46.171 66.8624 46.9622 67.3316 47.0398C71.1727 47.6708 74.9649 47.5009 78.3515 45.3702C79.1529 44.8703 79.5586 43.7492 80.2818 42.696ZM36.94 73.9184C36.8325 71.5547 36.7397 69.6473 36.6468 67.6768L25.0942 67.1284V70.9092C29.3214 71.3072 33.8564 69.6619 36.9498 73.9184H36.94Z" fill="black"/>
<path d="M0.166152 57.2517C0.127057 56.3926 0.0537486 55.5336 0.0537486 54.6745C0.0537486 37.4495 0.0928508 20.2148 0 2.99948C0 0.660106 0.645076 -0.140711 3.01522 0.0194543C5.84961 0.213594 8.71332 0.106816 11.5624 0.048574C13.2239 0.0194532 14.0449 0.446557 13.5171 2.30544C12.0511 7.32394 11.2154 12.5803 9.18734 17.3512C5.8838 25.1168 4.32978 33.1687 3.56254 41.473C3.12761 46.1275 2.55096 50.7771 1.95965 55.4171C1.8668 56.1451 1.36833 56.8246 1.05557 57.5235L0.166152 57.2517Z" fill="black"/>
<path d="M90.2559 38.2163C92.064 42.4485 94.444 46.3702 99.1012 47.467C103.24 48.4377 107.585 48.5736 112.012 49.093C111.844 49.5345 111.615 49.9509 111.333 50.3306C106.554 55.053 107.189 60.6976 112.203 65.6191C112.491 65.9006 112.916 66.1044 113.097 66.4247C113.375 66.8583 113.506 67.3681 113.473 67.8808C113.42 68.1477 112.726 68.405 112.306 68.4438C107.555 68.8612 107.57 68.8515 106.583 73.2293C106.367 73.8198 106.08 74.382 105.728 74.9038C103.431 72.1082 105.356 68.4438 110.126 66.2209C105.962 61.5179 104.604 56.4314 108.494 50.5927C101.613 50.7626 95.5582 49.5492 91.3017 44.0211C90.1581 46.0692 89.2003 48.0203 87.9933 49.8113C87.6023 50.3888 86.5614 50.5393 85.8186 50.8839C86.0629 50.151 86.1167 49.2628 86.581 48.7144C88.2954 46.6422 89.184 44.017 89.0781 41.3371C89.1212 40.3622 89.2158 39.3901 89.3616 38.425L90.2559 38.2163Z" fill="black"/>
<path d="M8.04391 60.955C13.0041 63.2798 12.3688 67.4004 11.2595 71.4676C13.0481 71.953 14.822 72.3073 16.5227 72.8897C16.8599 73.0062 16.9234 73.9138 17.114 74.4525C16.6253 74.4816 15.9704 74.7146 15.6088 74.4962C13.7371 73.375 11.929 73.5255 10.0426 74.4137C9.62237 74.6078 8.7574 74.6515 8.60102 74.4137C8.37422 73.9258 8.34278 73.3706 8.51306 72.8606C8.96266 71.2443 9.73967 69.6912 9.97913 68.0556C10.4678 64.6582 9.10926 62.974 5.7031 62.2314C4.71447 61.9289 3.74511 61.5675 2.80029 61.1491C10.7708 57.1741 16.6986 52.4857 14.6168 43.002C17.4219 43.6475 22.5091 48.2728 22.5922 50.5297C21.4291 49.7677 20.5495 49.2387 19.7187 48.6368C18.8879 48.035 18.1304 47.3701 17.5391 46.8944C16.4054 49.6997 15.7212 52.5876 14.1672 54.893C12.6131 57.1984 10.2235 58.8486 8.04391 60.955Z" fill="black"/>
<path d="M52.1774 11.8765C52.5488 12.3618 53.2036 12.8035 53.2574 13.3325C53.8585 19.0159 54.3716 24.7091 54.8896 30.4022C54.8896 30.5381 54.7625 30.6837 54.484 31.2418C53.9611 30.7565 53.189 30.4265 53.1352 29.9945C52.4168 24.1072 51.7962 18.2054 51.1462 12.3084L52.1774 11.8765Z" fill="black"/>
<path d="M22.5335 38.2261C21.8738 37.964 21.0675 37.8669 20.5788 37.4107C17.3209 34.2753 14.1167 31.0882 10.9663 27.8494C10.5509 27.4222 10.5851 26.5583 10.4141 25.908C11.02 26.1167 11.7922 26.1603 12.2124 26.5632C15.4622 29.7034 18.6582 32.9018 21.8445 36.1051C22.2402 36.561 22.5981 37.048 22.9147 37.5612L22.5335 38.2261Z" fill="black"/>
<path d="M112.882 28.3686C112.633 28.8133 112.345 29.2355 112.022 29.6305C108.191 33.455 104.364 37.2844 100.479 41.0507C100.049 41.4633 99.2527 41.4924 98.6223 41.7011C98.8178 41.0313 98.8031 40.1577 99.2332 39.716C103.016 35.8332 106.866 32.0378 110.742 28.257C111.214 27.9186 111.766 27.7078 112.345 27.6454C112.462 27.6212 112.692 28.0968 112.882 28.3686Z" fill="black"/>
<path d="M96.4524 21.9621C96.2521 22.3601 96.125 22.6513 95.9637 22.9328C93.7402 26.7719 91.5655 30.6255 89.2638 34.4258C88.9804 34.9112 88.2229 35.0907 87.6854 35.3965C87.7098 34.751 87.5045 33.989 87.7831 33.4842C89.9138 29.6015 92.1177 25.7623 94.3608 21.9427C94.6942 21.5374 95.1588 21.2595 95.6754 21.1564C95.8464 21.1273 96.1739 21.6709 96.4524 21.9621Z" fill="black"/>
<path d="M23.4082 32.0427C22.8902 31.7806 22.3086 31.6787 22.1425 31.3632C20.898 29.0368 19.7104 26.6796 18.5799 24.2917C18.4333 23.9859 18.7168 23.4811 18.8047 23.0686C19.225 23.1754 19.8945 23.1657 20.0216 23.4181C21.2873 25.9079 22.465 28.4366 23.6428 30.9701C23.7454 31.1836 23.5206 31.5573 23.4082 32.0427Z" fill="black"/>
<path d="M1.71045 77.6606C4.53996 78.3401 7.01272 78.9128 9.45617 79.602C9.55879 79.6312 9.60276 80.8737 9.33887 81.0581C7.82882 82.0191 2.71226 79.9515 1.71045 77.6606Z" fill="black"/>
<path d="M115.604 79.3787C115.37 79.7233 115.267 80.0485 115.116 80.0825C113.161 80.4562 111.152 80.8154 109.158 81.0871C108.953 81.1163 108.562 80.6018 108.464 80.2669C108.462 80.1148 108.501 79.9648 108.575 79.8319C108.65 79.699 108.758 79.5879 108.89 79.5098C110.786 79.136 112.696 78.7963 114.617 78.5391C114.896 78.5197 115.257 79.0778 115.604 79.3787Z" fill="black"/>
<path d="M9.42188 91.5512C12.1732 87.8674 14.8268 84.271 17.5439 80.7182C17.9397 80.2329 18.6483 79.932 19.6697 79.2622C19.5915 80.4659 19.5671 81.0046 19.5182 81.5433C19.2836 84.0089 20.1584 85.6203 22.5871 85.9454C26.0557 86.3429 29.5438 86.5487 33.0353 86.5618C33.9274 86.494 34.7651 86.1098 35.3957 85.4795C37.1012 83.8099 38.7139 83.7322 40.5465 85.2368C41.2844 85.8387 42.208 86.2075 43.6496 87.0617C41.2062 88.6682 38.9484 90.0806 36.7787 91.6094C36.1043 92.0948 35.6449 92.8665 35.0878 93.5071C35.9772 93.4246 37.0817 93.6479 37.7218 93.2062C40.219 91.4638 42.511 89.4351 45.0033 87.6878C46.0051 86.9841 47.3246 86.7171 48.9763 86.0959C48.8542 87.5811 48.7369 88.3431 48.732 89.1002C48.732 91.425 50.5255 92.8908 52.7832 92.3083C53.2719 92.1773 53.6384 91.5512 54.0636 91.1532C53.6091 90.93 53.14 90.4883 52.705 90.5174C51.4491 90.6096 50.5597 90.3621 50.6379 88.9158C50.7161 87.4694 51.1266 86.489 52.9591 86.6152C54.8265 86.756 56.7019 86.756 58.5693 86.6152C63.4562 86.2706 66.3346 81.1211 63.7298 77.0587C62.6547 75.3843 62.9137 74.2631 63.8032 72.9575C64.7512 71.5646 65.6504 70.0455 66.8965 68.9631C68.7829 67.2984 71.1726 68.0701 71.4169 70.5162C71.7346 73.7195 73.7577 74.7387 76.3722 75.2484C78.6837 75.6997 81.0147 76.0443 83.3556 76.2967C84.7777 76.4472 85.2663 76.9762 85.2224 78.4517C85.1344 81.2958 86.5076 82.383 89.2052 81.4123C92.3162 80.256 95.3534 78.9124 98.2997 77.3888C99.8781 76.5928 100.719 76.85 101.232 78.442C102.546 82.6354 105.376 85.6445 108.738 88.3285C110.38 89.6486 111.748 91.3085 113.498 93.0801C110.898 93.5654 108.87 93.6673 107.106 94.3905C104.98 95.2844 102.984 96.4546 101.168 97.8704C99.0669 99.4769 97.2588 101.452 95.2698 103.209C93.7744 104.563 92.1666 104.267 90.5442 103.418C88.2474 102.209 85.931 101.03 83.639 99.8118C76.6752 96.1086 69.5208 96.6959 62.3615 99.0207C59.5174 99.9477 56.81 101.282 54.0245 102.379C50.5646 103.738 49.5237 103.505 47.5298 100.491C45.277 97.0939 42.0174 96.7833 38.4988 97.4045C36.1043 97.8268 33.7586 98.5451 31.408 99.1906C30.1465 99.5685 28.8077 99.6138 27.5232 99.3219C26.2388 99.03 25.053 98.411 24.0825 97.5258C19.7821 93.7935 15.0809 91.1678 9.42188 91.5512ZM80.6336 80.4658L80.8535 79.8446C80.4576 79.5146 80.1107 79.0341 79.6513 78.8739C76.5677 77.7965 73.142 78.9467 70.8843 81.4948C68.6265 84.0429 66.2368 86.3483 63.9498 88.8138C63.4699 89.4312 63.0479 90.0907 62.6889 90.7844C63.4611 90.6727 64.4873 90.8329 64.9614 90.3961C67.0871 88.4547 69.252 86.5133 71.0211 84.237C73.0833 81.621 75.2824 79.8689 78.8401 80.6309C79.3923 80.7571 80.0276 80.5289 80.6287 80.4658H80.6336ZM51.2341 98.3606C52.7686 100.302 54.3372 98.9625 55.5541 98.482C57.5479 97.6957 59.835 96.9531 60.612 93.7693L51.2341 98.3606ZM87.4361 88.3964C87.011 88.6779 86.6005 88.809 86.5614 89.008C86.4409 89.4231 86.481 89.868 86.6738 90.2553C87.3144 91.0783 88.0528 91.8214 88.8729 92.4685C89.9285 93.2693 91.1111 93.9246 92.2448 94.6089C93.1538 92.5559 91.0329 92.1336 90.2168 91.0513C89.4691 90.066 88.4135 89.3138 87.4312 88.3964H87.4361ZM81.7478 86.1153L80.8731 85.0136C80.531 85.2854 79.9445 85.4989 79.8957 85.8435C79.5243 87.8189 79.2164 89.8137 79.0258 91.8133C78.9916 92.1676 79.622 92.5801 79.9445 92.9684C80.2377 92.6481 80.7215 92.3666 80.7948 91.9977C81.1223 90.1922 81.3715 88.3576 81.7478 86.1153Z" fill="white"/>
<path d="M41.5385 67.9148L46.528 73.1565C46.2073 73.8514 45.9473 74.5724 45.751 75.3115C45.7025 75.9609 45.7419 76.6139 45.8683 77.2529C46.4522 76.8436 47.0014 76.3875 47.5103 75.8891C47.8084 75.5542 47.7644 74.8892 48.0821 74.5932C48.8544 73.9825 49.6711 73.4293 50.5255 72.9382C50.1394 75.6464 49.8853 77.4131 49.6312 79.1846L50.8041 79.4709L52.6464 74.3748L54.6305 74.9572C54.4178 75.9455 54.2644 76.9454 54.1711 77.9518C54.1711 78.3352 54.5621 78.738 54.7771 79.1312C55.1632 78.8303 55.7545 78.6022 55.9011 78.2042C56.182 77.3783 56.3945 76.5309 56.5364 75.6706C60.2602 75.6706 62.2834 76.9326 62.6694 79.4224C62.7975 80.0608 62.7812 80.7194 62.6218 81.3507C62.4625 81.9821 62.164 82.5705 61.7479 83.0733C61.3317 83.5762 60.8084 83.981 60.2157 84.2587C59.6229 84.5363 58.9755 84.6797 58.3201 84.6787C53.6042 84.8292 48.8835 84.8 44.1725 84.6787C43.1414 84.6496 42.081 83.9264 41.1329 83.3586C38.3523 81.6987 36.9986 81.7763 34.5649 83.7711C34.0323 84.2128 33.3041 84.7078 32.6786 84.6933C29.5217 84.6011 26.3647 84.3923 23.2176 84.1351C21.7027 84.0138 21.1504 83.0382 21.3801 81.5919C21.4583 81.1065 21.5463 80.6212 21.6196 80.1359C22.6996 73.4235 26.1595 71.1472 32.7226 73.0158C33.7293 73.2973 34.433 74.5252 35.4348 74.9572C36.4366 75.3892 37.7121 75.6221 38.5331 75.2387C39.056 74.9912 39.3003 73.3653 39.0853 72.5013C38.2545 69.2349 38.4744 68.7544 41.5385 67.9148Z" fill="white"/>
<path d="M53.2524 45.1712L56.1845 50.2577L57.1619 49.947L55.9451 44.4917L56.7661 44.3219L59.6249 48.855C61.4477 46.3361 59.1069 45.278 58.6475 43.2153C59.6005 42.7057 60.7782 41.5263 61.7947 41.6525C63.6468 41.8757 64.3603 43.6958 64.1502 45.3751C63.7983 48.2192 65.4403 48.8502 67.6834 49.0928C72.0816 49.5782 76.2892 49.1608 80.2182 46.535C80.7802 48.6075 81.2836 50.4518 81.9042 52.7475C77.5891 53.0581 73.4939 53.4755 69.3889 53.6211C61.9169 53.8881 54.4302 54.1696 47.1291 52.034C46.1116 51.7748 45.1475 51.3412 44.2801 50.7527C43.5666 50.2285 42.5746 49.1899 42.7163 48.622C42.8601 48.0999 43.1134 47.6138 43.4596 47.1956C43.8057 46.7774 44.2368 46.4365 44.7248 46.1953C46.0247 45.71 47.5641 45.7633 49.0057 45.7342C51.0924 45.6954 50.4718 47.6756 51.1511 48.7094C51.5162 49.1627 51.929 49.576 52.3825 49.9422C52.578 49.3501 52.9641 48.7482 52.9348 48.1658C52.8194 47.2657 52.6248 46.3773 52.3532 45.511L53.2524 45.1712Z" fill="white"/>
<path d="M82.0509 54.7036C82.6617 57.4604 82.1877 58.3389 79.6074 58.2904C77.3937 58.2467 75.2092 57.6497 72.9808 57.4119C70.9088 57.1935 68.6706 56.5819 66.7696 57.1013C61.4722 58.5573 56.2921 57.5575 51.0778 57.0333C49.378 56.9415 47.7052 56.5709 46.1274 55.9364C44.6613 55.2569 43.4933 53.9611 42.4036 52.6506C55.4467 57.6594 68.6999 55.3492 82.0509 54.7036Z" fill="white"/>
<path d="M80.2816 42.696C79.5486 43.7493 79.143 44.8704 78.3269 45.3752C74.9403 47.5058 71.1481 47.6757 67.307 47.0448C66.8183 46.9671 66.3296 46.176 66.1439 45.613C65.88 44.7879 65.8995 43.8706 65.7627 42.7009L80.2816 42.696Z" fill="white"/>
<path d="M36.9498 73.9184C33.8417 69.6619 29.3214 71.3073 25.104 70.9093V67.1284L36.6566 67.6769C36.7495 69.6474 36.8423 71.5548 36.9498 73.9184Z" fill="white"/>
<path d="M80.6287 80.4659C80.0277 80.529 79.3923 80.7571 78.8352 80.6358C75.2776 79.8641 73.0785 81.6065 71.0162 84.2419C69.2472 86.4939 67.1067 88.4547 64.9565 90.401C64.4678 90.8378 63.4562 90.6776 62.6841 90.7893C63.0431 90.0957 63.4651 89.4361 63.9449 88.8187C66.232 86.358 68.651 84.0138 70.8794 81.4997C73.1078 78.9856 76.5629 77.8014 79.6465 78.8788C80.1058 79.0341 80.4528 79.5146 80.8486 79.8495L80.6287 80.4659Z" fill="black"/>
<path d="M51.2292 98.3606L60.6072 93.7935C59.8302 96.9773 57.5431 97.7199 55.5493 98.5062C54.3324 98.9624 52.7637 100.307 51.2292 98.3606Z" fill="black"/>
<path d="M87.4312 88.3965C88.4086 89.3138 89.469 90.0661 90.2118 91.0513C91.028 92.1336 93.144 92.5559 92.2399 94.6089C91.1061 93.9052 89.9235 93.2694 88.868 92.4686C88.0479 91.8215 87.3095 91.0784 86.6689 90.2554C86.4761 89.8681 86.436 89.4232 86.5565 89.008C86.5956 88.809 87.0061 88.678 87.4312 88.3965Z" fill="black"/>
<path d="M81.7479 86.1152C81.3912 88.3575 81.1419 90.1922 80.7705 92.0074C80.6972 92.3665 80.2134 92.648 79.9202 92.9781C79.5977 92.5898 78.9429 92.1772 79.0015 91.8229C79.1921 89.8233 79.4902 87.8285 79.8713 85.8531C79.9349 85.528 80.5213 85.295 80.8487 85.0232L81.7479 86.1152Z" fill="black"/>
</g>
<defs>
<clipPath id="clip0_140_3823">
<rect width="116" height="106" fill="white"/>
</clipPath>
</defs>
</svg>
