<svg width="30" height="30" viewBox="0 0 30 30" fill="none" xmlns="http://www.w3.org/2000/svg">
<path d="M13.75 16.25V11.25C13.75 10.5625 13.1875 10 12.5 10H7.5V7.5H13.75V5H10.625V3.75H8.125V5H6.25C5.5625 5 5 5.5625 5 6.25V11.25C5 11.9375 5.5625 12.5 6.25 12.5H11.25V15H5V17.5H8.125V18.75H10.625V17.5H12.5C13.1875 17.5 13.75 16.9375 13.75 16.25Z" fill="#485AFD"/>
<path d="M23.3088 16.484L24.0353 15.7575L24.7423 16.4645L24.0158 17.191C24.7337 18.0896 25.0802 19.2289 24.9843 20.3751C24.8884 21.5212 24.3573 22.5871 23.5 23.3539C22.6428 24.1206 21.5245 24.53 20.3748 24.498C19.2251 24.466 18.1313 23.995 17.318 23.1818C16.5048 22.3685 16.0337 21.2747 16.0017 20.125C15.9697 18.9753 16.3792 17.857 17.1459 16.9998C17.9127 16.1425 18.9786 15.6114 20.1247 15.5155C21.2708 15.4195 22.4102 15.7661 23.3088 16.484ZM19.9998 17.5V20.5H20.9998V17.5H19.9998ZM18.4998 14H22.4998V15H18.4998V14Z" fill="#485AFD"/>
</svg>
