<svg width="30" height="30" viewBox="0 0 30 30" fill="none" xmlns="http://www.w3.org/2000/svg">
<path d="M13.75 16.25V11.25C13.75 10.5625 13.1875 10 12.5 10H7.5V7.5H13.75V5H10.625V3.75H8.125V5H6.25C5.5625 5 5 5.5625 5 6.25V11.25C5 11.9375 5.5625 12.5 6.25 12.5H11.25V15H5V17.5H8.125V18.75H10.625V17.5H12.5C13.1875 17.5 13.75 16.9375 13.75 16.25Z" fill="#485AFD"/>
<path d="M21 21.657V22.657H15V21.657H21ZM21.293 12L25.182 15.889L24.475 16.597L23.945 16.42L22.7065 17.657L25.535 20.4855L24.828 21.1925L22 18.364L20.798 19.566L20.9395 20.132L20.232 20.839L16.343 16.95L17.0505 16.243L17.6155 16.384L20.7625 13.2375L20.586 12.7075L21.293 12Z" fill="#485AFD"/>
</svg>
