<svg width="30" height="30" viewBox="0 0 30 30" fill="none" xmlns="http://www.w3.org/2000/svg">
<path d="M13.75 16.25V11.25C13.75 10.5625 13.1875 10 12.5 10H7.5V7.5H13.75V5H10.625V3.75H8.125V5H6.25C5.5625 5 5 5.5625 5 6.25V11.25C5 11.9375 5.5625 12.5 6.25 12.5H11.25V15H5V17.5H8.125V18.75H10.625V17.5H12.5C13.1875 17.5 13.75 16.9375 13.75 16.25Z" fill="#485AFD"/>
<path d="M25.0833 16.5208V23.1667C25.0833 24.175 24.2583 25 23.25 25H19.9042C19.4092 25 18.9417 24.8029 18.5979 24.4546L15 20.7971C15 20.7971 15.5775 20.2333 15.5958 20.2242C15.6967 20.1371 15.8204 20.0913 15.9579 20.0913C16.0587 20.0913 16.1504 20.1188 16.2329 20.1646C16.2512 20.1692 18.2083 21.2921 18.2083 21.2921V15.8333C18.2083 15.4529 18.5154 15.1458 18.8958 15.1458C19.2762 15.1458 19.5833 15.4529 19.5833 15.8333V19.0417H20.0417V14.6875C20.0417 14.3071 20.3487 14 20.7292 14C21.1096 14 21.4167 14.3071 21.4167 14.6875V19.0417H21.875V15.1458C21.875 14.7654 22.1821 14.4583 22.5625 14.4583C22.9429 14.4583 23.25 14.7654 23.25 15.1458V19.0417H23.7083V16.5208C23.7083 16.1404 24.0154 15.8333 24.3958 15.8333C24.7762 15.8333 25.0833 16.1404 25.0833 16.5208Z" fill="#485AFD"/>
</svg>
