<svg width="8" height="8" viewBox="0 0 8 8" fill="none" xmlns="http://www.w3.org/2000/svg">
<path d="M4.00928 1.34128V0.0120841C4.07622 0.00743655 4.13573 0 4.19524 0C5.00137 0 5.80658 0 6.61272 0C7.41885 0 7.9944 0.576296 7.99812 1.37289C7.99812 2.23826 7.99812 3.10457 7.99812 3.98482H6.66572V1.34128H4.00928Z" fill="white"/>
<path d="M0.0150848 3.99817H1.33726V6.64821H3.98812V7.98578H2.8454C2.34981 7.98578 1.85423 7.98578 1.35772 7.98578C1.17888 7.98841 1.00134 7.95513 0.835617 7.88789C0.669891 7.82066 0.519354 7.72085 0.392929 7.59438C0.266505 7.46791 0.166766 7.31735 0.099626 7.15163C0.0324864 6.98591 -0.000691363 6.80839 0.00206622 6.62962C-0.00258278 5.8163 0.00206622 5.00297 0.00206622 4.18965C0.00206622 4.12737 0.0104358 4.05673 0.0150848 3.99817Z" fill="white"/>
</svg>
