<svg width="507" height="386" viewBox="0 0 507 386" fill="none" xmlns="http://www.w3.org/2000/svg">
<mask id="mask0" mask-type="alpha" maskUnits="userSpaceOnUse" x="0" y="0" width="507" height="386">
<rect width="507" height="386" fill="#C4C4C4"/>
</mask>
<g mask="url(#mask0)">
<path d="M-44.5647 367.226C-25.6562 372.103 -4.93731 369.497 12.1608 360.077C29.2589 350.724 42.5351 334.623 48.5697 316.116C50.313 310.638 51.0506 303.623 46.4911 300.082C41.4623 296.14 34.2878 299.481 28.3872 301.819C20.207 305.026 11.2221 306.028 2.50537 304.825C-3.86451 303.89 -10.2344 301.752 -16.6713 302.42C-26.3267 303.422 -34.2388 310.571 -39.6699 318.588C-47.0456 329.545 -51.0687 343.308 -47.9173 356.135C-44.7659 368.963 -33.3 380.053 -20.0239 380.32" fill="#F4D45D"/>
<path d="M112.871 44.7138C93.5319 39.1694 72.7255 36.6977 53.3863 42.309C34.1138 47.9202 16.7085 62.9503 12.3738 82.5897C10.7734 89.9378 10.9734 97.553 10.64 105.035C10.3065 112.583 9.43962 120.265 5.83852 126.878C2.23743 133.492 -4.56466 138.769 -12.1003 138.635C-18.3022 138.502 -23.9706 134.761 -28.1718 130.218C-41.976 115.389 -43.2431 91.541 -34.3737 73.3044C-25.5044 55.0679 -8.03238 42.1754 10.9067 34.8941C43.3833 22.4692 81.5949 25.4752 111.537 43.311L112.871 44.7138Z" fill="#F4D45D"/>
<path d="M292.537 34.2642C293.879 29.6615 295.288 24.9235 294.55 20.1855C293.812 15.4475 290.256 10.7771 285.492 10.5064C280.259 10.168 276.099 14.9737 273.55 19.644C269.323 27.3602 266.774 36.024 261.675 43.1987C253.087 55.3145 238.192 61.6093 223.432 63.0984C208.739 64.5198 193.979 61.677 179.487 58.7665C177.139 58.2927 173.784 58.5635 173.583 60.9325C173.449 62.3539 174.723 63.5046 175.864 64.3168C195.589 78.5985 221.218 84.2842 245.103 79.8169C259.997 76.9741 274.556 70.0024 284.285 58.225C294.013 46.4477 298.038 29.4585 292.403 15.2444" fill="#F4D45D"/>
<path d="M432.387 82.8882C427.914 86.3985 421.906 89.7738 416.898 87.0736C413.427 85.2509 411.758 80.863 411.891 76.8802C412.025 72.8973 413.694 69.117 415.229 65.4717C420.637 53.1181 426.045 40.697 433.189 29.356C440.332 17.9475 449.345 7.55158 460.695 0.395951C464.1 -1.76424 468.306 -3.85692 472.445 -2.64182C475.316 -1.76424 477.586 0.193434 476.985 3.36621C476.384 6.67401 475.516 9.9818 474.849 13.2221C474.047 17.0024 473.113 20.7152 471.978 24.4281C469.708 31.7187 466.77 38.8068 463.165 45.5574C459.56 52.308 455.354 58.7211 450.547 64.7291C445.74 70.6696 440.399 76.2051 434.524 81.0656C433.856 81.7406 433.122 82.2807 432.387 82.8882Z" fill="#1B6578"/>
<path d="M167.663 261.753C163.763 265.497 159.728 270.779 161.745 275.793C163.965 281.342 171.496 281.944 177.414 281.075C203.102 277.197 226.57 260.817 238.944 238.151C240.423 235.41 241.97 232 240.288 228.992C239.145 226.986 237.531 226.05 235.245 226.384C229.26 227.32 223.208 229.259 217.492 231.265C211.575 233.338 205.791 235.811 200.21 238.686C194.629 241.561 189.249 244.771 184.071 248.314C178.893 251.924 173.984 255.869 169.344 260.081C168.806 260.683 168.201 261.218 167.663 261.753Z" fill="#1B6578"/>
<path d="M145.978 281.693C143.117 283.887 142.385 287.726 144.248 290.4C146.111 293.005 149.97 293.416 152.832 291.222C155.693 289.029 156.425 285.189 154.562 282.516C152.632 279.91 148.773 279.499 145.978 281.693Z" fill="#1B6578"/>
<path d="M59.3401 169.93C46.7507 194.575 42.5988 224.712 21.9737 243.196C5.96907 257.527 -16.5311 261.545 -37.7589 264.894C-33.2723 280.163 -18.0713 290.878 -2.26756 292.419C13.5361 293.959 29.4068 287.329 41.3935 276.815C53.3132 266.3 61.6838 252.304 67.8446 237.637C74.0054 222.971 78.2242 207.634 83.1796 192.566C88.135 177.498 93.9609 162.496 103.001 149.437C108.492 141.468 115.189 134.369 122.689 128.342C130.256 122.247 138.693 117.225 147.667 113.474C150.144 112.47 152.689 111.532 155.234 110.661C156.506 110.26 157.778 109.858 159.118 109.523C160.122 109.255 161.528 109.121 162.332 108.451C160.524 108.117 158.314 108.385 156.506 108.451C154.43 108.518 152.354 108.652 150.278 108.853C146.194 109.255 142.109 109.858 138.024 110.728C129.988 112.403 122.153 114.948 114.653 118.296C107.086 121.645 99.9208 125.797 93.2243 130.686C86.5948 135.507 80.434 140.999 74.9429 147.16C69.4518 153.322 64.6303 160.086 60.6794 167.318C60.2776 168.189 59.8089 169.06 59.3401 169.93Z" fill="#F7AE75"/>
<path d="M77.5556 107.686L77.5544 107.687C70.3037 114.335 64.0356 122.518 61.9281 131.967L61.928 131.968C61.6065 133.399 61.5479 135.085 61.9152 136.477C62.2813 137.864 63.0386 138.873 64.2985 139.178L64.301 139.178C65.0895 139.373 65.9057 139.214 66.7404 138.836C67.5782 138.456 68.392 137.875 69.1559 137.284L69.1574 137.283C69.4061 137.092 69.6549 136.9 69.9038 136.709C85.4956 124.729 101.539 112.403 120.526 106.773L120.528 106.773C133.504 102.981 147.27 102.519 160.713 102.651C162.62 102.651 164.654 102.634 166.597 102.319C168.538 102.004 170.352 101.398 171.833 100.245C172.168 99.9798 172.521 99.6844 172.77 99.3533C173.016 99.0266 173.117 98.7245 173.056 98.4219C172.992 98.1083 172.747 97.8062 172.331 97.4879C172.059 97.2797 171.781 97.1101 171.498 96.9371C171.333 96.8365 171.166 96.7347 170.997 96.6236L170.997 96.6236L170.994 96.6213C169.133 95.372 167.21 94.191 165.224 93.1427C161.241 91.0413 157.062 89.3346 152.75 88.0876C148.436 86.8397 143.92 85.9853 139.402 85.5251C134.892 85.0657 130.315 85.0655 125.805 85.5246C125.521 85.5594 125.24 85.5766 124.968 85.5929L124.946 85.5942C124.676 85.6104 124.412 85.6262 124.134 85.6568C106.803 87.6941 90.3876 95.8443 77.5556 107.686Z" stroke="#3EB595"/>
<path d="M47.5799 153.742C45.7412 154.486 44.8587 156.656 45.8148 158.206C46.7708 159.756 49.2714 160.438 51.11 159.694C52.9486 158.888 53.8312 156.842 52.9486 155.23C52.0661 153.618 49.6391 152.813 47.727 153.494" fill="#3EB595"/>
<path d="M350.75 41.7046C354.405 37.0061 357.795 31.7707 358.792 25.864C360.254 17.0712 355.402 7.60706 347.493 3.57978C339.584 -0.38037 329.216 1.4319 323.101 7.94266C317.651 13.7151 315.923 22.0381 314.395 29.8913C313.531 34.5227 312.667 39.0869 311.736 43.7183C310.673 49.2893 309.742 55.5316 312.733 60.2972C314.461 63.1163 317.452 64.7272 320.642 65.2642C323.035 65.6669 325.427 65.8683 327.621 64.593C329.947 63.2506 331.874 61.1027 333.868 59.4246C336.792 56.9412 339.584 54.2563 342.309 51.5043C345.3 48.4168 348.091 45.1278 350.75 41.7046Z" fill="#3EB595"/>
<path d="M3.80482 158.394C5.52577 156.81 7.04814 154.88 7.84242 152.606C8.63671 150.332 8.50434 147.644 7.11434 145.715C5.06244 142.889 0.958618 142.614 -2.28472 143.785C-5.52805 144.957 -8.30805 147.162 -11.419 148.54C-15.1257 150.194 -19.2295 150.745 -22.6714 153.019C-25.1866 154.673 -27.7019 157.636 -25.9147 160.806C-22.3405 167.009 -12.3457 166.044 -6.71949 164.321C-2.88044 163.218 0.760054 161.22 3.80482 158.394Z" fill="#F4D45D"/>
<mask id="path-13-inside-1" fill="white">
<path d="M403.474 47.7848C400.527 72.6351 385.322 95.1412 364.892 109.542C344.463 123.943 319.277 130.709 294.293 131.379C278.485 131.78 261.941 129.637 248.946 120.594C319.813 109.676 384.987 65.803 421.693 4.24634C410.239 38.3403 398.45 73.171 376.078 101.37"/>
</mask>
<path d="M294.293 131.379L294.32 132.378L294.318 132.378L294.293 131.379ZM248.946 120.594L248.375 121.415L246.322 119.987L248.794 119.606L248.946 120.594ZM421.693 4.24634L420.834 3.73418L422.641 4.5648L421.693 4.24634ZM404.467 47.9025C401.481 73.0777 386.092 95.8217 365.468 110.36L364.316 108.725C384.551 94.4606 399.572 72.1926 402.481 47.667L404.467 47.9025ZM365.468 110.36C344.845 124.897 319.457 131.704 294.32 132.378L294.266 130.379C319.098 129.713 344.08 122.99 364.316 108.725L365.468 110.36ZM294.318 132.378C278.433 132.782 261.63 130.639 248.375 121.415L249.517 119.774C262.252 128.635 278.537 130.779 294.268 130.379L294.318 132.378ZM248.794 119.606C319.367 108.733 384.281 65.0342 420.834 3.73418L422.552 4.75849C385.693 66.5717 320.26 110.619 249.098 121.583L248.794 119.606ZM422.641 4.5648C411.197 38.6292 399.36 73.6325 376.861 101.992L375.295 100.749C397.54 72.7095 409.281 38.0514 420.745 3.92788L422.641 4.5648Z" fill="#F7AE75" mask="url(#path-13-inside-1)"/>
<path d="M353.304 90.7877C350.692 91.8594 347.945 92.9981 346.137 95.2085C344.328 97.4189 343.926 100.969 346.003 102.911C347.677 104.452 350.29 104.385 352.5 103.849C355.514 103.112 358.328 101.639 360.672 99.5623C363.083 97.4189 365.093 93.8688 363.485 91.0556C362.347 88.9122 359.533 88.1084 357.122 88.5773C354.711 88.9792 352.634 90.3858 350.625 91.7924" fill="#F4D45D"/>
<path d="M243.268 17.1362C231.638 34.5973 207.773 42.8578 187.807 36.4106C180.479 34.0601 173.017 28.7546 172.48 21.0985C171.942 13.5768 178.53 7.26393 185.521 4.24181C199.907 -2.07107 216.512 0.615265 231.974 3.36875" fill="#3EB595"/>
<path d="M487.199 135.265C487.199 137.731 489.447 139.762 492.257 139.762C495.068 139.762 497.316 137.731 497.316 135.265C497.316 132.799 495.068 130.769 492.257 130.769C489.447 130.769 487.199 132.799 487.199 135.265Z" fill="#1B6578"/>
<path d="M487.199 148.491C487.199 150.812 489.447 161.12 492.257 161.12C495.068 161.12 497.316 150.812 497.316 148.491C497.316 146.17 495.068 144.258 492.257 144.258C489.447 144.258 487.199 146.17 487.199 148.491Z" fill="#1B6578"/>
<path d="M108.284 230.244C106.475 232.923 104.935 235.871 103.327 238.684C101.652 241.564 99.9778 244.444 98.2363 247.258C96.5617 250.071 94.8872 252.884 93.2796 255.764C92.4759 257.171 91.6721 258.645 90.8683 260.051C90.1315 261.391 89.2607 262.865 87.988 263.802C87.7201 264.003 87.2512 263.735 87.3182 263.4C87.3852 261.86 88.189 260.252 88.9258 258.913C89.6626 257.506 90.4664 256.099 91.2702 254.76C92.9447 251.879 94.6193 248.999 96.3608 246.186C98.1023 243.373 99.9109 240.626 101.853 238.014C102.791 236.741 103.729 235.469 104.734 234.196C105.805 232.789 107.011 231.517 108.016 230.043C108.083 229.842 108.418 230.043 108.284 230.244Z" fill="#F7AE75"/>
<path d="M84.9072 267.218C84.9742 267.352 84.9741 267.553 84.9741 267.687C84.9741 267.888 85.0411 268.022 84.9741 268.223C84.9072 268.625 84.8402 268.96 84.7062 269.362C84.4383 270.098 84.1704 270.835 83.7685 271.505C83.4336 272.175 83.0986 272.778 82.6298 273.381C82.3618 273.716 82.0939 274.05 81.759 274.318C81.4911 274.519 81.1562 274.854 80.7543 274.787C80.5533 274.787 80.4193 274.653 80.3524 274.452C80.2854 274.117 80.4193 273.783 80.4863 273.448C80.6203 273.113 80.7543 272.711 81.0222 272.376C81.4241 271.773 81.826 271.17 82.1609 270.5C82.4958 269.897 82.8307 269.295 83.2326 268.625C83.4336 268.29 83.5675 267.955 83.8354 267.687C83.9694 267.553 84.0364 267.419 84.1703 267.285C84.2373 267.285 84.2373 267.218 84.3043 267.218V267.151C84.3713 267.084 84.4383 267.017 84.5723 266.95C84.7732 267.084 84.9072 267.151 84.9072 267.218Z" fill="#F7AE75"/>
<path d="M77.8071 279.476C77.8741 280.146 77.7402 280.816 77.4722 281.418C77.3383 281.686 77.0704 281.954 76.8694 282.222C76.7355 282.356 76.6015 282.423 76.4675 282.49C76.4675 282.49 76.5345 282.49 76.5345 282.423C76.5345 282.423 76.4675 282.423 76.4675 282.49C76.4675 282.49 76.4005 282.49 76.4005 282.557C76.1326 282.691 75.8647 282.691 75.6637 282.557C75.5298 282.49 75.4628 282.356 75.4628 282.222C75.4628 282.021 75.5298 281.82 75.6637 281.686L75.7307 281.619C75.7977 281.552 75.7307 281.619 75.7307 281.686C75.7307 281.619 75.8647 281.485 75.9317 281.418C75.9986 281.351 76.1326 281.218 76.1996 281.151C76.2666 281.084 76.1996 281.084 76.1996 281.151C76.1326 281.218 76.1326 281.218 76.2666 281.084L76.3335 281.017C76.4005 280.883 76.2666 281.151 76.3335 281.017L76.4005 280.95C76.5345 280.749 76.6685 280.481 76.8024 280.28C76.8024 280.28 76.8694 280.146 76.8024 280.28C76.8024 280.28 76.8024 280.213 76.8694 280.213C76.8694 280.146 76.9364 280.079 76.9364 280.012C76.9364 279.945 76.9364 279.878 77.0034 279.811C77.0034 279.744 77.0034 279.744 77.0034 279.811C77.0034 279.744 77.0034 279.744 77.0034 279.677C77.0034 279.409 77.2043 279.208 77.4722 279.208C77.6062 279.074 77.8071 279.208 77.8071 279.476Z" fill="#F7AE75"/>
<path d="M181.495 202.581C174.931 205.93 169.639 211.891 163.946 216.446C161.2 218.723 158.52 221.335 155.573 223.345C154.099 224.349 151.219 225.421 149.813 223.546C146.396 218.991 157.248 212.494 160.128 210.551C166.558 206.131 173.926 204.59 180.825 201.442C181.629 201.107 182.299 202.246 181.495 202.581Z" fill="#F4D45D"/>
<path d="M147.267 229.373C147.066 230.311 146.397 231.316 145.526 231.718C143.851 232.655 141.44 231.517 141.507 229.44C141.574 228.502 141.976 227.364 142.78 226.761C143.248 226.359 143.717 226.091 144.32 226.024C144.923 225.957 145.526 226.024 145.995 226.359C147.066 227.029 147.535 228.168 147.267 229.373Z" fill="#F4D45D"/>
<path d="M141.708 234.129C141.641 234.665 141.373 235.201 140.904 235.536C140.368 236.004 139.765 236.205 139.028 236.004C138.693 235.937 138.425 235.803 138.158 235.536C137.488 234.866 137.421 233.861 137.89 233.057C138.091 232.722 138.358 232.388 138.693 232.187C138.894 232.053 139.162 231.986 139.43 231.919C140.033 231.718 140.77 231.986 141.172 232.388C141.708 232.856 141.775 233.459 141.708 234.129Z" fill="#F4D45D"/>
<path d="M137.689 236.674C137.756 236.741 137.756 236.741 137.689 236.674C138.292 237.076 138.56 237.679 138.426 238.349C138.359 238.55 138.292 238.684 138.225 238.885C137.957 239.421 137.22 239.755 136.617 239.554C136.014 239.354 135.612 238.818 135.545 238.215C135.545 238.014 135.545 237.813 135.612 237.679C135.679 237.344 135.88 237.143 136.148 236.942C136.416 236.741 136.684 236.674 137.019 236.607C137.22 236.54 137.555 236.607 137.689 236.674Z" fill="#F4D45D"/>
<path d="M111.164 275.189C111.03 275.792 110.896 276.328 110.829 276.931C110.762 277.533 110.829 278.136 110.628 278.672C110.628 278.337 110.628 278.002 110.628 277.667C111.298 279.61 108.819 281.619 107.145 280.28C105.47 279.007 106.81 276.127 108.886 276.328C108.551 276.395 108.284 276.529 107.949 276.596C108.351 276.328 108.819 276.261 109.221 275.993C109.69 275.658 109.958 275.256 110.226 274.787C110.494 274.251 111.298 274.586 111.164 275.189Z" fill="#F4D45D"/>
<path d="M106.341 283.763C106.341 283.83 106.341 283.897 106.274 283.964C106.207 283.763 106.207 283.629 106.14 283.428C106.207 283.495 106.274 283.562 106.341 283.562C106.877 284.031 106.676 284.836 106.14 285.171C106.14 285.171 106.14 285.171 106.073 285.171C105.805 285.305 105.47 285.372 105.202 285.238C104.934 285.104 104.733 284.903 104.666 284.635V284.568C104.399 283.897 105.068 283.294 105.671 283.294C105.738 283.294 105.805 283.294 105.872 283.294C105.738 283.361 105.604 283.495 105.403 283.562C105.403 283.495 105.47 283.428 105.47 283.361C105.604 283.16 105.872 283.093 106.073 283.16C106.274 283.294 106.408 283.562 106.341 283.763Z" fill="#F4D45D"/>
<path d="M367.504 123.943C361.945 129.704 356.787 134.527 349.486 138.01C342.319 141.426 334.817 143.703 327.047 145.244C318.206 146.985 309.297 147.923 300.321 148.66C291.078 149.397 281.7 151.004 272.457 150.535C271.385 150.468 270.715 148.861 271.854 148.325C279.557 144.775 288.198 144.105 296.503 143.033C305.412 141.895 314.321 141.024 323.162 139.416C330.463 138.077 337.764 136.268 344.798 133.79C352.099 131.244 360.538 127.895 366.567 123.006C367.237 122.47 368.107 123.274 367.504 123.943Z" fill="#1B6578"/>
<path d="M391.484 105.188C391.216 105.59 390.814 105.925 390.613 106.394C390.412 106.796 389.809 106.93 389.408 106.595C389.006 106.327 389.006 105.724 389.341 105.389C389.608 105.121 389.876 104.653 390.077 104.385C390.345 104.05 390.814 103.849 391.149 104.117C391.551 104.318 391.752 104.854 391.484 105.188Z" fill="#1B6578"/>
<path d="M384.786 110.882C384.585 111.619 384.183 112.355 383.58 112.891C383.379 113.092 383.178 113.293 382.91 113.427C382.307 113.896 381.771 114.097 380.968 114.164C380.164 114.231 379.293 113.561 379.025 112.824C378.69 112.021 378.891 111.15 379.494 110.48C379.896 110.078 380.231 109.877 380.767 109.676C380.298 109.877 381.035 109.542 381.102 109.475C381.637 109.207 382.173 109.006 382.709 108.806C383.915 108.337 385.12 109.743 384.786 110.882Z" fill="#1B6578"/>
<path d="M375.81 116.709V116.776C375.743 116.508 375.676 116.24 375.609 116.04C375.81 116.307 375.877 116.709 375.877 117.044C375.81 116.709 375.743 116.441 375.609 116.106C375.81 116.508 375.944 116.843 375.944 117.245C375.944 117.58 375.877 117.848 375.743 118.183C375.475 118.719 375.141 119.255 374.605 119.522C373.734 119.991 372.595 119.924 371.858 119.188C371.189 118.451 370.988 117.379 371.524 116.441C371.791 115.906 372.327 115.504 372.863 115.303C373.131 115.169 373.466 115.102 373.801 115.102C374.203 115.102 374.605 115.236 374.94 115.437C374.605 115.37 374.337 115.303 374.002 115.169C374.337 115.169 374.739 115.236 375.007 115.437C374.739 115.37 374.471 115.303 374.27 115.236H374.337C375.208 115.303 375.877 115.973 375.81 116.709Z" fill="#1B6578"/>
<path d="M43.3779 169.826C43.3779 169.893 43.3779 169.96 43.3779 170.027C43.244 169.625 43.177 169.29 43.043 168.888C43.11 169.089 43.177 169.223 43.244 169.424C43.3109 169.692 43.3779 170.027 43.3109 170.295C43.3109 170.496 43.2439 170.697 43.177 170.831C43.11 171.032 43.043 171.166 42.909 171.3C42.7751 171.568 42.5071 171.769 42.3062 171.903C42.1052 171.97 41.9713 172.037 41.7703 172.104C41.5694 172.104 41.3684 172.171 41.1675 172.171C40.8326 172.171 40.5647 172.104 40.2967 171.97C40.0958 171.903 39.9618 171.836 39.8278 171.702C39.6269 171.635 39.493 171.434 39.426 171.3C39.225 171.099 39.0911 170.831 39.0241 170.563C39.0241 170.362 38.9571 170.161 38.9571 169.96C38.9571 169.759 39.0241 169.558 39.0241 169.357C39.0911 169.156 39.158 169.022 39.225 168.821C39.359 168.554 39.5599 168.353 39.8278 168.219C40.0288 168.018 40.2967 167.884 40.5647 167.817C40.0958 168.152 39.6939 168.487 39.225 168.821C39.292 168.755 39.292 168.755 39.359 168.688C39.493 168.554 39.5599 168.42 39.6939 168.286C39.8949 168.085 40.0958 167.951 40.3637 167.817C40.5647 167.75 40.6986 167.683 40.8996 167.683C41.1675 167.616 41.5024 167.616 41.7703 167.75C41.9713 167.817 42.1052 167.884 42.3062 167.951C42.4402 168.085 42.5741 168.152 42.7081 168.286C42.9091 168.487 43.043 168.688 43.177 168.955C43.3109 169.29 43.3779 169.558 43.3779 169.826Z" fill="#3EB595"/>
<path d="M38.6221 176.859C38.6221 176.926 38.6221 176.926 38.5552 176.993C38.4882 177.127 38.4882 177.194 38.4212 177.328C38.2202 177.663 37.9523 177.864 37.6174 177.931C37.4834 177.931 37.4164 177.931 37.2825 177.998C37.0815 177.998 36.9476 177.998 36.8136 177.864C36.6796 177.864 36.6127 177.797 36.5457 177.73C36.4117 177.663 36.2778 177.529 36.2108 177.395C36.1438 177.328 36.0768 177.194 36.0768 177.06C36.0098 176.859 36.0098 176.591 36.0768 176.39V176.323C36.0768 176.256 36.0768 176.256 36.1438 176.189C36.2108 175.988 36.2778 175.854 36.3448 175.72C36.4117 175.587 36.5457 175.453 36.6797 175.386C36.8136 175.319 37.0145 175.252 37.1485 175.252C37.3495 175.185 37.4835 175.252 37.6844 175.252C37.8184 175.319 37.8853 175.319 38.0193 175.386C38.2203 175.52 38.3542 175.654 38.4882 175.854C38.5551 175.988 38.5551 176.055 38.6221 176.189C38.6891 176.39 38.6891 176.658 38.6221 176.859Z" fill="#3EB595"/>
<path d="M34.4693 183.96C34.4023 183.96 34.4023 183.893 34.4693 183.96C34.6702 183.893 34.8712 183.893 35.0721 183.826C35.0721 183.826 35.0052 183.826 35.0052 183.893C34.9382 183.96 34.8712 183.96 34.8042 184.027C34.6702 184.094 34.5363 184.094 34.3353 184.027C34.2684 184.027 34.2683 184.027 34.2014 183.96C34.0674 183.96 34.0004 183.893 33.9334 183.759C33.8664 183.692 33.8664 183.625 33.7994 183.558C33.7325 183.424 33.6655 183.29 33.6655 183.089V183.022C33.7325 183.223 33.8664 183.424 33.9334 183.625C33.8664 183.558 33.7995 183.491 33.7325 183.424C33.5985 183.29 33.5315 183.156 33.5315 183.022C33.4646 182.888 33.4646 182.687 33.5315 182.553C33.5315 182.419 33.5985 182.218 33.6655 182.084C33.7325 182.017 33.7995 181.95 33.8665 181.816C34.0004 181.682 34.1344 181.615 34.2683 181.548C34.4023 181.481 34.5363 181.414 34.7372 181.414C34.8712 181.414 35.0721 181.414 35.2061 181.548C35.3401 181.615 35.474 181.682 35.608 181.816C35.675 181.883 35.7419 181.95 35.8089 182.084C35.8759 182.218 35.9429 182.352 35.9429 182.553C36.0099 182.687 35.9429 182.888 35.9429 183.022C35.8759 183.089 35.8759 183.223 35.8089 183.29C35.6749 183.491 35.541 183.625 35.3401 183.759C35.2731 183.826 35.1391 183.826 35.0721 183.893C34.8712 184.027 34.6702 184.027 34.4693 183.96Z" fill="#3EB595"/>
<path d="M31.3883 189.922H31.3213C31.3213 189.922 31.3213 189.922 31.2543 189.922H31.1873C31.0533 189.922 31.1203 189.922 31.0533 189.922H30.9864H30.9194C30.8524 189.922 30.7854 189.855 30.7184 189.788C30.6514 189.721 30.6514 189.654 30.5845 189.587V189.52C30.5845 189.453 30.5845 189.386 30.5845 189.386V189.319C30.5845 189.252 30.5845 189.252 30.5845 189.252C30.5845 189.252 30.5845 189.252 30.5845 189.185V189.118C30.5845 188.984 30.6514 188.917 30.7854 188.85C30.8524 188.782 30.9864 188.715 31.0533 188.648C31.2543 188.581 31.5222 188.648 31.7232 188.85C31.9241 189.051 31.9911 189.252 31.9241 189.52C31.9241 189.654 31.8571 189.721 31.7232 189.788C31.5892 189.855 31.4552 189.922 31.3883 189.922Z" fill="#3EB595"/>
<path d="M28.5077 194.611C27.436 194.611 27.436 192.935 28.5077 192.935C29.5795 192.935 29.5795 194.611 28.5077 194.611Z" fill="#3EB595"/>
<path d="M311.842 74.5778C311.776 74.5778 311.776 74.6448 311.842 74.5778C311.642 74.7788 311.441 74.9127 311.24 75.0467C311.039 75.1137 310.838 75.2477 310.637 75.3146C310.436 75.3146 310.168 75.3816 309.967 75.3816C309.632 75.3816 309.297 75.3146 308.962 75.1807C308.761 75.1137 308.56 74.9797 308.426 74.8458C308.225 74.7118 308.091 74.5778 307.958 74.3769C307.824 74.2429 307.69 74.042 307.623 73.841C307.489 73.5061 307.422 73.2382 307.422 72.8363V72.7693C307.422 72.3004 307.556 71.8316 307.757 71.4297C307.958 71.0278 308.292 70.7598 308.694 70.4919C309.096 70.224 309.565 70.157 310.034 70.157C310.369 70.157 310.704 70.224 311.039 70.3579C311.374 70.4919 311.642 70.6259 311.842 70.8938C312.177 71.2287 312.378 71.6306 312.512 72.0325C312.646 72.5014 312.646 72.9703 312.512 73.4391C312.378 73.908 312.11 74.2429 311.842 74.5778Z" fill="#3EB595"/>
<path d="M301.326 81.7449C301.058 81.7449 300.791 81.6779 300.523 81.5439C300.255 81.4769 300.054 81.343 299.853 81.0751C299.652 80.8741 299.518 80.6732 299.384 80.4053C299.25 80.1374 299.183 79.8694 299.183 79.6015C299.183 79.4006 299.25 79.1996 299.25 79.0657C299.317 78.7308 299.518 78.3959 299.786 78.128C299.92 77.994 300.054 77.927 300.188 77.7931C300.523 77.5921 300.858 77.5251 301.259 77.5251C301.527 77.5251 301.795 77.5921 302.063 77.7261C302.331 77.7931 302.532 77.927 302.733 78.1949C302.934 78.3959 303.068 78.5968 303.202 78.8647C303.336 79.1327 303.403 79.4006 303.403 79.6685C303.403 79.8694 303.336 80.0704 303.336 80.2043C303.269 80.5392 303.068 80.8741 302.8 81.1421C302.666 81.276 302.532 81.343 302.398 81.477C302.063 81.6779 301.728 81.7449 301.326 81.7449Z" fill="#3EB595"/>
<path d="M294.963 85.0938C294.829 85.0938 294.628 85.0938 294.494 84.9599C294.36 84.8929 294.226 84.8259 294.092 84.6919C293.958 84.558 293.891 84.491 293.824 84.29C293.757 84.1561 293.69 84.0221 293.69 83.8212C293.69 83.6872 293.69 83.6202 293.757 83.4862C293.824 83.2853 293.891 83.0844 294.092 82.9504C294.159 82.8834 294.226 82.8164 294.36 82.7494C294.561 82.6155 294.762 82.6155 294.963 82.6155C295.097 82.6155 295.298 82.6155 295.432 82.7494C295.566 82.8164 295.699 82.8834 295.833 83.0174C295.967 83.1513 296.034 83.2183 296.101 83.4193C296.168 83.5532 296.235 83.6872 296.235 83.8881C296.235 84.0221 296.235 84.0891 296.168 84.223C296.101 84.424 296.034 84.6249 295.833 84.7589C295.766 84.8259 295.699 84.8929 295.566 84.9599C295.365 85.0268 295.164 85.0938 294.963 85.0938Z" fill="#3EB595"/>
<path d="M350.491 180.276C350.491 180.476 350.357 181.213 350.424 180.744C350.491 180.209 350.357 181.146 350.357 181.28C350.357 180.878 350.357 180.409 350.357 180.008C350.558 181.012 350.223 182.419 349.151 182.888C347.544 183.625 345.802 184.161 344.06 184.763C342.118 185.433 338.903 186.974 337.764 184.295C337.362 183.357 337.63 182.285 338.367 181.615C338.97 181.079 339.506 180.811 340.242 180.543C340.979 180.276 341.716 180.008 342.453 179.74C343.993 179.204 345.534 178.601 347.142 178.199C348.213 177.931 349.553 178.333 350.022 179.405C349.888 179.137 349.687 178.936 349.486 178.802C349.687 178.936 349.888 179.07 350.022 179.271C350.29 179.539 350.424 179.874 350.491 180.276Z" fill="#3EB595"/>
<path d="M365.16 172.706C365.361 172.974 365.428 173.309 365.428 173.577C365.361 173.309 365.294 173.108 365.227 172.84C365.629 173.51 365.428 174.18 365.16 174.85C364.959 175.185 364.624 175.453 364.356 175.721C364.021 175.922 364.088 175.922 363.619 176.123C363.552 176.123 363.552 176.19 363.485 176.19C363.351 176.256 363.15 176.256 363.016 176.323C362.481 176.39 361.878 176.323 361.409 176.056C360.873 175.721 360.538 175.118 360.538 174.515C360.538 174.18 360.605 173.912 360.806 173.577C360.94 173.309 361.208 173.108 361.476 172.907C361.677 172.706 362.012 172.706 362.28 172.572C362.146 172.639 361.945 172.706 361.811 172.773C362.146 172.639 362.481 172.505 362.815 172.439C362.882 172.439 363.016 172.372 363.083 172.372C363.351 172.305 363.552 172.305 363.82 172.238C363.686 172.238 363.485 172.305 363.351 172.305C363.418 172.305 363.418 172.305 363.485 172.305C363.552 172.305 363.619 172.305 363.686 172.305C363.82 172.238 363.954 172.238 364.088 172.305C364.222 172.305 364.356 172.372 364.49 172.439C364.557 172.439 364.624 172.505 364.758 172.572C364.423 172.505 364.021 172.505 363.686 172.439C363.753 172.439 363.82 172.439 363.887 172.439C364.155 172.372 364.423 172.372 364.624 172.439C364.691 172.505 364.758 172.505 364.892 172.572C364.959 172.438 365.093 172.572 365.16 172.706Z" fill="#3EB595"/>
<path d="M382.441 165.204C382.374 165.271 382.24 165.338 382.173 165.405C382.106 165.472 382.106 165.472 382.039 165.539L381.972 165.606C381.905 165.673 381.839 165.673 381.772 165.74C381.705 165.807 381.638 165.807 381.571 165.874C381.504 165.941 381.37 166.008 381.303 166.008C381.236 166.008 381.169 166.075 381.169 166.075C380.901 166.209 380.633 166.276 380.365 166.276C380.231 166.276 380.097 166.209 379.963 166.209C379.829 166.142 379.695 166.075 379.561 166.008C379.896 166.075 380.231 166.075 380.566 166.142C380.499 166.142 380.499 166.142 380.432 166.142C380.365 166.142 380.298 166.142 380.231 166.142C380.03 166.142 380.097 166.142 379.896 166.142C379.762 166.142 379.561 166.075 379.427 166.008C379.36 165.941 379.293 165.874 379.159 165.807C379.092 165.74 379.092 165.74 379.092 165.673C379.025 165.606 379.025 165.606 379.025 165.539C378.958 165.472 378.958 165.338 378.891 165.271C378.891 165.137 378.891 165.07 378.824 164.936C378.824 164.803 378.824 164.736 378.891 164.602C378.891 164.468 378.958 164.401 379.025 164.267C379.025 164.2 379.092 164.2 379.092 164.133C379.025 164.468 379.025 164.803 378.958 165.137C378.891 165.07 378.891 164.936 378.891 164.869C378.824 164.669 378.824 164.468 378.891 164.267C378.891 164.2 378.958 164.133 378.958 164.066C379.025 163.865 379.092 163.731 379.293 163.597C379.36 163.53 379.36 163.53 379.427 163.463C379.494 163.396 379.561 163.262 379.628 163.195C379.762 163.061 380.03 162.927 380.164 162.793C380.231 162.726 380.365 162.659 380.432 162.592C380.633 162.458 380.834 162.391 381.035 162.391C381.236 162.324 381.437 162.324 381.638 162.391C381.772 162.458 381.906 162.525 382.039 162.525C382.24 162.592 382.374 162.793 382.508 162.927C382.575 162.994 382.642 163.128 382.709 163.262C382.776 163.463 382.843 163.664 382.843 163.865C382.843 163.999 382.776 164.133 382.776 164.267C382.776 164.736 382.642 165.003 382.441 165.204Z" fill="#3EB595"/>
<path d="M174.692 340.674L174.689 340.675C170.618 342.203 167.242 345.205 164.291 348.461L164.29 348.462C161.145 351.915 158.43 355.811 157.043 360.221C155.655 364.635 155.67 369.609 157.817 373.624L157.817 373.624C160.416 378.49 165.633 381.147 170.956 381.347C174.712 381.482 178.675 381.133 181.701 378.854C184.352 376.826 185.93 373.729 187.206 370.535C187.28 370.347 187.355 370.159 187.43 369.97C189.125 365.685 190.943 361.093 191.903 356.632C192.828 351.2 191.542 344.827 186.98 341.642C183.507 339.234 178.697 339.146 174.692 340.674Z" stroke="#F4D45D"/>
<path d="M440.269 38.7543C437.963 40.7695 438.641 45.0084 441.219 46.6761C443.796 48.3439 447.323 47.5795 449.629 45.4948C451.867 43.4101 452.953 40.2831 453.36 37.2256C453.631 35.1409 453.495 32.8477 452.206 31.2495C450.036 28.6089 445.627 29.3733 443.321 31.8749C441.015 34.3765 440.269 37.9205 439.591 41.256" fill="#3EB595"/>
<path d="M132.207 148.16C133.363 145.351 133.703 141.741 131.392 139.802C127.925 136.927 122.623 140.003 119.837 142.276C117.05 144.549 113.515 146.956 111.612 150.032C109.845 152.907 110.593 156.985 112.7 159.459C115.351 162.534 120.244 160.729 123.099 158.924C127.177 156.45 130.44 152.572 132.207 148.16Z" fill="#3EB595"/>
<path d="M231.271 153.156C229.259 153.861 226.979 155.625 227.65 157.672C228.052 158.942 229.393 159.506 230.6 159.929C236.031 161.693 241.798 162.47 247.497 162.187C250.313 162.046 253.129 161.693 255.878 161.058C258.292 160.494 261.376 159.929 263.187 158.024C265.668 155.343 264.863 150.969 261.376 150.192C257.756 149.416 253.733 150.333 250.045 150.263C243.608 150.122 237.372 150.898 231.271 153.156Z" fill="#3EB595"/>
<path d="M51.1477 231.852C51.6836 237.679 48.0665 243.239 44.1815 247.325C39.7607 252.08 34.1343 255.43 28.9766 259.314C27.704 260.252 26.4983 261.19 25.2926 262.262C24.3549 263.066 23.3501 264.137 23.0152 265.075C23.0152 265.142 22.7473 265.946 22.8143 265.678C22.8143 265.812 22.8143 266.013 22.8143 266.147C22.8143 265.812 22.8143 266.147 22.8143 266.281C23.0152 266.75 22.8812 266.482 22.8812 266.415C23.0152 266.75 23.0152 266.683 22.9483 266.549C23.0822 266.75 23.1492 266.75 23.0152 266.683C23.2162 266.816 23.4171 266.95 23.6181 267.017C23.4171 266.95 24.02 267.151 24.1539 267.151C24.5558 267.218 24.4218 267.218 24.7567 267.218C25.3596 267.285 26.2304 267.218 26.6992 267.151C32.3927 266.348 37.0145 261.592 40.9664 257.573C44.9184 253.487 48.6693 248.865 50.8798 243.641C51.8845 241.229 52.8223 238.416 52.7553 235.871C52.7553 235.737 52.7553 235.603 52.7553 235.469C52.7553 235.804 52.7553 235.469 52.7553 235.402C52.6883 235.134 52.6213 234.866 52.5543 234.598C52.6883 234.933 52.4203 234.33 52.3534 234.263C52.6213 234.598 52.3534 234.263 52.3534 234.263C52.4873 234.397 52.5543 234.397 52.4204 234.33C52.2864 234.263 52.2864 234.263 52.4873 234.33C52.4873 234.33 52.2864 234.33 52.3534 234.263C52.3534 234.263 52.6213 234.196 52.3534 234.33C52.2194 234.397 52.0855 234.464 51.9515 234.598C51.4826 235 51.2817 235.603 51.1477 236.206C50.7458 237.679 50.5448 239.22 50.009 240.693C49.4731 242.167 48.8033 243.641 47.9995 244.98C46.4589 247.66 44.3825 250.138 42.1721 252.281C39.6937 254.693 37.0145 256.769 34.3352 258.913C33.0626 259.917 31.7899 260.855 30.5842 261.86C30.0483 262.329 29.5125 262.798 29.0436 263.333C29.0436 263.333 28.7087 263.802 28.6417 263.936C28.5748 264.137 28.5077 264.338 28.4408 264.472C28.4408 264.204 28.5747 264.807 28.4408 264.539C28.3738 264.271 28.5747 264.874 28.5078 264.606C28.3738 264.271 28.5078 264.606 28.7087 264.74C28.3738 264.472 28.7087 264.74 28.7757 264.74C28.5077 264.74 28.7087 264.74 28.8427 264.74C28.9766 264.74 29.1106 264.807 29.2445 264.874C28.7757 264.807 29.4455 264.874 29.5125 264.874C29.6465 264.874 29.9144 264.807 29.5795 264.874C29.7134 264.807 29.9144 264.807 30.0483 264.74C29.9814 264.74 29.7134 264.941 30.2493 264.673C30.3832 264.606 30.5842 264.472 30.7182 264.405C31.254 264.07 31.6559 263.668 32.1248 263.199C34.4022 260.989 36.4786 258.645 38.4881 256.233C42.373 251.478 45.6552 246.119 48.6694 240.693C49.4062 239.354 50.3439 238.148 51.2147 236.875C52.0854 235.603 53.9609 236.34 53.693 237.947C53.3581 239.756 52.8892 241.363 52.1524 243.038C51.4156 244.645 50.6788 246.253 49.8081 247.794C48.1335 250.875 46.191 253.755 44.1146 256.568C41.9712 259.381 39.6938 262.128 37.2824 264.673C34.8041 267.218 31.9908 270.166 28.1058 269.429C26.2973 269.094 24.7568 267.821 24.1539 266.013C23.5511 264.07 24.2879 262.128 25.4936 260.587C26.5653 259.181 28.0389 258.109 29.4455 257.037C30.9861 255.831 32.5937 254.626 34.2012 253.42C39.3589 249.535 44.7844 244.913 46.7269 238.483C47.2628 236.808 47.3967 235 48.1335 233.392C48.9373 231.718 50.6118 230.311 52.5543 230.311C56.2383 230.311 57.511 234.196 57.1761 237.277C56.4393 244.043 53.0902 250.138 48.9373 255.43C46.8609 258.042 44.5834 260.453 42.1721 262.798C39.6937 265.209 37.0814 267.486 34.1342 269.228C31.254 270.902 27.7709 272.108 24.4218 271.706C22.5463 271.505 20.7378 270.768 19.5992 269.161C18.5274 267.687 18.3935 265.745 18.9963 264.07C20.269 260.587 23.5511 258.176 26.4983 256.032C29.4455 253.956 32.4597 252.013 35.4739 250.004C40.6985 246.521 45.9901 242.234 48.4684 236.273C49.0713 234.866 49.5401 233.392 49.942 231.852C49.942 230.847 51.0807 231.115 51.1477 231.852Z" fill="#F4D45D"/>
<path d="M52.8896 238.55C52.0189 240.894 51.2821 243.306 50.1434 245.583C49.0047 247.793 47.732 249.803 46.2584 251.812C43.1773 255.898 39.3593 259.515 35.0724 262.328C33.7998 263.199 32.5271 263.936 31.1205 264.539C30.5176 264.807 29.8478 265.075 29.178 265.142C28.7761 265.209 28.4412 265.276 28.0393 265.276C27.9053 265.276 27.7044 265.276 27.5704 265.209C27.4365 265.142 27.3025 265.142 27.1685 265.008C27.1016 264.941 27.1015 264.941 27.2355 265.008C26.4317 265.008 26.1638 264.137 26.6327 263.534C26.5657 263.601 26.4987 264.07 26.5657 263.601C26.6327 263.333 26.6997 263.132 26.8336 262.931C26.9676 262.73 27.1685 262.529 27.3695 262.328C27.7714 261.86 28.3072 261.525 28.7761 261.123C29.7808 260.386 30.7856 259.649 31.8573 258.979C33.8668 257.64 35.5413 256.367 37.3498 254.826C40.8329 251.812 43.981 248.262 46.5933 244.444C48.1339 242.234 49.7415 240.024 50.8132 237.545C51.3491 236.541 53.3585 237.411 52.8896 238.55Z" fill="#F4D45D"/>
<path d="M29.9818 262.462C29.6469 263.601 28.977 264.472 28.0393 265.209C27.0345 266.012 25.9628 266.548 24.7571 266.749C25.159 266.012 25.6279 265.209 26.0298 264.472C26.1638 265.209 26.2308 265.945 26.2978 266.749C25.6279 266.079 24.9581 265.41 24.2213 264.673C24.6902 264.673 25.159 264.673 25.5609 264.673C25.6279 264.673 26.0298 264.606 25.6949 264.673C25.36 264.74 25.7619 264.673 25.8289 264.673C26.0298 264.606 26.2978 264.606 26.4987 264.539C26.9006 264.405 27.3025 264.271 27.7713 264.137C27.9053 264.07 27.9723 264.07 28.1062 264.003C28.1732 264.003 28.5751 263.802 28.2402 263.936C27.9053 264.07 28.3072 263.869 28.3742 263.869C28.5082 263.802 28.5751 263.802 28.7091 263.735C29.111 263.534 29.4459 263.333 29.8478 263.132C30.0487 262.998 30.2497 262.931 30.4506 262.797C30.5176 262.73 30.6516 262.663 30.7186 262.596C30.9195 262.462 30.3837 262.864 30.7186 262.596C30.9865 262.395 31.2544 262.194 31.5893 262.127C31.4554 262.194 31.4554 262.194 31.5893 262.127C31.7233 262.061 31.7903 261.927 31.9242 261.86C32.3261 261.525 32.661 261.19 33.1299 260.989C33.7997 260.654 34.6035 261.056 34.6035 261.86C34.6035 262.462 34.4026 263.065 34.1346 263.601C34.0677 263.735 34.0007 263.869 33.9337 263.936C33.9337 264.003 33.6658 264.271 33.7997 264.07C33.9337 263.936 33.7328 264.137 33.7328 264.204C33.5318 264.606 33.5318 264.74 33.1969 265.075C32.5271 265.945 31.6563 266.682 30.7186 267.285C29.7808 267.888 28.7091 268.29 27.6374 268.558C26.5657 268.826 25.36 268.96 24.2213 268.826C23.6854 268.759 23.1496 268.625 22.7477 268.223C22.4128 267.821 22.0779 267.285 22.1449 266.749C22.2118 266.012 22.2788 265.276 22.4128 264.472C22.5467 263.735 23.4175 263.065 24.2213 263.132C24.4222 263.132 24.6902 263.132 24.9581 263.132C25.0251 263.132 25.159 263.132 25.226 263.132C25.5609 263.132 25.0251 263.199 25.293 263.132C25.7619 263.065 26.1638 262.931 26.5657 262.797C26.6326 262.797 26.7666 262.73 26.6327 262.797C26.7666 262.73 26.8336 262.73 26.9676 262.663C27.1685 262.596 27.3025 262.462 27.5034 262.328C27.8383 262.127 28.2402 261.86 28.5082 261.592C29.111 261.056 30.2497 261.592 29.9818 262.462Z" fill="#F4D45D"/>
<path d="M52.0859 234.129C52.0859 234.866 52.1528 235.603 52.1528 236.339C52.1528 236.674 52.1528 237.009 52.0859 237.411C52.0859 237.679 52.0189 237.947 51.9519 238.215C51.8849 238.483 51.8179 238.751 51.6839 239.019C51.483 239.421 50.9472 239.689 50.4783 239.622C50.0094 239.555 49.6075 239.22 49.4735 238.751C49.2056 237.88 49.4736 236.942 49.6075 236.071C49.7415 235.335 49.9424 234.665 50.0764 233.928C50.2104 233.392 50.7462 233.124 51.2151 233.191C51.6839 233.191 52.0859 233.593 52.0859 234.129Z" fill="#F4D45D"/>
<path d="M52.4877 234.263C52.5547 234.598 52.6216 234.933 52.6886 235.268C52.6216 235.134 52.6216 235.067 52.5546 234.933C52.6216 235.134 52.6886 235.268 52.7556 235.469C52.7556 235.536 52.8226 235.67 52.8226 235.737C52.8896 235.938 52.8896 236.072 52.9566 236.272C53.0905 237.076 53.1575 238.081 52.4877 238.684C52.2197 238.952 51.7509 239.153 51.349 239.153C50.9471 239.153 50.5452 238.952 50.2103 238.684C49.5404 238.081 49.6075 237.009 49.7414 236.272C49.8084 236.072 49.8084 235.938 49.8754 235.737C49.8754 235.67 49.9424 235.536 49.9424 235.469C50.0093 235.268 50.0763 235.134 50.1433 234.933C50.0763 235.067 50.0763 235.134 50.0093 235.268C50.0763 234.933 50.1433 234.598 50.2103 234.263C50.2772 233.794 50.8131 233.392 51.282 233.392C51.8848 233.459 52.4207 233.727 52.4877 234.263Z" fill="#F4D45D"/>
<path d="M56.9753 222.072C57.0423 222.072 57.0423 222.072 57.1092 222.139C56.9083 222.139 56.7073 222.072 56.4394 222.072C56.5064 222.072 56.5064 222.072 56.5734 222.072C55.8365 222.474 55.1668 222.876 54.43 223.278C54.43 223.278 54.43 223.278 54.43 223.211C54.5639 223.01 54.6979 222.876 54.8318 222.675C55.0998 222.407 55.3677 222.273 55.6356 222.139C55.8366 222.005 56.0375 221.938 56.3054 221.938C56.6404 221.871 56.9753 221.871 57.3102 222.005C57.3102 222.005 57.3772 222.005 57.4442 222.005C57.2432 222.005 56.9753 221.938 56.7743 221.938C56.7743 221.938 56.7743 221.938 56.8413 221.938C57.0422 221.938 57.3102 222.005 57.5111 222.005C57.913 222.139 58.3149 222.34 58.6498 222.675C58.114 222.474 57.5111 222.273 56.9753 222.072C56.9083 222.005 56.9083 222.005 56.9753 222.072C56.7743 222.072 56.5064 222.072 56.3054 222.072C56.3054 222.072 56.3054 222.072 56.3724 222.072C56.1715 222.139 55.9705 222.206 55.7696 222.34C55.7696 222.34 55.8366 222.34 55.8366 222.273C55.7026 222.407 55.5016 222.541 55.3677 222.675C55.4347 222.608 55.5017 222.541 55.6356 222.474C55.7696 222.34 55.9705 222.206 56.1715 222.139C56.3724 222.005 56.5734 222.005 56.7743 222.005C56.9083 221.938 57.0422 221.938 57.1762 221.938C56.5064 222.474 55.8366 222.943 55.1667 223.479C55.1667 223.412 55.2337 223.345 55.2337 223.345C55.2337 223.546 55.1667 223.68 55.1667 223.881C55.1667 223.814 55.1667 223.814 55.1667 223.747C55.1667 223.01 55.5686 222.407 56.1715 222.005C56.5064 221.804 56.8413 221.737 57.1762 221.737C57.5111 221.737 57.846 221.804 58.1809 222.005C58.2479 222.072 58.5158 222.273 58.5828 222.34C58.7168 222.474 58.7838 222.608 58.9177 222.809C58.9177 222.809 58.9177 222.876 58.9847 222.876C59.0517 223.077 59.1187 223.211 59.1857 223.412C58.7168 222.943 58.1809 222.407 57.7121 221.938C57.913 222.005 58.1139 222.072 58.2479 222.206C58.5158 222.34 58.7168 222.541 58.9177 222.809C59.0517 222.943 59.1857 223.144 59.2526 223.345C59.3866 223.613 59.4536 223.948 59.4536 224.283C59.4536 224.416 59.4536 224.483 59.3866 224.617C59.3866 224.751 59.3866 224.818 59.3196 224.952C59.3196 224.952 59.3196 224.952 59.3196 225.019C59.2527 225.22 59.1857 225.421 59.0517 225.622V225.689C59.1187 225.488 59.1857 225.287 59.3196 225.086C59.3196 224.684 59.3196 224.216 59.3196 223.814C59.5876 224.684 59.3196 225.689 58.6498 226.292C58.1809 226.761 57.98 226.761 57.3771 227.029C57.1762 227.029 56.9083 227.096 56.7073 227.096C56.3724 227.096 56.0375 227.029 55.7026 226.895C55.5016 226.828 55.3007 226.694 55.0998 226.56C54.8319 226.359 54.5639 226.158 54.43 225.823C54.363 225.689 54.363 225.622 54.296 225.488C54.229 225.354 54.162 225.287 54.162 225.153C54.5639 225.622 54.8988 226.158 55.3007 226.627C55.0998 226.493 54.8988 226.359 54.6979 226.158L54.6309 226.091C54.4969 225.957 54.3629 225.756 54.229 225.555C54.229 225.555 54.229 225.555 54.229 225.488C54.162 225.287 54.095 225.086 53.9611 224.885C53.9611 224.684 53.8941 224.483 53.8941 224.216C53.8941 224.015 53.9611 223.814 53.9611 223.546C54.0281 223.211 54.162 222.943 54.363 222.742C54.4969 222.541 54.6309 222.407 54.7649 222.34C54.8988 222.206 55.0998 222.072 55.3007 222.005C55.5017 221.871 55.7026 221.871 55.9035 221.871C56.3054 221.938 56.6404 222.005 56.9753 222.072Z" fill="#F4D45D"/>
<path d="M62.1332 214.302C62.0662 214.302 62.0662 214.302 61.9992 214.302H61.9322C61.7983 214.302 61.6643 214.369 61.5304 214.369C61.3964 214.369 61.2624 214.369 61.0615 214.302C60.9945 214.302 60.9275 214.235 60.8605 214.235C60.7935 214.235 60.7266 214.168 60.5926 214.101C61.0615 214.101 61.5304 214.101 61.9992 214.101C61.8653 214.168 61.7983 214.235 61.6643 214.235C61.5304 214.302 61.3294 214.369 61.1954 214.369C61.1285 214.369 61.0615 214.369 60.9945 214.369H60.9275C60.7935 214.369 60.6596 214.369 60.5256 214.302C60.1907 214.235 59.8558 213.9 59.7888 213.566C59.7888 213.499 59.7888 213.365 59.7218 213.231V213.164V213.097C59.7218 212.896 59.7888 212.762 59.8558 212.561C59.8558 212.494 59.9228 212.427 59.9228 212.36C59.9897 212.226 60.0567 212.159 60.0567 212.025C60.0567 212.494 60.0567 212.963 60.0567 213.432C60.0567 213.432 60.0567 213.432 60.0567 213.365C59.9898 213.231 59.9228 213.097 59.9228 212.963C59.9228 212.896 59.8558 212.829 59.9228 212.762C59.8558 212.628 59.8558 212.494 59.9228 212.36C59.9228 212.226 59.9228 212.159 59.9898 212.092C59.9898 212.025 59.9898 212.025 59.9898 211.958C60.0568 211.69 60.1907 211.422 60.4587 211.154C60.6596 210.953 60.9275 210.819 61.2624 210.685C61.8652 210.551 62.5351 210.685 62.937 211.154C63.4058 211.623 63.5398 212.226 63.4058 212.829C63.3389 213.097 63.2049 213.365 62.937 213.633C62.669 214.101 62.4011 214.235 62.1332 214.302Z" fill="#F4D45D"/>
</g>
</svg>
