<svg width="9" height="11" viewBox="0 0 9 11" fill="none" xmlns="http://www.w3.org/2000/svg">
<g clip-path="url(#clip0_178_3626)">
<path d="M8.23961 0.848451H4.69327C4.63183 0.848451 4.57038 0.851651 4.50934 0.848451C4.27707 0.828341 4.13001 0.665626 4.12796 0.43161C4.1255 0.187082 4.27953 0.0106575 4.5204 0.00562983C4.88909 -0.00214022 5.25777 0.00334368 5.62646 0.00334368C6.58859 0.00334368 7.55085 0.00334368 8.51326 0.00334368C8.8631 0.00334368 8.99951 0.153261 8.99992 0.539935C8.99992 1.9943 8.99992 3.44867 8.99992 4.90304C9.00238 4.98632 8.99354 5.06953 8.9737 5.14986C8.91676 5.34731 8.78772 5.44603 8.60133 5.43644C8.52177 5.43765 8.44435 5.40766 8.38258 5.35169C8.32082 5.29573 8.27862 5.21734 8.26337 5.1302C8.24645 5.041 8.23916 4.94985 8.24166 4.85871C8.24166 3.62556 8.24166 2.39149 8.24166 1.15651L8.23961 0.848451Z" fill="white"/>
<path d="M0.760396 9.19479H1.03978C2.13846 9.19479 3.23713 9.19479 4.33581 9.19479C4.41811 9.19095 4.50054 9.19723 4.5816 9.21353C4.76267 9.25924 4.86549 9.39133 4.87246 9.59975C4.87983 9.81914 4.77906 9.96083 4.59267 10.0198C4.52652 10.037 4.45856 10.0439 4.39071 10.0404C3.09376 10.0404 1.79654 10.0404 0.499039 10.0404C0.134451 10.0404 0.00131377 9.89455 0.000904117 9.49188C0.000904117 8.04483 0.000904117 6.59746 0.000904117 5.1498C-0.00138361 5.08877 0.000672084 5.02763 0.00704986 4.96697C0.0179892 4.8637 0.0633112 4.76879 0.13403 4.70107C0.204749 4.63334 0.2957 4.59774 0.388843 4.60132C0.577282 4.60543 0.719019 4.74255 0.750972 4.96286C0.760064 5.04594 0.763216 5.12969 0.760396 5.21333C0.760396 6.43917 0.760396 7.66516 0.760396 8.8913V9.19479Z" fill="white"/>
</g>
<defs>
<clipPath id="clip0_178_3626">
<rect width="9" height="10.0421" fill="white"/>
</clipPath>
</defs>
</svg>
