<svg width="48" height="48" viewBox="0 0 48 48" fill="none" xmlns="http://www.w3.org/2000/svg">
<path d="M12 42C14.2091 42 16 40.2091 16 38C16 35.7909 14.2091 34 12 34C9.79086 34 8 35.7909 8 38C8 40.2091 9.79086 42 12 42Z" stroke="black" stroke-width="2" stroke-linecap="round" stroke-linejoin="round"/>
<path d="M34 42C36.2091 42 38 40.2091 38 38C38 35.7909 36.2091 34 34 34C31.7909 34 30 35.7909 30 38C30 40.2091 31.7909 42 34 42Z" stroke="black" stroke-width="2" stroke-linecap="round" stroke-linejoin="round"/>
<path d="M34 34H12V6H8" stroke="black" stroke-width="2" stroke-linecap="round" stroke-linejoin="round"/>
<path d="M38.286 24.004L38 26H12M12 10L24.01 10.858L12 10Z" stroke="black" stroke-width="2" stroke-linecap="round" stroke-linejoin="round"/>
<path d="M36 6V18M30 12H42H30Z" stroke="black" stroke-width="2" stroke-linecap="round" stroke-linejoin="round"/>
</svg>
