<svg width="48" height="48" viewBox="0 0 48 48" fill="none" xmlns="http://www.w3.org/2000/svg">
<path d="M34.0036 26.1867L46.0363 38.2194L44.2662 39.9895L32.2357 27.9569L31.5286 27.2497L30.8215 27.9569L25.4076 33.3708L25.0072 33.7711L25.1445 34.3204L25.6445 36.3202L23.5656 38.3976L7.46345 22.2955L9.54234 20.218L11.5383 20.7161L12.0873 20.8532L12.4875 20.4531L26.6618 6.28096L27.0988 5.84408L26.9035 5.25784L26.3037 3.45664L28.3444 1.41446L44.4468 17.5169L42.4059 19.5607L40.6058 18.9595L40.0196 18.7638L39.5823 19.2005L34.004 24.7721L33.2961 25.4792L34.0036 26.1867ZM26.0245 44.4959V47H1V44.4959H26.0245Z" stroke="black" stroke-width="2"/>
</svg>
