<svg width="178" height="128" viewBox="0 0 178 128" fill="none" xmlns="http://www.w3.org/2000/svg">
<path d="M137.349 64L88.8262 0L113.962 54.2562L137.349 64Z" fill="#4E9FD4"/>
<path d="M88.8259 0L40.3027 64L63.6905 54.2562L88.8259 0Z" fill="#7ABEEB"/>
<path d="M113.962 73.7438L88.8262 128L137.349 64L113.962 73.7438Z" fill="#357CAB"/>
<path d="M40.3027 64L88.8259 128L63.6905 73.7438L40.3027 64Z" fill="#4B9CD1"/>
<path d="M113.961 77.9993L137.349 63.9997L113.961 50V77.9993Z" fill="#458FBF"/>
<path d="M113.96 54.2562L88.8248 0L63.6895 54.2562H113.96Z" fill="#66B0E1"/>
<path d="M63.6895 73.7441L88.8248 128L113.96 73.7441H63.6895Z" fill="#3D8FC4"/>
<path d="M64 50L40 64L64 78V50Z" fill="#66B0E1"/>
<path d="M113.96 50H63.6895V77.9549H113.96V50Z" fill="#4B9CD1"/>
<path d="M56.8865 123.843C56.8865 124.365 56.4775 124.774 55.9569 124.774C55.4364 124.774 55.0273 124.365 55.0273 123.843C55.0273 123.322 55.4364 122.913 55.9569 122.913C56.4775 122.95 56.8865 123.36 56.8865 123.843Z" fill="white"/>
<path d="M166.101 106H11.8993L3 79H175L166.101 106Z" fill="#F4D45D" stroke="white" stroke-width="3"/>
<path d="M29.1823 88.3989L27.6678 96.2816H26.7591L23.2757 90.218L22.0641 96.2816H21.0039L22.5184 88.3989H23.4271L26.9105 94.4625L28.1221 88.3989H29.1823Z" fill="#333333" stroke="black" stroke-width="0.8"/>
<path d="M31.9082 96.13C31.3023 95.8268 30.848 95.5236 30.6965 94.9173C30.3936 94.4625 30.2422 93.8561 30.2422 93.0982C30.2422 92.1887 30.3936 91.4307 30.848 90.6728C31.3023 89.9148 31.7567 89.3085 32.514 89.0053C33.2712 88.5505 34.0285 88.3989 35.0887 88.3989C35.8459 88.3989 36.6032 88.5505 37.0575 88.8537C37.5119 89.1569 38.1177 89.46 38.4206 90.0664C38.7235 90.5212 38.875 91.1275 38.875 91.8855C38.875 92.795 38.7235 93.553 38.2692 94.3109C37.8148 95.0689 37.3604 95.6752 36.6032 95.9784C35.8459 96.4332 35.0887 96.5848 34.0285 96.5848C33.1198 96.4332 32.3625 96.4332 31.9082 96.13ZM35.8459 94.9173C36.4517 94.6141 36.7546 94.1593 37.0575 93.553C37.3605 92.9466 37.5119 92.3403 37.5119 91.7339C37.5119 90.9759 37.209 90.3696 36.7546 89.9148C36.3003 89.4601 35.6945 89.3085 34.7858 89.3085C34.0285 89.3085 33.4227 89.46 32.9683 89.7632C32.514 90.0664 32.0596 90.5212 31.7567 91.1275C31.4538 91.7339 31.3024 92.3403 31.3024 92.9466C31.3024 93.7046 31.6053 94.3109 32.0596 94.7657C32.514 95.2205 33.1198 95.372 34.0285 95.372C34.6343 95.5236 35.2401 95.372 35.8459 94.9173Z" fill="#333333" stroke="black" stroke-width="0.8"/>
<path d="M47.9655 88.3989L46.451 96.2816H45.5423L42.0589 90.218L40.8473 96.2816H39.7871L41.3016 88.3989H42.2103L45.6937 94.4625L46.9054 88.3989H47.9655Z" fill="#333333" stroke="black" stroke-width="0.8"/>
<path d="M49.1769 91.8857H52.2059L52.0544 92.7954H49.0254L49.1769 91.8857Z" fill="#333333" stroke="black" stroke-width="0.8"/>
<path d="M55.8384 89.4601L55.2326 92.1887H59.1703L59.0189 93.0982H55.0811L54.4753 96.2816H53.2637L54.7782 88.3989H60.3819L60.2305 89.4601H55.8384Z" fill="#333333" stroke="black" stroke-width="0.8"/>
<path d="M61.8959 95.8268C61.4416 95.3721 61.1387 94.7657 61.1387 93.8562C61.1387 93.553 61.1387 93.2498 61.2901 92.9466L62.1988 88.3989H63.259L62.3503 92.9466C62.3503 93.2498 62.1988 93.4014 62.1988 93.7046C62.1988 94.311 62.3503 94.7657 62.6532 95.0689C62.9561 95.3721 63.4105 95.5237 64.1677 95.5237C64.925 95.5237 65.3794 95.3721 65.8337 94.9173C66.2881 94.4625 66.591 93.8562 66.7424 92.9466L67.6511 88.3989H68.7113L67.8026 92.9466C67.4997 94.1594 67.1968 94.9173 66.4395 95.5237C65.6822 96.13 64.925 96.4332 63.8648 96.4332C63.1076 96.4332 62.3503 96.2816 61.8959 95.8268Z" fill="#333333" stroke="black" stroke-width="0.8"/>
<path d="M77.948 88.3989L76.4334 96.2816H75.5247L72.0413 90.218L70.8297 96.2816H69.7695L71.2841 88.3989H72.1928L75.6762 94.4625L76.8878 88.3989H77.948Z" fill="#333333" stroke="black" stroke-width="0.8"/>
<path d="M85.0748 92.3402H86.1349L85.5291 95.5236C85.2262 95.8268 84.7719 96.13 84.1661 96.2816C83.7117 96.4332 83.1059 96.5848 82.6515 96.5848C81.8943 96.5848 81.137 96.4332 80.6827 96.13C80.0769 95.8268 79.6225 95.5236 79.3196 94.9173C79.0167 94.4625 78.8652 93.8561 78.8652 93.0982C78.8652 92.1887 79.0167 91.4307 79.4711 90.6728C79.9254 89.9148 80.3798 89.3085 81.137 89.0053C81.8943 88.5505 82.803 88.3989 83.7117 88.3989C84.469 88.3989 85.0748 88.5505 85.5291 88.7021C85.9835 88.8537 86.4379 89.1569 86.7408 89.6116L85.9835 90.3696C85.6806 90.0664 85.3777 89.7632 85.0748 89.6116C84.7719 89.46 84.3175 89.46 83.7117 89.46C82.9545 89.46 82.3487 89.6116 81.7428 89.9148C81.137 90.218 80.6827 90.6728 80.3798 91.2791C80.0769 91.8855 79.9254 92.4918 79.9254 93.0982C79.9254 93.8561 80.2283 94.4625 80.6827 94.9173C81.137 95.372 81.8943 95.5236 82.803 95.5236C83.4088 95.5236 84.0146 95.372 84.6204 95.0689L85.0748 92.3402Z" fill="#333333" stroke="black" stroke-width="0.8"/>
<path d="M89.0009 88.3989H90.061L88.5465 96.2816H87.4863L89.0009 88.3989Z" fill="#333333" stroke="black" stroke-width="0.8"/>
<path d="M97.9473 92.9464C98.0987 93.2496 98.2502 93.5528 98.2502 94.0075C98.2502 94.7655 97.9473 95.3719 97.3415 95.8266C96.7357 96.2814 95.8269 96.433 94.7668 96.433H90.9805L92.495 88.5503H95.9784C96.7357 88.5503 97.3415 88.7019 97.7958 89.0051C98.2502 89.3082 98.4016 89.763 98.4016 90.3694C98.4016 90.8241 98.2502 91.2789 97.9473 91.7337C97.6444 92.0369 97.3415 92.3401 96.8871 92.4916C97.4929 92.4916 97.7958 92.6432 97.9473 92.9464ZM96.5842 95.0687C97.0386 94.7655 97.19 94.4623 97.19 93.856C97.19 93.4012 97.0386 93.2496 96.7357 92.9464C96.4328 92.7948 95.9784 92.6432 95.524 92.6432H92.7979L92.3436 95.2203H94.9182C95.6755 95.5235 96.1299 95.3719 96.5842 95.0687ZM93.5552 89.4598L93.1008 92.0369H95.3726C95.9784 92.0369 96.5842 91.8853 96.8871 91.5821C97.19 91.2789 97.4929 90.9757 97.4929 90.3694C97.4929 90.0662 97.3415 89.763 97.0386 89.6114C96.7357 89.4598 96.4328 89.3082 95.827 89.3082H93.5552V89.4598Z" fill="#333333" stroke="black" stroke-width="0.8"/>
<path d="M101.121 88.3989H102.181L100.818 95.3721H105.059L104.907 96.4332H99.4551L101.121 88.3989Z" fill="#333333" stroke="black" stroke-width="0.8"/>
<path d="M108.846 89.4598L108.392 91.8853H112.33L112.178 92.7948H108.24L107.786 95.3719H112.481L112.33 96.433H106.271L107.786 88.5503H113.39L113.238 89.6114H108.846V89.4598Z" fill="#333333" stroke="black" stroke-width="0.8"/>
<path d="M119.904 89.4601H117.178L117.329 88.3989H123.842L123.69 89.4601H120.964L119.601 96.4332H118.541L119.904 89.4601Z" fill="#333333" stroke="black" stroke-width="0.8"/>
<path d="M125.353 96.13C124.748 95.8268 124.293 95.5236 124.142 94.9173C123.839 94.4625 123.688 93.8561 123.688 93.0982C123.688 92.1887 123.839 91.4307 124.293 90.6728C124.748 89.9148 125.202 89.3085 125.959 89.0053C126.717 88.5505 127.474 88.3989 128.534 88.3989C129.291 88.3989 130.048 88.5505 130.503 88.8537C130.957 89.1569 131.563 89.46 131.866 90.0664C132.169 90.5212 132.32 91.1275 132.32 91.8855C132.32 92.795 132.169 93.553 131.714 94.3109C131.26 95.0689 130.806 95.6752 130.048 95.9784C129.291 96.4332 128.534 96.5848 127.474 96.5848C126.565 96.4332 125.808 96.4332 125.353 96.13ZM129.291 94.9173C129.897 94.6141 130.2 94.1593 130.503 93.553C130.806 92.9466 130.957 92.3403 130.957 91.7339C130.957 90.9759 130.654 90.3696 130.2 89.9148C129.746 89.4601 129.14 89.3085 128.231 89.3085C127.474 89.3085 126.868 89.46 126.414 89.7632C125.959 90.0664 125.505 90.5212 125.202 91.1275C124.899 91.7339 124.748 92.3403 124.748 92.9466C124.748 93.7046 125.051 94.3109 125.505 94.7657C125.959 95.2205 126.565 95.372 127.474 95.372C128.08 95.5236 128.685 95.372 129.291 94.9173Z" fill="#333333" stroke="black" stroke-width="0.8"/>
<path d="M137.171 92.1885L140.049 96.433H138.837L136.414 92.7948L134.597 94.3107L134.142 96.433H133.082L134.597 88.5503H135.657L134.748 92.9464L139.897 88.5503H141.412L137.171 92.1885Z" fill="#333333" stroke="black" stroke-width="0.8"/>
<path d="M143.674 89.4598L143.22 91.8853H147.158L147.006 92.7948H143.069L142.614 95.3719H147.309L147.158 96.433H141.1L142.614 88.5503H148.218L148.066 89.6114H143.674V89.4598Z" fill="#333333" stroke="black" stroke-width="0.8"/>
<path d="M157.163 88.3989L155.648 96.2816H154.74L151.256 90.218L150.045 96.2816H148.984L150.499 88.3989H151.408L154.891 94.4625L156.103 88.3989H157.163Z" fill="#333333" stroke="black" stroke-width="0.8"/>
<path d="M161.665 50.1555H161.33C161.144 50.1555 160.995 50.0067 160.995 49.8206V49.4857C160.995 49.3368 160.884 49.1879 160.735 49.1507C160.512 49.1135 160.326 49.2624 160.326 49.4857V49.8206C160.326 50.0067 160.177 50.1555 159.991 50.1555H159.657C159.508 50.1555 159.359 50.2672 159.322 50.4161C159.285 50.6394 159.434 50.8254 159.657 50.8254H159.991C160.177 50.8254 160.326 50.9743 160.326 51.1604V51.4953C160.326 51.6442 160.438 51.793 160.586 51.8303C160.809 51.8675 160.995 51.7186 160.995 51.4953V51.1604C160.995 50.9743 161.144 50.8254 161.33 50.8254H161.665C161.888 50.8254 162.036 50.6394 161.999 50.4161C161.962 50.2672 161.813 50.1555 161.665 50.1555Z" fill="white"/>
<path d="M79.1821 55.6079V72.7645H76.5865L67.1344 61.147V72.7645H64V55.6079H66.5956L76.0477 67.2253V55.6079H79.1821Z" fill="white"/>
<path d="M88.1931 58.2549V63.4999H96.4698V66.196H88.1931V72.7645H85.0098V55.6079H97.4983V58.2549H88.1931Z" fill="white"/>
<path d="M105.384 58.3039H99.7031V55.6079H114.249V58.3039H108.568V72.7645H105.384V58.3039Z" fill="white"/>
</svg>
