<svg width="153" height="37" viewBox="0 0 153 37" fill="none" xmlns="http://www.w3.org/2000/svg">
<mask id="mask0" style="mask-type:alpha" maskUnits="userSpaceOnUse" x="0" y="0" width="31" height="29">
<path fill-rule="evenodd" clip-rule="evenodd" d="M17.0261 0H30.1295L13.5086 28.6815H0.351562L17.0261 0Z" fill="white"/>
</mask>
<g mask="url(#mask0)">
<path fill-rule="evenodd" clip-rule="evenodd" d="M17.0261 0H30.1295L13.5086 28.6815H0.351562L17.0261 0Z" fill="url(#paint0_linear)"/>
</g>
<path fill-rule="evenodd" clip-rule="evenodd" d="M48.8984 28.6862H53.3557V7.21484H48.8984V28.6862Z" fill="black"/>
<path fill-rule="evenodd" clip-rule="evenodd" d="M66.9947 22.7478V19.2223C66.0818 17.9234 64.8466 17.4993 63.5846 17.4993C61.4097 17.4993 59.906 18.9307 59.906 21.1308C59.906 22.7478 61.4097 24.4973 63.5846 24.4973C64.8466 24.4708 66.1086 24.0467 66.9947 22.7478ZM71.4252 14.2123V28.7386C71.4252 33.2449 67.8808 36.0017 63.5309 36.0017C59.3422 36.0017 56.2006 33.4305 55.9052 29.7989L60.3356 29.8254C60.5236 31.3629 61.893 32.0256 63.692 32.0256C65.4105 32.0256 66.9947 31.1243 66.9947 28.7651V26.9095C65.867 27.6253 64.417 28.0494 62.806 28.0494C58.7514 28.0494 55.5293 24.8154 55.5293 21.1043C55.5293 16.7835 58.7783 13.8677 62.806 13.8677C64.417 13.8677 65.867 14.2918 66.9947 15.0075V14.2123H71.4252Z" fill="black"/>
<path fill-rule="evenodd" clip-rule="evenodd" d="M84.8258 21.2635C84.8258 19.1693 83.4295 17.4463 81.2546 17.4463C79.0528 17.4463 77.6565 19.1428 77.6565 21.2635C77.6565 23.4371 79.0528 25.0276 81.2546 25.0276C83.4295 25.0541 84.8258 23.4371 84.8258 21.2635ZM89.1219 21.2635C89.1219 25.7433 85.7656 28.9242 81.2814 28.9242C76.7436 28.9242 73.4141 25.7433 73.4141 21.2635C73.4141 16.8366 76.7704 13.5762 81.2814 13.5762C85.7656 13.5762 89.1219 16.8366 89.1219 21.2635Z" fill="black"/>
<path fill-rule="evenodd" clip-rule="evenodd" d="M112.292 23.6764V19.2496C111.379 17.9507 110.09 17.6061 108.828 17.6061C106.599 17.6061 105.069 19.3556 105.069 21.4763C105.069 23.5439 106.599 25.3199 108.828 25.3199C110.09 25.3199 111.352 24.9753 112.292 23.6764ZM116.642 14.2396V28.6599L112.292 28.6864V27.8647C111.164 28.5804 109.714 29.031 108.103 29.031C104.048 29.031 100.826 25.638 100.826 21.4763C100.826 17.2615 104.075 13.895 108.103 13.895C109.714 13.895 111.164 14.3457 112.292 15.0614V14.2396H116.642Z" fill="black"/>
<path fill-rule="evenodd" clip-rule="evenodd" d="M134.526 20.8401V28.6599H130.257V21.3437C130.257 18.9845 129.075 17.7387 126.954 17.7387C125.853 17.7387 124.618 18.3748 123.597 19.5942V28.6864H119.221V14.2661H123.597V15.353C124.779 14.4252 126.175 13.895 127.813 13.895C131.68 13.895 134.526 16.6253 134.526 20.8401Z" fill="black"/>
<path fill-rule="evenodd" clip-rule="evenodd" d="M46.885 28.6597H42.374L39.4204 17.871L33.1104 28.6597H28.0623L37.8362 11.9597L36.2519 6.181L23.0949 28.6862H18.0469L34.7214 0.137207H39.1519L41.0851 7.24131H45.6498L42.5351 12.5694L46.885 28.6597Z" fill="black"/>
<path fill-rule="evenodd" clip-rule="evenodd" d="M147.737 23.7027V19.2494C146.797 17.9505 145.535 17.6059 144.246 17.6059C142.018 17.6059 140.46 19.382 140.46 21.4761C140.46 23.5967 142.018 25.3727 144.246 25.3727C145.508 25.3462 146.797 25.0016 147.737 23.7027ZM152.167 7.21484V28.6862H147.737V27.8645C146.609 28.5802 145.159 29.0308 143.548 29.0308C139.494 29.0308 136.271 25.6378 136.271 21.4496C136.271 17.2878 139.52 13.8948 143.548 13.8948C145.159 13.8948 146.609 14.3455 147.737 15.0612V7.21484H152.167Z" fill="black"/>
<path fill-rule="evenodd" clip-rule="evenodd" d="M99.9961 17.8971C99.0295 18.0031 96.774 18.1356 95.4314 19.9382V28.6858H91.0547V14.2655H95.4314V15.3523C96.4249 14.5041 97.9286 14.0004 99.9961 14.2125" fill="black"/>
<defs>
<linearGradient id="paint0_linear" x1="0.350782" y1="14.3402" x2="30.1341" y2="14.3402" gradientUnits="userSpaceOnUse">
<stop stop-color="#E8672B"/>
<stop offset="1" stop-color="#9E2484"/>
</linearGradient>
</defs>
</svg>
