<svg width="76" height="75" viewBox="0 0 76 75" fill="none" xmlns="http://www.w3.org/2000/svg">
<path d="M0.996094 44.7017V32.0347C9.14233 32.769 11.2412 39.4391 11.2723 42.6823C8.28287 43.3432 3.1759 44.3039 0.996094 44.7017Z" fill="#EB7A7D"/>
<path d="M30.9856 56.6355C19.7752 47.0894 7.69285 48.864 3.05299 50.9445C2.30563 49.1822 1.68282 47.3953 1.46484 46.7222C19.252 40.3336 32.2312 49.996 36.4974 55.6258C34.1058 56.0664 31.8264 56.4825 30.9856 56.6355Z" fill="#3EB595"/>
<path d="M5.66624 56.5434L3.51758 52.5965C16.8206 47.9702 26.2498 54.0345 29.3015 57.6449C28.031 58.8932 26.0941 59.6337 25.2845 59.8479C17.7361 54.5608 9.06051 55.4419 5.66624 56.5434Z" fill="#1B6578"/>
<path d="M23.6981 61.5905C22.3529 63.4263 19.899 67.7404 18.8403 69.668C13.9077 66.951 8.75089 60.8868 6.78906 58.1943C16.6542 55.4773 22.1722 59.3263 23.6981 61.5905Z" fill="#1B6578"/>
<path d="M66.9521 61.8659C61.5711 69.356 50.5102 73.0643 45.6523 73.9822C47.446 62.3065 56.3022 58.4085 60.5061 57.9189C62.823 59.1673 65.7688 61.0704 66.9521 61.8659Z" fill="#1B6578"/>
<path d="M58.3562 56.0843C55.3668 53.0736 53.1247 48.8941 52.3773 47.1807C44.7543 49.6039 40.7932 54.6157 39.7656 56.8186C41.634 58.9481 44.1564 65.5387 45.184 68.5677C48.024 61.5183 55.1488 57.3082 58.3562 56.0843Z" fill="#3EB595"/>
<path d="M68.0693 60.031C61.0441 58.4889 55.7379 50.2706 53.9629 46.3543C63.6786 43.0498 72.0864 45.2222 75.0758 46.7214C73.9548 53.2569 69.9377 58.3176 68.0693 60.031Z" fill="#1B6578"/>
<path d="M75.7323 44.6099C72.3691 44.5365 67.2933 43.2943 65.1758 42.6823C66.5771 40.7547 67.6047 37.4503 72.4626 38.3682C76.3488 39.1025 76.2616 42.8353 75.7323 44.6099Z" fill="#3EB595"/>
<path d="M52.3796 25.518C50.7354 35.0641 43.0998 38.1238 39.4876 38.4604C39.1139 42.7929 39.3319 50.4849 39.4876 53.7893C46.3633 45.7118 58.2339 42.8969 63.3097 42.4991C64.655 28.6939 56.5835 25.4262 52.3796 25.518Z" fill="#3EB595"/>
<path d="M37.4305 53.7891C30.779 47.0334 22.639 44.243 19.4004 43.6923C24.4077 41.4893 28.4621 37.267 29.8634 35.4312C30.5361 36.0186 35.1884 37.6341 37.4305 38.3684V53.7891Z" fill="#3EB595"/>
<path d="M24.4444 20.927C23.8465 27.6093 26.6242 32.4619 28.0878 34.053C22.4826 42.2039 16.1612 43.0178 13.7011 42.4059C12.58 36.8985 13.5454 30.7485 14.1682 28.362C17.3071 22.1203 22.3269 20.8046 24.4444 20.927Z" fill="#EB7A7D"/>
<path d="M26.0367 20.6523C25.881 24.018 26.2796 31.0246 29.1195 32.1261C31.1748 28.6075 33.4355 21.3867 26.0367 20.6523Z" fill="#F4D45D"/>
<path d="M32.8543 15.512C32.5554 17.6415 31.5465 20.0097 31.0794 20.9276C28.9867 20.0464 27 18.8164 26.3149 18.2657C26.016 14.5941 26.564 13.0031 26.8754 12.6665C28.9681 13.0337 31.7333 14.7165 32.8543 15.512Z" fill="#FBF6A8"/>
<path d="M46.114 11.9326C41.854 13.4747 39.1698 17.593 38.3601 19.4594C38.0176 19.1228 37.0896 18.1009 36.118 16.7057C35.1465 15.3105 35.8378 13.8602 36.3049 13.3095C36.772 12.7893 38.192 11.3635 40.1351 9.82146C42.0782 8.27939 44.9307 10.5864 46.114 11.9326Z" fill="#FBF6A8"/>
<path d="M39.207 36.2575C39.3627 32.7695 41.8602 25.7567 50.6043 25.6099C50.1372 29.1591 47.2038 36.2575 39.207 36.2575Z" fill="#F4D45D"/>
<path d="M75.6382 31.025C71.9761 16.6323 58.4178 12.667 52.0963 12.4834L51.7227 23.59C62.8583 24.8383 65.144 34.1458 64.8949 38.6435C70.4254 35.1188 74.486 37.3585 75.8251 38.9189L75.6382 31.025Z" fill="#EB7A7D"/>
<path d="M50.7264 23.8654V12.8506C38.9181 13.0709 38.2704 24.6303 39.4226 30.3825C43.0099 25.0954 48.4532 23.8348 50.7264 23.8654Z" fill="#F4D45D"/>
<path d="M41.9175 6.61613L39.0215 0.00724645C58.3034 -0.359914 69.1651 13.3168 72.1856 20.201C65.0857 12.711 56.0862 10.7773 52.474 10.7467C52.474 7.95626 52.1626 5.54524 52.0069 4.68854C49.3911 4.24794 44.1907 5.79002 41.9175 6.61613Z" fill="#F7AE75"/>
<path d="M33.8804 13.6762C20.8015 5.96587 7.31791 16.8889 2.21094 23.3142C9.98349 5.54364 28.6177 0.489071 36.9632 0.183105C37.3369 3.56098 39.4233 6.42482 40.4198 7.43451L33.8804 13.6762Z" fill="#F7AE75"/>
<path d="M37.7096 27.2624C37.6162 29.19 37.7096 36.3496 37.7096 36.3496C33.5991 36.7902 31.3259 34.4526 30.7031 33.2287C31.3571 31.4541 32.6649 27.1155 32.6649 23.958C32.6649 20.8004 34.0351 17.808 34.7202 16.7065C37.7844 20.6719 37.8031 25.3348 37.7096 27.2624Z" fill="#F4D45D"/>
<path d="M49.6667 11.0155C45.4068 9.98744 43.9681 8.56776 43.7812 7.98642C46.9949 6.00376 49.293 6.3036 50.0404 6.70136C51.0867 8.83089 50.2272 10.4648 49.6667 11.0155Z" fill="#FBF6A8"/>
<path d="M8.74846 33.7791C6.65585 31.4292 2.95641 30.3522 1.36827 30.1075C1.11915 28.9142 2.04089 25.0957 7.72084 19.368C13.4008 13.6403 21.2356 12.6368 24.443 12.8509V19.0009C22.886 18.7867 18.8378 19.4231 15.101 23.6822C11.3642 27.9412 11.4888 34.391 12.0182 37.0835C11.8002 36.9611 10.8411 36.1289 8.74846 33.7791Z" fill="#F7AE75"/>
<path d="M43.8764 73.5233C43.1291 75.5794 40.3265 74.8084 39.0186 74.1658C39.0186 66.8961 34.7835 60.4279 32.666 58.1026C34.6092 57.4417 36.7765 57.3989 37.6173 57.4601C41.2607 60.3973 44.8106 70.9532 43.8764 73.5233Z" fill="#1B6578"/>
<path d="M26.1267 61.7743C22.9878 64.3444 21.082 68.5974 20.5215 70.4026C21.4868 70.9227 23.922 72.1099 25.9399 72.6973C28.4622 73.4317 32.199 74.9003 34.3477 74.9921C36.0666 75.0655 37.2437 74.5331 37.6174 74.2578C36.4963 65.0053 32.5415 59.9997 30.7043 58.6535C30.4863 58.6229 29.2656 59.2042 26.1267 61.7743Z" fill="#1B6578"/>
</svg>
