<svg width="52" height="53" viewBox="0 0 52 53" fill="none" xmlns="http://www.w3.org/2000/svg">
<path d="M7 30.0531V23.804C11.0188 24.1662 12.0543 27.4568 12.0696 29.0568C10.5948 29.3829 8.07538 29.8568 7 30.0531Z" fill="black" fill-opacity="0.3"/>
<path d="M21.7942 35.94C16.2636 31.2305 10.303 32.106 8.01394 33.1324C7.64524 32.2629 7.33799 31.3814 7.23045 31.0493C16.0056 27.8976 22.4087 32.6644 24.5133 35.4418C23.3335 35.6592 22.209 35.8645 21.7942 35.94Z" fill="black" fill-opacity="0.3"/>
<path d="M9.30439 35.8946L8.24438 33.9474C14.8073 31.6651 19.4591 34.6568 20.9646 36.438C20.3378 37.0538 19.3822 37.4191 18.9828 37.5248C15.2589 34.9164 10.9789 35.3512 9.30439 35.8946Z" fill="black" fill-opacity="0.3"/>
<path d="M18.1993 38.3853C17.5357 39.291 16.3251 41.4193 15.8028 42.3702C13.3693 41.0298 10.8253 38.0381 9.85744 36.7098C14.7243 35.3694 17.4465 37.2683 18.1993 38.3853Z" fill="black" fill-opacity="0.3"/>
<path d="M39.5379 38.521C36.8833 42.2162 31.4265 44.0456 29.0299 44.4985C29.9148 38.7384 34.2839 36.8154 36.3579 36.5739C37.5009 37.1897 38.9542 38.1286 39.5379 38.521Z" fill="black" fill-opacity="0.3"/>
<path d="M35.2978 35.6683C33.823 34.183 32.7169 32.121 32.3482 31.2758C28.5875 32.4712 26.6334 34.9437 26.1264 36.0305C27.0481 37.0811 28.2925 40.3325 28.7995 41.8268C30.2005 38.349 33.7155 36.272 35.2978 35.6683Z" fill="black" fill-opacity="0.3"/>
<path d="M40.091 37.6153C36.6252 36.8546 34.0074 32.8002 33.1317 30.8681C37.9249 29.2379 42.0728 30.3096 43.5476 31.0492C42.9945 34.2734 41.0127 36.7701 40.091 37.6153Z" fill="black" fill-opacity="0.3"/>
<path d="M43.8702 30.0077C42.211 29.9715 39.7069 29.3586 38.6622 29.0567C39.3536 28.1058 39.8605 26.4756 42.2571 26.9284C44.1743 27.2907 44.1313 29.1322 43.8702 30.0077Z" fill="black" fill-opacity="0.3"/>
<path d="M32.3482 20.5888C31.5371 25.2983 27.7702 26.8077 25.9881 26.9738C25.8038 29.1112 25.9113 32.9059 25.9881 34.5361C29.3802 30.5512 35.2364 29.1625 37.7405 28.9663C38.4042 22.1556 34.4222 20.5435 32.3482 20.5888Z" fill="black" fill-opacity="0.3"/>
<path d="M24.9742 34.5361C21.6928 31.2032 17.677 29.8266 16.0793 29.5549C18.5496 28.4681 20.5498 26.385 21.2411 25.4794C21.5729 25.7692 23.8681 26.5662 24.9742 26.9284V34.5361Z" fill="black" fill-opacity="0.3"/>
<path d="M18.568 18.3247C18.273 21.6213 19.6434 24.0153 20.3654 24.8002C17.6002 28.8214 14.4815 29.2229 13.2679 28.921C12.7148 26.204 13.1911 23.17 13.4983 21.9926C15.0469 18.9133 17.5233 18.2643 18.568 18.3247Z" fill="black" fill-opacity="0.3"/>
<path d="M19.3515 18.1888C19.2747 19.8492 19.4713 23.3059 20.8724 23.8493C21.8863 22.1134 23.0016 18.5511 19.3515 18.1888Z" fill="black" fill-opacity="0.3"/>
<path d="M22.7159 15.6529C22.5684 16.7035 22.0707 17.8718 21.8402 18.3247C20.8079 17.8899 19.8277 17.2831 19.4898 17.0114C19.3423 15.2001 19.6127 14.4152 19.7663 14.2491C20.7986 14.4303 22.1628 15.2605 22.7159 15.6529Z" fill="black" fill-opacity="0.3"/>
<path d="M29.2604 13.8868C27.1588 14.6476 25.8345 16.6793 25.4351 17.6001C25.2661 17.434 24.8083 16.9299 24.329 16.2416C23.8497 15.5533 24.1907 14.8378 24.4211 14.5661C24.6516 14.3095 25.3521 13.6061 26.3107 12.8453C27.2694 12.0845 28.6766 13.2227 29.2604 13.8868Z" fill="black" fill-opacity="0.3"/>
<path d="M25.8499 25.8869C25.9267 24.1661 27.1588 20.7065 31.4726 20.634C31.2421 22.385 29.795 25.8869 25.8499 25.8869Z" fill="black" fill-opacity="0.3"/>
<path d="M43.8241 23.3058C42.0174 16.2054 35.3286 14.2491 32.21 14.1586L32.0256 19.6379C37.5193 20.2537 38.6469 24.8455 38.524 27.0644C41.2524 25.3255 43.2557 26.4304 43.9163 27.2002L43.8241 23.3058Z" fill="black" fill-opacity="0.3"/>
<path d="M31.5322 19.7737V14.3397C25.7067 14.4484 25.3872 20.1511 25.9556 22.9889C27.7254 20.3805 30.4107 19.7586 31.5322 19.7737Z" fill="black" fill-opacity="0.3"/>
<path d="M27.1864 11.264L25.7577 8.00357C35.2702 7.82244 40.6287 14.5697 42.1189 17.9659C38.6162 14.2708 34.1764 13.3168 32.3943 13.3017C32.3943 11.9251 32.2407 10.7357 32.1639 10.313C30.8734 10.0957 28.3079 10.8564 27.1864 11.264Z" fill="black" fill-opacity="0.3"/>
<path d="M23.2229 14.7472C16.7706 10.9434 10.1186 16.3322 7.59914 19.502C11.4336 10.7351 20.6266 8.24152 24.7438 8.09058C24.9281 9.75701 25.9574 11.1699 26.449 11.668L23.2229 14.7472Z" fill="black" fill-opacity="0.3"/>
<path d="M25.1125 21.4492C25.0664 22.4001 25.1125 25.9322 25.1125 25.9322C23.0846 26.1496 21.9632 24.9964 21.6559 24.3926C21.9785 23.5171 22.6237 21.3767 22.6237 19.819C22.6237 18.2612 23.2997 16.785 23.6377 16.2416C25.1493 18.1978 25.1586 20.4982 25.1125 21.4492Z" fill="black" fill-opacity="0.3"/>
<path d="M31.0117 13.434C28.9101 12.9268 28.2004 12.2264 28.1082 11.9396C29.6936 10.9615 30.8274 11.1094 31.1961 11.3056C31.7122 12.3562 31.2882 13.1623 31.0117 13.434Z" fill="black" fill-opacity="0.3"/>
<path d="M10.8253 24.6644C9.7929 23.5051 7.96783 22.9738 7.18434 22.853C7.06144 22.2643 7.51617 20.3805 10.3183 17.5549C13.1204 14.7292 16.9857 14.2341 18.568 14.3397V17.3737C17.7999 17.2681 15.8027 17.582 13.9592 19.6832C12.1157 21.7843 12.1772 24.9663 12.4383 26.2946C12.3308 26.2342 11.8576 25.8236 10.8253 24.6644Z" fill="black" fill-opacity="0.3"/>
<path d="M28.1543 44.2721C27.7856 45.2864 26.4029 44.906 25.7577 44.589C25.7577 41.0026 23.6684 37.8116 22.6237 36.6644C23.5824 36.3384 24.6516 36.3173 25.0664 36.3475C26.8638 37.7965 28.6151 43.0041 28.1543 44.2721Z" fill="black" fill-opacity="0.3"/>
<path d="M19.3976 38.4757C17.8491 39.7437 16.9089 41.8418 16.6323 42.7324C17.1086 42.989 18.3099 43.5747 19.3054 43.8645C20.5498 44.2267 22.3933 44.9513 23.4533 44.9966C24.3013 45.0328 24.882 44.7701 25.0664 44.6343C24.5133 40.0697 22.5623 37.6003 21.6559 36.9361C21.5484 36.921 20.9461 37.2078 19.3976 38.4757Z" fill="black" fill-opacity="0.3"/>
</svg>
