<svg width="37" height="35" viewBox="0 0 37 35" fill="none" xmlns="http://www.w3.org/2000/svg">
<g clip-path="url(#clip0_266_6349)">
<path d="M2.61014 17.378C2.61014 20.2826 2.41597 23.2095 2.66006 26.0863C2.96795 29.7157 6.22992 32.4732 9.89131 32.5121C12.016 32.5426 14.1407 32.5454 16.271 32.5121C17.2723 32.4926 18.1377 32.7675 18.1128 33.8478C18.0906 34.7725 17.228 35.0363 16.3681 34.9974C13.475 34.8752 10.5126 35.0973 7.70557 34.5336C3.04839 33.6006 0.188619 29.9407 0.0721205 25.0367C-0.0554734 19.6356 0.0138664 14.2068 0.188615 8.8168C0.332851 4.35989 4.83193 0.122343 9.2783 0.0279282C11.7275 -0.0248328 14.1768 0.0279292 16.626 0.00293715C17.5026 -0.0109473 18.1405 0.263962 18.1239 1.18867C18.1072 2.04118 17.4665 2.25222 16.6677 2.26333C14.2739 2.29665 11.8662 2.2439 9.49189 2.48826C5.11486 2.9409 2.44925 6.01214 2.39377 10.4441C2.36604 12.7544 2.39377 15.0676 2.39377 17.3863L2.61014 17.378Z" fill="black"/>
<path d="M32.1731 15.9035C30.4811 14.3401 28.7808 12.7823 27.0999 11.205C26.7698 10.8968 26.351 10.5469 26.2678 10.1498C26.1457 9.64162 26.118 8.80578 26.4092 8.5864C26.7449 8.3337 27.6852 8.36703 27.993 8.66415C30.7668 11.3152 33.475 14.0273 36.1175 16.8005C36.3699 17.0781 36.331 18.0251 36.0592 18.3083C33.4685 21.0075 30.8278 23.6622 28.1179 26.2391C27.7462 26.5918 26.9029 26.4418 26.2788 26.5168C26.2788 25.8809 26.0819 25.1284 26.3482 24.6341C26.7254 23.9315 27.4411 23.4039 28.0125 22.818C29.3217 21.5128 30.6365 20.2188 32.2508 18.6221H10.8317C10.5099 18.6221 10.0994 18.7443 9.88025 18.5916C9.45032 18.2917 8.92609 17.8779 8.83455 17.4336C8.78185 17.1559 9.43368 16.6783 9.84697 16.42C10.08 16.2728 10.4766 16.3895 10.8012 16.3895H31.8264L32.1731 15.9035Z" fill="black"/>
</g>
<defs>
<clipPath id="clip0_266_6349">
<rect width="36.2727" height="35" fill="white"/>
</clipPath>
</defs>
</svg>
