<svg width="226" height="53" viewBox="0 0 226 53" fill="none" xmlns="http://www.w3.org/2000/svg">
<path d="M79.2917 31.557V37.035H61V33.3283L73.6284 22.2739H68.1604C66.5656 22.2739 65.1986 22.8644 64.1246 24.0781H61V18.6001H79.2917V22.2739L66.7609 33.3283H72.1312C73.7261 33.3283 75.0931 32.7379 76.1671 31.5242H79.2917V31.557Z" fill="black" fill-opacity="0.3"/>
<path d="M86.0616 25.9806H94.9145C94.5239 24.8982 93.873 24.0125 92.9616 23.3237C92.0178 22.6348 90.9437 22.274 89.772 22.274C88.2748 22.274 86.9729 22.7988 85.8988 23.8813C84.8248 24.9638 84.304 26.2759 84.304 27.7848C84.304 29.2937 84.8248 30.6058 85.8988 31.6882C86.9729 32.7707 88.2748 33.2955 89.772 33.2955C91.3994 33.2955 92.7664 32.6723 93.8404 31.4586H98.1041C97.3881 33.0987 96.2815 34.4436 94.7843 35.4277C93.2546 36.4446 91.5621 36.9694 89.7394 36.9694H80.6261V27.8176C80.6261 25.2918 81.5049 23.094 83.295 21.3227C85.0851 19.5514 87.2333 18.6329 89.7394 18.6329C92.2456 18.6329 94.4263 19.5186 96.1838 21.3227C97.9414 23.1268 98.8527 25.2918 98.8527 27.8176C98.8527 28.4408 98.7876 29.0312 98.69 29.6545H86.0616V25.9806Z" fill="black" fill-opacity="0.3"/>
<path d="M109.268 22.3395C107.771 22.3395 106.469 22.8643 105.395 23.9468C104.321 25.0293 103.8 26.3414 103.8 27.8503C103.8 29.0312 104.549 30.7697 106.078 33.0986C108.194 36.3133 109.235 38.839 109.235 40.7088C109.235 43.2345 108.357 45.3995 106.566 47.2036C104.776 49.0077 102.628 49.8934 100.122 49.8934V46.2195C101.619 46.2195 102.921 45.6947 103.995 44.6122C105.069 43.5298 105.59 42.2177 105.59 40.7088C105.59 39.4951 104.809 37.7566 103.279 35.4604C101.164 32.3114 100.122 29.7856 100.122 27.8503C100.122 25.3245 101.001 23.1596 102.791 21.3554C104.581 19.5513 106.729 18.6656 109.235 18.6656V22.3395H109.268Z" fill="black" fill-opacity="0.3"/>
<path d="M114.117 14.9263V18.6001H119.585V22.274H114.117V37.0022H110.472V14.9263H114.117Z" fill="black" fill-opacity="0.3"/>
<path d="M129.968 18.6001C132.474 18.6001 134.655 19.4858 136.412 21.2899C138.203 23.094 139.081 25.259 139.081 27.7847V37.0022H129.935C127.429 37.0022 125.249 36.1165 123.491 34.3124C121.701 32.5083 120.822 30.3433 120.822 27.8176V14.9263H124.468V20.4698C126.127 19.2234 127.95 18.6001 129.968 18.6001ZM124.5 27.8176C124.5 29.3265 125.021 30.6385 126.095 31.721C127.169 32.8035 128.471 33.3283 129.968 33.3283C131.465 33.3283 132.767 32.8035 133.841 31.721C134.915 30.6385 135.436 29.3265 135.436 27.8176C135.436 26.3087 134.915 24.9966 133.841 23.9141C132.767 22.8316 131.465 22.3068 129.968 22.3068C128.471 22.3068 127.169 22.8316 126.095 23.9141C125.021 24.9966 124.5 26.3087 124.5 27.8176Z" fill="black" fill-opacity="0.3"/>
<path d="M140.383 14.8934H144.029V37.035H140.383V14.8934Z" fill="black" fill-opacity="0.3"/>
<path d="M154.346 18.6001C156.852 18.6001 159.033 19.4858 160.791 21.2899C162.581 23.094 163.459 25.259 163.459 27.7847C163.459 30.3105 162.581 32.5082 160.791 34.2796C159 36.0837 156.852 36.9694 154.346 36.9694C151.84 36.9694 149.659 36.0837 147.902 34.2796C146.112 32.4754 145.233 30.3105 145.233 27.7847C145.233 25.259 146.112 23.0612 147.902 21.2899C149.659 19.5186 151.807 18.6001 154.346 18.6001ZM154.346 33.3283C155.843 33.3283 157.145 32.8035 158.219 31.721C159.293 30.6385 159.814 29.3264 159.814 27.8175C159.814 26.3086 159.293 24.9965 158.219 23.9141C157.145 22.8316 155.843 22.3068 154.346 22.3068C152.849 22.3068 151.547 22.8316 150.473 23.9141C149.399 24.9965 148.878 26.3086 148.878 27.8175C148.878 29.3264 149.399 30.6385 150.473 31.721C151.547 32.8035 152.816 33.3283 154.346 33.3283Z" fill="black" fill-opacity="0.3"/>
<path d="M173.809 18.6001C176.316 18.6001 178.496 19.4858 180.254 21.2899C182.044 23.094 182.923 25.259 182.923 27.7847C182.923 30.3105 182.044 32.5082 180.254 34.2796C178.464 36.0837 176.316 36.9694 173.809 36.9694C171.303 36.9694 169.123 36.0837 167.365 34.2796C165.575 32.4754 164.696 30.3105 164.696 27.7847C164.696 25.259 165.575 23.0612 167.365 21.2899C169.123 19.5186 171.271 18.6001 173.809 18.6001ZM173.809 33.3283C175.307 33.3283 176.609 32.8035 177.683 31.721C178.757 30.6385 179.277 29.3264 179.277 27.8175C179.277 26.3086 178.757 24.9965 177.683 23.9141C176.609 22.8316 175.307 22.3068 173.809 22.3068C172.312 22.3068 171.01 22.8316 169.936 23.9141C168.862 24.9965 168.341 26.3086 168.341 27.8175C168.341 29.3264 168.862 30.6385 169.936 31.721C171.01 32.8035 172.28 33.3283 173.809 33.3283Z" fill="black" fill-opacity="0.3"/>
<path d="M207.854 18.6001C210.36 18.6001 212.541 19.4858 214.299 21.2899C216.089 23.094 217 25.259 217 27.8175V37.035H213.322V27.8175C213.322 26.2758 212.769 24.9965 211.695 23.9141C210.621 22.8316 209.319 22.3068 207.822 22.3068C206.292 22.3068 205.022 22.8316 203.948 23.9141C202.874 24.9965 202.354 26.3086 202.354 27.8175C202.354 29.4248 202.939 30.8025 204.144 31.885V37.035H198.708V27.8175C198.708 26.3086 198.188 24.9965 197.113 23.9141C196.039 22.8316 194.737 22.3068 193.24 22.3068C191.743 22.3068 190.441 22.8316 189.367 23.9141C188.293 24.9965 187.772 26.3086 187.772 27.8175C187.772 29.4248 188.358 30.8025 189.562 31.885V37.035H184.127V27.8175C184.127 25.2918 185.006 23.094 186.796 21.2899C188.586 19.4858 190.734 18.6001 193.273 18.6001C194.737 18.6001 196.137 18.9281 197.439 19.617C198.708 20.273 199.75 21.1587 200.596 22.3068C201.442 21.1587 202.516 20.273 203.753 19.617C204.99 18.9281 206.357 18.6001 207.854 18.6001Z" fill="black" fill-opacity="0.3"/>
<path d="M8 30.0531V23.804C12.0188 24.1662 13.0543 27.4568 13.0696 29.0568C11.5948 29.3829 9.07538 29.8568 8 30.0531Z" fill="black" fill-opacity="0.3"/>
<path d="M22.7942 35.94C17.2636 31.2305 11.303 32.106 9.01394 33.1324C8.64524 32.2629 8.33799 31.3814 8.23045 31.0493C17.0056 27.8976 23.4087 32.6644 25.5133 35.4418C24.3335 35.6592 23.209 35.8645 22.7942 35.94Z" fill="black" fill-opacity="0.3"/>
<path d="M10.3044 35.8946L9.24438 33.9474C15.8073 31.6651 20.4591 34.6568 21.9646 36.438C21.3378 37.0538 20.3822 37.4191 19.9828 37.5248C16.2589 34.9164 11.9789 35.3512 10.3044 35.8946Z" fill="black" fill-opacity="0.3"/>
<path d="M19.1993 38.3853C18.5356 39.291 17.3251 41.4193 16.8027 42.3702C14.3693 41.0298 11.8253 38.0381 10.8574 36.7098C15.7243 35.3694 18.4465 37.2683 19.1993 38.3853Z" fill="black" fill-opacity="0.3"/>
<path d="M40.5379 38.521C37.8833 42.2162 32.4265 44.0456 30.0299 44.4985C30.9148 38.7384 35.2839 36.8154 37.3579 36.5739C38.5009 37.1897 39.9542 38.1286 40.5379 38.521Z" fill="black" fill-opacity="0.3"/>
<path d="M36.2978 35.6683C34.823 34.183 33.7169 32.121 33.3482 31.2758C29.5875 32.4712 27.6334 34.9437 27.1264 36.0305C28.0481 37.0811 29.2925 40.3325 29.7995 41.8268C31.2005 38.349 34.7155 36.272 36.2978 35.6683Z" fill="black" fill-opacity="0.3"/>
<path d="M41.091 37.6153C37.6252 36.8546 35.0074 32.8002 34.1317 30.8681C38.9249 29.2379 43.0728 30.3096 44.5476 31.0492C43.9945 34.2734 42.0127 36.7701 41.091 37.6153Z" fill="black" fill-opacity="0.3"/>
<path d="M44.8702 30.0077C43.211 29.9715 40.7069 29.3586 39.6622 29.0567C40.3536 28.1058 40.8605 26.4756 43.2571 26.9284C45.1743 27.2907 45.1313 29.1322 44.8702 30.0077Z" fill="black" fill-opacity="0.3"/>
<path d="M33.3482 20.5888C32.5371 25.2983 28.7702 26.8077 26.9881 26.9738C26.8038 29.1112 26.9113 32.9059 26.9881 34.5361C30.3802 30.5512 36.2364 29.1625 38.7405 28.9663C39.4042 22.1556 35.4222 20.5435 33.3482 20.5888Z" fill="black" fill-opacity="0.3"/>
<path d="M25.9742 34.5361C22.6928 31.2032 18.677 29.8266 17.0793 29.5549C19.5496 28.4681 21.5498 26.385 22.2411 25.4794C22.5729 25.7692 24.8681 26.5662 25.9742 26.9284V34.5361Z" fill="black" fill-opacity="0.3"/>
<path d="M19.568 18.3247C19.273 21.6213 20.6434 24.0153 21.3654 24.8002C18.6002 28.8214 15.4815 29.2229 14.2679 28.921C13.7148 26.204 14.1911 23.17 14.4983 21.9926C16.0469 18.9133 18.5233 18.2643 19.568 18.3247Z" fill="black" fill-opacity="0.3"/>
<path d="M20.3515 18.1888C20.2747 19.8492 20.4713 23.3059 21.8724 23.8493C22.8863 22.1134 24.0016 18.5511 20.3515 18.1888Z" fill="black" fill-opacity="0.3"/>
<path d="M23.7159 15.6529C23.5684 16.7035 23.0707 17.8718 22.8402 18.3247C21.8079 17.8899 20.8277 17.2831 20.4898 17.0114C20.3423 15.2001 20.6127 14.4152 20.7663 14.2491C21.7986 14.4303 23.1628 15.2605 23.7159 15.6529Z" fill="black" fill-opacity="0.3"/>
<path d="M30.2604 13.8868C28.1588 14.6476 26.8345 16.6793 26.4351 17.6001C26.2661 17.434 25.8083 16.9299 25.329 16.2416C24.8497 15.5533 25.1907 14.8378 25.4211 14.5661C25.6516 14.3095 26.3521 13.6061 27.3107 12.8453C28.2694 12.0845 29.6766 13.2227 30.2604 13.8868Z" fill="black" fill-opacity="0.3"/>
<path d="M26.8499 25.8869C26.9267 24.1661 28.1588 20.7065 32.4726 20.634C32.2421 22.385 30.795 25.8869 26.8499 25.8869Z" fill="black" fill-opacity="0.3"/>
<path d="M44.8241 23.3058C43.0174 16.2054 36.3286 14.2491 33.21 14.1586L33.0256 19.6379C38.5193 20.2537 39.6469 24.8455 39.524 27.0644C42.2524 25.3255 44.2557 26.4304 44.9163 27.2002L44.8241 23.3058Z" fill="black" fill-opacity="0.3"/>
<path d="M32.5322 19.7737V14.3397C26.7067 14.4484 26.3872 20.1511 26.9556 22.9889C28.7254 20.3805 31.4107 19.7586 32.5322 19.7737Z" fill="black" fill-opacity="0.3"/>
<path d="M28.1864 11.264L26.7577 8.00357C36.2702 7.82244 41.6287 14.5697 43.1189 17.9659C39.6162 14.2708 35.1764 13.3168 33.3943 13.3017C33.3943 11.9251 33.2407 10.7357 33.1639 10.313C31.8734 10.0957 29.3079 10.8564 28.1864 11.264Z" fill="black" fill-opacity="0.3"/>
<path d="M24.2229 14.7472C17.7706 10.9434 11.1186 16.3322 8.59913 19.502C12.4336 10.7351 21.6266 8.24152 25.7438 8.09058C25.9281 9.75701 26.9574 11.1699 27.449 11.668L24.2229 14.7472Z" fill="black" fill-opacity="0.3"/>
<path d="M26.1125 21.4492C26.0664 22.4001 26.1125 25.9322 26.1125 25.9322C24.0846 26.1496 22.9632 24.9964 22.6559 24.3926C22.9785 23.5171 23.6237 21.3767 23.6237 19.819C23.6237 18.2612 24.2997 16.785 24.6377 16.2416C26.1493 18.1978 26.1586 20.4982 26.1125 21.4492Z" fill="black" fill-opacity="0.3"/>
<path d="M32.0117 13.434C29.9101 12.9268 29.2004 12.2264 29.1082 11.9396C30.6936 10.9615 31.8274 11.1094 32.1961 11.3056C32.7122 12.3562 32.2882 13.1623 32.0117 13.434Z" fill="black" fill-opacity="0.3"/>
<path d="M11.8253 24.6644C10.7929 23.5051 8.96783 22.9738 8.18434 22.853C8.06144 22.2643 8.51617 20.3805 11.3183 17.5549C14.1204 14.7292 17.9857 14.2341 19.568 14.3397V17.3737C18.7999 17.2681 16.8027 17.582 14.9592 19.6832C13.1157 21.7843 13.1772 24.9663 13.4383 26.2946C13.3308 26.2342 12.8576 25.8236 11.8253 24.6644Z" fill="black" fill-opacity="0.3"/>
<path d="M29.1543 44.2721C28.7856 45.2864 27.4029 44.906 26.7577 44.589C26.7577 41.0026 24.6684 37.8116 23.6237 36.6644C24.5824 36.3384 25.6516 36.3173 26.0664 36.3475C27.8638 37.7965 29.6151 43.0041 29.1543 44.2721Z" fill="black" fill-opacity="0.3"/>
<path d="M20.3976 38.4757C18.8491 39.7437 17.9089 41.8418 17.6323 42.7324C18.1086 42.989 19.3099 43.5747 20.3054 43.8645C21.5498 44.2267 23.3933 44.9513 24.4533 44.9966C25.3013 45.0328 25.882 44.7701 26.0664 44.6343C25.5133 40.0697 23.5623 37.6003 22.6559 36.9361C22.5484 36.921 21.9461 37.2078 20.3976 38.4757Z" fill="black" fill-opacity="0.3"/>
</svg>
