<svg width="458" height="472" viewBox="0 0 458 472" fill="none" xmlns="http://www.w3.org/2000/svg">
<g style="mix-blend-mode:luminosity" opacity="0.5">
<path d="M527.659 -24.7066C508.132 -24.5941 488.765 -16.7847 474.639 -3.31115C460.496 10.0979 451.771 29.0551 450.661 48.4888C450.375 54.2308 451.453 61.2016 456.765 63.461C462.634 65.9881 468.718 60.9265 473.825 57.159C480.916 51.9698 489.347 48.7068 498.082 47.6438C504.479 46.9217 511.184 47.3624 517.237 45.0729C526.316 41.6386 532.141 32.7067 535.345 23.5686C539.679 11.0917 540.054 -3.24211 533.732 -14.8398C527.41 -26.4374 513.492 -34.2327 500.588 -31.1012" fill="#F4D45D"/>
<path d="M457.788 327.314C477.902 327.736 498.65 324.814 515.916 314.45C533.117 304.104 546.107 285.128 545.284 265.033C544.955 257.52 542.817 250.208 541.229 242.889C539.624 235.506 538.501 227.857 540.294 220.544C542.087 213.23 547.317 206.391 554.637 204.596C560.667 203.142 567.103 205.311 572.324 208.631C589.458 219.444 596.772 242.178 592.853 262.075C588.934 281.971 575.333 298.898 558.88 310.773C530.653 331.079 492.94 337.929 459.436 328.329L457.788 327.314Z" fill="#F4D45D"/>
<path d="M139.116 371.986C142.545 367.45 147.492 362.653 153.023 363.985C156.845 364.861 159.579 368.677 160.467 372.562C161.355 376.447 160.706 380.528 160.152 384.445C158.078 397.77 156.021 411.16 152.01 423.949C148.016 436.803 141.956 449.156 132.81 458.972C130.069 461.93 126.537 465.027 122.225 464.909C119.225 464.794 116.53 463.481 116.301 460.26C116.038 456.908 116.032 453.488 115.85 450.185C115.66 446.325 115.615 442.497 115.765 438.617C116.098 430.989 117.128 423.386 118.89 415.938C120.652 408.491 123.082 401.217 126.195 394.18C129.326 387.209 133.076 380.494 137.516 374.294C137.989 373.471 138.561 372.761 139.116 371.986Z" fill="#1B6578"/>
<path d="M349.396 131.458C352.211 126.843 354.764 120.706 351.533 116.373C347.97 111.574 340.535 112.915 335.035 115.266C311.189 125.574 292.68 147.404 286.504 172.478C285.774 175.506 285.149 179.197 287.543 181.677C289.16 183.324 290.96 183.817 293.085 182.91C298.632 180.477 303.989 177.057 309.003 173.659C314.195 170.144 319.155 166.275 323.818 162.071C328.48 157.866 332.862 153.389 336.963 148.641C341.048 143.828 344.787 138.761 348.198 133.504C348.564 132.785 349.013 132.113 349.396 131.458Z" fill="#1B6578"/>
<path d="M365.271 106.643C367.477 103.791 367.205 99.8921 364.721 97.7827C362.254 95.7396 358.418 96.3273 356.212 99.1789C354.005 102.031 354.278 105.929 356.762 108.039C359.293 110.065 363.129 109.477 365.271 106.643Z" fill="#1B6578"/>
<path d="M477.574 192.58C483.453 165.537 479.773 135.339 494.995 112.202C506.81 94.2588 527.538 84.6288 547.207 75.9712C538.971 62.3536 521.538 55.8748 505.864 58.4208C490.191 60.9667 476.54 71.4292 467.635 84.6556C458.795 97.8649 454.275 113.535 452.064 129.288C449.852 145.042 449.689 160.947 448.745 176.781C447.801 192.615 445.999 208.607 440.592 223.541C437.318 232.649 432.656 241.222 426.944 248.964C421.183 256.789 414.308 263.799 406.59 269.717C404.451 271.321 402.23 272.877 399.992 274.368C398.864 275.082 397.737 275.795 396.527 276.461C395.624 276.976 394.299 277.465 393.693 278.317C395.527 278.18 397.595 277.356 399.326 276.83C401.316 276.235 403.289 275.576 405.245 274.851C409.091 273.42 412.887 271.794 416.614 269.909C423.956 266.239 430.882 261.778 437.278 256.625C443.739 251.456 449.607 245.612 454.833 239.175C460.012 232.82 464.566 225.938 468.302 218.579C472.038 211.22 474.973 203.449 476.946 195.447C477.112 194.502 477.343 193.541 477.574 192.58Z" fill="#F7AE75"/>
<path d="M475.855 257.411L475.856 257.41C481.169 249.131 485.14 239.619 484.765 229.945L484.765 229.944C484.71 228.478 484.336 226.834 483.626 225.582C482.918 224.334 481.928 223.552 480.632 223.579L480.629 223.579C479.817 223.592 479.069 223.954 478.358 224.532C477.645 225.113 477.007 225.883 476.419 226.65L476.418 226.651C476.226 226.9 476.035 227.148 475.843 227.397C463.827 242.96 451.463 258.975 434.542 269.266L434.54 269.267C422.963 276.246 409.771 280.207 396.739 283.512C394.895 283.999 392.934 284.535 391.136 285.336C389.339 286.135 387.74 287.185 386.603 288.678C386.347 289.02 386.08 289.395 385.924 289.779C385.77 290.158 385.75 290.476 385.886 290.752C386.027 291.039 386.342 291.269 386.825 291.47C387.141 291.602 387.453 291.695 387.771 291.79C387.957 291.845 388.144 291.901 388.335 291.966L388.335 291.966L388.339 291.967C390.457 292.7 392.618 293.351 394.806 293.857C399.193 294.872 403.67 295.455 408.157 295.56C412.647 295.665 417.232 295.338 421.717 294.629C426.195 293.922 430.62 292.753 434.864 291.158C435.129 291.052 435.396 290.963 435.655 290.878L435.676 290.871C435.933 290.787 436.184 290.704 436.445 290.603C452.682 284.208 466.472 272.137 475.855 257.411Z" stroke="#3EB595"/>
<mask id="path-8-inside-1" fill="white">
<path d="M176.034 398.544C172.538 373.765 181.493 348.123 197.568 328.982C213.644 309.842 236.267 296.871 260.252 289.844C275.433 285.419 291.977 283.267 306.849 288.692C241.119 317.343 189.308 376.403 169.535 445.291C171.904 409.403 174.409 372.717 188.84 339.74"/>
</mask>
<path d="M260.252 289.844L259.971 288.884L259.972 288.884L260.252 289.844ZM306.849 288.692L307.192 287.753L309.541 288.61L307.249 289.609L306.849 288.692ZM169.535 445.291L170.497 445.567L168.538 445.225L169.535 445.291ZM175.044 398.684C171.503 373.581 180.574 347.661 196.802 328.339L198.334 329.626C182.411 348.584 173.574 373.949 177.024 398.404L175.044 398.684ZM196.802 328.339C213.03 309.018 235.839 295.954 259.971 288.884L260.533 290.804C236.695 297.788 214.257 310.667 198.334 329.626L196.802 328.339ZM259.972 288.884C275.228 284.437 292.021 282.219 307.192 287.753L306.506 289.632C291.932 284.315 275.638 286.401 260.532 290.804L259.972 288.884ZM307.249 289.609C241.791 318.141 190.186 376.966 170.497 445.567L168.574 445.015C188.429 375.84 240.446 316.545 306.45 287.776L307.249 289.609ZM168.538 445.225C170.905 409.368 173.411 372.503 187.923 339.339L189.756 340.14C175.407 372.93 172.904 409.438 170.533 445.357L168.538 445.225Z" fill="#F7AE75" mask="url(#path-8-inside-1)"/>
<path d="M213.561 344.157C215.813 342.453 218.177 340.651 219.361 338.052C220.546 335.454 220.028 331.919 217.524 330.571C215.512 329.509 213.003 330.24 211.003 331.323C208.277 332.805 205.933 334.948 204.196 337.554C202.412 340.242 201.376 344.188 203.648 346.497C205.297 348.279 208.222 348.338 210.434 347.269C212.662 346.264 214.311 344.374 215.895 342.501" fill="#F4D45D"/>
<path d="M72.7478 335.341C72.1182 332.957 69.4261 331.567 66.709 332.285C63.9918 333.003 62.3366 335.54 62.9662 337.924C63.5958 340.308 66.288 341.697 69.0051 340.98C71.7222 340.262 73.3774 337.725 72.7478 335.341Z" fill="#1B6578"/>
<path d="M69.371 322.554C68.7783 320.309 63.9726 310.917 61.2555 311.634C58.5384 312.352 58.9967 322.893 59.5894 325.137C60.182 327.381 62.8437 328.655 65.5609 327.937C68.278 327.22 69.9636 324.798 69.371 322.554Z" fill="#1B6578"/>
<path d="M414.853 146.761C415.917 143.709 416.654 140.466 417.49 137.336C418.374 134.123 419.257 130.911 420.223 127.746C421.123 124.599 422.024 121.451 422.843 118.256C423.261 116.691 423.662 115.061 424.08 113.496C424.45 112.012 424.916 110.365 425.907 109.134C426.115 108.871 426.636 109.01 426.657 109.351C426.986 110.858 426.619 112.617 426.249 114.101C425.896 115.649 425.478 117.214 425.042 118.714C424.159 121.927 423.275 125.139 422.31 128.304C421.344 131.468 420.297 134.585 419.086 137.607C418.504 139.077 417.922 140.547 417.276 142.034C416.599 143.668 415.758 145.206 415.163 146.887C415.149 147.099 414.774 146.99 414.853 146.761Z" fill="#F7AE75"/>
<path d="M428.014 105.044C427.915 104.932 427.864 104.737 427.829 104.608C427.778 104.414 427.679 104.301 427.693 104.09C427.655 103.684 427.634 103.343 427.661 102.92C427.732 102.14 427.803 101.359 428.02 100.609C428.173 99.8754 428.343 99.207 428.642 98.5044C428.816 98.1122 428.989 97.72 429.245 97.3754C429.453 97.1127 429.691 96.7034 430.097 96.6655C430.291 96.6142 430.455 96.7095 430.571 96.8867C430.721 97.1934 430.677 97.5514 430.698 97.8924C430.654 98.2504 430.627 98.6732 430.453 99.0654C430.219 99.7509 429.984 100.436 429.831 101.17C429.661 101.838 429.491 102.506 429.274 103.257C429.165 103.632 429.121 103.99 428.93 104.317C428.835 104.481 428.805 104.627 428.709 104.791C428.644 104.808 428.662 104.873 428.597 104.89L428.614 104.955C428.566 105.037 428.519 105.119 428.406 105.218C428.178 105.139 428.031 105.109 428.014 105.044Z" fill="#F7AE75"/>
<path d="M431.749 91.3799C431.513 90.7493 431.471 90.0674 431.576 89.4161C431.638 89.1229 431.828 88.7954 431.954 88.485C432.049 88.3213 432.162 88.2223 432.274 88.1233C432.274 88.1233 432.209 88.1405 432.227 88.2052C432.227 88.2052 432.291 88.1881 432.274 88.1233C432.274 88.1233 432.339 88.1062 432.322 88.0415C432.547 87.8435 432.806 87.7751 433.034 87.8534C433.181 87.8839 433.28 87.9963 433.314 88.1259C433.365 88.3202 433.352 88.5316 433.257 88.6953L433.209 88.7772C433.161 88.859 433.209 88.7772 433.192 88.7124C433.209 88.7772 433.114 88.9409 433.066 89.0228C433.018 89.1047 432.923 89.2684 432.875 89.3503C432.828 89.4321 432.892 89.415 432.875 89.3503C432.923 89.2684 432.923 89.2684 432.828 89.4321L432.78 89.514C432.749 89.6606 432.811 89.3673 432.78 89.514L432.732 89.5959C432.654 89.8244 432.593 90.1176 432.515 90.3461C432.515 90.3461 432.484 90.4928 432.515 90.3461C432.515 90.3461 432.532 90.4109 432.467 90.428C432.484 90.4928 432.437 90.5746 432.454 90.6394C432.471 90.7042 432.488 90.7689 432.44 90.8508C432.457 90.9156 432.457 90.9156 432.44 90.8508C432.457 90.9156 432.457 90.9156 432.474 90.9803C432.543 91.2394 432.4 91.485 432.141 91.5534C432.046 91.7171 431.817 91.6389 431.749 91.3799Z" fill="#F7AE75"/>
<path d="M351.131 192.201C356.623 187.287 360.217 180.172 364.559 174.315C366.632 171.412 368.556 168.202 370.892 165.507C372.06 164.159 374.572 162.387 376.411 163.842C380.876 167.373 372.044 176.426 369.755 179.039C364.667 184.955 357.936 188.326 352.07 193.131C351.378 193.66 350.44 192.73 351.131 192.201Z" fill="#F4D45D"/>
<path d="M377.383 157.557C377.338 156.599 377.729 155.457 378.468 154.846C379.848 153.512 382.47 153.997 382.936 156.022C383.11 156.946 383.012 158.149 382.389 158.937C382.039 159.446 381.654 159.824 381.088 160.043C380.522 160.262 379.922 160.351 379.383 160.147C378.176 159.773 377.432 158.791 377.383 157.557Z" fill="#F4D45D"/>
<path d="M381.544 151.539C381.472 151.004 381.595 150.418 381.962 149.974C382.361 149.384 382.892 149.036 383.656 149.042C383.997 149.021 384.29 149.083 384.618 149.273C385.436 149.75 385.758 150.704 385.509 151.601C385.401 151.976 385.227 152.368 384.955 152.648C384.795 152.829 384.553 152.962 384.311 153.095C383.779 153.443 382.998 153.372 382.507 153.086C381.869 152.77 381.651 152.204 381.544 151.539Z" fill="#F4D45D"/>
<path d="M384.78 148.052C384.698 148.005 384.698 148.005 384.78 148.052C384.094 147.818 383.682 147.303 383.64 146.622C383.653 146.41 383.684 146.264 383.697 146.052C383.82 145.466 384.447 144.954 385.081 144.994C385.715 145.035 386.24 145.45 386.459 146.016C386.51 146.21 386.562 146.404 386.531 146.551C386.552 146.892 386.409 147.137 386.201 147.4C385.993 147.663 385.751 147.796 385.445 147.946C385.267 148.062 384.927 148.083 384.78 148.052Z" fill="#F4D45D"/>
<path d="M400.592 104.042C400.568 103.425 400.56 102.872 400.471 102.272C400.382 101.672 400.163 101.107 400.221 100.537C400.306 100.861 400.392 101.185 400.477 101.509C399.334 99.8016 401.217 97.2259 403.178 98.0936C405.122 98.8966 404.562 102.023 402.503 102.359C402.81 102.209 403.035 102.011 403.341 101.861C403.021 102.223 402.585 102.407 402.265 102.769C401.897 103.212 401.741 103.669 401.601 104.191C401.479 104.778 400.616 104.659 400.592 104.042Z" fill="#F4D45D"/>
<path d="M403.065 94.5204C403.048 94.4556 403.031 94.3908 403.079 94.3088C403.195 94.4862 403.229 94.6158 403.345 94.7931C403.263 94.7454 403.182 94.6977 403.117 94.7148C402.479 94.398 402.468 93.5689 402.9 93.108C402.9 93.108 402.9 93.108 402.965 93.0909C403.19 92.8929 403.497 92.7426 403.79 92.8038C404.083 92.865 404.329 93.0081 404.462 93.2503L404.479 93.3151C404.909 93.8948 404.416 94.6491 403.833 94.803C403.768 94.8202 403.703 94.8373 403.639 94.8544C403.751 94.7553 403.846 94.5915 404.023 94.4754C404.041 94.5402 403.993 94.6221 404.01 94.6869C403.932 94.9156 403.69 95.0488 403.479 95.0353C403.25 94.957 403.052 94.7319 403.065 94.5204Z" fill="#F4D45D"/>
<path d="M191.366 315.726C195.27 308.737 199.025 302.757 205.195 297.525C211.252 292.392 217.924 288.275 225.043 284.801C233.147 280.86 241.521 277.679 250.011 274.675C258.76 271.602 267.416 267.653 276.473 265.747C277.526 265.538 278.584 266.921 277.62 267.73C271.079 273.129 262.896 275.983 255.139 279.14C246.816 282.515 238.425 285.632 230.287 289.444C223.57 292.603 216.973 296.216 210.806 300.408C204.397 304.733 197.092 310.126 192.512 316.393C192.001 317.082 190.954 316.527 191.366 315.726Z" fill="#1B6578"/>
<path d="M172.97 339.982C173.126 339.525 173.429 339.098 173.504 338.593C173.595 338.153 174.144 337.87 174.618 338.091C175.075 338.248 175.229 338.831 174.991 339.24C174.8 339.567 174.661 340.089 174.535 340.4C174.361 340.792 173.959 341.106 173.567 340.932C173.127 340.841 172.796 340.374 172.97 339.982Z" fill="#1B6578"/>
<path d="M177.992 332.767C177.998 332.003 178.199 331.188 178.645 330.516C178.788 330.27 178.931 330.025 179.156 329.827C179.619 329.22 180.086 328.888 180.846 328.618C181.606 328.348 182.619 328.774 183.066 329.418C183.595 330.109 183.623 331.003 183.211 331.804C182.925 332.295 182.653 332.575 182.186 332.906C182.588 332.592 181.961 333.104 181.913 333.186C181.464 333.582 180.997 333.913 180.53 334.244C179.484 335.005 177.959 333.953 177.992 332.767Z" fill="#1B6578"/>
<path d="M185.182 324.841L185.165 324.776C185.298 325.018 185.432 325.26 185.548 325.437C185.285 325.229 185.118 324.858 185.032 324.534C185.182 324.841 185.316 325.082 185.531 325.372C185.234 325.035 185.019 324.745 184.916 324.357C184.831 324.033 184.827 323.757 184.871 323.399C184.993 322.812 185.18 322.209 185.63 321.813C186.352 321.137 187.47 320.911 188.371 321.435C189.206 321.977 189.674 322.962 189.395 324.005C189.273 324.591 188.858 325.117 188.391 325.448C188.166 325.646 187.859 325.796 187.536 325.882C187.147 325.984 186.724 325.957 186.349 325.849C186.69 325.828 186.966 325.824 187.324 325.868C187 325.954 186.595 325.992 186.284 325.866C186.561 325.862 186.837 325.858 187.048 325.872L186.983 325.889C186.124 326.047 185.306 325.57 185.182 324.841Z" fill="#1B6578"/>
<path d="M257.787 349.243C257.852 349.226 257.835 349.161 257.787 349.243C257.93 348.997 258.09 348.816 258.25 348.636C258.427 348.52 258.588 348.339 258.765 348.223C258.959 348.171 259.201 348.038 259.395 347.987C259.719 347.901 260.06 347.881 260.418 347.925C260.629 347.938 260.858 348.016 261.022 348.112C261.25 348.19 261.414 348.285 261.595 348.445C261.758 348.541 261.939 348.701 262.055 348.878C262.27 349.167 262.403 349.409 262.506 349.798L262.523 349.863C262.643 350.316 262.633 350.804 262.541 351.243C262.45 351.683 262.194 352.028 261.874 352.39C261.554 352.751 261.118 352.936 260.664 353.055C260.341 353.141 260 353.162 259.642 353.118C259.284 353.074 258.99 353.013 258.728 352.805C258.318 352.566 258.022 352.229 257.789 351.875C257.54 351.456 257.42 351.002 257.43 350.515C257.44 350.027 257.614 349.635 257.787 349.243Z" fill="#3EB595"/>
<path d="M266.125 339.628C266.384 339.56 266.66 339.556 266.953 339.617C267.229 339.613 267.458 339.692 267.721 339.899C267.966 340.042 268.147 340.202 268.345 340.427C268.543 340.652 268.676 340.894 268.744 341.153C268.796 341.347 268.782 341.559 268.816 341.688C268.837 342.029 268.728 342.404 268.538 342.732C268.442 342.895 268.33 342.994 268.235 343.158C267.962 343.438 267.656 343.588 267.267 343.691C267.008 343.759 266.732 343.763 266.439 343.702C266.162 343.705 265.934 343.627 265.671 343.419C265.426 343.276 265.245 343.116 265.047 342.892C264.849 342.667 264.716 342.425 264.647 342.166C264.596 341.971 264.609 341.76 264.575 341.631C264.554 341.29 264.663 340.915 264.854 340.587C264.949 340.423 265.062 340.324 265.157 340.161C265.429 339.881 265.736 339.731 266.125 339.628Z" fill="#3EB595"/>
<path d="M271.422 334.765C271.552 334.731 271.746 334.68 271.91 334.775C272.056 334.806 272.203 334.836 272.367 334.932C272.53 335.027 272.612 335.075 272.728 335.252C272.827 335.364 272.926 335.477 272.978 335.671C273.012 335.8 273.029 335.865 272.998 336.012C272.985 336.223 272.971 336.435 272.811 336.615C272.764 336.697 272.716 336.779 272.604 336.878C272.444 337.059 272.249 337.11 272.055 337.162C271.925 337.196 271.731 337.247 271.567 337.152C271.421 337.121 271.274 337.091 271.11 336.995C270.947 336.9 270.865 336.852 270.749 336.675C270.65 336.563 270.551 336.45 270.5 336.256C270.465 336.127 270.448 336.062 270.479 335.915C270.492 335.704 270.506 335.492 270.666 335.312C270.713 335.23 270.761 335.148 270.874 335.049C271.051 334.933 271.228 334.817 271.422 334.765Z" fill="#3EB595"/>
<path d="M193.432 256.917C193.381 256.722 193.322 255.976 193.377 256.446C193.449 256.981 193.339 256.04 193.305 255.911C193.408 256.299 193.527 256.753 193.63 257.141C193.179 256.221 193.144 254.776 194.06 254.049C195.426 252.926 196.973 251.963 198.503 250.936C200.21 249.792 202.925 247.481 204.711 249.781C205.339 250.585 205.353 251.69 204.812 252.526C204.366 253.198 203.916 253.594 203.272 254.041C202.628 254.488 201.984 254.935 201.34 255.382C199.988 256.294 198.652 257.27 197.2 258.069C196.232 258.602 194.835 258.555 194.108 257.639C194.306 257.864 194.551 258.007 194.78 258.085C194.551 258.007 194.323 257.928 194.142 257.768C193.814 257.578 193.599 257.288 193.432 256.917Z" fill="#3EB595"/>
<path d="M181.182 267.98C180.919 267.773 180.769 267.466 180.7 267.207C180.833 267.449 180.949 267.626 181.083 267.868C180.523 267.323 180.546 266.624 180.634 265.908C180.743 265.533 180.999 265.188 181.189 264.861C181.462 264.581 181.397 264.598 181.799 264.284C181.864 264.267 181.847 264.202 181.911 264.185C182.024 264.086 182.218 264.035 182.33 263.936C182.831 263.734 183.431 263.645 183.953 263.784C184.557 263.971 185.034 264.469 185.188 265.052C185.274 265.375 185.278 265.652 185.169 266.027C185.108 266.32 184.9 266.583 184.692 266.845C184.549 267.091 184.225 267.177 184.001 267.374C184.113 267.275 184.29 267.159 184.403 267.06C184.113 267.275 183.823 267.49 183.517 267.641C183.452 267.658 183.339 267.757 183.275 267.774C183.033 267.907 182.839 267.958 182.597 268.092C182.726 268.057 182.903 267.941 183.033 267.907C182.968 267.924 182.968 267.924 182.903 267.941C182.839 267.958 182.774 267.976 182.709 267.993C182.597 268.092 182.467 268.126 182.32 268.095C182.191 268.129 182.044 268.099 181.898 268.068C181.833 268.085 181.751 268.038 181.604 268.007C181.945 267.986 182.334 267.884 182.675 267.863C182.61 267.88 182.545 267.897 182.48 267.914C182.239 268.048 181.979 268.116 181.768 268.103C181.686 268.055 181.621 268.072 181.475 268.041C181.444 268.188 181.281 268.093 181.182 267.98Z" fill="#3EB595"/>
<path d="M166.388 279.646C166.436 279.564 166.548 279.465 166.596 279.383C166.644 279.302 166.644 279.302 166.691 279.22L166.739 279.138C166.787 279.056 166.852 279.039 166.899 278.957C166.947 278.875 167.012 278.858 167.059 278.776C167.107 278.694 167.219 278.595 167.284 278.578C167.349 278.561 167.397 278.479 167.397 278.479C167.621 278.281 167.863 278.148 168.122 278.08C168.252 278.046 168.399 278.076 168.528 278.042C168.675 278.073 168.821 278.103 168.968 278.134C168.627 278.154 168.303 278.24 167.962 278.261C168.027 278.244 168.027 278.244 168.092 278.226C168.157 278.209 168.221 278.192 168.286 278.175C168.48 278.124 168.416 278.141 168.61 278.09C168.739 278.055 168.951 278.069 169.097 278.099C169.179 278.147 169.261 278.195 169.408 278.225C169.49 278.273 169.49 278.273 169.507 278.338C169.589 278.385 169.589 278.385 169.606 278.45C169.688 278.498 169.722 278.627 169.804 278.675C169.838 278.805 169.855 278.869 169.954 278.982C169.988 279.111 170.005 279.176 169.975 279.323C170.009 279.452 169.961 279.534 169.931 279.681C169.948 279.745 169.883 279.762 169.9 279.827C169.879 279.486 169.794 279.163 169.773 278.822C169.855 278.869 169.889 278.999 169.906 279.064C170.022 279.241 170.074 279.435 170.06 279.646C170.077 279.711 170.03 279.793 170.047 279.858C170.033 280.069 170.003 280.216 169.843 280.397C169.795 280.479 169.795 280.478 169.747 280.56C169.7 280.642 169.669 280.789 169.622 280.871C169.526 281.034 169.301 281.232 169.206 281.396C169.158 281.478 169.046 281.577 168.998 281.659C168.838 281.84 168.661 281.956 168.467 282.007C168.29 282.123 168.095 282.174 167.884 282.161C167.737 282.13 167.591 282.1 167.461 282.134C167.25 282.121 167.069 281.96 166.905 281.865C166.823 281.818 166.724 281.705 166.625 281.593C166.509 281.415 166.393 281.238 166.342 281.044C166.308 280.914 166.338 280.768 166.304 280.638C166.184 280.185 166.245 279.892 166.388 279.646Z" fill="#3EB595"/>
<path d="M322.45 56.9475L322.452 56.946C325.998 54.429 328.496 50.6652 330.517 46.7632L330.518 46.762C332.677 42.6208 334.308 38.16 334.522 33.5424C334.738 28.9205 333.453 24.1152 330.352 20.7813L330.352 20.7812C326.597 16.7408 320.874 15.5035 315.677 16.6695C312.011 17.4974 308.268 18.8474 305.925 21.8227C303.879 24.461 303.144 27.858 302.726 31.2719C302.702 31.4723 302.678 31.6735 302.654 31.8752C302.108 36.4514 301.524 41.3554 301.735 45.9136C302.227 51.4019 305.098 57.2349 310.321 59.15C314.294 60.5906 318.967 59.4475 322.45 56.9475Z" stroke="#F4D45D"/>
<path d="M142.764 416.67C144.479 414.133 142.741 410.208 139.823 409.253C136.906 408.299 133.691 409.938 131.993 412.543C130.362 415.13 130.111 418.43 130.498 421.491C130.768 423.575 131.485 425.758 133.139 426.974C135.911 428.973 139.979 427.108 141.57 424.101C143.161 421.093 142.977 417.476 142.781 414.078" fill="#3EB595"/>
<path d="M412.681 232.234C412.28 235.244 412.874 238.821 415.603 240.106C419.689 242 424.03 237.673 426.144 234.764C428.258 231.854 431.06 228.625 432.115 225.165C433.09 221.934 431.325 218.182 428.657 216.328C425.308 214.031 421.038 217.026 418.738 219.5C415.427 222.934 413.263 227.516 412.681 232.234Z" fill="#3EB595"/>
<path d="M315.625 252.697C317.39 251.501 319.144 249.214 317.973 247.406C317.26 246.281 315.819 246.078 314.544 245.977C308.842 245.658 303.069 246.38 297.631 248.108C294.944 248.963 292.311 250.023 289.815 251.339C287.626 252.501 284.788 253.835 283.524 256.139C281.81 259.365 283.705 263.389 287.274 263.249C290.973 263.075 294.628 261.161 298.212 260.288C304.471 258.78 310.302 256.438 315.625 252.697Z" fill="#3EB595"/>
<path d="M469.684 130.619C467.678 125.121 469.756 118.822 472.468 113.88C475.528 108.153 480.113 103.478 484.108 98.4054C485.099 97.1737 486.025 95.9592 486.917 94.6152C487.619 93.5986 488.317 92.3059 488.401 91.3137C488.384 91.2489 488.438 90.4034 488.441 90.6795C488.407 90.55 488.356 90.3557 488.322 90.2262C488.407 90.55 488.322 90.2262 488.287 90.0966C487.973 89.6946 488.171 89.9195 488.189 89.9842C487.973 89.6946 487.991 89.7594 488.09 89.8718C487.909 89.7117 487.844 89.7288 487.991 89.7594C487.762 89.6812 487.534 89.603 487.322 89.5895C487.534 89.603 486.899 89.5626 486.77 89.5968C486.364 89.6347 486.494 89.6004 486.17 89.6859C485.57 89.7751 484.745 90.0622 484.309 90.2467C479.009 92.4776 475.755 98.2557 472.96 103.151C470.183 108.11 467.736 113.536 466.933 119.152C466.577 121.74 466.389 124.7 467.103 127.143C467.138 127.273 467.172 127.403 467.206 127.532C467.121 127.208 467.206 127.532 467.223 127.597C467.356 127.839 467.49 128.081 467.623 128.323C467.408 128.033 467.821 128.548 467.903 128.595C467.558 128.34 467.903 128.595 467.903 128.595C467.739 128.5 467.674 128.517 467.821 128.548C467.967 128.578 467.967 128.578 467.756 128.565C467.756 128.565 467.95 128.513 467.903 128.595C467.903 128.595 467.661 128.728 467.885 128.53C467.998 128.431 468.11 128.332 468.206 128.169C468.556 127.66 468.597 127.026 468.572 126.409C468.585 124.882 468.386 123.341 468.527 121.779C468.669 120.218 468.941 118.622 469.376 117.122C470.181 114.138 471.556 111.211 473.146 108.575C474.926 105.61 476.987 102.919 479.03 100.162C480.004 98.8657 480.995 97.6341 481.904 96.3548C482.302 95.7647 482.701 95.1745 483.017 94.5367C483.017 94.5367 483.221 93.9979 483.252 93.8512C483.265 93.6399 483.279 93.4285 483.309 93.2818C483.378 93.5409 483.094 92.9922 483.292 93.2171C483.425 93.459 483.077 92.9275 483.21 93.1694C483.425 93.459 483.21 93.1694 482.982 93.0912C483.374 93.2647 482.982 93.0912 482.917 93.1083C483.176 93.0399 482.982 93.0912 482.852 93.1254C482.723 93.1596 482.576 93.1291 482.43 93.0985C482.9 93.0435 482.235 93.1498 482.17 93.1669C482.041 93.2011 481.799 93.3343 482.106 93.184C481.993 93.283 481.799 93.3343 481.687 93.4333C481.751 93.4162 481.959 93.1535 481.509 93.5493C481.397 93.6483 481.237 93.8291 481.124 93.9281C480.692 94.3887 480.406 94.8799 480.072 95.453C478.435 98.1716 477.026 100.968 475.699 103.813C473.157 109.403 471.352 115.422 469.823 121.437C469.452 122.921 468.853 124.326 468.336 125.779C467.82 127.232 465.818 126.998 465.667 125.375C465.529 123.541 465.572 121.867 465.856 120.06C466.158 118.318 466.46 116.575 466.909 114.863C467.741 111.457 468.884 108.176 470.173 104.926C471.527 101.658 473.028 98.4218 474.709 95.3451C476.456 92.2513 478.423 88.6835 482.367 88.4039C484.202 88.266 486.016 89.1031 487.061 90.6978C488.139 92.4219 487.923 94.4882 487.151 96.2855C486.474 97.9192 485.323 99.3316 484.236 100.727C483.055 102.286 481.808 103.862 480.562 105.438C476.567 110.512 472.501 116.365 472.265 123.079C472.175 124.834 472.507 126.617 472.205 128.36C471.855 130.184 470.595 131.971 468.717 132.467C465.155 133.408 462.933 129.977 462.47 126.912C461.455 120.183 463.137 113.435 465.801 107.258C467.142 104.202 468.728 101.289 470.461 98.4069C472.241 95.4427 474.185 92.5738 476.59 90.1374C478.947 87.783 482.007 85.7279 485.348 85.2614C487.213 84.9768 489.149 85.2274 490.661 86.491C492.073 87.6421 492.699 89.486 492.543 91.259C492.202 94.9515 489.645 98.121 487.342 100.946C485.023 103.706 482.605 106.354 480.203 109.066C476.041 113.768 472.02 119.264 471.146 125.66C470.922 127.174 470.845 128.719 470.85 130.311C471.106 131.282 469.937 131.314 469.684 130.619Z" fill="#F4D45D"/>
</g>
</svg>
