<svg width="471" height="417" viewBox="0 0 471 417" fill="none" xmlns="http://www.w3.org/2000/svg">
<g style="mix-blend-mode:luminosity" opacity="0.5">
<path d="M-58.9158 489.364C-39.3895 489.565 -19.8999 482.067 -5.55955 468.822C8.7968 455.641 17.8246 436.826 19.2455 417.413C19.6242 411.676 18.6581 404.689 13.3826 402.345C7.55523 399.724 1.39109 404.687 -3.77655 408.372C-10.9492 413.447 -19.4316 416.575 -28.1823 417.497C-34.5907 418.117 -41.2873 417.569 -47.3763 419.761C-56.5096 423.049 -62.4766 431.887 -65.8268 440.972C-70.3599 453.378 -70.9654 467.704 -64.83 479.401C-58.6945 491.099 -44.9038 499.116 -31.9509 496.192" fill="#F4D45D"/>
<path d="M16.59 138.509C-3.51446 137.764 -24.3064 140.354 -41.7358 150.439C-59.1005 160.508 -72.3938 179.273 -71.8926 199.379C-71.6844 206.896 -69.6641 214.242 -68.1937 221.585C-66.7073 228.993 -65.7068 236.659 -67.617 243.943C-69.5272 251.227 -74.8654 257.981 -82.2132 259.658C-88.2662 261.016 -94.6662 258.743 -99.8341 255.341C-116.792 244.254 -123.74 221.406 -119.503 201.575C-115.265 181.743 -101.395 165.037 -84.7541 153.427C-56.2045 133.577 -18.3869 127.332 14.9588 137.467L16.59 138.509Z" fill="#F4D45D"/>
<path d="M335.938 98.9519C332.437 103.432 327.413 108.15 321.904 106.729C318.097 105.792 315.424 101.933 314.599 98.0341C313.773 94.1354 314.487 90.0651 315.104 86.1579C317.391 72.868 319.663 59.5126 323.879 46.7895C328.078 34.0008 334.335 21.7469 343.638 12.0785C346.425 9.16485 350.007 6.12463 354.317 6.3117C357.314 6.47527 359.987 7.83151 360.165 11.0558C360.375 14.4112 360.325 17.8306 360.454 21.1364C360.583 24.9986 360.566 28.8272 360.354 32.7039C359.899 40.3261 358.747 47.9118 356.865 55.33C354.984 62.7481 352.439 69.9827 349.213 76.9681C345.971 83.888 342.113 90.5427 337.575 96.6701C337.088 97.4856 336.505 98.186 335.938 98.9519Z" fill="#1B6578"/>
<path d="M121.828 336.077C118.939 340.648 116.289 346.743 119.45 351.127C122.935 355.983 130.391 354.761 135.927 352.498C159.936 342.573 178.792 321.043 185.369 296.072C186.148 293.056 186.832 289.375 184.479 286.857C182.888 285.184 181.096 284.662 178.957 285.535C173.371 287.879 167.961 291.213 162.892 294.53C157.644 297.962 152.623 301.75 147.894 305.88C143.165 310.009 138.712 314.415 134.535 319.096C130.374 323.843 126.554 328.85 123.059 334.052C122.681 334.765 122.222 335.429 121.828 336.077Z" fill="#1B6578"/>
<path d="M105.557 360.636C103.306 363.452 103.516 367.354 105.966 369.503C108.399 371.586 112.244 371.059 114.496 368.244C116.747 365.428 116.537 361.525 114.088 359.376C111.59 357.31 107.744 357.836 105.557 360.636Z" fill="#1B6578"/>
<path d="M-5.35307 272.909C-11.6654 299.854 -8.46949 330.107 -24.0606 352.997C-36.1616 370.749 -57.0417 380.045 -76.8472 388.386C-68.83 402.134 -51.503 408.891 -35.7911 406.597C-20.0791 404.303 -6.26138 394.061 2.85432 380.979C11.905 367.913 16.675 352.317 19.1391 336.601C21.6032 320.885 22.0213 304.985 23.2188 289.168C24.4164 273.351 26.4751 257.39 32.12 242.544C35.5399 233.491 40.3387 224.993 46.1747 217.343C52.0595 209.612 59.0465 202.713 66.8586 196.92C69.0232 195.351 71.2687 193.83 73.5304 192.375C74.6693 191.68 75.8081 190.985 77.0281 190.338C77.939 189.837 79.2721 189.37 79.8916 188.527C78.056 188.636 75.9749 189.426 74.2357 189.924C72.2364 190.487 70.2532 191.115 68.286 191.808C64.4167 193.177 60.5956 194.742 56.8386 196.567C49.4388 200.119 42.4427 204.469 35.9645 209.518C29.4212 214.583 23.4606 220.332 18.1319 226.684C12.852 232.955 8.18786 239.764 4.3344 247.062C0.48093 254.36 -2.57789 262.083 -4.67915 270.052C-4.86045 270.994 -5.10676 271.952 -5.35307 272.909Z" fill="#F7AE75"/>
<path d="M-2.59506 208.113L-2.59596 208.114C-8.04097 216.307 -12.1639 225.754 -11.944 235.433L-11.944 235.434C-11.9129 236.901 -11.5656 238.551 -10.8752 239.814C-10.1872 241.073 -9.21006 241.871 -7.91383 241.865L-7.91124 241.865C-7.09901 241.865 -6.34467 241.515 -5.62502 240.948C-4.90276 240.378 -4.25204 239.619 -3.65229 238.862L-3.65108 238.86C-3.45544 238.615 -3.25973 238.37 -3.06393 238.124C9.20019 222.755 21.8193 206.941 38.9028 196.923L38.9045 196.922C50.5927 190.129 63.8461 186.38 76.9289 183.285C78.7806 182.827 80.7506 182.323 82.5613 181.551C84.37 180.78 85.9861 179.756 87.1473 178.282C87.4086 177.944 87.6808 177.573 87.8433 177.192C88.0037 176.815 88.029 176.498 87.8971 176.219C87.7603 175.93 87.4496 175.695 86.9696 175.486C86.6556 175.349 86.3451 175.251 86.0285 175.151C85.8443 175.093 85.658 175.034 85.4678 174.967L85.4678 174.967L85.464 174.965C83.3579 174.198 81.2076 173.513 79.0277 172.972C74.6579 171.887 70.1906 171.232 65.7063 171.055C61.2182 170.878 56.629 171.132 52.1329 171.768C47.644 172.404 43.2007 173.501 38.9321 175.028C38.6652 175.13 38.3967 175.214 38.1363 175.295L38.1155 175.302C37.8574 175.382 37.6046 175.461 37.3419 175.557C21.0047 181.691 7.02298 193.54 -2.59506 208.113Z" stroke="#3EB595"/>
<mask id="path-8-inside-1" fill="white">
<path d="M299.45 71.8059C302.548 96.638 293.184 122.133 276.803 141.013C260.423 159.893 237.595 172.5 213.5 179.142C198.25 183.323 181.674 185.209 166.891 179.546C233.072 151.953 285.823 93.7315 306.698 25.1689C303.753 61.0147 300.661 97.6561 285.703 130.398"/>
</mask>
<path d="M213.5 179.142L213.766 180.106L213.765 180.106L213.5 179.142ZM166.891 179.546L166.533 180.48L164.198 179.586L166.506 178.623L166.891 179.546ZM306.698 25.1689L305.741 24.8777L307.694 25.2508L306.698 25.1689ZM300.443 71.6821C303.581 96.8387 294.094 122.609 277.559 141.669L276.048 140.358C292.273 121.657 301.515 96.4373 298.458 71.9297L300.443 71.6821ZM277.559 141.669C261.023 160.728 238.008 173.424 213.766 180.106L213.235 178.178C237.182 171.577 259.823 159.059 276.048 140.358L277.559 141.669ZM213.765 180.106C198.44 184.307 181.613 186.256 166.533 180.48L167.248 178.612C181.736 184.162 198.061 182.338 213.236 178.177L213.765 180.106ZM166.506 178.623C232.412 151.145 284.954 93.1545 305.741 24.8777L307.654 25.4602C286.693 94.3085 233.732 152.761 167.275 180.469L166.506 178.623ZM307.694 25.2508C304.753 61.0655 301.655 97.8859 286.613 130.813L284.794 129.982C299.666 97.4264 302.754 60.9639 305.701 25.0871L307.694 25.2508Z" fill="#F7AE75" mask="url(#path-8-inside-1)"/>
<path d="M261.056 125.585C258.777 127.252 256.384 129.016 255.158 131.595C253.933 134.175 254.394 137.718 256.875 139.105C258.871 140.199 261.391 139.508 263.408 138.458C266.158 137.02 268.535 134.914 270.313 132.336C272.14 129.677 273.24 125.749 271.005 123.403C269.385 121.596 266.461 121.49 264.233 122.523C261.988 123.492 260.31 125.355 258.696 127.203" fill="#F4D45D"/>
<path d="M401.71 136.657C402.301 139.051 404.971 140.483 407.699 139.809C410.427 139.135 412.123 136.625 411.532 134.231C410.94 131.837 408.271 130.405 405.542 131.079C402.814 131.753 401.119 134.263 401.71 136.657Z" fill="#1B6578"/>
<path d="M404.881 149.497C405.438 151.75 410.092 161.218 412.82 160.545C415.549 159.871 415.26 149.324 414.703 147.071C414.146 144.817 411.505 143.501 408.777 144.175C406.049 144.849 404.325 147.243 404.881 149.497Z" fill="#1B6578"/>
<path d="M57.3029 319.818C56.0762 322.841 55.1788 326.049 54.1842 329.147C53.137 332.326 52.0897 335.505 50.9602 338.638C49.8982 341.753 48.8361 344.869 47.8564 348.031C47.3591 349.58 46.8766 351.192 46.3793 352.741C45.9346 354.209 45.3847 355.839 44.3112 357.064C44.086 357.325 43.5544 357.193 43.5476 356.856C43.2732 355.372 43.726 353.632 44.1707 352.164C44.6005 350.633 45.0978 349.084 45.61 347.599C46.6572 344.419 47.7044 341.24 48.8339 338.107C49.9634 334.974 51.1752 331.888 52.5517 328.894C53.2136 327.437 53.8755 325.981 54.6049 324.507C55.372 322.888 56.3037 321.362 56.9885 319.696C57.0114 319.488 57.3932 319.592 57.3029 319.818Z" fill="#F7AE75"/>
<path d="M42.9442 361.247C43.0415 361.357 43.0861 361.548 43.1159 361.676C43.1605 361.867 43.2578 361.977 43.2349 362.186C43.2567 362.587 43.2635 362.923 43.2178 363.341C43.1115 364.113 43.0052 364.885 42.7489 365.628C42.5602 366.353 42.3566 367.015 42.018 367.712C41.8224 368.101 41.6268 368.49 41.3488 368.832C41.1234 369.094 40.8603 369.5 40.4404 369.541C40.2379 369.594 40.0731 369.501 39.961 369.327C39.8191 369.026 39.8797 368.672 39.8728 368.335C39.9334 367.981 39.9792 367.563 40.1748 367.174C40.4459 366.495 40.717 365.816 40.9057 365.09C41.1093 364.429 41.3129 363.767 41.5691 363.024C41.6973 362.652 41.7578 362.298 41.9683 361.973C42.0736 361.81 42.1113 361.665 42.2166 361.503C42.2841 361.485 42.2692 361.421 42.3367 361.404L42.3218 361.34C42.3744 361.259 42.4271 361.178 42.5472 361.079C42.7795 361.154 42.9294 361.183 42.9442 361.247Z" fill="#F7AE75"/>
<path d="M38.9101 374.835C39.1257 375.454 39.1393 376.126 39.0034 376.769C38.928 377.059 38.718 377.383 38.5753 377.69C38.4703 377.853 38.3504 377.951 38.2305 378.05C38.2305 378.05 38.2979 378.033 38.2831 377.969C38.2831 377.969 38.2157 377.986 38.2305 378.05C38.2305 378.05 38.1632 378.068 38.178 378.131C37.9383 378.329 37.669 378.398 37.4373 378.323C37.2878 378.295 37.1908 378.185 37.1612 378.057C37.1167 377.866 37.1395 377.658 37.2446 377.496L37.2971 377.414C37.3496 377.333 37.2971 377.414 37.3119 377.478C37.2971 377.414 37.4021 377.252 37.4546 377.171C37.5071 377.09 37.6122 376.927 37.6647 376.846C37.7172 376.765 37.6499 376.782 37.6647 376.846C37.6122 376.927 37.6122 376.927 37.7172 376.765L37.7697 376.684C37.8074 376.539 37.732 376.829 37.7697 376.684L37.8222 376.603C37.9124 376.377 37.9878 376.087 38.078 375.861C38.078 375.861 38.1156 375.716 38.078 375.861C38.078 375.861 38.0632 375.797 38.1305 375.78C38.1157 375.716 38.1682 375.635 38.1533 375.571C38.1385 375.508 38.1237 375.444 38.1762 375.363C38.1614 375.299 38.1614 375.299 38.1762 375.363C38.1614 375.299 38.1614 375.299 38.1465 375.235C38.0872 374.981 38.2448 374.737 38.5141 374.667C38.6191 374.505 38.8508 374.58 38.9101 374.835Z" fill="#F7AE75"/>
<path d="M121.626 275.365C115.847 280.2 111.9 287.158 107.248 292.9C105.021 295.744 102.934 298.887 100.45 301.532C99.2075 302.854 96.5849 304.602 94.7804 303.204C90.3983 299.809 99.7418 290.916 102.174 288.351C107.587 282.545 114.558 279.201 120.713 274.469C121.437 273.948 122.35 274.844 121.626 275.365Z" fill="#F4D45D"/>
<path d="M94.3342 309.468C94.3394 310.406 93.8912 311.53 93.11 312.135C91.644 313.457 88.9866 313.007 88.5977 311.027C88.4587 310.123 88.61 308.943 89.2802 308.164C89.6601 307.663 90.0695 307.288 90.6566 307.068C91.2438 306.848 91.8604 306.755 92.402 306.95C93.619 307.304 94.3371 308.259 94.3342 309.468Z" fill="#F4D45D"/>
<path d="M90.0586 315.438C90.1093 315.962 89.9594 316.538 89.5649 316.976C89.1329 317.558 88.5753 317.905 87.7958 317.906C87.4468 317.93 87.15 317.873 86.8238 317.689C86.0082 317.23 85.7209 316.298 86.0126 315.417C86.1397 315.049 86.3336 314.663 86.6238 314.386C86.795 314.207 87.0477 314.074 87.3005 313.941C87.8581 313.595 88.6523 313.657 89.1416 313.932C89.7794 314.236 89.9785 314.788 90.0586 315.438Z" fill="#F4D45D"/>
<path d="M86.7626 318.941C86.8442 318.987 86.8442 318.987 86.7626 318.941C87.4527 319.165 87.8525 319.665 87.8658 320.333C87.843 320.54 87.8056 320.684 87.7828 320.891C87.6329 321.467 86.9707 321.975 86.3246 321.942C85.6786 321.908 85.1597 321.506 84.9605 320.954C84.9164 320.764 84.8723 320.574 84.9098 320.43C84.9032 320.096 85.0597 319.854 85.2832 319.595C85.5066 319.335 85.7594 319.202 86.0791 319.052C86.265 318.936 86.6141 318.913 86.7626 318.941Z" fill="#F4D45D"/>
<path d="M70.3215 362.674C70.3201 363.281 70.304 363.824 70.3698 364.414C70.4356 365.003 70.6358 365.557 70.5525 366.118C70.4786 365.8 70.4047 365.483 70.3309 365.165C71.4309 366.833 69.3892 369.385 67.4148 368.551C65.4552 367.78 66.1631 364.698 68.2893 364.348C67.9683 364.498 67.7292 364.695 67.4082 364.846C67.752 364.487 68.2074 364.302 68.5512 363.943C68.9475 363.503 69.1275 363.052 69.2927 362.537C69.4431 361.959 70.3229 362.067 70.3215 362.674Z" fill="#F4D45D"/>
<path d="M67.6025 372.148C67.6172 372.211 67.6319 372.275 67.5797 372.355C67.4687 372.183 67.4392 372.056 67.3282 371.883C67.4098 371.929 67.4914 371.975 67.5583 371.958C68.1966 372.262 68.1725 373.075 67.7109 373.531C67.7109 373.531 67.7109 373.531 67.644 373.548C67.4058 373.745 67.086 373.895 66.7889 373.838C66.4919 373.781 66.247 373.643 66.1212 373.407L66.1065 373.343C65.6917 372.779 66.2283 372.035 66.8304 371.878C66.8973 371.861 66.9642 371.843 67.0311 371.826C66.912 371.924 66.8077 372.086 66.6217 372.201C66.6069 372.138 66.6591 372.057 66.6444 371.994C66.734 371.769 66.987 371.636 67.2024 371.647C67.4325 371.722 67.6252 371.94 67.6025 372.148Z" fill="#F4D45D"/>
<path d="M283.529 154.425C279.336 161.146 275.332 166.9 268.934 171.952C262.653 176.909 255.795 180.897 248.513 184.271C240.225 188.1 231.695 191.202 223.056 194.135C214.154 197.135 205.311 200.974 196.146 202.86C195.081 203.067 194.073 201.748 195.072 200.967C201.85 195.752 210.175 192.965 218.084 189.89C226.57 186.602 235.114 183.562 243.432 179.857C250.298 176.787 257.061 173.283 263.416 169.227C270.018 165.041 277.562 159.827 282.405 153.793C282.945 153.13 283.974 153.654 283.529 154.425Z" fill="#1B6578"/>
<path d="M301.612 130.392C301.433 130.842 301.104 131.264 301.007 131.759C300.894 132.192 300.321 132.476 299.845 132.263C299.385 132.114 299.252 131.544 299.513 131.14C299.722 130.816 299.887 130.303 300.029 129.997C300.223 129.611 300.648 129.299 301.042 129.465C301.488 129.551 301.806 130.006 301.612 130.392Z" fill="#1B6578"/>
<path d="M296.523 137.502C296.484 138.249 296.245 139.048 295.762 139.71C295.606 139.951 295.45 140.193 295.213 140.388C294.715 140.987 294.225 141.315 293.439 141.586C292.653 141.858 291.639 141.452 291.211 140.827C290.701 140.155 290.711 139.282 291.165 138.495C291.477 138.012 291.766 137.735 292.256 137.407C291.833 137.718 292.494 137.211 292.546 137.131C293.021 136.739 293.511 136.411 294 136.083C295.099 135.328 296.608 136.342 296.523 137.502Z" fill="#1B6578"/>
<path d="M289.197 145.329L289.211 145.392C289.086 145.156 288.96 144.921 288.849 144.748C289.109 144.949 289.264 145.311 289.337 145.628C289.197 145.329 289.071 145.093 288.864 144.812C289.153 145.139 289.36 145.421 289.448 145.8C289.521 146.116 289.513 146.387 289.453 146.738C289.303 147.313 289.087 147.906 288.611 148.299C287.845 148.967 286.694 149.2 285.797 148.695C284.968 148.173 284.532 147.213 284.861 146.188C285.011 145.613 285.457 145.094 285.948 144.765C286.186 144.569 286.505 144.419 286.839 144.332C287.24 144.228 287.671 144.25 288.049 144.353C287.7 144.377 287.418 144.383 287.054 144.343C287.389 144.256 287.804 144.215 288.116 144.336C287.834 144.342 287.552 144.348 287.336 144.337L287.403 144.32C288.287 144.157 289.102 144.616 289.197 145.329Z" fill="#1B6578"/>
<path d="M216.929 119.707C216.863 119.724 216.877 119.787 216.929 119.707C216.773 119.948 216.602 120.127 216.431 120.306C216.245 120.421 216.074 120.6 215.888 120.715C215.687 120.768 215.435 120.9 215.234 120.953C214.9 121.04 214.551 121.063 214.188 121.024C213.972 121.012 213.742 120.938 213.579 120.846C213.35 120.772 213.186 120.68 213.009 120.525C212.846 120.433 212.668 120.278 212.557 120.106C212.35 119.824 212.224 119.589 212.136 119.209L212.121 119.146C212.019 118.703 212.049 118.225 212.162 117.793C212.274 117.362 212.549 117.022 212.892 116.664C213.234 116.307 213.687 116.122 214.155 116C214.489 115.913 214.838 115.89 215.202 115.929C215.565 115.969 215.862 116.026 216.121 116.227C216.529 116.456 216.818 116.784 217.039 117.128C217.276 117.537 217.379 117.979 217.348 118.457C217.317 118.935 217.123 119.321 216.929 119.707Z" fill="#3EB595"/>
<path d="M208.384 129.213C208.117 129.283 207.835 129.289 207.538 129.232C207.256 129.239 207.026 129.164 206.767 128.963C206.522 128.826 206.345 128.671 206.152 128.452C205.96 128.234 205.834 127.999 205.775 127.745C205.731 127.556 205.754 127.349 205.725 127.222C205.718 126.888 205.845 126.52 206.054 126.197C206.158 126.036 206.277 125.938 206.381 125.777C206.671 125.5 206.991 125.35 207.392 125.246C207.659 125.176 207.941 125.17 208.238 125.227C208.52 125.22 208.75 125.295 209.009 125.496C209.253 125.633 209.431 125.788 209.624 126.007C209.816 126.225 209.942 126.46 210 126.714C210.044 126.903 210.022 127.11 210.051 127.237C210.058 127.571 209.931 127.939 209.722 128.262C209.618 128.423 209.499 128.521 209.395 128.682C209.104 128.959 208.785 129.109 208.384 129.213Z" fill="#3EB595"/>
<path d="M203.026 134.014C202.893 134.048 202.692 134.101 202.529 134.009C202.381 133.98 202.233 133.952 202.07 133.86C201.907 133.769 201.825 133.723 201.714 133.55C201.618 133.441 201.522 133.332 201.478 133.142C201.449 133.016 201.434 132.953 201.471 132.809C201.494 132.602 201.517 132.395 201.688 132.216C201.74 132.136 201.792 132.055 201.911 131.957C202.082 131.778 202.282 131.726 202.483 131.674C202.616 131.639 202.817 131.587 202.98 131.679C203.128 131.707 203.276 131.736 203.439 131.828C203.602 131.919 203.684 131.965 203.795 132.138C203.891 132.247 203.987 132.356 204.031 132.545C204.06 132.672 204.075 132.735 204.038 132.879C204.015 133.086 203.992 133.293 203.821 133.472C203.769 133.552 203.717 133.633 203.598 133.731C203.412 133.846 203.227 133.962 203.026 134.014Z" fill="#3EB595"/>
<path d="M279.938 213.088C279.982 213.276 280.01 214 279.974 213.544C279.924 213.026 279.996 213.937 280.025 214.063C279.937 213.687 279.835 213.248 279.747 212.872C280.165 213.76 280.141 215.162 279.183 215.876C277.753 216.978 276.148 217.925 274.557 218.936C272.782 220.061 269.937 222.327 268.227 220.112C267.625 219.338 267.656 218.266 268.239 217.451C268.719 216.795 269.19 216.407 269.861 215.967C270.531 215.527 271.201 215.088 271.872 214.648C273.278 213.752 274.671 212.793 276.173 212.004C277.175 211.479 278.587 211.511 279.285 212.394C279.094 212.177 278.851 212.041 278.623 211.967C278.851 212.041 279.079 212.115 279.256 212.268C279.579 212.45 279.784 212.729 279.938 213.088Z" fill="#3EB595"/>
<path d="M292.295 202.276C292.553 202.477 292.693 202.775 292.752 203.027C292.626 202.792 292.516 202.62 292.391 202.385C292.937 202.912 292.883 203.594 292.763 204.294C292.637 204.661 292.362 205 292.154 205.322C291.865 205.598 291.932 205.58 291.51 205.891C291.443 205.908 291.458 205.971 291.391 205.988C291.272 206.086 291.073 206.138 290.954 206.236C290.436 206.437 289.822 206.53 289.297 206.399C288.69 206.223 288.226 205.742 288.094 205.174C288.02 204.859 288.028 204.589 288.155 204.222C288.23 203.935 288.452 203.677 288.675 203.418C288.831 203.177 289.164 203.09 289.401 202.895C289.282 202.993 289.097 203.108 288.979 203.205C289.282 202.993 289.586 202.78 289.905 202.63C289.971 202.613 290.09 202.515 290.156 202.498C290.408 202.366 290.608 202.314 290.86 202.181C290.727 202.216 290.541 202.331 290.408 202.366C290.475 202.348 290.475 202.348 290.541 202.331C290.608 202.314 290.675 202.296 290.741 202.279C290.86 202.181 290.993 202.147 291.141 202.175C291.274 202.14 291.422 202.169 291.57 202.197C291.637 202.18 291.718 202.226 291.866 202.254C291.518 202.278 291.118 202.382 290.771 202.405C290.837 202.388 290.904 202.371 290.97 202.353C291.222 202.221 291.489 202.152 291.703 202.163C291.784 202.208 291.851 202.191 291.999 202.219C292.036 202.076 292.199 202.168 292.295 202.276Z" fill="#3EB595"/>
<path d="M307.212 190.788C307.16 190.868 307.041 190.966 306.989 191.047C306.937 191.128 306.937 191.127 306.885 191.208L306.833 191.289C306.781 191.369 306.714 191.387 306.662 191.467C306.61 191.548 306.543 191.565 306.491 191.646C306.439 191.727 306.32 191.825 306.253 191.842C306.186 191.859 306.134 191.94 306.134 191.94C305.896 192.136 305.644 192.269 305.376 192.338C305.243 192.373 305.095 192.344 304.961 192.379C304.813 192.351 304.664 192.322 304.516 192.294C304.865 192.27 305.199 192.183 305.547 192.16C305.481 192.177 305.481 192.177 305.414 192.194C305.347 192.212 305.28 192.229 305.213 192.246C305.013 192.299 305.08 192.281 304.879 192.333C304.746 192.368 304.531 192.357 304.382 192.329C304.301 192.283 304.219 192.237 304.071 192.208C303.99 192.163 303.99 192.162 303.975 192.099C303.893 192.053 303.893 192.053 303.879 191.99C303.797 191.944 303.768 191.818 303.686 191.772C303.657 191.645 303.642 191.582 303.546 191.473C303.517 191.347 303.502 191.283 303.54 191.14C303.51 191.013 303.562 190.933 303.6 190.789C303.585 190.725 303.652 190.708 303.637 190.645C303.644 190.978 303.717 191.295 303.724 191.628C303.642 191.582 303.613 191.456 303.598 191.393C303.487 191.22 303.443 191.031 303.466 190.823C303.451 190.76 303.504 190.68 303.489 190.616C303.512 190.409 303.549 190.265 303.72 190.087C303.772 190.006 303.772 190.006 303.824 189.926C303.877 189.845 303.914 189.701 303.966 189.62C304.07 189.459 304.308 189.263 304.412 189.102C304.465 189.021 304.583 188.923 304.636 188.843C304.807 188.664 304.992 188.549 305.193 188.497C305.378 188.381 305.579 188.329 305.794 188.34C305.942 188.369 306.091 188.397 306.224 188.362C306.439 188.374 306.617 188.528 306.78 188.62C306.861 188.666 306.958 188.775 307.054 188.884C307.165 189.057 307.276 189.229 307.32 189.419C307.349 189.545 307.311 189.689 307.341 189.815C307.444 190.258 307.369 190.546 307.212 190.788Z" fill="#3EB595"/>
<path d="M147.577 411.011L147.574 411.012C143.988 413.472 141.43 417.196 139.346 421.065L139.346 421.066C137.12 425.172 135.419 429.606 135.13 434.219C134.841 438.837 136.048 443.663 139.095 447.046L139.095 447.046C142.785 451.146 148.487 452.475 153.702 451.392C157.382 450.623 161.145 449.334 163.536 446.396C165.623 443.791 166.413 440.406 166.886 437C166.913 436.799 166.94 436.599 166.968 436.397C167.586 431.831 168.25 426.937 168.112 422.376C167.707 416.88 164.931 411.002 159.738 409.003C155.789 407.499 151.099 408.567 147.577 411.011Z" stroke="#F4D45D"/>
<path d="M333.006 54.2156C331.251 56.725 332.926 60.6775 335.828 61.6786C338.73 62.6796 341.971 61.0918 343.71 58.5149C345.383 55.9543 345.686 52.6583 345.348 49.5924C345.112 47.5035 344.43 45.3098 342.796 44.0672C340.056 42.0241 335.959 43.8233 334.32 46.805C332.681 49.7866 332.806 53.4061 332.948 56.8069" fill="#3EB595"/>
<path d="M60.1673 234.301C60.6157 231.297 60.0799 227.711 57.3714 226.383C53.3167 224.423 48.9071 228.68 46.7468 231.555C44.5864 234.43 41.7322 237.615 40.6221 241.057C39.5958 244.272 41.2997 248.052 43.9385 249.948C47.2495 252.298 51.5677 249.372 53.9063 246.935C57.2723 243.556 59.5098 239.009 60.1673 234.301Z" fill="#3EB595"/>
<path d="M157.539 215.396C155.755 216.563 153.965 218.823 155.106 220.648C155.801 221.785 157.239 222.011 158.512 222.133C164.207 222.543 169.992 221.914 175.457 220.273C178.157 219.461 180.806 218.443 183.323 217.167C185.531 216.04 188.39 214.753 189.691 212.469C191.456 209.271 189.626 205.217 186.055 205.3C182.354 205.415 178.668 207.27 175.071 208.086C168.788 209.492 162.921 211.741 157.539 215.396Z" fill="#3EB595"/>
<path d="M2.30252 335.206C4.11779 340.578 1.72516 346.775 -1.2588 351.649C-4.63099 357.295 -9.51666 361.924 -13.8162 366.938C-14.8817 368.156 -15.8803 369.356 -16.8495 370.683C-17.6098 371.687 -18.3783 372.961 -18.5069 373.935C-18.4922 373.998 -18.5833 374.828 -18.5753 374.557C-18.5458 374.684 -18.5017 374.874 -18.4723 375.001C-18.5458 374.684 -18.4723 375.001 -18.4429 375.127C-18.1391 375.519 -18.3318 375.3 -18.3465 375.237C-18.1391 375.519 -18.1538 375.455 -18.2502 375.346C-18.0722 375.501 -18.0053 375.484 -18.1538 375.455C-17.9237 375.53 -17.6935 375.604 -17.478 375.615C-17.6935 375.604 -17.0471 375.638 -16.9132 375.603C-16.497 375.562 -16.6308 375.596 -16.2962 375.509C-15.6793 375.416 -14.824 375.126 -14.3703 374.941C-8.8586 372.702 -5.28565 367.003 -2.22007 362.176C0.830801 357.285 3.56321 351.94 4.62406 346.424C5.09825 343.883 5.41727 340.979 4.79131 338.589C4.76189 338.463 4.73247 338.336 4.70305 338.209C4.7766 338.526 4.70304 338.209 4.68833 338.146C4.56257 337.91 4.43677 337.674 4.311 337.438C4.5184 337.72 4.11832 337.219 4.03669 337.174C4.37793 337.421 4.03669 337.174 4.03669 337.174C4.19995 337.265 4.2669 337.248 4.11835 337.219C3.9698 337.191 3.96978 337.191 4.18525 337.202C4.18525 337.202 3.98448 337.254 4.03669 337.174C4.03669 337.174 4.28966 337.041 4.0514 337.237C3.93227 337.335 3.81316 337.433 3.70874 337.595C3.32857 338.097 3.26021 338.719 3.25877 339.324C3.18091 340.822 3.31851 342.331 3.1068 343.864C2.8951 345.396 2.54955 346.964 2.04075 348.44C1.09005 351.374 -0.44015 354.257 -2.17774 356.858C-4.12416 359.783 -6.34486 362.443 -8.55089 365.166C-9.6017 366.447 -10.6672 367.664 -11.6511 368.928C-12.0835 369.51 -12.5159 370.093 -12.8666 370.722C-12.8666 370.722 -13.0982 371.252 -13.1357 371.396C-13.1585 371.604 -13.1813 371.811 -13.2188 371.955C-13.2777 371.702 -13.0114 372.237 -13.2041 372.018C-13.3299 371.782 -12.9967 372.3 -13.1225 372.064C-13.3298 371.782 -13.1225 372.064 -12.8923 372.139C-13.2857 371.972 -12.8923 372.139 -12.8254 372.121C-13.0931 372.191 -12.8923 372.139 -12.7584 372.104C-12.6246 372.069 -12.4761 372.098 -12.3275 372.126C-12.8107 372.185 -12.1267 372.074 -12.0598 372.057C-11.926 372.022 -11.673 371.889 -11.9929 372.039C-11.8738 371.941 -11.673 371.889 -11.5539 371.791C-11.6208 371.808 -11.8444 372.068 -11.3678 371.675C-11.2487 371.577 -11.0774 371.398 -10.9582 371.3C-10.4964 370.844 -10.1832 370.359 -9.81774 369.794C-8.02794 367.112 -6.46833 364.355 -4.99035 361.553C-2.15351 356.046 -0.0513553 350.126 1.7684 344.212C2.21029 342.753 2.88235 341.37 3.47279 339.94C4.06323 338.51 6.09883 338.719 6.18423 340.309C6.24684 342.107 6.13149 343.749 5.76316 345.524C5.38012 347.235 4.99707 348.947 4.46548 350.63C3.46922 353.979 2.16113 357.208 0.704502 360.408C-0.819051 363.625 -2.49117 366.814 -4.34125 369.847C-6.25824 372.898 -8.42158 376.417 -12.4648 376.729C-14.3452 376.883 -16.1638 376.08 -17.1633 374.526C-18.1922 372.846 -17.8827 370.817 -17.0165 369.047C-16.2548 367.438 -15.0179 366.042 -13.848 364.663C-12.5737 363.122 -11.2324 361.564 -9.89109 360.007C-5.59152 354.992 -1.1861 349.212 -0.657731 342.626C-0.49016 340.903 -0.75355 339.158 -0.370508 337.447C0.0647419 335.654 1.42878 333.889 3.36946 333.384C7.05006 332.427 9.17482 335.77 9.51696 338.771C10.2667 345.36 8.25947 351.994 5.27265 358.077C3.77188 361.087 2.0262 363.96 0.131982 366.803C-1.81444 369.728 -3.92412 372.56 -6.4861 374.973C-8.99587 377.305 -12.2109 379.35 -15.6452 379.84C-17.5631 380.138 -19.5317 379.911 -21.0224 378.687C-22.4168 377.572 -22.9773 375.769 -22.7428 374.029C-22.2363 370.405 -19.4868 367.271 -17.0131 364.479C-14.5247 361.749 -11.94 359.129 -9.36993 356.445C-4.91517 351.794 -0.57002 346.365 0.596688 340.083C0.890025 338.596 1.03482 337.081 1.09797 335.52C0.877296 334.57 2.07377 334.527 2.30252 335.206Z" fill="#F4D45D"/>
<path d="M5.46474 341.13C5.10976 343.573 4.90331 346.044 4.26601 348.493C3.614 350.879 2.78407 353.109 1.75342 355.392C-0.42698 360.055 -3.44628 364.467 -7.11039 368.24C-8.19036 369.394 -9.29976 370.421 -10.5724 371.357C-11.1157 371.767 -11.7258 372.194 -12.3802 372.431C-12.7669 372.599 -13.0867 372.75 -13.4881 372.854C-13.6219 372.889 -13.8226 372.941 -13.9712 372.912C-14.1197 372.884 -14.2535 372.919 -14.4167 372.827C-14.4983 372.781 -14.4983 372.781 -14.3498 372.81C-15.1526 373.018 -15.6114 372.265 -15.2755 371.573C-15.3277 371.654 -15.2916 372.114 -15.3277 371.654C-15.3196 371.383 -15.2968 371.176 -15.2071 370.951C-15.1175 370.726 -14.9609 370.484 -14.8043 370.242C-14.5058 369.694 -14.0441 369.238 -13.6641 368.736C-12.8223 367.779 -11.9805 366.821 -11.0571 365.909C-9.34418 364.121 -7.95102 362.482 -6.4829 360.556C-3.66576 356.801 -1.3008 352.627 0.470105 348.339C1.52354 345.849 2.64386 343.341 3.17014 340.72C3.48475 339.63 5.68304 339.932 5.46474 341.13Z" fill="#F4D45D"/>
<path d="M3.09123 336.978C3.25656 337.683 3.48978 338.37 3.65511 339.075C3.73026 339.396 3.80543 339.716 3.82769 340.118C3.88781 340.375 3.88 340.649 3.8722 340.922C3.86441 341.196 3.8566 341.47 3.78088 341.761C3.66731 342.199 3.18411 342.595 2.69367 342.653C2.20323 342.712 1.72059 342.496 1.47955 342.082C1.0125 341.319 1.07376 340.352 1.0142 339.484C0.984705 338.744 1.03816 338.05 1.00867 337.31C1.02426 336.763 1.50743 336.366 1.99787 336.308C2.47328 336.186 2.97099 336.465 3.09123 336.978Z" fill="#F4D45D"/>
<path d="M3.49877 337.02C3.6407 337.322 3.78263 337.623 3.92457 337.925C3.82728 337.815 3.81239 337.751 3.71511 337.641C3.82727 337.815 3.9246 337.925 4.03676 338.099C4.05165 338.163 4.14891 338.273 4.1638 338.337C4.27597 338.511 4.30574 338.638 4.41791 338.812C4.73155 339.543 5.02231 340.483 4.48109 341.232C4.27056 341.557 3.84258 341.871 3.43748 341.976C3.03238 342.081 2.58261 341.995 2.18549 341.827C1.37637 341.427 1.20578 340.389 1.17709 339.652C1.19996 339.443 1.17016 339.315 1.19303 339.106C1.17814 339.042 1.21592 338.897 1.20104 338.833C1.2239 338.624 1.26164 338.479 1.28451 338.27C1.24676 338.416 1.26163 338.479 1.22388 338.624C1.21698 338.288 1.21007 337.951 1.20317 337.615C1.1665 337.15 1.61736 336.628 2.08998 336.505C2.71252 336.412 3.31218 336.527 3.49877 337.02Z" fill="#F4D45D"/>
<path d="M4.91081 324.154C4.97759 324.137 4.9776 324.137 5.05906 324.183C4.85871 324.235 4.64368 324.224 4.37654 324.293C4.44332 324.276 4.44329 324.276 4.51008 324.258C3.86353 324.829 3.2838 325.382 2.63726 325.952C2.63726 325.952 2.63726 325.952 2.62258 325.889C2.7121 325.665 2.8163 325.503 2.90582 325.279C3.11424 324.957 3.35202 324.761 3.58979 324.565C3.76079 324.386 3.94646 324.271 4.2136 324.201C4.53284 324.051 4.86676 323.965 5.23005 324.004C5.23005 324.004 5.29684 323.987 5.36363 323.969C5.16327 324.021 4.88145 324.028 4.6811 324.08C4.6811 324.08 4.68108 324.08 4.74787 324.063C4.94822 324.01 5.23004 324.004 5.4304 323.952C5.86047 323.974 6.30522 324.06 6.71255 324.289C6.13423 324.238 5.48913 324.205 4.91081 324.154C4.82934 324.108 4.82934 324.108 4.91081 324.154C4.71045 324.206 4.44332 324.276 4.24296 324.328C4.24296 324.328 4.24295 324.328 4.30973 324.311C4.12406 324.426 3.93841 324.541 3.76742 324.72C3.76742 324.72 3.83419 324.702 3.8195 324.639C3.7153 324.8 3.5443 324.979 3.44009 325.14C3.49219 325.06 3.54431 324.979 3.6632 324.881C3.76741 324.72 3.93839 324.541 4.12406 324.426C4.29505 324.247 4.49543 324.195 4.69578 324.143C4.81467 324.045 4.94822 324.01 5.08179 323.976C4.53139 324.655 3.96631 325.271 3.41592 325.951C3.40124 325.888 3.45333 325.807 3.45333 325.807C3.49737 325.997 3.45996 326.14 3.504 326.33C3.48932 326.267 3.48933 326.267 3.47464 326.204C3.31315 325.508 3.58173 324.835 4.0947 324.299C4.38458 324.023 4.70383 323.873 5.03775 323.786C5.37167 323.699 5.72027 323.675 6.09824 323.778C6.17971 323.824 6.49087 323.944 6.57234 323.99C6.73527 324.082 6.83141 324.191 7.00903 324.346C7.00903 324.346 7.02373 324.409 7.09052 324.392C7.20135 324.564 7.29749 324.673 7.40831 324.845C6.83805 324.524 6.18632 324.158 5.61606 323.837C5.83109 323.848 6.04612 323.859 6.20905 323.951C6.50555 324.007 6.74995 324.145 7.00903 324.346C7.17196 324.437 7.34957 324.592 7.4604 324.765C7.65269 324.983 7.79292 325.281 7.86632 325.598C7.89568 325.724 7.91034 325.787 7.87292 325.931C7.90228 326.057 7.91698 326.121 7.87956 326.265C7.87956 326.265 7.87956 326.265 7.89424 326.328C7.8715 326.535 7.84874 326.742 7.75921 326.966L7.7739 327.029C7.79664 326.822 7.81939 326.615 7.90892 326.391C7.82083 326.012 7.71806 325.569 7.62998 325.19C8.08797 325.942 8.04105 326.96 7.50533 327.703C7.14061 328.267 6.94024 328.319 6.3979 328.728C6.19755 328.78 5.94509 328.913 5.74474 328.965C5.41082 329.052 5.06221 329.076 4.69892 329.036C4.48389 329.025 4.2542 328.951 4.02448 328.876C3.7133 328.756 3.40212 328.636 3.19514 328.355C3.099 328.245 3.08431 328.182 2.98816 328.073C2.89201 327.964 2.81054 327.918 2.78118 327.792C3.28465 328.13 3.73603 328.549 4.23951 328.887C4.00979 328.813 3.78006 328.739 3.53566 328.601L3.45422 328.555C3.29128 328.464 3.11364 328.309 2.93603 328.154C2.93603 328.154 2.93603 328.154 2.92135 328.091C2.81052 327.918 2.69972 327.746 2.52211 327.591C2.47806 327.401 2.36721 327.229 2.30849 326.976C2.26444 326.787 2.28721 326.58 2.22848 326.327C2.22186 325.993 2.29669 325.706 2.453 325.464C2.54253 325.24 2.64676 325.078 2.76565 324.98C2.86986 324.819 3.04084 324.641 3.22651 324.525C3.3975 324.347 3.59783 324.295 3.79818 324.243C4.21357 324.201 4.5622 324.178 4.91081 324.154Z" fill="#F4D45D"/>
<path d="M7.97651 315.259C7.90968 315.276 7.90967 315.276 7.84284 315.294L7.77599 315.311C7.64233 315.346 7.52338 315.444 7.38972 315.479C7.25605 315.513 7.12238 315.548 6.9072 315.537C6.84037 315.554 6.75886 315.509 6.69203 315.526C6.6252 315.543 6.54365 315.497 6.3953 315.469C6.86311 315.347 7.33095 315.225 7.79876 315.104C7.6798 315.202 7.62766 315.283 7.494 315.317C7.37503 315.415 7.18922 315.531 7.05556 315.566C6.98873 315.583 6.92191 315.6 6.85508 315.618L6.78823 315.635C6.65457 315.67 6.52092 315.705 6.37257 315.676C6.02372 315.7 5.61613 315.47 5.47583 315.171C5.46114 315.108 5.43173 314.982 5.33552 314.872L5.32083 314.809L5.30613 314.746C5.26206 314.556 5.29951 314.412 5.32227 314.205C5.30757 314.142 5.3597 314.061 5.34501 313.998C5.38245 313.854 5.4346 313.773 5.40521 313.647C5.50806 314.09 5.6109 314.532 5.71375 314.975C5.71375 314.975 5.71375 314.975 5.69906 314.912C5.60284 314.803 5.50662 314.694 5.47723 314.567C5.46254 314.504 5.38102 314.458 5.43315 314.377C5.33694 314.268 5.30756 314.142 5.34501 313.998C5.31562 313.871 5.30095 313.808 5.35309 313.727C5.3384 313.664 5.3384 313.664 5.32371 313.601C5.33177 313.33 5.40667 313.043 5.61522 312.72C5.77163 312.478 6.00954 312.282 6.31431 312.068C6.8864 311.785 7.58408 311.738 8.08791 312.077C8.65857 312.398 8.92447 312.933 8.92303 313.537C8.91497 313.807 8.84007 314.095 8.63152 314.418C8.46705 314.93 8.22914 315.126 7.97651 315.259Z" fill="#F4D45D"/>
</g>
</svg>
