<svg width="30" height="30" viewBox="0 0 30 30" fill="none" xmlns="http://www.w3.org/2000/svg">
<g clip-path="url(#clip0_42_6463)">
<path d="M22.8418 0.0462955V22.8188H0.0477812C0.0379447 22.5912 0.0168619 22.3426 0.0168619 22.0955C0.0168619 14.9999 0.0238887 7.91006 0 0.807533C0 0.143207 0.203762 -0.00145544 0.830489 -5.09477e-05C7.92684 0.0210165 15.0232 0.0125861 22.121 0.0139906C22.35 0.0139906 22.5791 0.033655 22.8418 0.0462955ZM3.84047 17.7219C4.09059 17.7457 4.24938 17.7724 4.40255 17.7766C5.3567 17.8005 5.35669 17.7991 5.46911 16.8398C5.86538 13.469 9.54424 10.9887 12.8746 11.844C15.5094 12.5224 17.2167 14.4971 17.5259 17.2513C17.5666 17.6137 17.6594 17.8131 18.0697 17.7837C18.4112 17.7556 18.7569 17.7837 19.1517 17.7837C19.0112 14.2991 17.2758 11.9985 14.27 10.5842C15.8157 8.11511 15.6752 6.31315 13.8569 4.74433C12.5922 3.65444 10.4014 3.6727 9.06647 4.78506C7.31979 6.24011 7.20878 8.01539 8.70815 10.5926C5.69255 11.9943 3.97115 14.278 3.84047 17.7219Z" fill="black"/>
<path d="M8.13477 29.9425V27.9691H27.9385V8.15454H29.962C29.9733 8.36943 29.9943 8.59274 29.9943 8.81746C29.9943 15.6302 29.9971 22.4434 30.0028 29.2571C30.0028 29.7627 29.9297 30.0014 29.3255 30C22.4638 29.9776 15.6035 29.986 8.74182 29.9846C8.55493 29.9846 8.37225 29.9593 8.13477 29.9425Z" fill="black"/>
<path d="M4.71313 24.5463H24.5028V4.75562H26.4856V26.5253H4.71313V24.5463Z" fill="black"/>
<path d="M3.84058 17.7219C3.97126 14.278 5.69265 11.9943 8.71387 10.587C7.21451 8.0126 7.32552 6.23311 9.0722 4.77946C10.4072 3.6671 12.6021 3.64884 13.8626 4.73873C15.6781 6.30755 15.8173 8.10951 14.2757 10.5786C17.2815 11.9929 19.0141 14.2935 19.1575 17.778C18.7626 17.778 18.4169 17.7556 18.0754 17.778C17.6651 17.8117 17.5724 17.6081 17.5316 17.2457C17.2225 14.4915 15.5151 12.5168 12.8804 11.8384C9.55279 10.9831 5.87112 13.4663 5.47485 16.8342C5.36243 17.7935 5.36242 17.7949 4.40828 17.771C4.24949 17.7724 4.09071 17.7457 3.84058 17.7219ZM13.7698 7.79772C13.7698 6.53367 12.7497 5.49294 11.5398 5.49575C11.0837 5.48291 10.6342 5.60622 10.2487 5.84993C9.86308 6.09364 9.55894 6.44668 9.37507 6.86398C9.19119 7.28128 9.13594 7.74389 9.21637 8.19272C9.2968 8.64155 9.50924 9.05623 9.82659 9.38381C10.1439 9.71138 10.5518 9.93698 10.998 10.0318C11.4443 10.1266 11.9086 10.0863 12.3319 9.91608C12.7551 9.74585 13.1179 9.4534 13.3741 9.07608C13.6302 8.69875 13.768 8.25368 13.7698 7.79772Z" fill="white"/>
<path d="M13.7697 7.79777C13.7651 8.24975 13.6262 8.69017 13.3706 9.06307C13.115 9.43596 12.7543 9.72448 12.3342 9.89197C11.9142 10.0595 11.4538 10.0983 11.0116 10.0037C10.5694 9.90904 10.1653 9.68512 9.85071 9.36039C9.53612 9.03567 9.32523 8.62479 9.24483 8.17998C9.16443 7.73517 9.21816 7.27651 9.39918 6.86229C9.58021 6.44808 9.88035 6.097 10.2615 5.85368C10.6426 5.61037 11.0875 5.48579 11.5396 5.4958C12.7495 5.49299 13.7627 6.53934 13.7697 7.79777Z" fill="black"/>
</g>
<defs>
<clipPath id="clip0_42_6463">
<rect width="30" height="30" fill="white"/>
</clipPath>
</defs>
</svg>
