<svg width="498" height="382" viewBox="0 0 498 382" fill="none" xmlns="http://www.w3.org/2000/svg">
<path d="M-44.5648 14.7742C-25.6563 9.89711 -4.93744 12.5027 12.1607 21.9229C29.2588 31.2762 42.5349 47.3774 48.5696 65.8837C50.3129 71.3621 51.0505 78.3771 46.491 81.918C41.4621 85.8598 34.2876 82.5193 28.3871 80.181C20.2068 76.9741 11.2219 75.972 2.50525 77.1745C-3.86463 78.1099 -10.2345 80.2478 -16.6714 79.5797C-26.3268 78.5775 -34.2389 71.4289 -39.67 63.4117C-47.0457 52.4549 -51.0688 38.6921 -47.9174 25.8647C-44.766 13.0372 -33.3002 1.94676 -20.024 1.67952" fill="#F4D45D"/>
<path d="M112.871 337.286C93.5321 342.831 72.7257 345.302 53.3865 339.691C34.114 334.08 16.7087 319.05 12.374 299.41C10.7735 292.062 10.9736 284.447 10.6401 276.965C10.3067 269.417 9.4398 261.735 5.8387 255.122C2.2376 248.508 -4.56449 243.231 -12.1001 243.365C-18.302 243.498 -23.9704 247.239 -28.1717 251.782C-41.9759 266.611 -43.2429 290.459 -34.3736 308.696C-25.5042 326.932 -8.0322 339.825 10.9069 347.106C43.3835 359.531 81.5951 356.525 111.538 338.689L112.871 337.286Z" fill="#F4D45D"/>
<path d="M292.537 347.736C293.879 352.338 295.288 357.076 294.55 361.814C293.812 366.552 290.256 371.223 285.492 371.494C280.259 371.832 276.099 367.026 273.55 362.356C269.323 354.64 266.774 345.976 261.675 338.801C253.087 326.685 238.192 320.391 223.432 318.902C208.739 317.48 193.979 320.323 179.487 323.233C177.139 323.707 173.784 323.437 173.583 321.067C173.449 319.646 174.723 318.495 175.864 317.683C195.589 303.401 221.218 297.716 245.103 302.183C259.997 305.026 274.556 311.998 284.284 323.775C294.013 335.552 298.038 352.541 292.403 366.756" fill="#F4D45D"/>
<path d="M432.387 299.112C427.914 295.601 421.905 292.226 416.898 294.926C413.427 296.749 411.757 301.137 411.891 305.12C412.025 309.103 413.694 312.883 415.229 316.528C420.637 328.882 426.045 341.303 433.188 352.644C440.332 364.052 449.345 374.448 460.695 381.604C464.099 383.764 468.306 385.857 472.445 384.642C475.316 383.764 477.586 381.807 476.985 378.634C476.384 375.326 475.516 372.018 474.848 368.778C474.047 364.998 473.112 361.285 471.977 357.572C469.708 350.281 466.77 343.193 463.165 336.443C459.56 329.692 455.354 323.279 450.547 317.271C445.74 311.33 440.399 305.795 434.524 300.934C433.856 300.259 433.122 299.719 432.387 299.112Z" fill="#1B6578"/>
<path d="M167.663 120.247C163.763 116.503 159.728 111.221 161.745 106.207C163.964 100.657 171.496 100.056 177.414 100.925C203.101 104.803 226.57 121.183 238.943 143.848C240.423 146.59 241.969 149.999 240.288 153.008C239.145 155.014 237.531 155.95 235.245 155.616C229.26 154.68 223.208 152.741 217.492 150.735C211.574 148.662 205.791 146.188 200.21 143.314C194.628 140.439 189.249 137.229 184.071 133.686C178.893 130.075 173.984 126.131 169.344 121.919C168.806 121.317 168.201 120.782 167.663 120.247Z" fill="#1B6578"/>
<path d="M145.978 100.307C143.117 98.1133 142.385 94.2741 144.248 91.6004C146.111 88.9952 149.97 88.5839 152.831 90.7777C155.693 92.9715 156.425 96.8107 154.561 99.4844C152.632 102.09 148.773 102.501 145.978 100.307Z" fill="#1B6578"/>
<path d="M59.34 212.07C46.7506 187.425 42.5988 157.288 21.9736 138.804C5.969 124.473 -16.5312 120.455 -37.759 117.106C-33.2724 101.837 -18.0714 91.1216 -2.26764 89.5813C13.5361 88.041 29.4067 94.6711 41.3934 105.185C53.3131 115.7 61.6838 129.696 67.8445 144.363C74.0053 159.029 78.2241 174.366 83.1795 189.434C88.1349 204.502 93.9608 219.504 103.001 232.563C108.492 240.532 115.189 247.631 122.689 253.658C130.256 259.753 138.693 264.775 147.667 268.526C150.144 269.53 152.689 270.468 155.234 271.338C156.506 271.74 157.778 272.142 159.118 272.477C160.122 272.745 161.528 272.879 162.332 273.549C160.524 273.883 158.314 273.615 156.506 273.549C154.43 273.482 152.354 273.348 150.278 273.147C146.193 272.745 142.109 272.142 138.024 271.272C129.988 269.597 122.153 267.052 114.653 263.704C107.086 260.355 99.9207 256.203 93.2242 251.314C86.5947 246.493 80.4339 241.001 74.9428 234.84C69.4517 228.678 64.6303 221.914 60.6793 214.682C60.2775 213.811 59.8088 212.94 59.34 212.07Z" fill="#F7AE75"/>
<path d="M77.5553 274.314L77.5541 274.313C70.3035 267.665 64.0354 259.482 61.9279 250.033L61.9277 250.032C61.6063 248.601 61.5476 246.915 61.915 245.523C62.2811 244.136 63.0383 243.127 64.2982 242.822L64.3008 242.822C65.0892 242.627 65.9055 242.786 66.7402 243.164C67.5779 243.544 68.3917 244.125 69.1556 244.716L69.1571 244.717C69.4058 244.908 69.6547 245.1 69.9036 245.291C85.4953 257.271 101.538 269.597 120.526 275.227L120.528 275.227C133.504 279.019 147.27 279.481 160.713 279.349C162.62 279.349 164.654 279.366 166.597 279.681C168.537 279.996 170.352 280.602 171.833 281.755C172.167 282.02 172.521 282.316 172.77 282.647C173.016 282.973 173.116 283.276 173.055 283.578C172.992 283.892 172.746 284.194 172.331 284.512C172.059 284.72 171.781 284.89 171.497 285.063C171.332 285.163 171.166 285.265 170.997 285.376L170.997 285.376L170.994 285.379C169.133 286.628 167.21 287.809 165.223 288.857C161.241 290.959 157.061 292.665 152.75 293.912C148.435 295.16 143.919 296.015 139.402 296.475C134.892 296.934 130.315 296.934 125.804 296.475C125.521 296.441 125.24 296.423 124.968 296.407L124.946 296.406C124.676 296.39 124.412 296.374 124.134 296.343C106.802 294.306 90.3873 286.156 77.5553 274.314Z" stroke="#3EB595"/>
<path d="M47.58 228.258C45.7414 227.514 44.8588 225.344 45.8149 223.794C46.771 222.244 49.2715 221.562 51.1101 222.306C52.9488 223.112 53.8313 225.158 52.9488 226.77C52.0662 228.382 49.6392 229.187 47.7271 228.506" fill="#3EB595"/>
<path d="M350.749 340.295C354.405 344.994 357.794 350.229 358.791 356.136C360.254 364.929 355.402 374.393 347.493 378.42C339.584 382.38 329.216 380.568 323.101 374.057C317.651 368.285 315.923 359.962 314.394 352.109C313.53 347.477 312.666 342.913 311.736 338.282C310.673 332.711 309.742 326.468 312.733 321.703C314.461 318.884 317.452 317.273 320.642 316.736C323.035 316.333 325.427 316.132 327.62 317.407C329.947 318.749 331.874 320.897 333.868 322.575C336.792 325.059 339.584 327.744 342.309 330.496C345.299 333.583 348.091 336.872 350.749 340.295Z" fill="#3EB595"/>
<path d="M3.80457 223.605C5.52552 225.19 7.04789 227.12 7.84218 229.394C8.63646 231.668 8.5041 234.356 7.1141 236.285C5.06219 239.111 0.958374 239.386 -2.28496 238.215C-5.5283 237.043 -8.30829 234.838 -11.4192 233.46C-15.1259 231.806 -19.2297 231.255 -22.6716 228.981C-25.1869 227.327 -27.7021 224.363 -25.915 221.194C-22.3407 214.991 -12.3459 215.956 -6.71974 217.679C-2.88069 218.782 0.759808 220.78 3.80457 223.605Z" fill="#F4D45D"/>
<mask id="path-12-inside-1_11_1007" fill="white">
<path d="M403.474 334.215C400.527 309.365 385.322 286.859 364.892 272.458C344.463 258.056 319.277 251.291 294.293 250.621C278.485 250.22 261.941 252.363 248.946 261.406C319.813 272.324 384.987 316.197 421.693 377.754C410.239 343.66 398.45 308.829 376.078 280.629"/>
</mask>
<path d="M294.293 250.621L294.32 249.622L294.318 249.622L294.293 250.621ZM248.946 261.406L248.375 260.585L246.322 262.013L248.794 262.394L248.946 261.406ZM421.693 377.754L420.834 378.266L422.641 377.435L421.693 377.754ZM404.467 334.097C401.481 308.922 386.092 286.178 365.468 271.64L364.316 273.275C384.552 287.539 399.572 309.807 402.481 334.333L404.467 334.097ZM365.468 271.64C344.845 257.102 319.457 250.296 294.32 249.622L294.266 251.621C319.098 252.287 344.08 259.01 364.316 273.275L365.468 271.64ZM294.318 249.622C278.433 249.218 261.63 251.361 248.375 260.585L249.517 262.226C262.252 253.365 278.538 251.221 294.268 251.621L294.318 249.622ZM248.794 262.394C319.367 273.267 384.281 316.966 420.834 378.266L422.552 377.241C385.693 315.428 320.26 271.381 249.098 260.417L248.794 262.394ZM422.641 377.435C411.197 343.371 399.361 308.367 376.862 280.008L375.295 281.251C397.54 309.29 409.281 343.949 420.745 378.072L422.641 377.435Z" fill="#F7AE75" mask="url(#path-12-inside-1_11_1007)"/>
<path d="M353.304 291.212C350.692 290.141 347.946 289.002 346.137 286.792C344.329 284.581 343.927 281.031 346.003 279.089C347.678 277.548 350.29 277.615 352.5 278.151C355.515 278.888 358.328 280.361 360.672 282.438C363.084 284.581 365.093 288.131 363.486 290.944C362.347 293.088 359.534 293.892 357.122 293.423C354.711 293.021 352.634 291.614 350.625 290.208" fill="#F4D45D"/>
<path d="M243.268 364.864C231.638 347.403 207.773 339.142 187.807 345.589C180.48 347.94 173.018 353.245 172.48 360.901C171.942 368.423 178.53 374.736 185.521 377.758C199.908 384.071 216.512 381.385 231.974 378.631" fill="#3EB595"/>
<path d="M487.199 246.735C487.199 244.269 489.447 242.238 492.257 242.238C495.068 242.238 497.316 244.269 497.316 246.735C497.316 249.2 495.068 251.231 492.257 251.231C489.447 251.231 487.199 249.2 487.199 246.735Z" fill="#1B6578"/>
<path d="M487.199 233.509C487.199 231.188 489.447 220.88 492.257 220.88C495.068 220.88 497.316 231.188 497.316 233.509C497.316 235.83 495.068 237.742 492.257 237.742C489.447 237.742 487.199 235.83 487.199 233.509Z" fill="#1B6578"/>
<path d="M108.284 151.756C106.475 149.077 104.934 146.129 103.327 143.316C101.652 140.436 99.9778 137.556 98.2362 134.742C96.5617 131.929 94.8872 129.116 93.2796 126.236C92.4758 124.829 91.672 123.355 90.8682 121.949C90.1314 120.609 89.2606 119.135 87.988 118.198C87.7201 117.997 87.2512 118.265 87.3182 118.6C87.3851 120.14 88.1889 121.748 88.9258 123.087C89.6626 124.494 90.4663 125.901 91.2701 127.24C92.9447 130.121 94.6192 133.001 96.3607 135.814C98.1023 138.627 99.9108 141.374 101.853 143.986C102.791 145.259 103.729 146.531 104.734 147.804C105.805 149.211 107.011 150.483 108.016 151.957C108.083 152.158 108.418 151.957 108.284 151.756Z" fill="#F7AE75"/>
<path d="M84.9069 114.782C84.9738 114.648 84.9738 114.447 84.9738 114.313C84.9738 114.112 85.0408 113.978 84.9738 113.777C84.9068 113.375 84.8399 113.04 84.7059 112.638C84.438 111.902 84.1701 111.165 83.7682 110.495C83.4333 109.825 83.0983 109.222 82.6295 108.619C82.3615 108.284 82.0936 107.95 81.7587 107.682C81.4908 107.481 81.1559 107.146 80.754 107.213C80.553 107.213 80.419 107.347 80.3521 107.548C80.2851 107.883 80.419 108.217 80.486 108.552C80.62 108.887 80.7539 109.289 81.0219 109.624C81.4238 110.227 81.8257 110.83 82.1606 111.5C82.4955 112.103 82.8304 112.705 83.2323 113.375C83.4333 113.71 83.5672 114.045 83.8351 114.313C83.9691 114.447 84.0361 114.581 84.17 114.715C84.237 114.715 84.237 114.782 84.304 114.782L84.304 114.849C84.371 114.916 84.438 114.983 84.572 115.05C84.7729 114.916 84.9069 114.849 84.9069 114.782Z" fill="#F7AE75"/>
<path d="M77.8069 102.524C77.8739 101.854 77.7399 101.184 77.472 100.582C77.338 100.314 77.0701 100.046 76.8692 99.7777C76.7352 99.6437 76.6012 99.5767 76.4673 99.5097C76.4673 99.5097 76.5343 99.5097 76.5343 99.5767C76.5343 99.5767 76.4673 99.5767 76.4673 99.5097C76.4673 99.5097 76.4003 99.5097 76.4003 99.4427C76.1324 99.3088 75.8644 99.3088 75.6635 99.4427C75.5295 99.5097 75.4625 99.6437 75.4625 99.7777C75.4625 99.9786 75.5295 100.18 75.6635 100.314L75.7305 100.381C75.7975 100.448 75.7305 100.381 75.7305 100.314C75.7305 100.381 75.8644 100.515 75.9314 100.582C75.9984 100.648 76.1324 100.782 76.1994 100.849C76.2663 100.916 76.1994 100.916 76.1994 100.849C76.1324 100.782 76.1324 100.782 76.2663 100.916L76.3333 100.983C76.4003 101.117 76.2663 100.849 76.3333 100.983L76.4003 101.05C76.5343 101.251 76.6682 101.519 76.8022 101.72C76.8022 101.72 76.8692 101.854 76.8022 101.72C76.8022 101.72 76.8022 101.787 76.8692 101.787C76.8692 101.854 76.9361 101.921 76.9361 101.988C76.9361 102.055 76.9361 102.122 77.0031 102.189C77.0031 102.256 77.0031 102.256 77.0031 102.189C77.0031 102.256 77.0031 102.256 77.0031 102.323C77.0031 102.591 77.2041 102.792 77.472 102.792C77.606 102.926 77.8069 102.792 77.8069 102.524Z" fill="#F7AE75"/>
<path d="M181.495 179.42C174.931 176.07 169.639 170.109 163.946 165.554C161.199 163.277 158.52 160.665 155.573 158.655C154.099 157.651 151.219 156.579 149.812 158.454C146.396 163.009 157.247 169.506 160.128 171.449C166.558 175.869 173.926 177.41 180.825 180.558C181.629 180.893 182.299 179.754 181.495 179.42Z" fill="#F4D45D"/>
<path d="M147.267 152.627C147.066 151.689 146.396 150.684 145.526 150.282C143.851 149.345 141.44 150.483 141.507 152.56C141.574 153.498 141.976 154.636 142.779 155.239C143.248 155.641 143.717 155.909 144.32 155.976C144.923 156.043 145.526 155.976 145.995 155.641C147.066 154.971 147.535 153.833 147.267 152.627Z" fill="#F4D45D"/>
<path d="M141.708 147.871C141.641 147.335 141.373 146.799 140.904 146.464C140.368 145.996 139.765 145.795 139.028 145.996C138.693 146.063 138.426 146.196 138.158 146.464C137.488 147.134 137.421 148.139 137.89 148.943C138.091 149.277 138.359 149.612 138.693 149.813C138.894 149.947 139.162 150.014 139.43 150.081C140.033 150.282 140.77 150.014 141.172 149.612C141.708 149.144 141.775 148.541 141.708 147.871Z" fill="#F4D45D"/>
<path d="M137.689 145.326C137.756 145.259 137.756 145.259 137.689 145.326C138.292 144.924 138.56 144.321 138.426 143.651C138.359 143.45 138.292 143.316 138.225 143.115C137.957 142.579 137.22 142.245 136.617 142.445C136.014 142.646 135.612 143.182 135.545 143.785C135.545 143.986 135.545 144.187 135.612 144.321C135.679 144.656 135.88 144.857 136.148 145.058C136.416 145.259 136.684 145.326 137.019 145.393C137.22 145.46 137.555 145.393 137.689 145.326Z" fill="#F4D45D"/>
<path d="M111.164 106.811C111.03 106.208 110.896 105.672 110.829 105.069C110.762 104.467 110.829 103.864 110.628 103.328C110.628 103.663 110.628 103.998 110.628 104.333C111.298 102.39 108.819 100.381 107.145 101.72C105.47 102.993 106.81 105.873 108.886 105.672C108.551 105.605 108.283 105.471 107.949 105.404C108.35 105.672 108.819 105.739 109.221 106.007C109.69 106.342 109.958 106.744 110.226 107.213C110.494 107.749 111.298 107.414 111.164 106.811Z" fill="#F4D45D"/>
<path d="M106.341 98.2368C106.341 98.1698 106.341 98.1028 106.274 98.0357C106.207 98.2368 106.207 98.3709 106.14 98.572C106.207 98.505 106.274 98.4379 106.341 98.4379C106.877 97.9687 106.676 97.1643 106.14 96.8291C106.14 96.8291 106.14 96.8291 106.073 96.8291C105.805 96.6951 105.47 96.628 105.202 96.7621C104.934 96.8962 104.734 97.0973 104.667 97.3654L104.667 97.4324C104.399 98.1028 105.068 98.7061 105.671 98.7061C105.738 98.7061 105.805 98.7061 105.872 98.7061C105.738 98.639 105.604 98.505 105.403 98.4379C105.403 98.505 105.47 98.572 105.47 98.639C105.604 98.8401 105.872 98.9072 106.073 98.8401C106.274 98.7061 106.408 98.4379 106.341 98.2368Z" fill="#F4D45D"/>
<path d="M367.504 258.056C361.945 252.296 356.787 247.473 349.486 243.99C342.319 240.574 334.817 238.297 327.047 236.756C318.206 235.015 309.297 234.077 300.321 233.34C291.078 232.603 281.7 230.996 272.457 231.465C271.385 231.532 270.715 233.139 271.854 233.675C279.557 237.225 288.198 237.895 296.503 238.967C305.412 240.105 314.321 240.976 323.162 242.584C330.463 243.923 337.764 245.732 344.797 248.21C352.098 250.755 360.538 254.105 366.567 258.994C367.236 259.53 368.107 258.726 367.504 258.056Z" fill="#1B6578"/>
<path d="M391.484 276.811C391.216 276.41 390.814 276.075 390.613 275.606C390.412 275.204 389.809 275.07 389.408 275.405C389.006 275.673 389.006 276.276 389.341 276.61C389.608 276.878 389.876 277.347 390.077 277.615C390.345 277.95 390.814 278.151 391.149 277.883C391.551 277.682 391.752 277.146 391.484 276.811Z" fill="#1B6578"/>
<path d="M384.786 271.118C384.585 270.381 384.183 269.644 383.58 269.109C383.379 268.908 383.178 268.707 382.91 268.573C382.307 268.104 381.771 267.903 380.968 267.836C380.164 267.769 379.293 268.439 379.025 269.176C378.69 269.979 378.891 270.85 379.494 271.52C379.896 271.922 380.231 272.123 380.767 272.324C380.298 272.123 381.035 272.458 381.102 272.525C381.637 272.793 382.173 272.993 382.709 273.194C383.915 273.663 385.12 272.257 384.786 271.118Z" fill="#1B6578"/>
<path d="M375.81 265.291L375.81 265.224C375.743 265.492 375.676 265.759 375.609 265.96C375.81 265.692 375.877 265.291 375.877 264.956C375.81 265.291 375.743 265.559 375.609 265.893C375.81 265.492 375.944 265.157 375.944 264.755C375.944 264.42 375.877 264.152 375.743 263.817C375.475 263.281 375.14 262.745 374.604 262.477C373.734 262.009 372.595 262.076 371.858 262.812C371.188 263.549 370.987 264.621 371.523 265.559C371.791 266.094 372.327 266.496 372.863 266.697C373.131 266.831 373.466 266.898 373.801 266.898C374.203 266.898 374.604 266.764 374.939 266.563C374.604 266.63 374.336 266.697 374.002 266.831C374.336 266.831 374.738 266.764 375.006 266.563C374.738 266.63 374.47 266.697 374.269 266.764L374.336 266.764C375.207 266.697 375.877 266.027 375.81 265.291Z" fill="#1B6578"/>
<path d="M43.3779 212.174C43.3779 212.107 43.3779 212.04 43.3779 211.973C43.244 212.375 43.177 212.71 43.043 213.111C43.11 212.911 43.177 212.777 43.244 212.576C43.3109 212.308 43.3779 211.973 43.3109 211.705C43.3109 211.504 43.2439 211.303 43.177 211.169C43.11 210.968 43.043 210.834 42.909 210.7C42.7751 210.432 42.5071 210.231 42.3062 210.097C42.1052 210.03 41.9713 209.963 41.7703 209.896C41.5694 209.896 41.3684 209.829 41.1675 209.829C40.8326 209.829 40.5647 209.896 40.2967 210.03C40.0958 210.097 39.9618 210.164 39.8278 210.298C39.6269 210.365 39.493 210.566 39.426 210.7C39.225 210.901 39.0911 211.169 39.0241 211.437C39.0241 211.638 38.9571 211.839 38.9571 212.04C38.9571 212.241 39.0241 212.442 39.0241 212.643C39.0911 212.844 39.158 212.978 39.225 213.178C39.359 213.446 39.5599 213.647 39.8278 213.781C40.0288 213.982 40.2967 214.116 40.5647 214.183C40.0958 213.848 39.6939 213.513 39.225 213.178C39.292 213.245 39.292 213.245 39.359 213.312C39.493 213.446 39.5599 213.58 39.6939 213.714C39.8949 213.915 40.0958 214.049 40.3637 214.183C40.5647 214.25 40.6986 214.317 40.8996 214.317C41.1675 214.384 41.5024 214.384 41.7703 214.25C41.9713 214.183 42.1052 214.116 42.3062 214.049C42.4402 213.915 42.5741 213.848 42.7081 213.714C42.9091 213.513 43.043 213.312 43.177 213.045C43.3109 212.71 43.3779 212.442 43.3779 212.174Z" fill="#3EB595"/>
<path d="M38.6222 205.141C38.6222 205.074 38.6223 205.074 38.5553 205.007C38.4883 204.873 38.4883 204.806 38.4213 204.672C38.2204 204.337 37.9524 204.136 37.6175 204.069C37.4836 204.069 37.4166 204.069 37.2826 204.002C37.0817 204.002 36.9477 204.002 36.8137 204.136C36.6798 204.136 36.6128 204.203 36.5458 204.27C36.4119 204.337 36.2779 204.471 36.2109 204.605C36.1439 204.672 36.0769 204.806 36.0769 204.94C36.01 205.141 36.01 205.409 36.0769 205.61L36.0769 205.677C36.0769 205.744 36.0769 205.744 36.1439 205.811C36.2109 206.012 36.2779 206.146 36.3449 206.279C36.4119 206.413 36.5458 206.547 36.6798 206.614C36.8138 206.681 37.0147 206.748 37.1486 206.748C37.3496 206.815 37.4836 206.748 37.6845 206.748C37.8185 206.681 37.8855 206.681 38.0194 206.614C38.2204 206.48 38.3543 206.346 38.4883 206.146C38.5553 206.012 38.5553 205.945 38.6222 205.811C38.6892 205.61 38.6892 205.342 38.6222 205.141Z" fill="#3EB595"/>
<path d="M34.4692 198.04C34.4022 198.04 34.4022 198.107 34.4692 198.04C34.6702 198.107 34.8711 198.107 35.0721 198.174C35.0721 198.174 35.0051 198.174 35.0051 198.107C34.9381 198.04 34.8711 198.04 34.8041 197.973C34.6702 197.906 34.5362 197.906 34.3353 197.973C34.2683 197.973 34.2683 197.973 34.2013 198.04C34.0673 198.04 34.0003 198.107 33.9334 198.241C33.8664 198.308 33.8664 198.375 33.7994 198.442C33.7324 198.576 33.6655 198.71 33.6655 198.911L33.6655 198.978C33.7324 198.777 33.8664 198.576 33.9334 198.375C33.8664 198.442 33.7994 198.509 33.7324 198.576C33.5985 198.71 33.5315 198.844 33.5315 198.978C33.4645 199.112 33.4645 199.313 33.5315 199.447C33.5315 199.581 33.5985 199.782 33.6655 199.916C33.7324 199.983 33.7994 200.05 33.8664 200.184C34.0004 200.318 34.1343 200.385 34.2683 200.452C34.4022 200.519 34.5362 200.586 34.7372 200.586C34.8711 200.586 35.0721 200.586 35.206 200.452C35.34 200.385 35.474 200.318 35.6079 200.184C35.6749 200.117 35.7419 200.05 35.8089 199.916C35.8758 199.782 35.9428 199.648 35.9428 199.447C36.0098 199.313 35.9428 199.112 35.9428 198.978C35.8758 198.911 35.8758 198.777 35.8089 198.71C35.6749 198.509 35.541 198.375 35.34 198.241C35.273 198.174 35.139 198.174 35.0721 198.107C34.8711 197.973 34.6702 197.973 34.4692 198.04Z" fill="#3EB595"/>
<path d="M31.3881 192.078L31.3212 192.078C31.3212 192.078 31.3211 192.078 31.2542 192.078L31.1872 192.078C31.0532 192.078 31.1202 192.078 31.0532 192.078L30.9863 192.078L30.9192 192.078C30.8523 192.078 30.7853 192.145 30.7183 192.212C30.6513 192.279 30.6513 192.346 30.5843 192.413L30.5843 192.48C30.5843 192.547 30.5843 192.614 30.5843 192.614L30.5843 192.681C30.5843 192.748 30.5843 192.748 30.5843 192.748C30.5843 192.748 30.5843 192.748 30.5843 192.815L30.5843 192.882C30.5843 193.016 30.6513 193.083 30.7853 193.151C30.8523 193.218 30.9862 193.285 31.0532 193.352C31.2542 193.419 31.5221 193.352 31.723 193.151C31.924 192.949 31.991 192.748 31.924 192.48C31.924 192.346 31.857 192.279 31.723 192.212C31.5891 192.145 31.4551 192.078 31.3881 192.078Z" fill="#3EB595"/>
<path d="M28.5079 187.389C27.4361 187.389 27.4361 189.065 28.5079 189.065C29.5796 189.065 29.5796 187.389 28.5079 187.389Z" fill="#3EB595"/>
<path d="M311.842 307.422C311.775 307.422 311.775 307.355 311.842 307.422C311.641 307.221 311.44 307.087 311.239 306.953C311.039 306.886 310.838 306.752 310.637 306.685C310.436 306.685 310.168 306.618 309.967 306.618C309.632 306.618 309.297 306.685 308.962 306.819C308.761 306.886 308.56 307.02 308.426 307.154C308.225 307.288 308.091 307.422 307.957 307.623C307.823 307.757 307.689 307.958 307.622 308.159C307.488 308.494 307.421 308.762 307.421 309.164L307.421 309.231C307.421 309.7 307.555 310.168 307.756 310.57C307.957 310.972 308.292 311.24 308.694 311.508C309.096 311.776 309.565 311.843 310.034 311.843C310.369 311.843 310.704 311.776 311.039 311.642C311.373 311.508 311.641 311.374 311.842 311.106C312.177 310.771 312.378 310.369 312.512 309.968C312.646 309.499 312.646 309.03 312.512 308.561C312.378 308.092 312.11 307.757 311.842 307.422Z" fill="#3EB595"/>
<path d="M301.326 300.255C301.058 300.255 300.79 300.322 300.522 300.456C300.254 300.523 300.053 300.657 299.853 300.925C299.652 301.126 299.518 301.327 299.384 301.595C299.25 301.863 299.183 302.131 299.183 302.398C299.183 302.599 299.25 302.8 299.25 302.934C299.317 303.269 299.518 303.604 299.786 303.872C299.92 304.006 300.053 304.073 300.187 304.207C300.522 304.408 300.857 304.475 301.259 304.475C301.527 304.475 301.795 304.408 302.063 304.274C302.331 304.207 302.532 304.073 302.733 303.805C302.934 303.604 303.068 303.403 303.202 303.135C303.336 302.867 303.403 302.599 303.403 302.331C303.403 302.131 303.336 301.93 303.336 301.796C303.269 301.461 303.068 301.126 302.8 300.858C302.666 300.724 302.532 300.657 302.398 300.523C302.063 300.322 301.728 300.255 301.326 300.255Z" fill="#3EB595"/>
<path d="M294.963 296.906C294.829 296.906 294.628 296.906 294.494 297.04C294.36 297.107 294.226 297.174 294.092 297.308C293.958 297.442 293.891 297.509 293.824 297.71C293.757 297.844 293.69 297.978 293.69 298.179C293.69 298.313 293.69 298.38 293.757 298.514C293.824 298.715 293.891 298.916 294.092 299.05C294.159 299.117 294.226 299.183 294.36 299.25C294.561 299.384 294.762 299.384 294.963 299.384C295.097 299.384 295.298 299.384 295.432 299.25C295.566 299.183 295.699 299.116 295.833 298.983C295.967 298.849 296.034 298.782 296.101 298.581C296.168 298.447 296.235 298.313 296.235 298.112C296.235 297.978 296.235 297.911 296.168 297.777C296.101 297.576 296.034 297.375 295.833 297.241C295.766 297.174 295.699 297.107 295.566 297.04C295.365 296.973 295.164 296.906 294.963 296.906Z" fill="#3EB595"/>
<path d="M350.491 201.724C350.491 201.524 350.357 200.787 350.424 201.256C350.491 201.791 350.357 200.854 350.357 200.72C350.357 201.122 350.357 201.591 350.357 201.992C350.558 200.988 350.223 199.581 349.151 199.112C347.544 198.375 345.802 197.839 344.061 197.237C342.118 196.567 338.903 195.026 337.764 197.705C337.362 198.643 337.63 199.715 338.367 200.385C338.97 200.921 339.506 201.189 340.243 201.457C340.979 201.724 341.716 201.992 342.453 202.26C343.994 202.796 345.534 203.399 347.142 203.801C348.213 204.069 349.553 203.667 350.022 202.595C349.888 202.863 349.687 203.064 349.486 203.198C349.687 203.064 349.888 202.93 350.022 202.729C350.29 202.461 350.424 202.126 350.491 201.724Z" fill="#3EB595"/>
<path d="M365.16 209.294C365.361 209.026 365.428 208.691 365.428 208.423C365.361 208.691 365.294 208.892 365.227 209.16C365.629 208.49 365.428 207.82 365.16 207.15C364.959 206.815 364.624 206.547 364.356 206.279C364.021 206.078 364.088 206.078 363.619 205.877C363.552 205.877 363.552 205.81 363.485 205.81C363.351 205.743 363.151 205.743 363.017 205.676C362.481 205.61 361.878 205.676 361.409 205.944C360.873 206.279 360.538 206.882 360.538 207.485C360.538 207.82 360.605 208.088 360.806 208.423C360.94 208.691 361.208 208.892 361.476 209.093C361.677 209.294 362.012 209.294 362.28 209.427C362.146 209.36 361.945 209.294 361.811 209.227C362.146 209.36 362.481 209.494 362.816 209.561C362.883 209.561 363.017 209.628 363.084 209.628C363.351 209.695 363.552 209.695 363.82 209.762C363.686 209.762 363.485 209.695 363.351 209.695C363.418 209.695 363.418 209.695 363.485 209.695C363.552 209.695 363.619 209.695 363.686 209.695C363.82 209.762 363.954 209.762 364.088 209.695C364.222 209.695 364.356 209.628 364.49 209.561C364.557 209.561 364.624 209.494 364.758 209.427C364.423 209.494 364.021 209.494 363.686 209.561C363.753 209.561 363.82 209.561 363.887 209.561C364.155 209.628 364.423 209.628 364.624 209.561C364.691 209.494 364.758 209.494 364.892 209.427C364.959 209.561 365.093 209.427 365.16 209.294Z" fill="#3EB595"/>
<path d="M382.441 216.796C382.375 216.729 382.241 216.662 382.174 216.595C382.107 216.528 382.107 216.528 382.04 216.461L381.973 216.394C381.906 216.327 381.839 216.327 381.772 216.26C381.705 216.193 381.638 216.193 381.571 216.126C381.504 216.059 381.37 215.992 381.303 215.992C381.236 215.992 381.169 215.925 381.169 215.925C380.901 215.791 380.633 215.724 380.365 215.724C380.231 215.724 380.097 215.791 379.963 215.791C379.829 215.858 379.695 215.925 379.561 215.992C379.896 215.925 380.231 215.925 380.566 215.858C380.499 215.858 380.499 215.858 380.432 215.858C380.365 215.858 380.298 215.858 380.231 215.858C380.03 215.858 380.097 215.858 379.896 215.858C379.762 215.858 379.561 215.925 379.427 215.992C379.36 216.059 379.293 216.126 379.159 216.193C379.092 216.26 379.092 216.26 379.092 216.327C379.025 216.394 379.025 216.394 379.025 216.461C378.958 216.528 378.958 216.662 378.891 216.729C378.891 216.862 378.891 216.929 378.824 217.063C378.824 217.197 378.824 217.264 378.891 217.398C378.891 217.532 378.958 217.599 379.025 217.733C379.025 217.8 379.092 217.8 379.092 217.867C379.025 217.532 379.025 217.197 378.958 216.862C378.891 216.929 378.891 217.063 378.891 217.13C378.824 217.331 378.824 217.532 378.891 217.733C378.891 217.8 378.958 217.867 378.958 217.934C379.025 218.135 379.092 218.269 379.293 218.403C379.36 218.47 379.36 218.47 379.427 218.537C379.494 218.604 379.561 218.738 379.628 218.805C379.762 218.939 380.03 219.073 380.164 219.207C380.231 219.274 380.365 219.341 380.432 219.408C380.633 219.542 380.834 219.609 381.035 219.609C381.236 219.676 381.437 219.676 381.638 219.609C381.772 219.542 381.906 219.475 382.04 219.475C382.241 219.408 382.375 219.207 382.508 219.073C382.575 219.006 382.642 218.872 382.709 218.738C382.776 218.537 382.843 218.336 382.843 218.135C382.843 218.001 382.776 217.867 382.776 217.733C382.776 217.264 382.642 216.996 382.441 216.796Z" fill="#3EB595"/>
<path d="M174.692 41.3256L174.689 41.3247C170.618 39.7967 167.241 36.7954 164.291 33.5388L164.29 33.5378C161.145 30.0853 158.43 26.1886 157.043 21.7789C155.655 17.3651 155.669 12.3912 157.816 8.37606L157.816 8.37591C160.416 3.51052 165.633 0.85314 170.955 0.65349C174.712 0.517767 178.675 0.867425 181.7 3.14583C184.351 5.1744 185.93 8.27113 187.206 11.465C187.28 11.6527 187.355 11.841 187.429 12.03C189.125 16.3152 190.943 20.9074 191.902 25.3684C192.827 30.8005 191.541 37.1732 186.98 40.3585C183.507 42.7656 178.697 42.8536 174.692 41.3256Z" stroke="#F4D45D"/>
<path d="M440.269 343.246C437.963 341.23 438.641 336.992 441.219 335.324C443.796 333.656 447.323 334.421 449.629 336.505C451.867 338.59 452.952 341.717 453.359 344.774C453.631 346.859 453.495 349.152 452.206 350.751C450.036 353.391 445.627 352.627 443.321 350.125C441.015 347.623 440.269 344.08 439.591 340.744" fill="#3EB595"/>
<path d="M132.207 233.84C133.362 236.649 133.702 240.259 131.391 242.198C127.925 245.073 122.623 241.997 119.836 239.724C117.05 237.451 113.515 235.044 111.612 231.968C109.845 229.093 110.592 225.015 112.699 222.541C115.35 219.466 120.244 221.271 123.099 223.076C127.177 225.55 130.44 229.428 132.207 233.84Z" fill="#3EB595"/>
<path d="M231.27 228.844C229.259 228.139 226.979 226.375 227.65 224.328C228.052 223.058 229.393 222.494 230.6 222.071C236.031 220.307 241.797 219.531 247.497 219.813C250.313 219.954 253.129 220.307 255.878 220.942C258.292 221.506 261.376 222.071 263.186 223.976C265.667 226.657 264.863 231.032 261.376 231.808C257.755 232.584 253.732 231.667 250.045 231.737C243.608 231.878 237.372 231.102 231.27 228.844Z" fill="#3EB595"/>
<path d="M51.1478 150.148C51.6837 144.321 48.0666 138.761 44.1817 134.675C39.7608 129.92 34.1344 126.571 28.9768 122.686C27.7041 121.748 26.4984 120.81 25.2927 119.738C24.355 118.935 23.3503 117.863 23.0153 116.925C23.0153 116.858 22.7474 116.054 22.8144 116.322C22.8144 116.188 22.8144 115.987 22.8144 115.853C22.8144 116.188 22.8144 115.853 22.8144 115.719C23.0154 115.25 22.8814 115.518 22.8814 115.585C23.0153 115.251 23.0154 115.317 22.9484 115.451C23.0823 115.25 23.1493 115.251 23.0153 115.317C23.2163 115.184 23.4173 115.05 23.6182 114.983C23.4173 115.05 24.0201 114.849 24.154 114.849C24.5559 114.782 24.4219 114.782 24.7569 114.782C25.3597 114.715 26.2305 114.782 26.6994 114.849C32.3928 115.652 37.0146 120.408 40.9665 124.427C44.9185 128.513 48.6695 133.135 50.8799 138.359C51.8846 140.771 52.8224 143.584 52.7554 146.129C52.7554 146.263 52.7554 146.397 52.7554 146.531C52.7554 146.196 52.7554 146.531 52.7554 146.598C52.6884 146.866 52.6214 147.134 52.5544 147.402C52.6884 147.067 52.4205 147.67 52.3535 147.737C52.6214 147.402 52.3535 147.737 52.3535 147.737C52.4875 147.603 52.5545 147.603 52.4205 147.67C52.2865 147.737 52.2865 147.737 52.4875 147.67C52.4875 147.67 52.2865 147.67 52.3535 147.737C52.3535 147.737 52.6214 147.804 52.3535 147.67C52.2195 147.603 52.0856 147.536 51.9516 147.402C51.4827 147 51.2818 146.397 51.1478 145.794C50.7459 144.321 50.545 142.78 50.0091 141.307C49.4733 139.833 48.8034 138.359 47.9997 137.02C46.4591 134.34 44.3826 131.862 42.1722 129.719C39.6939 127.307 37.0146 125.231 34.3353 123.087C33.0627 122.083 31.79 121.145 30.5843 120.14C30.0485 119.671 29.5126 119.202 29.0437 118.667C29.0437 118.667 28.7088 118.198 28.6419 118.064C28.5749 117.863 28.5079 117.662 28.4409 117.528C28.4409 117.796 28.5748 117.193 28.4409 117.461C28.3739 117.729 28.5749 117.126 28.5079 117.394C28.3739 117.729 28.5079 117.394 28.7088 117.26C28.3739 117.528 28.7088 117.26 28.7758 117.26C28.5079 117.26 28.7088 117.26 28.8428 117.26C28.9768 117.26 29.1107 117.193 29.2447 117.126C28.7758 117.193 29.4456 117.126 29.5126 117.126C29.6466 117.126 29.9145 117.193 29.5796 117.126C29.7135 117.193 29.9145 117.193 30.0485 117.26C29.9815 117.26 29.7135 117.059 30.2494 117.327C30.3834 117.394 30.5843 117.528 30.7183 117.595C31.2541 117.93 31.656 118.332 32.1249 118.801C34.4023 121.011 36.4787 123.355 38.4882 125.767C42.3731 130.522 45.6553 135.881 48.6695 141.307C49.4063 142.646 50.344 143.852 51.2148 145.125C52.0856 146.397 53.9611 145.66 53.6931 144.053C53.3582 142.244 52.8894 140.637 52.1525 138.962C51.4157 137.355 50.6789 135.747 49.8082 134.206C48.1336 131.125 46.1911 128.245 44.1147 125.432C41.9713 122.619 39.6939 119.872 37.2825 117.327C34.8042 114.782 31.9909 111.834 28.106 112.571C26.2974 112.906 24.7569 114.179 24.154 115.987C23.5512 117.93 24.288 119.872 25.4937 121.413C26.5654 122.819 28.039 123.891 29.4456 124.963C30.9862 126.169 32.5938 127.374 34.2014 128.58C39.359 132.465 44.7845 137.087 46.727 143.517C47.2629 145.192 47.3968 147 48.1336 148.608C48.9374 150.282 50.6119 151.689 52.5544 151.689C56.2384 151.689 57.5111 147.804 57.1762 144.723C56.4394 137.957 53.0903 131.862 48.9374 126.571C46.861 123.958 44.5836 121.547 42.1722 119.202C39.6939 116.791 37.0816 114.514 34.1344 112.772C31.2541 111.098 27.7711 109.892 24.4219 110.294C22.5465 110.495 20.738 111.232 19.5993 112.839C18.5276 114.313 18.3936 116.255 18.9964 117.93C20.2691 121.413 23.5512 123.824 26.4984 125.968C29.4456 128.044 32.4598 129.987 35.474 131.996C40.6986 135.479 45.9902 139.766 48.4685 145.727C49.0714 147.134 49.5403 148.608 49.9421 150.148C49.9421 151.153 51.0808 150.885 51.1478 150.148Z" fill="#F4D45D"/>
<path d="M52.8895 143.45C52.0187 141.106 51.2819 138.694 50.1432 136.417C49.0045 134.207 47.7319 132.197 46.2583 130.188C43.1771 126.102 39.3591 122.485 35.0722 119.672C33.7996 118.801 32.5269 118.064 31.1203 117.461C30.5174 117.193 29.8476 116.925 29.1778 116.858C28.7759 116.791 28.441 116.724 28.0391 116.724C27.9052 116.724 27.7042 116.724 27.5702 116.791C27.4363 116.858 27.3023 116.858 27.1684 116.992C27.1014 117.059 27.1014 117.059 27.2353 116.992C26.4315 116.992 26.1636 117.863 26.6325 118.466C26.5655 118.399 26.4985 117.93 26.5655 118.399C26.6325 118.667 26.6995 118.868 26.8334 119.069C26.9674 119.27 27.1683 119.471 27.3693 119.672C27.7712 120.14 28.307 120.475 28.7759 120.877C29.7806 121.614 30.7854 122.351 31.8571 123.021C33.8666 124.36 35.5411 125.633 37.3496 127.173C40.8327 130.188 43.9809 133.738 46.5932 137.556C48.1338 139.766 49.7413 141.976 50.813 144.455C51.3489 145.459 53.3583 144.589 52.8895 143.45Z" fill="#F4D45D"/>
<path d="M29.9815 119.538C29.6466 118.399 28.9767 117.528 28.039 116.791C27.0342 115.988 25.9625 115.452 24.7568 115.251C25.1587 115.988 25.6276 116.791 26.0295 117.528C26.1635 116.791 26.2305 116.055 26.2975 115.251C25.6276 115.921 24.9578 116.59 24.221 117.327C24.6899 117.327 25.1587 117.327 25.5606 117.327C25.6276 117.327 26.0295 117.394 25.6946 117.327C25.3597 117.26 25.7616 117.327 25.8286 117.327C26.0295 117.394 26.2974 117.394 26.4984 117.461C26.9003 117.595 27.3022 117.729 27.771 117.863C27.905 117.93 27.972 117.93 28.1059 117.997C28.1729 117.997 28.5748 118.198 28.2399 118.064C27.905 117.93 28.3069 118.131 28.3739 118.131C28.5078 118.198 28.5748 118.198 28.7088 118.265C29.1107 118.466 29.4456 118.667 29.8475 118.868C30.0484 119.002 30.2494 119.069 30.4503 119.203C30.5173 119.27 30.6513 119.337 30.7183 119.404C30.9192 119.538 30.3833 119.136 30.7183 119.404C30.9862 119.605 31.2541 119.806 31.589 119.872C31.4551 119.806 31.4551 119.806 31.589 119.872C31.723 119.939 31.79 120.073 31.9239 120.14C32.3258 120.475 32.6607 120.81 33.1296 121.011C33.7994 121.346 34.6032 120.944 34.6032 120.14C34.6032 119.538 34.4023 118.935 34.1343 118.399C34.0673 118.265 34.0004 118.131 33.9334 118.064C33.9334 117.997 33.6655 117.729 33.7994 117.93C33.9334 118.064 33.7325 117.863 33.7325 117.796C33.5315 117.394 33.5315 117.26 33.1966 116.925C32.5268 116.055 31.656 115.318 30.7183 114.715C29.7805 114.112 28.7088 113.71 27.6371 113.442C26.5654 113.174 25.3597 113.04 24.221 113.174C23.6851 113.241 23.1493 113.375 22.7474 113.777C22.4125 114.179 22.0776 114.715 22.1446 115.251C22.2115 115.988 22.2785 116.724 22.4125 117.528C22.5464 118.265 23.4172 118.935 24.221 118.868C24.4219 118.868 24.6899 118.868 24.9578 118.868C25.0248 118.868 25.1587 118.868 25.2257 118.868C25.5606 118.868 25.0248 118.801 25.2927 118.868C25.7616 118.935 26.1635 119.069 26.5654 119.203C26.6323 119.203 26.7663 119.27 26.6324 119.203C26.7663 119.27 26.8333 119.27 26.9673 119.337C27.1682 119.404 27.3022 119.538 27.5031 119.672C27.838 119.873 28.2399 120.14 28.5079 120.408C29.1107 120.944 30.2494 120.408 29.9815 119.538Z" fill="#F4D45D"/>
<path d="M52.0857 147.871C52.0857 147.134 52.1526 146.397 52.1526 145.661C52.1526 145.326 52.1527 144.991 52.0857 144.589C52.0857 144.321 52.0187 144.053 51.9517 143.785C51.8847 143.517 51.8177 143.249 51.6838 142.981C51.4828 142.579 50.947 142.311 50.4781 142.378C50.0092 142.445 49.6073 142.78 49.4734 143.249C49.2054 144.12 49.4734 145.058 49.6073 145.929C49.7413 146.665 49.9423 147.335 50.0762 148.072C50.2102 148.608 50.746 148.876 51.2149 148.809C51.6838 148.809 52.0857 148.407 52.0857 147.871Z" fill="#F4D45D"/>
<path d="M52.4876 147.737C52.5545 147.402 52.6215 147.067 52.6885 146.732C52.6215 146.866 52.6215 146.933 52.5545 147.067C52.6215 146.866 52.6885 146.732 52.7555 146.531C52.7555 146.464 52.8225 146.33 52.8225 146.263C52.8894 146.062 52.8895 145.928 52.9564 145.728C53.0904 144.924 53.1574 143.919 52.4876 143.316C52.2196 143.048 51.7507 142.847 51.3488 142.847C50.947 142.847 50.5451 143.048 50.2101 143.316C49.5403 143.919 49.6073 144.991 49.7413 145.728C49.8083 145.928 49.8082 146.062 49.8752 146.263C49.8752 146.33 49.9422 146.464 49.9422 146.531C50.0092 146.732 50.0762 146.866 50.1432 147.067C50.0762 146.933 50.0762 146.866 50.0092 146.732C50.0762 147.067 50.1432 147.402 50.2101 147.737C50.2771 148.206 50.813 148.608 51.2819 148.608C51.8847 148.541 52.4206 148.273 52.4876 147.737Z" fill="#F4D45D"/>
<path d="M56.9753 159.928C57.0423 159.928 57.0423 159.928 57.1092 159.861C56.9083 159.861 56.7073 159.928 56.4394 159.928C56.5064 159.928 56.5064 159.928 56.5734 159.928C55.8365 159.526 55.1668 159.124 54.43 158.722C54.43 158.722 54.43 158.722 54.43 158.789C54.5639 158.99 54.6979 159.124 54.8318 159.325C55.0998 159.593 55.3677 159.727 55.6356 159.861C55.8366 159.995 56.0375 160.062 56.3054 160.062C56.6404 160.129 56.9753 160.129 57.3102 159.995C57.3102 159.995 57.3772 159.995 57.4442 159.995C57.2432 159.995 56.9753 160.062 56.7743 160.062C56.7743 160.062 56.7743 160.062 56.8413 160.062C57.0422 160.062 57.3102 159.995 57.5111 159.995C57.913 159.861 58.3149 159.66 58.6498 159.325C58.114 159.526 57.5111 159.727 56.9753 159.928C56.9083 159.995 56.9083 159.995 56.9753 159.928C56.7743 159.928 56.5064 159.928 56.3054 159.928C56.3054 159.928 56.3054 159.928 56.3724 159.928C56.1715 159.861 55.9705 159.794 55.7696 159.66C55.7696 159.66 55.8366 159.66 55.8366 159.727C55.7026 159.593 55.5016 159.459 55.3677 159.325C55.4347 159.392 55.5017 159.459 55.6356 159.526C55.7696 159.66 55.9705 159.794 56.1715 159.861C56.3724 159.995 56.5734 159.995 56.7743 159.995C56.9083 160.062 57.0422 160.062 57.1762 160.062C56.5064 159.526 55.8366 159.057 55.1667 158.521C55.1667 158.588 55.2337 158.655 55.2337 158.655C55.2337 158.454 55.1667 158.32 55.1667 158.119C55.1667 158.186 55.1667 158.186 55.1667 158.253C55.1667 158.99 55.5686 159.593 56.1715 159.995C56.5064 160.196 56.8413 160.263 57.1762 160.263C57.5111 160.263 57.846 160.196 58.1809 159.995C58.2479 159.928 58.5158 159.727 58.5828 159.66C58.7168 159.526 58.7838 159.392 58.9177 159.191C58.9177 159.191 58.9177 159.124 58.9847 159.124C59.0517 158.923 59.1187 158.789 59.1857 158.588C58.7168 159.057 58.1809 159.593 57.7121 160.062C57.913 159.995 58.1139 159.928 58.2479 159.794C58.5158 159.66 58.7168 159.459 58.9177 159.191C59.0517 159.057 59.1857 158.856 59.2526 158.655C59.3866 158.387 59.4536 158.052 59.4536 157.717C59.4536 157.584 59.4536 157.517 59.3866 157.383C59.3866 157.249 59.3866 157.182 59.3196 157.048C59.3196 157.048 59.3196 157.048 59.3196 156.981C59.2527 156.78 59.1857 156.579 59.0517 156.378L59.0517 156.311C59.1187 156.512 59.1857 156.713 59.3196 156.914C59.3196 157.316 59.3196 157.784 59.3196 158.186C59.5876 157.316 59.3196 156.311 58.6498 155.708C58.1809 155.239 57.98 155.239 57.3771 154.971C57.1762 154.971 56.9083 154.904 56.7073 154.904C56.3724 154.904 56.0375 154.971 55.7026 155.105C55.5016 155.172 55.3007 155.306 55.0998 155.44C54.8319 155.641 54.5639 155.842 54.43 156.177C54.363 156.311 54.363 156.378 54.296 156.512C54.229 156.646 54.162 156.713 54.162 156.847C54.5639 156.378 54.8988 155.842 55.3007 155.373C55.0998 155.507 54.8988 155.641 54.6979 155.842L54.6309 155.909C54.4969 156.043 54.3629 156.244 54.229 156.445C54.229 156.445 54.229 156.445 54.229 156.512C54.162 156.713 54.095 156.914 53.9611 157.115C53.9611 157.316 53.8941 157.517 53.8941 157.784C53.8941 157.985 53.9611 158.186 53.9611 158.454C54.0281 158.789 54.162 159.057 54.363 159.258C54.4969 159.459 54.6309 159.593 54.7649 159.66C54.8988 159.794 55.0998 159.928 55.3007 159.995C55.5017 160.129 55.7026 160.129 55.9035 160.129C56.3054 160.062 56.6404 159.995 56.9753 159.928Z" fill="#F4D45D"/>
<path d="M62.133 167.698C62.066 167.698 62.066 167.698 61.9991 167.698L61.932 167.698C61.7981 167.698 61.6641 167.631 61.5302 167.631C61.3962 167.631 61.2622 167.631 61.0613 167.698C60.9943 167.698 60.9273 167.765 60.8603 167.765C60.7934 167.765 60.7264 167.832 60.5924 167.899C61.0613 167.899 61.5302 167.899 61.9991 167.899C61.8651 167.832 61.7981 167.765 61.6641 167.765C61.5302 167.698 61.3292 167.631 61.1953 167.631C61.1283 167.631 61.0613 167.631 60.9943 167.631L60.9273 167.631C60.7933 167.631 60.6594 167.631 60.5254 167.698C60.1905 167.765 59.8556 168.099 59.7887 168.434C59.7887 168.501 59.7886 168.635 59.7216 168.769L59.7216 168.836L59.7216 168.903C59.7216 169.104 59.7886 169.238 59.8556 169.439C59.8556 169.506 59.9226 169.573 59.9226 169.64C59.9896 169.774 60.0566 169.841 60.0566 169.975C60.0566 169.506 60.0566 169.037 60.0566 168.568C60.0566 168.568 60.0566 168.568 60.0566 168.635C59.9896 168.769 59.9226 168.903 59.9226 169.037C59.9226 169.104 59.8556 169.171 59.9226 169.238C59.8556 169.372 59.8556 169.506 59.9226 169.64C59.9226 169.774 59.9226 169.841 59.9896 169.908C59.9896 169.975 59.9896 169.975 59.9896 170.042C60.0566 170.31 60.1905 170.578 60.4585 170.846C60.6594 171.047 60.9273 171.181 61.2622 171.315C61.8651 171.449 62.5349 171.315 62.9368 170.846C63.4057 170.377 63.5396 169.774 63.4057 169.171C63.3387 168.903 63.2047 168.635 62.9368 168.367C62.6688 167.899 62.401 167.765 62.133 167.698Z" fill="#F4D45D"/>
</svg>
