<svg width="429" height="570" viewBox="0 0 429 570" fill="none" xmlns="http://www.w3.org/2000/svg">
<mask id="mask0_1_943" style="mask-type:alpha" maskUnits="userSpaceOnUse" x="0" y="0" width="429" height="570">
<rect y="570" width="570" height="429" transform="rotate(-90 0 570)" fill="#C4C4C4"/>
</mask>
<g mask="url(#mask0_1_943)">
<path d="M366.122 146C372.15 124.972 374.838 102.35 368.737 81.3228C362.636 60.3681 346.294 41.4436 324.94 36.7306C316.951 34.9904 308.671 35.2079 300.536 34.8454C292.329 34.4828 283.976 33.5403 276.786 29.6249C269.595 25.7095 263.858 18.3137 264.003 10.1203C264.148 3.37708 268.215 -2.78605 273.154 -7.35403C289.278 -22.3631 315.208 -23.7408 335.036 -14.0973C354.864 -4.45376 368.882 14.5433 376.799 35.1354C390.308 70.4467 387.04 111.994 367.647 144.549L366.122 146Z" fill="#F4D45D"/>
<path d="M324.615 493.404C320.799 488.541 317.129 482.008 320.065 476.563C322.046 472.789 326.817 470.974 331.148 471.119C335.478 471.264 339.589 473.079 343.552 474.749C356.984 480.628 370.489 486.508 382.82 494.275C395.224 502.042 406.528 511.842 414.308 524.182C416.657 527.884 418.932 532.458 417.611 536.958C416.657 540.08 414.528 542.548 411.078 541.894C407.482 541.241 403.885 540.297 400.362 539.571C396.252 538.7 392.215 537.684 388.178 536.45C380.251 533.982 372.544 530.788 365.205 526.868C357.865 522.948 350.892 518.375 344.359 513.149C337.9 507.922 331.882 502.115 326.597 495.727C325.863 495.001 325.276 494.203 324.615 493.404Z" fill="#1B6578"/>
<path d="M33.2288 18.5926L33.2287 18.5926L33.2226 18.5863C31.203 16.4825 28.7942 14.3706 26.2394 13.0547C23.6885 11.7408 21.0478 11.2464 18.504 12.2698L18.5031 12.2702C15.6868 13.3963 14.0901 15.8769 13.3136 18.9387C12.536 22.005 12.6022 25.5886 13.0691 28.7682C17.2624 56.5438 34.9785 81.9249 59.4831 95.3028C60.9681 96.1042 62.5895 96.898 64.2273 97.2748C65.8551 97.6492 67.4631 97.6037 68.9581 96.7691C69.9898 96.1807 70.7088 95.493 71.1341 94.6939C71.5571 93.8993 71.713 92.9509 71.5445 91.7956C70.5341 85.337 68.4394 78.7936 66.2604 72.584L66.2603 72.5837C64.0142 66.1708 61.3335 59.9042 58.2186 53.8568C55.1025 47.8073 51.6242 41.9765 47.7835 36.3643C43.8762 30.7607 39.607 25.4469 35.0478 20.423C34.6015 20.0222 34.1765 19.5774 33.779 19.1613C33.5891 18.9625 33.4055 18.7703 33.2288 18.5926Z" stroke="#1B6578"/>
<path d="M11.9028 -5.33772C9.5175 -8.44861 5.34323 -9.2444 2.43615 -7.2187C-0.396379 -5.19301 -0.84363 -0.996953 1.54166 2.11394C3.92695 5.22482 8.10122 6.02066 11.0083 3.99496C13.8408 1.89692 14.2881 -2.29918 11.9028 -5.33772Z" fill="#1B6578"/>
<path d="M229.976 87.7959C203.18 74.1076 170.413 69.5934 150.316 47.168C134.733 29.7664 130.364 5.30239 126.724 -17.7783C110.122 -12.9001 98.4712 3.62777 96.7965 20.8109C95.1217 37.994 102.33 55.2499 113.763 68.2828C125.195 81.243 140.413 90.3442 156.36 97.0427C172.306 103.741 188.981 108.328 205.365 113.716C221.748 119.104 238.059 125.439 252.258 135.268C260.923 141.238 268.641 148.519 275.195 156.674C281.821 164.901 287.282 174.075 291.36 183.832C292.452 186.526 293.471 189.293 294.418 192.059C294.855 193.443 295.292 194.826 295.656 196.282C295.947 197.375 296.093 198.904 296.821 199.777C297.185 197.811 296.894 195.409 296.821 193.443C296.748 191.186 296.602 188.929 296.384 186.672C295.947 182.23 295.292 177.789 294.345 173.347C292.525 164.61 289.758 156.091 286.117 147.937C282.476 139.709 277.962 131.919 272.646 124.638C267.403 117.429 261.433 110.731 254.734 104.761C248.034 98.7902 240.68 93.5479 232.816 89.2521C231.869 88.8152 230.923 88.3056 229.976 87.7959Z" fill="#EB7A7D"/>
<path d="M297.685 107.571L297.684 107.57C290.453 99.6836 281.549 92.8612 271.262 90.567L271.262 90.5668C269.7 90.2162 267.861 90.1517 266.339 90.5533C264.822 90.9537 263.707 91.7854 263.371 93.1766L263.37 93.1791C263.155 94.0492 263.331 94.9472 263.745 95.8599C264.16 96.7757 264.794 97.6639 265.438 98.4949L265.439 98.4964C265.646 98.7659 265.853 99.0355 266.06 99.3052C279.087 116.26 292.485 133.698 298.604 154.335L298.605 154.336C302.726 168.439 303.228 183.401 303.084 198.017C303.084 200.09 303.103 202.305 303.446 204.421C303.789 206.536 304.45 208.516 305.71 210.134C305.998 210.498 306.322 210.886 306.687 211.161C307.048 211.433 307.389 211.549 307.735 211.479C308.092 211.407 308.428 211.13 308.776 210.675C309.004 210.378 309.19 210.072 309.379 209.763C309.489 209.584 309.599 209.403 309.718 209.223L309.718 209.223L309.72 209.22C311.079 207.195 312.364 205.103 313.505 202.941C315.791 198.609 317.648 194.062 319.004 189.371C320.362 184.677 321.291 179.764 321.792 174.85C322.292 169.943 322.292 164.964 321.792 160.057C321.755 159.75 321.736 159.446 321.718 159.149L321.717 159.125C321.699 158.832 321.682 158.544 321.649 158.24C319.432 139.386 310.566 121.53 297.685 107.571Z" stroke="#3EB595"/>
<path d="M247.577 75.0094C246.768 73.0103 244.409 72.0507 242.724 73.0902C241.039 74.1298 240.297 76.8486 241.106 78.8477C241.982 80.8469 244.207 81.8065 245.959 80.8469C247.712 79.8873 248.588 77.2485 247.847 75.1694" fill="#3EB595"/>
<path d="M369.394 404.641C374.502 408.615 380.195 412.301 386.617 413.385C396.177 414.974 406.468 409.699 410.846 401.1C415.152 392.5 413.182 381.227 406.103 374.579C399.826 368.653 390.777 366.775 382.238 365.113C377.203 364.173 372.24 363.234 367.204 362.222C361.147 361.066 354.36 360.054 349.178 363.306C346.113 365.185 344.362 368.437 343.778 371.905C343.34 374.507 343.121 377.108 344.508 379.493C345.967 382.022 348.303 384.118 350.127 386.286C352.827 389.465 355.747 392.5 358.739 395.463C362.096 398.715 365.672 401.75 369.394 404.641Z" fill="#3EB595"/>
<path d="M242.885 27.0729L242.887 27.0743C244.576 28.9087 246.608 30.5034 248.978 31.331C251.336 32.1549 254.078 31.999 256.012 30.6063C258.82 28.5664 259.173 24.3947 257.933 20.9619C257.313 19.2457 256.416 17.643 255.471 16.0245C255.356 15.8278 255.24 15.6309 255.124 15.4334C254.293 14.0172 253.446 12.5759 252.776 11.0635C252.065 9.4692 251.536 7.80207 251.018 6.16885C250.871 5.70599 250.725 5.24585 250.576 4.79087C249.895 2.71249 249.144 0.714381 247.946 -1.09848L247.945 -1.0994C247.073 -2.42628 245.874 -3.72118 244.512 -4.45079C243.173 -5.16819 241.69 -5.3371 240.144 -4.46613C236.978 -2.64065 235.593 0.848327 235.253 4.74168C234.913 8.62826 235.63 12.8082 236.553 15.8237L236.553 15.8237L236.556 15.8321C237.734 19.9334 239.868 23.8218 242.885 27.0729Z" stroke="#F4D45D"/>
<path d="M362.783 461.967C335.764 458.763 311.293 442.23 295.635 420.018C279.977 397.805 272.621 370.422 271.893 343.256C271.456 326.069 273.786 308.08 283.618 293.952C295.489 371.004 343.192 441.866 410.121 481.776C373.052 469.323 335.181 456.505 304.52 432.18" fill="#EB7A7D"/>
<path d="M316.027 407.418C314.862 404.578 313.624 401.592 311.22 399.626C308.817 397.659 304.957 397.222 302.845 399.48C301.17 401.301 301.243 404.141 301.825 406.544C302.627 409.822 304.229 412.881 306.486 415.43C308.817 418.051 312.677 420.236 315.736 418.488C318.066 417.25 318.94 414.191 318.43 411.57C317.993 408.948 316.464 406.69 314.934 404.505" fill="#F4D45D"/>
<path d="M267.667 553C264.986 553 262.778 555.444 262.778 558.5C262.778 561.555 264.986 564 267.667 564C270.348 564 272.556 561.555 272.556 558.5C272.556 555.444 270.348 553 267.667 553Z" fill="#1B6578"/>
<path d="M253.287 553C250.764 553 239.556 555.444 239.556 558.5C239.556 561.555 250.764 564 253.287 564C255.811 564 257.889 561.555 257.889 558.5C257.889 555.444 255.811 553 253.287 553Z" fill="#1B6578"/>
<path d="M164.398 141.011C161.485 139.045 158.28 137.37 155.222 135.622C152.09 133.801 148.958 131.981 145.899 130.087C142.841 128.266 139.782 126.446 136.65 124.698C135.121 123.824 133.519 122.95 131.989 122.076C130.533 121.275 128.93 120.328 127.911 118.944C127.692 118.653 127.984 118.143 128.348 118.216C130.023 118.289 131.771 119.163 133.227 119.964C134.757 120.765 136.286 121.639 137.743 122.513C140.874 124.334 144.006 126.154 147.065 128.048C150.124 129.941 153.11 131.908 155.95 134.02C157.334 135.039 158.717 136.059 160.101 137.151C161.63 138.317 163.014 139.628 164.616 140.72C164.835 140.793 164.616 141.157 164.398 141.011Z" fill="#EB7A7D"/>
<path d="M124.197 115.594C124.051 115.667 123.832 115.667 123.687 115.667C123.468 115.667 123.323 115.74 123.104 115.667C122.667 115.594 122.303 115.521 121.866 115.376C121.065 115.084 120.264 114.793 119.536 114.356C118.807 113.992 118.152 113.628 117.496 113.118C117.132 112.827 116.768 112.535 116.477 112.171C116.258 111.88 115.894 111.516 115.967 111.079C115.967 110.86 116.113 110.715 116.331 110.642C116.695 110.569 117.059 110.715 117.424 110.788C117.788 110.933 118.225 111.079 118.589 111.37C119.244 111.807 119.9 112.244 120.628 112.608C121.283 112.972 121.939 113.337 122.667 113.774C123.031 113.992 123.395 114.138 123.687 114.429C123.832 114.575 123.978 114.647 124.124 114.793C124.124 114.866 124.197 114.866 124.197 114.939L124.269 114.939C124.342 115.012 124.415 115.084 124.488 115.23C124.342 115.449 124.269 115.594 124.197 115.594Z" fill="#EB7A7D"/>
<path d="M110.869 107.875C110.141 107.948 109.412 107.802 108.757 107.511C108.466 107.365 108.174 107.074 107.883 106.855C107.737 106.709 107.664 106.564 107.592 106.418C107.592 106.418 107.592 106.491 107.664 106.491C107.664 106.491 107.664 106.418 107.592 106.418C107.592 106.418 107.592 106.345 107.519 106.345C107.373 106.054 107.373 105.763 107.519 105.544C107.592 105.399 107.737 105.326 107.883 105.326C108.101 105.326 108.32 105.399 108.466 105.544L108.538 105.617C108.611 105.69 108.538 105.617 108.466 105.617C108.538 105.617 108.684 105.763 108.757 105.836C108.83 105.908 108.975 106.054 109.048 106.127C109.121 106.2 109.121 106.127 109.048 106.127C108.975 106.054 108.975 106.054 109.121 106.2L109.194 106.272C109.339 106.345 109.048 106.2 109.194 106.272L109.267 106.345C109.485 106.491 109.776 106.637 109.995 106.782C109.995 106.782 110.141 106.855 109.995 106.782C109.995 106.782 110.068 106.782 110.068 106.855C110.141 106.855 110.213 106.928 110.286 106.928C110.359 106.928 110.432 106.928 110.505 107.001C110.578 107.001 110.578 107.001 110.505 107.001C110.578 107.001 110.578 107.001 110.65 107.001C110.942 107.001 111.16 107.219 111.16 107.511C111.306 107.656 111.16 107.875 110.869 107.875Z" fill="#EB7A7D"/>
<path d="M194.476 220.613C190.835 213.476 184.353 207.722 179.401 201.532C176.924 198.546 174.084 195.633 171.899 192.428C170.807 190.826 169.642 187.694 171.681 186.165C176.633 182.451 183.697 194.249 185.809 197.381C190.616 204.372 192.291 212.383 195.714 219.885C196.078 220.759 194.84 221.487 194.476 220.613Z" fill="#F4D45D"/>
<path d="M165.345 183.398C164.325 183.179 163.233 182.451 162.796 181.504C161.776 179.683 163.014 177.061 165.272 177.134C166.291 177.207 167.529 177.644 168.185 178.518C168.622 179.028 168.913 179.538 168.986 180.193C169.059 180.849 168.986 181.504 168.622 182.014C167.894 183.179 166.656 183.689 165.345 183.398Z" fill="#F4D45D"/>
<path d="M160.174 177.353C159.591 177.28 159.009 176.989 158.644 176.479C158.135 175.896 157.916 175.241 158.135 174.44C158.207 174.076 158.353 173.784 158.644 173.493C159.373 172.765 160.465 172.692 161.339 173.202C161.703 173.42 162.067 173.712 162.286 174.076C162.431 174.294 162.504 174.585 162.577 174.877C162.796 175.532 162.504 176.333 162.067 176.77C161.558 177.353 160.902 177.426 160.174 177.353Z" fill="#F4D45D"/>
<path d="M157.406 172.983C157.334 173.056 157.334 173.056 157.406 172.983C156.969 173.639 156.314 173.93 155.586 173.785C155.367 173.712 155.222 173.639 155.003 173.566C154.42 173.275 154.056 172.474 154.275 171.818C154.493 171.163 155.076 170.726 155.731 170.653C155.95 170.653 156.168 170.653 156.314 170.726C156.678 170.799 156.897 171.017 157.115 171.308C157.334 171.6 157.406 171.891 157.479 172.255C157.552 172.474 157.479 172.838 157.406 172.983Z" fill="#F4D45D"/>
<path d="M115.53 144.143C114.875 143.997 114.292 143.852 113.636 143.779C112.981 143.706 112.326 143.779 111.743 143.56C112.107 143.56 112.471 143.56 112.835 143.56C110.723 144.289 108.538 141.594 109.995 139.773C111.379 137.952 114.51 139.409 114.292 141.667C114.219 141.303 114.073 141.011 114.001 140.647C114.292 141.084 114.365 141.594 114.656 142.031C115.02 142.541 115.457 142.832 115.967 143.123C116.55 143.415 116.185 144.289 115.53 144.143Z" fill="#F4D45D"/>
<path d="M106.208 138.899C106.135 138.899 106.062 138.899 105.989 138.826C106.208 138.754 106.354 138.754 106.572 138.681C106.499 138.754 106.426 138.827 106.426 138.899C105.917 139.482 105.043 139.263 104.679 138.681C104.679 138.681 104.679 138.681 104.679 138.608C104.533 138.317 104.46 137.953 104.606 137.661C104.751 137.37 104.97 137.151 105.261 137.079L105.334 137.079C106.062 136.787 106.718 137.516 106.718 138.171C106.718 138.244 106.718 138.317 106.718 138.39C106.645 138.244 106.499 138.098 106.426 137.88C106.499 137.88 106.572 137.953 106.645 137.953C106.863 138.098 106.936 138.39 106.863 138.608C106.718 138.826 106.426 138.972 106.208 138.899Z" fill="#F4D45D"/>
<path d="M279.977 422.858C273.714 416.813 268.47 411.206 264.683 403.267C260.969 395.475 258.492 387.318 256.817 378.87C254.924 369.256 253.904 359.57 253.103 349.811C252.302 339.761 250.554 329.565 251.064 319.514C251.137 318.349 252.885 317.621 253.467 318.859C257.327 327.234 258.055 336.629 259.221 345.66C260.459 355.346 261.406 365.032 263.153 374.646C264.61 382.584 266.576 390.522 269.271 398.169C272.039 406.108 275.68 415.284 280.996 421.838C281.579 422.567 280.705 423.514 279.977 422.858Z" fill="#1B6578"/>
<path d="M300.369 448.931C299.932 448.64 299.568 448.203 299.058 447.984C298.621 447.766 298.475 447.11 298.839 446.673C299.131 446.236 299.786 446.236 300.15 446.6C300.442 446.892 300.951 447.183 301.243 447.401C301.607 447.693 301.825 448.203 301.534 448.567C301.316 449.004 300.733 449.222 300.369 448.931Z" fill="#1B6578"/>
<path d="M294.178 441.648C293.377 441.429 292.576 440.992 291.993 440.337C291.775 440.118 291.557 439.9 291.411 439.608C290.901 438.953 290.683 438.37 290.61 437.496C290.537 436.622 291.265 435.676 292.066 435.384C292.94 435.02 293.887 435.239 294.615 435.894C295.052 436.331 295.271 436.695 295.489 437.278C295.271 436.768 295.635 437.569 295.708 437.642C295.999 438.225 296.218 438.807 296.436 439.39C296.946 440.701 295.416 442.012 294.178 441.648Z" fill="#1B6578"/>
<path d="M287.842 431.889L287.769 431.889C288.061 431.816 288.352 431.743 288.571 431.67C288.279 431.889 287.842 431.961 287.478 431.961C287.842 431.889 288.134 431.816 288.498 431.67C288.061 431.889 287.697 432.034 287.26 432.034C286.895 432.034 286.604 431.961 286.24 431.816C285.657 431.525 285.075 431.16 284.783 430.578C284.274 429.631 284.346 428.393 285.148 427.592C285.949 426.863 287.114 426.645 288.134 427.228C288.716 427.519 289.153 428.102 289.372 428.684C289.517 428.975 289.59 429.34 289.59 429.704C289.59 430.141 289.444 430.578 289.226 430.942C289.299 430.578 289.372 430.286 289.517 429.922C289.517 430.286 289.444 430.723 289.226 431.015C289.299 430.723 289.372 430.432 289.444 430.214L289.444 430.286C289.372 431.233 288.643 431.961 287.842 431.889Z" fill="#1B6578"/>
<path d="M230.089 70.4407C230.016 70.4407 229.944 70.4407 229.871 70.4407C230.308 70.295 230.672 70.2222 231.109 70.0765C230.89 70.1494 230.745 70.2222 230.526 70.295C230.235 70.3678 229.871 70.4406 229.579 70.3678C229.361 70.3678 229.142 70.295 228.997 70.2222C228.778 70.1493 228.633 70.0765 228.487 69.9309C228.196 69.7852 227.977 69.4939 227.832 69.2754C227.759 69.0569 227.686 68.9112 227.613 68.6928C227.613 68.4743 227.54 68.2558 227.54 68.0373C227.54 67.6731 227.613 67.3818 227.759 67.0905C227.832 66.872 227.904 66.7263 228.05 66.5807C228.123 66.3622 228.341 66.2166 228.487 66.1437C228.706 65.9252 228.997 65.7796 229.288 65.7068C229.507 65.7068 229.725 65.6339 229.944 65.6339C230.162 65.6339 230.381 65.7068 230.599 65.7068C230.818 65.7796 230.963 65.8524 231.182 65.9252C231.473 66.0709 231.691 66.2894 231.837 66.5807C232.056 66.7992 232.201 67.0905 232.274 67.3818C231.91 66.872 231.546 66.4351 231.182 65.9252C231.254 65.9981 231.255 65.9981 231.327 66.0709C231.473 66.2166 231.619 66.2894 231.764 66.4351C231.983 66.6535 232.128 66.872 232.274 67.1634C232.347 67.3818 232.42 67.5275 232.42 67.746C232.493 68.0373 232.493 68.4014 232.347 68.6928C232.274 68.9112 232.201 69.0569 232.128 69.2754C231.983 69.421 231.91 69.5667 231.764 69.7124C231.546 69.9309 231.327 70.0765 231.036 70.2222C230.672 70.3678 230.381 70.4407 230.089 70.4407Z" fill="#3EB595"/>
<path d="M222.442 65.27C222.369 65.27 222.369 65.27 222.297 65.1972C222.151 65.1243 222.078 65.1243 221.932 65.0515C221.568 64.833 221.35 64.5417 221.277 64.1775C221.277 64.0319 221.277 63.9591 221.204 63.8134C221.204 63.5949 221.204 63.4492 221.35 63.3036C221.35 63.1579 221.423 63.0851 221.495 63.0123C221.568 62.8666 221.714 62.721 221.86 62.6482C221.932 62.5753 222.078 62.5025 222.224 62.5025C222.442 62.4297 222.734 62.4297 222.952 62.5025L223.025 62.5025C223.098 62.5025 223.098 62.5025 223.17 62.5753C223.389 62.6481 223.535 62.721 223.68 62.7938C223.826 62.8667 223.972 63.0123 224.044 63.158C224.117 63.3036 224.19 63.5221 224.19 63.6677C224.263 63.8862 224.19 64.0319 224.19 64.2504C224.117 64.3961 224.117 64.4689 224.044 64.6145C223.899 64.833 223.753 64.9786 223.535 65.1243C223.389 65.1971 223.316 65.1971 223.17 65.27C222.952 65.3428 222.661 65.3428 222.442 65.27Z" fill="#3EB595"/>
<path d="M214.722 60.7542C214.722 60.6814 214.795 60.6814 214.722 60.7542C214.795 60.9727 214.795 61.1912 214.868 61.4097C214.868 61.4097 214.868 61.3369 214.795 61.3369C214.722 61.264 214.722 61.1912 214.65 61.1184C214.577 60.9727 214.577 60.8271 214.65 60.6086C214.65 60.5358 214.65 60.5358 214.722 60.4629C214.722 60.3173 214.795 60.2444 214.941 60.1716C215.014 60.0988 215.087 60.0988 215.159 60.026C215.305 59.9531 215.451 59.8803 215.669 59.8803L215.742 59.8803C215.524 59.9532 215.305 60.0988 215.087 60.1716C215.159 60.0988 215.232 60.026 215.305 59.9531C215.451 59.8075 215.596 59.7347 215.742 59.7347C215.888 59.6618 216.106 59.6618 216.252 59.7347C216.397 59.7347 216.616 59.8075 216.762 59.8803C216.834 59.9532 216.907 60.026 217.053 60.0988C217.199 60.2445 217.271 60.3901 217.344 60.5358C217.417 60.6814 217.49 60.8271 217.49 61.0456C217.49 61.1912 217.49 61.4097 217.344 61.5553C217.271 61.701 217.199 61.8466 217.053 61.9923C216.98 62.0651 216.907 62.1379 216.762 62.2108C216.616 62.2836 216.47 62.3564 216.252 62.3564C216.106 62.4293 215.888 62.3564 215.742 62.3564C215.669 62.2836 215.524 62.2836 215.451 62.2108C215.232 62.0651 215.087 61.9195 214.941 61.701C214.868 61.6282 214.868 61.4825 214.795 61.4097C214.65 61.1912 214.65 60.9727 214.722 60.7542Z" fill="#3EB595"/>
<path d="M208.24 57.4042L208.24 57.3314C208.24 57.3314 208.24 57.3314 208.24 57.2586L208.24 57.1857C208.24 57.0401 208.24 57.1129 208.24 57.0401L208.24 56.9673L208.24 56.8944C208.24 56.8216 208.313 56.7488 208.385 56.6759C208.458 56.6031 208.531 56.6031 208.604 56.5303L208.677 56.5303C208.75 56.5303 208.823 56.5303 208.823 56.5303L208.896 56.5303C208.968 56.5303 208.968 56.5303 208.968 56.5303C208.968 56.5303 208.968 56.5303 209.041 56.5303L209.114 56.5303C209.26 56.5303 209.333 56.6031 209.406 56.7488C209.479 56.8216 209.552 56.9673 209.624 57.0401C209.697 57.2586 209.624 57.5499 209.406 57.7684C209.187 57.9869 208.968 58.0597 208.677 57.9868C208.531 57.9868 208.458 57.914 208.385 57.7684C208.313 57.6227 208.24 57.4771 208.24 57.4042Z" fill="#3EB595"/>
<path d="M203.143 54.2727C203.143 53.1075 204.963 53.1075 204.963 54.2727C204.963 55.4379 203.143 55.4379 203.143 54.2727Z" fill="#3EB595"/>
<path d="M333.651 362.338C333.651 362.265 333.579 362.265 333.651 362.338C333.433 362.119 333.287 361.901 333.142 361.682C333.069 361.464 332.923 361.245 332.85 361.027C332.85 360.808 332.777 360.517 332.777 360.298C332.777 359.934 332.85 359.57 332.996 359.206C333.069 358.987 333.214 358.769 333.36 358.623C333.506 358.405 333.651 358.259 333.87 358.113C334.016 357.968 334.234 357.822 334.453 357.749C334.817 357.604 335.108 357.531 335.545 357.531L335.618 357.531C336.128 357.531 336.637 357.676 337.074 357.895C337.511 358.113 337.803 358.478 338.094 358.915C338.385 359.351 338.458 359.861 338.458 360.371C338.458 360.735 338.385 361.099 338.24 361.464C338.094 361.828 337.948 362.119 337.657 362.338C337.293 362.702 336.856 362.92 336.419 363.066C335.909 363.211 335.399 363.211 334.89 363.066C334.38 362.92 334.016 362.629 333.651 362.338Z" fill="#3EB595"/>
<path d="M325.859 350.903C325.859 350.612 325.932 350.321 326.077 350.03C326.15 349.738 326.296 349.52 326.587 349.301C326.806 349.083 327.024 348.937 327.315 348.791C327.607 348.646 327.898 348.573 328.189 348.573C328.408 348.573 328.626 348.646 328.772 348.646C329.136 348.719 329.5 348.937 329.791 349.228C329.937 349.374 330.01 349.52 330.156 349.665C330.374 350.03 330.447 350.394 330.447 350.831C330.447 351.122 330.374 351.413 330.228 351.705C330.156 351.996 330.01 352.214 329.719 352.433C329.5 352.651 329.282 352.797 328.99 352.943C328.699 353.088 328.408 353.161 328.116 353.161C327.898 353.161 327.679 353.088 327.534 353.088C327.17 353.015 326.806 352.797 326.514 352.506C326.369 352.36 326.296 352.214 326.15 352.069C325.932 351.705 325.859 351.34 325.859 350.903Z" fill="#3EB595"/>
<path d="M322.217 343.985C322.217 343.839 322.217 343.621 322.363 343.475C322.436 343.329 322.509 343.184 322.654 343.038C322.8 342.892 322.873 342.819 323.091 342.747C323.237 342.674 323.383 342.601 323.601 342.601C323.747 342.601 323.82 342.601 323.965 342.674C324.184 342.747 324.402 342.819 324.548 343.038C324.621 343.111 324.694 343.184 324.766 343.329C324.912 343.548 324.912 343.766 324.912 343.985C324.912 344.13 324.912 344.349 324.766 344.494C324.694 344.64 324.621 344.786 324.475 344.931C324.329 345.077 324.257 345.15 324.038 345.223C323.892 345.296 323.747 345.368 323.528 345.368C323.383 345.368 323.31 345.368 323.164 345.296C322.946 345.223 322.727 345.15 322.582 344.931C322.509 344.859 322.436 344.786 322.363 344.64C322.29 344.422 322.217 344.203 322.217 343.985Z" fill="#3EB595"/>
<path d="M218.728 404.359C218.509 404.359 217.708 404.214 218.218 404.287C218.801 404.359 217.781 404.214 217.636 404.214C218.072 404.214 218.582 404.214 219.019 404.214C217.927 404.432 216.397 404.068 215.888 402.903C215.087 401.155 214.504 399.261 213.848 397.368C213.12 395.256 211.445 391.76 214.358 390.522C215.378 390.085 216.543 390.376 217.271 391.178C217.854 391.833 218.145 392.416 218.437 393.217C218.728 394.018 219.019 394.819 219.311 395.62C219.893 397.295 220.549 398.97 220.986 400.718C221.277 401.883 220.84 403.34 219.675 403.85C219.966 403.704 220.184 403.485 220.33 403.267C220.184 403.485 220.039 403.704 219.82 403.85C219.529 404.141 219.165 404.287 218.728 404.359Z" fill="#3EB595"/>
<path d="M226.958 420.309C226.666 420.528 226.302 420.6 226.011 420.6C226.302 420.528 226.521 420.455 226.812 420.382C226.084 420.819 225.355 420.6 224.627 420.309C224.263 420.091 223.972 419.726 223.68 419.435C223.462 419.071 223.462 419.144 223.243 418.634C223.243 418.561 223.171 418.561 223.171 418.488C223.098 418.343 223.098 418.124 223.025 417.979C222.952 417.396 223.025 416.741 223.316 416.231C223.68 415.648 224.336 415.284 224.991 415.284C225.355 415.284 225.647 415.357 226.011 415.575C226.302 415.721 226.521 416.012 226.739 416.304C226.958 416.522 226.958 416.886 227.103 417.177C227.03 417.032 226.958 416.813 226.885 416.668C227.03 417.032 227.176 417.396 227.249 417.76C227.249 417.833 227.322 417.979 227.322 418.051C227.395 418.343 227.395 418.561 227.467 418.853C227.467 418.707 227.395 418.488 227.395 418.343C227.395 418.416 227.395 418.416 227.395 418.488C227.395 418.561 227.395 418.634 227.395 418.707C227.467 418.853 227.467 418.998 227.395 419.144C227.395 419.29 227.322 419.435 227.249 419.581C227.249 419.654 227.176 419.726 227.103 419.872C227.176 419.508 227.176 419.071 227.249 418.707C227.249 418.78 227.249 418.853 227.249 418.925C227.322 419.217 227.322 419.508 227.249 419.726C227.176 419.799 227.176 419.872 227.103 420.018C227.249 420.091 227.103 420.236 226.958 420.309Z" fill="#3EB595"/>
<path d="M235.114 439.099C235.041 439.026 234.969 438.881 234.896 438.808C234.823 438.735 234.823 438.735 234.75 438.662L234.677 438.589C234.604 438.516 234.604 438.444 234.532 438.371C234.459 438.298 234.459 438.225 234.386 438.152C234.313 438.079 234.24 437.934 234.24 437.861C234.24 437.788 234.168 437.715 234.168 437.715C234.022 437.424 233.949 437.133 233.949 436.841C233.949 436.696 234.022 436.55 234.022 436.404C234.095 436.259 234.168 436.113 234.24 435.967C234.168 436.332 234.168 436.696 234.095 437.06C234.095 436.987 234.095 436.987 234.095 436.914C234.095 436.841 234.095 436.768 234.095 436.696C234.095 436.477 234.095 436.55 234.095 436.332C234.095 436.186 234.168 435.967 234.24 435.822C234.313 435.749 234.386 435.676 234.459 435.53C234.532 435.458 234.532 435.458 234.604 435.458C234.677 435.385 234.677 435.385 234.75 435.385C234.823 435.312 234.969 435.312 235.041 435.239C235.187 435.239 235.26 435.239 235.406 435.166C235.551 435.166 235.624 435.166 235.77 435.239C235.915 435.239 235.988 435.312 236.134 435.385C236.207 435.385 236.207 435.458 236.28 435.458C235.915 435.385 235.551 435.385 235.187 435.312C235.26 435.239 235.406 435.239 235.478 435.239C235.697 435.166 235.915 435.166 236.134 435.239C236.207 435.239 236.28 435.312 236.352 435.312C236.571 435.385 236.717 435.458 236.862 435.676C236.935 435.749 236.935 435.749 237.008 435.822C237.081 435.895 237.226 435.967 237.299 436.04C237.445 436.186 237.59 436.477 237.736 436.623C237.809 436.696 237.882 436.841 237.955 436.914C238.1 437.133 238.173 437.351 238.173 437.57C238.246 437.788 238.246 438.007 238.173 438.225C238.1 438.371 238.027 438.516 238.027 438.662C237.955 438.881 237.736 439.026 237.59 439.172C237.518 439.245 237.372 439.318 237.226 439.39C237.008 439.463 236.789 439.536 236.571 439.536C236.425 439.536 236.28 439.463 236.134 439.463C235.624 439.463 235.333 439.318 235.114 439.099Z" fill="#3EB595"/>
<path d="M44.188 226.887C46.9341 222.926 47.0083 217.497 45.3013 213.022C43.5943 208.474 40.2544 204.732 36.6919 201.504C32.9068 198.056 28.6021 195.049 23.7037 193.508C18.8053 191.967 13.2389 191.967 8.7116 194.388C3.21945 197.323 0.25075 203.192 0.0280942 209.134C-0.120339 213.242 0.250743 217.717 2.84838 221.165C5.14915 224.173 8.63742 225.934 12.1257 227.327C16.9499 229.235 22.2194 231.362 27.3404 232.463C33.3521 233.49 40.5513 232.096 44.188 226.887Z" fill="#F4D45D"/>
<path d="M372.602 501.974C370.41 499.466 365.802 500.204 363.988 503.006C362.175 505.809 363.006 509.643 365.273 512.151C367.539 514.584 370.939 515.764 374.264 516.207C376.53 516.502 379.024 516.354 380.761 514.953C383.632 512.593 382.801 507.8 380.081 505.292C377.361 502.785 373.508 501.974 369.882 501.236" fill="#3EB595"/>
<path d="M253.647 167.023C256.7 168.279 260.626 168.649 262.734 166.136C265.86 162.367 262.516 156.603 260.044 153.573C257.573 150.542 254.956 146.7 251.612 144.63C248.486 142.709 244.051 143.522 241.362 145.813C238.018 148.695 239.98 154.016 241.943 157.12C244.633 161.554 248.849 165.101 253.647 167.023Z" fill="#3EB595"/>
<path d="M248.215 274.733C247.448 272.546 245.53 270.067 243.305 270.796C241.924 271.234 241.31 272.692 240.85 274.004C238.932 279.909 238.088 286.179 238.395 292.375C238.548 295.437 238.932 298.499 239.623 301.488C240.236 304.113 240.85 307.466 242.921 309.435C245.837 312.132 250.593 311.257 251.437 307.466C252.281 303.529 251.283 299.155 251.36 295.146C251.514 288.147 250.67 281.367 248.215 274.733Z" fill="#3EB595"/>
<path d="M162.65 78.8887C156.314 79.4714 150.269 75.5386 145.827 71.3145C140.656 66.5078 137.014 60.3903 132.79 54.7825C131.771 53.3987 130.751 52.0878 129.586 50.7769C128.712 49.7573 127.547 48.6648 126.527 48.3007C126.454 48.3007 125.58 48.0094 125.872 48.0822C125.726 48.0822 125.507 48.0822 125.362 48.0822C125.726 48.0822 125.362 48.0822 125.216 48.0822C124.706 48.3007 124.998 48.155 125.07 48.155C124.706 48.3007 124.779 48.3007 124.925 48.2279C124.706 48.3735 124.706 48.4464 124.779 48.3007C124.634 48.5192 124.488 48.7377 124.415 48.9562C124.488 48.7377 124.269 49.3931 124.269 49.5388C124.197 49.9758 124.197 49.8301 124.197 50.1942C124.124 50.8497 124.197 51.7965 124.269 52.3063C125.143 58.4967 130.314 63.5219 134.684 67.8188C139.126 72.1157 144.152 76.1941 149.832 78.5974C152.454 79.6898 155.513 80.7095 158.28 80.6366C158.426 80.6366 158.572 80.6366 158.717 80.6366C158.353 80.6366 158.717 80.6366 158.79 80.6366C159.081 80.5638 159.373 80.491 159.664 80.4181C159.3 80.5638 159.955 80.2725 160.028 80.1996C159.664 80.491 160.028 80.1996 160.028 80.1996C159.883 80.3453 159.883 80.4182 159.955 80.2725C160.028 80.1268 160.028 80.1268 159.955 80.3453C159.955 80.3453 159.955 80.1268 160.028 80.1996C160.028 80.1996 160.101 80.491 159.955 80.1996C159.883 80.054 159.81 79.9084 159.664 79.7627C159.227 79.2529 158.572 79.0344 157.916 78.8887C156.314 78.4518 154.639 78.2333 153.037 77.6506C151.434 77.068 149.832 76.3397 148.376 75.4658C145.462 73.7907 142.768 71.533 140.437 69.1297C137.815 66.435 135.558 63.5219 133.227 60.6088C132.135 59.225 131.115 57.8412 130.023 56.5303C129.513 55.9477 129.003 55.3651 128.421 54.8553C128.421 54.8553 127.911 54.4912 127.765 54.4183C127.547 54.3455 127.328 54.2726 127.183 54.1998C127.474 54.1998 126.818 54.3455 127.11 54.1998C127.401 54.127 126.746 54.3455 127.037 54.2727C127.401 54.127 127.037 54.2727 126.891 54.4911C127.183 54.127 126.891 54.4911 126.891 54.5639C126.891 54.2726 126.891 54.4911 126.891 54.6368C126.891 54.7825 126.818 54.9281 126.746 55.0738C126.818 54.564 126.746 55.2923 126.746 55.3651C126.746 55.5107 126.818 55.802 126.746 55.4379C126.818 55.5836 126.818 55.8021 126.891 55.9477C126.891 55.8749 126.673 55.5836 126.964 56.1662C127.037 56.3118 127.183 56.5303 127.255 56.676C127.619 57.2586 128.056 57.6956 128.566 58.2054C130.97 60.6816 133.519 62.9392 136.14 65.1241C141.311 69.3482 147.138 72.9168 153.037 76.1941C154.493 76.9952 155.804 78.0148 157.188 78.9616C158.572 79.9083 157.771 81.9475 156.023 81.6562C154.056 81.2921 152.308 80.7823 150.488 79.9812C148.74 79.1801 146.992 78.3789 145.317 77.4322C141.967 75.6115 138.835 73.4994 135.776 71.2417C132.717 68.9112 129.732 66.435 126.964 63.8132C124.197 61.1185 120.992 58.0597 121.793 53.8357C122.157 51.8693 123.541 50.1943 125.507 49.5388C127.619 48.8833 129.731 49.6845 131.407 50.9954C132.936 52.1606 134.101 53.7628 135.266 55.2922C136.577 56.9673 137.888 58.7152 139.199 60.4631C143.423 66.0709 148.448 71.97 155.44 74.0821C157.261 74.6647 159.227 74.8103 160.975 75.6115C162.796 76.4854 164.325 78.3061 164.325 80.4181C164.325 84.4237 160.101 85.8075 156.751 85.4433C149.395 84.6422 142.768 81.0008 137.014 76.4854C134.174 74.2277 131.552 71.7515 129.003 69.1297C126.381 66.435 123.905 63.5947 122.012 60.3902C120.191 57.2586 118.88 53.4715 119.317 49.8301C119.536 47.7909 120.337 45.8245 122.084 44.5865C123.687 43.4212 125.799 43.2755 127.619 43.931C131.407 45.3147 134.028 48.8833 136.359 52.0878C138.617 55.2923 140.729 58.5695 142.913 61.8468C146.701 67.5275 151.362 73.2809 157.843 75.9756C159.373 76.6311 160.975 77.1409 162.65 77.5778C163.742 77.5778 163.451 78.8159 162.65 78.8887Z" fill="#F4D45D"/>
<path d="M155.367 80.7824C152.818 79.8357 150.196 79.0346 147.72 77.7965C145.317 76.5584 143.132 75.1747 140.947 73.5724C136.505 70.2223 132.572 66.0711 129.513 61.41C128.566 60.0263 127.765 58.6425 127.11 57.1131C126.818 56.4577 126.527 55.7294 126.454 55.0011C126.381 54.5642 126.309 54.2 126.309 53.763C126.309 53.6174 126.309 53.3989 126.381 53.2532C126.454 53.1076 126.454 52.9619 126.6 52.8163C126.673 52.7434 126.673 52.7434 126.6 52.8891C126.6 52.0151 127.547 51.7238 128.202 52.2336C128.129 52.1608 127.619 52.088 128.129 52.1608C128.421 52.2336 128.639 52.3065 128.858 52.4521C129.076 52.5978 129.295 52.8163 129.513 53.0347C130.023 53.4717 130.387 54.0543 130.824 54.5641C131.625 55.6566 132.426 56.749 133.154 57.9143C134.611 60.0991 135.995 61.9199 137.67 63.8862C140.947 67.6733 144.807 71.0962 148.958 73.9366C151.362 75.6116 153.765 77.3595 156.46 78.5248C157.552 79.1074 156.605 81.2922 155.367 80.7824Z" fill="#F4D45D"/>
<path d="M129.367 55.8749C128.129 55.5107 127.182 54.7824 126.381 53.7628C125.507 52.6704 124.925 51.5051 124.706 50.1942C125.507 50.6311 126.381 51.141 127.182 51.5779C126.381 51.7236 125.58 51.7964 124.706 51.8693C125.435 51.141 126.163 50.4127 126.964 49.6115C126.964 50.1213 126.964 50.6311 126.964 51.0681C126.964 51.1409 127.037 51.5779 126.964 51.2138C126.891 50.8496 126.964 51.2866 126.964 51.3594C127.037 51.5779 127.037 51.8693 127.11 52.0877C127.255 52.5247 127.401 52.9617 127.547 53.4715C127.619 53.6171 127.619 53.6899 127.692 53.8356C127.692 53.9084 127.911 54.3454 127.765 53.9813C127.619 53.6171 127.838 54.0541 127.838 54.1269C127.911 54.2726 127.911 54.3454 127.984 54.4911C128.202 54.9281 128.421 55.2922 128.639 55.7292C128.785 55.9477 128.857 56.1661 129.003 56.3846C129.076 56.4574 129.149 56.6031 129.222 56.676C129.367 56.8944 128.93 56.3118 129.222 56.676C129.44 56.9673 129.659 57.2586 129.731 57.6227C129.659 57.4771 129.659 57.4771 129.731 57.6227C129.804 57.7684 129.95 57.8412 130.023 57.9869C130.387 58.4238 130.751 58.788 130.97 59.2978C131.334 60.0261 130.897 60.9 130.023 60.9C129.367 60.9 128.712 60.6815 128.129 60.3902C127.984 60.3174 127.838 60.2446 127.765 60.1717C127.692 60.1717 127.401 59.8804 127.619 60.0261C127.765 60.1717 127.547 59.9533 127.474 59.9533C127.037 59.7348 126.891 59.7348 126.527 59.3706C125.58 58.6423 124.779 57.6956 124.124 56.676C123.468 55.6563 123.031 54.4911 122.74 53.3258C122.449 52.1606 122.303 50.8496 122.449 49.6115C122.521 49.0289 122.667 48.4463 123.104 48.0093C123.541 47.6451 124.124 47.281 124.706 47.3539C125.507 47.4267 126.308 47.4995 127.182 47.6451C127.984 47.7908 128.712 48.7376 128.639 49.6115C128.639 49.83 128.639 50.1214 128.639 50.4127C128.639 50.4855 128.639 50.6311 128.639 50.704C128.639 51.0681 128.566 50.4855 128.639 50.7768C128.712 51.2866 128.857 51.7236 129.003 52.1605C129.003 52.2334 129.076 52.3791 129.003 52.2334C129.076 52.3791 129.076 52.4519 129.149 52.5975C129.222 52.816 129.367 52.9617 129.513 53.1802C129.731 53.5443 130.023 53.9813 130.314 54.2726C130.897 54.9281 130.314 56.1662 129.367 55.8749Z" fill="white"/>
<path d="M160.174 79.9084C159.373 79.9084 158.572 79.9812 157.77 79.9812C157.406 79.9812 157.042 79.9812 156.605 79.9084C156.314 79.9084 156.023 79.8356 155.731 79.7627C155.44 79.6899 155.149 79.6171 154.857 79.4714C154.42 79.2529 154.129 78.6703 154.202 78.1605C154.275 77.6507 154.639 77.2138 155.149 77.0681C156.095 76.7768 157.115 77.0681 158.062 77.2138C158.863 77.3594 159.591 77.5779 160.392 77.7236C160.975 77.8692 161.266 78.4518 161.193 78.9616C161.193 79.4714 160.756 79.9084 160.174 79.9084Z" fill="#F4D45D"/>
<path d="M160.028 80.3454C159.664 80.4182 159.3 80.491 158.936 80.5638C159.081 80.491 159.154 80.491 159.3 80.4182C159.081 80.491 158.936 80.5639 158.717 80.6367C158.644 80.6367 158.499 80.7095 158.426 80.7095C158.207 80.7823 158.062 80.7824 157.843 80.8552C156.969 81.0008 155.877 81.0737 155.221 80.3454C154.93 80.0541 154.712 79.5443 154.712 79.1073C154.712 78.6703 154.93 78.2333 155.221 77.8692C155.877 77.1409 157.042 77.2138 157.843 77.3594C158.062 77.4323 158.207 77.4322 158.426 77.5051C158.499 77.5051 158.644 77.5779 158.717 77.5779C158.936 77.6507 159.081 77.7236 159.3 77.7964C159.154 77.7236 159.081 77.7235 158.936 77.6507C159.3 77.7235 159.664 77.7964 160.028 77.8692C160.538 77.942 160.975 78.5247 160.975 79.0345C160.902 79.6899 160.611 80.2725 160.028 80.3454Z" fill="#F4D45D"/>
<path d="M173.283 85.2249C173.283 85.2977 173.283 85.2977 173.21 85.3706C173.21 85.1521 173.283 84.9336 173.283 84.6423C173.283 84.7151 173.283 84.7151 173.283 84.7879C172.846 83.9868 172.409 83.2585 171.972 82.4574C171.972 82.4574 171.972 82.4574 172.045 82.4574C172.263 82.6031 172.409 82.7487 172.628 82.8944C172.919 83.1857 173.064 83.477 173.21 83.7683C173.356 83.9868 173.429 84.2053 173.429 84.4966C173.501 84.8608 173.501 85.2249 173.356 85.589C173.356 85.589 173.356 85.6619 173.356 85.7347C173.356 85.5162 173.429 85.2249 173.429 85.0064C173.429 85.0064 173.429 85.0064 173.429 85.0792C173.429 85.2977 173.356 85.589 173.356 85.8075C173.21 86.2445 172.992 86.6815 172.628 87.0456C172.846 86.463 173.064 85.8075 173.283 85.2249C173.356 85.1521 173.356 85.1521 173.283 85.2249C173.283 85.0064 173.283 84.7151 173.283 84.4966C173.283 84.4966 173.283 84.4966 173.283 84.5694C173.21 84.3509 173.137 84.1325 172.992 83.914C172.992 83.914 172.992 83.9868 173.064 83.9868C172.919 83.8411 172.773 83.6226 172.628 83.477C172.7 83.5498 172.773 83.6227 172.846 83.7683C172.992 83.914 173.137 84.1325 173.21 84.3509C173.356 84.5694 173.356 84.7879 173.356 85.0064C173.429 85.1521 173.429 85.2977 173.429 85.4434C172.846 84.7151 172.336 83.9868 171.754 83.2585C171.826 83.2585 171.899 83.3313 171.899 83.3313C171.681 83.3313 171.535 83.2585 171.317 83.2585C171.389 83.2585 171.389 83.2585 171.462 83.2585C172.263 83.2585 172.919 83.6955 173.356 84.3509C173.574 84.7151 173.647 85.0792 173.647 85.4434C173.647 85.8075 173.574 86.1717 173.356 86.5358C173.283 86.6086 173.064 86.8999 172.992 86.9727C172.846 87.1184 172.7 87.1912 172.482 87.3369C172.482 87.3369 172.409 87.3369 172.409 87.4097C172.191 87.4826 172.045 87.5554 171.826 87.6282C172.336 87.1184 172.919 86.5358 173.429 86.026C173.356 86.2445 173.283 86.463 173.137 86.6086C172.992 86.8999 172.773 87.1184 172.482 87.3369C172.336 87.4825 172.118 87.6282 171.899 87.701C171.608 87.8467 171.244 87.9196 170.88 87.9196C170.734 87.9196 170.661 87.9195 170.515 87.8467C170.37 87.8467 170.297 87.8467 170.151 87.7739C170.151 87.7739 170.151 87.7739 170.079 87.7739C169.86 87.7011 169.642 87.6282 169.423 87.4826L169.35 87.4826C169.569 87.5554 169.787 87.6282 170.006 87.7739C170.443 87.7739 170.952 87.7739 171.389 87.7739C170.443 88.0652 169.35 87.7739 168.695 87.0456C168.185 86.5358 168.185 86.3173 167.894 85.6618C167.894 85.4434 167.821 85.152 167.821 84.9336C167.821 84.5694 167.894 84.2053 168.039 83.8411C168.112 83.6226 168.258 83.4042 168.403 83.1857C168.622 82.8944 168.84 82.6031 169.205 82.4574C169.35 82.3846 169.423 82.3846 169.569 82.3118C169.714 82.2389 169.787 82.1661 169.933 82.1661C169.423 82.6031 168.84 82.9672 168.331 83.4042C168.476 83.1857 168.622 82.9672 168.84 82.7487L168.913 82.6759C169.059 82.5302 169.277 82.3846 169.496 82.2389C169.496 82.2389 169.496 82.2389 169.569 82.2389C169.787 82.1661 170.006 82.0933 170.224 81.9476C170.443 81.9476 170.661 81.8748 170.952 81.8748C171.171 81.8748 171.389 81.9476 171.681 81.9476C172.045 82.0204 172.336 82.1661 172.555 82.3846C172.773 82.5302 172.919 82.6759 172.992 82.8216C173.137 82.9672 173.283 83.1857 173.356 83.4042C173.501 83.6227 173.501 83.8411 173.501 84.0596C173.429 84.4966 173.356 84.8608 173.283 85.2249Z" fill="#F4D45D"/>
<path d="M181.731 90.8328C181.731 90.76 181.731 90.7599 181.731 90.6871L181.731 90.6143C181.731 90.4686 181.658 90.323 181.658 90.1773C181.658 90.0317 181.658 89.886 181.731 89.6675C181.731 89.5947 181.804 89.5219 181.804 89.449C181.804 89.3762 181.877 89.3034 181.95 89.1577C181.95 89.6675 181.95 90.1773 181.95 90.6871C181.877 90.5415 181.804 90.4686 181.804 90.323C181.731 90.1773 181.658 89.9588 181.658 89.8132C181.658 89.7403 181.658 89.6675 181.658 89.5947L181.658 89.5218C181.658 89.3762 181.658 89.2305 181.731 89.0849C181.804 88.7207 182.168 88.3566 182.532 88.2838C182.605 88.2838 182.751 88.2838 182.896 88.2109L182.969 88.2109L183.042 88.2109C183.26 88.2109 183.406 88.2838 183.625 88.3566C183.697 88.3566 183.77 88.4294 183.843 88.4294C183.989 88.5022 184.062 88.5751 184.207 88.5751C183.697 88.5751 183.188 88.5751 182.678 88.5751C182.678 88.5751 182.678 88.5751 182.751 88.5751C182.896 88.5023 183.042 88.4294 183.188 88.4294C183.26 88.4294 183.333 88.3566 183.406 88.4294C183.552 88.3566 183.697 88.3566 183.843 88.4294C183.989 88.4294 184.062 88.4294 184.134 88.5023C184.207 88.5023 184.207 88.5023 184.28 88.5023C184.571 88.5751 184.863 88.7208 185.154 89.0121C185.373 89.2306 185.518 89.5218 185.664 89.886C185.809 90.5414 185.664 91.2697 185.154 91.7067C184.644 92.2165 183.989 92.3621 183.333 92.2165C183.042 92.1437 182.751 91.998 182.459 91.7067C181.95 91.4154 181.804 91.1241 181.731 90.8328Z" fill="#F4D45D"/>
</g>
</svg>
