<svg width="15" height="21" viewBox="0 0 15 21" fill="none" xmlns="http://www.w3.org/2000/svg">
<path d="M10.7635 11.5087C11.0503 12.0278 11.3781 12.5343 11.6212 13.0789C12.1745 14.3176 12.4167 15.6239 12.2708 16.9809C12.0646 18.9022 10.46 20.5291 8.54234 20.7843C8.31089 20.8156 8.07458 20.8312 7.84119 20.8322C6.70632 20.8371 5.57242 20.8341 4.43755 20.8341C1.90232 20.8341 -0.0737401 18.7604 0.00211254 16.2154C0.0546259 14.4731 0.708125 12.9752 1.75742 11.6289C2.14155 11.1362 2.56262 10.6717 2.96717 10.1956C3.03427 10.1164 3.10526 10.0411 3.17528 9.96289C2.54707 9.52096 2.408 9.07512 2.6871 8.3741C2.26408 8.22353 1.91204 7.9791 1.74478 7.53815C1.56973 7.07569 1.71074 6.67972 2.01707 6.32969C1.32564 5.52405 1.33926 4.92863 2.0725 4.26671C1.78076 3.8326 1.68157 3.36428 1.9558 2.88128C2.22712 2.40123 2.67932 2.23404 3.2453 2.22035C3.09845 1.97201 2.97203 1.75007 2.83686 1.53399C2.67154 1.27098 2.62583 1.00407 2.80477 0.73324C2.9837 0.46339 3.25016 0.388105 3.55163 0.451657C4.09037 0.565072 4.62134 0.517164 5.13189 0.33922C6.15784 -0.0176473 7.21589 -0.0166696 8.27783 0.0107065C8.55595 0.0175506 8.77379 0.158342 8.89632 0.416459C9.02079 0.676532 8.978 0.926828 8.80782 1.15073C8.63181 1.38244 8.44509 1.60634 8.23893 1.86348C8.34298 1.88401 8.41786 1.90357 8.49274 1.91432C8.99065 1.98472 9.36991 2.23208 9.61983 2.67303C10.0565 3.44249 10.4921 4.21196 10.9307 4.98729C11.7554 4.89734 12.5664 5.18088 13.3979 5.26398C13.5506 5.27963 13.7013 5.31385 13.853 5.33633C14.631 5.45268 15.0958 6.03833 14.984 6.81953C14.7973 8.12381 14.593 9.42612 14.3781 10.7265C14.2449 11.537 13.64 11.9565 12.8338 11.8313C12.1696 11.7277 11.5074 11.6201 10.8432 11.5155C10.8072 11.5067 10.7693 11.5087 10.7635 11.5087ZM5.61715 8.4445C5.65605 8.52565 5.69495 8.59702 5.72607 8.67231C6.01197 9.37137 5.5413 10.1614 4.79541 10.2112C4.598 10.2239 4.39378 10.1741 4.1954 10.1379C4.05439 10.1115 3.95326 10.1399 3.85601 10.2533C3.38436 10.8008 2.8884 11.3278 2.43329 11.89C1.50166 13.0417 0.874417 14.3235 0.71007 15.8292C0.459173 18.1307 2.06569 20.0666 4.36753 20.1351C5.53352 20.1703 6.70048 20.1497 7.86744 20.1439C8.39063 20.1409 8.89632 20.0383 9.37769 19.8232C10.8335 19.172 11.6688 17.8052 11.6134 16.2027C11.5687 14.8994 11.2584 13.6714 10.5641 12.5675C10.2724 12.1041 9.88824 11.6993 9.53912 11.273C8.76114 10.3266 7.95691 9.40168 7.212 8.42983C6.97083 8.11501 6.86094 7.68677 6.73646 7.29666C6.68395 7.13436 6.66644 7.04441 6.47098 7.04929C6.27357 7.05418 6.15882 6.91241 6.15104 6.71883C6.14326 6.53306 6.25606 6.41769 6.43111 6.36978C6.48946 6.35414 6.54975 6.34925 6.61393 6.33849C6.58476 6.10189 6.55753 5.88581 6.5303 5.6668C6.3572 5.72155 6.20258 5.76555 6.05087 5.8203C6.00614 5.83692 5.95751 5.87506 5.93515 5.91612C5.83012 6.11362 5.73385 6.31601 5.63174 6.52426C6.29204 7.21942 6.29788 7.84222 5.61715 8.4445ZM9.43798 10.089C9.58288 9.16019 9.72681 8.23722 9.87268 7.31523C9.93297 6.93588 10.0506 6.80095 10.286 6.83224C10.532 6.86451 10.6156 7.04929 10.5573 7.42963C10.428 8.26557 10.2996 9.10152 10.1703 9.93747C10.0808 10.5114 10.2422 10.7236 10.8199 10.8096C11.5161 10.9132 12.2115 11.0218 12.9058 11.1352C13.3804 11.2124 13.6313 11.0462 13.7081 10.5622C13.9104 9.28533 14.1078 8.00746 14.3013 6.7286C14.3577 6.35707 14.1603 6.08918 13.7917 6.02953C13.0575 5.91025 12.3214 5.79488 11.5852 5.68538C11.0892 5.61205 10.9618 5.68147 10.7207 6.13415C10.5165 6.10873 10.3025 6.08331 10.0574 6.053C10.1002 5.9171 10.107 5.78999 10.1722 5.70982C10.3424 5.50059 10.2899 5.30505 10.179 5.10461C9.7764 4.3811 9.38255 3.65173 8.95467 2.94288C8.86617 2.79622 8.66001 2.67303 8.48691 2.6349C7.98997 2.52637 7.48332 2.45891 6.97763 2.39145C6.72674 2.35821 6.51668 2.45304 6.37859 2.6789C6.00517 3.28899 5.63271 3.89811 5.25928 4.50821C5.16398 4.66366 5.18635 4.79566 5.31957 4.9208C5.6541 5.23465 6.06449 5.21216 6.35623 4.85334C6.52544 4.64509 6.68881 4.43292 6.85121 4.21978C6.96888 4.0653 7.09336 3.92158 7.31411 3.99197C7.53194 4.06237 7.55431 4.24227 7.56306 4.4427C7.62044 5.70395 8.01623 6.78433 9.16764 7.46287C9.36116 7.57726 9.402 7.77574 9.29795 7.94488C9.19487 8.11305 9.00134 8.16487 8.81269 8.05243C8.63278 7.94488 8.44315 7.83733 8.29728 7.6897C7.96566 7.35336 7.65934 6.99259 7.35982 6.66114C7.34231 7.2595 7.55723 7.82365 7.95788 8.31544C8.44023 8.90402 8.93327 9.48479 9.43798 10.089ZM8.27296 0.704886C7.30925 0.673599 6.40874 0.667733 5.5306 0.952248C4.85571 1.17028 4.16817 1.30032 3.41062 1.1341C3.65762 1.5467 3.87643 1.92312 4.10788 2.29172C4.13997 2.34256 4.22652 2.37092 4.29362 2.38363C4.71956 2.46478 5.14648 2.53811 5.59673 2.61828C5.67647 2.49313 5.76108 2.32399 5.87777 2.18124C6.18702 1.79895 6.59351 1.64838 7.08169 1.6914C7.2227 1.70411 7.424 1.72367 7.50082 1.64545C7.76922 1.36876 7.99581 1.05002 8.27296 0.704886ZM5.24178 5.75773C5.04242 5.57196 4.82945 5.43215 4.70206 5.23661C4.57564 5.04106 4.42588 4.96871 4.21777 4.95013C4.1458 4.94427 4.07384 4.92863 4.00188 4.91689C3.65082 4.86214 3.30073 4.79663 2.94772 4.75655C2.57429 4.71353 2.25824 4.92863 2.20865 5.23661C2.16391 5.51526 2.39147 5.79684 2.7435 5.88972C2.84464 5.91612 2.94967 5.92883 3.05275 5.94447C3.51564 6.0178 3.97757 6.097 4.44143 6.16153C4.88488 6.2241 5.12508 6.09015 5.24178 5.75773ZM4.71275 7.98986C4.82653 7.98204 4.89266 7.98497 4.9549 7.9703C5.16981 7.92044 5.35945 7.82462 5.41099 7.58899C5.46642 7.33968 5.33611 7.16075 5.13092 7.04734C5.01325 6.98183 4.8771 6.93979 4.74485 6.9173C4.21971 6.82735 3.69361 6.73447 3.16458 6.67581C2.98273 6.65527 2.77171 6.69145 2.60833 6.77162C2.32145 6.91144 2.28255 7.23115 2.50719 7.46287C2.59861 7.55771 2.726 7.65157 2.8495 7.67503C3.48258 7.79431 4.12149 7.89111 4.71275 7.98986ZM5.20969 3.26651C5.07937 3.23229 4.98894 3.20198 4.89752 3.18633C4.45019 3.11398 4.00285 3.04065 3.55357 2.97808C3.36297 2.95168 3.16556 2.92333 2.9769 2.94484C2.73572 2.97221 2.55971 3.1218 2.50233 3.3721C2.45176 3.596 2.57235 3.83358 2.80282 3.95971C2.90007 4.0125 3.01191 4.05063 3.12082 4.06921C3.55941 4.1445 3.99993 4.21294 4.44046 4.27551C4.49881 4.28333 4.59411 4.2628 4.62134 4.22076C4.81584 3.92255 4.99769 3.61555 5.20969 3.26651ZM4.6651 9.50923C4.91892 9.51803 5.08618 9.36942 5.11438 9.1465C5.13967 8.93824 5.01908 8.74954 4.81292 8.71141C4.43074 8.642 4.04758 8.57942 3.66346 8.5276C3.4573 8.49925 3.27933 8.66155 3.24335 8.88251C3.21126 9.08001 3.33476 9.29413 3.53023 9.33031C3.91922 9.40168 4.3121 9.45448 4.6651 9.50923Z" fill="black"/>
<path d="M5.83017 11.8713C5.85934 11.3043 5.942 11.1322 6.20457 11.1517C6.7122 11.1908 6.53715 11.6122 6.59356 11.9104C7.0973 12.0786 7.42988 12.4198 7.56894 12.9361C7.60201 13.0593 7.60784 13.1942 7.60103 13.3213C7.59034 13.5227 7.45808 13.6312 7.26942 13.6459C7.09049 13.6596 6.95823 13.5677 6.90475 13.3888C6.88433 13.3193 6.88238 13.2441 6.86974 13.1727C6.80069 12.8002 6.48756 12.5743 6.08593 12.6037C5.72223 12.63 5.47522 12.8676 5.44799 13.2177C5.41784 13.6029 5.6347 13.8991 6.02855 13.9558C6.52354 14.0272 6.97379 14.169 7.30929 14.5698C7.95793 15.3461 7.69634 16.4823 6.76179 16.888C6.61301 16.9525 6.56438 17.0249 6.57897 17.1745C6.5887 17.2791 6.58578 17.3866 6.578 17.4913C6.56341 17.7142 6.40976 17.8628 6.20651 17.8589C6.01299 17.855 5.86518 17.7112 5.85254 17.4991C5.84378 17.3378 5.85059 17.1745 5.85059 17.0464C5.59872 16.8988 5.35658 16.7853 5.1475 16.6289C4.79935 16.3669 4.67001 15.9826 4.64668 15.5603C4.63501 15.351 4.77504 15.1878 4.96467 15.1633C5.17375 15.1359 5.33129 15.2533 5.3663 15.4899C5.42271 15.877 5.57733 16.1684 5.99646 16.2515C6.3767 16.3268 6.72581 16.1528 6.86974 15.8057C7.00491 15.4791 6.89016 15.0851 6.56827 14.8915C6.41462 14.7996 6.22596 14.7458 6.04703 14.7204C5.30795 14.6148 4.83242 14.1866 4.72253 13.5032C4.61556 12.8383 4.98996 12.1881 5.62206 11.9447C5.68916 11.9183 5.75821 11.8968 5.83017 11.8713Z" fill="black"/>
</svg>
