<svg width="504" height="388" viewBox="0 0 504 388" fill="none" xmlns="http://www.w3.org/2000/svg">
<mask id="mask0" mask-type="alpha" maskUnits="userSpaceOnUse" x="0" y="0" width="504" height="388">
<rect width="504" height="388" fill="#C4C4C4"/>
</mask>
<g mask="url(#mask0)">
<path d="M-78.4771 337.918C-60.4815 345.499 -39.6041 345.942 -21.3154 339.114C-3.03655 332.353 12.4448 318.359 21.1126 300.93C23.6359 295.765 25.3882 288.932 21.3936 284.764C16.993 280.132 9.40821 282.391 3.22985 283.844C-5.3305 285.824 -14.3655 285.506 -22.8138 283.045C-28.9793 281.191 -34.9695 278.148 -41.4351 277.871C-51.1334 277.455 -60.003 283.374 -66.5448 290.513C-75.4388 300.278 -81.4251 313.307 -80.1772 326.457C-78.9293 339.607 -69.2026 352.25 -56.1072 354.45" fill="#D0D0D0"/>
<path d="M124.289 41.7998C105.965 33.4955 85.7411 28.0174 65.7905 30.7496C45.9058 33.4916 26.4955 45.8241 19.3444 64.6218C16.6899 71.6581 15.7777 79.2212 14.3573 86.5743C12.9271 93.9935 10.9496 101.467 6.423 107.485C1.89636 113.503 -5.60232 117.732 -13.038 116.501C-19.1542 115.465 -24.2167 110.938 -27.7109 105.832C-39.206 89.1481 -36.9833 65.3703 -25.5504 48.6214C-14.1174 31.8725 5.04726 21.6646 24.8454 17.2218C58.7863 9.66368 96.1516 18.2076 123.174 40.2175L124.289 41.7998Z" fill="#D0D0D0"/>
<path d="M303.559 57.6514C305.557 53.2935 307.642 48.8115 307.603 44.0165C307.563 39.2215 304.726 34.0827 300.053 33.1205C294.925 32.0228 290.109 36.1708 286.906 40.4197C281.6 47.4373 277.814 55.6369 271.724 61.9918C261.462 72.7263 245.809 76.7828 230.989 76.1044C216.246 75.3688 202.058 70.4048 188.145 65.4129C185.891 64.6019 182.533 64.3807 181.988 66.6951C181.648 68.0818 182.742 69.406 183.752 70.3758C201.184 87.3803 225.711 96.7411 249.992 95.8031C265.141 95.1618 280.561 90.3869 291.902 80.1534C303.243 69.9199 309.702 53.699 306.199 38.8152" fill="#D0D0D0"/>
<path d="M434.828 126.142C429.891 128.963 423.454 131.426 418.894 128.025C415.725 125.715 414.714 121.131 415.426 117.21C416.139 113.289 418.341 109.793 420.392 106.41C427.543 94.9768 434.703 83.4767 443.424 73.2981C452.154 63.0528 462.586 54.0817 474.858 48.6569C478.541 47.0161 483.007 45.5589 486.925 47.3644C489.637 48.6511 491.598 50.9187 490.541 53.97C489.464 57.1549 488.123 60.3009 486.99 63.4092C485.647 67.0324 484.181 70.5693 482.517 74.077C479.208 80.9589 475.269 87.5431 470.718 93.6961C466.168 99.8491 461.072 105.581 455.44 110.824C449.819 116 443.728 120.698 437.207 124.65C436.448 125.221 435.643 125.648 434.828 126.142Z" fill="#515151"/>
<path d="M146.858 264.508C142.454 267.643 137.692 272.28 138.957 277.535C140.344 283.349 147.707 285.042 153.688 285.045C179.667 284.953 205.273 272.168 220.818 251.549C222.681 249.052 224.708 245.905 223.484 242.683C222.645 240.532 221.185 239.371 218.874 239.368C212.817 239.422 206.547 240.458 200.599 241.609C194.443 242.797 188.361 244.401 182.42 246.432C176.479 248.462 170.689 250.853 165.05 253.604C159.401 256.421 153.97 259.608 148.765 263.099C148.145 263.616 147.468 264.057 146.858 264.508Z" fill="#515151"/>
<path d="M122.498 281.074C119.348 282.827 118.064 286.518 119.518 289.435C120.981 292.284 124.739 293.254 127.89 291.5C131.04 289.747 132.324 286.056 130.87 283.139C129.341 280.28 125.583 279.311 122.498 281.074Z" fill="#515151"/>
<path d="M53.0773 157.876C37.0299 180.422 28.5295 209.632 5.43025 224.912C-12.4925 236.757 -35.3381 237.453 -56.8273 237.671C-54.6143 253.431 -41.1376 266.248 -25.7272 270.075C-10.3169 273.903 6.35071 269.657 19.742 261.002C33.0671 252.338 43.3886 239.711 51.6215 226.099C59.8543 212.487 66.2636 197.93 73.3626 183.745C80.4615 169.56 88.4119 155.568 99.2592 143.966C105.853 136.882 113.513 130.835 121.812 125.966C130.186 121.039 139.266 117.3 148.69 114.898C151.288 114.265 153.942 113.709 156.586 113.218C157.903 113.006 159.221 112.794 160.595 112.658C161.627 112.539 163.038 112.612 163.931 112.067C162.191 111.472 159.966 111.415 158.167 111.217C156.104 110.981 154.03 110.811 151.947 110.707C147.848 110.509 143.718 110.51 139.55 110.776C131.356 111.261 123.234 112.636 115.326 114.856C107.352 117.066 99.6578 120.129 92.3202 123.989C85.0586 127.793 78.1632 132.328 71.8326 137.623C65.502 142.918 59.7461 148.907 54.783 155.487C54.2586 156.29 53.668 157.083 53.0773 157.876Z" fill="#BEBEBE"/>
<path d="M80.1713 98.9515L80.1699 98.9525C72.0277 104.472 64.6337 111.654 61.1713 120.695L61.1711 120.696C60.6444 122.065 60.3407 123.724 60.5012 125.155C60.6612 126.581 61.2633 127.689 62.4653 128.174L62.4677 128.175C63.2194 128.483 64.0501 128.445 64.931 128.192C65.8151 127.939 66.7049 127.483 67.5469 127.009L67.5485 127.008C67.8225 126.855 68.0965 126.702 68.3706 126.549C85.5421 116.97 103.211 107.114 122.816 104.312L122.818 104.312C136.208 102.452 149.894 104.002 163.174 106.092C165.061 106.37 167.076 106.65 169.044 106.621C171.01 106.593 172.893 106.257 174.526 105.332C174.896 105.119 175.289 104.878 175.583 104.587C175.874 104.3 176.018 104.015 176.002 103.707C175.985 103.388 175.786 103.053 175.421 102.678C175.182 102.432 174.932 102.224 174.677 102.011C174.528 101.888 174.378 101.763 174.228 101.628L174.228 101.628L174.225 101.625C172.566 100.118 170.835 98.6694 169.023 97.3428C165.39 94.6833 161.503 92.3855 157.42 90.5235C153.333 88.66 148.99 87.1563 144.588 86.0426C140.192 84.9306 135.664 84.2633 131.135 84.06C130.85 84.0531 130.57 84.0292 130.298 84.0057L130.276 84.0038C130.007 83.9804 129.743 83.9576 129.463 83.9472C112.02 83.4364 94.5924 89.1068 80.1713 98.9515Z" stroke="#8E8E8E"/>
<path d="M43.8025 140.146C41.8751 140.614 40.6857 142.632 41.4057 144.305C42.1256 145.978 44.5001 147.017 46.4275 146.549C48.364 146.019 49.5353 144.124 48.8971 142.401C48.2589 140.678 45.9754 139.527 43.9842 139.923" fill="#8E8E8E"/>
<path d="M360.065 73.4979C364.367 69.3825 368.483 64.697 370.33 58.9988C373.059 50.5129 369.638 40.4427 362.401 35.3056C355.154 30.2348 344.632 30.5164 337.634 36.0663C331.401 40.9827 328.478 48.9649 325.821 56.5114C324.291 60.9673 322.771 65.3569 321.175 69.8031C319.311 75.1597 317.48 81.1996 319.745 86.3503C321.043 89.3912 323.767 91.4209 326.845 92.4171C329.154 93.1643 331.491 93.7123 333.847 92.7703C336.344 91.7813 338.564 89.9373 340.781 88.5679C344.036 86.5372 347.189 84.2879 350.286 81.9626C353.695 79.3439 356.936 76.497 360.065 73.4979Z" fill="#8E8E8E"/>
<path d="M-0.183434 138.368C1.75018 137.051 3.53755 135.364 4.65484 133.23C5.77214 131.096 6.03295 128.417 4.93906 126.306C3.32092 123.212 -0.698881 122.341 -4.07834 123.027C-7.4578 123.713 -10.5295 125.49 -13.8082 126.4C-17.7163 127.495 -21.8567 127.443 -25.5933 129.191C-28.3228 130.46 -31.2431 133.025 -29.9371 136.422C-27.3051 143.079 -17.2764 143.581 -11.4592 142.697C-7.50045 142.166 -3.60753 140.719 -0.183434 138.368Z" fill="#D0D0D0"/>
<path d="M249.124 137.193C260.471 147.314 275.963 151.637 291.201 153.488C303.547 154.97 319.081 154.229 334.398 150.995C349.717 147.761 364.779 142.042 376.203 133.598C404.139 112.95 420.507 81.8011 433.967 49.6731C388.785 103.484 319.425 136.345 249.124 137.193Z" stroke="#BEBEBE"/>
<path d="M355.438 122.429C352.697 123.109 349.814 123.835 347.703 125.758C345.592 127.681 344.677 131.135 346.448 133.359C347.88 135.127 350.474 135.442 352.739 135.234C355.828 134.944 358.826 133.896 361.448 132.184C364.146 130.415 366.652 127.196 365.472 124.178C364.657 121.892 361.991 120.686 359.537 120.799C357.093 120.845 354.834 121.934 352.641 123.032" fill="#D0D0D0"/>
<path d="M257.313 33.5245C243.262 49.1039 218.448 53.7974 199.635 44.5087C192.728 41.1151 186.119 34.7786 186.703 27.1259C187.268 19.6061 194.706 14.321 202.063 12.3503C217.216 8.20189 233.251 13.2799 248.146 18.2579" fill="#8E8E8E"/>
<path d="M481.419 185.949C481.06 188.389 482.988 190.725 485.768 191.135C488.548 191.544 491.069 189.863 491.428 187.424C491.787 184.984 489.859 182.648 487.079 182.238C484.299 181.828 481.778 183.51 481.419 185.949Z" fill="#515151"/>
<path d="M479.491 199.033C479.153 201.329 479.874 211.855 482.655 212.265C485.435 212.675 489.162 202.804 489.5 200.508C489.838 198.212 487.893 195.993 485.113 195.583C482.332 195.174 479.83 196.737 479.491 199.033Z" fill="#515151"/>
<path d="M92.7062 224.68C90.5265 227.067 88.5727 229.758 86.5722 232.307C84.4957 234.912 82.4192 237.518 80.2862 240.047C78.2194 242.586 76.1527 245.125 74.1425 247.74C73.1422 249.015 72.1322 250.355 71.1319 251.63C70.2077 252.848 69.1315 254.179 67.7357 254.921C67.4414 255.081 67.0165 254.747 67.1316 254.426C67.4225 252.911 68.452 251.438 69.3762 250.22C70.3102 248.936 71.3104 247.662 72.3009 246.453C74.3774 243.848 76.4539 241.243 78.5869 238.713C80.72 236.184 82.9095 233.731 85.212 231.429C86.3253 230.307 87.4385 229.185 88.618 228.072C89.8833 226.837 91.2616 225.753 92.4705 224.442C92.566 224.253 92.868 224.5 92.7062 224.68Z" fill="#BEBEBE"/>
<path d="M64.1896 257.851C64.2363 257.993 64.207 258.192 64.1875 258.325C64.1582 258.524 64.2049 258.666 64.1094 258.855C63.9845 259.243 63.8694 259.564 63.6783 259.942C63.3058 260.632 62.9334 261.322 62.4381 261.926C62.0092 262.54 61.59 263.088 61.0382 263.616C60.7243 263.908 60.4104 264.2 60.0401 264.417C59.7457 264.576 59.3655 264.859 58.9777 264.734C58.7789 264.705 58.6659 264.553 58.6289 264.344C58.6115 264.003 58.7928 263.691 58.9079 263.37C59.0893 263.058 59.2804 262.68 59.5943 262.388C60.0797 261.85 60.5652 261.312 60.9942 260.698C61.4134 260.15 61.8326 259.603 62.3279 258.999C62.5755 258.697 62.7568 258.385 63.0609 258.159C63.213 258.046 63.2988 257.923 63.4509 257.81C63.5171 257.82 63.5269 257.754 63.5932 257.763L63.6029 257.697C63.679 257.641 63.755 257.584 63.8973 257.537C64.0766 257.699 64.1993 257.785 64.1896 257.851Z" fill="#BEBEBE"/>
<path d="M55.3787 268.943C55.3473 269.616 55.1171 270.259 54.7642 270.816C54.5926 271.062 54.2885 271.288 54.0506 271.524C53.8985 271.637 53.7562 271.683 53.6139 271.73C53.6139 271.73 53.6802 271.74 53.69 271.674C53.69 271.674 53.6237 271.664 53.6139 271.73C53.6139 271.73 53.5477 271.72 53.5379 271.787C53.2533 271.88 52.9882 271.841 52.809 271.679C52.6862 271.593 52.6395 271.451 52.659 271.318C52.6883 271.12 52.7838 270.931 52.9359 270.818L53.0119 270.761C53.088 270.705 53.0119 270.761 53.0022 270.827C53.0119 270.761 53.164 270.648 53.24 270.592C53.3161 270.535 53.4681 270.422 53.5442 270.366C53.6202 270.309 53.5539 270.299 53.5442 270.366C53.4681 270.422 53.4681 270.422 53.6202 270.309L53.6962 270.253C53.782 270.13 53.6104 270.375 53.6962 270.253L53.7723 270.196C53.9341 270.017 54.1057 269.771 54.2675 269.592C54.2675 269.592 54.3533 269.469 54.2675 269.592C54.2675 269.592 54.2773 269.526 54.3435 269.535C54.3533 269.469 54.4293 269.413 54.4391 269.346C54.4488 269.28 54.4586 269.214 54.5346 269.157C54.5444 269.091 54.5444 269.091 54.5346 269.157C54.5444 269.091 54.5444 269.091 54.5542 269.025C54.5932 268.76 54.8213 268.59 55.0864 268.629C55.2384 268.516 55.4177 268.678 55.3787 268.943Z" fill="#BEBEBE"/>
<path d="M169.168 207.983C162.186 210.34 156.082 215.466 149.785 219.142C146.736 220.995 143.705 223.189 140.496 224.747C138.892 225.526 135.886 226.167 134.768 224.106C132.052 219.102 143.735 214.256 146.867 212.754C153.873 209.318 161.387 208.868 168.671 206.759C169.515 206.545 170.012 207.769 169.168 207.983Z" fill="#D0D0D0"/>
<path d="M131.4 229.501C131.065 230.399 130.256 231.295 129.336 231.566C127.542 232.25 125.323 230.772 125.692 228.727C125.895 227.809 126.458 226.741 127.341 226.262C127.864 225.933 128.367 225.736 128.973 225.758C129.579 225.779 130.166 225.933 130.581 226.333C131.543 227.152 131.841 228.347 131.4 229.501Z" fill="#D0D0D0"/>
<path d="M125.207 233.395C125.063 233.916 124.719 234.407 124.207 234.67C123.608 235.055 122.983 235.166 122.283 234.86C121.961 234.745 121.716 234.573 121.49 234.269C120.925 233.509 121.005 232.505 121.586 231.779C121.834 231.477 122.148 231.184 122.508 231.034C122.726 230.931 123.001 230.904 123.276 230.877C123.902 230.766 124.592 231.138 124.931 231.594C125.393 232.136 125.371 232.742 125.207 233.395Z" fill="#D0D0D0"/>
<path d="M120.86 235.328C120.917 235.404 120.917 235.404 120.86 235.328C121.398 235.813 121.575 236.448 121.345 237.092C121.249 237.281 121.164 237.403 121.068 237.592C120.725 238.083 119.947 238.307 119.38 238.021C118.813 237.734 118.493 237.145 118.515 236.539C118.544 236.34 118.574 236.142 118.659 236.019C118.774 235.697 119.003 235.528 119.297 235.368C119.591 235.208 119.866 235.181 120.207 235.164C120.416 235.127 120.737 235.242 120.86 235.328Z" fill="#D0D0D0"/>
<path d="M89.0041 269.564C88.7837 270.141 88.573 270.652 88.4189 271.238C88.2647 271.825 88.2431 272.431 87.9662 272.932C88.015 272.601 88.0639 272.269 88.1127 271.938C88.4922 273.958 85.7474 275.584 84.286 274.015C82.8148 272.512 84.5601 269.857 86.585 270.359C86.2439 270.376 85.9593 270.47 85.6182 270.487C86.0549 270.281 86.5285 270.283 86.9652 270.076C87.4779 269.813 87.8015 269.455 88.1349 269.03C88.4781 268.539 89.2245 268.987 89.0041 269.564Z" fill="#D0D0D0"/>
<path d="M82.9831 277.344C82.9734 277.41 82.9636 277.477 82.8875 277.533C82.8506 277.324 82.8701 277.192 82.8332 276.983C82.8897 277.059 82.9462 277.135 83.0124 277.145C83.4742 277.687 83.1581 278.454 82.5791 278.707C82.5791 278.707 82.5791 278.707 82.5129 278.698C82.2282 278.791 81.8871 278.809 81.6416 278.637C81.3961 278.465 81.2266 278.237 81.1994 277.962L81.2092 277.896C81.0419 277.193 81.7925 276.694 82.3889 276.782C82.4551 276.792 82.5214 276.802 82.5877 276.811C82.4454 276.858 82.2933 276.971 82.0847 277.008C82.0945 276.942 82.1705 276.885 82.1803 276.819C82.3421 276.64 82.617 276.612 82.806 276.708C82.9853 276.87 83.0787 277.155 82.9831 277.344Z" fill="#D0D0D0"/>
<path d="M364.653 157.301C358.314 162.189 352.508 166.209 344.777 168.59C337.189 170.925 329.435 172.085 321.524 172.476C312.522 172.91 303.572 172.539 294.585 171.96C285.333 171.341 275.821 171.565 266.745 169.754C265.694 169.531 265.266 167.843 266.471 167.479C274.609 165.09 283.255 165.686 291.628 165.837C300.608 166.009 309.548 166.446 318.53 166.145C325.948 165.883 333.435 165.159 340.754 163.732C348.348 162.278 357.186 160.195 363.862 156.236C364.603 155.804 365.347 156.726 364.653 157.301Z" fill="#515151"/>
<path d="M391.111 142.241C390.787 142.6 390.341 142.873 390.074 143.307C389.816 143.676 389.2 143.72 388.851 143.33C388.493 143.007 388.581 142.41 388.961 142.128C389.265 141.902 389.599 141.477 389.836 141.241C390.15 140.949 390.643 140.818 390.936 141.132C391.304 141.39 391.425 141.949 391.111 142.241Z" fill="#515151"/>
<path d="M383.654 146.898C383.348 147.597 382.843 148.268 382.168 148.71C381.94 148.879 381.712 149.049 381.428 149.142C380.763 149.518 380.203 149.639 379.398 149.588C378.593 149.537 377.83 148.748 377.672 147.98C377.458 147.136 377.784 146.303 378.478 145.729C378.934 145.39 379.294 145.24 379.854 145.119C379.361 145.249 380.138 145.026 380.214 144.969C380.784 144.782 381.343 144.661 381.902 144.541C383.164 144.253 384.151 145.82 383.654 146.898Z" fill="#515151"/>
<path d="M373.925 151.355L373.915 151.421C373.888 151.146 373.861 150.871 373.824 150.663C373.984 150.957 373.991 151.364 373.942 151.696C373.925 151.354 373.898 151.08 373.814 150.729C373.954 151.156 374.038 151.507 373.979 151.904C373.931 152.235 373.825 152.491 373.644 152.803C373.301 153.294 372.891 153.775 372.322 153.962C371.392 154.299 370.276 154.067 369.654 153.23C369.099 152.404 369.056 151.314 369.723 150.465C370.066 149.974 370.655 149.654 371.214 149.533C371.499 149.44 371.84 149.422 372.171 149.471C372.569 149.53 372.947 149.721 373.249 149.969C372.927 149.853 372.672 149.748 372.36 149.567C372.692 149.616 373.079 149.74 373.315 149.978C373.06 149.873 372.805 149.768 372.616 149.672L372.682 149.682C373.534 149.875 374.099 150.635 373.925 151.355Z" fill="#515151"/>
<path d="M37.3008 155.446C37.2911 155.512 37.2813 155.579 37.2715 155.645C37.1976 155.228 37.1801 154.887 37.1062 154.469C37.1432 154.678 37.1899 154.82 37.2269 155.029C37.2541 155.304 37.2715 155.645 37.1662 155.9C37.1369 156.099 37.0413 156.288 36.9555 156.411C36.86 156.6 36.7742 156.723 36.6222 156.836C36.4506 157.081 36.1562 157.241 35.9379 157.344C35.7293 157.381 35.587 157.428 35.3784 157.465C35.1796 157.435 34.9711 157.472 34.7723 157.443C34.4409 157.394 34.1856 157.289 33.9401 157.117C33.7511 157.022 33.6283 156.936 33.5153 156.784C33.3262 156.688 33.223 156.47 33.1763 156.328C33.0068 156.1 32.9133 155.815 32.8861 155.54C32.9154 155.342 32.8784 155.133 32.9077 154.934C32.937 154.735 33.0326 154.546 33.0618 154.348C33.1574 154.158 33.2432 154.036 33.3387 153.847C33.5103 153.601 33.7384 153.432 34.023 153.338C34.2511 153.169 34.5357 153.075 34.8105 153.048C34.2979 153.311 33.8514 153.584 33.3387 153.847C33.4148 153.79 33.4148 153.79 33.4908 153.734C33.6429 153.621 33.7287 153.498 33.8807 153.385C34.1088 153.215 34.3272 153.112 34.6117 153.019C34.8203 152.982 34.9626 152.935 35.1614 152.964C35.4362 152.937 35.7676 152.986 36.0131 153.157C36.2021 153.253 36.3249 153.339 36.5139 153.434C36.6269 153.586 36.7497 153.672 36.8627 153.824C37.0322 154.052 37.1355 154.271 37.2289 154.555C37.3126 154.906 37.3399 155.181 37.3008 155.446Z" fill="#8E8E8E"/>
<path d="M31.5708 161.711C31.561 161.777 31.561 161.777 31.485 161.833C31.3992 161.956 31.3894 162.023 31.3036 162.145C31.056 162.447 30.7616 162.607 30.4205 162.625C30.288 162.605 30.2217 162.595 30.0795 162.642C29.8807 162.613 29.7481 162.593 29.6351 162.441C29.5026 162.422 29.4461 162.346 29.3896 162.27C29.2668 162.184 29.1538 162.032 29.1071 161.889C29.0506 161.813 29.0038 161.671 29.0234 161.538C28.9864 161.33 29.0254 161.065 29.121 160.876L29.1308 160.81C29.1405 160.743 29.1405 160.743 29.2165 160.687C29.3121 160.498 29.3979 160.375 29.4837 160.252C29.5695 160.129 29.7216 160.016 29.8639 159.97C30.0062 159.923 30.2147 159.886 30.3472 159.905C30.5558 159.868 30.6786 159.954 30.8774 159.984C31.0002 160.069 31.0664 160.079 31.1892 160.165C31.3685 160.327 31.4815 160.479 31.5847 160.697C31.6314 160.839 31.6217 160.906 31.6684 161.048C31.7054 161.257 31.6663 161.522 31.5708 161.711Z" fill="#8E8E8E"/>
<path d="M26.4271 168.13C26.3608 168.12 26.3706 168.054 26.4271 168.13C26.6357 168.093 26.8345 168.122 27.043 168.085C27.043 168.085 26.9768 168.075 26.967 168.142C26.891 168.198 26.8247 168.188 26.7487 168.245C26.6064 168.292 26.4739 168.272 26.2848 168.176C26.2186 168.167 26.2186 168.167 26.1621 168.091C26.0295 168.071 25.973 167.995 25.9263 167.853C25.8698 167.777 25.8795 167.711 25.823 167.635C25.7763 167.492 25.7296 167.35 25.7589 167.151L25.7686 167.085C25.8056 167.293 25.9088 167.512 25.9458 167.72C25.8893 167.644 25.8328 167.568 25.7763 167.492C25.6633 167.34 25.6166 167.198 25.6361 167.065C25.5893 166.923 25.6186 166.724 25.7044 166.601C25.724 166.469 25.8195 166.28 25.9053 166.157C25.9814 166.101 26.0574 166.044 26.1432 165.921C26.2952 165.808 26.4375 165.762 26.5798 165.715C26.7221 165.668 26.8644 165.621 27.0632 165.651C27.1958 165.67 27.3946 165.699 27.5076 165.851C27.6303 165.937 27.7531 166.023 27.8661 166.175C27.9226 166.251 27.9791 166.327 28.0258 166.47C28.0726 166.612 28.1193 166.754 28.09 166.953C28.1368 167.095 28.0412 167.284 28.0217 167.417C27.9456 167.473 27.9261 167.606 27.8501 167.662C27.6882 167.842 27.5362 167.955 27.3179 168.058C27.2419 168.114 27.1093 168.095 27.0333 168.151C26.8149 168.255 26.6161 168.225 26.4271 168.13Z" fill="#8E8E8E"/>
<path d="M22.5098 173.579L22.4436 173.57C22.4436 173.57 22.4436 173.57 22.3773 173.56L22.311 173.55C22.1785 173.531 22.2448 173.54 22.1785 173.531L22.1123 173.521L22.046 173.511C21.9797 173.501 21.9232 173.425 21.8667 173.349C21.8102 173.273 21.82 173.207 21.7635 173.131L21.7733 173.064C21.783 172.998 21.7928 172.932 21.7928 172.932L21.8026 172.865C21.8123 172.799 21.8123 172.799 21.8123 172.799C21.8123 172.799 21.8123 172.799 21.8221 172.733L21.8319 172.666C21.8514 172.534 21.9274 172.477 22.0698 172.43C22.1458 172.374 22.2881 172.327 22.3641 172.271C22.5727 172.234 22.828 172.339 22.9975 172.567C23.167 172.795 23.2039 173.004 23.0986 173.26C23.079 173.392 23.003 173.449 22.8607 173.496C22.7184 173.542 22.5761 173.589 22.5098 173.579Z" fill="#8E8E8E"/>
<path d="M18.9768 177.798C17.9166 177.642 18.1608 175.984 19.2211 176.14C20.2814 176.297 20.0371 177.954 18.9768 177.798Z" fill="#8E8E8E"/>
<path d="M316.782 100.348C316.716 100.339 316.706 100.405 316.782 100.348C316.554 100.518 316.335 100.621 316.117 100.724C315.909 100.761 315.69 100.865 315.482 100.902C315.283 100.872 315.008 100.9 314.809 100.87C314.478 100.821 314.156 100.706 313.845 100.525C313.655 100.429 313.476 100.268 313.363 100.116C313.184 99.9537 313.071 99.8017 312.968 99.5833C312.855 99.4313 312.751 99.2129 312.714 99.0044C312.631 98.6535 312.604 98.3787 312.662 97.9811L312.672 97.9148C312.74 97.4509 312.941 97.0066 313.199 96.6383C313.456 96.27 313.826 96.0537 314.263 95.8472C314.7 95.6408 315.173 95.6428 315.637 95.7112C315.968 95.76 316.29 95.8751 316.602 96.0564C316.914 96.2378 317.159 96.4094 317.319 96.7038C317.601 97.0839 317.742 97.5108 317.816 97.9279C317.88 98.4113 317.811 98.8752 317.611 99.3195C317.41 99.7639 317.096 100.056 316.782 100.348Z" fill="#8E8E8E"/>
<path d="M305.333 105.906C305.068 105.867 304.813 105.762 304.567 105.59C304.312 105.485 304.133 105.323 303.973 105.029C303.804 104.801 303.7 104.582 303.607 104.298C303.513 104.013 303.486 103.738 303.525 103.473C303.555 103.274 303.65 103.085 303.67 102.953C303.785 102.631 304.032 102.329 304.336 102.103C304.488 101.99 304.631 101.944 304.783 101.831C305.143 101.681 305.485 101.663 305.882 101.722C306.147 101.761 306.403 101.866 306.648 102.038C306.903 102.143 307.083 102.305 307.242 102.599C307.412 102.827 307.515 103.046 307.609 103.33C307.702 103.615 307.729 103.89 307.69 104.155C307.661 104.353 307.565 104.542 307.546 104.675C307.431 104.996 307.183 105.299 306.879 105.525C306.727 105.638 306.585 105.684 306.433 105.797C306.072 105.947 305.731 105.965 305.333 105.906Z" fill="#8E8E8E"/>
<path d="M298.55 108.292C298.417 108.272 298.218 108.243 298.105 108.091C297.983 108.005 297.86 107.919 297.747 107.767C297.634 107.615 297.577 107.539 297.54 107.331C297.494 107.188 297.447 107.046 297.476 106.847C297.496 106.715 297.505 106.648 297.591 106.526C297.687 106.337 297.782 106.148 298.001 106.044C298.077 105.988 298.153 105.931 298.295 105.885C298.513 105.781 298.712 105.811 298.911 105.84C299.043 105.859 299.242 105.889 299.355 106.041C299.478 106.127 299.601 106.212 299.714 106.364C299.827 106.516 299.883 106.592 299.92 106.801C299.967 106.943 300.014 107.086 299.984 107.284C299.965 107.417 299.955 107.483 299.869 107.606C299.774 107.795 299.678 107.984 299.46 108.087C299.384 108.144 299.308 108.2 299.166 108.247C298.957 108.284 298.748 108.321 298.55 108.292Z" fill="#8E8E8E"/>
<path d="M339.61 210.551C339.581 210.75 339.341 211.459 339.476 211.005C339.62 210.485 339.351 211.393 339.331 211.525C339.39 211.128 339.458 210.664 339.517 210.266C339.569 211.29 339.033 212.633 337.904 212.94C336.206 213.435 334.405 213.711 332.594 214.054C330.575 214.433 327.17 215.489 326.434 212.672C326.173 211.686 326.594 210.664 327.421 210.109C328.095 209.667 328.664 209.48 329.432 209.322C330.2 209.164 330.968 209.007 331.736 208.849C333.339 208.544 334.951 208.172 336.6 208.008C337.699 207.9 338.966 208.492 339.273 209.621C339.18 209.337 339.01 209.108 338.831 208.947C339.01 209.108 339.19 209.27 339.293 209.489C339.519 209.793 339.603 210.144 339.61 210.551Z" fill="#8E8E8E"/>
<path d="M355.226 205.201C355.386 205.495 355.403 205.837 355.364 206.102C355.337 205.827 355.3 205.618 355.273 205.343C355.573 206.065 355.276 206.698 354.914 207.322C354.666 207.624 354.296 207.84 353.991 208.066C353.631 208.216 353.697 208.226 353.204 208.356C353.138 208.346 353.128 208.413 353.062 208.403C352.919 208.45 352.721 208.42 352.578 208.467C352.038 208.455 351.452 208.301 351.027 207.968C350.546 207.558 350.302 206.913 350.39 206.317C350.439 205.985 350.544 205.73 350.792 205.428C350.963 205.182 351.258 205.023 351.552 204.863C351.78 204.693 352.111 204.742 352.396 204.649C352.254 204.695 352.045 204.732 351.903 204.779C352.254 204.695 352.605 204.612 352.946 204.594C353.012 204.604 353.154 204.557 353.221 204.567C353.495 204.54 353.694 204.569 353.969 204.542C353.836 204.522 353.628 204.559 353.495 204.54C353.562 204.55 353.562 204.55 353.628 204.559C353.694 204.569 353.76 204.579 353.827 204.589C353.969 204.542 354.102 204.561 354.224 204.647C354.357 204.667 354.48 204.753 354.602 204.838C354.669 204.848 354.725 204.924 354.848 205.01C354.526 204.895 354.129 204.836 353.807 204.721C353.873 204.731 353.94 204.741 354.006 204.75C354.281 204.723 354.546 204.762 354.735 204.858C354.791 204.934 354.858 204.944 354.98 205.029C355.066 204.907 355.179 205.059 355.226 205.201Z" fill="#8E8E8E"/>
<path d="M373.416 200.298C373.34 200.355 373.198 200.402 373.122 200.458C373.046 200.515 373.046 200.515 372.97 200.571L372.894 200.628C372.818 200.684 372.752 200.674 372.676 200.731C372.6 200.787 372.533 200.778 372.457 200.834C372.381 200.891 372.239 200.937 372.173 200.927C372.107 200.918 372.031 200.974 372.031 200.974C371.746 201.068 371.471 201.095 371.206 201.056C371.073 201.036 370.951 200.951 370.818 200.931C370.695 200.845 370.573 200.759 370.45 200.674C370.771 200.789 371.103 200.838 371.424 200.953C371.358 200.943 371.358 200.943 371.292 200.933C371.226 200.923 371.159 200.914 371.093 200.904C370.894 200.875 370.96 200.884 370.762 200.855C370.629 200.835 370.44 200.74 370.317 200.654C370.261 200.578 370.204 200.502 370.082 200.416C370.025 200.34 370.025 200.34 370.035 200.274C369.978 200.198 369.978 200.198 369.988 200.132C369.932 200.056 369.951 199.923 369.895 199.847C369.914 199.715 369.924 199.648 369.877 199.506C369.897 199.373 369.906 199.307 369.992 199.184C370.012 199.052 370.088 198.995 370.174 198.873C370.183 198.806 370.25 198.816 370.259 198.75C370.144 199.071 370.095 199.403 369.98 199.724C369.924 199.648 369.943 199.516 369.953 199.449C369.916 199.241 369.945 199.042 370.041 198.853C370.051 198.787 370.127 198.73 370.137 198.664C370.232 198.475 370.318 198.352 370.536 198.249C370.612 198.192 370.612 198.192 370.688 198.136C370.764 198.079 370.85 197.957 370.926 197.9C371.078 197.787 371.363 197.694 371.515 197.581C371.591 197.524 371.733 197.477 371.809 197.421C372.028 197.318 372.236 197.281 372.435 197.31C372.644 197.273 372.842 197.302 373.031 197.398C373.154 197.484 373.277 197.57 373.409 197.589C373.598 197.685 373.702 197.903 373.815 198.055C373.871 198.131 373.918 198.273 373.965 198.416C374.002 198.624 374.039 198.833 374.009 199.032C373.99 199.164 373.904 199.287 373.885 199.419C373.816 199.883 373.645 200.129 373.416 200.298Z" fill="#8E8E8E"/>
<path d="M142.308 343.611L142.305 343.611C138.054 344.529 134.277 347.006 130.883 349.798L130.882 349.799C127.267 352.756 124.013 356.215 121.998 360.376C119.981 364.54 119.271 369.463 120.81 373.748L120.81 373.749C122.672 378.941 127.446 382.33 132.683 383.304C136.379 383.986 140.351 384.217 143.676 382.404C146.595 380.784 148.607 377.95 150.336 374.976C150.436 374.802 150.537 374.626 150.639 374.45C152.941 370.458 155.409 366.18 157.009 361.906C158.716 356.667 158.372 350.175 154.324 346.359C151.239 343.471 146.493 342.683 142.308 343.611Z" stroke="#D0D0D0"/>
<path d="M449.059 83.6282C446.483 85.2857 446.537 89.5781 448.843 91.6038C451.15 93.6294 454.751 93.3873 457.336 91.661C459.854 89.9249 461.384 86.9895 462.232 84.0239C462.804 82.001 463.005 79.7126 461.963 77.9436C460.2 75.0148 455.727 75.1284 453.081 77.2671C450.435 79.4058 449.18 82.8032 448.023 86.0042" fill="#8E8E8E"/>
<path d="M128.339 146.959C129.892 144.35 130.754 140.827 128.751 138.572C125.74 135.223 120.047 137.492 116.958 139.335C113.87 141.178 110.022 143.044 107.691 145.809C105.524 148.396 105.669 152.54 107.393 155.294C109.567 158.723 114.672 157.651 117.759 156.281C122.155 154.428 125.948 151.067 128.339 146.959Z" fill="#8E8E8E"/>
<path d="M225.616 166.342C223.523 166.747 221.011 168.16 221.376 170.282C221.589 171.597 222.833 172.351 223.966 172.946C229.082 175.483 234.673 177.091 240.353 177.643C243.159 177.914 245.997 177.975 248.809 177.747C251.279 177.541 254.413 177.432 256.482 175.811C259.327 173.52 259.169 169.075 255.832 167.799C252.364 166.503 248.25 166.824 244.612 166.217C238.264 165.139 231.982 164.998 225.616 166.342Z" fill="#8E8E8E"/>
<path d="M35.9464 217.942C35.6271 223.785 31.2382 228.758 26.7992 232.234C21.7323 236.294 15.6778 238.788 10.009 241.879C8.61319 242.621 7.28369 243.373 5.93467 244.258C4.88977 244.916 3.73954 245.83 3.27151 246.709C3.26175 246.775 2.87952 247.532 2.98484 247.276C2.96531 247.409 2.93602 247.608 2.91649 247.74C2.96531 247.409 2.91649 247.74 2.89697 247.873C3.02742 248.366 2.93393 248.081 2.94369 248.015C3.0274 248.366 3.03719 248.3 2.99045 248.157C3.09369 248.376 3.15995 248.385 3.03718 248.3C3.21645 248.461 3.39574 248.623 3.58477 248.719C3.39574 248.623 3.96284 248.91 4.09537 248.929C4.4832 249.054 4.35065 249.035 4.68198 249.084C5.26862 249.238 6.13986 249.298 6.61349 249.3C12.3633 249.335 17.6289 245.304 22.1245 241.904C26.6298 238.438 31.0145 234.412 33.9629 229.566C35.3084 227.326 36.6462 224.68 36.951 222.152C36.9705 222.019 36.99 221.887 37.0095 221.754C36.9607 222.086 37.0095 221.754 37.0193 221.688C36.9921 221.413 36.9649 221.138 36.9376 220.864C37.0214 221.214 36.8442 220.579 36.7877 220.503C37.0039 220.873 36.7877 220.503 36.7877 220.503C36.9007 220.655 36.967 220.665 36.8442 220.579C36.7214 220.493 36.7214 220.493 36.9104 220.589C36.9104 220.589 36.7116 220.559 36.7877 220.503C36.7877 220.503 37.0625 220.476 36.7779 220.569C36.6356 220.616 36.4933 220.663 36.3413 220.776C35.8188 221.105 35.5321 221.672 35.3117 222.249C34.6993 223.648 34.2759 225.143 33.531 226.523C32.7861 227.903 31.9086 229.263 30.9181 230.471C29.0034 232.897 26.5879 235.046 24.0887 236.845C21.2853 238.869 18.332 240.533 15.3689 242.263C13.9633 243.071 12.5676 243.813 11.2283 244.632C10.6298 245.017 10.0313 245.403 9.48937 245.865C9.48937 245.865 9.0897 246.28 9.00391 246.403C8.90835 246.592 8.81276 246.781 8.72696 246.904C8.76602 246.639 8.81068 247.254 8.7172 246.97C8.68999 246.695 8.80094 247.321 8.77373 247.046C8.69001 246.695 8.77372 247.046 8.95299 247.208C8.66071 246.894 8.95298 247.208 9.01924 247.217C8.75418 247.178 8.953 247.208 9.08553 247.227C9.21807 247.247 9.34082 247.333 9.46359 247.418C9.00949 247.284 9.6624 247.448 9.72867 247.457C9.8612 247.477 10.136 247.45 9.79492 247.467C9.93722 247.42 10.136 247.45 10.2783 247.403C10.2121 247.393 9.91769 247.553 10.4869 247.366C10.6292 247.319 10.8475 247.216 10.9898 247.169C11.5688 246.916 12.0249 246.577 12.5571 246.182C15.1324 244.327 17.5284 242.31 19.8679 240.217C24.4046 236.079 28.4328 231.256 32.2057 226.328C33.1299 225.11 34.2334 224.054 35.2803 222.921C36.3273 221.789 38.0754 222.792 37.576 224.343C36.981 226.083 36.2828 227.605 35.3098 229.155C34.3465 230.638 33.3833 232.121 32.2972 233.518C30.1914 236.322 27.8499 238.888 25.3855 241.369C22.8549 243.84 20.2015 246.225 17.4449 248.391C14.622 250.548 11.4092 253.054 7.6731 251.759C5.93272 251.164 4.59413 249.68 4.26136 247.803C3.94811 245.793 4.96019 243.979 6.37756 242.631C7.64287 241.395 9.25693 240.55 10.8048 239.694C12.5046 238.726 14.2708 237.768 16.037 236.809C21.7058 233.718 27.7471 229.936 30.6062 223.858C31.3804 222.279 31.7765 220.509 32.7398 219.026C33.7791 217.487 35.6408 216.339 37.5625 216.623C41.2072 217.16 41.9 221.189 41.1195 224.188C39.4044 230.774 35.2026 236.316 30.3227 240.945C27.8876 243.227 25.2831 245.281 22.5557 247.249C19.7524 249.273 16.836 251.145 13.6664 252.438C10.5728 253.675 6.95122 254.36 3.69647 253.475C1.87029 253.002 0.188529 252.01 -0.703671 250.253C-1.54913 248.639 -1.39853 246.698 -0.558031 245.129C1.20876 241.869 4.80733 239.962 8.03551 238.271C11.2539 236.646 14.519 235.164 17.794 233.615C23.4705 230.931 29.3304 227.461 32.6513 221.925C33.4527 220.621 34.1314 219.231 34.7536 217.766C34.9 216.772 35.9875 217.203 35.9464 217.942Z" fill="#D0D0D0"/>
<path d="M36.6931 224.822C35.4899 227.015 34.4095 229.293 32.951 231.38C31.5022 233.401 29.9503 235.203 28.1995 236.976C24.5556 240.569 20.2512 243.591 15.6 245.749C14.214 246.425 12.8476 246.969 11.3681 247.36C10.7326 247.537 10.0309 247.705 9.3585 247.673C8.95114 247.681 8.61003 247.699 8.21243 247.64C8.0799 247.62 7.88109 247.591 7.75832 247.505C7.63555 247.42 7.50304 247.4 7.39003 247.248C7.33353 247.172 7.33351 247.172 7.45628 247.258C6.66108 247.141 6.52297 246.24 7.07471 245.712C6.99868 245.769 6.86404 246.223 6.99865 245.769C7.10397 245.513 7.19955 245.324 7.36137 245.145C7.5232 244.966 7.75128 244.796 7.97937 244.627C8.44532 244.221 9.02426 243.968 9.5467 243.639C10.6481 243.056 11.7495 242.474 12.9074 241.968C15.0907 240.935 16.9329 239.92 18.9467 238.66C22.8319 236.185 26.4639 233.132 29.6048 229.736C31.4512 227.774 33.3638 225.821 34.7853 223.526C35.4619 222.61 37.3229 223.764 36.6931 224.822Z" fill="#D0D0D0"/>
<path d="M10.5441 245.14C10.0467 246.218 9.25714 246.982 8.222 247.574C7.11084 248.222 5.97245 248.596 4.75035 248.619C5.25536 247.949 5.8364 247.222 6.34141 246.552C6.36654 247.3 6.32542 248.039 6.27452 248.844C5.70949 248.084 5.14444 247.323 4.52291 246.487C4.98677 246.555 5.45064 246.624 5.84824 246.682C5.91451 246.692 6.32188 246.684 5.98078 246.702C5.63968 246.719 6.04706 246.712 6.11332 246.721C6.32189 246.684 6.58695 246.723 6.79552 246.687C7.21264 246.613 7.62975 246.539 8.11314 246.474C8.25544 246.428 8.32171 246.437 8.464 246.391C8.53027 246.4 8.95717 246.26 8.60631 246.344C8.25544 246.428 8.68234 246.287 8.74861 246.297C8.89091 246.251 8.95718 246.26 9.09947 246.214C9.52636 246.073 9.887 245.923 10.3139 245.783C10.5322 245.68 10.7408 245.643 10.9591 245.54C11.0351 245.483 11.1774 245.436 11.2535 245.38C11.4718 245.277 10.8831 245.596 11.2535 245.38C11.5478 245.22 11.8422 245.06 12.1833 245.043C12.041 245.09 12.041 245.09 12.1833 245.043C12.3256 244.996 12.4114 244.873 12.5536 244.827C13.0001 244.554 13.3802 244.271 13.8734 244.141C14.5849 243.907 15.3215 244.422 15.2043 245.217C15.1164 245.814 14.8298 246.381 14.4866 246.872C14.4008 246.995 14.315 247.117 14.239 247.174C14.2292 247.24 13.9251 247.466 14.0869 247.287C14.239 247.174 14.0109 247.343 14.0011 247.41C13.7437 247.778 13.7242 247.911 13.3441 248.193C12.5545 248.957 11.5856 249.559 10.57 250.019C9.55438 250.478 8.43555 250.72 7.33623 250.828C6.23691 250.937 5.02456 250.894 3.91755 250.596C3.39718 250.451 2.88657 250.241 2.54755 249.784C2.2748 249.338 2.0216 248.759 2.16598 248.239C2.33965 247.519 2.51329 246.8 2.76299 246.025C3.00292 245.315 3.96204 244.78 4.74747 244.963C4.94627 244.992 5.21136 245.031 5.47643 245.07C5.5427 245.08 5.67521 245.1 5.74147 245.109C6.07281 245.158 5.53293 245.146 5.80776 245.119C6.28139 245.121 6.6985 245.047 7.11562 244.973C7.18189 244.983 7.32421 244.936 7.18192 244.983C7.32421 244.936 7.39048 244.946 7.53278 244.899C7.74134 244.862 7.89339 244.749 8.11172 244.646C8.47235 244.496 8.909 244.29 9.21312 244.064C9.88763 243.621 10.9361 244.318 10.5441 245.14Z" fill="#D0D0D0"/>
<path d="M36.5423 220.331C36.4349 221.06 36.3937 221.799 36.2863 222.528C36.2375 222.859 36.1887 223.19 36.0638 223.578C36.0248 223.843 35.9194 224.099 35.8141 224.354C35.7088 224.609 35.6035 224.865 35.4319 225.11C35.1745 225.479 34.6053 225.666 34.1512 225.531C33.6971 225.396 33.3483 225.006 33.2841 224.523C33.146 223.622 33.5478 222.734 33.8072 221.892C34.0472 221.182 34.3436 220.549 34.5836 219.839C34.7942 219.329 35.3634 219.142 35.8175 219.276C36.2813 219.345 36.6204 219.801 36.5423 220.331Z" fill="#D0D0D0"/>
<path d="M36.9204 220.522C36.9378 220.863 36.9552 221.205 36.9727 221.546C36.926 221.403 36.9357 221.337 36.889 221.195C36.9259 221.403 36.9727 221.546 37.0097 221.754C36.9999 221.821 37.0467 221.963 37.0369 222.029C37.0739 222.238 37.0543 222.37 37.0913 222.579C37.1067 223.394 37.0265 224.397 36.2759 224.896C35.9718 225.122 35.4786 225.253 35.081 225.194C34.6834 225.135 34.3151 224.878 34.0229 224.564C33.4481 223.87 33.6706 222.82 33.9105 222.11C34.0061 221.921 34.0256 221.789 34.1211 221.599C34.1309 221.533 34.2167 221.41 34.2265 221.344C34.322 221.155 34.4078 221.032 34.5034 220.843C34.4176 220.966 34.4078 221.032 34.322 221.155C34.4371 220.834 34.5522 220.512 34.6673 220.19C34.8019 219.736 35.3906 219.417 35.8545 219.485C36.4411 219.639 36.9322 219.982 36.9204 220.522Z" fill="#D0D0D0"/>
<path d="M43.1372 209.116C43.2034 209.126 43.2034 209.126 43.2599 209.202C43.0611 209.172 42.8721 209.077 42.607 209.038C42.6733 209.048 42.6733 209.048 42.7395 209.057C41.952 209.348 41.2308 209.648 40.4433 209.938C40.4433 209.938 40.4433 209.938 40.4531 209.871C40.6149 209.692 40.7669 209.579 40.9287 209.4C41.2329 209.174 41.5175 209.08 41.8021 208.987C42.0204 208.884 42.229 208.847 42.494 208.886C42.8351 208.868 43.1664 208.917 43.4783 209.099C43.4783 209.099 43.5445 209.108 43.6108 209.118C43.412 209.089 43.1567 208.983 42.9579 208.954C42.9579 208.954 42.9579 208.954 43.0241 208.964C43.2229 208.993 43.4782 209.099 43.677 209.128C44.0551 209.319 44.4234 209.576 44.706 209.956C44.2051 209.68 43.638 209.393 43.1372 209.116C43.0807 209.04 43.0807 209.04 43.1372 209.116C42.9384 209.087 42.6733 209.048 42.4745 209.018C42.4745 209.018 42.4745 209.018 42.5407 209.028C42.3322 209.065 42.1236 209.102 41.9053 209.205C41.9053 209.205 41.9716 209.215 41.9813 209.149C41.8293 209.262 41.6109 209.365 41.4589 209.478C41.5349 209.422 41.611 209.365 41.7532 209.318C41.9053 209.205 42.1236 209.102 42.3322 209.065C42.5505 208.962 42.7493 208.991 42.9481 209.02C43.0904 208.974 43.2229 208.993 43.3555 209.013C42.6147 209.445 41.8837 209.811 41.1429 210.244C41.1527 210.178 41.2287 210.121 41.2287 210.121C41.1994 210.32 41.1136 210.443 41.0843 210.641C41.0941 210.575 41.0941 210.575 41.1039 210.509C41.2113 209.78 41.6967 209.242 42.3517 208.933C42.7123 208.783 43.0534 208.765 43.3848 208.814C43.7161 208.863 44.0377 208.978 44.3397 209.225C44.3962 209.302 44.632 209.539 44.6885 209.615C44.8015 209.767 44.8482 209.91 44.9515 210.128C44.9515 210.128 44.9417 210.194 45.008 210.204C45.045 210.413 45.0917 210.555 45.1287 210.763C44.7332 210.231 44.2811 209.623 43.8856 209.091C44.0746 209.186 44.2637 209.282 44.3767 209.434C44.6222 209.606 44.7917 209.834 44.9515 210.128C45.0645 210.28 45.1677 210.498 45.2047 210.707C45.2982 210.992 45.3157 211.333 45.2668 211.664C45.2473 211.797 45.2375 211.863 45.1517 211.986C45.1322 212.118 45.1225 212.184 45.0367 212.307C45.0367 212.307 45.0367 212.307 45.0269 212.373C44.9313 212.562 44.8358 212.751 44.6739 212.931L44.6642 212.997C44.7597 212.808 44.8553 212.619 45.0171 212.44C45.0757 212.042 45.1441 211.578 45.2026 211.181C45.3408 212.081 44.9293 213.036 44.1787 213.535C43.6465 213.93 43.4477 213.901 42.8122 214.078C42.6134 214.049 42.3386 214.076 42.1398 214.047C41.8085 213.998 41.4869 213.883 41.1751 213.701C40.9861 213.606 40.8068 213.444 40.6275 213.282C40.3918 213.044 40.156 212.807 40.0723 212.456C40.0255 212.313 40.0353 212.247 39.9886 212.105C39.9418 211.963 39.8853 211.887 39.9048 211.754C40.2341 212.276 40.4873 212.855 40.8166 213.378C40.6373 213.216 40.458 213.054 40.2885 212.826L40.232 212.75C40.119 212.598 40.0157 212.38 39.9125 212.161C39.9125 212.161 39.9125 212.161 39.9223 212.095C39.8853 211.887 39.8483 211.678 39.7451 211.46C39.7744 211.261 39.7374 211.052 39.7764 210.787C39.8057 210.589 39.9013 210.399 39.9404 210.134C40.0554 209.813 40.227 209.567 40.4551 209.398C40.6169 209.219 40.769 209.106 40.9113 209.059C41.0634 208.946 41.2817 208.843 41.4903 208.806C41.7086 208.702 41.9074 208.732 42.1062 208.761C42.494 208.886 42.8156 209.001 43.1372 209.116Z" fill="#D0D0D0"/>
<path d="M49.3724 202.181C49.3061 202.171 49.3061 202.171 49.2398 202.162L49.1736 202.152C49.041 202.132 48.8987 202.179 48.7662 202.159C48.6337 202.14 48.5011 202.12 48.3121 202.025C48.2458 202.015 48.1893 201.939 48.1231 201.929C48.0568 201.919 48.0003 201.843 47.8775 201.758C48.3414 201.826 48.8053 201.894 49.2691 201.963C49.1268 202.009 49.0508 202.066 48.9183 202.046C48.776 202.093 48.5674 202.13 48.4349 202.111C48.3686 202.101 48.3023 202.091 48.2361 202.081L48.1698 202.072C48.0373 202.052 47.9047 202.032 47.782 201.947C47.4604 201.832 47.1779 201.451 47.1605 201.11C47.1702 201.044 47.1897 200.911 47.143 200.769L47.1528 200.703L47.1625 200.637C47.1918 200.438 47.2776 200.315 47.3732 200.126C47.3829 200.06 47.459 200.003 47.4687 199.937C47.5545 199.814 47.6306 199.758 47.6501 199.625C47.5817 200.089 47.5134 200.553 47.445 201.017C47.445 201.017 47.445 201.017 47.4548 200.951C47.4081 200.808 47.3613 200.666 47.3808 200.533C47.3906 200.467 47.3341 200.391 47.4101 200.335C47.3634 200.192 47.3829 200.06 47.4687 199.937C47.4883 199.804 47.498 199.738 47.5741 199.682C47.5838 199.615 47.5838 199.615 47.5936 199.549C47.6989 199.294 47.8705 199.048 48.1747 198.822C48.4027 198.653 48.6873 198.559 49.0382 198.475C49.6541 198.431 50.2972 198.661 50.6265 199.183C51.022 199.716 51.0667 200.332 50.8462 200.909C50.7409 201.164 50.5693 201.409 50.2652 201.635C49.9318 202.06 49.6472 202.154 49.3724 202.181Z" fill="#D0D0D0"/>
</g>
</svg>
