<svg width="546" height="502" viewBox="0 0 546 502" fill="none" xmlns="http://www.w3.org/2000/svg">
<mask id="mask0" mask-type="alpha" maskUnits="userSpaceOnUse" x="0" y="0" width="546" height="502">
<rect width="546" height="502" fill="#C4C4C4"/>
</mask>
<g mask="url(#mask0)">
<path d="M362.495 471.769C390.164 479.701 419.933 483.237 447.602 475.209C475.175 467.181 500.077 445.677 506.279 417.579C508.569 407.066 508.283 396.171 508.76 385.466C509.237 374.667 510.477 363.676 515.629 354.214C520.781 344.752 530.513 337.202 541.295 337.393C550.168 337.584 558.278 342.936 564.289 349.435C584.039 370.653 585.851 404.772 573.162 430.863C560.472 456.955 535.475 475.4 508.378 485.818C461.913 503.594 407.243 499.294 364.404 473.776L362.495 471.769Z" fill="#D0D0D0"/>
<path d="M530.258 33.837L530.258 33.837L530.264 33.8309C533.038 31.1684 535.831 27.9846 537.574 24.6002C539.315 21.2199 539.983 17.6951 538.613 14.2903L538.613 14.2893C537.105 10.5201 533.788 8.3953 529.73 7.36623C525.668 6.33611 520.93 6.42514 516.734 7.04118C480.136 12.566 446.695 35.9079 429.067 68.197C428.012 70.1527 426.958 72.3022 426.457 74.4796C425.958 76.647 426.016 78.8061 427.139 80.8178C427.924 82.1939 428.848 83.1655 429.933 83.7429C431.013 84.318 432.297 84.5256 433.844 84.2997C442.358 82.9678 450.98 80.2073 459.153 77.3394L459.153 77.3393C467.599 74.3813 475.851 70.8511 483.816 66.7487C491.782 62.6454 499.46 58.065 506.851 53.0075C514.233 47.8602 521.232 42.2361 527.85 36.2302C528.375 35.6453 528.954 35.0919 529.501 34.5694C529.764 34.3182 530.019 34.0741 530.258 33.837Z" stroke="#515151"/>
<path d="M439.084 292.619C457.096 257.359 463.036 214.241 492.545 187.796C515.443 167.292 547.634 161.543 578.006 156.752C571.586 134.906 549.838 119.575 527.227 117.372C504.617 115.168 481.91 124.654 464.76 139.697C447.707 154.74 435.731 174.765 426.916 195.749C418.102 216.733 412.066 238.674 404.976 260.233C397.886 281.792 389.551 303.254 376.617 321.938C368.761 333.34 359.18 343.497 348.449 352.12C337.623 360.84 325.551 368.026 312.713 373.391C309.168 374.829 305.527 376.17 301.887 377.416C300.066 377.991 298.246 378.565 296.33 379.045C294.893 379.428 292.881 379.619 291.731 380.578C294.318 381.057 297.479 380.673 300.066 380.578C303.036 380.482 306.006 380.29 308.976 380.003C314.821 379.428 320.665 378.565 326.509 377.32C338.006 374.924 349.216 371.283 359.946 366.493C370.773 361.702 381.024 355.761 390.605 348.767C400.09 341.868 408.904 334.011 416.761 325.196C424.617 316.381 431.515 306.704 437.168 296.356C437.743 295.11 438.413 293.864 439.084 292.619Z" fill="#9C9C9C"/>
<path d="M317.595 424.362L317.597 424.362C330.694 419.153 343.285 411.377 350.944 399.761L350.944 399.76C352.116 397.989 353.068 395.732 353.29 393.641C353.51 391.555 353.003 389.726 351.384 388.617L351.382 388.615C350.373 387.916 349.146 387.711 347.81 387.794C346.47 387.877 345.066 388.247 343.741 388.65L343.739 388.651C343.315 388.778 342.89 388.905 342.466 389.033C315.51 397.125 287.819 405.438 259.605 403.31L259.603 403.31C240.355 401.783 221.737 395.408 203.83 388.393C201.28 387.424 198.537 386.406 195.759 385.835C192.983 385.264 190.208 385.147 187.594 385.951C187.012 386.135 186.365 386.357 185.837 386.689C185.314 387.019 184.97 387.417 184.884 387.937C184.796 388.467 185.005 389.053 185.407 389.703C185.67 390.127 185.968 390.513 186.264 390.895C186.432 391.112 186.599 391.328 186.759 391.549L186.759 391.549L186.761 391.553C188.617 394.175 190.593 396.738 192.722 399.158C196.988 404.004 201.72 408.423 206.863 412.292C212.009 416.164 217.624 419.61 223.442 422.529C229.254 425.445 235.388 427.778 241.668 429.463C242.058 429.559 242.437 429.677 242.811 429.794L242.842 429.804C243.21 429.919 243.576 430.034 243.97 430.136C268.231 436.24 294.374 433.685 317.595 424.362ZM351.361 400.036C353.769 396.396 355.319 390.708 351.667 388.204L351.361 400.036Z" stroke="#8E8E8E"/>
<path d="M455.909 315.779C458.54 314.715 459.803 311.61 458.435 309.393C457.067 307.175 453.489 306.2 450.859 307.264C448.228 308.417 446.965 311.344 448.228 313.65C449.491 315.957 452.963 317.11 455.699 316.134" fill="#8E8E8E"/>
<path d="M518.879 309.491L518.88 309.489C523.177 305.502 528.316 302.681 533.735 301.124L533.744 301.122L533.744 301.122C537.725 299.903 543.246 298.955 548.386 299.404C553.533 299.854 558.187 301.689 560.626 305.92C561.804 308.01 561.572 310.019 560.608 311.82C559.631 313.644 557.904 315.239 556.145 316.395L556.144 316.396C553.74 317.984 551.094 318.978 548.357 319.875C547.755 320.072 547.147 320.265 546.537 320.459C544.389 321.14 542.207 321.833 540.118 322.765L518.879 309.491ZM518.879 309.491C516.453 311.724 514.336 314.419 513.235 317.57M518.879 309.491L513.235 317.57M513.235 317.57C512.139 320.71 512.34 324.374 514.21 326.971L513.235 317.57Z" stroke="#D0D0D0"/>
<path d="M369.059 206.326C371.647 202.493 373.851 198.276 376.151 194.251C378.547 190.131 380.943 186.01 383.434 181.985C385.83 177.96 388.226 173.935 390.526 169.814C391.676 167.802 392.826 165.693 393.976 163.681C395.03 161.764 396.276 159.656 398.097 158.314C398.48 158.027 399.151 158.41 399.055 158.889C398.959 161.093 397.809 163.393 396.755 165.31C395.701 167.322 394.551 169.335 393.401 171.252C391.005 175.372 388.609 179.493 386.118 183.518C383.626 187.543 381.039 191.472 378.259 195.21C376.918 197.031 375.576 198.851 374.139 200.672C372.605 202.685 370.88 204.506 369.443 206.614C369.347 206.901 368.868 206.614 369.059 206.326Z" fill="#9C9C9C"/>
<path d="M402.505 153.426C402.409 153.235 402.409 152.947 402.409 152.756C402.409 152.468 402.313 152.276 402.409 151.989C402.505 151.414 402.601 150.935 402.792 150.36C403.176 149.306 403.559 148.251 404.134 147.293C404.613 146.335 405.092 145.472 405.763 144.61C406.147 144.131 406.53 143.651 407.009 143.268C407.392 142.981 407.871 142.501 408.446 142.597C408.734 142.597 408.926 142.789 409.022 143.076C409.117 143.556 408.926 144.035 408.83 144.514C408.638 144.993 408.447 145.568 408.063 146.047C407.488 146.91 406.913 147.772 406.434 148.731C405.955 149.593 405.476 150.456 404.901 151.414C404.613 151.893 404.422 152.372 404.038 152.756C403.847 152.947 403.751 153.139 403.559 153.331C403.463 153.331 403.463 153.426 403.367 153.426V153.522C403.272 153.618 403.176 153.714 402.984 153.81C402.697 153.618 402.505 153.522 402.505 153.426Z" fill="#9C9C9C"/>
<path d="M412.663 135.889C412.567 134.931 412.759 133.972 413.142 133.11C413.334 132.726 413.717 132.343 414.005 131.96C414.196 131.768 414.388 131.672 414.58 131.576C414.58 131.576 414.484 131.576 414.484 131.672C414.484 131.672 414.58 131.672 414.58 131.576C414.58 131.576 414.675 131.576 414.675 131.481C415.059 131.289 415.442 131.289 415.73 131.481C415.921 131.576 416.017 131.768 416.017 131.96C416.017 132.247 415.921 132.535 415.73 132.726L415.634 132.822C415.538 132.918 415.634 132.822 415.634 132.726C415.634 132.822 415.442 133.014 415.346 133.11C415.25 133.206 415.059 133.397 414.963 133.493C414.867 133.589 414.963 133.589 414.963 133.493C415.059 133.397 415.059 133.397 414.867 133.589L414.771 133.685C414.675 133.876 414.867 133.493 414.771 133.685L414.675 133.781C414.484 134.068 414.292 134.451 414.1 134.739C414.1 134.739 414.005 134.931 414.1 134.739C414.1 134.739 414.1 134.835 414.005 134.835C414.005 134.931 413.909 135.026 413.909 135.122C413.909 135.218 413.909 135.314 413.813 135.41C413.813 135.506 413.813 135.506 413.813 135.41C413.813 135.506 413.813 135.506 413.813 135.601C413.813 135.985 413.525 136.272 413.142 136.272C412.95 136.464 412.663 136.272 412.663 135.889Z" fill="#9C9C9C"/>
<path d="M264.314 245.905C273.706 241.114 281.277 232.585 289.422 226.068C293.351 222.81 297.185 219.072 301.401 216.197C303.51 214.76 307.631 213.226 309.643 215.91C314.531 222.426 299.006 231.722 294.885 234.501C285.685 240.826 275.143 243.03 265.272 247.534C264.123 248.014 263.164 246.384 264.314 245.905Z" fill="#D0D0D0"/>
<path d="M313.285 207.572C313.572 206.23 314.53 204.793 315.776 204.218C318.172 202.876 321.622 204.505 321.526 207.476C321.43 208.818 320.856 210.447 319.706 211.31C319.035 211.885 318.364 212.268 317.501 212.364C316.639 212.46 315.776 212.364 315.106 211.885C313.572 210.926 312.901 209.297 313.285 207.572Z" fill="#D0D0D0"/>
<path d="M321.239 200.768C321.335 200.001 321.718 199.235 322.389 198.755C323.155 198.085 324.018 197.797 325.072 198.084C325.551 198.18 325.934 198.372 326.318 198.755C327.276 199.714 327.372 201.151 326.701 202.301C326.414 202.78 326.03 203.259 325.551 203.547C325.264 203.739 324.88 203.834 324.497 203.93C323.634 204.218 322.58 203.834 322.005 203.259C321.239 202.589 321.143 201.726 321.239 200.768Z" fill="#D0D0D0"/>
<path d="M326.988 197.127C326.892 197.031 326.892 197.031 326.988 197.127C326.126 196.552 325.742 195.689 325.934 194.731C326.03 194.443 326.126 194.252 326.222 193.964C326.605 193.197 327.659 192.718 328.522 193.006C329.384 193.293 329.959 194.06 330.055 194.922C330.055 195.21 330.055 195.497 329.959 195.689C329.863 196.168 329.576 196.456 329.192 196.743C328.809 197.031 328.426 197.127 327.947 197.222C327.659 197.318 327.18 197.222 326.988 197.127Z" fill="#D0D0D0"/>
<path d="M364.939 142.023C365.13 141.16 365.322 140.393 365.418 139.531C365.514 138.668 365.418 137.806 365.705 137.039C365.705 137.518 365.705 137.998 365.705 138.477C364.747 135.698 368.293 132.823 370.689 134.739C373.084 136.56 371.168 140.681 368.197 140.393C368.676 140.298 369.059 140.106 369.539 140.01C368.964 140.393 368.293 140.489 367.718 140.873C367.047 141.352 366.664 141.927 366.28 142.598C365.897 143.364 364.747 142.885 364.939 142.023Z" fill="#D0D0D0"/>
<path d="M371.838 129.756C371.838 129.66 371.838 129.564 371.934 129.468C372.03 129.756 372.03 129.947 372.126 130.235C372.03 130.139 371.934 130.043 371.838 130.043C371.072 129.372 371.359 128.222 372.126 127.743C372.126 127.743 372.126 127.743 372.222 127.743C372.605 127.551 373.084 127.456 373.468 127.647C373.851 127.839 374.138 128.126 374.234 128.51V128.606C374.618 129.564 373.659 130.426 372.797 130.426C372.701 130.426 372.605 130.426 372.509 130.426C372.701 130.331 372.893 130.139 373.18 130.043C373.18 130.139 373.084 130.235 373.084 130.331C372.893 130.618 372.509 130.714 372.222 130.618C371.934 130.426 371.743 130.043 371.838 129.756Z" fill="#D0D0D0"/>
<path d="M32.4829 396.61C40.437 388.368 47.8161 381.468 58.2618 376.485C68.5159 371.597 79.2492 368.339 90.3658 366.135C103.016 363.643 115.761 362.301 128.603 361.247C141.828 360.193 155.245 357.893 168.469 358.564C170.003 358.66 170.961 360.96 169.332 361.726C158.311 366.806 145.949 367.764 134.066 369.297C121.32 370.926 108.574 372.172 95.9241 374.472C85.4783 376.389 75.0326 378.976 64.9701 382.522C54.5244 386.164 42.4495 390.956 33.8245 397.951C32.8662 398.718 31.6204 397.568 32.4829 396.61Z" fill="#515151"/>
<path d="M-1.82545 423.443C-1.4421 422.868 -0.867079 422.389 -0.579568 421.718C-0.292057 421.143 0.570477 420.951 1.1455 421.43C1.72052 421.814 1.72053 422.676 1.24134 423.155C0.857994 423.539 0.47464 424.209 0.18713 424.593C-0.196218 425.072 -0.867082 425.359 -1.34627 424.976C-1.92129 424.689 -2.2088 423.922 -1.82545 423.443Z" fill="#515151"/>
<path d="M7.75822 415.297C8.04571 414.243 8.62072 413.189 9.48322 412.422C9.77071 412.135 10.0582 411.847 10.4415 411.656C11.304 410.985 12.0707 410.697 13.2207 410.601C14.3707 410.506 15.6165 411.464 15.9998 412.518C16.479 413.668 16.1915 414.914 15.329 415.872C14.754 416.447 14.2748 416.735 13.5082 417.022C14.179 416.735 13.1248 417.214 13.029 417.31C12.2623 417.693 11.4957 417.98 10.729 418.268C9.00404 418.939 7.27905 416.926 7.75822 415.297Z" fill="#515151"/>
<path d="M20.5999 406.959V406.864C20.6957 407.247 20.7915 407.63 20.8874 407.918C20.5999 407.534 20.504 406.959 20.504 406.48C20.5999 406.959 20.6957 407.343 20.8874 407.822C20.5999 407.247 20.4082 406.768 20.4082 406.193C20.4082 405.714 20.504 405.33 20.6957 404.851C21.079 404.084 21.5582 403.318 22.3249 402.934C23.5707 402.264 25.1999 402.359 26.2541 403.414C27.2124 404.468 27.4999 406.001 26.7332 407.343C26.3499 408.109 25.5832 408.684 24.8165 408.972C24.4332 409.164 23.954 409.259 23.4749 409.259C22.8999 409.259 22.3249 409.068 21.8457 408.78C22.3249 408.876 22.7082 408.972 23.1874 409.164C22.7082 409.164 22.1332 409.068 21.7499 408.78C22.1332 408.876 22.5165 408.972 22.804 409.068H22.7082C21.4624 408.972 20.504 408.014 20.5999 406.959Z" fill="#515151"/>
<path d="M461.921 292.768C461.921 292.672 461.921 292.576 461.921 292.48C462.113 293.055 462.209 293.534 462.4 294.109C462.304 293.822 462.209 293.63 462.113 293.343C462.017 292.959 461.921 292.48 462.017 292.097C462.017 291.809 462.113 291.522 462.209 291.33C462.305 291.043 462.4 290.851 462.592 290.659C462.784 290.276 463.167 289.989 463.455 289.797C463.742 289.701 463.934 289.605 464.221 289.509C464.509 289.509 464.796 289.413 465.084 289.413C465.563 289.413 465.946 289.509 466.33 289.701C466.617 289.797 466.809 289.893 467 290.084C467.288 290.18 467.48 290.468 467.575 290.659C467.863 290.947 468.055 291.33 468.15 291.713C468.15 292.001 468.246 292.288 468.246 292.576C468.246 292.863 468.15 293.151 468.15 293.438C468.055 293.726 467.959 293.918 467.863 294.205C467.671 294.588 467.384 294.876 467 295.068C466.713 295.355 466.33 295.547 465.946 295.643C466.617 295.163 467.192 294.684 467.863 294.205C467.767 294.301 467.767 294.301 467.671 294.397C467.48 294.588 467.384 294.78 467.192 294.972C466.905 295.259 466.617 295.451 466.234 295.643C465.946 295.738 465.755 295.834 465.467 295.834C465.084 295.93 464.605 295.93 464.221 295.738C463.934 295.643 463.742 295.547 463.455 295.451C463.263 295.259 463.071 295.163 462.879 294.972C462.592 294.684 462.4 294.397 462.209 294.013C462.017 293.534 461.921 293.151 461.921 292.768Z" fill="#8E8E8E"/>
<path d="M468.725 282.705C468.725 282.609 468.725 282.609 468.821 282.513C468.917 282.322 468.917 282.226 469.013 282.034C469.3 281.555 469.684 281.268 470.163 281.172C470.354 281.172 470.45 281.172 470.642 281.076C470.929 281.076 471.121 281.076 471.313 281.268C471.504 281.268 471.6 281.363 471.696 281.459C471.888 281.555 472.079 281.747 472.175 281.938C472.271 282.034 472.367 282.226 472.367 282.418C472.463 282.705 472.463 283.088 472.367 283.376V283.472C472.367 283.568 472.367 283.568 472.271 283.663C472.175 283.951 472.079 284.143 471.983 284.334C471.888 284.526 471.696 284.718 471.504 284.813C471.313 284.909 471.025 285.005 470.834 285.005C470.546 285.101 470.354 285.005 470.067 285.005C469.875 284.909 469.779 284.909 469.588 284.813C469.3 284.622 469.109 284.43 468.917 284.142C468.821 283.951 468.821 283.855 468.725 283.663C468.629 283.376 468.629 282.993 468.725 282.705Z" fill="#8E8E8E"/>
<path d="M474.667 272.547C474.763 272.547 474.763 272.643 474.667 272.547C474.38 272.643 474.092 272.643 473.805 272.738C473.805 272.738 473.901 272.738 473.901 272.643C473.996 272.547 474.092 272.547 474.188 272.451C474.38 272.355 474.571 272.355 474.859 272.451C474.955 272.451 474.955 272.451 475.051 272.547C475.242 272.547 475.338 272.643 475.434 272.834C475.53 272.93 475.53 273.026 475.626 273.122C475.721 273.313 475.817 273.505 475.817 273.793V273.888C475.721 273.601 475.53 273.313 475.434 273.026C475.53 273.122 475.626 273.218 475.721 273.313C475.913 273.505 476.009 273.697 476.009 273.888C476.105 274.08 476.105 274.368 476.009 274.559C476.009 274.751 475.913 275.038 475.817 275.23C475.721 275.326 475.626 275.422 475.53 275.613C475.338 275.805 475.146 275.901 474.955 275.997C474.763 276.093 474.571 276.188 474.284 276.188C474.092 276.188 473.805 276.188 473.613 275.997C473.421 275.901 473.23 275.805 473.038 275.613C472.942 275.518 472.846 275.422 472.751 275.23C472.655 275.038 472.559 274.847 472.559 274.559C472.463 274.368 472.559 274.08 472.559 273.888C472.655 273.793 472.655 273.601 472.751 273.505C472.942 273.218 473.134 273.026 473.421 272.834C473.517 272.738 473.709 272.738 473.805 272.643C474.092 272.451 474.38 272.451 474.667 272.547Z" fill="#8E8E8E"/>
<path d="M479.075 264.016H479.171C479.171 264.016 479.171 264.016 479.267 264.016H479.363C479.554 264.016 479.459 264.016 479.554 264.016H479.65H479.746C479.842 264.016 479.938 264.112 480.034 264.208C480.129 264.304 480.129 264.4 480.225 264.496V264.592C480.225 264.688 480.225 264.784 480.225 264.784V264.879C480.225 264.975 480.225 264.975 480.225 264.975C480.225 264.975 480.225 264.975 480.225 265.071V265.167C480.225 265.359 480.129 265.455 479.938 265.551C479.842 265.647 479.65 265.743 479.554 265.838C479.267 265.934 478.884 265.838 478.596 265.551C478.309 265.263 478.213 264.975 478.309 264.592C478.309 264.4 478.404 264.304 478.596 264.208C478.788 264.112 478.979 264.016 479.075 264.016Z" fill="#8E8E8E"/>
<path d="M483.196 257.309C484.729 257.309 484.729 259.705 483.196 259.705C481.663 259.705 481.663 257.309 483.196 257.309Z" fill="#8E8E8E"/>
<path d="M157.795 297.135C157.891 297.04 158.083 296.944 158.178 296.848C158.274 296.752 158.274 296.752 158.37 296.656L158.466 296.56C158.562 296.465 158.658 296.465 158.753 296.369C158.849 296.273 158.945 296.273 159.041 296.177C159.137 296.081 159.328 295.985 159.424 295.985C159.52 295.985 159.616 295.89 159.616 295.89C159.999 295.698 160.383 295.602 160.766 295.602C160.958 295.602 161.149 295.698 161.341 295.698C161.533 295.794 161.724 295.89 161.916 295.985C161.437 295.89 160.958 295.89 160.478 295.794C160.574 295.794 160.574 295.794 160.67 295.794C160.766 295.794 160.862 295.794 160.958 295.794C161.245 295.794 161.149 295.794 161.437 295.794C161.628 295.794 161.916 295.89 162.108 295.985C162.203 296.081 162.299 296.177 162.491 296.273C162.587 296.369 162.587 296.369 162.587 296.465C162.683 296.56 162.683 296.56 162.683 296.656C162.778 296.752 162.778 296.944 162.874 297.04C162.874 297.231 162.874 297.327 162.97 297.519C162.97 297.71 162.97 297.806 162.874 297.998C162.874 298.19 162.778 298.285 162.683 298.477C162.683 298.573 162.587 298.573 162.587 298.669C162.683 298.19 162.683 297.71 162.778 297.231C162.874 297.327 162.874 297.519 162.874 297.615C162.97 297.902 162.97 298.19 162.874 298.477C162.874 298.573 162.778 298.669 162.778 298.765C162.683 299.052 162.587 299.244 162.299 299.435C162.203 299.531 162.203 299.531 162.108 299.627C162.012 299.723 161.916 299.915 161.82 300.01C161.628 300.202 161.245 300.394 161.053 300.585C160.958 300.681 160.766 300.777 160.67 300.873C160.383 301.065 160.095 301.16 159.808 301.16C159.52 301.256 159.233 301.256 158.945 301.16C158.753 301.065 158.562 300.969 158.37 300.969C158.083 300.873 157.891 300.585 157.699 300.394C157.603 300.298 157.508 300.106 157.412 299.915C157.316 299.627 157.22 299.34 157.22 299.052C157.22 298.86 157.316 298.669 157.316 298.477C157.316 297.806 157.508 297.423 157.795 297.135Z" fill="#8E8E8E"/>
<path d="M303.137 133.678C308.35 137.291 315.493 137.389 321.382 135.143C327.367 132.896 332.29 128.501 336.538 123.814C341.075 118.833 345.032 113.169 347.06 106.723C349.087 100.277 349.087 92.9526 345.901 86.9953C342.04 79.7683 334.317 75.8619 326.498 75.5689C321.092 75.3736 315.204 75.8619 310.666 79.2801C306.709 82.3076 304.392 86.8977 302.558 91.4878C300.048 97.8358 297.248 104.77 295.8 111.508C294.449 119.419 296.283 128.892 303.137 133.678Z" fill="#D0D0D0"/>
<path d="M334.832 323.766C333.178 327.784 332.692 332.949 335.999 335.724C340.958 339.837 348.543 335.437 352.53 332.184C356.518 328.932 361.574 325.488 364.297 321.088C366.826 316.975 365.756 311.14 362.741 307.6C358.949 303.2 351.947 305.783 347.863 308.366C342.028 311.905 337.36 317.453 334.832 323.766Z" fill="#8E8E8E"/>
<path d="M282.578 314.864C285.456 313.854 288.718 311.33 287.759 308.403C287.183 306.586 285.264 305.778 283.538 305.172C275.767 302.649 267.517 301.538 259.363 301.942C255.334 302.144 251.305 302.649 247.372 303.557C243.918 304.365 239.506 305.172 236.916 307.898C233.366 311.734 234.517 317.993 239.506 319.103C244.686 320.214 250.442 318.902 255.718 319.002C264.927 319.204 273.849 318.094 282.578 314.864Z" fill="#8E8E8E"/>
<path d="M450.805 204.026C450.038 195.689 455.213 187.735 460.771 181.889C467.096 175.085 475.146 170.293 482.525 164.735C484.346 163.393 486.071 162.052 487.796 160.518C489.138 159.368 490.575 157.835 491.054 156.493C491.054 156.397 491.438 155.247 491.342 155.631C491.342 155.439 491.342 155.152 491.342 154.96C491.342 155.439 491.342 154.96 491.342 154.768C491.054 154.097 491.246 154.481 491.246 154.577C491.054 154.097 491.054 154.193 491.15 154.385C490.959 154.097 490.863 154.097 491.054 154.193C490.767 154.002 490.479 153.81 490.192 153.714C490.479 153.81 489.617 153.522 489.425 153.522C488.85 153.427 489.042 153.427 488.563 153.427C487.7 153.331 486.454 153.427 485.784 153.522C477.638 154.672 471.025 161.477 465.371 167.226C459.717 173.072 454.35 179.685 451.188 187.16C449.75 190.61 448.409 194.635 448.505 198.276C448.505 198.468 448.505 198.66 448.505 198.851C448.505 198.372 448.505 198.851 448.505 198.947C448.6 199.33 448.696 199.714 448.792 200.097C448.6 199.618 448.984 200.481 449.08 200.576C448.696 200.097 449.08 200.576 449.08 200.576C448.888 200.385 448.792 200.385 448.984 200.48C449.175 200.576 449.175 200.576 448.888 200.48C448.888 200.48 449.175 200.481 449.08 200.576C449.08 200.576 448.696 200.672 449.08 200.48C449.271 200.385 449.463 200.289 449.655 200.097C450.325 199.522 450.613 198.66 450.805 197.797C451.38 195.689 451.667 193.485 452.434 191.376C453.2 189.268 454.159 187.16 455.309 185.243C457.513 181.41 460.484 177.864 463.646 174.797C467.192 171.347 471.025 168.376 474.859 165.31C476.679 163.872 478.5 162.531 480.225 161.093C480.992 160.422 481.759 159.752 482.429 158.985C482.429 158.985 482.909 158.314 483.004 158.122C483.1 157.835 483.196 157.547 483.292 157.356C483.292 157.739 483.1 156.877 483.292 157.26C483.388 157.643 483.1 156.781 483.196 157.164C483.388 157.643 483.196 157.164 482.909 156.972C483.388 157.356 482.909 156.972 482.813 156.972C483.196 156.972 482.909 156.972 482.717 156.972C482.525 156.972 482.334 156.877 482.142 156.781C482.813 156.877 481.854 156.781 481.759 156.781C481.567 156.781 481.184 156.877 481.663 156.781C481.471 156.877 481.184 156.877 480.992 156.972C481.088 156.972 481.471 156.685 480.704 157.068C480.513 157.164 480.225 157.356 480.034 157.452C479.267 157.931 478.692 158.506 478.021 159.177C474.763 162.339 471.792 165.693 468.917 169.143C463.359 175.947 458.663 183.614 454.35 191.376C453.296 193.293 451.955 195.018 450.709 196.839C449.463 198.66 446.78 197.606 447.163 195.306C447.642 192.718 448.313 190.418 449.367 188.022C450.421 185.722 451.475 183.422 452.721 181.218C455.117 176.81 457.896 172.689 460.867 168.664C463.934 164.639 467.192 160.71 470.642 157.068C474.188 153.427 478.213 149.21 483.771 150.264C486.359 150.743 488.563 152.564 489.425 155.152C490.288 157.931 489.234 160.71 487.509 162.914C485.975 164.927 483.867 166.46 481.854 167.993C479.65 169.718 477.35 171.443 475.05 173.168C467.671 178.726 459.909 185.339 457.129 194.539C456.363 196.935 456.171 199.522 455.117 201.822C453.967 204.218 451.571 206.23 448.792 206.23C443.521 206.23 441.7 200.672 442.18 196.264C443.234 186.585 448.025 177.864 453.967 170.293C456.938 166.556 460.196 163.106 463.646 159.752C467.192 156.302 470.929 153.043 475.146 150.552C479.267 148.156 484.25 146.431 489.042 147.006C491.725 147.293 494.313 148.347 495.942 150.647C497.475 152.756 497.667 155.535 496.804 157.931C494.984 162.914 490.288 166.364 486.071 169.431C481.854 172.401 477.542 175.181 473.229 178.056C465.755 183.039 458.184 189.172 454.638 197.701C453.775 199.714 453.105 201.822 452.53 204.026C452.53 205.464 450.9 205.08 450.805 204.026Z" fill="#D0D0D0"/>
<path d="M448.313 194.443C449.559 191.089 450.613 187.639 452.242 184.38C453.871 181.218 455.692 178.343 457.8 175.468C462.209 169.622 467.671 164.447 473.804 160.422C475.625 159.176 477.446 158.122 479.458 157.26C480.321 156.876 481.279 156.493 482.238 156.397C482.813 156.301 483.292 156.206 483.867 156.206C484.058 156.206 484.346 156.206 484.538 156.301C484.729 156.397 484.921 156.397 485.113 156.589C485.208 156.685 485.208 156.685 485.017 156.589C486.167 156.589 486.55 157.835 485.879 158.697C485.975 158.601 486.071 157.931 485.975 158.601C485.879 158.985 485.783 159.272 485.592 159.56C485.4 159.847 485.113 160.135 484.825 160.422C484.25 161.093 483.483 161.572 482.813 162.147C481.375 163.201 479.938 164.256 478.404 165.214C475.529 167.131 473.133 168.951 470.546 171.156C465.563 175.468 461.059 180.547 457.321 186.01C455.117 189.172 452.817 192.335 451.284 195.88C450.517 197.318 447.642 196.072 448.313 194.443Z" fill="#D0D0D0"/>
<path d="M481.088 160.23C481.567 158.601 482.525 157.355 483.867 156.301C485.304 155.151 486.838 154.385 488.563 154.097C487.988 155.151 487.317 156.301 486.742 157.356C486.55 156.301 486.454 155.247 486.359 154.097C487.317 155.056 488.275 156.014 489.33 157.068C488.659 157.068 487.988 157.068 487.413 157.068C487.317 157.068 486.742 157.164 487.221 157.068C487.7 156.972 487.125 157.068 487.029 157.068C486.742 157.164 486.359 157.164 486.071 157.26C485.496 157.451 484.921 157.643 484.25 157.835C484.059 157.931 483.963 157.931 483.771 158.026C483.675 158.026 483.1 158.314 483.58 158.122C484.059 157.93 483.484 158.218 483.388 158.218C483.196 158.314 483.1 158.314 482.909 158.41C482.334 158.697 481.854 158.985 481.279 159.272C480.992 159.464 480.705 159.56 480.417 159.751C480.321 159.847 480.129 159.943 480.034 160.039C479.746 160.23 480.513 159.655 480.034 160.039C479.65 160.326 479.267 160.614 478.788 160.71C478.98 160.614 478.98 160.614 478.788 160.71C478.596 160.805 478.5 160.997 478.309 161.093C477.734 161.572 477.255 162.051 476.584 162.339C475.625 162.818 474.475 162.243 474.475 161.093C474.475 160.23 474.763 159.368 475.146 158.601C475.242 158.41 475.338 158.218 475.434 158.122C475.434 158.026 475.817 157.643 475.625 157.931C475.434 158.122 475.721 157.835 475.721 157.739C476.009 157.164 476.009 156.972 476.488 156.493C477.446 155.247 478.692 154.193 480.034 153.33C481.375 152.468 482.909 151.893 484.442 151.51C485.975 151.126 487.7 150.935 489.33 151.126C490.096 151.222 490.863 151.414 491.438 151.989C491.917 152.564 492.396 153.331 492.3 154.097C492.204 155.151 492.109 156.206 491.917 157.356C491.725 158.41 490.48 159.368 489.33 159.272C489.042 159.272 488.659 159.272 488.275 159.272C488.179 159.272 487.988 159.272 487.892 159.272C487.413 159.272 488.179 159.176 487.796 159.272C487.125 159.368 486.55 159.56 485.975 159.751C485.88 159.751 485.688 159.847 485.879 159.751C485.688 159.847 485.592 159.847 485.4 159.943C485.113 160.039 484.921 160.231 484.634 160.422C484.154 160.71 483.579 161.093 483.196 161.476C482.334 162.243 480.704 161.476 481.088 160.23Z" fill="white"/>
<path d="M449.463 200.768C449.463 199.714 449.367 198.66 449.367 197.606C449.367 197.126 449.367 196.647 449.463 196.072C449.463 195.689 449.559 195.306 449.654 194.922C449.75 194.539 449.846 194.156 450.038 193.772C450.325 193.197 451.092 192.814 451.763 192.91C452.434 193.006 453.009 193.485 453.2 194.156C453.583 195.401 453.2 196.743 453.008 197.989C452.817 199.043 452.529 200.001 452.338 201.056C452.146 201.822 451.379 202.206 450.709 202.11C450.038 202.11 449.463 201.535 449.463 200.768Z" fill="#D0D0D0"/>
<path d="M448.888 200.576C448.792 200.097 448.696 199.618 448.6 199.139C448.696 199.331 448.696 199.426 448.792 199.618C448.696 199.331 448.6 199.139 448.505 198.851C448.505 198.756 448.409 198.564 448.409 198.468C448.313 198.181 448.313 197.989 448.217 197.701C448.025 196.551 447.93 195.114 448.888 194.251C449.271 193.868 449.942 193.581 450.517 193.581C451.092 193.581 451.667 193.868 452.146 194.251C453.105 195.114 453.009 196.647 452.817 197.701C452.721 197.989 452.721 198.181 452.625 198.468C452.625 198.564 452.53 198.756 452.53 198.851C452.434 199.139 452.338 199.331 452.242 199.618C452.338 199.426 452.338 199.331 452.434 199.139C452.338 199.618 452.242 200.097 452.146 200.576C452.05 201.247 451.284 201.822 450.613 201.822C449.75 201.726 448.984 201.343 448.888 200.576Z" fill="#D0D0D0"/>
<path d="M442.467 218.018C442.371 218.018 442.371 218.018 442.275 217.922C442.563 217.922 442.85 218.018 443.234 218.018C443.138 218.018 443.138 218.018 443.042 218.018C444.096 217.443 445.054 216.868 446.109 216.293C446.109 216.293 446.109 216.293 446.109 216.389C445.917 216.676 445.725 216.868 445.534 217.155C445.15 217.539 444.767 217.73 444.384 217.922C444.096 218.114 443.809 218.21 443.425 218.21C442.946 218.305 442.467 218.305 441.988 218.114C441.988 218.114 441.892 218.114 441.796 218.114C442.084 218.114 442.467 218.21 442.754 218.21C442.754 218.21 442.754 218.21 442.659 218.21C442.371 218.21 441.988 218.114 441.7 218.114C441.125 217.922 440.55 217.635 440.071 217.155C440.838 217.443 441.7 217.73 442.467 218.018C442.563 218.114 442.563 218.114 442.467 218.018C442.754 218.018 443.138 218.018 443.425 218.018C443.425 218.018 443.425 218.018 443.329 218.018C443.617 217.922 443.904 217.826 444.192 217.635C444.192 217.635 444.096 217.635 444.096 217.73C444.288 217.539 444.575 217.347 444.767 217.155C444.671 217.251 444.575 217.347 444.384 217.443C444.192 217.635 443.904 217.826 443.617 217.922C443.329 218.114 443.042 218.114 442.754 218.114C442.563 218.21 442.371 218.21 442.179 218.21C443.138 217.443 444.096 216.772 445.054 216.005C445.054 216.101 444.959 216.197 444.959 216.197C444.959 215.91 445.054 215.718 445.054 215.43C445.054 215.526 445.054 215.526 445.054 215.622C445.054 216.676 444.479 217.539 443.617 218.114C443.138 218.401 442.659 218.497 442.179 218.497C441.7 218.497 441.221 218.401 440.742 218.114C440.646 218.018 440.263 217.73 440.167 217.635C439.975 217.443 439.88 217.251 439.688 216.964C439.688 216.964 439.688 216.868 439.592 216.868C439.496 216.58 439.4 216.389 439.304 216.101C439.975 216.772 440.742 217.539 441.413 218.21C441.125 218.114 440.838 218.018 440.646 217.826C440.263 217.635 439.975 217.347 439.688 216.964C439.496 216.772 439.305 216.485 439.209 216.197C439.017 215.814 438.921 215.335 438.921 214.855C438.921 214.664 438.921 214.568 439.017 214.376C439.017 214.185 439.017 214.089 439.113 213.897C439.113 213.897 439.113 213.897 439.113 213.801C439.209 213.514 439.305 213.226 439.496 212.939V212.843C439.4 213.13 439.304 213.418 439.113 213.705C439.113 214.28 439.113 214.951 439.113 215.526C438.729 214.28 439.113 212.843 440.071 211.98C440.742 211.31 441.029 211.31 441.892 210.926C442.179 210.926 442.563 210.83 442.85 210.83C443.329 210.83 443.809 210.926 444.288 211.118C444.575 211.214 444.863 211.405 445.15 211.597C445.534 211.885 445.917 212.172 446.109 212.651C446.204 212.843 446.204 212.939 446.3 213.13C446.396 213.322 446.492 213.418 446.492 213.61C445.917 212.939 445.438 212.172 444.863 211.501C445.15 211.693 445.438 211.885 445.725 212.172L445.821 212.268C446.013 212.46 446.204 212.747 446.396 213.035C446.396 213.035 446.396 213.035 446.396 213.13C446.492 213.418 446.588 213.705 446.779 213.993C446.779 214.28 446.875 214.568 446.875 214.951C446.875 215.239 446.779 215.526 446.779 215.91C446.684 216.389 446.492 216.772 446.204 217.06C446.013 217.347 445.821 217.539 445.629 217.635C445.438 217.826 445.15 218.018 444.863 218.114C444.575 218.305 444.288 218.305 444 218.305C443.425 218.21 442.946 218.114 442.467 218.018Z" fill="#D0D0D0"/>
<path d="M435.088 229.135C435.184 229.135 435.184 229.135 435.279 229.135H435.375C435.567 229.135 435.759 229.039 435.95 229.039C436.142 229.039 436.334 229.039 436.621 229.135C436.717 229.135 436.813 229.23 436.909 229.23C437.004 229.23 437.1 229.326 437.292 229.422C436.621 229.422 435.95 229.422 435.279 229.422C435.471 229.326 435.567 229.23 435.759 229.23C435.95 229.135 436.238 229.039 436.429 229.039C436.525 229.039 436.621 229.039 436.717 229.039H436.813C437.004 229.039 437.196 229.039 437.388 229.135C437.867 229.23 438.346 229.71 438.442 230.189C438.442 230.285 438.442 230.476 438.538 230.668V230.764V230.86C438.538 231.147 438.442 231.339 438.346 231.626C438.346 231.722 438.25 231.818 438.25 231.914C438.154 232.105 438.059 232.201 438.059 232.393C438.059 231.722 438.059 231.051 438.059 230.38C438.059 230.38 438.059 230.38 438.059 230.476C438.154 230.668 438.25 230.86 438.25 231.051C438.25 231.147 438.346 231.243 438.25 231.339C438.346 231.53 438.346 231.722 438.25 231.914C438.25 232.105 438.25 232.201 438.154 232.297C438.154 232.393 438.154 232.393 438.154 232.489C438.059 232.872 437.867 233.255 437.484 233.639C437.196 233.926 436.813 234.118 436.334 234.31C435.471 234.501 434.513 234.31 433.938 233.639C433.267 232.968 433.075 232.105 433.267 231.243C433.363 230.86 433.554 230.476 433.938 230.093C434.321 229.422 434.704 229.23 435.088 229.135Z" fill="#D0D0D0"/>
</g>
</svg>
