<svg width="126" height="124" viewBox="0 0 126 124" fill="none" xmlns="http://www.w3.org/2000/svg">
<path d="M0 47.4523L62.8133 0L125.686 47.4523H0Z" fill="#38A386"/>
<path d="M125.686 47.4517H0L44.7136 81.2101H80.9726L125.686 47.4517Z" fill="#38A386"/>
<path d="M98.1801 13.2168H12.5039V56.9182L44.7143 81.21H80.9734L113.124 56.9182V28.161H98.1801V13.2168Z" fill="white"/>
<path d="M97.6801 28.161V28.661H98.1801H112.624V56.6693L80.8057 80.71H44.8817L13.0039 56.669V13.7168H97.6801V28.161Z" stroke="black" stroke-opacity="0.05"/>
<path d="M98.1794 28.1615H113.124L98.1794 13.2173V28.1615Z" fill="#F3F3F3"/>
<path d="M60.3124 32.2104H27.447V35.7232H60.3124V32.2104Z" fill="#F4D45D"/>
<path d="M75.6733 42.8076H27.447V46.3204H75.6733V42.8076Z" fill="#F4D45D"/>
<path d="M98.179 53.4062H27.447V56.919H98.179V53.4062Z" fill="#F4D45D"/>
<path d="M98.179 64.0044H27.447V67.5172H98.179V64.0044Z" fill="#F4D45D"/>
<path d="M89.2927 74.5425H36.2927L40.7927 78.0553H84.7927L89.2927 74.5425Z" fill="#F4D45D"/>
<path d="M98.1787 13.2173H63.8249V81.2105H80.972L113.123 56.9187V28.1615H98.1787V13.2173Z" fill="black" fill-opacity="0.1"/>
<path d="M0 118.804C0 121.364 2.08385 123.448 4.64402 123.448H121.042C123.602 123.448 125.686 121.364 125.686 118.804V47L80.793 80.5H44.293L0 47V118.804Z" fill="#3EB595"/>
<path d="M4.64402 123.449H121.042C123.602 123.449 125.686 121.365 125.686 118.805L80.9726 80.7598H44.654L0 118.805C0 121.365 2.08385 123.449 4.64402 123.449Z" fill="black" fill-opacity="0.1"/>
</svg>
