<svg width="41" height="41" viewBox="0 0 41 41" fill="none" xmlns="http://www.w3.org/2000/svg">
<path d="M32.4583 23.9166V10.2499C32.4583 8.37075 30.9208 6.83325 29.0417 6.83325H5.125C3.24583 6.83325 1.70833 8.37075 1.70833 10.2499V23.9166C1.70833 25.7957 3.24583 27.3333 5.125 27.3333H29.0417C30.9208 27.3333 32.4583 25.7957 32.4583 23.9166ZM17.0833 22.2083C14.2475 22.2083 11.9583 19.9191 11.9583 17.0833C11.9583 14.2474 14.2475 11.9583 17.0833 11.9583C19.9192 11.9583 22.2083 14.2474 22.2083 17.0833C22.2083 19.9191 19.9192 22.2083 17.0833 22.2083ZM39.2917 11.9583V30.7499C39.2917 32.6291 37.7542 34.1666 35.875 34.1666H6.83333V30.7499H35.875V11.9583H39.2917Z" fill="#FDEFED"/>
</svg>
