<svg width="24" height="26" viewBox="0 0 24 26" fill="none" xmlns="http://www.w3.org/2000/svg">
<path d="M15.5 15.212H14.71L14.43 14.9334C15.41 13.7572 16 12.2301 16 10.5689C16 6.86482 13.09 3.8623 9.5 3.8623C5.91 3.8623 3 6.86482 3 10.5689C3 14.2731 5.91 17.2756 9.5 17.2756C11.11 17.2756 12.59 16.6668 13.73 15.6557L14 15.9446V16.7597L19 21.9083L20.49 20.371L15.5 15.212ZM9.5 15.212C7.01 15.212 5 13.1381 5 10.5689C5 7.99979 7.01 5.92589 9.5 5.92589C11.99 5.92589 14 7.99979 14 10.5689C14 13.1381 11.99 15.212 9.5 15.212Z" fill="black" fill-opacity="0.82"/>
</svg>
