<svg width="44" height="44" viewBox="0 0 44 44" fill="none" xmlns="http://www.w3.org/2000/svg">
<path d="M25.6667 3.66675H11C8.98334 3.66675 7.35168 5.31675 7.35168 7.33341L7.33334 36.6667C7.33334 38.6834 8.96501 40.3334 10.9817 40.3334H33C35.0167 40.3334 36.6667 38.6834 36.6667 36.6667V14.6667L25.6667 3.66675ZM11 7.33341H23.8333L33 16.5001V32.2301L29.6267 28.8567C31.9733 25.3001 31.5883 20.4784 28.4533 17.3434C26.675 15.5651 24.3467 14.6667 22 14.6667C19.6533 14.6667 17.325 15.5651 15.5283 17.3434C11.9533 20.9184 11.9533 26.7117 15.5283 30.2684C17.3067 32.0467 19.6533 32.9451 22 32.9451C23.76 32.9451 25.52 32.4317 27.0417 31.4234L32.2667 36.6667H11V7.33341ZM25.8683 27.6834C24.8417 28.7101 23.4667 29.2967 22 29.2967C20.5333 29.2967 19.1583 28.7284 18.1317 27.6834C17.105 26.6567 16.5183 25.2817 16.5183 23.8151C16.5183 22.3484 17.0867 20.9734 18.1317 19.9467C19.1583 18.9017 20.5333 18.3334 22 18.3334C23.4667 18.3334 24.8417 18.9017 25.8683 19.9467C26.895 20.9734 27.4817 22.3484 27.4817 23.8151C27.4817 25.2817 26.9133 26.6567 25.8683 27.6834Z" fill="#FCEFE6"/>
</svg>
