<svg width="23" height="24" viewBox="0 0 23 24" fill="none" xmlns="http://www.w3.org/2000/svg">
<g clip-path="url(#clip0_670_768)">
<path d="M15.1193 8.56983C12.4744 7.34562 9.69681 9.83448 7.59102 6.36972C7.43469 6.11272 7.05195 6.1681 6.97681 6.45453C6.23251 9.16337 6.97415 12.4279 10.6304 14.1015C10.93 14.2381 10.8711 14.6945 10.5452 14.7319C9.04315 14.9162 8.038 14.0614 7.46024 13.3123C7.24764 13.0356 6.80616 13.2315 6.8669 13.5719C7.02407 14.3852 7.47346 15.5095 8.64755 16.7205C11.4282 19.2244 14.4903 17.8526 15.4061 17.169C16.713 16.1897 17.763 14.7538 17.8647 13.0487C17.9646 11.1597 16.899 9.33279 15.1193 8.56983ZM13.0119 15.2839C13.5387 14.4481 13.4102 13.6069 13.079 13.0738C12.5733 12.2362 11.3062 12.1648 10.6738 10.6793C11.6996 11.4212 13.6497 10.6169 14.5964 11.5932C15.8088 12.7671 15.5044 15.0772 13.0119 15.2839Z" fill="black"/>
</g>
<defs>
<clipPath id="clip0_670_768">
<rect width="16" height="16" fill="white" transform="translate(0.0643616 11.6987) rotate(-44.1153)"/>
</clipPath>
</defs>
</svg>
