<svg width="34" height="34" viewBox="0 0 34 34" fill="none" xmlns="http://www.w3.org/2000/svg">
<g opacity="0.31">
<path d="M2.04568 13.9782L1.5 13.9281V14.4761V19.8048V20.4062L2.0913 20.2964C2.9923 20.1291 5.1115 19.7234 6.3573 19.4431L6.75133 19.3545L6.74752 18.9506C6.74029 18.1843 6.49751 17.0391 5.79083 16.0326C5.07066 15.0069 3.88158 14.1466 2.04568 13.9782Z" fill="#E7E7E7" stroke="#2C2C2C"/>
<path d="M2.38777 22.6228L2.5866 23.1L3.0569 22.8854C4.82923 22.0766 9.60693 21.3367 14.0674 25.2024L14.2493 25.3601L14.486 25.3162C14.8338 25.2518 15.7763 25.0767 16.7653 24.8913L17.5525 24.7437L17.0742 24.1012C15.2232 21.6152 9.64341 17.3984 2.02121 20.1847L1.5711 20.3492L1.71641 20.8059C1.80993 21.0998 2.0722 21.8655 2.38777 22.6228Z" fill="#E7E7E7" stroke="#2C2C2C"/>
<path d="M2.87565 22.6542L2.32717 22.8484L2.60159 23.3614L3.48971 25.0218L3.68807 25.3927L4.08741 25.2608C5.38673 24.8316 8.79508 24.4772 11.7493 26.5832L11.9416 26.7203L12.1695 26.6589C12.5459 26.5576 13.4412 26.2152 14.0535 25.6029L14.3758 25.2806L14.0846 24.9299C12.7118 23.277 8.60299 20.6271 2.87565 22.6542Z" fill="#E7E7E7" stroke="#2C2C2C"/>
<path d="M9.13075 30.7439L9.57395 30.9924L9.81527 30.5452C10.2563 29.728 11.2553 27.9431 11.789 27.2019L11.9907 26.9216L11.8001 26.6337C11.0324 25.4743 8.51426 23.8068 4.25909 24.9996L3.57227 25.1921L3.98749 25.7721C4.40662 26.3575 5.15771 27.2973 6.06421 28.2376C6.96641 29.1734 8.04869 30.1373 9.13075 30.7439Z" fill="#E7E7E7" stroke="#2C2C2C"/>
<path d="M19.9631 32.0486L19.8576 32.7477L20.5519 32.6142C21.5987 32.4129 23.287 31.9122 25.0012 31.0591C26.7117 30.2078 28.4915 28.984 29.67 27.3145L29.9626 26.9L29.5439 26.6135C29.0501 26.2757 27.8167 25.4643 26.8376 24.9273L26.6972 24.8504L26.5383 24.8692C24.6299 25.0954 20.7454 26.8656 19.9631 32.0486Z" fill="#E7E7E7" stroke="#2C2C2C"/>
<path d="M23.6974 20.6507L23.5177 20.2316L23.0839 20.3719C19.7959 21.4357 18.0517 23.6435 17.5704 24.6938L17.4367 24.9855L17.6462 25.2286C17.9739 25.6087 18.4009 26.454 18.8149 27.4273C19.219 28.377 19.5812 29.3758 19.7902 30.0028L20.2242 31.305L20.7294 30.0288C21.2768 28.6458 22.2445 27.5257 23.2508 26.6834C24.2582 25.8401 25.2787 25.2967 25.8901 25.0593L26.5952 24.7855L26.067 24.2441C24.8897 23.0373 23.9925 21.3394 23.6974 20.6507Z" fill="#E7E7E7" stroke="#2C2C2C"/>
<path d="M23.7305 20.0277L23.2157 20.2059L23.4373 20.7036C23.8219 21.5673 24.5792 22.8868 25.6186 24.0799C26.6519 25.266 28.0132 26.3836 29.6157 26.7416L29.8731 26.7991L30.0659 26.6192C30.8971 25.8435 32.6279 23.621 33.1139 20.7377L33.1748 20.376L32.8481 20.2093C31.5032 19.5228 27.887 18.5889 23.7305 20.0277Z" fill="#E7E7E7" stroke="#2C2C2C"/>
<path d="M28.121 18.6648L27.7124 19.2368L28.3867 19.4351C29.2665 19.6939 31.419 20.2337 32.8801 20.2662L33.2632 20.2747L33.371 19.907C33.4989 19.4708 33.5796 18.7861 33.377 18.1398C33.1616 17.4526 32.6309 16.8413 31.6342 16.6496C30.4873 16.429 29.7134 16.7146 29.157 17.2335C28.8964 17.4765 28.6996 17.7556 28.5394 18.0058C28.4717 18.1115 28.4143 18.2053 28.3614 18.2916C28.2775 18.4288 28.205 18.5471 28.121 18.6648Z" fill="#E7E7E7" stroke="#2C2C2C"/>
<path d="M17.8618 16.6815L17.4461 16.7209L17.4108 17.137C17.2532 18.9962 17.3453 22.2621 17.4095 23.6509L17.4689 24.9333L18.2926 23.9486C19.6433 22.3335 21.5004 21.2283 23.2979 20.5054C25.0948 19.7827 26.7964 19.4564 27.7953 19.3767L28.2134 19.3433L28.2533 18.9259C28.5409 15.9227 27.8278 13.972 26.7244 12.7752C25.6312 11.5896 24.2166 11.2128 23.2266 11.2348L22.8137 11.244L22.7448 11.6512C22.1133 15.3827 19.1983 16.5547 17.8618 16.6815Z" fill="#E7E7E7" stroke="#2C2C2C"/>
<path d="M9.4026 18.9242L7.90719 19.5938L9.52166 19.8732C10.7716 20.0896 14.0348 21.2207 16.7001 23.9757L17.5594 24.8641V23.6281V17.1409V16.7805L17.2176 16.6666C16.7584 16.5135 16.0527 16.2687 15.4296 16.0324C15.1174 15.914 14.8315 15.7999 14.6094 15.7018C14.4981 15.6526 14.4083 15.6099 14.3417 15.5747C14.2815 15.5429 14.2597 15.5271 14.2594 15.5275C14.2594 15.5275 14.2595 15.5277 14.2597 15.5279L13.8577 15.1706L13.5317 15.6053C12.9833 16.3365 11.3692 18.0436 9.4026 18.9242Z" fill="#E7E7E7" stroke="#2C2C2C"/>
<path d="M13.6125 15.6057L13.8318 15.2811L13.5692 14.9905C13.0506 14.4168 11.9563 12.5104 12.1904 9.84775L12.2354 9.33505L11.7216 9.30483C10.6453 9.24151 8.38264 9.90487 6.99647 12.7102L6.97336 12.757L6.9604 12.8075C6.69228 13.8532 6.27809 16.5213 6.76138 18.9377L6.82323 19.247L7.12896 19.3244C8.39466 19.6448 11.2057 19.1678 13.6125 15.6057Z" fill="#E7E7E7" stroke="#2C2C2C"/>
<path d="M12.3986 9.19052L11.8729 9.13741L11.8489 9.66528C11.8155 10.3986 11.8407 11.5296 12.0295 12.5495C12.1237 13.0584 12.263 13.5644 12.4709 13.9855C12.6751 14.3991 12.9793 14.7983 13.439 14.9798L13.8411 15.1385L14.0563 14.7636C14.5007 13.9892 14.9988 12.7612 14.9504 11.6405C14.9256 11.067 14.7553 10.4849 14.322 10.0225C13.8879 9.55921 13.2465 9.27617 12.3986 9.19052Z" fill="#E7E7E7" stroke="#2C2C2C"/>
<path d="M14.2368 10.2639L14.6701 10.4497L14.881 10.028C15.0858 9.61833 15.5286 8.56662 15.6627 7.59446L15.7038 7.29675L15.4602 7.1208C15.2107 6.94062 14.7892 6.66742 14.3155 6.41772C13.8494 6.17204 13.293 5.92778 12.784 5.83689L12.512 5.78832L12.3261 5.99277C12.2272 6.10158 12.162 6.24414 12.1163 6.37437C12.0664 6.5169 12.0235 6.69349 11.9913 6.90582C11.9269 7.33088 11.902 7.92414 11.966 8.72443L11.983 8.93669L12.1478 9.07154C12.4745 9.33886 13.3383 9.87888 14.2368 10.2639Z" fill="#E7E7E7" stroke="#2C2C2C"/>
<path d="M17.0921 9.53987L17.6154 10.0632L17.9056 9.38237C18.0519 9.03914 18.3842 8.45506 18.8885 7.88244C19.3923 7.31043 20.0445 6.77612 20.8235 6.48914L21.5009 6.23955L21.029 5.69316C20.7574 5.37869 20.2914 4.94545 19.7596 4.67469C19.2383 4.40927 18.4977 4.23192 17.8651 4.74287C17.0414 5.40816 16.434 6.02726 16.2212 6.26837L16.2211 6.26824L16.212 6.27909C15.9504 6.59306 15.5229 7.45765 16.1062 8.31024C16.5242 8.92103 16.9273 9.37506 17.0921 9.53987Z" fill="#E7E7E7" stroke="#2C2C2C"/>
<path d="M17.2934 16.2308L17.2706 16.7527H17.793C19.6203 16.7527 20.8865 15.9181 21.7072 14.8837C22.5145 13.8662 22.8939 12.6561 22.9998 11.8376L23.074 11.2636L22.4953 11.2735C20.5323 11.3071 19.2299 12.1347 18.4216 13.1802C17.6294 14.2049 17.3293 15.4139 17.2934 16.2308Z" fill="#E7E7E7" stroke="#2C2C2C"/>
<path d="M23.1365 5.75168L22.6385 5.73696L22.622 6.23494L22.4676 10.9072L22.4523 11.3683L22.9106 11.4205C25.0558 11.6653 26.3094 12.6864 27.0299 13.842C27.7644 15.0201 27.9596 16.3657 27.9126 17.2293L27.8592 18.2109L28.684 17.6759C29.7331 16.9954 30.5984 16.8961 31.2363 17.005C31.8897 17.1166 32.3437 17.4529 32.5474 17.6946L33.4626 18.78L33.4296 17.3607L33.3523 14.0399L33.351 13.9842L33.3375 13.9302C31.7464 7.56581 25.8608 5.83221 23.1365 5.75168Z" fill="#E7E7E7" stroke="#2C2C2C"/>
<path d="M23.0539 6.40576V5.89618L22.5444 5.90585C21.238 5.93066 20.2038 6.2767 19.4057 6.85115C18.6098 7.42399 18.0816 8.20015 17.7452 9.03357C17.0791 10.6836 17.1417 12.6107 17.391 13.8776L17.6251 15.0671L18.2976 14.0584C19.669 12.0014 21.7431 11.5284 22.5471 11.5394L23.0539 11.5463V11.0394V6.40576Z" fill="#E7E7E7" stroke="#2C2C2C"/>
<path d="M17.7061 0.503142L16.9624 0.517555L17.2566 1.20078L18.4536 3.98099L18.6413 4.41682L19.0863 4.25221C19.5395 4.08458 20.2913 3.8421 21.0574 3.66516C21.6599 3.52601 22.2222 3.43954 22.6469 3.43945C22.7069 3.91155 22.7762 4.67261 22.7762 5.52089V6.0166L23.2719 6.02087C24.6511 6.03276 28.2316 6.80437 31.0579 9.83891L31.883 9.30019C30.5853 6.29007 25.948 0.343417 17.7061 0.503142Z" fill="#E7E7E7" stroke="#2C2C2C"/>
<path d="M2.04258 10.6105L2.89602 11.1156C3.91535 9.8104 5.77733 8.04445 8.02163 7.00434C10.2522 5.97057 12.814 5.66964 15.3349 7.18216L15.6646 7.38003L15.9405 7.11205L18.6435 4.4863L19.0018 4.13822L18.654 3.77959C18.2906 3.40483 17.502 2.29816 17.3634 1.02312L17.3131 0.560131L16.8477 0.577496C13.2975 0.709966 5.36221 2.88594 2.04258 10.6105Z" fill="#E7E7E7" stroke="#2C2C2C"/>
<path d="M17.2296 16.7883L17.6811 16.739L17.6753 16.2848L17.1753 16.2912L17.6753 16.2848L17.6753 16.2847L17.6753 16.2843L17.6753 16.2827L17.6752 16.2763L17.6749 16.2511L17.6737 16.1544C17.6728 16.0707 17.6714 15.9501 17.6699 15.8028C17.6669 15.5083 17.6633 15.1073 17.6609 14.6811C17.656 13.8213 17.6563 12.8813 17.6748 12.4922C17.7148 11.6528 17.7151 9.53933 16.3379 7.72548L15.895 7.14211L15.5131 7.76711C15.1987 8.28152 14.5902 9.63042 14.5902 11.0783C14.5902 12.3158 14.0753 14.0731 13.8092 14.8081L13.7361 15.01L13.8321 15.202C14.168 15.8738 15.2912 16.9998 17.2296 16.7883Z" fill="#E7E7E7" stroke="#2C2C2C"/>
<path d="M19.4192 3.93594L19.0919 4.14144L19.2083 4.50995C19.2603 4.67477 19.3698 4.8236 19.491 4.94878C19.6195 5.08132 19.7903 5.21731 20.0071 5.35134C20.4408 5.61945 21.0814 5.89397 21.9985 6.11922L22.2721 6.18642L22.4713 5.98721C22.8338 5.62475 23.2589 4.7126 22.7225 3.60142L22.6523 3.45604L22.5103 3.37915C21.9896 3.0971 20.8411 3.04311 19.4192 3.93594Z" fill="#E7E7E7" stroke="#2C2C2C"/>
<path d="M1.66483 13.766L1.73452 14.1057L2.07714 14.1595C2.36366 14.2044 2.86887 14.3315 3.40178 14.564C3.93738 14.7976 4.46301 15.1212 4.82885 15.5393C5.26644 16.0394 5.58982 16.383 5.81868 16.6108C5.93296 16.7246 6.02598 16.8118 6.09957 16.8763C6.16312 16.932 6.238 16.994 6.30856 17.0343L7.25412 17.5746L7.04755 16.5053C6.94838 15.992 6.88282 15.0871 7.02722 14.1009C7.17165 13.1145 7.51966 12.0893 8.2096 11.289C9.65534 9.61191 11.1654 9.4243 11.623 9.48837L12.1923 9.56807V8.9932V6.40605V5.93888L11.7262 5.90721C10.3035 5.81052 6.90248 6.25324 4.42227 8.79872C3.22043 10.0322 2.50377 11.0785 2.09967 11.9015C1.7078 12.6997 1.57971 13.351 1.66483 13.766Z" fill="#E7E7E7" stroke="#2C2C2C"/>
<path d="M17.2161 32.2003V32.5093L17.4925 32.6475C17.8018 32.8021 18.302 32.9823 18.7984 32.9908C19.0507 32.9951 19.3344 32.9556 19.5943 32.8147C19.866 32.6674 20.0773 32.4273 20.1949 32.0982C20.2737 31.8776 20.2921 31.618 20.2853 31.3665C20.2783 31.1061 20.2428 30.8125 20.1864 30.5024C20.0736 29.8815 19.8709 29.1591 19.6101 28.439C19.3492 27.7184 19.0256 26.9874 18.6659 26.3515C18.3112 25.7243 17.9009 25.1526 17.454 24.786L17.3317 24.6856L17.1738 24.6739C16.7818 24.6449 15.8133 24.6635 14.9268 24.9703L14.2166 25.2162L14.7177 25.7762C15.5459 26.7019 17.2161 29.309 17.2161 32.2003Z" fill="#E7E7E7" stroke="#2C2C2C"/>
<path d="M9.59207 30.4715L9.47345 30.8603L9.8299 31.0558C10.2408 31.2811 11.2835 31.8001 12.1679 32.0621C12.4603 32.1488 12.7744 32.254 13.1099 32.3663C13.378 32.4561 13.6598 32.5505 13.9551 32.6436C14.5775 32.8399 15.2448 33.0251 15.7635 33.0476C16.5766 33.083 17.1799 32.8318 17.4367 32.6392L17.6672 32.4663L17.6332 32.1801C17.1578 28.1867 15.4729 25.9413 14.5782 25.274L14.476 25.1978L14.35 25.1798C14.2252 25.162 14.1195 25.1928 14.0802 25.2047C14.0236 25.2218 13.9673 25.2453 13.914 25.2706C13.8063 25.3216 13.6738 25.3975 13.5135 25.5017C13.1914 25.711 12.7243 26.0559 12.0671 26.6036C10.6636 27.7731 9.83734 29.6676 9.59207 30.4715Z" fill="#E7E7E7" stroke="#2C2C2C"/>
</g>
</svg>
