<svg width="63" height="65" viewBox="0 0 63 65" fill="none" xmlns="http://www.w3.org/2000/svg">
<path d="M0 38.2705V27.4259C6.84291 28.0546 8.60595 33.765 8.63211 36.5417C6.12095 37.1075 1.83105 37.93 0 38.2705Z" fill="#EB7A7D"/>
<path d="M25.1901 48.4866C15.7733 40.3138 5.62401 41.8331 1.72648 43.6144C1.09869 42.1055 0.575531 40.5758 0.392426 39.9995C15.3338 34.53 26.2364 42.8023 29.8201 47.6221C27.8111 47.9993 25.8964 48.3556 25.1901 48.4866Z" fill="#3EB595"/>
<path d="M3.92367 48.4079L2.11877 45.0288C13.2934 41.0682 21.214 46.26 23.7775 49.3509C22.7103 50.4197 21.0833 51.0536 20.4031 51.237C14.0625 46.7105 6.77488 47.4649 3.92367 48.4079Z" fill="#1B6578"/>
<path d="M19.0691 52.7301C17.9391 54.3018 15.8778 57.9953 14.9885 59.6455C10.8451 57.3195 6.5133 52.1276 4.86536 49.8225C13.1522 47.4964 17.7874 50.7917 19.0691 52.7301Z" fill="#1B6578"/>
<path d="M55.4024 52.9658C50.8823 59.3783 41.591 62.5531 37.5104 63.3389C39.0171 53.343 46.4564 50.0058 49.9877 49.5867C51.9339 50.6554 54.4084 52.2847 55.4024 52.9658Z" fill="#1B6578"/>
<path d="M48.1828 48.015C45.6717 45.4374 43.7883 41.8592 43.1605 40.3923C36.7571 42.467 33.4298 46.7577 32.5666 48.6437C34.136 50.4668 36.2548 56.1092 37.118 58.7025C39.5036 52.6672 45.4886 49.0628 48.1828 48.015Z" fill="#3EB595"/>
<path d="M56.3442 51.3941C50.4429 50.0739 45.9856 43.0379 44.4946 39.685C52.6559 36.856 59.7185 38.7158 62.2297 39.9993C61.288 45.5945 57.9136 49.9272 56.3442 51.3941Z" fill="#1B6578"/>
<path d="M62.7789 38.1919C59.9539 38.1291 55.6902 37.0656 53.9114 36.5417C55.0885 34.8914 55.9517 32.0624 60.0324 32.8482C63.2969 33.4769 63.2236 36.6726 62.7789 38.1919Z" fill="#3EB595"/>
<path d="M43.1606 21.8464C41.7794 30.0192 35.3655 32.6387 32.3312 32.9268C32.0173 36.636 32.2004 43.2214 32.3312 46.0504C38.1068 39.135 48.0782 36.7251 52.342 36.3845C53.472 24.5655 46.6919 21.7679 43.1606 21.8464Z" fill="#3EB595"/>
<path d="M30.6048 46.0503C25.0174 40.2665 18.1798 37.8776 15.4594 37.4061C19.6655 35.5201 23.0713 31.9052 24.2484 30.3335C24.8134 30.8364 28.7214 32.2195 30.6048 32.8482V46.0503Z" fill="#3EB595"/>
<path d="M19.6969 17.9172C19.1946 23.6382 21.5279 27.7927 22.7573 29.1548C18.0489 36.1331 12.7389 36.8299 10.6724 36.306C9.73069 31.5909 10.5416 26.3258 11.0647 24.2826C13.7015 18.9388 17.9181 17.8125 19.6969 17.9172Z" fill="#EB7A7D"/>
<path d="M21.0309 17.6815C20.9001 20.5629 21.235 26.5615 23.6206 27.5046C25.347 24.4922 27.246 18.3102 21.0309 17.6815Z" fill="#F4D45D"/>
<path d="M26.7595 13.2807C26.5084 15.1039 25.6608 17.1313 25.2685 17.9172C23.5107 17.1628 21.8418 16.1098 21.2663 15.6382C21.0152 12.4949 21.4756 11.1327 21.7372 10.8446C23.495 11.1589 25.8178 12.5997 26.7595 13.2807Z" fill="#FBF6A8"/>
<path d="M37.9028 10.216C34.3244 11.5362 32.0696 15.062 31.3895 16.6599C31.1017 16.3718 30.3222 15.4969 29.5061 14.3024C28.69 13.1079 29.2707 11.8663 29.663 11.3948C30.0554 10.9495 31.2482 9.7288 32.8805 8.40858C34.5127 7.08837 36.9088 9.06345 37.9028 10.216Z" fill="#FBF6A8"/>
<path d="M32.0957 31.0408C32.2265 28.0546 34.3244 22.0508 41.6695 21.925C41.2772 24.9636 38.8131 31.0408 32.0957 31.0408Z" fill="#F4D45D"/>
<path d="M62.7005 26.5615C59.6243 14.2395 48.2352 10.8447 42.9251 10.6875L42.6112 20.1962C51.9653 21.2649 53.8853 29.2334 53.676 33.084C58.3217 30.0664 61.7327 31.9838 62.8575 33.3198L62.7005 26.5615Z" fill="#EB7A7D"/>
<path d="M41.7711 20.4319V11.0018C31.852 11.1904 31.3079 21.0868 32.2758 26.0114C35.2892 21.485 39.8616 20.4057 41.7711 20.4319Z" fill="#F4D45D"/>
<path d="M34.3715 5.66427L31.9388 0.00620391C48.1358 -0.308133 57.2597 11.4009 59.797 17.2947C53.833 10.8823 46.2734 9.22676 43.2391 9.20056C43.2391 6.8116 42.9775 4.74745 42.8467 4.014C40.6494 3.6368 36.2811 4.95701 34.3715 5.66427Z" fill="#F7AE75"/>
<path d="M27.6227 11.7091C16.6364 5.10803 5.31004 14.4596 1.02014 19.9605C7.54915 4.74655 23.202 0.419173 30.2124 0.157227C30.5263 3.04913 32.2788 5.50096 33.1159 6.36538L27.6227 11.7091Z" fill="#F7AE75"/>
<path d="M30.8401 23.3394C30.7617 24.9897 30.8401 31.1193 30.8401 31.1193C27.3873 31.4965 25.4778 29.4952 24.9546 28.4474C25.5039 26.9281 26.6026 23.2137 26.6026 20.5104C26.6026 17.8071 27.7535 15.2453 28.329 14.3022C30.9029 17.6971 30.9186 21.6892 30.8401 23.3394Z" fill="#F4D45D"/>
<path d="M40.8848 9.4302C37.3064 8.55005 36.0979 7.33462 35.9409 6.83692C38.6404 5.1395 40.5709 5.3962 41.1987 5.73674C42.0776 7.55989 41.3556 8.95869 40.8848 9.4302Z" fill="#FBF6A8"/>
<path d="M6.51331 28.919C4.7555 26.9073 1.64794 25.9852 0.313888 25.7757C0.104625 24.7541 0.878899 21.485 5.6501 16.5813C10.4213 11.6777 17.0026 10.8185 19.6969 11.0018V16.267C18.389 16.0836 14.9885 16.6285 11.8495 20.2748C8.71057 23.9211 8.8152 29.4429 9.25989 31.7481C9.07678 31.6433 8.27112 30.9308 6.51331 28.919Z" fill="#F7AE75"/>
<path d="M36.0194 62.946C35.3916 64.7063 33.0374 64.0462 31.9388 63.4961C31.9388 57.2722 28.3813 51.7346 26.6026 49.7438C28.2348 49.178 30.0554 49.1414 30.7617 49.1937C33.8222 51.7084 36.8042 60.7456 36.0194 62.946Z" fill="#1B6578"/>
<path d="M21.1094 52.8872C18.4727 55.0875 16.8718 58.7286 16.401 60.2741C17.2119 60.7194 19.2574 61.7358 20.9525 62.2387C23.0713 62.8674 26.2102 64.1247 28.0151 64.2033C29.459 64.2662 30.4478 63.8104 30.7617 63.5746C29.82 55.6533 26.498 51.3679 24.9546 50.2153C24.7715 50.1891 23.7461 50.6868 21.1094 52.8872Z" fill="#1B6578"/>
</svg>
