<svg width="249" height="65" viewBox="0 0 249 65" fill="none" xmlns="http://www.w3.org/2000/svg">
<path d="M93.7002 41.5723V45H78.583V41.5723H93.7002ZM93.4805 26.1182L80.5312 45H77.4404V42.4805L90.4922 23.6719H93.4805V26.1182ZM91.9717 23.6719V27.1143H77.4551V23.6719H91.9717ZM110.81 41.5723V45H99.457V41.5723H110.81ZM100.893 23.6719V45H96.498V23.6719H100.893ZM109.33 32.3584V35.6982H99.457V32.3584H109.33ZM110.795 23.6719V27.1143H99.457V23.6719H110.795ZM124.477 39.4189C124.477 39.0381 124.418 38.6963 124.301 38.3936C124.193 38.0811 123.988 37.7979 123.686 37.5439C123.383 37.2803 122.958 37.0215 122.411 36.7676C121.864 36.5137 121.156 36.25 120.287 35.9766C119.32 35.6641 118.402 35.3125 117.533 34.9219C116.674 34.5312 115.912 34.0771 115.248 33.5596C114.594 33.0322 114.076 32.4219 113.695 31.7285C113.324 31.0352 113.139 30.2295 113.139 29.3115C113.139 28.4229 113.334 27.6172 113.725 26.8945C114.115 26.1621 114.662 25.5371 115.365 25.0195C116.068 24.4922 116.898 24.0869 117.855 23.8037C118.822 23.5205 119.882 23.3789 121.034 23.3789C122.606 23.3789 123.979 23.6621 125.15 24.2285C126.322 24.7949 127.23 25.5713 127.875 26.5576C128.529 27.5439 128.856 28.6719 128.856 29.9414H124.491C124.491 29.3164 124.359 28.7695 124.096 28.3008C123.842 27.8223 123.451 27.4463 122.924 27.1729C122.406 26.8994 121.752 26.7627 120.961 26.7627C120.199 26.7627 119.564 26.8799 119.057 27.1143C118.549 27.3389 118.168 27.6465 117.914 28.0371C117.66 28.418 117.533 28.8477 117.533 29.3262C117.533 29.6875 117.621 30.0146 117.797 30.3076C117.982 30.6006 118.256 30.874 118.617 31.1279C118.979 31.3818 119.423 31.6211 119.95 31.8457C120.478 32.0703 121.088 32.29 121.781 32.5049C122.943 32.8564 123.964 33.252 124.843 33.6914C125.731 34.1309 126.474 34.624 127.069 35.1709C127.665 35.7178 128.114 36.3379 128.417 37.0312C128.72 37.7246 128.871 38.5107 128.871 39.3896C128.871 40.3174 128.69 41.1475 128.329 41.8799C127.968 42.6123 127.445 43.2324 126.762 43.7402C126.078 44.248 125.263 44.6338 124.315 44.8975C123.368 45.1611 122.309 45.293 121.137 45.293C120.082 45.293 119.042 45.1562 118.017 44.8828C116.991 44.5996 116.059 44.1748 115.219 43.6084C114.389 43.042 113.725 42.3193 113.227 41.4404C112.729 40.5615 112.479 39.5215 112.479 38.3203H116.889C116.889 38.9844 116.991 39.5459 117.196 40.0049C117.401 40.4639 117.689 40.835 118.061 41.1182C118.441 41.4014 118.891 41.6064 119.408 41.7334C119.936 41.8604 120.512 41.9238 121.137 41.9238C121.898 41.9238 122.523 41.8164 123.012 41.6016C123.51 41.3867 123.876 41.0889 124.11 40.708C124.354 40.3271 124.477 39.8975 124.477 39.4189ZM141.396 23.6719V45H137.016V23.6719H141.396ZM147.958 23.6719V27.1143H130.556V23.6719H147.958ZM158.812 35.6396H153.334L153.305 32.6221H157.904C158.715 32.6221 159.379 32.5195 159.896 32.3145C160.414 32.0996 160.8 31.792 161.054 31.3916C161.317 30.9814 161.449 30.4834 161.449 29.8975C161.449 29.2334 161.322 28.6963 161.068 28.2861C160.824 27.876 160.438 27.5781 159.911 27.3926C159.394 27.207 158.725 27.1143 157.904 27.1143H154.857V45H150.463V23.6719H157.904C159.145 23.6719 160.253 23.7891 161.229 24.0234C162.216 24.2578 163.051 24.6143 163.734 25.0928C164.418 25.5713 164.94 26.1768 165.302 26.9092C165.663 27.6318 165.844 28.4912 165.844 29.4873C165.844 30.3662 165.644 31.1768 165.243 31.9189C164.853 32.6611 164.232 33.2666 163.383 33.7354C162.543 34.2041 161.444 34.4629 160.087 34.5117L158.812 35.6396ZM158.622 45H152.133L153.847 41.5723H158.622C159.394 41.5723 160.023 41.4502 160.512 41.2061C161 40.9521 161.361 40.6104 161.596 40.1807C161.83 39.751 161.947 39.2578 161.947 38.7012C161.947 38.0762 161.84 37.5342 161.625 37.0752C161.42 36.6162 161.088 36.2646 160.629 36.0205C160.17 35.7666 159.564 35.6396 158.812 35.6396H154.579L154.608 32.6221H159.882L160.893 33.8086C162.191 33.7891 163.236 34.0186 164.027 34.4971C164.828 34.9658 165.409 35.5762 165.771 36.3281C166.142 37.0801 166.327 37.8857 166.327 38.7451C166.327 40.1123 166.029 41.2646 165.434 42.2021C164.838 43.1299 163.964 43.8281 162.812 44.2969C161.669 44.7656 160.272 45 158.622 45ZM183.334 41.5723V45H172.597V41.5723H183.334ZM174.018 23.6719V45H169.623V23.6719H174.018ZM202.406 33.8379V34.8486C202.406 36.4697 202.187 37.9248 201.747 39.2139C201.308 40.5029 200.688 41.6016 199.887 42.5098C199.086 43.4082 198.129 44.0967 197.016 44.5752C195.912 45.0537 194.687 45.293 193.339 45.293C192.001 45.293 190.775 45.0537 189.662 44.5752C188.559 44.0967 187.602 43.4082 186.791 42.5098C185.98 41.6016 185.351 40.5029 184.901 39.2139C184.462 37.9248 184.242 36.4697 184.242 34.8486V33.8379C184.242 32.207 184.462 30.752 184.901 29.4727C185.341 28.1836 185.961 27.085 186.762 26.1768C187.572 25.2686 188.529 24.5752 189.633 24.0967C190.746 23.6182 191.972 23.3789 193.31 23.3789C194.657 23.3789 195.883 23.6182 196.986 24.0967C198.1 24.5752 199.057 25.2686 199.857 26.1768C200.668 27.085 201.293 28.1836 201.732 29.4727C202.182 30.752 202.406 32.207 202.406 33.8379ZM197.968 34.8486V33.8086C197.968 32.6758 197.865 31.6797 197.66 30.8203C197.455 29.9609 197.152 29.2383 196.752 28.6523C196.352 28.0664 195.863 27.627 195.287 27.334C194.711 27.0312 194.052 26.8799 193.31 26.8799C192.567 26.8799 191.908 27.0312 191.332 27.334C190.766 27.627 190.282 28.0664 189.882 28.6523C189.491 29.2383 189.193 29.9609 188.988 30.8203C188.783 31.6797 188.681 32.6758 188.681 33.8086V34.8486C188.681 35.9717 188.783 36.9678 188.988 37.8369C189.193 38.6963 189.496 39.4238 189.896 40.0195C190.297 40.6055 190.785 41.0498 191.361 41.3525C191.938 41.6553 192.597 41.8066 193.339 41.8066C194.081 41.8066 194.74 41.6553 195.316 41.3525C195.893 41.0498 196.376 40.6055 196.767 40.0195C197.157 39.4238 197.455 38.6963 197.66 37.8369C197.865 36.9678 197.968 35.9717 197.968 34.8486ZM223.09 33.8379V34.8486C223.09 36.4697 222.87 37.9248 222.431 39.2139C221.991 40.5029 221.371 41.6016 220.57 42.5098C219.77 43.4082 218.812 44.0967 217.699 44.5752C216.596 45.0537 215.37 45.293 214.022 45.293C212.685 45.293 211.459 45.0537 210.346 44.5752C209.242 44.0967 208.285 43.4082 207.475 42.5098C206.664 41.6016 206.034 40.5029 205.585 39.2139C205.146 37.9248 204.926 36.4697 204.926 34.8486V33.8379C204.926 32.207 205.146 30.752 205.585 29.4727C206.024 28.1836 206.645 27.085 207.445 26.1768C208.256 25.2686 209.213 24.5752 210.316 24.0967C211.43 23.6182 212.655 23.3789 213.993 23.3789C215.341 23.3789 216.566 23.6182 217.67 24.0967C218.783 24.5752 219.74 25.2686 220.541 26.1768C221.352 27.085 221.977 28.1836 222.416 29.4727C222.865 30.752 223.09 32.207 223.09 33.8379ZM218.651 34.8486V33.8086C218.651 32.6758 218.549 31.6797 218.344 30.8203C218.139 29.9609 217.836 29.2383 217.436 28.6523C217.035 28.0664 216.547 27.627 215.971 27.334C215.395 27.0312 214.735 26.8799 213.993 26.8799C213.251 26.8799 212.592 27.0312 212.016 27.334C211.449 27.627 210.966 28.0664 210.565 28.6523C210.175 29.2383 209.877 29.9609 209.672 30.8203C209.467 31.6797 209.364 32.6758 209.364 33.8086V34.8486C209.364 35.9717 209.467 36.9678 209.672 37.8369C209.877 38.6963 210.18 39.4238 210.58 40.0195C210.98 40.6055 211.469 41.0498 212.045 41.3525C212.621 41.6553 213.28 41.8066 214.022 41.8066C214.765 41.8066 215.424 41.6553 216 41.3525C216.576 41.0498 217.06 40.6055 217.45 40.0195C217.841 39.4238 218.139 38.6963 218.344 37.8369C218.549 36.9678 218.651 35.9717 218.651 34.8486ZM228.261 23.6719H231.981L237.46 39.3311L242.938 23.6719H246.659L238.954 45H235.966L228.261 23.6719ZM226.254 23.6719H229.96L230.634 38.9355V45H226.254V23.6719ZM244.96 23.6719H248.681V45H244.286V38.9355L244.96 23.6719Z" fill="black"/>
<path d="M0 38.2704V27.4258C6.84291 28.0545 8.60595 33.7649 8.63211 36.5416C6.12095 37.1074 1.83105 37.9299 0 38.2704Z" fill="#EB7A7D"/>
<path d="M25.1901 48.4865C15.7733 40.3137 5.62401 41.833 1.72648 43.6142C1.09869 42.1054 0.575531 40.5756 0.392426 39.9993C15.3338 34.5299 26.2364 42.8022 29.8201 47.622C27.8111 47.9992 25.8964 48.3555 25.1901 48.4865Z" fill="#3EB595"/>
<path d="M3.92367 48.4079L2.11877 45.0288C13.2934 41.0682 21.214 46.26 23.7775 49.3509C22.7103 50.4197 21.0833 51.0536 20.4031 51.237C14.0625 46.7105 6.77488 47.4649 3.92367 48.4079Z" fill="#1B6578"/>
<path d="M19.0691 52.7301C17.9391 54.3018 15.8778 57.9953 14.9885 59.6455C10.8451 57.3195 6.5133 52.1276 4.86536 49.8225C13.1522 47.4964 17.7874 50.7917 19.0691 52.7301Z" fill="#1B6578"/>
<path d="M55.4024 52.9658C50.8823 59.3783 41.591 62.5531 37.5104 63.3389C39.0171 53.343 46.4564 50.0058 49.9877 49.5867C51.9339 50.6554 54.4084 52.2847 55.4024 52.9658Z" fill="#1B6578"/>
<path d="M48.1828 48.015C45.6717 45.4374 43.7883 41.8592 43.1605 40.3923C36.7571 42.467 33.4298 46.7577 32.5666 48.6437C34.136 50.4668 36.2548 56.1092 37.118 58.7025C39.5036 52.6672 45.4886 49.0628 48.1828 48.015Z" fill="#3EB595"/>
<path d="M56.3442 51.3939C50.4429 50.0737 45.9856 43.0378 44.4946 39.6849C52.6559 36.8558 59.7185 38.7157 62.2297 39.9992C61.288 45.5944 57.9136 49.927 56.3442 51.3939Z" fill="#1B6578"/>
<path d="M62.7789 38.1919C59.9539 38.1291 55.6902 37.0656 53.9114 36.5417C55.0885 34.8914 55.9517 32.0624 60.0324 32.8482C63.2969 33.4769 63.2236 36.6726 62.7789 38.1919Z" fill="#3EB595"/>
<path d="M43.1606 21.8466C41.7794 30.0193 35.3655 32.6388 32.3312 32.9269C32.0173 36.6361 32.2004 43.2215 32.3312 46.0505C38.1068 39.1351 48.0782 36.7252 52.342 36.3847C53.472 24.5656 46.6919 21.768 43.1606 21.8466Z" fill="#3EB595"/>
<path d="M30.6048 46.0503C25.0174 40.2665 18.1798 37.8776 15.4594 37.4061C19.6655 35.5201 23.0713 31.9052 24.2484 30.3335C24.8134 30.8364 28.7214 32.2195 30.6048 32.8482V46.0503Z" fill="#3EB595"/>
<path d="M19.6969 17.9171C19.1946 23.6381 21.5279 27.7925 22.7573 29.1547C18.0489 36.133 12.7389 36.8297 10.6724 36.3058C9.73069 31.5908 10.5416 26.3256 11.0647 24.2824C13.7015 18.9387 17.9181 17.8123 19.6969 17.9171Z" fill="#EB7A7D"/>
<path d="M21.0309 17.6816C20.9001 20.5631 21.235 26.5617 23.6206 27.5047C25.347 24.4923 27.246 18.3103 21.0309 17.6816Z" fill="#F4D45D"/>
<path d="M26.7595 13.2808C26.5084 15.104 25.6608 17.1315 25.2685 17.9173C23.5107 17.1629 21.8418 16.1099 21.2663 15.6384C21.0152 12.495 21.4756 11.1329 21.7372 10.8447C23.495 11.1591 25.8178 12.5998 26.7595 13.2808Z" fill="#FBF6A8"/>
<path d="M37.9028 10.2159C34.3244 11.5361 32.0696 15.0619 31.3895 16.6598C31.1017 16.3717 30.3222 15.4968 29.5061 14.3023C28.69 13.1078 29.2707 11.8662 29.663 11.3947C30.0554 10.9494 31.2482 9.72867 32.8805 8.40846C34.5127 7.08824 36.9088 9.06333 37.9028 10.2159Z" fill="#FBF6A8"/>
<path d="M32.0957 31.0408C32.2265 28.0546 34.3244 22.0508 41.6695 21.925C41.2772 24.9636 38.8131 31.0408 32.0957 31.0408Z" fill="#F4D45D"/>
<path d="M62.7005 26.5615C59.6243 14.2395 48.2352 10.8447 42.9251 10.6875L42.6112 20.1962C51.9653 21.2649 53.8853 29.2334 53.676 33.084C58.3217 30.0664 61.7327 31.9838 62.8575 33.3198L62.7005 26.5615Z" fill="#EB7A7D"/>
<path d="M41.7711 20.4318V11.0017C31.852 11.1903 31.3079 21.0867 32.2758 26.0113C35.2892 21.4849 39.8616 20.4056 41.7711 20.4318Z" fill="#F4D45D"/>
<path d="M34.3715 5.66427L31.9388 0.00620391C48.1358 -0.308133 57.2597 11.4009 59.797 17.2947C53.833 10.8823 46.2734 9.22676 43.2391 9.20056C43.2391 6.8116 42.9775 4.74745 42.8467 4.014C40.6494 3.6368 36.2811 4.95701 34.3715 5.66427Z" fill="#F7AE75"/>
<path d="M27.6227 11.7091C16.6364 5.10803 5.31004 14.4596 1.02014 19.9605C7.54915 4.74655 23.202 0.419173 30.2124 0.157227C30.5263 3.04913 32.2788 5.50096 33.1159 6.36538L27.6227 11.7091Z" fill="#F7AE75"/>
<path d="M30.8401 23.3394C30.7617 24.9897 30.8401 31.1193 30.8401 31.1193C27.3873 31.4965 25.4778 29.4952 24.9546 28.4474C25.5039 26.9281 26.6026 23.2137 26.6026 20.5104C26.6026 17.8071 27.7535 15.2453 28.329 14.3022C30.9029 17.6971 30.9186 21.6892 30.8401 23.3394Z" fill="#F4D45D"/>
<path d="M40.8848 9.43008C37.3064 8.54993 36.0979 7.3345 35.9409 6.83679C38.6404 5.13937 40.5709 5.39608 41.1987 5.73661C42.0776 7.55977 41.3556 8.95857 40.8848 9.43008Z" fill="#FBF6A8"/>
<path d="M6.51331 28.9189C4.7555 26.9072 1.64794 25.9851 0.313888 25.7755C0.104625 24.754 0.878899 21.4848 5.6501 16.5812C10.4213 11.6775 17.0026 10.8183 19.6969 11.0017V16.2669C18.389 16.0835 14.9885 16.6283 11.8495 20.2747C8.71057 23.921 8.8152 29.4428 9.25989 31.748C9.07678 31.6432 8.27112 30.9307 6.51331 28.9189Z" fill="#F7AE75"/>
<path d="M36.0194 62.946C35.3916 64.7063 33.0374 64.0462 31.9388 63.4961C31.9388 57.2722 28.3813 51.7346 26.6026 49.7438C28.2348 49.178 30.0554 49.1414 30.7617 49.1937C33.8222 51.7084 36.8042 60.7456 36.0194 62.946Z" fill="#1B6578"/>
<path d="M21.1094 52.8872C18.4727 55.0875 16.8718 58.7286 16.401 60.2741C17.2119 60.7194 19.2574 61.7358 20.9525 62.2387C23.0713 62.8674 26.2102 64.1247 28.0151 64.2033C29.459 64.2662 30.4478 63.8104 30.7617 63.5746C29.82 55.6533 26.498 51.3679 24.9546 50.2153C24.7715 50.1891 23.7461 50.6868 21.1094 52.8872Z" fill="#1B6578"/>
</svg>
