<svg width="48" height="48" viewBox="0 0 48 48" fill="none" xmlns="http://www.w3.org/2000/svg">
<path d="M44.94 10.4C44 9.92002 43.02 9.52002 42 9.18002V33.2401C39.72 32.4201 37.38 32.0001 35 32.0001C31.2 32.0001 27.44 33.0801 24 35.1601V10.96C20.76 9.10002 17.02 8.00002 13 8.00002C9.42 8.00002 6.04 8.88002 3.06 10.4C2.4 10.72 2 11.42 2 12.16V36.3201C2 37.4801 2.94 38.3001 4 38.3001C4.32 38.3001 4.64 38.2201 4.96 38.0601C7.38 36.8001 10.1 36.0001 13 36.0001C17.14 36.0001 20.96 37.6401 24 40.0001C27.04 37.6401 30.86 36.0001 35 36.0001C37.9 36.0001 40.62 36.8001 43.04 38.0801C43.36 38.2401 43.68 38.3201 44 38.3201C45.04 38.3201 46 37.5001 46 36.3401V12.16C46 11.42 45.6 10.72 44.94 10.4ZM20 33.2401C17.72 32.4201 15.38 32.0001 13 32.0001C10.62 32.0001 8.28 32.4201 6 33.2401V13.42C8.22 12.48 10.56 12 13 12C15.4 12 17.78 12.5 20 13.44V33.2401ZM38 1L28 11V30.0001L38 21V1Z" fill="white"/>
</svg>
