<svg width="48" height="48" viewBox="0 0 48 48" fill="none" xmlns="http://www.w3.org/2000/svg">
<path d="M13.0512 32.8889C14.2668 32.8889 15.2614 33.8889 15.2614 35.1111C15.2614 37.5556 13.2722 39.5556 10.8409 39.5556C10.4652 39.5556 10.1116 39.5111 9.73582 39.4444C10.421 38.2222 10.8409 36.7556 10.8409 35.1111C10.8409 33.8889 11.8355 32.8889 13.0512 32.8889ZM38.8446 4C38.27 4 37.7174 4.22222 37.2754 4.64444L17.4716 24.5556L23.5498 30.6667L43.3535 10.7556C44.2155 9.88889 44.2155 8.48889 43.3535 7.62222L40.3918 4.64444C39.9497 4.2 39.3972 4 38.8446 4ZM13.0512 28.4444C9.38219 28.4444 6.42047 31.4222 6.42047 35.1111C6.42047 38.0222 3.8566 39.5556 2 39.5556C4.03342 42.2667 7.50349 44 10.8409 44C15.7256 44 19.6819 40.0222 19.6819 35.1111C19.6819 31.4222 16.7202 28.4444 13.0512 28.4444Z" fill="white"/>
</svg>
