<svg width="48" height="48" viewBox="0 0 48 48" fill="none" xmlns="http://www.w3.org/2000/svg">
<path d="M6 7.99999C6 6.89999 6.9 5.99999 8 5.99999H12V2H8C4.68 2 2 4.67999 2 7.99999V12H6V7.99999Z" fill="white"/>
<path d="M6 40V36H2V40C2 43.32 4.68 46 8 46H12V42H8C6.9 42 6 41.1 6 40Z" fill="white"/>
<path d="M40 2H36V5.99999H40C41.1 5.99999 42 6.89999 42 7.99999V12H46V7.99999C46 4.67999 43.32 2 40 2Z" fill="white"/>
<path d="M42 40C42 41.1 41.1 42 40 42H36V46H40C43.32 46 46 43.32 46 40V36H42V40Z" fill="white"/>
<path d="M38 29.74V18.26C38 16.82 37.24 15.5 36 14.8L26 9.04C25.38 8.68 24.7 8.5 24 8.5C23.3 8.5 22.62 8.68 22 9.04L12 14.78C10.76 15.5 10 16.82 10 18.26V29.74C10 31.18 10.76 32.5 12 33.2L22 38.96C22.62 39.32 23.3 39.5 24 39.5C24.7 39.5 25.38 39.32 26 38.96L36 33.2C37.24 32.5 38 31.18 38 29.74ZM22 34.34L14 29.74V20.48L22 25.14V34.34ZM24 21.68L16.08 17.06L24 12.5L31.92 17.06L24 21.68ZM34 29.74L26 34.34V25.14L34 20.48V29.74Z" fill="white"/>
</svg>
