<svg width="48" height="48" viewBox="0 0 48 48" fill="none" xmlns="http://www.w3.org/2000/svg">
<path d="M20 22L18.12 26.12L14 28L18.12 29.88L20 34L21.88 29.88L26 28L21.88 26.12L20 22ZM36.02 8L40.02 16H34.02L30.02 8H26.02L30.02 16H24.02L20.02 8H16.02L20.02 16H14.02L10.02 8H8.02002C5.82002 8 4.04002 9.8 4.04002 12L4.02002 36C4.02002 38.2 5.82002 40 8.02002 40H40.02C42.22 40 44 38.2 44 36V8H36.02ZM40.02 36H8.02002V12.94L11.54 20H32L30.74 22.74L28 24L30.74 25.26L32 28L33.26 25.26L36 24L33.26 22.74L32 20H40.02V36Z" fill="white"/>
</svg>
